<svg xmlns="http://www.w3.org/2000/svg" id="&#x56FE;&#x5C42;_1" height="512" viewBox="0 0 156 156" width="512"><g><g><path d="m133.57 76.77c-2.14-5.45-7.49-10.57-11.23-14.98-5.93-6.99-12.41-13.51-19.08-19.8-.43-.41-1.04-.58-1.62-.54-.44-.45-1.1-.68-1.7-.26-3.83 2.67-7.71 5.38-11.84 7.56-1.13.6-1.17 2.11-.38 2.98.78.87-.01 4.47-.06 5.56-.1 1.98-.26 3.81.04 5.71-12.18.09-24.37.18-36.55.27-4.4.03-11.04-1.45-14.9 1.11-.19.13-.36.28-.51.46-.18-.24-.52-.38-.84-.21-3.76 1.96-8.86 4.43-11.87 7.44-1.49 1.49-.2 4.78.17 6.29 1.09 4.46 1.45 11.38 3.75 15.32.62 1.05 2.48 1.35 3.37 1.66 3.05 1.06 5.6 2.57 8.72 3.29.9.21 1.68-.5 1.74-1.29 3.76.9 10.19-.37 12.46-.41 11.23-.22 22.57-.22 33.82-.94.3 2.16.59 4.33.89 6.49.26 1.93.18 4.78 1.19 6.49.81 1.38 3.45 2.01 4.81 2.66 2.41 1.16 4.76 2.42 7.34 3.15.42.12.82-.04 1.11-.32.6.75 1.97.77 2.56-.16 5.29-8.36 11.65-15.82 18.17-23.23 1.92-2.17 11.74-10.99 10.44-14.3zm-34.07-31.68c-.29 1.71-.52 3.42-.72 5.13-2.58.26-5.01 2.03-7.1 3.7.04-1.11.06-2.08-.19-2.98 2.66-1.96 5.36-3.87 8.01-5.85zm-7.85 11.06c1.27-.77 2.58-1.47 3.89-2.18 1.02-.55 2.08-1.01 3.02-1.66-.11 1.11-.18 2.22-.25 3.33-.13-.02-.26-.02-.41.02-1.95.57-4.37 1.43-5.87 2.84-.49.46-.14 1.47.58 1.39 1.9-.19 3.96-1.27 5.61-2.3-.05 1.15-.09 2.3-.09 3.47 0 1.05.67 1.67 1.45 1.86l-8.43.06c.52-2.19.49-4.54.5-6.83zm-63.21 28.69c-.08-.32-.17-.63-.25-.95.85-.56 1.71-1.08 2.61-1.57 1.49-.81 3.15-1.4 4.39-2.59.54-.51.12-1.41-.59-1.42-2.43-.04-4.92 1.4-7.09 2.99l-.86-3.25c1.04-.81 2.11-1.6 3.22-2.29 1.3-.81 2.78-1.35 3.82-2.52.46-.52.17-1.39-.58-1.39-2.53 0-5.11 2.02-7.04 4.04-.08-.3-.16-.59-.24-.89-.56-2.12 6.77-6.94 9.25-8.88-1.12 3.57.86 10.61 1.1 13.13.24 2.51.13 5.87.33 9.09-2.02.54-3.95 1.23-5.88 1.99-1.13-1.26-1.5-2.87-2.19-5.49zm5.61 7.68c-.2-.08-.38-.17-.56-.25 1.1-.48 2.18-1 3.25-1.56.16 1.23.4 2.4.77 3.45-1.03-.59-2.13-1.08-3.46-1.64zm56.88 3.21c2.43-.2 4.85-.45 7.27-.73-2.33 1.27-4.51 2.78-6.69 4.31-.19-1.2-.39-2.39-.58-3.58zm11.2 16.86c-1.29-1.01-2.68-1.9-4.11-2.73.12-.23.23-.46.31-.71.27-.8-.92-1.25-1.33-.56-.11.18-.23.35-.36.5-.85-.47-1.71-.93-2.56-1.39 1.14-.79 2.26-1.59 3.35-2.47s-.3-2.32-1.4-1.81c-1.26.59-2.47 1.26-3.68 1.94-.14-1.27-.3-2.53-.49-3.8 3.24-1.9 6.46-3.77 9.31-6.23.26-.23.31-.49.25-.74.32-.04.64-.07.96-.12.1 6.05.01 12.06-.25 18.12zm23.98-30.49c-2.4 3.17-4.77 6.34-7.04 9.6-4.2 6.03-8.58 11.89-13.45 17.38.48-5.57.56-11.2.22-16.77-.13-2.11-3.17-2.22-3.42-.28-.09-.02-.16-.05-.26-.05-11.47.23-22.92.79-34.39.97-5.83.09-11.66.15-17.49.22-1.93.02-8.67 1.24-9.02-2.36-.37-3.86-.75-7.71-1.14-11.57-.29-2.89-.59-5.78-.88-8.68-.39-3.88-.72-3.4 3.17-3.44 6.79-.06 13.59-.12 20.39-.18 12.63-.11 25.27-.22 37.9-.34 2.38-.02 2.38-3.7 0-3.69h-.01c.77-.2 1.42-.82 1.43-1.85.01-4.56.36-9 1.05-13.47 8.92 8.71 17.25 17.95 25.04 27.69 2.48 3.1-.02 4.07-2.1 6.82z" fill="rgb(0,0,0)"></path></g></g></svg>