<svg xmlns="http://www.w3.org/2000/svg" id="&#x56FE;&#x5C42;_1" height="512" viewBox="0 0 156 156" width="512"><g><g fill="rgb(0,0,0)"><path d="m123.96 60.19c.1-.28.12-.58.03-.88-3.73-12.23-10.2-23.04-19.24-32.09-.56-.56-1.51-.57-2.07 0-8.68 8.84-17.1 17.9-25.32 27.16-.03.04-.05.08-.08.12-.37.03-.7.29-.7.8.01 3.42.54 6.75 1.09 10.12.08.52.64.81 1.11.84 1.99.12 3.97.18 5.94.45.29.04.57.09.85.15-1.28 1.08-2.55 2.08-3.65 2.99-4.68 3.86-9.97 6.95-15.39 9.64-10.26 5.08-21.71 7.51-33.1 7.78-.81.02-1.51.67-1.5 1.5.14 9.33.19 18.65.12 27.98-.01.86.8 1.36 1.58 1.2.12-.02.24-.05.36-.08 2.36 3.66 4.96 7.17 7.46 10.73.29.42.83.75 1.36.55 17.76-6.4 33.84-16.43 47.66-29.27 6.94-6.45 22.07-20.16 22.02-32.03 3.04 1 6.13 1.56 9.36 1.7.58.03 1.3-.46 1.4-1.06.4-2.7 1.09-5.58.71-8.3zm-45.52-3.4c1.96.06 3.93.1 5.89.14-1.84 1.21-3.57 2.57-5.29 3.94-.24-1.35-.43-2.71-.6-4.08zm3.34 7.07c-.73 0-1.45.01-2.11.05-.15-.6-.28-1.2-.4-1.8 2.45-1.62 4.91-3.2 7.12-5.15 1.71.02 3.43.02 5.15.01-3.29 1.84-6.52 3.87-9.54 6.11-.31.23-.34.54-.22.78zm1.27.05c3.38-1.49 6.6-3.41 9.55-5.61-.9 2.35-2.65 4.48-4.63 6.4-1.49-.5-3.22-.71-4.92-.79zm-48.12 26.28c12.92-.6 25.24-4.07 36.68-10.17 5.56-2.97 10.64-6.78 15.36-10.93.64-.57 1.31-1.15 1.97-1.76.17 0 .34.02.51.01.72-.06 1.1-.76.86-1.32 2.82-2.83 5.21-6.13 4.98-10.21-.07-1.21-1.56-1.3-1.97-.37-.16-.32-.45-.58-.91-.62-3.67-.32-7.35-.52-11.02-.69 7.24-8.09 14.68-16 22.3-23.73 7.45 7.8 12.94 16.83 16.42 26.99-3.72-1.1-7.51-1.92-11.42-1.91-.35 0-.64.14-.86.34-.34.11-.64.36-.85.8-13.64 29.63-40.2 52.18-72.41 58.6.3-8.35.43-16.69.36-25.03zm76.21-28c-.41-.81-.92-1.6-1.55-2.37-.09-.11-.2-.17-.32-.2.18-.4.37-.8.55-1.21 1.57.31 3.14.61 4.69.92-1.19.88-2.31 1.82-3.37 2.86zm-75.86 55.4c2.42-.51 4.81-1.11 7.19-1.78-1.61 1.71-3 3.62-4.22 5.65-1.06-1.3-2.09-2.68-2.97-3.87zm5.89 7.08c-.69-.64-1.43-1.44-2.17-2.31.03-.03.07-.06.1-.1 1.76-2.65 3.86-4.99 6.08-7.25 3.2-1 6.34-2.15 9.42-3.44-4.37 4.49-8.99 8.71-13.43 13.1zm15.84-4.29c-4.18 2.17-8.52 4.01-12.9 5.71-.57.22-1.35-.12-2.23-.82 5.21-3.68 9.74-8.27 13.82-13.14.29-.35.12-.78-.18-.94 7.92-3.38 15.42-7.71 22.29-12.85-4.47 5.49-8.94 10.98-13.56 16.35-.53.62.14 1.47.75 1.26-2.63 1.55-5.29 3.03-7.99 4.43zm8.16-4.54c.04-.03.09-.05.13-.09 6.46-7.18 12.77-14.55 18.57-22.29 2.86-2.49 5.57-5.14 8.14-7.92-5.19 7.77-10.02 15.83-16.38 22.69-.19.2-.08.52.12.64-3.41 2.5-6.95 4.82-10.58 6.97zm14.13-9.7c-.24.19-.49.37-.73.56 2.73-2.61 4.98-5.61 7.2-8.73 4.79-6.75 9.95-13.4 14.2-20.5.28-.46.02-.97-.37-1.21 3.39-4.69 6.4-9.67 8.91-14.96.44 1.35.7 2.65.81 3.93-5.71 7.7-9.87 16.59-13.47 25.42v.02c-5.06 5.64-10.66 10.75-16.55 15.47zm29.91-37.09c-.93 6.73-5.72 12.57-10.31 18.08 3.14-6.22 6.74-12.12 10.31-18.08zm11.39-2.49c-1.93-.13-3.84-.42-5.72-.85 1.45-.94 2.89-1.89 4.21-3.01.74-.62-.21-1.74-1-1.3-1.92 1.07-3.66 2.43-5.42 3.74-.16-.05-.33-.09-.49-.14-.05-.21-.12-.42-.18-.64.11-.19.23-.38.34-.57.2-.35.06-.73-.2-.96 1.42-.95 2.75-1.98 3.99-3.16 1.83.39 3.65.82 5.47 1.38-.58 1.76-.79 3.66-1 5.51z"></path><path d="m66.18 106.21c-4.47 6.2-9.92 11.28-15.83 16.06-.52.42.15 1.21.69.9 6.75-3.92 12.13-9.75 16.28-16.29.47-.73-.65-1.35-1.14-.67z"></path></g></g></svg>