<svg xmlns="http://www.w3.org/2000/svg" id="&#x56FE;&#x5C42;_1" height="512" viewBox="0 0 156 156" width="512"><g><g><path d="m130.13 76.49c-14.82-13.61-30.93-25.41-48.64-34.99-.95-.51-2.18.02-2.58.92-.06.03-.12.05-.18.1-2.24 1.86-4.13 4.42-6.61 5.95-.71.44-.8 1.27-.46 1.96.93 1.9 1.97 4.15 3.22 6.16-12.12-2.26-24.65-2.83-36.73-5.1-1.14-.21-1.97.42-2.32 1.24-10.93 2.56-10.39 16.63-10.39 25.87 0 7.05-.4 15.69 2.15 22.35 1.71 4.47 9.5 6.91 13.62 7.95.38.1.72.02 1.01-.15.06-.01.12-.01.18-.03 10.79-3.29 21.55-6.69 32.31-10.09-1.61 3.7-2.39 8.2-2.78 11.86-.06.54.37 1.02.78 1.29 2.4 1.56 5.32 3.29 8.25 2.71.12-.02.22-.09.29-.17.6.42 1.44.53 2.07.13 16.68-10.7 32.03-22.78 46.85-35.91.59-.52.5-1.55-.04-2.05zm-101.24-7.25c2.02-1.86 4.03-3.56 6.61-4.83.94-.46.22-1.96-.74-1.64-1.79.58-3.62 1.47-5.21 2.65 1.05-4.18 3.24-7.76 7.6-9.93h.01c.45.1.9.19 1.35.29-.28 4.28-.38 8.56-.38 12.84-1.58 1.09-3.15 2.16-4.65 3.36-1.58 1.25-3.46 2.41-4.78 3.96-.06-2.26-.04-4.52.19-6.7zm-.05 7.51c2.03-.64 3.8-2.13 5.54-3.33 1.34-.92 2.57-1.96 3.78-3.04.02 1.88.08 3.75.14 5.63-3.27 2.34-6.23 5.11-9.22 7.8 0-.02 0-.04 0-.06-.1-2.24-.26-4.62-.35-7.01.03.01.06.03.11.01zm.25 9.32c.05-.02.1-.03.15-.07 3.05-2.41 6.23-4.75 9.12-7.38.09 2.48.21 4.96.35 7.43-.14-.04-.3-.02-.48.07-3.37 1.91-6.14 4.44-8.7 7.34-.6.68.39 1.64 1.03.97 2.51-2.63 5.35-4.94 8.22-7.17.13 2.37.28 4.74.44 7.11h-.01c-2.72 1.63-5.65 3.48-8.03 5.68-2.27-2.5-2.12-9.61-2.09-13.98zm3.64 15.22c2.33-1.3 4.55-2.96 6.61-4.64.19 2.87.38 5.74.56 8.6-2.49-1.14-4.89-2.37-7.17-3.96zm50.7-46.99c.73 1.64 1.48 3.27 2.25 4.89-2.1-.64-4.22-1.18-6.35-1.67-.04-.12-.1-.23-.14-.35 1.36-.81 2.67-1.67 3.98-2.59.12-.08.2-.18.26-.28zm-2.49-5.43c.03-.04.05-.08.07-.12.62 1.47 1.26 2.94 1.91 4.4-.18-.05-.39-.04-.6.06-1.37.65-2.69 1.34-4 2.07-.56-1.06-1.21-2.1-1.89-3.1 1.75-.62 3.27-1.99 4.51-3.31zm-6.33.78c1.31-1.83 3.13-3.37 4.67-5.04.46 1.16.96 2.3 1.45 3.45-.12-.05-.26-.04-.4.06-1.45 1.08-3.09 2.07-4.42 3.32-.44-.62-.88-1.22-1.3-1.79zm8.58 54.39c-.19-.05-.41-.03-.61.13-1.72 1.41-3.65 2.69-5.63 3.71-.95.49-.08 1.87.87 1.4 1.85-.91 3.43-2.02 4.86-3.44-.61 2.22-1.29 4.42-2.1 6.61-.05.14-.06.27-.07.4-1.65-1.16-3.6-1.87-5.32-3 .51-1.72.94-3.47 1.4-5.2.98-1.14 2.06-2.14 3.29-3.01 1.22-.86 2.89-1.26 3.93-2.3.37-.37.04-.91-.42-.94-1.5-.08-3.12 1.15-4.3 1.96-.58.4-1.12.84-1.64 1.31.44-1.42.89-2.81 1.15-4.26 2.09-.66 4.18-1.32 6.28-1.98-.41 2.91-.97 5.77-1.69 8.61zm2.57 4.46c1.51-4.98 2.55-10.03 3.12-15.28.15-1.33-.85-2.68-2.33-2.21-14.4 4.5-28.83 8.93-43.19 13.54-2.39-15.98-2.26-32.14-2.4-48.25 15.83 3.07 32.12 2.74 47.67 7.57 1.6.5 2.57-1.37 1.92-2.64-2.35-4.58-4.44-9.27-6.38-14.03 15.21 8.7 29.58 18.75 42.75 30.35-12.89 11.3-26.8 21.56-41.16 30.95z" fill="rgb(0,0,0)"></path></g></g></svg>