<svg xmlns="http://www.w3.org/2000/svg" id="fd874acb-d338-4bec-907d-ef066cdefdfa" height="512" viewBox="0 0 156 156" width="512"><g fill="rgb(0,0,0)"><path d="m106.86 49.94c-7.94 4.32-14.69 10.63-22.35 15.42-7.51 4.69-14.51 10.35-21.32 15.93-13.81 11.29-26.42 24.55-34.93 40.29-1.13 2.09 1.63 4.36 3.35 2.58 12.16-12.67 24.65-25 37.35-37.1q9.27-8.86 18.8-17.49c6.72-6.07 14.43-11 21.06-17.09 1.38-1.28-.39-3.4-1.96-2.54z"></path><path d="m127.86 33.82a2.72 2.72 0 0 0 -3.38-2.58c-8.3 1.32-16.78 1.93-24.81 4.52a1.88 1.88 0 0 0 1 3.63c7.23-1.53 14.54-1.72 21.83-2.55 0 2.74 0 5.49-.14 8.24-.13 3.75-.9 7.53-.47 11.26.21 1.76 2.89 3.12 3.81 1 3.12-6.98 2.16-16 2.16-23.52z"></path></g></svg>