<svg xmlns="http://www.w3.org/2000/svg" id="&#x56FE;&#x5C42;_1" height="512" viewBox="0 0 156 156" width="512"><g fill="rgb(0,0,0)" opacity=".9"><path d="m148.22 76.21c-.18-.72-.42-.98-1.22-1.37-1.19-.57-17.84-4.37-19.1-4.36-.9.01-1.47.55-1.6 1.52-.14 1.03.49 1.65 2 1.95 3.13.62 9.86 2.15 9.88 2.25.03.13-8.55 1.51-11.58 1.86-3.19.37-3.76.56-4.28 1.43-.62 1.04-.37 2.05.67 2.67.8.48 1.81.47 5.02-.05l1.03-.17-.92.65c-.68.48-1.04.9-1.38 1.63-.58 1.22-.38 1.96.67 2.59.92.55 1.83.33 6.34-1.53 4.02-1.65 4.71-2 9.94-4.94 4.38-2.45 4.84-2.87 4.53-4.13z"></path><path d="m120.21 80.69c-.12-.93-1.01-1.74-1.88-1.71-.36.01-1.8.17-3.25.36-1.43.18-3.78.42-5.2.53s-2.73.3-2.89.43c-1.7 1.35-.94 3.88 1.21 4.01 1.07.07 10.51-1.37 11.04-1.68.71-.41 1.07-1.14.97-1.94z"></path><path d="m102.15 82.9c.1-.81-.4-1.83-1.13-2.26-.53-.31-1.46-.25-6.63.44-5.31.71-5.92.89-6.51 1.88-.87 1.45.01 2.98 1.9 3.32.72.13 2.83-.1 7.48-.8 4.09-.63 4.68-.94 4.89-2.58z"></path><path d="m83.91 84.37c.05-.42-.04-1.02-.21-1.38-.59-1.23-1.2-1.36-5.72-1.22-2.31.07-4.77.12-5.45.11-1.85-.03-2.83.32-3.35 1.18-.6 1.01-.38 2.03.6 2.78.98.74 2.7.87 8.45.64 4.64-.19 5.47-.5 5.68-2.11z"></path><path d="m62.37 82.63c-.05-.39-.36-1-.68-1.35-.57-.62-.75-.66-6.02-1.29-6.2-.74-7.18-.67-7.92.56-.37.61-.42.96-.25 1.64.39 1.56 1.19 1.84 7.3 2.58 3.29.4 5.56.55 6 .41.94-.3 1.7-1.54 1.57-2.55z"></path><path d="m41.85 78.26c-.29-1.16-1.03-1.57-3.38-1.88-1.03-.14-3.54-.55-5.58-.92-2.05-.37-4.02-.6-4.39-.51-2.22.53-2.39 3.28-.26 4.19.73.31 8.22 1.59 10.86 1.85 1.34.13 1.96-.16 2.59-1.22.27-.47.32-.9.16-1.51z"></path><path d="m22.11 74.31c-.15-.38-.46-.79-.71-.94-.39-.23-9.3-3.78-10.88-4.34-1.54-.54-3.15.85-2.76 2.39.23.9.57 1.11 3.29 1.96 1.21.38 3.75 1.27 5.69 1.99 3.98 1.48 4.51 1.51 5.22.33.32-.55.35-.87.15-1.39z"></path></g></svg>