<svg xmlns="http://www.w3.org/2000/svg" id="&#x56FE;&#x5C42;_1" height="512" viewBox="0 0 150 150" width="512" data-name="&#x56FE;&#x5C42; 1"><path d="m133.65 93.79-26.81 3.84 8.79 5c-10.75 4.69-53.89 17.06-60.84.77-2.64-6.21 1.71-16.21 7.81-25.7 17.89-4 32.31-14.92 35.11-22.86 1.18-3.36.21-6.13-2.68-7.59-4.24-2.14-11.21 2.65-16.31 7.06a105.28 105.28 0 0 0 -18.06 20.75 55.11 55.11 0 0 1 -22.24 0c-7-1.47-10.86-4-11.62-7.64-1.91-9 15.38-23.78 22.2-28.69l-1.75-2.44c-1.07.77-26.09 19-23.39 31.75 1 4.87 5.72 8.22 13.94 10a57.4 57.4 0 0 0 20.71.44c-5.61 9.37-9.21 19.08-6.57 25.85 8.18 21 55.48 5.18 65.22.88v10.11zm-53-37.21c11.65-10.16 15.07-5.22 14.2-2.73-2.07 5.86-14 15.74-29.76 20.14a102.93 102.93 0 0 1 15.59-17.41z"></path></svg>