<svg xmlns="http://www.w3.org/2000/svg" id="af9a41ad-f58e-407b-b9e3-24d5f0471c25" height="512" viewBox="0 0 156 156" width="512"><g fill="rgb(0,0,0)"><path d="m84 13.41c-14.42-8.15-35.72 1.71-44.15 14.49-10.97 16.62-12.12 37.83-11.85 57.15a299.15 299.15 0 0 0 7.06 58.18c.79 3.66 6.36 2.74 6.39-.86.22-31-7.62-61.66-.24-92.44 3.81-15.85 17.51-38.11 36.43-33.66 18.36 4.31 24.16 26.83 31.48 41.09.69 1.34 3.16.79 3-.8-2.12-16.2-13.81-35.09-28.12-43.15z"></path><path d="m126.89 54.27a3 3 0 0 0 -5.7 0c-1 3.76-.79 7.62-.86 11.51-.07 3.48-.37 6.92-.73 10.37-8.93-3.23-16.43-9-24.61-13.88-2.39-1.43-4.22 2-2.12 3.63 9 6.85 18 14.11 28.76 18a3.42 3.42 0 0 0 4.2-2.39c1.67-8.28 3.34-18.97 1.06-27.24z"></path></g></svg>