<svg xmlns="http://www.w3.org/2000/svg" id="&#x56FE;&#x5C42;_1" height="512" viewBox="0 0 156 156" width="512"><g><g fill="rgb(0,0,0)"><path d="m127.57 86.02c-12.9-7.95-26.14-15.16-39.85-21.61-.76-.36-1.91-.03-2.05.93-.35 2.5-.52 4.97-.56 7.44-10.75-8.12 1.21-25.85 13.5-25.17 1.41.08 1.73-1.71.95-2.56-3.39-3.68-2.21-9.23-5.41-12.79-.19-.21-.52-.24-.77-.17-.22.06-.44.11-.65.17-.42.11-.46.51-.29.81-18.21-1.22-36.55-1.61-54.78-.36-.16-1.49-2.5-2.33-3.48-.67-6 10.22-7.82 22.2-5.65 33.47-.21.05-.39.24-.34.52 2.67 12.74 7.2 25.56 17.12 34.49 4.93 4.44 11.2 6.91 17.35 9.11 7.51 2.69 15.36 5.23 23.4 3.98.25-.04.46-.12.65-.23.13.16.3.27.49.36-.46 3.41.04 6.73.69 10.15.18.97 1.47 1.25 2.2.8 10.11-6.17 19.94-12.83 29.85-19.33 2.14-1.4 6.92-3.46 7.58-6.41.73-3.26.5-6.89-.02-10.25l.18-.09c1.08-.54.73-2.07-.11-2.59zm-42.4-9.64c.03.62.04 1.23.09 1.85-2.28-.24-4.51-.66-6.59-1.4.81-.48 1.66-.92 2.53-1.31.65-.29.38-1.28-.34-1.08-1.32.37-2.5 1.01-3.54 1.83-1.71-.77-3.31-1.79-4.71-3.22 1.79-1.24 3.69-2.28 5.59-3.36.11-.06.19-.13.25-.22 1.07 3.24 3.28 5.92 6.72 6.91zm9.15-39.87c.42 1.9.61 4.1.77 4.89.23 1.15.63 2.21 1.1 3.25-5.58.42-11.21 4.16-14.76 8.89-.1-.06-.22-.1-.37-.09-3.74.33-6.72 2.24-8.75 5.39-.5.78.73 1.64 1.31.93 1.75-2.14 4.1-3.72 6.71-4.64-.8 1.29-1.45 2.62-1.89 3.97-.94 2.84-1.09 6.15-.37 9.13-.17-.08-.37-.11-.59-.03-2.25.78-4.21 2.07-6.06 3.53-3.63-4.88-1.56-11.76 1.06-16.49 1.1-1.99 2.5-3.85 4.09-5.59-.2.36.22.88.67.62 5.47-3.09 11.29-5.06 16.99-7.62.59-.27.34-1.09-.31-.96-6.15 1.23-11.93 4.48-17.2 7.78-.02.01-.03.03-.05.05 4.93-5.36 11.72-9.6 17.65-13.01zm-52.96 55.25c-2.35-2.86-4.34-6.02-6.04-9.34.94 1.45 1.94 2.87 3.05 4.22 1.32 1.6 2.75 3.07 4.27 4.44-.44.21-.87.43-1.28.68zm4.84 4.98c-1.23-1.06-2.38-2.19-3.45-3.38.56-.23 1.11-.5 1.64-.79 1.4 1.13 2.86 2.17 4.38 3.12-.78.37-1.53.8-2.27 1.29-.09-.08-.2-.16-.3-.24zm1.35 1.09c.88-.45 1.77-.87 2.67-1.29 2.2 1.27 4.5 2.34 6.88 3.23-.47.21-.94.42-1.41.63-1.12.5-.35 2.11.71 1.51.87-.49 1.73-.98 2.6-1.46 2.18.72 4.41 1.29 6.68 1.7-1.73 1.06-3.47 2.11-5.2 3.18-4.75-2-9.18-4.53-12.93-7.5zm14.11 7.98c2.14-.86 4.17-2.02 6.03-3.37 2.57.36 5.16.51 7.75.47-2.74 1.64-5.46 3.3-8.27 4.81-1.87-.56-3.71-1.19-5.51-1.91zm24.79 4.66c-.16-.04-.33-.09-.53-.08-2.28.07-4.65-.03-7.05-.29.07-.02.14-.02.21-.05 2.31-1.09 4.51-2.2 6.67-3.57.86-.54.22-1.96-.76-1.62-2.51.88-4.83 1.97-7.21 3.15-.97.48-.63 1.57.13 1.99-2.74-.34-5.52-.88-8.28-1.59 3.13-1.69 6.2-3.5 9.03-5.65 2.54-.21 5.07-.6 7.55-1.21.26 2.98.33 5.93.24 8.92zm.89-13.17c-16.92 4.95-35.59-.59-46.87-14.22-11.02-13.32-11.61-32.94-3.82-47.88 17.17-.15 34.28-.03 51.41 1.03-10 6.39-20.38 15.44-21.6 27.4-.76 7.43 3.2 12.09 8.68 14.81-.26.43.3.93.69.54.05-.05.11-.09.16-.14 3.4 1.52 7.29 2.34 10.99 2.63.8.06 1.56-.84 1.48-1.6-.13-1.25-.21-2.5-.27-3.74.2-.42.19-.96-.05-1.36-.07-2.3-.03-4.6.14-6.92 12.16 5.82 24.02 12.27 35.49 19.36-12.13 5.94-22.99 13.24-33.69 21.42.15-3.18.07-6.35-.26-9.57-.12-1.25-1.24-2.12-2.48-1.76zm23.4 10.04c-3.1 2.03-6.22 4.06-9.32 6.1 3.84-4.26 7.31-8.73 10.46-13.56.52-.8-.78-1.72-1.36-.97-3.86 5.04-7.98 9.94-12.29 14.6-.61.66-.24 1.48.37 1.8-2.8 1.86-5.59 3.73-8.35 5.65-.47-2.45-.73-4.92-1.09-7.39.06-.04.14-.06.2-.12 9.35-8.64 20.38-15.69 31.75-21.58-3.4 4.82-6.87 9.61-10.38 14.36-.28.39-.2.81.01 1.11zm13.89-11.48c.06 3.85-7.36 7.64-11.36 9.91 3.28-4.28 6.27-8.69 9.03-13.35.28-.47-.07-.85-.48-.89.93-.48 1.86-.96 2.79-1.43-.07 1.91-.01 3.82.02 5.76z"></path><path d="m74.98 62.47c-1.76 1.13-3.44 2.37-5.12 3.61-.71.52.01 1.68.74 1.16 1.71-1.22 3.41-2.41 5.04-3.74.59-.48.02-1.47-.66-1.03z"></path><path d="m100.83 104.2c-2.08 2.39-3.98 4.86-5.87 7.4-1.58 2.13-4.23 4.49-4.76 7.13-.02.1.07.2.18.16 2.49-1 4.26-4.04 5.92-6.06 2.07-2.52 3.93-5.08 5.6-7.88.38-.64-.58-1.31-1.07-.75z"></path></g></g></svg>