<svg xmlns="http://www.w3.org/2000/svg" id="fadc2926-53af-4af3-9abb-468d47fe0817" height="512" viewBox="0 0 156 156" width="512"><g fill="rgb(0,0,0)"><path d="m116.49 80.92c-1.67-11.36-14.27-21.45-24-26-10.29-4.8-22-5.57-33-3.23-24.26 5.15-37.36 29.28-29 52.48a2 2 0 0 0 3.81-1.05c-4.05-21.45 5.27-39.12 27.15-44.43a44.15 44.15 0 0 1 28.71 3.21 41.19 41.19 0 0 1 11.59 8.44c4 4.07 5.91 9.34 9.43 13.67 2.26 2.78 5.71-.35 5.31-3.09z"></path><path d="m127.57 73.53c-.45-1.4-2.57-2.35-3.64-1-2.06 2.66-1.82 6.44-2.15 9.67a57.55 57.55 0 0 1 -2.12 12.19 138.67 138.67 0 0 1 -18.52-10.81c-1.68-1.21-3.11 1.26-2 2.62 5.09 6.42 13.41 10.72 20.6 14.31 1.22.61 3.09.44 3.73-1a45.48 45.48 0 0 0 3.28-13.11c.47-3.68 1.98-9.24.82-12.87z"></path></g></svg>