<svg xmlns="http://www.w3.org/2000/svg" xmlns:xlink="http://www.w3.org/1999/xlink" id="Capa_1" x="0px" y="0px" viewBox="0 0 152.441 152.441" style="enable-background:new 0 0 152.441 152.441;" xml:space="preserve"><g>	<path d="M151.75,75.632c-0.18-0.26-8.068-10.27-15.42-17.22c-0.02-0.02-0.039-0.04-0.07-0.06c-3.379-3.56-6.979-6.95-9.949-8.89  c-1.789-1.17-5.859-3.47-7.83-1.44c-2.24,2.31-2.561,7.56-2.65,10.93c-19.6,0.8-39.17-1.68-58.779-1.73  c-9.449-0.02-18.92,0.49-28.359,0.08c-8.851-0.38-17.6-1.45-26.41-0.07c-0.051,0.01-0.08,0.03-0.121,0.04  c-0.359,0.03-0.68,0.26-0.75,0.73c-0.648,4.24-1.01,8.52-1.17,12.82c-0.148,1.77-0.219,3.53-0.1,5.25c-0.01,1.29,0,2.58,0.02,3.86  c0.021,0.97-0.17,2.76-0.16,3.09c0.041,1.85,1.262,2.85,3.07,2.96c0.361,0.02,0.721,0.04,1.08,0.05  c-0.039,0.51-0.07,0.93-0.07,1.07c0.051,1.85,1.262,2.85,3.08,2.96c2.08,0.13,4.101,0.09,6.141,0.25  c6.631,1.33,13.43,1.53,20.209,1.47c10.111-0.11,20.201-0.44,30.32-0.36c10.06,0.08,20.051,0.07,30.102-0.481  c8.328-0.46,16.76-0.92,25.059,0.08c0.35,1.74,0.691,3.48,0.941,5.27c0.209,1.51,0.289,3.2,1.5,4.24  c0.719,0.62,1.658,0.73,2.67,0.51c0.17,1.31,0.379,2.68,1.408,3.57c2.73,2.36,8.48-2.73,10.25-4.32  c4.971-4.46,9.141-10.18,13.182-15.46C150.811,82.392,153.801,78.742,151.75,75.632z M123.76,98.792  c-0.789,0.06-1.379-0.28-1.609-1.25c-0.379-1.63-0.799-4.15-1.119-6.24c-0.111-0.77-0.211-1.49-0.281-2.07  c-0.119-0.94-0.189-1.56-0.16-1.57c-0.02-0.15-0.049-0.29-0.068-0.43c-0.17-0.5-0.4-0.94-0.871-1.37  c-0.23-0.21-0.48-0.38-0.74-0.53c-0.189-0.04-0.379-0.07-0.58-0.11c-0.059,0.06-16.729-0.94-25.029-0.54  c-9.961,0.48-19.82,0.78-29.791,0.69c-10.299-0.09-20.568-0.02-30.859,0.26c-4.67,0.13-18.75-1.36-25.879-2.16  c-1-0.11-1.861-0.21-2.541-0.29c-1.08-0.12-1.699-0.2-1.709-0.2c0.109-0.25,0.719-20.16,0.789-23.3c0-0.15-0.029-0.27-0.08-0.38  c0.01-0.07,0.02-0.14,0.031-0.21c9.01-1.33,18.139-0.1,27.18,0.29c9.51,0.4,19.08-0.18,28.6-0.16c19.029,0.05,38,2.52,57.029,1.72  c0.221-0.01,0.391-0.08,0.531-0.18c0.549,0.08,1.199-0.23,1.209-0.96c0.029-1.75,0.221-11.22,4.15-10.22  c1.379,0.35,2.699,1.03,3.949,1.87c1.711,1.15,3.281,2.6,4.65,3.9c0.881,0.83,1.859,1.84,2.891,2.96  c0.02,0.03,0.029,0.04,0.049,0.05c5.57,6.01,12.641,15,12.771,15.06c0.449,2.43-2.82,5.88-3.961,7.41  c-3.15,4.23-6.73,8.08-10.221,12.04c-0.779,0.89-3.959,3.99-6.529,5.32C124.901,98.532,124.282,98.752,123.76,98.792z"></path></g><g></g><g></g><g></g><g></g><g></g><g></g><g></g><g></g><g></g><g></g><g></g><g></g><g></g><g></g><g></g></svg>