<svg xmlns="http://www.w3.org/2000/svg" id="&#x56FE;&#x5C42;_1" height="512" viewBox="0 0 156 156" width="512"><g fill="rgb(0,0,0)" opacity=".9"><path d="m18.25 94.84c-1.6 1.24-2.61 3.33-2.54 5.25.12 3.24 2.39 5.86 5.33 6.15 1.49.15 3.38-.51 4.39-1.52.99-.99 2.22-3.39 2.19-4.27-.01-.15.8-.38 2.67-.77 1.48-.31 2.77-.64 2.88-.74.17-.15-.11-2.49-.38-3.23-.03-.1-1.25.09-2.69.42l-2.62.59-.38-.6c-.65-1.02-1.23-1.41-2.98-1.97-2.41-.8-4.25-.58-5.87.69zm2.95 1.93c2.06.14 3.29 2.21 2.5 4.2-1.08 2.74-4.85 2.52-5.66-.32-.33-1.16-.12-2.05.68-2.9.75-.8 1.39-1.05 2.48-.98z"></path><path d="m134.65 51.47c-1.37.66-5.06 2.3-8.18 3.65-3.12 1.34-5.83 2.55-6.02 2.67-.91.57-.75 1.8.27 2.13.56.18.59.22.44.62-.09.23-.13.51-.09.62.06.16-2.98 2.33-3.6 2.57-.63.25-.58.49.4 2.22.53.92.98 1.7 1.01 1.72s1.16-.69 2.52-1.58 2.53-1.64 2.61-1.67.45.34.83.83c1.3 1.68 2.5 2.23 3.47 1.6.25-.16 1.15-1.23 2-2.37 1.47-1.97 4.81-6.28 8.1-10.46 2.07-2.62 2.34-3.5 1.26-4.14-.6-.36-1.64-.03-5.02 1.59zm-4.33 8.69c.01.04-.08.16-.2.26s-.25.12-.28.03.06-.21.2-.26c.14-.06.27-.07.28-.03z"></path><path d="m39.13 95.8c.15.93.32 1.7.37 1.72.26.12 8.74-2.05 8.78-2.25.04-.21-.64-3.31-.74-3.34-.05-.02-8.37 2.07-8.6 2.16-.05.01.04.78.19 1.71z"></path><path d="m108.52 69.17c-1.38.78-2.53 1.46-2.55 1.5-.05.1 1.76 3.38 1.9 3.44.12.05 5.56-2.97 5.63-3.14.04-.1-1.21-2.43-1.69-3.14-.27-.41-.12-.47-3.29 1.34z"></path><path d="m53.69 91.04c.08.4.27 1.2.43 1.81l.28 1.09 1.32-.36c2.21-.61 8.03-2.31 8.04-2.36.01-.02-.22-.84-.52-1.83l-.53-1.79-3.32 1.01c-1.82.55-3.89 1.17-4.58 1.36l-1.26.36z"></path><path d="m99.65 73.85c-.23.12-1.68.77-3.24 1.44s-2.86 1.29-2.91 1.38c-.07.16 1.66 3.25 1.88 3.35.11.05 6.88-2.89 6.92-3.01.08-.22-1.91-3.57-2.07-3.48-.09.06-.35.2-.58.32z"></path><path d="m69.14 87.47c.63 1.67.67 1.75 1.07 1.68.23-.04 1.86-.57 3.62-1.18l3.2-1.11-.73-1.68c-.4-.91-.8-1.71-.88-1.75s-1.69.46-3.55 1.1l-3.4 1.17z"></path><path d="m82.06 82.9c.42.94.83 1.74.91 1.77s1.59-.46 3.36-1.08l3.22-1.14-.43-.8c-.23-.43-.7-1.26-1.02-1.8l-.59-1.01-3.11 1.17-3.11 1.17z"></path></g></svg>