<svg xmlns="http://www.w3.org/2000/svg" id="&#x56FE;&#x5C42;_1" height="512" viewBox="0 0 156 156" width="512"><path d="m123.52 69.33c-1.23-1.24-10.45-5.53-26.62-12.4-24-10.2-35.08-14.64-36.55-14.64-.79 0-1.79.41-2.26.92-.77.84-.73 1.76.45 10.9.71 5.52 1.29 10.02 1.29 10.08 0 .36-11.24 2.52-18.33 3.52-6.88.96-8.76 1.41-9.37 2.2-.78 1.04-.69 5.2.38 17.38.26 2.99.35 6.1.19 6.96-.26 1.37-.11 1.59 1.18 1.92.81.2 5.25-.02 9.87-.5 13.86-1.43 19.16-1.65 19.41-.81.12.4.62 4.52 1.09 9.14.61 5.93 1.1 8.63 1.65 9.19.71.71.85.71 1.42-.03.35-.46 1-.74 1.47-.64 1.01.2 8.51-4.69 15.17-9.91 11.4-8.92 18.79-14.35 27.73-20.34 5.15-3.46 10.14-7 11.03-7.83 1.9-1.77 2.2-3.71.8-5.11zm-5.52 3.84c-2 1.26-2.48 1.12-2.14-.63.27-1.42 1.64-2 2.98-1.27 1.13.62 1.1.67-.84 1.9zm-5.64 3.78c-.3 0-.62-.21-.81-.53-.18-.3.03-.52.5-.52s.81.22.81.52c0 .32-.2.53-.5.53zm-12.92 5.8c-1.57-.59-6.22-1.92-10.32-2.94-13.39-3.35-24.05-6.99-24.05-8.22 0-.29.34-.4.76-.24s1.65.45 2.76.65c1.1.21 4.78 1.41 8.19 2.68 9.5 3.55 25.62 8.04 26.73 7.45 1.98-1.05 1.1-2.4-2.52-3.84-3.54-1.41-18.38-5.72-25.42-7.37-4.46-1.05-11.03-4.21-11.03-5.32 0-.49.39-.66 1.18-.5.65.13 2.6.51 4.33.84 1.75.33 5.72 1.66 8.93 2.98 6.86 2.83 15.65 5.83 23.63 8.07 3.2.9 5.97 1.74 6.22 1.89.25.14-1.1 1.3-3.05 2.6l-3.49 2.34zm-2.68 5.12c-1.94 1.5-2.21 1.58-2.42.74-.16-.65-1.29-1.23-3.6-1.85-8.45-2.27-24.63-7.88-24.63-8.55 0-.42.2-.73.47-.73 3.1 0 33.45 7.8 32.72 8.41-.2.17-1.33 1.05-2.54 1.98zm-6.25 4.31c-.3 0-5.65-1.65-11.89-3.66-10.03-3.24-12.6-4.42-11.66-5.37.34-.34 9.08 1.71 19.01 4.45l8.03 2.21-1.47 1.19c-.78.63-1.72 1.18-2.02 1.18zm-8.11-25.82c-5.62-1.45-13.1-4.58-15.49-6.48-.99-.79-.95-.82.68-.5.96.19 3.41 1.11 5.51 2.07 2.08.96 6.43 2.75 9.69 3.99 3.25 1.25 5.85 2.31 5.77 2.36-.06.07-2.85-.59-6.16-1.44zm.47 31.91c-4.25 3.18-4.84 3.47-5.3 2.65-.29-.51-1.02-1.13-1.65-1.39-.76-.32-.32-.37 1.36-.16 2.05.26 2.55.15 2.82-.58.49-1.32-.64-2.16-5.32-3.92-5.21-1.97-4.57-2.04 2.63-.32 3.1.74 5.97 1.21 6.41 1.04 1.29-.5.47-1.55-2-2.55-1.26-.51-1.71-.81-1-.66 4.73.98 6.83 1.56 6.83 1.88 0 .25-2.15 2.04-4.78 4.01zm-2.73-40.81c-2.68-.74-13.05-5.74-11.13-5.37 1.68.33 13.51 5.46 13.23 5.75-.08.08-1.05-.09-2.1-.38zm-2.05 34.56c-.43-.17-.31-.28.32-.32.52-.03.85.1.68.26-.17.18-.63.2-1 .06zm-5.9 14.2c-2.15 1.52-4.04 2.76-4.2 2.76s-.29-.44-.29-.97c0-.73.32-.91 1.26-.74 1.52.28 2.67-1.39 2.29-3.33-.23-1.19-.11-1.26 2.3-1.26 1.42 0 2.55.17 2.55.39s-1.76 1.64-3.91 3.15zm-2.89-5.64c-.3 0-.62-.21-.81-.52-.18-.3.03-.53.5-.53s.81.22.81.53-.2.52-.5.52zm-4.76-38.33c-.3 0-.52-.24-.52-.55 0-.32.22-.42.52-.24.32.19.53.41.53.55s-.21.24-.53.24zm-5.06 11.1c-.79-.44-.81-.55-.13-.58.89-.03 1.68.53 1.3.92-.11.12-.65-.04-1.17-.34zm-.45-3.76c-.42 0-.79-.1-.79-.21s.37-.35.79-.5.79-.06.79.21-.37.5-.79.5zm-10.29 7.36c-5.78-2.16-8.6-3.59-8.09-4.1.87-.87 14.96 5.2 14.16 6.09-.1.12-2.81-.77-6.07-1.99zm3.65-2.81c-1.1-.48-1.41-.78-.81-.81 1.05-.05 3.2.94 2.84 1.31-.15.14-1.09-.09-2.03-.5zm-7.61 17.49c-.62.01-2.15-.56-3.41-1.29-2.2-1.27-2.23-1.31-.76-1.31.84 0 2.81.4 4.39.89 2.2.69 2.64.98 1.89 1.29-.56.22-1.48.4-2.11.42zm-.71-4.71c-2-.53-6.3-2.82-6.3-3.35 0-.12.53-.09 1.21.07 1.42.32 7.72 3.47 7.46 3.72-.1.07-1.17-.12-2.37-.44zm-.79-4.81c-2.21-.6-5.23-2.48-4.77-2.96.14-.14 1.78.53 3.67 1.52s3.35 1.83 3.28 1.89-1.08-.15-2.18-.45zm-1.63-4.55c-1.07-.62-.74-.79.58-.3.47.18.74.43.6.58-.13.15-.65.02-1.18-.28z" fill="rgb(0,0,0)" opacity=".9"></path></svg>