<svg xmlns="http://www.w3.org/2000/svg" id="Camada_1" height="512" viewBox="0 0 1080 1080" width="512"><path d="m790.46 528.05c5.48-11.71 7.41-24.11 6.93-36.84-.76-20.19-4.08-39.54-6.07-59.32-.66-6.54-2.56-12.83-8.88-14.08-1.21.68-2.75 1.06-3.8 2.21-12.02 13.15-25.73 22.66-38.6 33.97-11.92 10.47-19.55 25.42-22.93 42.94-3.06 15.83 3.61 25.17 16.04 23.51 1.78-.24 3.9-2.04 5.3.45-32.72 63.77-121.08 106.82-174.21 84.92-2.3-4.59 2.64-14.99-5.55-14.8-4.4 3.04-4.91 9.01-7.54 12.24-8.51 4.35-3.84-9.03-8.18-9.56-3.72.36-4.04 5.99-7.82 6.97-9.25-1.99-18.48-6.3-27.87-10.05-28.75-11.48-55.96-27.28-84.86-38.37-52.44-20.12-103.19-4.03-152.83 36.78-7.57 6.22-14.24 13.88-16.88 25.35-1.06 4.59-2.47 9.84 1.12 12.74 2.05-.85 2.69-2.14 2.76-3.61.56-12.19 6.35-20.54 14.06-27.07 43.58-36.9 88.38-51.48 135.03-34.88 31.52 11.21 60.57 28.97 90.75 43.7 11.56 5.64 23.28 10.85 34.42 16.02 1.45 5.37-1.47 12.29 3.41 14.15 5.59-.31 4.92-9.67 9.76-10.48 2.96 2.74.74 8.56 3.47 11.24 6.22 5.57 9.28-2.11 13.89-8.76 77.79 20.04 144.3-9.37 195.6-104.33 3.22 2.2 4.61 6.82 6.9 10.32 7.98 12.25 19.31 10.16 26.58-5.36z" fill="rgb(0,0,0)"></path></svg>