<svg xmlns="http://www.w3.org/2000/svg" id="Icons" height="512" viewBox="0 0 70 70" width="512"><path d="m69.93 33.88c-1.38-3.58-10.64-10.72-21.7-19-3.47-2.6-6.47-4.85-8.16-6.27a1 1 0 0 0 -1-.19 1 1 0 0 0 -.66.73 56 56 0 0 0 -1.3 15.33c-6.22 1.9-12.22 3.91-17.47 7.15a48 48 0 0 0 -8.79 7.11c-4.85 4.95-10.77 12.75-10.85 21.87a1 1 0 0 0 .63.94 1 1 0 0 0 .37.07 1 1 0 0 0 .73-.31 50.45 50.45 0 0 1 35.38-15.6c.17 2.08.31 4.35.45 6.54.17 2.54.33 5.16.54 7.51a1 1 0 0 0 .6.83 1 1 0 0 0 1-.13c1.57-1.25 3.12-2.69 4.77-4.22a55.88 55.88 0 0 1 8.2-6.72c6.45-4 11.82-9.35 17-14.57a1 1 0 0 0 .26-1.07zm-18.29 13.94a57.77 57.77 0 0 0 -8.51 7c-1.1 1-2.16 2-3.19 2.9-.14-1.8-.26-3.69-.38-5.55-.16-2.53-.33-5.15-.54-7.5a1 1 0 0 0 -1-.92h-.11a50.66 50.66 0 0 0 -10.56 1.14 15 15 0 0 1 4.43-3.89 15.46 15.46 0 0 0 -5.88 4.08h.05a53.63 53.63 0 0 0 -6.42 2 14.58 14.58 0 0 1 3.68-4.8 24.69 24.69 0 0 1 6.46-4.13 25 25 0 0 0 -6.78 3.85 18.2 18.2 0 0 0 -2.82 2.73 11.33 11.33 0 0 0 -1.75 2.92 54.41 54.41 0 0 0 -5.45 2.6 21.77 21.77 0 0 1 11.13-12.55 22.25 22.25 0 0 0 -12.3 12.89l.32.11a51 51 0 0 0 -9.82 7.3c1-7.33 5.94-13.65 10.11-17.83a45.92 45.92 0 0 1 8.42-6.82c5.27-3.25 11.4-5.25 17.76-7.17a1 1 0 0 0 .71-1 54 54 0 0 1 .86-14c1.07.85 2.39 1.85 3.86 3a16.94 16.94 0 0 0 -.37 2.41 13.24 13.24 0 0 0 .07 3.07 6.66 6.66 0 0 0 .93-3 7.62 7.62 0 0 0 -.14-2.13l2.62 2 1.6 1.2a13.63 13.63 0 0 0 -.39 3.76 12.54 12.54 0 0 0 1 4.66c.11-1.61 0-3.14 0-4.69-.05-1.13-.08-2.26-.18-3.41l4.33 3.27a9.25 9.25 0 0 1 -.45 2.78c-.31 1-.69 2-1.07 3a21.83 21.83 0 0 0 -1 3.16 7 7 0 0 0 0 3.33 13.57 13.57 0 0 1 .77-3.12c.36-1 .76-2 1.14-3a17 17 0 0 0 .9-3.2 6 6 0 0 0 -.13-2.8c1.62 1.23 3.24 2.49 4.78 3.73-.44 1.51-.79 3-1.13 4.53a56.5 56.5 0 0 0 -1 5.91 22.92 22.92 0 0 0 2-5.7 26 26 0 0 0 .58-4.4c1.28 1 2.5 2.05 3.62 3-.43 1.49-.75 3-1.1 4.44-.37 1.72-.78 3.42-1 5.22a16 16 0 0 0 2-5 16.75 16.75 0 0 0 .41-4.41 28.63 28.63 0 0 1 5.08 5.21c-4.96 5-10.11 10.11-16.15 13.82z"></path></svg>