<svg xmlns="http://www.w3.org/2000/svg" id="&#x56FE;&#x5C42;_1" height="512" viewBox="0 0 156 156" width="512"><g fill="rgb(0,0,0)" opacity=".9"><path d="m144.77 85.93c-.24-.27-2.38-2.1-4.77-4.09-2.4-1.99-5.82-4.96-7.64-6.63-4.96-4.56-8.45-7.61-8.98-7.85-.34-.16-.7-.04-1.4.45-.97.68-1 .77-1.37 3.36-.19 1.31.02 1.26-3.37.81-3.22-.43-4.03-.09-3.5 1.47.12.36.19.85.15 1.04-.05.2-.17.71-.27 1.15s-.33.91-.52 1.07c-.84.69.02 2.39 1.45 2.86.46.15.95.42 1.11.61.16.18.86.52 1.54.74s1.32.47 1.4.56c.09.09-.05 1.08-.3 2.22-.3 1.36-.41 2.45-.31 3.22.27 2.05-.27 1.97 12.39 1.78 6.08-.09 11.7-.26 12.47-.38 2.12-.36 2.89-1.3 1.92-2.39zm-14.81-2.03c-2.88-.49-5.25-1.14-4.26-1.17 1.52-.05 7.61 1.28 7.29 1.6-.04.04-1.41-.15-3.03-.43zm1.26-2.27c-1.57-.72-5.01-2.8-4.87-2.94.24-.24 1.94.56 4.09 1.93 1.28.82 2.29 1.52 2.25 1.57-.03.05-.69-.21-1.47-.56zm-3.07-6.67c-.06 0-.24-.18-.42-.42-.29-.38-.28-.39.11-.08.4.31.52.5.31.5zm-2.74 6.13-1.5-.14.15-.75c.08-.41.18-.79.22-.84s.67.33 1.39.85c.73.51 1.3.95 1.28.98-.02.02-.72-.02-1.54-.1zm-2.21-8.31c-.11-.7.1-.87.59-.47.36.3.35.35-.06.65s-.46.28-.53-.18zm-2.04 13.56c-.61 0-.65-.06-.51-.65.21-.87.21-.87.74-.7.26.09.44.38.44.75 0 .5-.11.6-.67.6z"></path><path d="m105.68 69.59c-.35-.47-6.25-1.38-12.81-1.97-4.26-.39-5-.33-5.35.45-.38.82.05 1.36 1.43 1.85l1.16.4-.86.03c-.48.01-.99.15-1.15.31-.41.41-.34 1.54.12 1.93.35.29.29.34-.53.44-1.09.14-1.6.74-1.2 1.38.31.49.13.47 9.96 1.42 6.42.62 6.87.64 7.46.25.7-.46.77-1.02.2-1.64-.37-.4-.36-.44.12-.44.3 0 .69-.27.93-.63.37-.57.38-.69.04-1.3-.35-.63-.35-.68.13-.89.61-.26.78-1.03.35-1.59z"></path><path d="m78.49 67.95c-.2-.17-1.48-.39-2.86-.5-3.44-.29-11.86-.28-12.61.01-.77.3-1.04.88-.67 1.48.39.63.36.7-.32.7-.58 0-1.57.75-1.57 1.19 0 .37 1.23 1.23 1.77 1.23.46 0 .46.02.08.45-.22.24-.4.57-.4.7 0 .14-.17.32-.36.39s-.36.35-.36.59c0 .8.56 1.05 1.96.88.72-.09 4.02-.23 7.34-.31 5.33-.14 6.06-.2 6.29-.57.49-.78-.16-1.01-3.41-1.17-1.7-.08-2.55-.18-1.89-.21 2.32-.11 3.13-.35 3.23-.96.05-.34-.08-.68-.35-.87-.38-.27-.16-.33 1.56-.4 1.79-.08 2.05-.15 2.47-.69.55-.74.6-1.54.1-1.94z"></path><path d="m50.43 69.84c-.95-.43-13.17 1.06-14.5 1.77-.26.14-.41.5-.41.96 0 .6.13.78.7 1 .75.28 1.15 1.37.68 1.85-.14.13-.23.57-.22.98s-.07.74-.19.74c-.44 0-.76.94-.49 1.45.31.58 1.02.62 2.45.11 2.06-.73 4.96-1.34 8.04-1.66 1.7-.18 3.24-.46 3.44-.63.52-.43.36-1.52-.27-1.8-.72-.32-.6-1.56.22-2.37.39-.38.59-.8.51-1.02s-.04-.37.1-.37c.53 0 .49-.75-.06-1.01z"></path><path d="m24.63 76.85-.43-.53-2.15.65c-1.19.36-2.46.65-2.83.65-1.11 0-7.52 1.92-7.85 2.35-.17.22-.25.61-.18.82.07.22.01.49-.12.57-.14.09-.25.47-.25.86 0 .53.17.79.7 1.07.9.47 1.14 1.33.51 1.78-.61.42-.62 1.08-.02 1.62.44.4.62.36 4.06-.9 1.99-.73 4.46-1.57 5.53-1.88 2.47-.72 2.63-.85 2.44-1.98-.08-.51-.04-.96.1-1.04.42-.25.27-.84-.36-1.42l-.58-.54.82-.3c.96-.34 1.2-1.05.61-1.78z"></path></g></svg>