<svg xmlns="http://www.w3.org/2000/svg" id="&#x56FE;&#x5C42;_1" height="512" viewBox="0 0 156 156" width="512"><g><g><path d="m19.16 103.64c-.68 1.59 1.31 3.31 2.73 2.16.06-.05.12-.09.18-.14.2.02.42 0 .65-.06 8.6-2.51 17.15-4.63 25.78-6.23.31.09.66.03.93-.16 7.57-1.37 15.21-2.35 23.02-2.8.03.2.06.4.08.6.05.43.38.61.7.59 1.44 8.64 3.71 17.01 4.71 25.78.13 1.1 1.68 2.02 2.6 1.13 3.84-3.7 7.77-7.31 11.57-11.05.71.23 1.55.08 2.12-.58 12.52-14.62 27.17-27.07 40.64-40.75.72-.73-.44-1.85-1.22-1.26-14.3 10.67-26.64 23.86-39.24 36.47-.29-4.49-.79-8.98-1.39-13.44-.46-3.4-.2-9.3-2.45-12.2-4.49-5.79-14.52-3.99-20.89-2.92-16.35 2.75-30.85 10.16-44.09 19.72 12.15-24.04 31.41-44.43 58.84-49.92 1.01-.2 1.85-1.04 1.7-2.14-.46-3.23-.92-6.47-1.38-9.7 8.01 5.07 16.02 10.14 24.05 15.16 8.19 5.12 19.05 9.74 25.15 17.38 1.34 1.68 3.94-.21 2.7-1.98-5.9-8.38-16.9-13.19-25.39-18.52-9.24-5.81-18.52-11.56-27.8-17.31-1.31-.81-3.3-.09-3.06 1.71.55 3.99 1.09 7.99 1.64 11.98-30.14 6.68-51.16 30.85-62.88 58.48zm60.1-10.83c.2 5.45.39 10.87.22 16.33-.47-2.73-1.02-5.45-1.67-8.13-.75-3.13.07-5.73 1.45-8.2zm6.04-10.04c1.46.86 2.45 2.16 2.68 4.09.99 8.08 1.69 16.19 2.75 24.26-1.64 1.41-3.27 2.84-4.88 4.27 1.67-7.49 2.22-15.2.79-22.78-.21-1.11-1.88-.94-1.76.21.8 7.93 1.02 15.77-.25 23.66-1.24 1.11-2.48 2.22-3.72 3.32-.18-1.89-.4-3.78-.66-5.66.31-.04.58-.24.62-.66.81-7.87 1.33-16.05.48-23.97 1.49-2.13 3.04-4.3 3.95-6.74zm-2.21-.89c-1.09 1.22-2.12 2.51-3.13 3.82-.48.04-.93.41-.91 1.05v.13c-.35.46-.71.93-1.06 1.39.01-2.36-.4-4.72-1.4-6.82 2.36-.15 4.62-.06 6.5.43zm-12.1.26c1.12-.2 2.27-.37 3.42-.5.88 3.21 1.6 6.2 1.34 9.48-.56.7-1.1 1.4-1.69 2.07-.14.16-.25.32-.35.49-.33-3.95-1.06-8.02-2.72-11.54zm-3.7 11.94c.04-3.5-.93-7.47-2.79-10.53 1.35-.34 2.92-.71 4.66-1.06.98 3.83 2.16 7.52 2.89 11.38-1.58.05-3.17.13-4.76.21zm-6.06.43c-.52-3.18-1.13-6.45-2.52-9.33-.01-.02-.02-.03-.03-.05 1.11-.34 2.23-.67 3.35-.96.63 1.57 1.36 3.11 1.89 4.71.58 1.75.99 3.53 1.46 5.31-1.38.1-2.77.2-4.15.32zm-11.52 1.36c-.24-2.24-.75-4.53-1.99-6.31-.04-.06-.1-.11-.16-.16 3.23-1.49 6.52-2.82 9.9-3.9.47 3.1 1.46 6.11 2.23 9.16-1.16.11-2.33.23-3.49.36-.41-2.6-1.36-4.91-3.1-6.98-.53-.63-1.76-.08-1.34.74 1.06 2.02 1.91 4.24 2.35 6.5-1.48.15-2.94.37-4.4.59zm-2.33.34c-1.79.29-3.58.61-5.37.96-.5-1.26-.94-2.53-1.69-3.66-.07-.1-.15-.18-.23-.24 1.89-1.07 3.8-2.11 5.75-3.06 0 .03-.01.06 0 .09.37 2.01 1.06 3.92 1.54 5.91zm-18.17 4c3.02-2.16 6.16-4.19 9.37-6.08v.06c.22 1.21.69 2.31 1.16 3.44-3.54.73-7.06 1.58-10.53 2.58z" fill="rgb(0,0,0)"></path></g></g></svg>