<svg xmlns="http://www.w3.org/2000/svg" id="a2d88412-f556-48de-a512-0768cde6f3e1" height="512" viewBox="0 0 156 156" width="512"><g fill="rgb(0,0,0)"><path d="m108.67 54c-10.82-2.59-22.27-3.73-33.34-4.62s-24.13-1.54-34.21 4c-20.62 11.24-11.66 46.81-8.12 64.36a1.29 1.29 0 0 0 2.53-.34c-1.19-16.46-9.1-50.89 11.71-58.08 18.76-6.48 41.39.49 60.31 2.84 4.73.58 5.61-7.11 1.12-8.16z"></path><path d="m116 38.19c-2.78-2.66-7 1.55-4.22 4.22 3.7 3.59 12.72 10.59 9.11 16.48-3.38 5.51-12.89 9.11-18.22 12.39-2.41 1.48-.3 5 2.2 3.77 7.13-3.61 18.27-7.05 22.13-14.8 4.18-8.25-5.87-17.16-11-22.06z"></path></g></svg>