<svg xmlns="http://www.w3.org/2000/svg" id="Icons" viewBox="0 0 70 70" width="512" height="512"><path d="M.29,35c5.2,5.22,10.57,10.61,17,14.57a55.88,55.88,0,0,1,8.2,6.72c1.65,1.53,3.2,3,4.77,4.22a1,1,0,0,0,1,.13,1,1,0,0,0,.6-.83c.21-2.35.37-5,.54-7.51.14-2.19.28-4.46.45-6.54a50.45,50.45,0,0,1,35.38,15.6,1,1,0,0,0,.73.31,1,1,0,0,0,.37-.07,1,1,0,0,0,.63-.94c-.08-9.12-6-16.92-10.89-21.86a48,48,0,0,0-8.79-7.11c-5.25-3.24-11.25-5.25-17.47-7.15a56,56,0,0,0-1.3-15.33,1,1,0,0,0-.66-.73,1,1,0,0,0-1,.19c-1.69,1.42-4.69,3.67-8.16,6.27C10.71,23.16,1.45,30.3.07,33.88A1,1,0,0,0,.29,35ZM2.21,34a28.63,28.63,0,0,1,5.1-5.28,16.75,16.75,0,0,0,.41,4.41,16,16,0,0,0,2,5c-.25-1.8-.66-3.5-1-5.22-.35-1.48-.67-3-1.1-4.44,1.12-1,2.34-2,3.62-3a26,26,0,0,0,.58,4.4,22.92,22.92,0,0,0,2,5.7,56.5,56.5,0,0,0-1-5.91c-.34-1.52-.69-3-1.13-4.53,1.54-1.24,3.16-2.5,4.78-3.73a6,6,0,0,0-.13,2.8,17,17,0,0,0,.9,3.2c.38,1,.78,2,1.14,3a13.57,13.57,0,0,1,.77,3.12,7,7,0,0,0,0-3.33,21.83,21.83,0,0,0-1-3.16c-.38-1-.76-2-1.07-3a9.25,9.25,0,0,1-.45-2.78L20.94,18c-.1,1.15-.13,2.28-.18,3.41,0,1.55-.08,3.08,0,4.69a12.54,12.54,0,0,0,1-4.66,13.63,13.63,0,0,0-.39-3.76l1.6-1.2,2.62-2a7.62,7.62,0,0,0-.14,2.13,6.66,6.66,0,0,0,.93,3,13.24,13.24,0,0,0,.07-3.07,16.94,16.94,0,0,0-.37-2.41c1.47-1.12,2.79-2.12,3.86-3a54,54,0,0,1,.86,14,1,1,0,0,0,.71,1C37.87,28.1,44,30.1,49.27,33.34a45.92,45.92,0,0,1,8.42,6.82C61.86,44.34,66.76,50.66,67.8,58A51,51,0,0,0,58,50.7l.32-.11A22.25,22.25,0,0,0,46,37.7,21.77,21.77,0,0,1,57.13,50.23a54.41,54.41,0,0,0-5.45-2.6,11.33,11.33,0,0,0-1.75-2.92A18.2,18.2,0,0,0,47.11,42a25,25,0,0,0-6.78-3.75,24.69,24.69,0,0,1,6.46,4.13,14.58,14.58,0,0,1,3.68,4.8,53.63,53.63,0,0,0-6.42-2l.05,0A15.46,15.46,0,0,0,38.22,41a15,15,0,0,1,4.42,3.81A50.66,50.66,0,0,0,32.08,43.7H32a1,1,0,0,0-1,.92c-.21,2.35-.38,5-.54,7.5-.12,1.86-.24,3.75-.38,5.55-1-.9-2.09-1.88-3.19-2.9a57.77,57.77,0,0,0-8.51-7C12.32,44.11,7.17,39,2.21,34Z"></path></svg>