<svg xmlns="http://www.w3.org/2000/svg" xmlns:xlink="http://www.w3.org/1999/xlink" id="Capa_1" x="0px" y="0px" width="399.487px" height="399.487px" viewBox="0 0 399.487 399.487" style="enable-background:new 0 0 399.487 399.487;" xml:space="preserve"><g>	<g>		<path d="M4.08,249.469c-4.896,6.73-4.284,17.135-3.672,24.479c0,3.672,5.508,3.672,5.508,0s0.612-6.73,0.612-10.402   c0.612-4.285,2.448-8.568,2.448-12.854C8.976,248.245,5.916,247.633,4.08,249.469z"></path>		<path d="M35.904,212.137c-9.18,2.447-14.076,13.463-17.748,21.42c-1.224,2.447,1.836,4.283,3.06,1.836   c4.284-7.344,10.404-13.465,17.136-18.973C40.188,214.584,38.352,211.524,35.904,212.137z"></path>		<path d="M76.908,188.88c-9.18-3.06-19.584,4.284-25.704,11.017c-1.836,2.447,1.224,5.508,3.06,3.059   c3.06-3.059,6.732-5.507,10.404-6.731C68.34,195,72.624,195,76.296,193.776C79.356,192.552,79.356,189.493,76.908,188.88z"></path>		<path d="M124.644,169.909c-6.12-4.896-17.136,3.06-22.644,6.12c-1.836,1.224-0.612,4.284,1.224,3.672   c3.672-1.836,7.956-3.06,11.628-4.284c3.06-1.224,6.732-0.612,9.18-3.06C125.256,171.745,125.256,170.521,124.644,169.909z"></path>		<path d="M173.604,158.893c-6.732-1.836-14.076,3.06-20.808,3.672c-2.448,0-2.448,3.672,0,4.284c3.06,0,6.12,0,9.18-0.612   c3.672-0.612,7.956-0.612,11.628-1.836C176.052,163.176,176.052,159.504,173.604,158.893z"></path>		<path d="M224.4,155.221c-3.061-1.836-6.12-1.224-9.181-1.224c-4.284,0-7.956,0.612-12.239,0.612c-3.673,0-3.673,5.508,0,6.12   c3.672,0,7.344,0.612,11.016,0.612s7.344,0.612,10.404-1.224C226.236,159.504,226.236,156.444,224.4,155.221z"></path>		<path d="M270.3,140.532c-1.224-4.284-6.731-4.284-7.956,0c-1.224,2.448-0.611,6.12-0.611,9.18c0,1.836,0,3.672,0,5.508   c-0.612,0-1.225,0.612-2.448,0.612c0,0,0-0.612,0.611-0.612c0-0.612-1.224-0.612-1.224,0c0,0,0,0.612-0.612,1.224   c-1.224,0-1.836,0.612-2.447,0.612c-3.061-0.612-4.896,5.508-1.225,6.12c3.672,0.612,7.345,0,11.628,0   c2.448,0,3.672-1.836,4.284-4.284c0-2.448,0-6.12,0-8.568C270.3,146.652,270.912,142.98,270.3,140.532z"></path>		<path d="M268.464,105.648c-7.344,1.836-4.896,13.464-4.284,18.972c0,2.448,3.061,2.448,3.061,0c0-3.06,0.611-6.12,1.836-9.18   c0.611-2.448,1.836-4.284,2.448-6.732C272.136,106.873,270.912,105.037,268.464,105.648z"></path>		<path d="M269.688,69.541c-3.672,4.896-3.06,9.792-3.06,15.3c0,3.06,4.896,3.06,4.896,0c0-3.672,0-7.344,3.06-10.404   S272.748,65.869,269.688,69.541z"></path>		<path d="M43.248,265.381c-3.672,0.611-6.732,2.447-9.792,4.283c-3.672,1.836-7.344,4.283-11.016,6.119   c-2.448,1.225-0.612,4.896,2.448,3.672c3.672-1.223,6.732-3.059,10.404-4.283c3.672-1.836,7.956-2.447,10.404-5.508   C46.308,267.829,45.696,264.768,43.248,265.381z"></path>		<path d="M89.148,251.917c-3.06,0.611-6.12,2.447-9.18,2.447c-3.06,0.613-6.732-0.611-9.792-1.836   c-1.836-0.611-2.448,1.836-1.224,2.449c6.732,3.672,15.3,5.508,22.032,1.223C93.432,254.977,92.208,251.305,89.148,251.917z"></path>		<path d="M138.108,248.856c-1.836-1.836-4.896-1.223-7.344-1.223c-2.448,0-5.508,0.611-7.956,0.611c-3.06,0-3.06,4.283,0,4.896   c2.448,0,5.508,0.611,7.956,0.611c2.448,0,5.508,1.225,7.344-1.225C139.332,251.917,139.332,250.081,138.108,248.856z"></path>		<path d="M197.472,242.124c-6.732-3.059-16.524,0-22.644,3.061c-3.06,1.225-0.612,6.732,2.448,5.508   c3.672-1.223,6.732-2.447,10.404-2.447c3.672,0,6.732,0.611,9.792-1.225C199.308,245.797,199.308,242.737,197.472,242.124z"></path>		<path d="M247.656,235.393c-3.061-1.836-7.345-1.225-11.017-0.613c-4.284,0.613-7.956,2.449-11.628,4.285   c-2.447,1.223-0.611,5.508,1.836,4.283c3.672-1.225,6.732-1.836,11.017-1.836c3.672,0,7.344,0.611,9.792-1.225   C249.492,239.065,249.492,236.616,247.656,235.393z"></path>		<path d="M266.628,247.02c0-3.059-0.612-6.119-0.612-9.18c-0.611-3.672-5.508-3.672-6.119,0c0,3.061-0.612,5.508-0.612,8.568   s-0.612,6.119,0,9.18c0.612,3.672,6.731,3.672,7.956,0C267.24,252.528,266.628,250.081,266.628,247.02z"></path>		<path d="M265.404,274.561c-0.612-3.672-6.12-3.672-6.12,0c0,5.508,1.836,11.016,2.448,16.523c0.611,4.896,7.344,5.508,7.955,0   C270.3,284.965,266.016,280.069,265.404,274.561z"></path>		<path d="M268.464,317.401c0-3.672-4.896-3.672-5.508,0c-0.612,5.508-1.224,12.24-0.612,17.748c0.612,3.672,6.12,3.672,6.732,0   C270.3,329.641,269.076,323.52,268.464,317.401z"></path>		<path d="M300.288,320.461c-3.061,0.611-4.896,3.059-6.732,4.895c-1.224,1.225-1.224,3.061-0.611,4.285   c-0.612,1.223-1.225,1.836-2.448,3.059c-2.448,2.449,1.224,6.121,3.672,3.672c3.06-3.059,6.732-6.119,8.568-9.791   C304.572,324.133,303.348,319.848,300.288,320.461z"></path>		<path d="M340.68,280.069c-3.06-2.449-6.731,0.611-9.792,1.836c-1.224,0.611-1.836,1.836-1.224,3.061   c-3.06,2.447-6.732,4.895-9.18,7.344c-1.836,2.447,1.224,5.508,3.672,3.672c4.284-3.061,9.792-5.508,14.688-8.568   C340.68,285.577,343.128,282.516,340.68,280.069z"></path>		<path d="M360.264,239.065c-2.447,2.447-3.672,5.508-5.508,8.568c-1.836,3.059-3.672,6.119-4.896,9.791   c-1.225,2.447,3.06,3.672,4.283,1.836c3.673-5.508,9.792-10.404,11.017-17.137C365.771,239.065,362.712,236.616,360.264,239.065z"></path>		<path d="M398.208,185.208c-3.672-4.284-6.732-7.956-9.18-12.852c-1.225-3.06-6.732-2.448-7.345,1.224   c-1.224,6.12,4.284,11.628,9.181,15.3c-1.225,3.06-3.061,6.12-3.672,9.18c0,1.224,0.611,1.836-0.612,3.059   c0,0-0.612,0.613-0.612,0h-0.611c0,0.613,0.611,0.613,0.611,0l0.612-0.611c1.224-0.611,2.448-0.611,3.672-0.611   c3.672-1.836,6.12-6.732,8.568-9.792C400.044,188.269,399.432,186.433,398.208,185.208z"></path>		<path d="M367.608,139.309c-1.225-1.224-2.448-3.06-3.673-4.284c-1.224-1.836-2.447-1.836-4.283-2.448   c-1.836-0.612-3.672,1.224-3.061,3.06c0.612,1.224,0.612,2.448,1.225,3.06c1.224,1.224,2.447,2.448,4.283,3.672   c3.061,3.06,6.12,6.12,8.568,9.792c1.224,1.224,3.672,0.612,3.06-1.224C372.504,146.652,370.056,142.98,367.608,139.309z"></path>		<path d="M347.412,109.32c-5.508-6.12-9.18-16.524-18.36-17.748c-3.06,0-3.672,3.06-1.836,4.896   c2.448,3.06,4.896,4.896,7.956,7.344c3.061,3.06,6.12,6.12,9.18,8.568C346.8,115.44,349.86,112.38,347.412,109.32z"></path>		<path d="M311.304,75.661c-2.448-2.448-3.672-5.508-5.508-7.956c-1.836-2.448-3.672-6.12-6.731-6.12   c-1.837,0-3.061,1.224-3.061,3.06c0,3.06,3.061,5.508,4.896,7.956c1.836,2.448,3.672,5.508,6.119,7.344   C310.08,83.616,314.364,78.721,311.304,75.661z"></path>	</g></g><g></g><g></g><g></g><g></g><g></g><g></g><g></g><g></g><g></g><g></g><g></g><g></g><g></g><g></g><g></g></svg>