<svg xmlns="http://www.w3.org/2000/svg" xmlns:xlink="http://www.w3.org/1999/xlink" id="Capa_1" x="0px" y="0px" width="389.729px" height="389.729px" viewBox="0 0 389.729 389.729" style="enable-background:new 0 0 389.729 389.729;" xml:space="preserve"><g>	<g>		<path d="M80.669,282.151c-1.224,1.224-3.672,1.224-5.508,1.224c-2.448-0.611-3.06-2.447-5.508-2.447   c-1.836,0-3.672,1.836-3.672,3.672c0.612,4.284,4.896,6.12,9.18,6.12c3.672,0.611,7.344-1.225,10.404-3.672   C88.625,283.987,83.729,279.703,80.669,282.151z"></path>		<path d="M51.293,271.136c0.612-0.612,1.224-1.225,2.448-2.448c0.612-0.612-0.612-1.836-1.224-1.224   c-0.612,0.611-1.224,1.836-2.448,2.447c-5.508-4.896-11.628-8.567-18.36-12.239c-5.508-3.061-9.792,5.508-4.896,7.955   c7.344,3.061,13.464,6.732,19.584,12.24c3.672,3.672,9.18-1.836,5.508-5.508C51.905,271.747,51.905,271.136,51.293,271.136z"></path>		<path d="M22.529,230.743c2.448-2.448,0-6.731-3.06-5.508c-7.344,1.836-13.464,8.568-18.36,13.464   c-1.836,1.836-1.224,4.896,0.612,6.732c6.12,3.672,11.628,5.508,18.972,5.508c3.06,0,3.06-4.284,0-4.284   c-3.06-0.612-7.956-1.836-11.016-4.284c1.224-1.224,2.448-2.447,4.284-3.672C15.797,235.027,19.469,233.191,22.529,230.743z"></path>		<path d="M50.681,205.651c-4.284,4.284-10.404,6.732-15.912,9.792c-3.06,1.836-0.612,6.732,3.06,4.896   c6.12-3.061,12.852-5.509,17.748-9.792C58.637,207.487,53.741,202.592,50.681,205.651z"></path>		<path d="M94.745,188.516c-6.12,3.06-11.628,6.12-18.36,6.731c-3.672,0-3.672,5.509,0,5.509c7.956,0,14.688-3.061,22.032-6.121   C102.089,192.799,98.417,186.679,94.745,188.516z"></path>		<path d="M102.089,201.367c0-3.06-4.896-3.06-4.896,0c0,2.448-0.612,4.896-0.612,6.732s-0.612,5.508-2.448,6.12   c-2.448,1.224-2.448,4.896-0.612,6.12c2.448,2.447,6.12,1.224,6.732-1.836c0.612-2.448,1.836-4.896,1.836-7.345   C102.701,208.1,102.089,205.039,102.089,201.367z"></path>		<path d="M103.925,274.808c0-1.225,0-3.061,0-4.284c0-0.612,0-1.836-0.612-2.448c0,0-1.836-2.448-1.224-1.224   c-1.224-1.836-3.672-1.836-4.896,0c-0.612,1.224-1.836,1.836-1.836,4.284c0,1.836,0.612,3.672,0.612,5.508   c0,1.224,0.612,2.448,0.612,3.672c-0.612,0.612-0.612,1.224,0,1.836c0.612,1.836,1.224,3.672,3.672,3.672   c2.448,0,3.06-1.836,3.06-3.672C104.537,279.703,103.925,277.256,103.925,274.808z"></path>		<path d="M125.957,265.016c-3.672,0-8.568-2.448-11.016-4.896c-1.836-1.836-4.896,1.225-3.06,3.061   c3.672,3.672,8.568,6.731,13.464,7.956C129.017,272.359,130.241,265.016,125.957,265.016z"></path>		<path d="M163.289,268.688c-3.672-1.224-7.344-0.612-11.628-0.612c-4.284,0-7.956,0-12.24-1.836   c-1.836-0.611-2.448,1.836-1.224,3.061c3.672,1.836,7.344,3.06,11.016,4.283c4.284,1.225,9.18,1.837,13.464,0.612   C165.737,272.972,165.737,269.911,163.289,268.688z"></path>		<path d="M209.189,265.016c-3.672,0.611-6.732,1.836-10.404,2.448c-4.283,1.224-8.568,1.836-12.852,2.447   c-2.448,0-2.448,3.061,0,3.061c7.956,0.611,18.972,3.672,25.704-3.061C213.473,268.688,212.249,265.016,209.189,265.016z"></path>		<path d="M259.373,258.283c-3.672,0-7.344,1.225-10.403,2.448c-4.284,0.612-8.568,0.612-12.853,1.224c-3.672,0-3.672,5.509,0,6.12   c7.345,0.612,20.809,2.448,25.704-3.672C263.657,261.344,262.433,258.283,259.373,258.283z"></path>		<path d="M315.065,238.699c-4.284,1.225-7.956,4.284-12.24,6.12c-4.284,2.448-9.18,3.672-13.464,4.284   c-3.06,0.612-3.06,4.284,0,4.284c9.792,0.611,22.032-1.836,28.764-10.404C319.349,241.76,318.125,238.088,315.065,238.699z"></path>		<path d="M350.561,206.264c-2.448,2.447-4.284,6.12-6.732,8.567c-2.447,3.061-5.508,6.12-9.18,7.956   c-2.448,1.836-0.612,5.509,2.448,4.284c4.284-1.836,7.956-4.284,11.628-7.344c3.06-3.061,6.731-6.732,6.731-11.017   C355.457,205.651,351.785,204.428,350.561,206.264z"></path>		<path d="M379.937,168.932c-4.284-1.224-7.956,3.672-10.404,6.732c-2.447,3.672-4.284,7.956-5.508,12.24   c-0.612,2.448,2.448,3.06,3.672,1.224c1.836-3.06,4.284-6.12,6.732-9.18c1.224-1.224,2.447-3.06,4.284-3.672   c1.836-1.224,3.06-1.836,3.672-3.672C381.773,170.768,381.161,169.543,379.937,168.932z"></path>		<path d="M384.833,124.867c-3.672,1.224-4.896,5.508-6.119,9.18c-1.837,4.284-2.448,9.792-2.448,14.076c0,3.672,5.508,3.672,6.12,0   c0-3.672,1.224-6.732,2.447-10.404c1.225-3.06,3.673-5.508,4.896-8.568C389.729,126.704,387.281,124.255,384.833,124.867z"></path>		<path d="M138.197,216.056c-5.508,3.06-12.24,2.448-18.36,0.611c-2.448-0.611-3.672,2.448-1.836,3.673   c6.12,3.672,18.36,6.731,23.256-0.612C143.705,217.279,140.645,214.831,138.197,216.056z"></path>		<path d="M189.605,212.384c-3.06,0-4.896,1.224-7.956,1.836c-3.672,0.611-7.956,0-11.628-1.836   c-2.448-1.225-3.672,3.06-1.836,3.672c6.12,3.06,17.136,5.508,22.644,0C192.665,214.831,191.441,212.384,189.605,212.384z"></path>		<path d="M235.505,195.859c-3.061,0.612-4.896,3.061-7.345,4.284c-3.06,1.836-7.344,0.612-11.016-0.612   c-2.448-1.224-4.896,2.448-2.448,3.672c6.732,3.672,20.196,4.896,23.256-4.896C239.177,197.083,237.341,195.247,235.505,195.859z"></path>		<path d="M264.881,176.275c-2.448,1.836-3.061,4.284-5.509,6.732c-1.836,1.836-4.283,3.06-6.731,3.06c-3.061,0-3.672,4.896,0,5.508   c3.672,0,6.731-0.612,9.792-3.06c3.06-2.448,6.12-6.12,6.12-9.792C268.553,176.275,266.105,175.051,264.881,176.275z"></path>		<path d="M277.733,140.779c-0.612-1.836-3.672-1.836-4.284,0c-1.224,2.448-1.224,5.508-0.611,8.568   c0,4.284-0.612,8.568-2.448,12.24c-1.225,2.448,3.06,3.672,4.284,1.836C277.733,156.691,280.792,146.899,277.733,140.779z"></path>		<path d="M275.897,112.016c0.612,3.672,1.224,8.568-1.836,11.628c-1.224,1.836,1.224,4.284,2.448,2.448   c3.672-3.672,4.283-9.792,4.896-14.688C282.629,107.731,275.897,107.731,275.897,112.016z"></path>		<path d="M306.497,99.164c-2.447-0.612-5.508,0-7.956,0c-3.06,0-6.119,0.612-9.18,0.612c-2.448,0-2.448,3.672,0,3.672   c3.061,0,5.508,0,8.568,0.612c3.06,0,6.12,1.224,9.18,0C308.945,103.447,308.945,99.775,306.497,99.164z"></path>		<path d="M345.053,110.792c-1.225-4.284-5.508-5.508-9.181-5.508c-2.447,0-4.283,0-6.731,0c-1.224,0-1.836,0-3.061,0.612   c-0.611,0-3.06,1.836-3.672,1.836c-1.224,0-1.224,1.836,0,1.836c0.612,0,1.225,0.612,1.836,1.224   c0.612,0.612,1.836,0.612,2.448,0.612c1.836,0.612,3.672,0.612,5.508,0.612c3.061,0.612,6.12,1.836,9.792,2.448   C344.441,115.075,345.665,112.627,345.053,110.792z"></path>		<path d="M377.489,112.016c-3.672,0.612-7.956,0.612-11.628,0.612c-3.06,0-3.06,4.284,0,4.284c3.672,0,7.956,0,11.628,0.612   C382.997,119.359,382.997,110.792,377.489,112.016z"></path>	</g></g><g></g><g></g><g></g><g></g><g></g><g></g><g></g><g></g><g></g><g></g><g></g><g></g><g></g><g></g><g></g></svg>