<svg xmlns="http://www.w3.org/2000/svg" xmlns:xlink="http://www.w3.org/1999/xlink" id="Capa_1" x="0px" y="0px" viewBox="0 0 488.387 488.387" style="enable-background:new 0 0 488.387 488.387;" xml:space="preserve"><g>	<g>		<path d="M419.951,451.12c-0.7,1.2-1.7,2.2-2.8,3.2c-1.2,0.7-2.4,1.6-3.6,1.8c-0.6,0.3-1.2,0.1-1.9,0.3c-0.6-0.2-1.3,0.1-1.9-0.2   c-0.3-0.1-0.7-0.1-1-0.1c-0.3-0.2-0.7-0.3-1.1-0.4c-0.3,0.1-2.8-1.2-4.4-1.9l-21.3-9.9c-13.7-7.1-27.4-14.3-41.2-21.4   c-29.6-15.1-59.2-30.1-88.9-44.9c-5.3-2.6-11.8-2.9-17.5-0.1l-0.2,0.1c-29.2,14.2-58.3,28.5-87.2,43.2   c-14.4,7.3-28.8,14.8-43.1,22.3l-21.4,11.4l-2.7,1.4l-0.2,0.1h-0.1l0,0l-1.2,0.5l-1.4,0.6c-0.2,0.1-0.6,0.3-0.6,0.3h-0.1   c-0.1,0-0.2,0-0.2,0.1c-1.1,0.2-2.9,0.6-4.4,0.2c-2.7-0.4-5.6-1.9-7.8-3.8c-2.3-1.9-4-4.1-5.4-6.5c-2.7-4.6-3.7-10.3-8.3-11.3   c-2-0.4-4.3,0.4-6.9,2.7c-1.1,1.2-2.2,2.8-3.3,4.8c-0.7,2.1-1.8,4.6-1.9,7.5c-0.7,5.8,0.6,13.2,5.1,20.1   c4.4,6.9,12.1,13.3,22.3,15.9c4.5,1.2,9.4,1.5,14.1,1.1c2.5-0.2,5.3-0.9,7.9-1.6c1.9-0.6,3.1-1.1,4.7-1.7l18.6-8.3   c11.7-5.3,23.4-10.6,35.1-16c23.4-10.7,46.7-21.7,69.7-33.1c9.3-4.6,18.5-9.3,27.8-13.9c29,13.7,58.1,27.4,87.1,41.1l47.3,22.1   l11.8,5.5l3,1.4c1.1,0.5,2.8,1.1,4.2,1.7c2.9,1.3,6.1,1.7,9.2,2.4c6.4,0.7,13,0,19-2c6-2.2,11.3-5.7,15.8-10   c5-4.3,9-10.1,11.5-16.5c1.4-3.2,2-6.7,2.5-10.2c0.1-1.8,0.2-3.5,0.2-5.3s-0.3-4-0.6-6l-0.5-3l-0.4-1.7l-0.4-1.7l-0.2-0.8   l-0.1-0.2v-0.1l-0.4-1.2l-0.1-0.4l-2.3-6.6l-4.7-13.2c-6.3-17.5-12.8-35-19.6-52.4c-13.4-34.9-27.6-69.6-42-104.3   c-28.8-69.3-58.8-138.4-86.5-208c-2.5-6.2-9.7-14.5-13.2-16.6c-7-4.2-7.6,5.3-5.6,18.2c6.6,42.6,22,91.2,40.7,139.3   c22.6,57.9,44.8,116,67.8,173.9c11.5,28.4,22.9,56.8,34.4,85.3c0.1,0.4,0.4,1.1,0.4,1.2h-0.2c-0.1,0-0.1,0,0,0   c-0.2,0.6,0.2,1.2-0.1,1.8C421.151,448.82,420.451,449.92,419.951,451.12z"></path>		<path d="M35.251,428.52c3.1,5.2,8.7,2.5,14.3-2.7c18.3-17.1,33.2-41,45.2-66.6c28.8-61.6,59.1-122.7,82.4-187.1   c3.6-7.7,7.2-15.3,10.8-23c11.1-24.4,21.9-49,32.1-73.8l7.5-18.7l3.6-9.4l1.8-4.7l0.9-2.3l0.4-1.2l0.1-0.3v-0.1   c-0.3,0.6-0.4,0.9-0.5,1.1l0.3-0.6l1.1-2.3l0.5-1.1c0.1,0,0.1,0,0.1,0s-0.1-0.2,0.3-0.5c0.2-0.2,0.3-0.5,0.5-0.7s0.4-0.3,0.6-0.5   c0.3-0.5,0.9-0.7,1.3-1.1c1.9-1.4,4.8-2.1,7.6-2c3.2,0.1,6.2,0.8,9.9,1.5c1.9,0.3,3.7,0.8,5.6,0.9c2,0.1,4.1-0.2,6.1-1.3   c1.8-1,3.2-2.5,4-4.7c0.9-2.2,1-5,0.2-8.3c-1.6-6.3-8.4-14.8-19.6-17.6c-4.9-1.4-10.1-1.6-15.2-1.3c-5.1,0.7-10.3,1.8-15,4.4   c-4.8,2.3-9,5.7-12.8,9.8c-1,1.2-1.9,2.5-2.9,3.8l-1.3,2l-0.7,1.2l-1.3,2.3l-0.3,0.6l-0.8,1.7l-0.6,1.2   c-6,12.7-11.8,25.6-17.1,38.6c-17.1,41.9-32.6,84.3-48.7,126.5c-41.7,70.3-67.5,149.3-101.3,223.9   C32.751,419.32,33.751,425.92,35.251,428.52z"></path>	</g></g><g></g><g></g><g></g><g></g><g></g><g></g><g></g><g></g><g></g><g></g><g></g><g></g><g></g><g></g><g></g></svg>