<svg xmlns="http://www.w3.org/2000/svg" xmlns:xlink="http://www.w3.org/1999/xlink" id="Capa_1" x="0px" y="0px" viewBox="0 0 483.137 483.137" style="enable-background:new 0 0 483.137 483.137;" xml:space="preserve"><g>	<g>		<path d="M68.392,209.562c51,54.3,101.2,109.2,154.5,161.7l0.2,0.2c7.4,7.3,19.3,7.2,26.6-0.2c12.6-12.8,25.2-25.8,37.5-39   c8.4-7.9,16.8-15.7,25.1-23.6c52.7-50.4,104.6-101.6,153-155.8c13.8-15.4,22.6-30.8,15.1-36.1c-6.8-4.9-21.5,1.2-37.2,15.5   c-28.1,25.7-56.6,51.4-83.4,78.6c-41.4,41.9-81.7,84.9-122.4,127.4c-67-79.4-145.5-150-217.8-225.4c-3.4-3.6-11.4-6.6-14.9-6.6   c-6.9,0-5.3,7.4-0.9,16.3C18.592,151.762,42.092,181.662,68.392,209.562z"></path>	</g></g><g></g><g></g><g></g><g></g><g></g><g></g><g></g><g></g><g></g><g></g><g></g><g></g><g></g><g></g><g></g></svg>