<svg xmlns="http://www.w3.org/2000/svg" id="Layer_1" height="512" viewBox="0 0 73 73" width="512"><g id="_x31_72"><path d="m24.6057453 52.7626534c7.3922729-3.3630371 14.3826923-8.2996826 21.0742207-12.1811523.2265625-.1318359.3681641-.3720703.3735352-.6342773.015625-.8358154.3043213.0154419-21.0537128-13.8959961-.4614868-.3018188-1.0887451-.0140991-1.1538086.5400391-.9971313 8.3820801-.4714966 17.1408081-.3007813 25.5039063.0114745.5377195.5692138.8901365 1.0605468.6674803z"></path><path d="m59.3279152 14.3422422c.3834229.1712036.8235474-.0013428.9926758-.3745117.6806641-1.5068359 1.4858398-2.9702148 2.3930664-4.3491211.2275391-.3461914.1318359-.8110352-.2143555-1.0385742-.3452148-.2260742-.8100586-.1313477-1.0385742.2143555-.9501953 1.4443359-1.7939453 2.9770508-2.5073242 4.5551758-.1704102.3774414-.0029297.8217773.3745117.9926757z"></path><path d="m61.9656105 15.9301329c.2572021.3182993.7282104.3747568 1.0546875.1113291 1.2255821-.9907236 2.5537071-1.8603525 3.9472618-2.5849619.3671875-.1914063.5102539-.644043.3193359-1.0117188-.1914063-.3671875-.644043-.5092773-1.0117188-.3193359-1.4819336.7709961-2.8945274 1.6958008-4.1982384 2.75-.3217772.2602539-.3720702.7324218-.111328 1.0546875z"></path><path d="m63.2654152 18.8061104c-.0927734.4038086.1586914.8066406.5620117.8999023l4.1293907.9526367c.3946533.0918579.8046265-.1515503.8994141-.5625.0927734-.4038086-.1586914-.8061523-.5625-.8994141l-4.128418-.9526367c-.4062462-.0883788-.8066368.1586915-.8998985.5620118z"></path><path d="m5.0541101 60.8981514c-.0408936 1.9194946 1.4937134 3.4995079 3.4136968 3.50494l48.9899292.1395874c1.9285278.0054932 2.796936-1.3580894 3.1226807-1.9838829.1466675-.1331787.2433472-.3201904.2484741-.5334473.3598633-15.0161133.4467773-30.5986328.4868164-45.2006836.0009766-.3930664-.3012695-.7202148-.6933594-.75-22.5161743-1.7037363-26.2860718-1.5637217-42.2246094-.930665-13.3988647.5305176-12.4499512.230957-12.8178711.6079102-.1370239.1403809-.211731.3293467-.211731.5253305-.4782715.6459351-1.3515625 1.5348511-1.232605 3.0649414 1.0682979 13.74646 1.212524 27.74823.9185787 41.5559693zm54.7596449-43.380127c-.0405273 14.1518555-.1274414 29.1977539-.4672852 43.7324219-5.2412109-.0444336-10.8295898.0166016-16.2407227.0756836-28.2062378.3087769-21.7204609-.3607788-35.4785156-.4624023.86377-15.1212769-.5072632-28.6793823-.75-43.8476563 22.6394025-.3416137 20.5418683-1.9248667 52.9365235.5019531z"></path></g></svg>