<svg xmlns="http://www.w3.org/2000/svg" id="Layer_1" height="512" viewBox="0 0 73 73" width="512"><g id="_x31_63"><path d="m23.5027161 48.9358253c.8972778 0 2.4728737-2.3991661 15.0974121-8.0560303l-.1462402 7.762085c-.0078125.4140625.3222656.7563477.7363281.7641602h.0136719c.4082031 0 .7421875-.3266602.75-.7358398l.3740234-19.8515625c.0078125-.4140625-.3212891-.7563477-.7353516-.7641602-.4482422.0063477-.7568359.3217773-.7646484.7358398l-.1940308 10.2977295c-4.8021965-4.7858505-9.7134323-9.2669792-14.2219849-13.7904053-.4651814-.4673138-1.2705193-.1454659-1.28125.5166016l-.3779296 22.3588867c-.0073109.4232712.3348674.7626953.75.7626953z"></path><path d="m59.7341614 7.2370939-.5673828 2.6943359c-.0986176.4650612.254776.9047852.734375.9047852.3466797 0 .6582031-.2421875.7324219-.5952148l.5673828-2.6943359c.0859375-.4052734-.1728516-.8032227-.578125-.8886719-.4082032-.0825196-.803711.1733398-.8886719.5791015z"></path><path d="m64.5261536 12.5266447 3.9638672-3.4116211c.3134766-.2700195.3496094-.7436523.0791016-1.0576172-.2714844-.3144531-.7451172-.3496094-1.0576172-.0791016l-3.9638672 3.4116211c-.3134766.2700195-.3496094.7436523-.0791016 1.0576172.2729225.3169156.7469253.3469391 1.0576172.0791016z"></path><path d="m62.8552551 15.5984221c-.0888672.4042978.1669922.8042002.5722656.8925791l4.5371094.9931641c.4013367.0875645.8040466-.1652813.8925781-.5727539.0888672-.4047852-.1679688-.8041992-.5722656-.8930664l-4.5371094-.9921885c-.3974609-.0893555-.8037109.1669921-.8925781.5722656z"></path><path d="m5.2137752 64.0406189c18.1462402 2.0752563 36.5748901 3.2102661 54.7481689 1.4447021.8881836-.0862427 1.2559204-1.223999.5631714-1.7864952-.2616577-.2124023-.5662231-.3726196-.8810425-.4857178.4743729-.5423317.8240814-22.2070465 1.9172363-49.8099976.0182228-.4221516-.3199577-.7777405-.7451172-.7797852l-53.6513671-.2475594c-.0019531 0-.0029297 0-.0039063 0-.6415143 0-2.7752371 3.529892-3.0357056 3.9208384.135376 15.5899658.3534546 31.4834594.4909058 47.0810546.0029907.3405152.2593384.6242638.5976563.6629601zm2.7215576-50.1614351 52.0966797.2407227c-.6100197 15.5817289-1.0600777 32.3034019-1.6728516 47.925293-15.8330078 1.6708984-34.5751953 1.4765625-50.4423828-.5219727.3310542-14.8413077.5527339-30.8510733.0185547-47.644043z"></path></g></svg>