<svg xmlns="http://www.w3.org/2000/svg" id="Layer_1" height="512" viewBox="0 0 55 55" width="512"><g id="_x35_8"><path d="m35.3077736 10.2252865c.1101685-.0770264.4157104-.3373413.5180664-.6019287.130188-.2744141.1655884-.5819092.1177368-.8623047-.0823975-.5566406-.5340576-1.0686035-1.1132813-1.1829834-.1235351-.0335693-.314331-.0342407-.3759155-.0324097l-.2213745.0100708-.442749.0202026-3.5419312.1639404c-.1279907.0185547-.2305908-.0261841-.2974854-.1314087l-.3121947-.7920531-.6511841-1.651001c-.2288208-.5551147-.4272461-1.0831909-.6809692-1.6604006-.1712036-.3165894-.539978-.4805298-.8595581-.4281616-.326355.0392456-.5906372.293396-.6525269.5845337.1135254-.2786865.3928223-.4490967.6619873-.4346924.2712402.0053711.5047607.1803589.5789185.4070435l.4281006 1.702637.4417725 1.7180176c.0814209.3006592.1346436.5390015.2391968.8908081.1550903.4489746.6389771.7711182 1.1039429.7714233.100584.0046463 4.2493935.196311 3.9846802.184082l.2213743.0101318c.0848389.0063477.0444336.0054932.0630493.0115967.0053101.0081787.0056763.0228271.00354.0516968-.0033569.0111694-.0107422.0090332-.0111694 0-.0214844.0088501.0494385-.0545044-.0787354.038269-.3068848.2082958-2.3239174 1.5773439-2.2002563 1.4934082l-.7286377.5045166-.3633423.2536011-.1989136.140564c-.1278687.0959473-.2424316.2123413-.336853.3428345-.1896362.2608643-.2967529.5782471-.3062134.9007568-.0049438.1612549.0143433.3231812.0568848.4788818l.0727539.2443848.2565308.8477783.5131836 1.6954956.2111206.6889038-2.5054321-1.8462524-.3590698-.2588502c-.2210693-.1710815-.598999-.3287964-.9303589-.3399048-.3430176-.0221558-.6934204.0606689-.991394.2382202-.1841431.1158447-.1895752.1317139-.2610474.1810913l-.1780396.1314087c-.2841949.2097292-2.7368946 2.0197639-2.6333618 1.9433594.0377083-.1246529 1.0019188-3.3120756.9680176-3.2000122.0357056-.1555176.0919189-.2139282.1486816-.598877.031189-.3145142-.0330811-.6369629-.1858521-.9120483-.113018-.2057104-.2683353-.3818951-.4655762-.5233765l-.0952759-.0649414-.3668213-.2485352c-.1022053-.0692892-3.3338528-2.2601147-3.1361694-2.1260986-.0131835-.0459594.0089723-.1066894.0370485-.1258544-.0595093-.0264893.4086304-.0365601.6607056-.050415l1.7709351-.0831909 1.7709351-.1035156c.1104126-.0005493.4130859-.0239868.5848999-.1300659.1949463-.0997925.3577271-.2583008.460144-.4488525.1098633-.2185059.1151733-.347168.15802-.4902344l.1068115-.4307861c.2905884-1.1468506.5654907-2.2988281.8292847-3.454407-.8286991 1.9435313-1.2451954 3.0109532-1.5231323 3.6950686-.0581055.1333008-.1088867.3005981-.1488647.3382568-.121582.1315918-.2089844.1782837-.4671631.1459961l-1.7709351-.1034546-1.7709351-.0831909-.442749-.0203247c-.100769-.0067139-.3931274-.0263672-.6552734.0699463-.5335083.184021-.8900757.7036133-.9102783 1.2485962-.0140991.274353.0601196.5683594.2183838.8102417.0797119.1182861.1726685.2286987.2783203.3140259l.2022705.161499c.2888622.224884 2.2171154 1.7260637 2.0968628 1.6324463.1015282.0790482 1.149868.8952713 1.0483398.8162231l.0164185.0128174c-.0717773.1610718-.2404175.7070313-.3722534 1.0599976l-.5797119 1.6723022-.289856.8361206-.1471558.427063c-.0992432.2915039-.1184692.65979-.019104.991272.1989746.6723633.7821655 1.1417847 1.465271 1.2084351.3412476.0352783.699646-.0463257.9857788-.208252.1727905-.100647.2224731-.144104.2768555-.1818237.1176891-.0844631 1.7200699-1.2344723 1.619751-1.1624756l1.4398193-1.0333252.1477051-.1061401.2340088.1714478 2.8795776 2.0640259.1799927.1289673c.0592651.0400391.2467651.1714478.3928833.2205811.3154297.1322021.6890259.1621094 1.0202026.0828857.6600952-.1522827 1.1969604-.6901245 1.3122559-1.3956909.0274048-.1740112.0249023-.3459473.0026855-.5142212-.0292358-.1661987-.0814209-.335144-.09552-.3703613l-.1394043-.420166-.2869263-.8377075c-.1548157-.446826-.9166527-2.6456213-.869751-2.5102539l-.0371704-.1069946 1.12677-.8570557c.1512946-.1178984 2.200592-1.7148479 2.0953979-1.6328739zm-12.2874146 2.520935-.0231934-.0186768c.0002441-.0018311-.000061-.0014648.0001221-.0032349l.0355835.0278931z"></path><path d="m19.2530861 16.3385067c.1101685-.0770874.4156494-.3373413.5180664-.6019897.130188-.274353.1655884-.5818481.1177368-.8622437-.0823975-.5566406-.5340576-1.0686035-1.1132813-1.1829834-.1235352-.0335693-.3143311-.0343018-.3759155-.0324097-3.0244932.1396618-4.3543797.2010679-4.2060537.1942139-.1279907.0185547-.2305908-.0262451-.2974854-.1314087-.0406847-.1031733-1.0262365-2.6024542-.9633789-2.4430542-.2288208-.5551147-.4272461-1.0831909-.6809692-1.6604614-.1712036-.3165283-.539978-.4805298-.8595581-.4281006-.326355.0392456-.5906372.293396-.6525269.5844727.1135254-.2786255.3928223-.4490356.6619873-.4346313.2712402.0053711.5047607.1802979.5789185.4070435l.4281006 1.7026367.4417725 1.7180176c.0814209.3006592.1346436.5390015.2391968.8907471.1550903.4490356.6389771.7711792 1.1039429.7714233.1005831.0046482 4.2493925.1963758 3.9846792.1841431l.2213745.0100708c.0848389.0064087.0444336.0055542.0630493.0116577.0053101.0081177.0056763.0228271.00354.0516357-.0033569.0112305-.0107422.0090942-.0111694.000061-.0214844.0088501.0494385-.0545044-.0787354.038269-.3068848.2082958-2.3239193 1.577343-2.2002563 1.4934082l-.7286367.5045166-.3633423.2536011-.1989136.140564c-.529707.3974705-.7613192 1.081665-.5861816 1.7224121l.0727539.2444458c.1060419.3503838.813859 2.6891365.7697144 2.5432739l.2111206.6888428-2.5054321-1.8461914-.3590698-.2588501c-.2210693-.1710815-.598999-.3287964-.9303589-.3399048-.3430176-.0221558-.6934204.0606689-.991394.2381592-.1841431.1158447-.1895752.1317749-.2610474.1811523-.1035337.0764027-1.7055235 1.2585926-1.6019897 1.1821899l-1.2094121.8925171c.0438709-.1450272.7559247-2.4989281.7113652-2.3516235l.2566528-.8483276c.0357056-.1555176.0919189-.2139282.1486816-.598877.0539074-.5437183-.1755486-1.0936756-.6514287-1.4354858-.1002331-.0679321-1.2959847-.8783398-1.1957397-.8104248l-2.4025269-1.6290894c-.0131836-.0460205.0089722-.1066895.0370483-.1258545-.0595093-.0264893.4086304-.0365601.6607056-.0504761l1.7709351-.0831299 1.7709355-.1035156c.1104126-.0006104.4130859-.0239868.5848999-.130127.1949463-.0997314.3577271-.2583008.460144-.4487915.1098633-.2185669.1151733-.347168.15802-.4902344.1825294-.7410917.4663391-1.827323.9360962-3.8852539-.8287716 1.9438095-1.2426081 3.0046415-1.5231323 3.6951294-.0581055.1333008-.1088867.3005981-.1488647.3382568-.121582.1315918-.2089844.1782227-.4671631.1459961l-1.7709355-.1035156c-.1025734-.0047941-2.3508854-.1098671-2.2136841-.1034546-.100769-.0067139-.3931274-.0263672-.6552734.0698853-.5335083.184082-.8900757.7036133-.9102783 1.2486572-.0140991.274353.0601196.5683594.2183838.8101807.0797119.1183472.1726685.2287598.2783203.3140869l.2022705.161499c.1359327.1058311 3.2631497 2.540535 3.1616211 2.4614868-.0717773.1610107-.2404175.7069702-.3722534 1.0599365-.0633817.1828365-.9199743 2.6538296-.8695679 2.5084229l-.1471558.427124c-.0992432.2915039-.1184692.659729-.019104.991272.1989746.6723633.7821655 1.1417847 1.465271 1.2084351.3412476.0352173.699646-.0463257.9857788-.208252.172791-.100708.2224736-.144104.2768559-.1818237 1.673811-1.2012959 3.1802025-2.2824364 3.0595703-2.1958618l.1477051-.1060791.2340088.1714478c.1000061.071682 3.1595764 2.2646751 3.0595703 2.1929932.0592651.0400391.2467651.1714478.3928833.2205811.3154297.1322021.6890259.1621094 1.0202017.0828247.6600952-.1522217 1.1969604-.6900635 1.3122559-1.3956299.0274048-.1740112.0249023-.3459473.0026855-.5142212-.0292358-.1662598-.0814209-.335144-.09552-.3703613l-.1394043-.420166-.2869263-.8377075c-.1548119-.4468269-.9166508-2.6456833-.869751-2.5103149l-.0371704-.1069336 1.12677-.8570557c.1512927-.1178972 2.200592-1.7148477 2.0953979-1.6328737zm-12.2874141 2.5209351-.0231933-.0186768c.0002441-.0018921-.000061-.0014648.0001221-.0032349l.0355835.027832z"></path><path d="m51.3624611 16.3385067c.1101685-.0770874.4157104-.3373413.5180664-.6019897.130188-.274353.1655884-.5818481.1177368-.8622437-.0823975-.5566406-.5340576-1.0686035-1.1132813-1.1829834-.1235352-.0335693-.3143311-.0343018-.3759155-.0324097l-.2213745.0100708-.442749.0202026-3.5419312.1639404c-.1279907.0185547-.2305908-.0262451-.2974854-.1314087-.0406837-.1031733-1.0262337-2.6024542-.9633789-2.4430542-.2288208-.5551147-.4272461-1.0831909-.6809692-1.6604614-.1712036-.3165283-.539978-.4805298-.8595581-.4281006-.326355.0392456-.5906372.293396-.6525269.5844727.1135254-.2786255.3928223-.4490356.6619873-.4346313.2712402.0053711.5047607.1802979.5789185.4070435l.4281006 1.7026367.4417725 1.7180176c.0814209.3006592.1346436.5390015.2391968.8907471.1550903.4490356.6389771.7711792 1.1039429.7714233.1005821.0046482 4.2493935.1963758 3.9846802.1841431l.2213745.0100708c.0848389.0064087.0444336.0055542.0630493.0116577.0053101.0081177.0056763.0228271.00354.0516357-.0033569.0112305-.0107422.0090942-.0111694.000061-.0214844.0088501.0494385-.0545044-.0787354.038269l-.7333984.4978027-1.4668579.9956055-.7286377.5045166-.3633423.2536011-.1989136.140564c-.5294914.3973083-.7615051 1.080986-.5861816 1.7224121l.0727539.2444458c.1060448.3503838.813858 2.6891365.7697144 2.5432739l.2111206.6888428-2.5054321-1.8461914-.3590698-.2588501c-.2210693-.1710815-.598999-.3287964-.9303589-.3399048-.3430176-.0221558-.6933594.0606689-.991394.2381592-.1841431.1158447-.1895752.1317749-.2610474.1811523-.2077446.153307-2.9149323 2.1511116-2.8114014 2.074707.0357552-.1181908 1.0187149-3.3675404.9680176-3.1999512.0357056-.1555176.0919189-.2139282.1486816-.598877.0546341-.5510426-.1806679-1.097353-.6514282-1.4354858l-.0952759-.0648804c-.1265717-.0858002-3.6032143-2.4425793-3.5029907-2.3746338-.0131836-.0460205.0089722-.1066895.0370483-.1258545-.0595093-.0264893.4086304-.0365601.6607056-.0504761l1.7709351-.0831299 1.7709351-.1035156c.1104126-.0006104.4130859-.0239868.5848999-.130127.1949463-.0997314.3577271-.2583008.460144-.4487915.1098633-.2185669.1151733-.347168.15802-.4902344.1825294-.7410917.4663391-1.827323.9360962-3.8852539-.8287697 1.9438095-1.2426071 3.0046415-1.5231323 3.6951294-.0581055.1333008-.1088867.3005981-.1488647.3382568-.121582.1315918-.2089844.1782227-.4671631.1459961l-1.7709351-.1035156c-.1025734-.0047941-2.3508835-.1098671-2.2136841-.1034546-.100769-.0067139-.3931274-.0263672-.6552734.0698853-.5335083.184082-.8900757.7036133-.9102783 1.2486572-.0140991.274353.0601196.5683594.2183838.8101807.0797119.1183472.1726685.2287598.2783203.3140869l.2022705.161499c.2888641.224884 2.2171135 1.7260647 2.0968628 1.6324463.1015282.0790482 1.149868.8952713 1.0483398.8162231l.0164185.0128174c-.0717773.1610107-.2404175.7069702-.3722534 1.0599365-.0633812.1828365-.9199753 2.6538296-.8695679 2.5084229l-.1471558.427124c-.0991821.2915039-.1184692.659729-.019104.991272.1989746.6723633.7821655 1.1417847 1.465271 1.2084351.3412476.0352173.699646-.0463257.9857788-.208252.1727905-.100708.2224731-.144104.2768555-.1818237 1.6738129-1.2012959 3.1802025-2.2824364 3.0595703-2.1958618l.1477051-.1060791.2340088.1714478c.1000061.071682 3.1595764 2.2646751 3.0595703 2.1929932.0592651.0400391.2467651.1714478.3928833.2205811.3154297.1322021.6890259.1621094 1.0202026.0828247.6600952-.1522217 1.1969604-.6900635 1.3122559-1.3956299.0274048-.1740112.0249023-.3459473.0026855-.5142212-.0292358-.1662598-.0814209-.335144-.09552-.3703613l-.1394043-.420166-.2869263-.8377075c-.1548119-.4468269-.9166527-2.6456833-.869751-2.5103149l-.0371704-.1069336 1.12677-.8570557c.1512946-.117897 2.200592-1.7148475 2.0953979-1.6328735zm-12.2874146 2.5209351-.0231934-.0186768c.0002441-.0018921-.000061-.0014648.0001221-.0032349l.0355835.027832z"></path><path d="m3.0921369 50.1754799c.0595093.6176147.4451294 1.1768188.973938 1.4542236.2618408.1442871.5604858.2136841.8527222.215332l.7362671-.0280762c1.9303589-.0765381 3.8607793-.1679688 5.7911382-.2901001-1.9303589-.1221313-3.8607793-.213562-5.7911382-.2901001l-.7113037-.0339966c-.1886597-.0187988-.3706055-.0783081-.5232544-.1828003-.3104858-.2019043-.5004883-.5554199-.500061-.9039307l.109558-2.8656615c.1332397-3.8607178.2213745-7.7214966.3033447-11.5822144l.0830688-5.7910748c.0046997-.2164917.0033569-.538147.0130005-.6682739.0076904-.0923462.0396729-.1765747.0906982-.2502441.0992432-.152771.272583-.2382202.4420776-.2423706 4.8789296.0119572 3.6164575.0629845 13.4827271.0026855.0481567 3.6406231.0805664 7.2812481.1785278 10.9218731.0855713 3.8376465.1921997 7.6752319.362793 11.5128174-2.5133057.1131592-5.0267324.2071533-7.5400381.373291 2.6483765.1750488 5.296813.2694092 7.9451895.3912354h.0001221c.0672607.0030518.1279907-.0168457.1838989-.0455322l3.8695068-.149353c1.3519897-.043335 2.7039795-.132019 4.0559692-.1963501-1.3519897-.0643311-2.7039795-.1530151-4.0559692-.1963501l-3.6495365-.1408692c.1716309-3.8496094.2783203-7.6992188.3641968-11.5488892.1066284-3.9619751.1345825-7.9239483.190979-11.8859234l.000061-.0079956c.0005493-.0905151-.0267944-.1724854-.0500488-.2554932.001236-.100687.0444946-3.6247196.0422363-3.4408569l.0050049-.0567627c.0062256-.0337524.0108032-.0668335.0209351-.0986938.0603104-.1969986.2333889-.3440704.4345093-.3677979l2.1419678.0040894 4.5556641.0220337 4.555603-.0209961 2.1418457-.0041504c.130127.0153198.2545166.0844727.3400879.190918.0424805.0526733.0742798.1126709.093689.1761475.0097656.0318604.0153198.0648193.0202026.0985718l.0038452.0566406.00177.142395.0403442 3.305542c-.022644.083374-.0493774.1657104-.0481567.2564087.0539551 3.9619751.079834 7.9239483.1856079 11.8859234.0843506 3.8492432.1905518 7.6984253.3565063 11.5476074-2.5637817.098999-5.1276245.1905518-7.6913452.338501 2.6330566.1519775 5.2661743.2443848 7.899292.3466187.0625.0368652.1322021.062561.210144.05896 2.7672119-.1282349 5.5343628-.2230225 8.3015747-.4055786-2.6273193-.1733398-5.2545776-.2683105-7.881897-.387207.1647949-3.8329468.2706909-7.6658936.3547363-11.4989014.097168-3.6402588.1277466-7.2805786.1737061-10.9208355 9.6226006.0596504 8.8210526.006485 13.4182739-.0067749.2167969-.0048828.3580933.0623779.480896.2069092.123291.1574707.126709.2180176.1294556.8234253l.0836182 5.7465191c.0809937 3.8310547.170105 7.6620483.3026733 11.493103l.1139526 2.873291c.1159058.8186646-.4891357 1.4631958-1.428894 1.3814697-1.9154663.0760498-3.8309937.1674194-5.746521.2890015 2.7736168.1760483 5.050415.2582169 6.1068115.3042603.1436157.0010986.2894287-.0068359.4316406-.0395508.2850952-.0600586.5585327-.1897583.7845459-.3807373.4674683-.3502808.7071533-1.0443115.6795044-1.5544434.0408821-1.2832947.1852188-3.4206047.416626-14.366394l.0836182-5.7465191c-.0057983-.2670898.0284424-.3984375-.0168457-.8515015-.0518188-.3848877-.197876-.7603149-.4265747-1.0757446-.4346924-.6385498-1.2520752-1.0394897-1.9945068-1.0199585-4.5326462-.0130539-3.8018379-.0666103-13.4405518-.0066528l.0316772-2.5967407.001709-.142395-.0097046-.2277222c-.0147705-.1549683-.0419922-.3093262-.085144-.4599609-.0859985-.3011475-.230835-.5848389-.4226074-.8306274-.3809814-.493042-.9605103-.8329468-1.5834961-.9196167-.3615723-.0429077-.5123901-.0221558-.7037354-.0286865l-.569458-.0028076-1.138916-.0054932-4.555603-.0209961-4.5556641.0220337c-.1142197.0005512-1.811058.0087357-1.708374.0082397-.1913452.0065918-.3421631-.0142212-.7036133.0286865-.6226807.0866089-1.2020264.4263916-1.5828247.9192505-.2823963.3617592-.4650192.8059578-.506958 1.2901611l-.0085449.2275391.001709.142395.0318604 2.5977783c-3.5530996-.0217896-7.1061392-.0480347-10.6592407-.0112305l-2.9439084.0214232c-.796875.0327759-1.5513306.5029907-1.9465942 1.180481-.2029419.336792-.3208008.7265625-.3372803 1.1164551-.0085449.3520508.0032349.5133057.0039063.7792969l.0830078 5.7910748c.0819702 3.8607176.170105 7.7214965.3034057 11.5822142z"></path></g></svg>