<svg xmlns="http://www.w3.org/2000/svg" xmlns:xlink="http://www.w3.org/1999/xlink" id="Layer_1" x="0px" y="0px" viewBox="0 0 512.004 512.004" style="enable-background:new 0 0 512.004 512.004;" xml:space="preserve"><g>	<g>		<path d="M508.463,179.754c-1.708-7.563-3.971-14.975-6.187-22.403c-2.376-7.962-6.206-15.28-9.063-23.061   c-2.518-6.854-5.293-13.649-8.517-20.205c-3.186-6.48-7.947-11.328-12.347-16.954c-8.225-10.518-17.033-21.521-29.114-27.88   c-5.291-2.784-10.725-4.75-16.606-2.622c-6.337,2.29-12.868,6.732-17.368,11.7c-4.143,4.574-9.224,8.197-13.861,12.273   c-5.401,4.746-11.502,8.848-17.489,12.767c-5.726,3.748-10.055,9.019-15.963,12.574c-6.306,3.793-13.008,6.826-18.894,11.296   c-6.573,4.991-13.611,8.274-20.94,11.964c-7.879,3.966-14.917,9.266-22.487,13.758c-7.145,4.24-14.257,7.74-20.832,12.864   c-3.303,2.574-7.104,4.36-10.538,6.741c-1.552,1.075-2.931,2.319-4.383,3.457c-1.775-0.705-3.612-1.34-5.537-1.903   c-10.043-2.932-17.179,2.054-26.698,4.6c-4.658,1.246-8.68,2.919-13.068,4.86c-4.492,1.986-9.39,2.286-13.773,4.43   c-4.592,2.246-13.166,7.386-15.68,12.867c-3.247,0.808-6.459,1.924-9.599,2.635c-9.997,2.265-19.908,4.852-29.89,7.186   c-8.772,2.053-17.586,3.875-26.431,5.584c-10.264,1.983-20.509,5.104-30.982,5.625c-17.887,0.891-35.714,0.757-53.578,2.083   c-7.167,0.532-15.109,2.045-21.624,5.159c-6.619,3.163-9.498,9.338-11.838,15.973c-2.623,7.444-2.006,14.752-2.124,22.467   c-0.062,4.071-1.117,7.648-1.62,11.636c-0.615,4.866-0.156,9.624-0.911,14.525c-1.345,8.716,0.239,17.317,1.099,26.04   c1.044,10.589,2.124,21.162,3.612,31.7c1.194,8.451,2.759,16.748,4.436,25.11c1.807,9.016,5.137,16.324,9.125,24.573   c1.888,3.905,3.304,7.938,5.656,11.611c2.407,3.754,5.3,7.202,7.872,10.844c4.685,6.643,9.341,12.895,17.001,16.261   c7.754,3.407,16.451,7.563,25.084,6.073c1.579-0.272,3.185-0.7,4.795-1.22c3.948,0.376,7.781-1.64,11.172-3.969   c0.834-0.573,1.453-1.36,2.165-2.008c0.607-0.319,1.212-0.639,1.8-0.95c0.17-0.09,0.315-0.195,0.482-0.289   c1.157-0.34,2.329-0.496,3.451-1.415c2.901-2.377,5.864-5.345,8.475-8.063c14.012-14.59,31.538-25.785,47.339-38.437   c8.187-6.556,15.725-13.942,24.595-19.601c8.796-5.611,18.066-10.453,26.918-15.982c8.87-5.541,18.722-8.935,27.716-14.144   c3.154-1.828,6.816-3.025,10.179-4.609c-2.281,7.966-5.379,15.239-9.251,22.643c-2.234,4.273-7.146,10.818-2.923,15.444   c3.712,4.064,9.183,1.219,12.651-1.44c1.981-1.518,3.682-3.148,5.301-5.034c2.824-3.288,5.597-5.568,8.989-8.232   c1.725-1.354,3.447-2.711,5.182-4.053c1.38-1.07,4.192-2.277,3.512-3.074c1.372,1.06,3.437,4.068,4.186,4.913   c1.49,1.675,2.906,3.441,4.404,5.104c4.734,5.255,13.745,6.796,20.584,7.421c2.09,0.191,4.932-1.805,5.229-3.979   c0.875-6.441,2.274-13.124,2.394-19.624c0.057-3.07-0.897-5.823-1.406-8.804c-0.599-3.523-0.311-7.267-0.358-10.823   c-0.008-0.578,0.005-1.158,0.027-1.742c1.274,2.985,2.571,5.962,4.073,8.809c5.162,9.786,12.873,21.094,21.301,28.347   c4.211,3.624,10.135,0.134,9.098-5.296c-1.19-6.232,1.873-13.946,2.87-20.147c0.36-2.244,0.666-4.33,0.682-6.608   c0.001-0.243,0.046-0.781,0.075-1.35c1.665,0.826,4.015,1.21,5.545,1.733c2.541,0.868,4.941,1.964,7.412,3   c5.03,2.112,9.821,3.507,15.257,2.177c2.746-0.673,5.101-4.196,3.975-7.003c-1.715-4.276-0.163-9.087-0.24-13.567   c-0.075-4.435-1.405-6.321-3.646-8.831c-1.02-1.895-2.465-3.606-4.298-5.29c-0.979-0.899-1.934-1.826-2.878-2.768   c8.906-0.78,17.371-3.248,26.457-4.449c6.317-0.835,12.566-1.46,18.812-2.772c6.263-1.317,12.663-1.184,18.881-2.583   c11.718-2.635,23.95-5.092,35.938-6.128c10.059-0.868,25.752-1.552,33.399-9.125c1.197-1.184,2.024-3.002,2.106-4.785   c0.464-0.769,0.797-1.618,0.911-2.549c0.3-2.447,2.465-5.311,3.399-7.647c1.372-3.43,2.394-6.787,3.281-10.361   c1.933-7.806,3.798-15.732,5.256-23.638c1.158-6.291,2.142-13.412,2.31-19.796C512.195,195.607,510.165,187.28,508.463,179.754z    M200.104,200.039c1.795-1.443,3.966-2.605,5.967-3.73c5.14-2.889,11.026-3.554,16.43-6.014   c7.563-3.443,16.318-5.049,24.319-7.333c6.489-1.853,16.442,2.554,21.65,6.75c3.181,2.564,5.446,6.161,8.089,9.242   c-1.292,1.227-2.534,2.511-3.962,3.744c-0.429,0.369-0.611,0.63-0.674,0.806c-0.133-0.15-0.408-0.354-0.958-0.6   c-1.344-0.603-2.275-1.6-3.703-2.133c-6.375-2.38-11.785,1.711-14.636,7.11c-1.744,0.727-3.417,1.6-4.872,2.466   c-2.791,1.662-5.593,3.637-8.165,5.877c-4.102-8.107-12.239-13.698-21.85-14.989c-5.222-0.702-10.852-0.021-16.137,0.501   c-0.404-0.656-1.007-1.174-1.818-1.445C199.922,200.181,200.035,200.094,200.104,200.039z M241.922,320.217   c-2.036,1.113-4.719,1.356-6.933,2.117c-3.931,1.352-7.289,3.705-10.925,5.638c-7.921,4.213-16.38,7.169-24.143,11.762   c-16.9,9.997-33.341,19.826-48.032,32.947c-13.891,12.405-28.288,24.113-42.425,36.201c0.68-3.15,1.552-6.251,1.817-9.513   c1.487-18.315-0.389-37.104-3.093-55.208c-1.321-8.846-2.651-17.69-5.726-26.117c-3.126-8.569-6.738-16.668-9.453-25.419   c-2.208-7.111-5.038-14.89-9.971-20.62c-4.543-5.278-9.562-11.745-16.002-14.747c-16.197-7.549-27.158,7.788-31.422,21.392   c-2.497,7.966-2.511,16.204-3.194,24.425c-0.839,10.116-1.625,19.877-1.567,30.069c0.085,15.103,4.153,29.158,9.841,43.069   c5.099,12.47,14.918,26.637,30.272,25.327c19.933-1.702,13.372-31.686,12.292-44.523c-0.835-9.939-3.629-19.788-5.769-29.491   c-1.034-4.692-2.188-10.961-5.375-15.119c4.01-1.452,8.062-2.795,12.05-4.285c0.464-0.174,0.866-0.427,1.227-0.723   c2.212,6.852,5.637,13.156,7.486,20.163c1.706,6.47,2.596,13.845,3.27,20.514c0.788,7.779,2.107,15.567,2.769,23.347   c0.591,6.946,0.526,14.024,0.475,20.989c-0.052,7.289-1.492,14.137-3.008,21.236c-1.134,5.312-3.585,10.446-8.875,12.223   c-4.94,1.658-12.099,4.465-17.297,3.85c-2.694-0.319-5.133-2.012-7.628-2.966c-3.397-1.3-6.912-1.739-9.833-4.049   c-4.915-3.886-8.542-10.374-12.256-15.352c-4.115-5.514-6.692-11.848-9.967-17.866c-3.235-5.944-4.938-11.389-6.543-17.906   c-3.544-14.39-6.047-28.951-8.198-43.615c-1.09-7.425-2.178-14.851-3.237-22.28c-1.088-7.639,0.001-15.383-0.099-23.097   c-0.076-5.771,1.22-11.609,1.287-17.457c0.081-7.116,1.141-13.576,5.146-19.635c3.343-5.055,10.966-5.688,16.638-6.39   c7.381-0.911,15.252-1.758,22.669-1.903c15.934-0.309,31.861,0.318,47.599-2.791c17.027-3.365,34.3-6.863,51.058-11.387   c7.998-2.159,15.826-4.875,23.82-7.047c3.339-0.906,6.821-1.673,9.974-3.119c1.122-0.514,2.205-1.243,3.296-1.984   c6.379,3.353,14.465,1.156,21.317,1.753c8.148,0.713,12.6,5.966,17.609,11.132c-0.302,0.461-0.618,0.917-0.892,1.392   c-3.504,6.08-3.654,12.712-1.534,19.29c0.933,2.889,3.97,6.149,4.095,8.849c0.155,3.362-3.494,6.823-4.279,10.216   c-3.181,13.74,10.781,24.888,22.87,26.632c-0.314,1.912-0.939,3.557-1.37,5.803c-0.371,1.931,0.04,3.654-0.068,5.584   c-0.143,2.52-1.057,4.743-1.682,7.145c-0.963,3.705-1.831,7.437-2.696,11.17C245.57,319.26,243.632,319.281,241.922,320.217z    M62.479,308.106c-6.516,0.731-10.384,8.003-11.458,14.029c-0.766,4.303-0.88,8.83-0.356,13.164   c0.474,3.918,2.753,6.777,3.934,10.296c-0.952,1.53-0.538,3.849,1.135,4.761c-0.581-0.782-0.621-0.843-0.117-0.185   c0.314,0.484,0.728,0.866,1.247,1.145c0.648,0.38,1.864,0.869,2.609,1.097c1.534,0.469,3.494,0.677,5.084,0.648   c2.524-0.048,4.827-1.057,6.539-2.719c1.48,7.477,2.68,14.998,3.025,22.621c0.176,3.878-0.021,7.784-0.687,11.607   c-0.575,3.291-0.545,4.794-3.947,4.685c-5.197-0.164-9.4-3.563-12.357-7.592c-5.951-8.105-8.606-18.593-11.705-28.019   c-4.257-12.946-3.802-29.437-2.155-42.872c1.583-12.9-0.102-30.775,9.547-41.063c5.342-5.695,11.352-2.75,15.715,2.306   c4.05,4.693,7.895,8.24,10.442,14.024c1.885,4.28,3.03,8.784,4.178,13.292c-0.062,0.004-0.114-0.005-0.176,0.001   C76.088,300.02,68.343,303.33,62.479,308.106z M69.049,340.594c-1.734-0.059-3.408,0.618-5.277,1.228   c-0.412,0.136-0.831,0.236-1.251,0.327c-0.275-3.597-1.11-7.134-1.211-10.836c-0.048-1.779-0.294-9.438,1.441-10.472   c1.516-0.902,0.232-1.866,1.946,0.698c1.206,1.804,1.328,4.6,1.737,6.662C67.248,332.331,68.152,336.46,69.049,340.594z    M293.972,340.766c0.625,5.27-0.767,11.072-2.03,16.543c-2.448-0.529-4.901-1.199-6.796-2.035   c-3.228-1.425-6.267-5.203-8.859-7.53c-4.078-3.661-7.719-7.582-13.252-4.152c-5.332,3.308-11.247,7.836-15.989,12.188   c5.428-10.969,8.959-22.976,11.032-34.991c1.267-7.344,2.325-14.671,2.532-22.059c0.071-2.542,1.42-4.585,1.22-7.215   c-0.009-0.12-0.031-0.231-0.044-0.349c1.078,0.189,2.152,0.422,3.226,0.744c3.504,1.05,6.533,3.785,10.273,3.992   c3.699,0.204,6.318-1.734,9.058-3.864c3.118-2.426,4.814-1.944,7.598-1.189c-0.535,4.439-0.231,9.125,0.731,13.434   c0.81,3.632,1.957,6.272,1.367,10.061c-0.479,3.073-0.759,5.9-0.782,9.041C293.212,329.314,293.274,334.899,293.972,340.766z    M293.678,280.116c-2.573-0.633-4.944-1.247-7.616-0.806c-3.113,0.513-5.615,2.204-8.015,4.166   c-1.571,1.285-1.54,1.449-3.223,1.259c-1.264-0.143-3.158-1.607-4.483-2.095c-7.065-2.607-14.324-1.273-21.345-3.248   c-8.076-2.27-12.592-10.589-8.438-18.158c2.696-4.915,4.368-9.489,0.815-14.361c-4.242-5.816-5.106-12.206-1.915-18.053   c1.529,0.032,3.043-0.901,2.897-2.741c-0.03-0.373-0.093-0.732-0.137-1.1c3.097-3.46,7.815-7.626,12.819-10.098   c1.052,0.337,2.268,0.27,3.494-0.42c0.635-0.356,1.458-0.963,2.324-1.522c1.296-0.205,2.578-0.257,3.818-0.068   c0.516,0.079,1.016-0.028,1.46-0.245c1.05,0.697,2.16,1.569,3.131,1.842c3.846,1.087,7.594,0.087,10.419-2.679   c4.458-4.365,8.251-8.012,14.72-9.266c7.55-1.464,12.934,2.831,18.15,7.477c4.329,3.853,7.972,3.851,13.388,4.554   c5.686,0.736,8.089,6.273,9.506,11.354c1.471,5.268,0.643,11.808-0.963,17.068c-0.793,2.598-5.12,11.38-8.012,12.012   c-1.752,0.383-2.525,2.004-2.733,3.589c-1.028,7.842-10.855,16.936-17.533,20.471C301.783,281.387,298.37,281.272,293.678,280.116   z M359.966,317.57c-0.096,2.116-0.142,4.157-0.022,6.16c-4.581-0.875-9.647-3.482-13.474-4.448   c-4.443-1.121-10.313-3.946-13.573,0.911c-2.741,4.082-0.994,10.459-2.381,15.121c-1.051,3.534-1.991,6.943-2.775,10.379   c-1.758-2.218-3.433-4.512-5.148-6.768c-3.818-5.021-7.575-10.153-10.356-15.836c-2.255-4.61-5.124-12.869-10.096-15.916   c-1.19-5.184-0.97-10.227-1.45-15.341c6.259-0.485,12.217-3.437,17.044-7.501c6.232-5.247,9.834-11.293,11.914-18.531   c1.158,3.823,2.067,7.728,3.332,11.515c1.499,4.485,5.111,7.913,7.646,11.857c3.507,5.456,7.617,10.965,12.185,15.577   c1.788,1.805,3.846,3.629,6.063,4.893c0.476,0.272,0.98,0.504,1.491,0.723C360.069,312.87,360.062,315.458,359.966,317.57z    M493.586,222.614c-2.054,8.08-3.406,16.327-5.863,24.312c-1.406,4.572-2.633,8.899-2.941,13.439   c-2.565,0.794-5.008,2.216-7.913,3.079c-6.139,1.827-12.331,2.71-18.632,3.625c-12.25,1.782-24.516,4.035-36.565,6.839   c-5.787,1.347-11.884,1.281-17.747,2.554c-6.264,1.358-12.527,2.379-18.837,3.499c-6.897,1.224-13.463,3.531-20.18,5.457   c-2.478,0.711-4.973,1.294-7.329,2.369c-1.223,0.559-2.125,1.285-3.002,2.044c-1.607-1.986-3.133-4.035-4.552-6.149   c-1.291-1.922-2.181-4.206-3.787-5.903c-1.602-1.695-3.19-2.2-4.397-4.197c-2.795-4.623-3.967-9.562-7.524-13.62   c8.538-5.324,11.662-18.378,12.073-27.602c0.284-6.386-2.09-13.294-5.488-18.683c-4.142-6.569-8.663-8.338-16.024-9.577   c-5.005-0.842-6.94-4.98-10.813-7.761c-2.842-2.039-6.286-3.549-9.639-4.524c-6.129-1.783-12.65-0.997-18.55,1.317   c-1.688-2.831-4.537-5.466-6.32-7.151c-2.232-2.111-4.546-3.918-6.973-5.495c1.256-0.465,2.512-0.918,3.778-1.308   c6.504-2.005,11.928-6,17.952-9.052c13.03-6.599,25.43-14.49,38.629-20.702c12.057-5.676,22.811-13.492,34.429-20.021   c5.481-3.079,10.028-6.863,14.765-10.932c4.841-4.156,10.631-7.59,15.807-11.405c5.086-3.748,9.675-7.974,14.72-11.745   c5.46-4.081,9.223-9.422,15.204-12.875c2.688-1.552,4.378-2.942,7.438-2.241c2.87,0.658,5.883,2.545,8.3,4.135   c5.855,3.858,10.597,9.585,14.601,15.285c3.393,4.83,7.125,9.442,10.462,14.301c4.111,5.989,6.732,13.159,9.233,19.937   c5.009,13.576,10.21,26.749,13.831,40.798c2.191,8.502,4.542,17.654,4.755,26.472   C496.649,207.942,495.266,216.009,493.586,222.614z"></path>	</g></g><g>	<g>		<path d="M316.519,227.864c-4.388-5.885-10.122-13.175-18.194-13.636c-5.758-0.328-12.783,2.839-18.089,6.99   c-7.805,0.599-16.283,6.827-21.52,11.984c-5.651,5.566-7.727,13.585-4.243,20.959c2.994,6.338,11.266,13.913,18.317,15.356   c4.622,0.945,10.228,0.274,14.917,0.032c4.61-0.238,8.688-1.264,12.838-3.291c8.054-3.929,14.095-8.549,17.359-17.143   C320.485,242.315,321.045,233.931,316.519,227.864z M311.817,245.841c-1.684,6.804-5.892,10.329-11.763,13.63   c-6.331,3.562-12.419,4.527-19.584,3.633c-6.703-0.834-11.359-4.093-16.164-8.737c-5.417-5.235-5.526-11.924-0.341-17.183   c2.435-2.469,6.098-5.85,9.967-8.286c0.189,1.625,2.057,2.938,3.766,2.581c5.643-1.184,10.557-3.283,15.924-5.371   c6.267-2.439,8.556,0.697,12.396,4.879c1.902,2.072,4.552,3.216,5.651,5.891C312.728,239.463,312.482,243.157,311.817,245.841z"></path>	</g></g><g>	<g>		<path d="M153.291,346.545c-0.865-3.628-0.711-7.357-1.539-11.014c-0.674-2.984-4.342-2.301-5.158,0.037   c-0.046-0.013-0.092-0.026-0.137-0.037c-1.259,5.635-2.182,14.225,2.227,18.785c0.701,0.724,2.068,0.971,2.933,0.378   C154.589,352.662,154.037,349.669,153.291,346.545z"></path>	</g></g><g>	<g>		<path d="M165.777,325.49c-0.399-3.177-4.524-3.167-4.942,0c-0.462,3.512-1.514,6.835-2.228,10.29   c-0.631,3.057-0.957,6.143,1.472,8.431c1.802,1.699,4.252,0.766,5.098-1.347c1.014-2.524,0.515-5.798,0.873-8.524   C166.444,331.326,166.155,328.494,165.777,325.49z"></path>	</g></g><g>	<g>		<path d="M180.08,318.37c-0.465-1.127-1.415-2.194-2.772-2.111c-2.102,0.129-3.436,1.039-4.582,2.782   c-0.966,1.467,0.045,3.119,1.41,3.672c-0.509,1.372-1.321,2.741-1.833,3.822c-1.095,2.305-2.001,4.659-1.677,7.251   c0.432,3.445,4.625,4.06,5.957,0.807C178.618,329.619,182.346,323.861,180.08,318.37z"></path>	</g></g><g>	<g>		<path d="M193.638,313.027c-0.491-1.322-1.81-2.793-3.415-2.599c-2.29,0.279-3.924,1.119-5.151,3.117   c-1.044,1.696-0.081,3.602,1.383,4.449c-0.134,0.85-0.288,1.706-0.422,2.618c-0.325,2.197-0.522,5.043,1.366,6.606   c0.8,0.664,2.015,1.023,2.964,0.382c2.072-1.396,2.839-4.179,3.323-6.53C194.222,318.473,194.579,315.567,193.638,313.027z"></path>	</g></g><g>	<g>		<path d="M388.512,260.032c0.48-1.265,0.572-2.679,0.518-4.028c-0.111-2.74-0.695-5.65-2.702-7.643   c-2.908-2.884-7.359,1.569-4.493,4.493c0.815,0.831,0.829,3.224,0.4,4.286c-0.395,0.983-1.356,1.664-1.696,2.771   c-0.414,1.344-0.28,2.773-0.163,4.146c0.4,4.687,7.767,4.728,7.363,0c-0.061-0.705-0.34-1.74-0.176-2.447   C387.642,261.276,388.391,260.356,388.512,260.032z"></path>	</g></g><g>	<g>		<path d="M403.247,245.766c-0.243,0.066-0.484,0.13-0.727,0.194c-1.669,0.449-2.451,1.815-2.471,3.211   c-0.013,0.039-0.031,0.071-0.043,0.111c-0.185,0.43-0.272,0.886-0.263,1.362c-0.005,0.021-0.008,0.034-0.012,0.053   c-0.035,0.028-0.053,0.039-0.092,0.072c-0.46,0.319-0.888,0.674-1.287,1.066c-0.615,0.642-1.127,1.473-1.513,2.263   c-1.407,2.882-2.342,7.825-0.865,10.769c0.51,1.017,1.947,1.563,3.019,1.228c3.767-1.176,3.456-4.91,4.854-7.9   c0.649-1.384,1.955-1.92,2.742-3.273c0.389-0.667,0.607-1.481,0.729-2.231c0.075-0.426,0.107-0.856,0.098-1.289   c-0.013-0.27-0.026-0.445-0.037-0.573C408.631,248.141,406.262,244.959,403.247,245.766z"></path>	</g></g><g></g><g></g><g></g><g></g><g></g><g></g><g></g><g></g><g></g><g></g><g></g><g></g><g></g><g></g><g></g></svg>