<svg xmlns="http://www.w3.org/2000/svg" id="Layer_1" height="512" viewBox="0 0 73 73" width="512"><g id="_x39_4"><path d="m5.6942844 37.9026489c-.481853 15.4053764-1.3237066 19.2711563 1.1647949 21.9590454 1.5778809 1.7044067 3.8860474 2.5046387 6.1245728 3.1242065 11.0366669 3.0545959 45.4589233 6.1295013 53.046875 3.4130859 3.0795822-1.102478 3.0971069-3.2774963 1.4547119-4.6503906-.628479-.5253296-1.3999023-.8317261-2.1801147-1.0966187 1.0885162-3.6816368.9675598-23.6041412 1.3067017-32.1425781.0094604-.2363281-.0162354-.4700317-.0429077-.703125.7089691-4.648983.44104-3.550518.468689-4.2573242-.1313477-1.5333862-.3588867-4.1474609-1.8547363-5.3910522-.1277466-.4899635-.9940338-1.130909-1.5092773-1.3741455.0247421-.682312-.6746025-1.5299578-1.795166-1.7338257-.2207031-.0341187-.4464111-.0394897-.6710815-.0511475-1.5224609-1.5913696-2.6372681-1.8566284-4.4089966-2.1466064-2.0033798-.3270721-4.4742203.3561029-6.6425781 2.4356079-.5636597-.0404663-1.1264648-.0701294-1.6898804-.1067505.3988037-1.3265991.4769287-3.6109619-.0898438-4.7260742-.5320435-1.046875-1.6347656-1.7098389-2.7755127-1.9885864-.9558105-.2335815-2.7991333-.5073853-4.064209-.5583496-4.3491211-.560791-8.7526855-.6171875-13.1168804-.1622925-3.2865829.3459558-5.3545437 1.700635-5.2556763 7.0887451-3.9100342.1505737-7.7944946.3851318-11.6359253.7276611-1.6455078.1484375-3.203125 1.2636719-4.1679688 2.9848633-1.0082393 1.8136082-1.2712712 3.8606129-2.0895386 8.2735596-.421391 2.4319763-1.1447244 5.081356-.706543 7.4229717.0243511 1.2678853.2405948 2.6509152 1.1304912 3.6591206zm45.8980084-14.9279155c.568222.2872772.7180672 1.0073795.3759766 1.515625-2.6519966 3.9544716-3.4340324 6.314909-4.0052948 7.4852962-.4350853.8913918-.7479057 1.0924759-1.6714745.7817307-.82967-.2791519-2.1522064-.9713497-4.499012-1.9472027-.5749435-.2380486-.8490486-.8443604-.4112816-1.6884327 2.0140762-3.8834362 3.1150703-6.2159996 3.8399925-7.6294384.1835938-.3579102.5449219-.5683594.9365234-.5683594.8495675 0 4.1772195 1.4147606 5.4345704 2.0507813zm6.1435547-5.5253907c1.3621216.1315308 2.7249756.2803345 4.1224365.4465332-1.4829025.8259773-1.9938545 2.3756256-2.3880615 3.9963379-2.3726158 9.9744473-.9205055 13.895071-3.0009766 16.491209-1.1435547 1.4384766-3.0009766 1.8344727-4.0068359 1.9423828-1.6572723.1809616-1.9583206-.1361847-7.8726807-.5012817.7220459-1.9057007 1.4541016-3.6970825 2.2200928-5.427002.3824387.0061684.7067642-.0572929 1.0383301-.1967163 1.9341202-.813652 1.0313148-2.4167747 5.3662109-8.8740215.5365372-.8003197.6270638-1.9007053-.0066528-2.8433838 1.2158813-1.8560409 2.6314315-3.893053 4.5281372-5.0340576zm7.3779297 11.0004883c-.457077 11.4937229-.0563278 30.0218906-1.6494141 32.7475586-.2077637.3543701-1.190918.7324219-1.6079102.6459961.6101074-5.229187.6781616-11.2357178.1821289-17.4541016-.0332031-.4130859-.4023438-.7167969-.8076172-.6879883-.4130859.0327148-.7207031.3945313-.6884766.8071289.940155 11.7554779-.3637695 17.375061-.2557373 18.1738892-.7885742.6209106-2.0274658 1.026123-3.2277222 1.1555176 1.4522095-1.5490189 1.7449532-3.7137871 1.8848267-5.8240356.5506592-7.5870972.4733276-13.9718018-.2475586-20.6885376.8972359-2.6599388.3064117-4.6674881 1.5004883-11.4688091 1.4465942-.6814346 2.95681-.8450012 4.0664063.3223877.5732422.6044902.8837891 1.4321269.850586 2.2709941zm-55.0762921 11.2945538c5.0509644.5612183 9.5856934 1.0361328 14.1094971 1.1477661.0005493.7730103.0159912 1.5339355.0537109 2.2671509.0422363.8285522.5646362 1.6141357 1.2778931 2.2189331 3.2891655 3.5114288 7.4395237 1.304554 7.3631573-3.78479 1.4492188.0526123 2.119812.0788574 3.5742798.1956787-2.1491966 6.3184319-4.4774609 15.5360069-9.7998028 19.4574585-12.3123436-1.4679184-17.5662193-1.2643242-19.1645508-3.6947021-1.2135549-1.7976341-.8225398-2.9856415-.2913208-18.5637817.8840332.4262694 1.8983154.6475218 2.8771362.7562865zm33.7261334 2.3269653c2.6323509.0194092 7.6337395 1.8340797 11.5536499-.5629883.8429718-.515522 1.3323097-1.0884361 2.0892334-1.9274292.5161133 5.8763428.5274658 11.6247559.0412598 18.3288574-.3277092 4.9223671-1.7694397 6.8499756-8.0253906 6.3701172-4.8845825-.3668823-9.779541-1.0964966-14.5491333-1.8370972 4.6495017-5.4547119 6.1172484-12.6813735 8.8903808-20.3714599zm-2.1338501-9.6972046c1.6332893.6920586 1.9575729.8594971 3.7235107 1.6078491-5.7763214 13.1288185-6.2223854 21.494976-11.9133301 27.8511353-2.1050644 2.3333969-4.5628662 2.593071-7.4887066 1.4473877.4739838-.1497459.8824024-.3535767 1.2992554-.6387939 7.2829495-5.0039941 8.3145542-16.3887635 14.3792706-30.2675782zm-10.9808331 10.8696289c-.1279297.8647461-1.4882813 1.8129883-2.4667969 1.7651367-1.0722656-.0419922-2.4414063-1.1035156-2.4833984-1.9262695-.1240234-2.4038086-.0380859-5.0922852.2392578-7.6459961 1.8161297.1325531 3.4018421.19907 5.1777344.3300781-.0244141 2.5161133-.0976563 4.9897461-.4667969 7.4770508zm34.904295-19.456541c.0285034.3347168-.0397949.8867798-.1265869 1.4567261-1.3129196-1.4607353-2.9990387-1.7088242-4.9040527-1.1141968.3312912-1.6185837.6604729-3.3909359 1.3548584-4.3024902.4697266-.6162109 1.1933594-.9511719 1.7685547-.8100586 1.5425491.3816966 1.7721023 3.1998271 1.9072265 4.7700195zm-8.9980469-9.4545899c1.1743774.1918945 1.8930054.3421021 2.6469116.875-3.2822495.8498745-5.2928276 3.4926033-7.1585083 6.3204956-1.2149048-.6015015-2.4755249-1.128479-3.7215576-1.5524902.8519669-1.2843342 2.0706711-3.0915833 3.6384277-4.2772827 1.4619141-1.1083985 3.1347657-1.6049805 4.5947266-1.3657227zm-13.6796875-4.7216797c.6669922.1049805 1.3027344.2275391 1.7470703.5742188.5361328.418457.8554688 1.2241211.8554688 2.1547852 0 .875061-.2550659 1.7648926-.5180054 2.6312866-6.1615601-.3135986-12.296875-.3966675-18.3702374-.2504272.1471806-.9022827-.0918941-4.288065 1.7763672-5.4576416 4.5721455-.5159541 9.5845051-.4284354 14.5093365.3477782zm-34.2060528 9.6669922c.5576172-.9936523 1.6367188-2.0991211 2.9921875-2.2216797 12.1035767-1.0789795 24.6027813-1.1887817 37.1704102-.3490601-.8179398.9884777-1.35392 1.8139992-2.0066528 2.8065186-1.1655884-.3067627-2.3937378.2321777-2.9381714 1.2940063-.7002029 1.3647804-3.0250397 6.1571884-3.9267578 7.7998047-.5229759.9587917-.3904724 2.160881.3770752 2.9782715-1.0759888 2.4483013-2.1130981 5.0642681-3.0893555 7.7958965l-4.7167358-.2709961c.0614624-1.3396606.0807495-2.6796875.0901489-4.0324707.0029297-.3925781-.2978516-.7207031-.6894512-.7529297-2.3482513-.1912727-4.3074837-.252636-6.59375-.4399414-.4150391-.0244141-.7558594.2563477-.8056641.6552734-.1638184 1.3184814-.2713623 2.6829834-.3318481 4.0379639-4.1311646-.2891235-7.6348877-.6020508-10.9523315-.9803467-2.4204779-.2829094-5.0568838-.1291656-6.4013672-1.7885742-1.2978516-1.5952148-.96875-4.0810528-.5576172-6.2846661 1.404376-7.4699153 1.5291323-8.7146319 2.3798808-10.2470702z"></path><path d="m58.7778397 5.5528584c-.0009766 0-.0029297 0-.0039063 0-.4140625.0019531-.7480469.3393555-.7460938.7539063l.0117188 2.3330078c.0019531.4125977.3378906.7460938.75.7460938h.0039063c.4140625-.0019531.7480469-.3393555.7460938-.7539063l-.0117188-2.3330078c-.0019532-.4125978-.3378907-.7460938-.75-.7460938z"></path><path d="m63.3901443 6.3819599c-.3652343-.1953125-.8183593-.0566406-1.0146484.3085938l-1.4208984 2.6645508c-.1943359.3657227-.0566406.8198242.3095703 1.0146484.3635902.1944408.8179893.057847 1.0146484-.3085938l1.4208984-2.6645508c.194336-.3657226.0566407-.8198242-.3095703-1.0146484z"></path><path d="m64.768074 12.7252216 1.1660156-.9155273c.3251953-.2553711.3828125-.7265625.1279297-1.0527344-.2558594-.3261719-.7265625-.3847656-1.0537109-.1279297l-1.1679688.9174805c-.3251953.2558594-.3818359.7275391-.1259766 1.0532227.2558976.3240766.7270051.3826818 1.053711.1254882z"></path></g></svg>