<svg xmlns="http://www.w3.org/2000/svg" id="Layer_1" height="512" viewBox="0 0 55 55" width="512"><g id="_x31_0"><path d="m22.7000008 43.5999985s.0999984 0 0 0z"></path><path d="m51.5999985 24c-.2000008-1.5-.4000015-3-1-4.3999996s-1.7000008-2.3999996-2.7000008-3.2000008c-.9000015-.6999998-1.5999985-1.1000004-5.5-3.8000002-.7999992-.5-1.5-1.1000004-2.2000008-1.3999996-1.5-.6999998-2.7999992-.5-3.5999985-.3999996s-1.2000008.3000002-1.2000008.3000002c0 .1000004.4000015 0 1.2000008 0s2.0000001-.1000004 3.4000016.6000004c.5999985.3000002 1.2999992.8999996 2.0999985 1.5s1.5999985 1.1999998 2.5 1.8000002c.9000015.6999998 1.9000015 1.3000001 2.7999992 2.0999994.9000015.7999992 1.7999992 1.6000004 2.2999992 2.7999992-2.0999984.2000008-8.4000015 2.2999993-10.5999984 3.6000004-2.7000008-3.3999996-5.7000008-5.7000008-7.7999992-7.3999996-1.3999996-1.1999998-2.5-2-3.1000004-2.3999996.8999996-.3000002 1.7000008-.5 2.5-.8000002 1.4999981-.6000004 2.6999989-1 3.4999981-1.3000002s1.2000008-.3999996 1.2000008-.3999996c0-.1000004-1.7999992.1999998-4.8999996 1.1999998-1.5.5-3.5.8999996-5.6999989 1.5-2.2999993.6000004-4.7999993 1.1999998-7.6000004 1.8999996-1.3999996.4000006-2.8999996.8000002-4.3999996.999999-1.7999993.3000012-3.4999991.6000004-5.1999994 1.2000008-.8000002.2999992-1.7000003.7000008-2.5 1.3999996-.4000001.2999992-.6999998.8999996-.9000001 1.2999992-.1999998.4000016-.2999997.8000012-.3999998 1.3000012-.5 1.7999992-.7 3.7999992-.8 5.7000008 0 1-.0999999 2 0 3s.0999999 2 .5 3.2000008c.0999999.2999992.2.5999984.5.9000015.1999998.1999969.3000002.1999969.4000001.2999954 3.7999997 2.9000015 5.4000001 4.0999984 9.0999999 7 .8999996.7000008 1.8999996 1.2999992 3 1.7000008s2.3999996.5 3.6000004.4000015c.8999996-.0999985 1.7999992-.2999993 2.7000007-.5999985h.1000004c1.2000008-.2000008 2.2000008-.5 3.2000008-.7999992 3.8999996-1.0999985 1.7999992-.5 9-2.5999985 3.9000015-1.2000008 7.5999985-2.2999992 11.1000023-3.5999985.9000015-.2999992 1.7000008-.5999985 2.5999985-.9000015.9000015-.4000015 1.7999992-.7999992 2.5-1.5999985.4000015-.4000015.5999985-.9000015.7999992-1.4000015-.1000023-.2000046-.1000023-.5000038-.1000023-.7000046s.0999985-1.2999992 0-3.2000008c-.0999985-1.6999988-.2000008-3.2999992-.4000015-4.7999992zm-11.5999985 5.7999992c2.2000008-.2999992 8.2000008-2.6000003 10.5999985-4.1000003.0999985 1 .2000008 2 .2000008 3.1000004v.6000004c-1.0000001.2000007-3.2999993.8999995-5.7999993 1.8999995-2.4000015.9000015-4.5 1.7999992-5.4000015 2.4000015.2000007-1.1000022.300003-2.4000015.4000015-3.9000015zm9.7999992-9.2999992c.5 1.5.5999985 3.1000004.7999992 4.5-2.4000015.3999996-8.2999992 2.7000008-10.5 4.1000004 0-.7999992.0999985-1.6000004.0999985-2.5-.0999985-1.1000004-.2999992-1.7999992-.7000008-2.5 2.7000047-.3999996 8.6000024-2.5 10.3000031-3.6000004zm-41.7999992-1.3999996c1.6000004-.5 3.1999998-.7999992 4.6999998-1.2000008 1.6000004-.2999992 3.0999994-.7999992 4.500001-1.1000004.1000004 0 .1000004 0 .2000008-.1000004.6000004.3999996 1.7999992 1 3.2999992 2.1000004 1.1000004.7999992 2.3999996 1.7999992 3.7999992 3.1000004.7000008.6000004 1.3999996 1.2999992 2.1000004 2s1.5 1.3999996 2.2000008 2.1000004c.2999992.2999992.3999996.7000008.6000004 1.1000004-2.3999996.5-6.3999996 1.7000008-8.7000008 2.3999996-.3999996.1000004-.8999996.2999992-1.2999992.3999996s-.7000008.1000004-1-.1000004c-.2999992-.1000004-.7000008-.3999996-1.2000008-.7000008-5.500001-3.8999976-10.2000008-6.8999976-11.9000006-7.6999988.1999998-.5.4000001-.8999996.6999998-1.2000007.5-.4999981 1.3000002-.8999997 2-1.0999985zm-3.6999998 11.3999996c0-.3999996 0-.7999992 0-1.2000008.1999998.3000012.3999996.5.6999998.7000008.9000001.6000004 1.8000002.7000008 2 .2999992.1999998-.3999996-.4000001-1-1.1999998-1.5-.5999999-.3999996-1.0999999-.6000004-1.5-.6000004 0-.1000004 0-.2999992 0-.3999996 0-.5.0999999-1 .0999999-1.5 1.5 1.2999992 5.9999995 4.7000008 11.6000004 8.5.3999996.2999992.8999996.5999985 1.6000004.7999992s1.3999991.0999985 1.7999987-.0999984c.8999996-.2999992 1.8999996-.5 2.7000008-.7000008 1.7000008-.5 3.2999992-.9000015 4.6000004-1.2000008 1.6000004-.5 2.7999992-.9000015 3.5-1.2000008.2000008 1.4000015.2999992 2.7000008.3999996 3.9000015-.7000008.0999985-2 .4000015-3.8999996.7999992-3.6000004.7999992-5.5 1.4000015-7.5 2-.8999996.2999992-1.3999996.2000008-2.2999992-.4000015-6.000002-4.2999953-11.1000014-7.499996-12.6000014-8.1999968zm.3999996-6.6000004c.1000004.1000004.2000003.3000012.3000002.3999996.5.5 1.3000002 1.2000008 2.1999998 1.7999992 1.8000002 1.2999992 3.5 2.1000004 3.6999998 1.7000008.1999998-.2999992-1.1000004-1.6000003-2.9000001-2.8999996-.9000001-.6000004-1.7999997-1.2000008-2.5-1.5-.4000001-.2000007-.5999999-.2999992-.8000002-.3999996.0999999-.6000004.0999999-.7000008.3000002-1.2999992 1.5 1.2999992 5.9000001 4.6000003 11.2999997 8.2999992.3999996.2999992.7999992.6000004 1.3999996.8999996s1.2999992.2999992 1.7999992.2000008c.6000004-.1000004 1-.2999992 1.3999996-.3999996 2.2000009-.7000008 6.1000005-2.1000004 8.3999997-3.1000004.2000008 1 .3999996 2.7000008.5 3.7999992 0 .2000008 0 .2999992.1000004.5-.7000008.1000004-2 .3999996-3.7000008.6999989-2.3999996.5-5.1000004 1-7.5 1.5999985-.3999996.0999985-.7999992.2000008-1.1000004.0999985-.2999992-.0999985-.7000008-.2999992-1.1000004-.5999985-5.4999961-4.0999966-10.4999961-7.199997-12.099996-7.8999978.0999999-.6999988.1999998-1.2999992.2999997-1.8999996zm20.9000006 17.6000004c-1 .2999992-2.1000004.5999985-3 .7999992h-.1000004-.1000004c-.7999992.2999992-1.6000004.4000015-2.3999996.5-2.1000004.2000008-4-.5-5.6000004-1.7999992-4.3999996-3.4000015-5.6000004-4.2000008-9.1000004-6.9000015-.1999993-.199997-.2999992-.2999993-.2999992-.2999993-.0999999-.0999985-.1999998-.2000008-.1999998-.4000015-.1999998-.7000008-.4000001-1.5-.4000001-2.3999996 1.5 1.3000011 6.0999999 4.8000011 11.7000008 8.6000004.3999996.2999992 1 .7000008 1.7000008.7999992s1.2999992 0 1.7999992-.2000008c.8999991-.2999992 1.8999991-.5999984 2.7000002-.9000015 1.7000008-.5 3.2999992-1 4.6000004-1.5 1.7999992-.5999985 3-1.0999985 3.7000008-1.4000015.1000004 1.2999992.2000008 2.2999992.2999992 3.0999985v.4000015c-2.8000011.9000053-1.7000007.6000061-5.3000011 1.6000061zm5.7999992-1.7000008c0-.0999985 0-.0999985 0-.2000008.1000004-.7999992.1000004-1.9000015.2000008-3.4000015 0-2.2999992-.2000008-5.1000004-.5-7.8999996-.1000004-.5-.1000004-.8999996-.2000008-1.3999996 0-.1000004 0-.1000004 0-.1000004-.1000004-.6000004-.3999996-1.2000007-.7999992-1.7000007s-.7999992-.7999992-1.2000008-1.2000008c-1-1-2-1.8999996-3.2999992-3-1.3999996-1.2000008-2.8999996-2.2000008-4.1000004-2.8999996-1.2999992-.7000008-2.3999996-1.2000008-3.1000004-1.3999996 2.3999996-.6999998 4.6999989-1.3000002 6.6000004-1.8999997 1-.3000002 2-.6000004 2.8999996-.8000002.2999992.5 1.2999992 1.6000004 2.7999992 3.000001 1.8999997 1.8999996 4.8000012 4.3999996 7.3000012 7.5.5999985.7999992.9000015 1.5.9000015 2.3999996s0 1.8999996 0 2.7999992c-.0999984 4.000002-.4000015 6.6000004-.4000015 8.1999989-4 1.1000061-4.2000008 1.2000046-7.1000004 2.0000038zm19.5000019-8.5v.6000004c0 .1999989 0 .3999996-.0999985.5000019-.0999985.2999992-.2999992.5999985-.5.9000015-1 1.0999985-2.9000015 1.5-4.5999985 2.0999985-2.2000008.7000008-4.4000015 1.4000015-6.7999992 2.2000008.2000008-.7000008.5-1.7999992.7000008-3.2000008 1 0 3.2999992-.7000008 6-1.7000008 2.4000015-.8999996 4.4000015-1.8999996 5.2999992-2.6000004-.0000038.3999997-.0000038.7999993-.0000038 1.1999989z"></path></g></svg>