<svg xmlns="http://www.w3.org/2000/svg" id="Layer_1" height="512" viewBox="0 0 73 73" width="512"><g id="_x31_10"><path d="m23.7773476 21.7414017c-1.6313305.5744476-1.4860611 3.051218.4552612 3.9022827 1.2454338 8.4131088 10.6804085 9.3564796 11.9709473.2696533.5576172-.1564941 1.1364136-.5103149 1.3965454-1.0083618.4577408-.8788033.3079567-2.2035065-.3890381-2.7695923.8444138-3.3161507-.7645683-6.391674-3.4405518-7.376893-1.690918-.6230469-3.8261719-.1699219-5.1767578 1.0449219-2.4672909-.5696259-5.323782 1.6348028-4.8164062 5.9379892zm7.6591797 8.9702148c-1.7241211.4970703-3.5727539-.5947266-4.5063477-1.9384766-.8781738-1.2611694-1.3117065-2.9550171-1.3664551-5.3075562.0140381-.0631104.0125732-.1273193.0095825-.1937256 2.2647095.5158691 5.5222778-.5449219 7.336853-2.1989136.4215698 1.1821899 1.1043091 2.0724487 1.9824829 2.6057129-.0388184.1314087-.0387573.2648926-.0054321.3948364-.0932617 1.3433228-.241333 2.7443237-.7758789 3.996521-.5688476 1.3320314-1.5688476 2.3203127-2.6748046 2.6416017zm-2.0717774-13.5595703c.8891602-1.0048828 2.6289063-1.4472666 3.8876953-.9853516 2.1284142.7835045 3.3396072 3.4544487 2.3267822 6.1636963-.8637085-.5861206-1.2620239-1.6655884-1.4278564-2.3345947-.0634766-.2558594-.2124023-.8554688-.7890625-.9755859-.3759766-.0800781-.7236328.0859375-1.0336914.4892578-1.3128662 1.7087402-5.3847656 3.0739746-7.0663452 2.0522461-.4054108-3.4247208 1.8060932-4.8231258 3.2509155-4.215332.2944336.1249999.6386719.0449218.8515625-.194336z"></path><path d="m10.8984404 27.5758743c-1.1400719 11.1379852 7.603303 20.9570313 18.9360352 20.9570313 9.6313477 0 17.9199219-7.3046875 18.9208984-17.0800781v.0009766c1.0426445-10.0969486-6.1610374-19.69767-16.980957-20.8769531-10.4719287-1.0705224-19.8056184 6.5218448-20.8759766 16.9990233zm6.0358896 13.7694702c1.6045151-2.5280342 4.8305435-5.528965 8.0479126-6.8414307 1.4200516 1.7883568 3.3371582 3.0744247 5.6227417 2.8561401 2.1367188-.0304565 3.9429321-1.0188599 5.3863525-2.9156494 2.1155396 1.0590782 5.7224236 4.7199249 6.7678223 6.8536377-6.9323158 7.575287-18.8101273 7.695572-25.8248291.0473023zm26.8619995-1.2919311c-1.2942886-2.173027-5.4120178-6.5356941-7.8361206-7.253479-.2460976-.0722389-.4894295-.0142021-.6733398.1332397-.443531.3567085-1.6117592 2.8803291-4.7653809 2.9307861-2.2509766.2138672-3.8925781-1.5996094-4.6738281-2.7021484-.1704826-.2415962-.5580559-.386364-.8754883-.2685547-1.1508789.4316406-2.15625.9189453-2.9067383 1.4072266-2.4636841 1.6011963-4.7040405 3.74823-6.1373301 5.8477783-8.7936468-11.4805832-.6498804-28.1729746 13.8726817-28.1729746 14.6081543 0 22.6152877 16.7120219 13.9955444 28.078126z"></path><path d="m53.3657265 47.2213821c-.3037109-.3251953-.7329102-.5136719-1.1777344-.5166016-.8490791.061554-1.1176033.4335938-1.4654541.800293-.860405-.8885994-1.6801796-1.8853989-2.5149536-2.6412964 3.0045166-3.572876 4.9088745-7.9967041 5.402771-12.774231 1.7513275-17.0477284-14.4740944-29.6273695-30.038147-25.1584476-6.5596924 1.4603266-12.9315195 6.2465815-16.0369883 12.3596196-7.6389023 15.0372238 1.8474665 33.2929268 18.5761729 35.6518554 7.1700439 1.0110474 14.7241821-1.3641968 20.0871582-6.2150879.5838623.5750732 1.1677246 1.1500854 1.7515869 1.7251587-.2865601.2935791-.4383545.6651001-.463623 1.0427856-.0601807.1564331-.06427.3596191-.0406494.5253296.1789207 1.2565422.1032372 1.8776894.6173706 2.4645386 8.5488853 9.7561646 9.9143753 11.7918015 11.9577637 13.1912231 1.775425 1.2160568 4.0060234 1.6994324 5.7811241.5269775.5021362-.2158203.9732056-.5352783 1.3883057-.9518433 1.3525391-1.3603516 1.1635742-3.9648438.0605469-5.1435547-4.3102418-4.605171-9.4760667-10.1723974-13.8852502-14.8867186zm-1.1879883.9833985c.1471901 0-.0390091-.0560303 13.9780235 14.9287109.550293.5878906.7651367 2.2617188-.0283203 3.0595703-1.0795975 1.0853271-2.4768562.9795609-2.9946251.4248047-14.2694969-15.2494392-14.3436203-14.8749313-14.109375-15.1191406.9407425-.9527817 1.9692726-2.1159325 3.0629883-3.2558594.0004883 0 .0913086-.0380859.0913086-.0380859zm-.0595703-16.2685547c-1.4689064 14.2113266-15.8299332 23.4713821-29.7197266 18.5107422-.0561523-.0283203-.1157227-.0488281-.1772461-.0615234-11.55342-4.3566018-16.9355502-17.2262459-13.0761728-27.8964844 2.9465923-8.7487974 11.3042097-14.9658203 20.9272461-14.9658203 13.1390886-.0000005 23.3840341 11.3913784 22.0458994 24.4130859z"></path><path d="m45.6899452 9.0895452c.2807617 0 .550293-.1582031.6782227-.4287109l1.6416016-3.4648433c.1772461-.3740234.0175781-.8212891-.3564453-.9990234-.3759766-.1757813-.8222656-.0175781-.9990234.3564453l-1.6416016 3.4648433c-.2361451.4983091.1301688 1.071289.677246 1.071289z"></path><path d="m49.4658241 12.4821234 4.9360352-4.9130855c.293457-.2919922.2944336-.7666016.0024414-1.0605469-.2929688-.2939453-.7670898-.2939453-1.0610352-.0019531l-4.9360352 4.9130855c-.293457.2919922-.2944336.7666016-.0024414 1.0605469.2912179.2931594.7662965.2947273 1.0610352.0019531z"></path><path d="m52.5751991 16.3395462 4.0151367-1.8164072c.3774414-.1708984.5449219-.6152344.3740234-.9931641-.1704102-.3769531-.6171875-.5449219-.9921875-.3740234l-4.0151367 1.8164063c-.8901405.403038-.3010139 1.7796964.6181641 1.3671884z"></path><path d="m64.0708008 65.3463821c.6320343 0 .9874039-.7479553.5703125-1.2363281l-1.1225548-1.3154297c-.2680664-.3164063-.7416992-.3544922-1.0576172-.0839844-.3149414.2685547-.3525391.7421875-.0839844 1.0566406 1.0231171 1.0902024 1.1199913 1.5791016 1.6938439 1.5791016z"></path></g></svg>