<svg xmlns="http://www.w3.org/2000/svg" id="Layer_1" height="512" viewBox="0 0 73 73" width="512"><g id="_x31_19"><path d="m10.9806976 19.9329987c.1673288.2488976.363059.310297.6083374.3352051 1.115242 9.6573105 10.3525505 11.1506844 13.34021 4.1560669.6652832-1.5559692.8914185-3.2168579 1.0241089-4.8272095.8131771-.2359962 2.1915817-2.6315975 1.4690552-5.4642944-.7864132-3.084053-3.4932613-5.3937769-7.0148926-4.9388428-.0189209-.741333-.3273315-1.4846807-.8913574-2.0289311-.7241211-.6972657-1.7963868-1.0244142-2.8637696-.8798829-.9086914.125-1.8100586.5898438-2.5375977 1.3095703-.5932617.5869145-.9609375 1.2260747-1.0932617 1.9003911-.1445313.732666.0303345 1.4577637.4365845 2.0030518-2.3128119 1.4643011-4.4012938 5.4247379-2.8369751 8.1361084.0842896.1463012.2153321.2373047.3595581.2987671zm2.1065064.2520141c2.949585-.5334473 6.8734741-3.038269 8.814209-5.5639648.4345703 1.6969604 1.1779175 3.2896118 2.604126 4.2859497-.1186523 1.6605225-.300354 3.3943481-.9552002 4.9284058-2.3729497 5.5522098-9.4909001 4.3695564-10.4631348-3.6503907zm1.4060058-10.4003906c.0917969-.4663086.418457-.8681641.6762695-1.1235352.4985352-.4926758 1.0976563-.8090825 1.6870117-.8896489 1.3195286-.1857896 2.2898922.8200841 2.0050049 1.8114018-.7200317.2767944-1.3966064.6678467-1.9766846 1.1837158-.6954956-.1424561-1.3865967-.0894775-2.0358887.0960083-.1547297-.2327785-.4799393-.4483003-.3557128-1.0779418zm2.3725586 2.5263672c.2724609.0898438.5717773.015625.7719727-.1899414 2.5774002-2.6542349 7.269413-1.7824917 8.3310547 2.3823242.3109741 1.2194214.1638184 2.4116211-.3760376 3.3244019-1.7078247-1.0109253-2.2671509-3.2224121-2.609314-5.4728394-.1206875-.7883482-1.2347374-.8675957-1.4614258-.0986328-.7749786 2.6357965-6.7488976 6.6742115-9.6451416 6.5227051-1.2747192-2.4670773 1.9582587-7.4589701 4.9888916-6.4680176z"></path><path d="m4.7788548 42.1830597c.0568848.0080566.1190796.0134277.1764526.0210571l.4624634.975708c6.9231563.5661621 16.7272339.6414795 24.3795776.585083.6444225 4.4659882 3.600769 6.8200073 6.4961548 6.8200073 2.33041 0 3.8011742-1.7600975 3.7011719-1.6772461 1.4480324-1.5039444 1.9088783-3.3288956 2.1781006-5.3693237 6.7661133.4050903 18.8457031.4154053 25.6964722.3956299l.3462524-.9178467c.1002274-.0216446.3944321.0377808.6512451-.2827759.1381836-.1723633.1928711-.3964844.1503906-.6132813-.527832-2.6914063-1.6474609-5.3144531-3.2397461-7.5878906-2.2272224-3.1524296-7.70084-5.5788193-12.6625977-4.7412109-4.3529892.7336273-7.7739944 2.8350983-10.3328857 5.6469727-1.2238159-2.5762901-3.9505653-4.0012684-6.8959351-2.8525391.166626-.4260864.3498535-.8435059.4817505-1.0737305.4926872-.8613262-.8091125-1.6066608-1.3017578-.7451172-.1357422.2371216-.491333.9998169-.7596436 1.7601929-.213623-.2237549-.4187622-.402832-.5509033-.4818726-.8148613-.4825439-1.5904121.7327843-.7758789 1.2836914.0426025.0289307.1038818.0848999.1729126.1552734-1.1330948.1089096-2.1939163.6877899-2.9603271 1.8166504-7.2346802-9.2272167-21.2791748-5.9721642-26.1549683 5.5808105-.2466191.6196138.2140495 1.2252848.7416993 1.301758zm26.358398-.0888672c2.3813477.0473022 5.7225342-1.4490356 7.4926758-3.5136719.3771362 1.376709 1.0031738 2.6604004 2.1553955 3.4945068.0038452.0179443.0023193.036377.0073242.0539551-.0882072 1.3814964-.2552147 2.8000908-.7901611 4.0701904-2.0509262 4.7228089-8.3460179 3.8070985-8.8652344-4.1049804zm27.5155029-10.4486694c-2.0548477 1.8882256-5.0806847 1.9441948-7.1990967.0884399 2.3524438-.7074642 4.5082932-.9039116 7.1990967-.0884399zm-8.7740478.6308593c2.8427849 3.1816635 7.6392746 3.024128 10.3202515-.078064 1.9572144.8139038 3.4235229 1.8833618 4.3513794 3.1966553 1.2988281 1.8549805 2.2583008 3.9624023 2.8012695 6.1420898-4.1181107.0207291-7.1976585.3259583-24.7168579-.0963135.6451416-1.2886963.8822632-2.8178711.6571045-4.2904053 1.6870079-2.0891036 3.9205055-3.8356741 6.586853-4.8739623zm-15.6828613 2.8168335c.2954102.1240234.6386719.0478516.8510742-.1928711.9277344-1.0415039 2.746582-1.5029297 4.046875-1.0317383 2.6178284.9654884 3.4441681 4.2094116 2.2764893 6.7426758-1.0180054-.9544067-1.4053955-2.5686646-1.6549072-4.2109375-.1205597-.7875099-1.2342834-.8691368-1.4614258-.0986328-.6677246 2.2704468-4.8502197 4.456543-7.2444458 4.3014526-.4017506-1.7559433-.4494686-3.799614.8928833-5.0114136.6518554-.5874022 1.5957031-.7944335 2.293457-.4985351zm-11.5872193-3.1878662c-1.8578835 1.681221-4.7013321 1.8578949-6.7703857.0883789 2.1440887-.6347026 4.109745-.8721141 6.7703857-.0883789zm-8.3539429.6281739c2.7177925 3.021244 7.3098602 2.9067688 9.9050903-.076416 2.0404453.865036 3.7641335 2.1356239 5.3272705 4.414917-.3995495 1.4505005-.2440758 2.8574066.1279297 4.3530273-.0014038.0188599-.0109253.0349731-.0109253.0541992 0 .0200806.0018921.0388184.0020752.0588379-7.3823185.1980629-16.5368042.2494621-23.8878174-.5495605 1.9040552-4.0967026 5.0718747-6.9120865 8.536377-8.2550049z"></path><path d="m48.2067719 19.5728912c1.3733139 9.5404987 12.0614967 10.7147102 13.515625.335083 2.0975876-.3180695 2.4429016-3.2526665 1.1348877-4.2355347.9883003-3.7373428-.8011398-7.2677774-3.8572388-8.3931885-1.918457-.7060547-4.347168-.1816406-5.8623047 1.2138677-2.8672142-.7072611-6.0424232 1.918313-5.4342651 6.7593994-1.8393822.545631-1.7452736 3.4032245.5032959 4.3203731zm2.9036254 3.7258911c-.97052-1.3942261-1.4705811-3.2406616-1.5710449-5.7595825.9273682-.6226807 1.6150513-1.5509033 1.9484863-2.604187 2.1831055.9672852 4.7861328.8696289 6.8935547-.2543945.3458862 1.2416382 1.0722046 2.37323 2.0423584 3.217041-.1078491 1.536499-.2807617 3.1374512-.8939209 4.5749512-.6645508 1.5571289-1.8369141 2.7119141-3.1347656 3.0888672-2.0288086.5859375-4.1928711-.6928711-5.284668-2.2626954zm-1.9604492-9.9042968c.2690582-2.7508984 2.3634186-4.0015221 3.9072266-3.3535156.2954102.1230469.6381836.0449219.8515625-.1948242 1.0449219-1.1826172 3.1000977-1.7006836 4.5732422-1.1591797 2.7952461 1.029295 3.9864578 4.6324148 2.5250244 7.6887817-.7520752-.8203125-1.2487183-1.8825073-1.3428955-2.9890747-.0501518-.5954313-.7380638-.8873997-1.2006836-.5336914-1.9975586 1.5170898-4.9882813 1.6499023-7.1132813.3144531-.477726-.2988415-1.1015358.0154505-1.1464844.574707-.0603638.7479858-.3935547 1.4723511-.9011841 2.0301514-.1741943-.9111328-.2220458-1.6703491-.1525268-2.3778076z"></path><path d="m58.6226044 20.2294464-.1958008.0024414.012207.7832031c-.7971268.1452541-.7662964.1864643-1.1025391.1079102-.7119141-.1660156-1.4052734-.6430664-1.6860352-1.1601563-.1069336-.1972656-.2958984-.3359375-.5161133-.3789063-.9035339-.1786766-1.6160622 1.6644611-2.6245117 1.5864258-.171875-.0151367-.3046875-.1630859-.3022461-.2075195.0536919-.9886246-1.4429207-1.0754719-1.4980469-.0820313-.0762444 1.3955154 1.7502174 2.6082497 3.6240234 1.0786133.2006836-.1640625.3867188-.3452148.5708008-.527832.5454102.5439453 1.296875.9672852 2.0913086 1.1523438 2.5711404.599638 3.0122148-2.3656635 1.6269533-2.3544922z"></path><path d="m54.2975311 58.329361c-.6001129-2.1206779-4.0388184-3.1937637-5.8585205-.5071411-.8252487-1.0289841-2.1641426-1.6600571-3.5786743-1.3710938-3.7615318-5.6587601-11.1772728-5.8187447-15.9447632-2.0869141-3.2773438 2.5756836-3.6259766 5.269043-3.8129883 6.7158203-.0709591.5472336-.3843365 1.4819908.5286255 1.8878784.2269287.343811.3660889.6574097.7009277 1.0383301 6.008728.4139404 11.5195313.2011719 17.503418.0200195 1.4945793 1.2452393 4.5766487 2.5983582 5.4651489 2.7051392.6057892.0725861.6854019-.0955887 1.0257568-.3261108 1.6393089-1.1100159 2.9130859-2.569725 3.8317871-4.578125.5003663-1.0939331.466858-2.3403931.1392823-3.4978027zm-14.1627197-4.156189c-.4562378.8914185-.7529297 1.3220825-1.0791016 1.7843018-.6230469-.7634277-1.3269043-1.7277832-1.7936401-2.5471802.8742142.1063766 1.8074989.3163681 2.8727417.7628784zm-5.2640381-.744873c-.536087.6842499-1.1456947 1.6863251-1.569458 2.4490967-.3370171-.5119972-.5962868-1.0070305-1.026001-1.7401123.8878098-.3648911 1.6851654-.5780717 2.595459-.7089844zm-5.0294189 2.1160888c.3495483-.2736816.7109985-.5214844 1.085144-.7446899.5934677.9987259 1.2036667 2.2504272 1.9729614 2.944397.3438835.3111916.8915482.2392311 1.1401367-.1616211.5795212-.9370956 1.2675323-2.30019 2.0170898-3.2548828.7353516 1.2368164 1.8422852 2.6274414 2.5078125 3.3632813.3284492.3624268.9148445.3194275 1.184082-.09375.6046219-.9255753.9605064-1.263813 1.6945801-2.6886597.7451286.5501595 1.4714317 1.3625679 2.0129395 2.1276245-1.4915237 1.004776-2.0691109 2.7764091-1.3969727 4.59375l-15.5083007-.0634766c.3207035-2.256794.7498875-4.0248032 3.2905274-6.0219727zm14.0718994 6.4153443c-.91362-1.3305397-.5732727-2.4533997-.5709229-2.3533325.2713776-1.1846466 1.5591049-1.6591949 1.4589844-1.5898438.0009766-.0003662.0019531-.0001221.0029297-.0004883 1.3578911-.5287361 2.7700119.5542946 2.9355469 1.8120117.1142502.864212 1.372879.8660469 1.4873047.0004883.4148903-3.147007 4.7949638-2.6923485 3.3295898.8720703-.6972656 1.684082-2.112793 2.9760742-3.78125 4.3300781-1.5488663-.6199188-3.9085693-1.6914024-4.8621826-3.0709838z"></path></g></svg>