<svg xmlns="http://www.w3.org/2000/svg" id="Layer_2" height="512" viewBox="0 0 250 250" width="512" data-name="Layer 2"><path d="m139.75 130.64a33.3 33.3 0 0 0 14.08-4.51 50.35 50.35 0 0 0 11.32-9.13 74.21 74.21 0 0 0 8.67-11.5 87.79 87.79 0 0 0 5.44-10.28c1.72 6.87 2 14.2 1.62 21.48a.21.21 0 0 0 .17.2.2.2 0 0 0 .23-.16c1.58-8 2.15-16.5.23-24.79a37.12 37.12 0 0 0 -5-11.77 72.76 72.76 0 0 0 -8-9.65 86 86 0 0 1 -7.64-9.18 12.38 12.38 0 0 1 -.82-1.22l-.79-1.25a26.81 26.81 0 0 1 -1.51-2.53 51.34 51.34 0 0 1 -2.61-5.35c-3.07-7.33-4.72-15.26-6.11-23.23a1.37 1.37 0 1 0 -2.73.23v.1q.21 2.41.51 4.83l.11 1.94c0 1.12 0 2.26-.13 3.38l-.2 1.68-.1.85-.17.83-.32 1.65c-.12.55-.33 1.08-.5 1.62a25 25 0 0 1 -1.27 3.12 28.79 28.79 0 0 1 -3.69 5.72 44.91 44.91 0 0 1 -10.45 8.85c-3.87 2.5-8 4.7-11.94 7.17a66.29 66.29 0 0 0 -11.37 8.5 41.19 41.19 0 0 0 -8.62 11.56c-4.33 8.72-5 18.73-3.2 27.86a.2.2 0 0 0 .2.16.22.22 0 0 0 .2-.21 63.65 63.65 0 0 1 1.07-13.61 47.69 47.69 0 0 1 1.67-6.2 64 64 0 0 0 5.43 10.74 60.35 60.35 0 0 0 9.15 11.38 41 41 0 0 0 12.32 8.28 32.2 32.2 0 0 0 14.75 2.44zm-41.26-33.91.33-.89.68-1.53a33.38 33.38 0 0 1 1.48-3 41.81 41.81 0 0 1 8.28-10.42 105.18 105.18 0 0 1 10.62-8.54c3.72-2.71 7.55-5.39 11.27-8.24 1.84-1.46 3.7-2.89 5.42-4.5.89-.77 1.7-1.63 2.56-2.43s1.63-1.71 2.34-2.66a32.54 32.54 0 0 0 3.94-5.89 30.46 30.46 0 0 0 1.44-3.26c.2-.56.44-1.11.61-1.68l.54-1.69c.08-.3.14-.61.22-.92a76.07 76.07 0 0 0 3.33 11.43 54.82 54.82 0 0 0 5.81 11.29 72 72 0 0 0 8.09 9.63 84.51 84.51 0 0 1 8 8.92 36.39 36.39 0 0 1 5.17 10.42c.17.54.31 1.1.46 1.66a81.25 81.25 0 0 1 -15.31 21.19 47.51 47.51 0 0 1 -11.14 8.26 30.43 30.43 0 0 1 -13 3.59 27.48 27.48 0 0 1 -13-2.86 51.87 51.87 0 0 1 -11.25-7.61c-6.55-5.73-11.96-12.77-16.89-20.27z"></path><path d="m92.65 137.75a.3.3 0 0 0 -.27-.33 18.77 18.77 0 0 1 -5.2-1.38 25.43 25.43 0 0 1 -4.67-2.56 15.1 15.1 0 0 1 -3.7-3.48 5.77 5.77 0 0 1 -1.27-3.73c1.29-2.59 2.55-5.2 3.7-7.87s2.36-5.53 3.33-8.39a97.3 97.3 0 0 0 4.29-17.61 137.34 137.34 0 0 0 1.56-17.93c0-1.49 0-3 0-4.47s0-3 0-4.47-.11-3-.12-4.45 0-2.81 0-4.23a40.72 40.72 0 0 1 4.38-16.35 39.33 39.33 0 0 1 11-13.14 46.37 46.37 0 0 1 15.48-7.71 54.66 54.66 0 0 1 17.15-2 60.34 60.34 0 0 1 16.81 3.18 50.33 50.33 0 0 1 14.88 7.88 39 39 0 0 1 10.54 12.54 39.59 39.59 0 0 1 4.34 15.68l.12 2.07c0 .68.09 1.36.08 2.13v4.47c.06 3 .15 6 .3 9a172.06 172.06 0 0 0 1.77 17.91c.22 1.5.51 3 .76 4.47s.62 3 .95 4.44c.74 2.94 1.53 5.88 2.55 8.74a100.29 100.29 0 0 0 7.38 16.17 5.9 5.9 0 0 1 -1.29 3.67 15.34 15.34 0 0 1 -3.71 3.5 24.42 24.42 0 0 1 -4.69 2.55 18.77 18.77 0 0 1 -5.21 1.34.31.31 0 0 0 -.28.29.3.3 0 0 0 .29.31 18.25 18.25 0 0 0 5.64-.63 23.88 23.88 0 0 0 5.34-2.09 17.65 17.65 0 0 0 4.72-3.58l.51-.59.45-.66a6.86 6.86 0 0 0 .78-1.44 7.2 7.2 0 0 0 .51-1.63 11.53 11.53 0 0 0 .12-1.77.76.76 0 0 0 -.05-.3l-.11-.25c-1.15-2.7-2.31-5.39-3.31-8.11s-1.89-5.47-2.65-8.25a108 108 0 0 1 -3.11-17c-.61-5.77-.93-11.59-1.07-17.43-.1-2.92-.12-5.85-.16-8.78v-4.4c0-.71 0-1.51-.08-2.3l-.13-2.37a43.43 43.43 0 0 0 -18-32.1 50.71 50.71 0 0 0 -16.73-7.95 61.72 61.72 0 0 0 -18.15-2c-12.11.49-24.11 4.22-33.74 11.51a48.46 48.46 0 0 0 -12.21 13.3 45.75 45.75 0 0 0 -6.27 17.23q-.2 2.3-.42 4.6c-.1 1.51-.15 2.95-.22 4.42q-.16 4.41-.43 8.79c-.33 5.84-.71 11.65-1.44 17.4a116.12 116.12 0 0 1 -3.5 17c-1.59 5.56-3.7 11-5.82 16.52l-.09.24a.75.75 0 0 0 0 .26 11.71 11.71 0 0 0 .11 1.79 7.93 7.93 0 0 0 .51 1.65 6.72 6.72 0 0 0 .79 1.45l.45.67.51.59a17.82 17.82 0 0 0 4.74 3.6 24.18 24.18 0 0 0 5.36 2.08 17.76 17.76 0 0 0 5.66.59.29.29 0 0 0 .24-.3z"></path><path d="m111.31 135a.2.2 0 0 0 -.21.19 40.11 40.11 0 0 1 -1.65 9.08 24.08 24.08 0 0 1 -4.11 7.82l-.7.84c-.24.27-.52.5-.78.76l-.79.74-.86.67c-1.12.91-2.27 1.77-3.42 2.69s-2.35 1.8-3.57 2.75c-.62.45-1.24.93-1.86 1.42a24 24 0 0 0 -1.87 1.55.18.18 0 0 0 -.06.16.2.2 0 0 0 .21.2 19.9 19.9 0 0 0 2.46-.25c.8-.17 1.61-.33 2.39-.57a22.09 22.09 0 0 0 4.54-1.94 15.75 15.75 0 0 0 3.91-3.14l.84-1 .76-1a22.45 22.45 0 0 0 1.42-2.08 23.48 23.48 0 0 0 2.22-4.46 25.9 25.9 0 0 0 1.22-4.75 36.39 36.39 0 0 0 .11-9.55.22.22 0 0 0 -.2-.13z"></path><path d="m233.89 187.93a9.18 9.18 0 0 0 -.58-1.59l-.67-1.56c-.49-1-1.11-2-1.69-3a26.86 26.86 0 0 0 -4.62-5 44.59 44.59 0 0 0 -11.72-6.78 124.44 124.44 0 0 0 -12.53-4.19c-4.16-1.21-8.3-2.26-12.22-3.7a40.68 40.68 0 0 1 -10.86-5.55 25.33 25.33 0 0 1 -7.64-9.25 45 45 0 0 1 -3.58-12.18.31.31 0 0 0 -.28-.25.29.29 0 0 0 -.32.27 34.19 34.19 0 0 0 1.36 13.31 21.1 21.1 0 0 0 1.29 3.21l.77 1.57a12.74 12.74 0 0 0 .94 1.48l1 1.45c.34.48.75.89 1.13 1.35l1.17 1.32 1.29 1.19a39.78 39.78 0 0 0 11.85 7 94 94 0 0 0 12.74 3.97c4.25 1 8.48 1.84 12.58 2.93a37.42 37.42 0 0 1 11.54 4.83 18.71 18.71 0 0 1 2.43 1.93 8 8 0 0 1 1.07 1.11l1 1.17c.3.43.56.87.84 1.31a10.66 10.66 0 0 1 .8 1.33l.63 1.43a7.65 7.65 0 0 1 .55 1.47 27.43 27.43 0 0 1 1.1 6.19v3.18c0 .84 0 1.67-.09 2.51-9 4.4-18.3 8.13-27.52 11.82a248.56 248.56 0 0 1 -28.81 9.44 197.57 197.57 0 0 1 -29.64 5.61 197.09 197.09 0 0 1 -30.49.72.31.31 0 0 0 -.09.6 113.39 113.39 0 0 0 30.87 3.61 130.83 130.83 0 0 0 31-4.31 185.24 185.24 0 0 0 29.25-10.78c9.45-4.3 18.33-9.64 27.16-14.93h.07a1.13 1.13 0 0 0 .54-1c-.08-4.31-.17-8.97-1.62-13.24z"></path><path d="m49.24 178.77a25.74 25.74 0 0 0 7.13 5.23 19.33 19.33 0 0 0 8.9 2 18.73 18.73 0 0 0 8.89-2.5 21 21 0 0 0 6.7-6.15 27.6 27.6 0 0 0 3.83-8 31.33 31.33 0 0 0 1.3-8.56 24.42 24.42 0 0 0 -1.47-8.55 21.17 21.17 0 0 0 -4.85-7.52 20.82 20.82 0 0 0 -7.81-4.72 25.7 25.7 0 0 0 -9.12-1.31 23.51 23.51 0 0 0 -16.64 7.43 19.55 19.55 0 0 0 -4.49 8.12 21.79 21.79 0 0 0 -.36 9.08 29.37 29.37 0 0 0 7.99 15.45zm-.4-30.05a21.53 21.53 0 0 1 14.09-5.72 25.36 25.36 0 0 1 7.81.75 23.13 23.13 0 0 1 7.26 3.11 17.36 17.36 0 0 1 5.56 5.92 16.7 16.7 0 0 1 2.06 8.1 19.24 19.24 0 0 1 -1.86 8.19 23 23 0 0 1 -4.82 6.71 23.92 23.92 0 0 1 -13.85 7 18.55 18.55 0 0 1 -14.91-4.9 21.5 21.5 0 0 1 -6.73-14.76 19.15 19.15 0 0 1 5.39-14.4z"></path><path d="m111.78 217.55c-.07-.59-.15-1.05-.22-1.58-.16-1-.29-2.07-.53-3.08l-.8-3c-.28-1-.72-2-1.08-3a25.56 25.56 0 0 0 -1.31-2.87c-.25-.46-.45-1-.73-1.4l-.83-1.34-.85-1.33-1-1.25-1-1.24-1.08-1.15a34 34 0 0 0 -10.01-7.31 39.37 39.37 0 0 0 -11.69-3.5.19.19 0 0 0 -.22.13.2.2 0 0 0 .12.26 53.61 53.61 0 0 1 10.77 5c.81.54 1.67 1 2.42 1.63a26.55 26.55 0 0 1 2.26 1.78l1.1.94c.35.33.68.68 1 1l1 1 .93 1.09a34.79 34.79 0 0 1 5.76 9.82c.31.91.66 1.8.94 2.71l.75 2.78c.24.93.35 1.9.57 2.84l.27 1.38a.52.52 0 0 1 0 .37.58.58 0 0 1 -.11.15l-.07.07-.33.18-1.3.72-2.51 1.49-1.3.73-1.33.67-2.67 1.33a77.34 77.34 0 0 1 -11.15 4.43l-1.43.45-1.45.35c-1 .24-1.94.48-2.91.7s-2 .4-2.94.55-2 .3-2.95.45c-2 .28-4 .34-6 .47s-4 0-6 0c-2-.14-4-.29-5.92-.47l-2.83-.5c-1-.16-2-.23-2.92-.45-1.93-.43-3.88-.7-5.78-1.2l-2.86-.74a27.82 27.82 0 0 1 -2.84-.8 98.22 98.22 0 0 1 -11-4.12l-2.72-1.2-1.34-.6-1.32-.67-2.63-1.34-1.32-.67-.28-.15s0 0 0-.12l.2-1.41c.15-.94.21-1.9.44-2.82l.65-2.78.89-2.7a32.84 32.84 0 0 1 5.7-9.8c4.94-5.87 12-10 19.55-12.5a.23.23 0 0 0 .14-.23.2.2 0 0 0 -.23-.16c-15.83 2.21-32 14.92-30.94 34.74a4.21 4.21 0 0 0 .95 1.11 3.67 3.67 0 0 0 .61.42l.38.2 1.37.69 2.73 1.38c1.8 1 3.73 1.69 5.6 2.51a103.92 103.92 0 0 0 11.64 3.9c1 .31 2 .52 3 .73l3 .65c1 .24 2 .35 3 .5l3 .42c2 .23 4.09.29 6.12.42s4.08 0 6.11-.06a114.1 114.1 0 0 0 23.88-3.95q5.86-1.55 11.6-3.6l2.85-1.06 1.43-.54 1.4-.61 2.78-1.24 1.39-.63.35-.16a4 4 0 0 0 .56-.34 3.87 3.87 0 0 0 1.52-3.47z"></path><path d="m64.15 126c.24.66.4 1.31.6 2s.32 1.31.45 2 .52 1.31.3 2a3.35 3.35 0 0 1 -.45 1 3.49 3.49 0 0 1 -.9 1 .24.24 0 0 1 -.3 0 3.7 3.7 0 0 1 -.91-1 3.58 3.58 0 0 1 -.44-1c-.23-.65.17-1.31.3-2s.27-1.32.45-2 .36-1.31.6-2a.16.16 0 0 1 .2-.1.19.19 0 0 1 .1.1z"></path><path d="m57 129.37c.23.43.39.85.6 1.27s.32.84.45 1.26.52.85.3 1.27a1.9 1.9 0 0 1 -.45.63 3.16 3.16 0 0 1 -.9.63.32.32 0 0 1 -.3 0 3.24 3.24 0 0 1 -.91-.63 1.86 1.86 0 0 1 -.44-.63c-.23-.42.17-.84.3-1.27a10.57 10.57 0 0 1 .45-1.26c.2-.42.36-.84.6-1.27a.16.16 0 0 1 .23-.06s.07.04.07.06z"></path><path d="m71.33 129.37c.24.43.4.85.6 1.27a10.57 10.57 0 0 1 .45 1.26c.13.43.53.85.3 1.27a1.86 1.86 0 0 1 -.44.63 3.24 3.24 0 0 1 -.91.63.32.32 0 0 1 -.3 0 3.16 3.16 0 0 1 -.9-.63 1.9 1.9 0 0 1 -.45-.63c-.22-.42.18-.84.3-1.27s.28-.84.45-1.26.36-.84.6-1.27a.18.18 0 0 1 .24-.06.12.12 0 0 1 .06.06z"></path></svg>