<svg xmlns="http://www.w3.org/2000/svg" id="Layer_1" height="512" viewBox="0 0 100 100" width="512"><g><path d="m88.05 40.62c-4.15-16.78-18.36-29.48-35.51-31.67-1.04-.13-2.08-.22-3.13-.27-3.23-1.57-7.12-.61-10.36.71-3.6 1.46-7.02 3.42-10.16 5.71-6.32 4.62-11.52 10.81-14.87 17.89-6.74 14.22-4.23 31.01 5.77 43.07 5.04 6.08 11.86 11.29 19.65 12.88 12.54 2.55 22.39.67 30.3-4.17 7.75-4.74 12.15-10.37 15.21-16.08 4.12-7.71 5.23-19.43 3.1-28.07zm-3.29 18.07c-2.71 10.21-8.47 16.5-13.47 20.75-3.82 3.25-11.58 7.51-23.93 7.07-7.75-.28-15.42-3.42-21.09-8.45-10.34-9.17-15.31-24.04-11.57-37.47 1.91-6.84 5.7-13.12 10.7-18.15 2.5-2.51 5.28-4.77 8.3-6.63 3.03-1.88 8.72-4.75 10.68-4.56.27.41.69.7 1.18.7 1.01-.01 3.57.03 5.21.18 14.03 1.3 26.52 10.18 32.13 23.4 3.05 7.21 3.88 15.52 1.86 23.16z"></path><g><path d="m33.36 35.39c1.01-1.55 2.21-2.59 4.32-2.53 1.71.05 2.83.77 3.51 1.85.33.52 1.02 1.48 1.87 1.29.72-.16 1.4-1.02 1.14-1.79-.85-2.48-3.6-4.09-6.21-4.23-2.7-.15-5.08 1.17-6.64 3.19-.5.64-.67 1.5-.11 2.12.53.58 1.68.79 2.12.1z"></path><path d="m72.32 46.19c-3.7 5.36-9.92 8.62-16.28 10.03-6.72 1.5-13.86.39-19.88-2.94-3.44-1.9-6.42-4.44-8.86-7.51-.58-.74-1.66-.9-2.34-.64-.81.31-1.33 1.16-1.03 2.23.84 3.05 1.67 6.09 2.52 9.14.71 2.56 1.54 5.09 2.98 7.33 2.62 4.07 6.55 7.15 11.05 8.9 5.2 2.02 11.06 2.12 16.45.86 2.75-.65 5.58-1.58 7.91-3.22 2.19-1.54 3.89-3.71 5.31-5.96 3.21-5.07 4.78-11.01 5.03-17 .04-.94.11-1.88-.72-2.16-.91-.31-1.56.11-2.14.94zm-3.49 14.56c-1.13 2.12-2.48 4.24-4.2 5.92-1.84 1.8-4.15 2.8-6.59 3.52-9.06 2.68-19.73.9-25.52-7.14-1.56-2.17-2.41-4.66-3.13-7.21-.45-1.6-.89-3.21-1.33-4.81 4.44 4.22 10.1 7.14 16.13 8.29 7.45 1.42 15.24.03 21.78-3.81 2.16-1.26 4.14-2.77 5.94-4.48-.46 3.39-1.47 6.69-3.08 9.72z"></path></g><path d="m66.91 35.29c.56-.62.39-1.48-.11-2.12-1.57-2.02-3.95-3.34-6.64-3.19-2.61.14-5.35 1.75-6.21 4.23-.26.77.42 1.63 1.14 1.79.85.19 1.54-.77 1.87-1.29.68-1.08 1.8-1.79 3.51-1.85 2.11-.07 3.32.97 4.32 2.53.44.69 1.59.48 2.12-.1z"></path></g></svg>