<svg xmlns="http://www.w3.org/2000/svg" id="Layer_1" height="512" viewBox="0 0 73 73" width="512"><g id="_x36_5"><path d="m60.0053673 14.615139c-5.4262696-6.0774212-13.0106545-9.6795468-21.0351563-10.1264648-10.6669312-.5964355-20.6253052 4.2475586-26.743103 12.973999-3.1795778-.1156216-6.3493481 1.9478493-7.5381465 4.9127197-1.3252401 3.283514-.1385922 7.1894741 2.1098633 9.762085-1.1938076 11.9884758 4.5970712 25.0227546 16.0905757 31.0916748-4.9016113-.602417-9.7752075-.7006836-15.7481079-.5048828-2.5104861.0822334-1.9997416 2.7746925.5413208 3.3828087 11.9663696 2.8635254 18.2700806 2.8533936 28.2003174 2.1375732 3.7052612-.2670898 12.8494873-1.72229 17.8903809-5.7125206 12.019596-7.3612862 18.9497565-23.1797218 12.8165321-37.6739502 2.4737396-5.2473316-.5856705-10.6885405-6.5844765-10.243042zm-27.2451172 11.6264649c.3834839-.8422852.609375-1.7122803.7149658-2.5727539.0264893-.0135498.055603-.0166016.0809326-.0336914 1.2050781-.8105469 2.9833984-.7568359 4.1347656.1259766.0967407.0737305.2072144.1113281.3195801.1323242.0236206 3.0656738 1.7271729 6.0290527 3.829834 7.9575195 2.9169922 2.6757813 7.3457031 4.2685547 10.9033203 5.5498047.2004433.0715866.4246178.0555687.6113281-.046875 3.3023872-1.7920914 4.9786797-3.5970345 7.7978516-5.9228516 1.3273926-1.0936279 2.8763466-2.6860352 4.0790443-4.340332 2.049263 7.1993599 1.3006744 15.2553749-2.7860756 22.4672852-11.0277405 19.3162193-39.1371689 19.4588814-50.3818359.015625-.0107422-.0175781-.0214844-.0351563-.0332031-.0517578-2.7861328-4.8339844-4.1103511-10.3330078-3.8339844-15.9482422 2.9023438 2.53125 7.1904297 4.0810547 10.6552734 5.3320313.2041016.0751953.4257813.0566406.6132813-.0458984 2.4716797-1.34375 4.0302734-2.6943359 5.8349609-4.2587891.6083984-.5263672 1.2480469-1.0810547 1.9648438-1.6708984 1.9550781-1.6074221 4.4121094-4.2998049 5.4951172-6.6884767zm32.1035194-8.3447266c1.246376 1.5286884 1.584053 4.1418495.0955811 6.8540039-.1071167.0979004-.1759033.2269287-.2121582.3723145-1.1334267 1.8939209-3.0012856 3.8752441-4.5484657 5.1506348-2.7263527 2.2483063-4.3251381 3.9516258-7.2666016 5.6005859-3.3730469-1.2158203-7.4658203-2.7333984-10.078125-5.1289063-2.3339844-2.1416016-4.2333984-5.9697266-2.8867188-9.3154297.9277344-2.3017578 3.3339844-3.9384766 5.8515625-3.9794922 2.36623-.0717049 4.9391747 1.425745 5.9814453 3.7880859.248436.5622463 1.0048294.5839977 1.3164063.1044922.7919922-1.2226563 2.9179688-4.15625 5.5458984-4.9746094 2.3261719-.7246093 4.8769532-.0947265 6.2011757 1.5283204zm-25.9775428-11.9101563c6.997036.3889928 13.8083191 3.24224 19.3544922 8.9447021-.1004677.0656481-2.7359123.5791817-5.6845703 4.5845947-1.4667969-2.1865234-4.1044922-3.6347656-6.7617188-3.5654297-3.4099197.0557938-6.8858643 2.5151081-7.6331177 6.336792-1.3835449-.8297119-3.1622314-.946167-4.6461792-.3178711-.4456024-4.8165359-5.178442-6.7743149-9.1835938-5.5286865-2.4472656.7626953-4.4277344 2.9033203-5.6650391 4.578125-1.0898438-1.6181641-2.8359375-2.8359375-4.7695313-3.3271484 5.8496095-7.9042968 15.1093751-12.2734374 24.989258-11.7050781zm-32.8056636 16.9482422c.9971972-2.488245 3.7379231-4.2124767 6.4462886-3.9589844.0012817.0001221.0023804-.0004883.0036621-.0004883.0004272.0001221.0007935.0004883.0012207.0004883 2.3144531.1992188 4.4755859 1.7109375 5.3779297 3.7617188.2386875.5401878.9860859.6109982 1.3154297.1074219.7949219-1.2226563 2.9277344-4.1542969 5.5527344-4.9726563 2.3291016-.7246094 4.8759766-.0947266 6.1992188 1.5341797 1.4433594 1.7558594 1.25 4.3857422.4169922 6.2148438-1.5508614 3.4220581-5.1974354 6.2176495-7.0761719 7.8466797-1.6650391 1.4423828-3.1123047 2.6962891-5.2763672 3.9111328-3.6817226-1.3311653-8.3235455-3.0388947-10.9003906-5.9736328-.0003052-.0003662-.0007935-.0006104-.0011597-.0009766-.0200806-.0234375-.0540771-.0629883-.0593872-.0683594l-.0100708.0089111c-.0352783-.0313721-.0696411-.0634766-.1094356-.0872803l.0267334-.0349121c-.1083984-.1269531-.2167969-.2617188-.3242188-.4082031-1.9501953-2.5566406-2.5419922-5.5019531-1.5830078-7.8798828z"></path><path d="m13.423336 30.0638695 2.0898438-2.5849609c.2607422-.3212891.2109375-.7939453-.1113281-1.0546875-.3203125-.2597656-.7929688-.2119141-1.0546875.1113281l-2.0898438 2.5849609c-.2607422.3222656-.2109375.7949219.1113281 1.0546875.3233471.2618656.7973824.2090263 1.0546875-.1113281z"></path><path d="m17.845211 31.4261742c.7289925 0 .600153-.7032413 2.7041016-2.6943359.3007813-.2851563.3134766-.7597656.0292969-1.0605469-.2841797-.3017578-.7587891-.3125-1.0605469-.0292969-.8310547.7871094-1.5976563 1.6591797-2.2783203 2.5927734-.3624249.4977894.0001869 1.1914063.6054687 1.1914063z"></path><path d="m50.2182579 23.821682-2.6572266 2.6845703c-.4687996.4735184-.1279564 1.2773438.5332031 1.2773438.552536 0 .5329018-.3293648 3.1904297-2.9072266.2910156-.2939453.2890625-.7695313-.0058594-1.0605469s-.7695312-.2890625-1.0605468.0058594z"></path><path d="m55.3754845 24.5658226-2.9208984 3.0048828c-.2880859.296875-.28125.7714844.015625 1.0605469.2955742.2876377.7701149.2824993 1.0605469-.015625l2.9208984-3.0048828c.2880859-.296875.2822266-.7714844-.015625-1.0605469-.2958985-.2871094-.7705079-.28125-1.0605469.015625z"></path><path d="m34.8236656 43.7544212c-.0169067.074585-.0325317.1500244-.0253296.2303467.234375 2.6083984.921875 4.5585938 2.1035156 5.9638672 1.4790115 1.7565041 4.0760803 2.7231941 6.2382813 1.6777344 2.3261719-1.1240234 3.0224609-4.0126953 2.4970703-6.1601563-.4244995-1.7357178-1.5026855-3.3498535-3.3591919-5.0490723.5230713-.767334.9594116-1.6159668 1.25177-2.5349121.125-.3945313-.0927734-.8164063-.4873047-.9423828-.3964844-.1220703-.8164063.0927734-.9423828.4873047-.8535156 2.6845703-3.0019531 4.7519531-5.2226563 5.0292969-2.1542969.2607422-4.3242188-1.2099609-5.2587891-3.5966797-.1513672-.3847656-.5849609-.5761719-.9716797-.4248047-.3857422.1513672-.5761719.5859375-.4248047.9716797.8681032 2.2165527 2.614319 3.7924805 4.6015016 4.3477783zm3.4792481-.1217041c.4354248.8404541 1.0493774 1.5776367 1.8186646 2.137207.1337891.0966797.2880859.1435547.4404297.1435547.7248077 0 1.0292015-.9304466.4423828-1.3564453-.562561-.4091797-1.0288086-.9645996-1.3566284-1.5825195.6049194-.375 1.1709595-.8413086 1.6870728-1.3880615 1.585083 1.4647217 2.4996338 2.8208008 2.8453369 4.2362061.3916016 1.5976563-.1347656 3.7011719-1.6923828 4.453125-1.5449219.7490234-3.4414063-.1103516-4.4384766-1.2929688-.9571533-1.1380615-1.5264282-2.7770996-1.7418213-5.0007324.6671218.0074539 1.193489-.065342 1.9954223-.3493653z"></path><path d="m4.6635709 12.5277367c-.2587891.3242188-.2060547.7958984.1171875 1.0546875 2.4478512 1.8884172 2.4345284 2.1064453 2.8955078 2.1064453.7069678 0 1.0204005-.8933067.4687495-1.3349609l-2.4267573-1.9433594c-.3232422-.256836-.7939453-.2050782-1.0546875.1171875z"></path><path d="m11.1674767 12.8099632c.3876953-.1455078.5839844-.578125.4384766-.9658203-.5742188-1.5302734-1.515625-2.9238281-2.7226563-4.0302734-.3056641-.2792969-.7802735-.2587891-1.0595699.0458984-.2802734.3056641-.2597656.7802735.0458985 1.0595703 1.0341792.9472656 1.8408198 2.1416016 2.3320308 3.4521484.1443109.3831702.5712871.5847645.9658203.4384766z"></path><path d="m15.0307579 4.3646507c-.4072266-.0654297-.7939453.2099609-.8613281.6191406-.2646484 1.6152344-.2763672 3.2519531-.0332031 4.8652344.0556641.3720703.375.6386719.7402344.6386719.4575529 0 .8116446-.4066057.7421875-.8613281-.21875-1.4589844-.2080078-2.9394531.03125-4.4003906.0673827-.4082032-.209961-.7939454-.6191407-.8613282z"></path></g></svg>