<svg xmlns="http://www.w3.org/2000/svg" id="Layer_1" height="512" viewBox="0 0 73 73" width="512"><g id="_x31_00"><path d="m62.6355705 18.4200916c-5.2056541-8.1416206-13.9567299-13.6218738-24.1948852-14.2285165-18.7309246-1.1133223-34.3856054 14.7290678-32.5295396 33.7949209.7387519 10.0845909 6.3236547 20.153614 16.1699829 25.4072876-4.9557495-.6273193-9.8816528-.743042-15.9232788-.5639038-2.5326493.0749474-2.0237813 2.7930222.5355225 3.4139404 12.0614014 2.9258423 18.4198608 2.9352417 28.4385967 2.2441406 3.7366943-.2578125 12.9585571-1.696167 18.0570679-5.7015991 14.8129467-9.0253182 20.6897244-29.041626 9.4465336-44.3662701zm-55.3203721 14.8222637c.9244962-15.6024551 13.8630147-27.6054677 29.2617173-27.6054677 8.292881 0 16.2498436 3.4082603 21.9790039 9.8603516 9.6829491 10.9050169 9.6153831 26.6724854 1.2890625 37.4277344-2.925293 3.7832031-7.3051758 7.1689453-11.7167969 9.0585938-19.7865524 8.4661396-42.1101021-6.8424617-40.8129868-28.7412121z"></path><path d="m13.3440075 26.8097401h7.9690552c-1.2835102 2.6944275 1.2267952 6.3144512 4.6515503 6.3144512 3.6890335 0 6.06674-3.6515522 4.7463379-6.9757671.1422119-.173645.2148438-.401123.1604004-.6365356l-.7578125-3.2832031c-.0932617-.4033203-.4941406-.6601563-.8994141-.5615234-.4038086.0927734-.6552734.4951172-.5625.8994141l.6331787 2.7431641h-15.9407959c-.4140625 0-.75.3359375-.75.75s.3359375.7499998.75.7499998z"></path><path d="m30.7004528 52.4747772c.4130859-.0292969.7246094-.3876953.6953125-.8007813-.0292969-.4140625-.3945313-.7207031-.8007813-.6953125-7.2290459.5075073-13.9561005-4.3517265-15.4990234-11.7553711.6513672-.2131348 1.2633057-.5452271 1.7700195-1.0161133.3032227-.2822266.3208008-.7568359.0385742-1.0605469-.2832031-.3046875-.7568359-.3203125-1.0600586-.0390625-.9077148.8447266-2.3466797 1.1132813-3.4970703.6572266-.3837891-.1533203-.8217773.0341797-.9741211.4208984-.152832.3847656.0356445.8203125.4204102.9736328.5581055.2216797 1.152832.328125 1.7475586.328125.0257568 0 .0510864-.0065918.0768433-.007019 1.6725683 8.1437341 9.0763931 13.5684548 17.0823364 12.9943238z"></path><path d="m39.1037712 26.0003529c.2709541.099369-.2557526.0285664 8.2250366.0515747-1.2836342 2.6925011 1.2249298 6.3144512 4.6509399 6.3144512 3.9044037 0 6.2303543-4.048521 4.5996094-7.3369122-.1016846-.2055664-.2865601-.3344727-.4924927-.3857422-.3404694-.1771679.6573181-.0520878-16.6470947-.0917969-.2174683-.9135742-.3364258-1.8490601-.3408813-2.7900391-.0019531-.4130859-.3374023-.7460938-.75-.7460938-.0009766 0-.0024414 0-.0039063 0-.4140625.0019531-.7480469.3398438-.7460938.7539063.0063477 1.2646484.1860352 2.5234375.5341797 3.7392578.1104623.3837701.5220376.6526338.9707032.4913942z"></path><path d="m55.2800407 4.7804422-.7646484 3.0292969c-.1015625.4013672.1420898.8095703.543457.9111328.3968391.1007843.8089447-.1394663.9106445-.5439453l.7646484-3.0292969c.1015625-.4013672-.1420898-.8095703-.543457-.9111328-.4003906-.1005859-.8095702.1425782-.9106445.5439453z"></path><path d="m61.0036736 4.6613016c-.3808594-.1679688-.8217773.0048828-.9882813.3857422-.6220703 1.4189453-1.4023438 2.7734375-2.3183594 4.0263672-.3639221.4968538-.0028496 1.1923828.6049805 1.1923828.230957 0 .4589844-.1064453.605957-.3076172.9804688-1.3408203 1.8149414-2.7900391 2.4814453-4.3095703.1660157-.3789062-.0063476-.8212891-.3857421-.9873047z"></path><path d="m62.1950798 13.3419657c1.4760742-.7871094 2.8442421-1.7626953 4.0673866-2.9013672.3032227-.2822266.3198242-.7568359.0375977-1.0595703-.2817383-.3046875-.7568359-.3203125-1.0600586-.0380859-1.1274414 1.0498047-2.389164 1.9501953-3.7500038 2.6748047-.3657227.1953125-.5039063.6494141-.3095703 1.0146484.1963119.3671083.6500206.5029831 1.0146484.3095703z"></path></g></svg>