<svg xmlns="http://www.w3.org/2000/svg" id="Layer_1" height="512" viewBox="0 0 73 73" width="512"><g id="_x36_7"><path d="m20.1781254 62.8338852c5.104126 3.8897705 14.2514629 5.1793213 17.9533062 5.380127 9.925415.5383301 16.2182007.4366455 28.1126099-2.6342773 2.5848389-.6675034 2.9296188-3.3499374.4803467-3.3865356-5.9819336-.0895386-10.8554077.0966797-15.7509766.7895508 1.6087036-.8889771 3.1450806-1.9089355 4.5638428-3.0864258 6.5472412-5.4335938 10.541687-13.7166748 11.0668335-22.1854858 1.62323-18.8302135-14.055172-34.477211-32.6825562-33.0896606-10.0980206.7470691-18.6928091 6.3551014-23.6740713 14.3569944-4.0223994 5.6152344-6.1377559 12.4402466-5.5288692 19.5419312.8530274 9.9494018 6.8812251 19.2585449 15.4595342 24.3137817zm13.8547344-56.7166147c9.6548462-.7197876 18.5695801 3.401001 24.3751221 10.2972422-1.0356445-.47754-2.1421509-.8129282-3.2175293-.9639902l.229126-1.670166c.0566406-.4101563-.2304688-.7880859-.6416016-.8447266-.4052734-.0595703-.7880859.2304688-.8447266.6416016-.1045341.7847223-.216671 1.5309811-.237793 1.7902832-1.8936806.0701504-3.8909912 1.0159254-5.4143066 2.1021128l-.348877-1.7693491c-.0800781-.40625-.4746094-.6650391-.8808594-.5917969-.40625.0800781-.6708984.4746094-.5917969.8808594l.5050049 2.5534067c-1.0184326.9563599-1.8547363 2.0783691-2.3175049 3.2981567-.1474609.3867188.0478516.8203125.4355469.9667969.3811569.1456089.8187828-.0438194.9667969-.4355469 1.0283203-2.7109375 4.4638672-5.0039063 7.0273438-5.4443359 2.6806641-.4599609 6.7744141 1.3544922 8.1171875 3.5957031.0632935.1061401.1524658.1829834.2507324.2440796 2.0585938 3.6213989 3.3692627 7.7394409 3.6965332 12.1611938 1.6023254 21.6578941-20.2755394 37.1159821-39.9628906 29.0302734-9.8755703-4.057373-17.1155548-13.3662872-17.9580078-24.7441406-1.1806626-15.9658203 10.8466816-29.9169932 26.8125-31.0976572z"></path><path d="m27.7071171 35.8424911c1.0171509-.2724609 1.8805542-1.0541382 2.2056274-2.0699463.1259766-.3955078-.0917969-.8173828-.4863281-.9433594-.3964844-.1220703-.8164063.0927734-.9433594.4863281-.1972656.6181641-.8339844 1.1074219-1.4824219 1.1367188-.6445313.0244141-1.3271484-.3984375-1.5791016-.9960938-.1621094-.3818359-.6015625-.5595703-.9833984-.3994141-.3808594.1611328-.5605469.6015625-.3994141.9833984.3770752.8922729 1.180481 1.5523071 2.1025391 1.8007202 1.5358887 5.6310425 6.0859356 10.447937 11.6249981 12.2891235 5.5372124 1.8396034 12.1185188.7205086 16.7548828-2.9462891 4.5697632-3.6126099 7.2026978-9.6766968 6.7391357-15.4840088 1.2479172-.4906712 1.6961174-2.0634747.6573486-2.2943115-.40625-.0869141-.8056641.1660156-.8945313.5703125-.0400391.1806641-.2216797.3457031-.40625.3691406-.1914063.0224609-.3994141-.0927734-.4824219-.2578125-.1865234-.3701172-.6386719-.5205078-1.0068359-.3330078-.7712326.3886681-.3973389 1.4348907.6351318 1.9002075.0004883.0132446-.0054321.0249023-.0042725.038269.4746094 5.3583984-1.9462891 10.9775391-6.1669922 14.3154297-4.2207031 3.3359375-10.2460938 4.3955078-15.3525391 2.6982422-4.9436032-1.6434323-9.0231301-5.8759763-10.5317971-10.8636472z"></path><path d="m21.3199711 23.1194687c.0273438.0471191.0463867.0977783.0849609.1394043.2822266.3046875.7578125.3203125 1.0595703.0419922 2.0869141-1.9296875 3.9365234-3.1972656 5.8212891-3.9892578 5.4429264-2.28932 10.2186489.0137424 11.2832012 3.7460938.0947266.3291016.3945313.5439453.7216797.5439453.5002861 0 .857399-.4787025.7216797-.9560547-.4451294-1.5576782-1.444397-2.9383545-2.7939453-3.9537354.3757057-.3585052.1799774-.7252731.34375-2.8812265.0205078-.4140625-.2988281-.765625-.7128906-.7851563-.4140625-.0234375-.7646484.2988281-.7851563.7128906l-.1031494 2.1818247c-2.2435646-1.151083-4.7254143-1.2561951-7.1400127-.6810303l-.0058594-1.0447388c-.0019531-.4130869-.3378906-.7460947-.75-.7460947-.0009766 0-.0029297 0-.0039063 0-.4140625.0019531-.7480469.3398438-.7460938.7539072l.0083618 1.493103c-2.404253.87924-4.439579 2.3323498-6.3547974 4.0359497-.3448486-.242981-.6422119-.5603638-.8273926-.939209-.1826172-.3710938-.6298828-.5253906-1.0039063-.34375-.3720703.1826172-.5253906.6318359-.34375 1.0039063.3352053.6829224.8767092 1.2735596 1.5263674 1.6672364z"></path><path d="m10.7496576 32.8741074c.2145519 3.9974289 4.5835905 5.9798775 7.5576181 4.0009766 3.1839466-2.1203384 3.0640049-7.5178795-.3212891-9.5693359-3.8622521-2.3379441-7.4570521 1.4667186-7.236329 5.5683593zm6.7255869 2.7529296c-2.1014957 1.3995934-5.0804501-.0866013-5.22754-2.8330078-.09375-1.7451172.7695313-3.5703125 2.0527344-4.3398438.9639263-.5751743 1.9517164-.4441624 2.9082041.1347656 2.4360809 1.4769479 2.5411853 5.5232583.2666015 7.038086z"></path></g></svg>