<svg xmlns="http://www.w3.org/2000/svg" id="Layer_1" height="512" viewBox="0 0 73 73" width="512"><g id="_x39_9"><path d="m38.6553307 42.4139099c.0771484-.40625-.1899414-.7988281-.597168-.8769531-.4033203-.0771484-.7988281.1894531-.8764648.5976563-.2368164 1.2470703-1.3149414 2.3203125-2.5634766 2.5517578-1.2456055.2294922-2.6386719-.3847656-3.3061523-1.4658203-.2182617-.3535156-.6806641-.4619141-1.0327148-.2431641-.3520508.2177734-.4614258.6796875-.2436523 1.0322266.9957199 1.6104889 2.9905434 2.4966888 4.855957 2.1513672 1.8627929-.3447266 3.4106444-1.8857423 3.7636718-3.7470704z"></path><path d="m50.8823814 41.3943787c-.4013672-.0996094-.8081055.1484375-.90625.5517578-.2900391 1.1972656-1.6201172 2.1152344-3.0039063 2.0410156-1.230957-.0654297-2.6088867-.7841797-2.9125977-2.2421875-.0844727-.4042969-.4814453-.6650391-.887207-.5810547-.4057617.0849609-.6660156.4814453-.581543.8876953.4038086 1.9384766 2.1328125 3.3183594 4.3027344 3.4335938.0766602.0039063.152832.0058594.2290039.0058594 2.0009766 0 3.8676758-1.3652344 4.3115234-3.1914063.0976564-.4023438-.1494139-.8076172-.5517577-.9052734z"></path><path d="m45.6626549 51.3924255c-.40625.0810547-.6699219.4765625-.5883789.8828125.3276367 1.6376953.003418 2.9580078-.9638672 3.9248047-1.1430664 1.1445313-3.2329102 1.4873047-4.6621094.7626953-1.4023438-.7119141-2.1625977-2.5595703-1.6269531-3.9521484.1484375-.3867188-.0444336-.8212891-.4311523-.9697266-.3857422-.1494141-.8208008.0439453-.9692383.4306641-.8222656 2.1396484.2314453 4.7539063 2.3486328 5.8291016 1.9994125 1.0140152 4.8106918.5513954 6.4013672-1.0400391.9238281-.9238281 1.9125977-2.5888672 1.3740234-5.2802734-.0810547-.40625-.4794922-.6679688-.8823242-.5878907z"></path><path d="m20.683651 23.9559021c.2783203-.3066406.2558594-.78125-.0507813-1.0595703-3.1415291-2.8576565-8.1982784-1.746336-9.8530264 2.1669922-.1611328.3818359.0175781.8212891.3989258.9824219.3672686.1582069.8171692-.0068092.9829102-.3984375 1.2518682-2.962019 5.0804377-3.8047276 7.4624014-1.6416016.3066406.2792969.7802734.2558594 1.0595703-.0498047z"></path><path d="m24.47369 23.4363708c.2485352 0 .4916992-.1230469.6342773-.3496094 1.468811-2.3219414 4.7854137-2.5847301 6.6010742-.5166016.2739258.3125.746582.3427734 1.0585938.0693359.3115234-.2724609.3422852-.7470703.0693359-1.0576172-2.4588356-2.8038254-6.9846954-2.4806805-8.996582.7041016-.3178081.5012151.0485364 1.1503907.6333008 1.1503907z"></path><path d="m28.8145103 34.9744568c.2871094-.2978516.277832-.7724609-.0205078-1.0595703-1.6064453-1.5449219-3.8261719-2.3095703-5.9291992-2.0253906-2.0966797.2744141-4.0893555 1.5761719-5.3305664 3.4814453-.2260742.3466797-.1279297.8115234.2192383 1.0371094.1259766.0830078.2680664.1220703.4086914.1220703.2446289 0 .4853516-.1201172.6289063-.3408203 1.0048828-1.5429688 2.6010742-2.59375 4.269043-2.8134766 1.6601563-.2109375 3.4145508.3886719 4.6938477 1.6191406.298828.2890625.7734374.2792969 1.0605467-.0205078z"></path><path d="m60.0542564 56.4060974c-.0986328.1435547-.2314453.1914063-.3251953.2060547-.4375801.0661621-.5460854-.4101791-1.7867432-.9006958.8804932-2.133606 1.3511963-4.3811646 1.3511963-6.7057495 0-10.0463638-8.511158-18.3022785-18.9093018-17.5292358 1.572834-10.8398075-6.8847733-20.1387329-17.3914795-20.1387329-5.0853882 0-9.6602774 2.1798096-12.8775625 5.638855l-.0036011-.0014648c-.6976929.4820557-1.2362061 1.0415039-1.7799683 1.6922607-6.402341 7.6623592-5.2175029 19.2389487 2.7677003 25.4074096 3.3706665 2.6037598 7.7050772 3.9036255 11.9531851 3.6499023-.7428646 6.0496902 1.7516823 11.9629898 5.9331055 15.6915283 3.9108887 3.4873047 9.3833618 5.1522217 14.5737915 4.4337158 3.2835083-.4545288 6.3572388-1.7958374 9.2980957-3.3577271 1.612896 1.6187668 4.0207367 2.7883072 6.1122437 3.8295288 2.2366791 1.1134949 2.0695114.8129959 6.8999672-3.557251 1.5771484-1.4267578 2.3959961-2.4433594 2.7851563-4.3652344 1.0962447-5.4254683-5.1942292-8.9353674-8.6005899-3.9931639zm-50.0475454-39.3318481c-.0778198.0881958-.1309204.1547241-.1710815.2098389-.1010742.1138916-.2089844.2213745-.3071289.3378296.1595459-.1825562.3081054-.3743897.4782104-.5476685zm13.5844107 27.9477539c-9.2379131.3310356-16.7062988-7.0693855-16.7062988-16.0768433 0-8.8818359 7.2260747-16.1074219 16.1079102-16.1074219 9.7859764 0 17.5652924 8.8047142 15.8477783 18.8252563-3.2828979.5387573-6.2590942 1.979248-8.6671753 4.0701904-.6591187.4349976-1.2927246.8724365-1.8995361 1.4890137-1.078186 1.0955811-2.1002197 2.1846924-2.8710327 3.5143433-.7796022 1.3447876-1.3894044 2.7890015-1.8116456 4.2854615zm27.6383056 16.9597168c-10.4734459 7.7403946-25.6395263.2988357-25.6395263-12.9760132 0-8.875 7.2255859-16.0957031 16.1074219-16.0957031 8.8754883 0 16.0961914 7.2207031 16.0961914 16.0957031 0 2.1976318-.4551392 4.3199463-1.3140869 6.3295898-.1633301-.0439453-.357605-.052124-.5145874-.0616455-3.603798-.2197189-5.9049073 3.2750092-4.7354127 6.7080689zm15.955204-1.8793335c-.2827148 1.3935547-.78125 2.15625-2.3212891 3.5488281-1.2080116 1.09375-2.6997108 2.4287109-3.8930702 3.4042969-1.6764297-1.2110748-3.8231392-2.2171631-5.3369141-3.2832031-3.3742218-2.378212-3.0188904-5.5248413-.4975586-6.6035156 1.1249657-.4810371 2.1382103-.3547745 3.269043.5214844.9012108.6963005 2.2169876.5347252 2.8847656-.4326172.5263672-.7636719 1.234375-1.3740234 1.8032227-1.5527344.9707069-.3085938 2.107914-.0898438 2.8989296.5507813 1.0122071.8222655 1.4916993 2.3671874 1.1928711 3.8466796z"></path><path d="m32.4419518 11.2810974c.2866211 0 .5600586-.1650391.6850586-.4433594l2.5322266-5.6513677c.1694336-.3779297 0-.8212891-.3779297-.9912109s-.8212891.0009766-.9912109.3779297l-2.5322266 5.6513677c-.223549.4986381.1454105 1.0566406.684082 1.0566406z"></path><path d="m35.7505455 13.8123474c.222168 0 .4423828-.0986328.590332-.2871094 1.4980469-1.9091797 3.2250977-3.6357422 5.1337891-5.1337891.3261719-.2558594.3828125-.726563.1269531-1.0527349-.2553711-.3261719-.7270508-.3847656-1.0527344-.1269531-2.003418 1.5712895-3.815918 3.3837895-5.3876953 5.3876958-.3900222.4972049-.0258598 1.2128907.5893555 1.2128907z"></path><path d="m38.8765221 16.7879333c.0410156 0 .0830078-.0029297.125-.0107422l5.8442383-.9794922c.4086914-.0683594.684082-.4550781.6157227-.8632813-.0688477-.4091797-.4614258-.6923828-.8637695-.6152344l-5.8442383.9794922c-.9024469.151127-.7901765 1.4892579.1230468 1.4892579z"></path></g></svg>