<svg xmlns="http://www.w3.org/2000/svg" id="Layer_1" height="512" viewBox="0 0 73 73" width="512"><g id="_x38_8"><path d="m4.7830119 38.3131256c.7966919 9.9537964 6.7717891 19.296814 15.321106 24.4005737 5.0819702 3.9189453 14.2223511 5.2602539 17.9231567 5.4819946 9.9221802.5945435 16.2153931.5284424 28.1270142-2.4750977 2.5297318-.6378632 2.9983978-3.3321724.4995728-3.383728-5.9813232-.1233521-10.8557739.0351563-15.755127.7003174 10.8957176-5.9405365 16.6594238-17.987606 15.8341675-30.0750122-1.1474605-16.7978515-15.7636714-29.524415-32.5546871-28.3818368-9.8875198.6751466-18.6394157 5.9876947-23.8617554 14.3610239-3.9882206 5.5657348-6.0973515 12.326477-5.5334477 19.3717651zm31.4967656-32.3050547c15.1210938 0 27.9111328 11.7548838 28.9570313 27.0556641 1.4806442 21.689621-20.4430084 37.0147552-40.1269531 28.8027344-4.3818359-1.8291016-8.7460938-5.140625-11.6757822-8.8583984-14.964272-18.9760237-1.3914519-47.0000001 22.845704-47.0000001z"></path><path d="m12.8442297 23.1945953c-.4101563-.0654297-.7939453.2099609-.8613281.6191406-.0664063.4091797.2099419.7939453.6191406.8613281.4140015.067688.8435059.1141968 1.2607422.1776733-.6360474 3.1660767.5872192 6.5820923 3.1279306 8.5879517 2.6132622 2.0616264 6.3705864 2.450325 9.3613281.9345703 2.9775391-1.5107422 4.8974609-4.7675781 4.7763672-8.1044922-.000061-.0020142-.0012207-.0037842-.0012817-.0057983 1.1312294.0194321 2.7324181.1152897 7.392334-.0509644-.0075645 4.5753937 3.6071014 8.7481689 8.6812134 8.7481689 5.7674446 0 9.6572456-5.2657585 8.569458-10.4909058.5644531-.0969238 1.1323242-.1896362 1.6903076-.2942505.40625-.0761719.6748047-.46875.5986328-.8759766s-.4707031-.6748047-.8759766-.5986328c-14.0205078 2.629883-30.1816406 2.8095705-44.3388681.4921877zm16.7851572 3.1308594c.0986328 2.7207031-1.5283203 5.4804688-3.9550781 6.7119141-2.4277344 1.2314453-5.6162109.9140625-7.7539063-.7744141-2.0940561-1.652832-3.1328135-4.5916138-2.5754404-7.201355.7402353.1029663 1.468751.2225342 2.2175913.3125-1.1553535 2.1026459 1.8921223 5.6302299 5.5785522 3.7404175 1.4816113-.75597 2.1152458-1.9609966 2.0620117-3.0783691 1.4754028.0890503 2.9534302.1591797 4.440918.2005005-.0026245.0303955-.015747.0575561-.0146484.0888061zm21.9638672 5.6972656c-2.171875 1.6416016-5.3642578 1.8945313-7.7685547.6132813-2.3102417-1.2321167-3.8325195-3.8623657-3.809021-6.479248 1.081543-.0502319 2.1594849-.114563 3.234314-.1899414.0220947.0424194.0247803.0918579.0551758.130127l.1044922.1308594c-.1505547 2.3373528 2.6492424 4.0092907 4.9130859 3.6269531h.0009766c1.9937286-.3377113 3.9925117-2.8703518 2.4193726-4.6300659 1.1939697-.1531982 2.380188-.3186035 3.5521851-.5042725.5770873 2.6585692-.5328371 5.6600341-2.7020265 7.302307z"></path><path d="m24.0268478 47.010025c-.3125.2714844-.3457031.7460938-.0732422 1.0576172.2724609.3134766.7470703.3457031 1.0576172.0732422 6.5750179-5.7248726 16.5545883-5.8910675 23.3193359.0439453.1425781.125.3193359.1865234.4951172.1865234.6911659 0 1.0112991-.8605995.4951172-1.3134766-7.1802406-6.3012771-18.0043773-6.3980979-25.2939453-.0478515z"></path><path d="m31.4467697 22.1018219c.1416016.2333984.3886719.3613281.6425781.3613281.5808868 0 .9440994-.6393204.640625-1.1386719l-1.4160156-2.3330078c-.2158203-.3554688-.6767578-.46875-1.0302734-.2529297-.3544922.2148438-.4677734.6767578-.2529297 1.0302734z"></path><path d="m36.4711838 21.3752594c.3671875 0 .6875-.2695313.7412109-.6435547l.3447266-2.4160156c.0585938-.4101563-.2265625-.7900391-.6367188-.8476563-.4130859-.0693359-.7900391.2265625-.8476563.6367188l-.3447266 2.4140625c-.0646209.4523544.2856103.8564453.7431642.8564453z"></path><path d="m39.3598557 22.6516266 2.5839844-2.5839844c.2929688-.2929688.2929688-.7675781 0-1.0605469s-.7675781-.2929688-1.0605469 0l-2.5839844 2.5839844c-.2929688.2929688-.2929688.7675781 0 1.0605469.2930717.2930736.7675667.2929783 1.0605469 0z"></path></g></svg>