<svg xmlns="http://www.w3.org/2000/svg" id="Layer_1" height="512" viewBox="0 0 73 73" width="512"><g id="_x32_4"><path d="m50.9767647 63.20541c18.1553841-9.8992729 22.1012077-36.8238945 5.4673462-51.3237305-14.1846695-12.3679277-36.1625042-9.2636132-46.2819834 6.9155293-14.0713368 19.5835285-.8211212 47.8804798 27.8614511 49.5994892 9.9851685.5982666 16.3182983.5317993 28.3054161-2.4908447 2.5457382-.641983 3.0174026-3.3533211.5027466-3.4052162-6.0192833-.1241456-10.9245567.0354614-15.8549766.7047729zm4.4819946-50.1933575c5.8857422 5.1318359 9.4199181 12.2446289 9.9511681 20.0297832 1.4940414 21.8664093-20.6151581 37.2444115-40.3876915 28.9897461-18.3559118-7.6594733-23.9572333-31.1172752-10.8037119-46.2026347 10.6301012-12.1933503 29.0875749-13.4109845 41.2402353-2.8168946z"></path><path d="m15.187274 24.9837322c-.6055918.7856331.5818415 1.7021694 1.187501.9160156 4.5552692-5.9086761 11.1583385-6.8397198 16.3007813-1.3901367.6806755.7217522 1.773056-.307066 1.0917969-1.0292969-.6270752-.6645508-1.2830811-1.2437134-1.9595337-1.7494507.1402531-.2357845.0846043-.3047905.4028931-2.2476196.152462-.9839821-1.3333645-1.2043839-1.4824219-.2285156l-.246521 1.6021729c-1.6096802-.9194336-3.3224487-1.3985596-5.0835571-1.4359741l.5634766-2.9572144c.1870384-.9749403-1.287981-1.2560596-1.4726563-.28125-.1761017.951128-.6023331 3.0582657-.6081543 3.3210449-1.8929443.2419434-3.7407227.9993286-5.4382935 2.2503662l-.2230835-1.1612549c-.1899872-.9757328-1.6595726-.6889477-1.4726563.2841797.3313198 1.6236954.2817764 1.7041607.4284668 1.9329834-.6971436.6429444-1.3643199 1.3647461-1.9880381 2.1739502z"></path><path d="m40.4362984 24.1844158c5.0194664-5.5599689 11.6755562-5.9303055 16.3603516-.121582.6226616.7719135 1.7908096-.1687069 1.1679688-.9414063-.2474976-.3068237-.505188-.5895996-.7645874-.8678589.128952-.1728401.0645294-.1155338.8720093-2.4949341.3123322-.9381599-1.106041-1.419733-1.4238281-.4746094l-.6124268 1.8369751c-1.9570808-1.6769867-4.2672958-2.6927567-6.875061-2.7603149.1952515-.0952759.3522339-.2661133.4064331-.4941406.3046875-1.2963867.2431641-2.6494141-.1787109-3.9125977-.312439-.939642-1.7381859-.4672909-1.421875.4746094.328125.9848633.3779297 2.0834961.1396484 3.0942383-.0860596.3659668.1199951.7212524.4595337.8564453-2.1287842.0739746-4.2510986.8180542-6.2260132 2.161377l-.2139893-1.5783691c-.1349869-.994627-1.6186714-.7761288-1.4863281.2001953.3953247 2.7758427.2645149 2.1468182.3515015 2.4127197-.5723877.4881592-1.1334229 1.012207-1.6679077 1.6043701-.6643793.7357273.446636 1.741703 1.1132811 1.0048828z"></path><path d="m21.9704781 50.1136131c-.3616028.5833015.183485 1.3077774.8496094 1.1162109 14.3059273-4.233902 23.2055969 2.0200195 24.1416016 2.0200195.4351006 0 .7868805-.3736916.7470703-.8164063-1.0489769-11.8081894-8.1692543-21.1141109-17.25-13.34375-3.194336 2.7333986-6.0566407 7.1235353-8.4882813 11.0239259zm19.6079711-10.1011352c-2.8825874 1.607357-6.4124107 1.3733711-9.0634155-.6204834 2.098999-1.4705811 6.4576798-2.2306099 9.0634155.6204834zm-10.2705078.3323974c3.1589127 2.5816879 7.5582962 2.9934578 11.2034302.8401489 1.7203979 2.4563599 3.0215454 6.0641479 3.5548096 10.0506592-6.5998497-3.0183601-14.0579224-3.8193016-21.8037109-1.9462891 2.1030883-3.2968749 4.4851074-6.7094726 7.0454711-8.944519z"></path><path d="m23.4353218 33.0037498c.1907997-1.5511341-.3442917-2.3581161-.5322266-3.9516582-.1181641-1.0063477-.2207031-1.8754883-.9833984-2.0649414-1.0554562-.2603073-1.6316299 1.0716038-3.3046875 4.2128906-2.9333372 5.4990444 4.2097397 6.7330609 4.8203125 1.803709z"></path><path d="m18.1462593 40.1956444c-1.1284657-.2847786-1.8341179 1.4508629-3.3046885 4.2133789-3.4394598 6.4422379 6.9008322 6.9558029 4.461915-1.081543-.3031635-.9937019-.0432586-2.8551254-1.1572265-3.1318359z"></path><path d="m53.2058296 30.8216228c-.6205482-.8784599-.9227066-2.6826935-2.0859375-2.6083984-.7421875.0576172-.9814453.878418-1.0712891 1.1870117-.241066.8272934-.5916176 2.998415-.7373047 3.8525372-1.2295264 7.1912231 8.7380906 4.4313965 3.8945313-2.4311505z"></path><path d="m56.602314 44.4075584c-.6322708-.8950577-.914875-2.6847992-2.0859375-2.6088867-.7421875.0576172-.9814453.878418-1.0712891 1.1870117-.1943359.6640625-.4492188 2.1435547-.6738281 3.4785156.0120087.1479225-.809269 3.0380745 1.0214844 4.2319336 1.8212814 1.1894073 4.6889763-.5222282 4.0576172-3.6645508-.2128907-1.0605468-.7792969-1.9594726-1.2480469-2.6240234z"></path></g></svg>