<svg xmlns="http://www.w3.org/2000/svg" id="Layer_1" height="512" viewBox="0 0 53 53" width="512"><g><path d="m5.5 32c.2.1.2.2.2.4v4.4c0 2.3 2 4.5 4.6 4.5h1.1c.4 0 .6 0 .8.1.5.2.8.5.8.9v.3c0 .2.1 7.7.1 7.3 0 .5.4.9.9.9l15.7-.2c.4 0 .7-.3.7-.7v-3.7c0-1.2 0-2.3.3-3.5.5-2.3 1.6-4.4 3.1-6.2.4-.5.8-.9 1.2-1.3l1.4-1.2c.9-.8 1.8-1.8 2.5-2.8 1.3-1.8 2.3-3.9 2.8-6.1.2 0 .4 0 .5-.2.1-.1 3.9-5.5 3.8-5.4 1.1-.1 2.3-.5 3.2-1.2 1-.8 1.7-2 2-3.2.5-2.3-.4-4.8-2.6-6.1.1-.8 0-1.5-.3-2.2-.8-1.9-2.7-3.1-4.7-3-.7 0-1.3.2-1.9.5-.6-.6-1.5-1.1-2.3-1.3-1-.2-2-.1-2.9.3-1.2-.9-2.9-1.3-4.3-.8-.9.3-1.6.8-2.2 1.4-5.1-1.8-11.3-1-15.8 2.3-4.1 2.9-7.6 8.6-7.7 15.1 0 .2 0 .4-.1.5s-3.1 2.7-4.1 3.7c-.4.5-.6 1.1-.7 1.7 0 .6.2 1.2.7 1.7 0 0 2.4 2.3 3.2 3.1zm-1.8-5.2c4.2-3.8 4-3.6 4.2-3.9.4-.5.5-1.1.5-1.7 0-5.9 3.1-11.2 6.7-14 2.2-1.8 5-3 7.9-3.5 2.3-.4 4.7-.3 7 .3-.3.4-.5.8-.7 1.2-1.3-.2-2.7.2-3.7 1-.6.5-1.1 1.2-1.4 2-.2.5-.3 1-.3 1.6-.6.2-1.2.5-1.7.9-.7.6-1.2 1.5-1.3 2.4s.1 1.9.5 2.7c.4.6 1 1.1 1.6 1.5-.1 1.5.4 2.9 1.3 4 1 1.3 2.6 2 4.1 2.1 1.6.1 3.1-.5 4.2-1.6s1.6-2.6 1.6-4c-.1 1.5-.8 2.8-1.8 3.7-1.1.9-2.5 1.3-3.8 1.2-1.3-.2-2.6-.9-3.3-2-.8-1.1-1.1-2.4-.8-3.7.1-.3-.1-.6-.4-.7-.6-.2-1-.6-1.3-1.1s-.4-1.1-.3-1.7c.2-1.2 1.2-2 2.4-2 .5 0 .9-.5.8-1-.1-.4 0-1 .2-1.5s.5-.9.9-1.2c.8-.6 1.9-.8 2.9-.4.6.2 1.1-.1 1.3-.7v-.1c.1-.5.3-1 .7-1.4s.8-.7 1.3-.8c1-.3 2.2 0 2.9.8.3.3.8.4 1.2.2.6-.4 1.4-.5 2.1-.3.7.1 1.3.6 1.7 1.2.3.5 1 .6 1.4.2.9-.8 2.3-.8 3.3-.2.4.2.8.7 1 1.2s.3 1.2.2 1.8c-.1.4.1.9.5 1.1.8.4 1.5 1 2 1.8.4.8.6 1.8.4 2.7s-.7 1.7-1.4 2.4c-.7.6-1.6 1-2.6 1-.2 0-.4.1-.5.3l-3.3 5.1c-.3-.4-.5-.9-.8-1.4-.1-.1-1.3-2.3-1.2-2.2-.1-.1-.2-.2-.3-.1-1 .3-2.1.2-3.1-.2s-1.8-1.1-2.4-2.1c.4 1 1.2 1.9 2.2 2.4.9.5 2 .6 3.1.5l.9 2c.3.8.7 1.5 1 2.3 0 .1.1.2.2.3 0 0 .1 0 .1.1-.7 2.1-1.7 4.1-3.1 5.8-.8.9-1.6 1.8-2.6 2.5l-1.5 1.1c-.5.4-1 .8-1.4 1.3-1.8 1.8-3 4.1-3.6 6.6-.3 1.2-.4 2.6-.4 3.8v2.9l-14.1-.3c0-.9 0-4.9 0-6.4s-.9-2.6-2.2-3c-.5-.2-1.1-.2-1.4-.2h-1.1c-1.5 0-2.6-1.3-2.6-2.6 0-4.5 0-4.3 0-4.6 0-.6-.4-1.2-.8-1.6-5.5-5.3.1.1-3.2-3.1-.1-.1-.1-.2-.1-.3 0-.2.1-.3.2-.4z"></path></g></svg>