<svg xmlns="http://www.w3.org/2000/svg" id="Layer_1" height="512" viewBox="0 0 100 100" width="512"><g><path d="m72.28 63.31c-10.67-.74-20.46 4.8-27.8 12.58-1.32 1.4.79 3.53 2.12 2.12 6.83-7.25 15.74-12.39 25.67-11.7 1.94.13 1.93-2.87.01-3z"></path><path d="m39.94 34.85c-2.67 2.25-5.41 4.43-7.9 6.66-.59.52-.59 1.58 0 2.12.61.56 1.51.58 2.12 0 1.54-1.36 6.79-5.78 7.56-6.42.6-.5 1.03-1.43.34-2.27-.57-.71-1.48-.63-2.12-.09z"></path><path d="m81.16 18.71c-6.19-6.34-14.35-9.87-22.73-10.83-5.79-.66-13.52.08-17.74 1.49-.27-.21-1.17-.35-2.71-.03-7.28 1.51-15.44 5.28-20.51 12.8-5.51 8.18-7.81 18.44-7.98 28.31-.16 9.5 1.81 19.58 7.77 27.07 5.85 7.36 14.62 11.91 23.51 13.48 8.69 1.53 17.87.35 25.86-3.48 7.77-3.73 14.11-9.88 18.46-17.59 8.62-15.32 8.95-38.02-3.93-51.22zm3.79 43.84c-2.93 7.54-7.81 14.17-14.25 18.71-6.67 4.7-14.72 7.03-22.76 7.01-8.2-.02-16.55-2.67-23.17-7.89-7.03-5.55-10.74-13.76-11.74-22.79-.5-4.48-.41-9 .07-13.47.51-4.68 1.98-8.85 3.6-13.25 1.85-5.03 4.89-9.34 8.81-12.55.49.55 1.28.78 2.01.19 6.96-5.54 16.41-7.64 24.92-7.52 7.76.1 14.85 2.03 21.63 6.25 14.56 9.06 16.74 30.19 10.88 45.31z"></path><path d="m60.11 37.03c.77.64 6.02 5.06 7.56 6.42.61.58 1.51.56 2.12 0 .59-.54.59-1.6 0-2.12-2.49-2.23-5.23-4.41-7.9-6.66-.64-.54-1.55-.62-2.13.09-.68.84-.25 1.77.35 2.27z"></path></g></svg>