<svg xmlns="http://www.w3.org/2000/svg" id="Layer_1" height="512" viewBox="0 0 100 100" width="512"><g><path d="m40.57 36.21c.81.39 1.55.71 2.27-.3.67-.93-.22-1.68-1.66-2.43-3.18-1.66-8.93-1.8-11.97.09-.69.43-1.28 1-1.05 1.85.2.71 1.09 1.35 1.85 1.05 2.86-1.53 7.6-1.67 10.56-.26z"></path><path d="m49.9 60.04c-6.33 0-13.07 1.57-17.46 6.45-1.29 1.43.8 3.59 2.09 2.15 3.87-4.31 9.74-5.6 15.32-5.6 5.46 0 11.84.85 15.51 5.34 1.22 1.5 3.37-.6 2.15-2.09-4.14-5.09-11.4-6.25-17.61-6.25z"></path><path d="m67.72 40.73c-.71.2-2.15 3.14-2.5 6.1-.18 1.58.32 3.23 1.69 4.15 1.36.91 3.27.5 4.29-.73 1.09-1.32 1.3-3.06.83-4.64-.75-2.52-3.64-5.07-4.31-4.88zm1.2 8.22c-1.8.21-1.73-3.64-.46-4.8 1.66 1.16 2.08 4.61.46 4.8z"></path><path d="m88.05 40.62c-4.15-16.78-18.36-29.48-35.51-31.67-1.04-.13-2.08-.22-3.13-.27-3.23-1.57-7.12-.61-10.36.71-3.6 1.46-7.02 3.42-10.16 5.71-6.32 4.62-11.52 10.81-14.87 17.89-6.74 14.22-4.23 31.01 5.77 43.07 5.04 6.08 11.86 11.29 19.65 12.88 12.54 2.55 22.39.67 30.3-4.17 7.75-4.74 12.15-10.37 15.21-16.08 4.12-7.71 5.23-19.43 3.1-28.07zm-3.29 18.07c-2.71 10.21-8.47 16.5-13.47 20.75-3.82 3.25-11.58 7.51-23.93 7.07-7.75-.28-15.42-3.42-21.09-8.45-10.34-9.17-15.31-24.04-11.57-37.47 1.91-6.84 5.7-13.12 10.7-18.15 2.5-2.51 5.28-4.77 8.3-6.63 3.03-1.88 8.72-4.75 10.68-4.56.27.41.69.7 1.18.7 1.01-.01 3.57.03 5.21.18 14.03 1.3 26.52 10.18 32.13 23.4 3.05 7.21 3.88 15.52 1.86 23.16z"></path><path d="m55.6 36.21c2.96-1.42 7.7-1.28 10.56.26.76.31 1.65-.34 1.85-1.05.23-.85-.36-1.42-1.05-1.85-3.05-1.89-8.79-1.75-11.97-.09-1.44.75-2.32 1.49-1.66 2.43.72 1.01 1.46.69 2.27.3z"></path></g></svg>