<svg xmlns="http://www.w3.org/2000/svg" height="512" viewBox="0 0 64 64" width="512"><g fill="rgb(0,0,0)"><path d="m54.00446 4.13226c-3.28779-1.78308-7.05896-1.88556-10.70612-1.67326-1.39551.08124-1.41559 2.2381 0 2.1875 13.46128-1.4467 17.333 9.86414 10.37936 19.928-6.77346 8.39529-21.42062 2.90621-22.6166-7.29252-.682-5.816 3.24694-10.83569 8.74334-12.41247a.40813.40813 0 0 0 -.108-.798c-5.48059-.0476-9.61242 4.42823-10.60174 9.55426-6.066-.03183-12.13806.43842-18.20118.32239-5.05426-.09405-5.49163 5.67511-5.57952 9.51856-.05274 8.91415-4.087 22.12017 7.15059 25.781 5.657 1.92768 11.71686.42758 17.5211 1.2084 1.22389 5.19633 6.49039 11.08652 12.08337 10.65539 2.40273.41932 1.1938-2.15276.37342-3.1898-1.14523-2.53594-.76488-5.43482-1.609-8.04494 3.6586-.17838 8.38981 1.57422 10.96349-1.89733 3.15292-6.08109 1.52059-13.65011 2.4806-20.30219 6.26226-5.7268 8.02843-18.86038-.27311-23.54499zm-2.31885 40.27069c-.89918 8.35166-14.291.8407-12.56964 5.16394-.10131 3.1676-.24774 6.63079 1.18713 9.56055-4.65068-1.465-7.679-5.67119-8.95282-10.179-1.33506-2.45391-11.062-.47573-14.15529-1.33748-11.8355-1.12144-10.52342-9.63677-9.89654-18.81579.09616-17.94736.32931-12.45911 21.59974-13.52271-1.01039 11.9054 13.97352 20.0702 23.72541 13.66345-.41247 5.13909-.20151 10.37347-.93799 15.46704z"></path><path d="m39.363 10.88538a1.34456 1.34456 0 0 0 0-2.6875 1.34456 1.34456 0 0 0 0 2.6875z"></path><path d="m49.02155 11.14124c1.72245.50296 2.59916-2.14124.82545-2.64381-1.62846-.50429-2.498 2.17708-.82545 2.64381z"></path><path d="m47.036 20.18091c-3.96641 2.48929-8.33944-1.12493-9.53066-4.9837-.24162-.64374-1.33854-.61823-1.28923.17456.08365 5.78422 7.22123 10.19257 12.17628 6.75353 1.41808-1.00329 2.93578-2.783 2.66088-4.623-.13818-.92493-1.36963-.84161-1.79919-.23517-.59085 1.06719-1.05744 2.29226-2.21808 2.91378z"></path><path d="m19.97009 24.15765c1.358-.13851 8.51547 1.27555 5.51748-1.68477-1.06826-.29406-15.11779-1.18349-10.99961 1.4948 1.8304.09665 3.65022.14066 5.48213.18997z"></path><path d="m29.91327 28.0849c-1.26451.30042-19.2816-1.17623-14.76087 1.59633 4.91532.29922 9.83873.306 14.76087.35178.63843-.01861 1.29114.04536 1.73132-.48815.72292-1.0804-.88092-1.56886-1.73132-1.45996z"></path><path d="m24.71912 34.9093c-.805-.986-12.46816-1.25021-8.81817 1.07547 1.32585-.31869 10.84299 1.68132 8.81817-1.07547z"></path></g></svg>