<svg xmlns="http://www.w3.org/2000/svg" id="Layer_1" height="512" viewBox="0 0 100 100" width="512"><g><path d="m90.15 37.76c-2.42-8.44-7.46-15.9-14.14-21.1-6.47-5.04-14.26-7.18-22.15-7.44-.62-.9-1.78-1.44-2.87-1.54-1.89-.16-9.19-.01-15.95 3.69-7.25 3.97-12.85 8.66-17.62 15.69-5.17 7.62-8.71 17.17-8.6 26.66.11 10.28 5.45 20.96 12.69 27.29 7.35 6.43 15.94 8.75 25.48 9.8 8.8.97 17.97-1.08 25.58-5.92 14.77-9.39 22.66-29.45 17.58-47.13zm-13.24 39.36c-5.8 5.82-13.5 9.36-21.4 10.24-8.32.92-19.04-1.15-26.31-5.53-7.05-4.25-11.5-8.53-15.13-18.17-3.27-8.69-1.91-18.66 1.69-26.83 5.43-12.34 15.57-21.61 27.97-24.37.32.23.73.34 1.2.29 8.87-.94 16.11-.67 24.28 3.56 6.65 3.45 12.05 9.25 15.46 16.22 7.24 14.81 3.51 33.27-7.76 44.59z"></path><g><path d="m32.36 37.03c1.8.9 7.57 3.96 9.91 5.14 1.24.62 2.04.62 2.53-.26.53-.95-.12-1.89-1.14-2.4-2-.99-7.98-4.17-9.78-5.07-.72-.36-1.62-.19-2.05.54-.4.67-.2 1.69.53 2.05z"></path><path d="m70.15 63.59c-13.15-2.6-26.7-2.76-39.91-.54-1.9.32-1.35 3.27.56 2.95 12.96-2.18 26.21-1.97 39.11.58 1.88.37 2.11-2.62.24-2.99z"></path></g><path d="m69.25 37.03c-1.8.9-7.57 3.96-9.91 5.14-1.24.62-2.04.62-2.53-.26-.53-.95.12-1.89 1.14-2.4 2-.99 7.98-4.17 9.78-5.07.72-.36 1.62-.19 2.05.54.4.67.2 1.69-.53 2.05z"></path></g></svg>