<svg xmlns="http://www.w3.org/2000/svg" id="Layer_1" height="512" viewBox="0 0 100 100" width="512"><g><path d="m30.19 39.81c1.49-2.49 3.48-4.47 6.59-4.18 2.88.27 5.23 2.34 6.86 4.59.47.65 1.3.98 2.05.54.65-.38 1.02-1.39.54-2.05-2.3-3.17-5.42-5.74-9.45-6.08-4.16-.34-7.18 2.3-9.18 5.67-.99 1.66 1.6 3.17 2.59 1.51z"></path><path d="m70.81 55.76c-.12 1.4-.54 2.74-1.17 3.97-.87-2.24-1.79-4.19-3.43-4.87-1.83-.76-4.07.2-4.83 1.97-.64 1.49-.64 2.72-.49 4.3.19 2.1.99 4.66 1.23 5.29-3.04 1.89-7.96 2.97-11.3 2.95-8.22-.05-17.58-4.8-21.67-14.28-.76-1.77-3.22-.3-2.59 1.51 3.01 8.6 11.83 14.62 19.32 15.59 7.77 1.01 16.48-.87 22.65-6.29 2.98-2.62 4.94-6.19 5.28-10.15.16-1.91-2.84-1.9-3 .01zm-5.82 9.12c-.95-1.5-1.61-6.83-.58-7.38 1.4-.74 2.82 3.27 3.08 5.23-.75.81-1.59 1.54-2.5 2.15z"></path><path d="m90.15 37.76c-2.42-8.44-7.46-15.9-14.14-21.1-6.47-5.04-14.26-7.18-22.15-7.44-.62-.9-1.78-1.44-2.87-1.54-1.89-.16-9.19-.01-15.95 3.69-7.25 3.97-12.85 8.66-17.62 15.69-5.17 7.62-8.71 17.17-8.6 26.66.11 10.28 5.45 20.96 12.69 27.29 7.35 6.43 15.94 8.75 25.48 9.8 8.8.97 17.97-1.08 25.58-5.92 14.77-9.39 22.66-29.45 17.58-47.13zm-13.24 39.36c-5.8 5.82-13.5 9.36-21.4 10.24-8.32.92-19.04-1.15-26.31-5.53-7.05-4.25-11.5-8.53-15.13-18.17-3.27-8.69-1.91-18.66 1.69-26.83 5.43-12.34 15.57-21.61 27.97-24.37.32.23.73.34 1.2.29 8.87-.94 16.11-.67 24.28 3.56 6.65 3.45 12.05 9.25 15.46 16.22 7.24 14.81 3.51 33.27-7.76 44.59z"></path><path d="m65.05 32.63c-4.04.33-7.15 2.91-9.45 6.08-.48.66-.11 1.67.54 2.05.75.44 1.58.12 2.05-.54 1.63-2.25 3.98-4.32 6.86-4.59 3.11-.29 5.11 1.69 6.59 4.18.99 1.66 3.58.15 2.59-1.51-2.01-3.37-5.03-6.01-9.18-5.67z"></path></g></svg>