<svg xmlns="http://www.w3.org/2000/svg" id="Layer_1" height="512" viewBox="0 0 73 73" width="512"><g id="_x38_1"><path d="m8.2610407 27.7397594 2.9991455.2073975c-5.6583405 13.6186543.7797699 30.1101665 13.5305166 36.1771851.0101929-.0101929.0101929 0 .0203857 0 .0029907.0014648.0061646.0026245.0091553.0040894-4.4049072-.3613281-8.7650757-.2723999-14.0987539.1199341-2.2389145.1648254-1.6831493 2.5508194.6063843 3.0010986 10.7896719 2.1221313 16.4182739 1.8839111 25.2595825.883728 3.2841797-.371521 11.3358765-1.9921875 15.7060547-5.7029419.0040283-.0027466.0083618-.0050049.0123901-.0077515.0305786-.0203857.0610962-.0407715.0916748-.0713501 12.0024796-8.0569229 16.8597641-24.8378143 7.7788696-37.9958496l2.7471924-.6087036c.6049232-.1332531.7966042-.907053.3193359-1.3076172l-5.8730469-4.9130859.7167969-7.6279297c.0584717-.6187067-.6209526-1.0352812-1.1445313-.7060547l-6.4833984 4.0605469-7.0268555-3.0429688c-.5688095-.2454529-1.1746941.2665243-1.0258789.8681641l.1455078.5843506c-5.538269-1.2156858-11.0176048-.7239742-15.9777832 1.2480469-.0118694-.4281063.2987747-1.1214666-.279541-1.4798584-.2431641-.1484375-.5498047-.1474609-.7919922.0029297l-6.4916992 4.0644531-7.0268545-3.0449219c-.5759983-.2467031-1.1759148.2720871-1.0258789.8701172l1.8588867 7.4306641-5.0664063 5.7421875c-.4099334.4639548-.1095694 1.20158.5107414 1.2441405zm41.9638662-12.9541015c.2260742.0986328.4863281.0800781.6958008-.0527344l5.5307617-3.4638672-.6118164 6.5087891c-.0234375.2460938.0761719.4873047.2651367.6455078l5.0068359 4.1884766c-.7869377.1755047-6.6908875 1.4922123-6.3798828 1.4228516-.2416992.0537109-.440918.2226563-.5332031.4521484l-2.4384766 6.0595703-3.3232422-5.6210938c-.1254883-.2128906-.3476563-.3496094-.5942383-.3662109l-6.5151367-.4462891 4.315918-4.9033203c.1625977-.1845703.2241211-.4375.1645508-.6767578l-1.5820313-6.3447266zm-7.2661743-1.4882202 1.2988892 5.2167358-5.0595703 5.7480469c-.4097176.4649124-.1076584 1.2006683.5117188 1.2431641l7.6367188.5234375 3.8959961 6.5898457c.311779.5271072 1.1074638.4798317 1.3413086-.1015625l2.8588867-7.1035175 3.1270752-.7051392c5.7051468 9.1118755 5.0229645 20.4133854-.7823486 28.6397114-10.7018091 15.1806334-33.4555075 14.4589461-43.1635734-1.1992189-4.65977-7.4292412-5.1090803-16.4977303-1.777771-24.092104l3.0546265.2112427 3.8969717 6.5937519c.1352539.2294922.3818359.3681641.6455078.3681641.3090057 0 .5820732-.1882629.6958008-.4697266l2.862793-7.102541 7.4746094-1.6689453c.6044197-.1357288.7949104-.9081383.3178711-1.3076172l-5.8706055-4.9169922.4893799-5.1595459c5.2820281-2.2881183 11.0047568-2.6896876 16.5457152-1.3071898zm-28.7562857 8.1522827c.1630859-.1845703.2250977-.4384766.1650391-.6777344l-1.5854492-6.3388672 5.9941397 2.5976563c.2275391.0976563.487793.0791016.6962891-.0527344l5.5375977-3.4667969-.6166992 6.5029297c-.0234375.2460938.0756836.4873047.2651367.6464844l5.0078125 4.1953125-6.3764648 1.4228516c-.2407227.0546875-.4399414.2226563-.5322266.4521484l-2.4418945 6.0595722-3.3242188-5.6250019c-.1254883-.2119141-.3476563-.3496094-.59375-.3662109l-6.5170889-.4511719z"></path><path d="m21.4807663 40.2866364c-.2558594 4.4306641.4926758 9.1269531 2.0014648 12.5625 1.715332 3.9072266 4.0668945 6.390625 7.6240234 8.0517578 4.0470848 1.8885651 8.6405487 1.6529465 12.0180664-.3359375 3.496582-2.0595703 5.3334961-5.5791016 6.2587891-8.1689453 1.1938477-3.3388672 1.8496094-9.1982422 2.1645508-12.0146484.0840988-.745369-.8507729-1.0853081-1.3496094-.6484375-3.918457 3.4082031-9.4970703 5.5654297-14.1630859 5.4619141-4.8857422-.0927734-9.7304688-2.0654297-13.2919922-5.4121094-.4658832-.4359666-1.2261409-.1282922-1.262207.5039062zm20.8818359 18.9853515c-3.0541992 1.7998047-7.1245117 1.9023438-10.621582.2695313-3.4482365-1.6097679-6.0686474-4.2870979-7.6279297-9.3205566 7.5205326 5.4154396 17.1544495 5.1827011 24.3076172.1685791-1.1886978 4.5142898-3.6189156 7.446125-6.0581055 8.8824462zm-6.3564453-12.5771484c4.5283203.0800781 9.7973633-1.7529297 13.8554688-4.7685547-.2145996 1.8067627-.5200806 4.1038818-.9319458 6.2183838-.4124527.2346573-5.2563095 4.7332535-12.9371948 4.5706787-4.5462646-.0895386-9.081543-1.8725586-12.4842529-4.8874512-.3791504-1.8778687-.5838623-3.890686-.5772705-5.895752 3.6787108 2.9541016 8.3593749 4.6728516 13.0751952 4.7626954z"></path><path d="m59.1921921 4.162611c-.394043-.1279297-.8178711.0810547-.9482422.4746094l-.8916016 2.6757813c-.1617012.4851007.1994858.9873047.7114258.9873047.3139648 0 .6064453-.1982422.7114258-.5126953l.8916016-2.6757813c.1308593-.3935547-.081543-.8183594-.4746094-.9492188z"></path><path d="m62.8088913 6.1235485-3.0385742 2.1914063c-.5877151.4237013-.2874489 1.3583984.4394531 1.3583984.4279861 0 .358326-.1445408 3.4770508-2.3330078.3359375-.2421875.4116211-.7109375.1694336-1.046875-.2441406-.3359375-.7114258-.4121094-1.0473633-.1699219z"></path><path d="m61.3845749 12.2358532 3.4399414-.6367188c.4072266-.0751953.6762695-.4667969.6005859-.8740234-.0751953-.4072266-.4697266-.6767578-.8740234-.6005859l-3.4389648.6367188c-.9710083.1792993-.7076684 1.6622943.2724609 1.4746093z"></path></g></svg>