<svg xmlns="http://www.w3.org/2000/svg" id="Layer_1" height="512" viewBox="0 0 100 100" width="512"><g><path d="m62.23 51.1c-6.59 3.91-18.45 2.02-22.81-.67-1.96-1.21-2.73.41-2.85 1.39-.55 4.34-.09 8.8 1.19 12.98 1.26 4.08 3.27 8.27 6.8 10.86 3.42 2.5 9.62 2.92 13.15.53 3.59-2.44 4.84-5.9 6.21-10.07 1.49-4.52 1.67-8.5 1.8-13.27.05-1.79-1.24-3.08-3.49-1.75zm-.49 11.38c-.73 3.9-1.55 7.04-4.27 9.94-3.44 3.67-7.15 2.96-10.76 1.09-3.26-1.69-4.84-5.71-5.93-9.08-1.12-3.47-1.56-7.08-1.38-10.7 6.21 3.67 18.14 3.74 23.17.51-.13 2.77-.32 5.54-.83 8.24z"></path><path d="m44.61 32.61c1.38 1.35 3.5-.77 2.12-2.12-2.43-2.38-5.85-3.76-9.27-3.54-3.33.22-6.52 1.8-8.65 4.39-.51.63-.61 1.51 0 2.12.53.53 1.6.63 2.12 0 1.62-1.97 3.95-3.34 6.52-3.51 2.67-.17 5.26.8 7.16 2.66z"></path><path d="m90.15 37.76c-2.42-8.44-7.46-15.9-14.14-21.1-6.47-5.04-14.26-7.18-22.15-7.44-.62-.9-1.78-1.44-2.87-1.54-1.89-.16-9.19-.01-15.95 3.69-7.25 3.97-12.85 8.66-17.62 15.69-5.17 7.62-8.71 17.17-8.6 26.66.11 10.28 5.45 20.96 12.69 27.29 7.35 6.43 15.94 8.75 25.48 9.8 8.8.97 17.97-1.08 25.58-5.92 14.77-9.39 22.66-29.45 17.58-47.13zm-13.24 39.36c-5.8 5.82-13.5 9.36-21.4 10.24-8.32.92-19.04-1.15-26.31-5.53-7.05-4.25-11.5-8.53-15.13-18.17-3.27-8.69-1.91-18.66 1.69-26.83 5.43-12.34 15.57-21.61 27.97-24.37.32.23.73.34 1.2.29 8.87-.94 16.11-.67 24.28 3.56 6.65 3.45 12.05 9.25 15.46 16.22 7.24 14.81 3.51 33.27-7.76 44.59z"></path><path d="m67.12 26.95c-3.42-.23-6.84 1.16-9.27 3.54-1.38 1.35.74 3.47 2.12 2.12 1.9-1.86 4.5-2.83 7.15-2.66 2.57.17 4.91 1.55 6.52 3.51.52.63 1.59.53 2.12 0 .61-.61.51-1.5 0-2.12-2.13-2.58-5.31-4.17-8.64-4.39z"></path></g></svg>