<svg xmlns="http://www.w3.org/2000/svg" id="Layer_1" height="512" viewBox="0 0 66 66" width="512"><g><path d="m61.2 22.68c.83-1.08 1.39-2.59 1.49-4.27.04-.89.03-1.99-.32-3.11-.33-1.12-.95-2.23-1.81-3.18-.87-.93-1.99-1.68-3.21-2.12s-2.53-.53-3.71-.39c-.54.07-1.06.18-1.54.33.03-.09.06-.18.1-.29.14-.61.25-1.61-.2-2.96-.43-1.32-1.56-3.04-3.72-4.16-1.16-.62-2.81-1.11-4.59-1.08-1.78-.01-3.6.53-5.05 1.36-1.46.81-2.54 1.93-3.11 2.83-.2.32-.35.6-.45.84-.33-.46-.85-.98-1.66-1.4-1.19-.59-2.9-.91-5-.63-1.16.15-2.61.52-4.04 1.25-.71.35-1.43.84-2.04 1.42-.6.58-1.1 1.24-1.48 1.92-.77 1.37-.98 2.82-.88 3.81.04.52.15.91.26 1.16-.89.27-1.84.75-2.67 1.57-.72.76-1.31 1.72-1.59 2.82-.29 1.09-.24 2.28.09 3.34.64 2.16 2.33 3.64 3.77 4.31 2.38 1.14 4.48 1.63 6.09 1.58.44-.01.83-.05 1.18-.11-.5.76-.94 1.56-1.3 2.4-.21.48-.38.98-.53 1.49-.26-.8-.84-1.82-2.06-2.58-.69-.44-1.72-.81-2.83-.84-1.12-.04-2.28.31-3.18.85-.91.53-1.56 1.26-1.9 1.84-.15.26-.25.47-.31.64-.18-.3-.48-.64-.98-.92-.72-.4-1.8-.63-3.13-.43-.73.1-1.64.36-2.52.86-.9.49-1.66 1.35-2.06 2.22-.42.88-.52 1.77-.47 2.39.04.43.13.73.2.86-.67.23-1.46.72-1.95 1.54-.55.77-1.01 1.9-.72 3.09.27 1.2 1.22 2.11 2.23 2.72 1.03.62 2.18.99 3.36 1.11.61.06 1.17.01 1.69-.02.53-.03 1.05-.06 1.55-.09 1-.08 1.92-.15 2.73-.21 5.89-.54 8.87-1.01 10.39-1.29.62-.12.99-.21 1.21-.29.64 1.25 1.43 2.38 2.08 3.49.93 1.54 1.57 3.11 1.54 4.77-.02 1.67-.54 3.35-1.07 5.03-.52 1.68-1.07 3.4-1.17 5.21 0 .24-.04.42-.01.7.03.27.04.54.18.81.09.28.28.5.47.73.2.18.43.37.66.47.93.45 1.81.48 2.65.49 1.68 0 3.19-.31 4.62-.34 1.48-.08 2.89-.17 4.23-.24 1.34-.08 2.6-.16 3.78-.23.59-.04 1.15-.07 1.7-.11.28-.02.53-.03.81-.06s.67-.14.89-.37c.28-.27.35-.72.36-1s.01-.56.02-.82c.01-.52.02-1.01.03-1.45.01-.45.01-.85.01-1.22.01-.37-.03-.61.1-.84.23-.33.59-.25.78-.25.2.02.33.03.33.01s-.09-.08-.32-.16c-.21-.05-.67-.2-1.01.18-.21.23-.22.68-.25 1.04-.03.37-.07.77-.1 1.22-.04.45-.07.93-.12 1.45-.02.26-.04.52-.06.8-.03.27-.07.43-.22.58-.14.12-.27.14-.5.16-.24.02-.52.01-.79.02-.54.01-1.11.02-1.7.04-1.17.03-2.43.06-3.77.09-1.33.04-2.74.07-4.21.11-1.52-.01-3.07.26-4.58.21-.75-.02-1.53-.11-2.08-.41-.26-.15-.46-.32-.53-.57-.1-.22-.08-.54-.05-.96.12-1.58.65-3.19 1.21-4.86.55-1.67 1.17-3.45 1.24-5.43.03-.98-.11-2.01-.43-2.95-.31-.95-.75-1.83-1.22-2.65-.94-1.66-2-3.13-2.56-4.79-.67-1.64-.96-3.4-.97-5.13-.06-3.49 1.51-6.79 3.82-9.12 1.23-1.24 2.66-2.19 4.17-2.9-.08 4.92-.05 11.27.06 15.16.34 12.87.79 13.13 1.34 13.11.45-.01.83-.21.74-7.61.92.07 2.48.09 4.25.04s3.32-.15 4.24-.26c.31 7.39.7 7.58 1.15 7.56.54-.01.98-.3.63-13.17-.11-4.06-.43-10.78-.79-15.77.26.07.51.14.76.22 5.5 1.78 9.51 6.02 10.05 10.26.15 1.07.13 2.17.13 3.28 0 .56 0 1.1.04 1.68.04.63.19 1.23.4 1.78.42 1.1 1.05 2 1.7 2.76.33.39.66.74.99 1.08l.31.31c.01.01.02.03.02.05s-.01.03-.02.05c-.07.08-.21.2-.35.31-.28.22-.62.43-.97.67s-.7.48-1.05.82c-.33.33-.69.76-.85 1.3-.27 1.03-.09 1.78 0 2.48.11.69.25 1.31.32 1.87.04.28.06.54.06.78 0 .21-.05.46-.09.69-.09.46-.27.87-.46 1.25-.42.75-1.01 1.3-1.6 1.71-1.19.81-2.32 1.11-3.16 1.26-.85.14-1.45.14-1.86.14-.82-.02-.92.06-.96.2-.03.12-.02.29.85.56.44.12 1.11.24 2.09.19.97-.07 2.29-.29 3.8-1.19.74-.46 1.53-1.11 2.14-2.09.29-.49.55-1.05.7-1.67.07-.31.15-.63.16-1 .01-.35-.01-.69-.04-1.01-.07-.66-.19-1.3-.28-1.94-.09-.62-.15-1.31-.01-1.71.08-.32.58-.75 1.23-1.16.32-.21.68-.43 1.07-.71.2-.15.38-.29.61-.53.28-.3.5-.66.56-1.06s-.04-.82-.28-1.16c-.06-.09-.13-.17-.2-.25l-.18-.19-.23-.23c-.3-.31-.6-.64-.88-.98-.56-.68-1.06-1.43-1.36-2.24-.15-.41-.24-.82-.27-1.25-.03-.47-.03-1.01-.03-1.55 0-1.08.04-2.27-.12-3.54-.32-2.57-1.67-5.08-3.63-7.12.8-.09 1.91-.29 3.35-.96.82-.41 1.8-1.07 2.63-2.15zm-35.96 19.77c-1.53.1-4.52.46-10.39 1-.8.07-1.72.15-2.71.23-.5.04-1.01.08-1.54.12-.54.04-1.07.09-1.56.05-1.02-.08-2.1-.39-3.02-.91-.92-.51-1.73-1.26-1.97-2.18-.28-.91.04-1.88.51-2.62.4-.78 1.08-1.25 1.69-1.5 1.26-.51 2.16-.19 2.16-.28.04-.02-.84-.5-2.25-.09.04-.39 0-1.65.76-2.89.44-.73 1.1-1.38 1.88-1.75.78-.39 1.6-.59 2.23-.68 1.16-.17 2.02.01 2.57.26.55.26.8.59.98.81.31.48.42.5.56.46.12-.03.27-.08.05-.79-.02-.05-.05-.1-.08-.16.33-.41 1.08-1.45 2.43-2.07.84-.41 1.86-.63 2.8-.55.94.07 1.79.41 2.36.77 1.06.66 1.53 1.52 1.76 2.17.23.66.25 1.15.27 1.48 0 .36.02.54.06.64-.06.56-.09 1.12-.08 1.69.03 1.96.39 3.93 1.15 5.73.13.36.29.7.45 1.05-.22-.04-.56-.02-1.07.01zm10.59-17.78c.38.16 2.49.23 5.04.16 1.61-.04 3.03-.13 3.97-.23-.02 1.72-.03 3.56-.03 5.38-.91-.07-2.5-.1-4.33-.05s-3.43.15-4.33.28c-.09-1.88-.2-3.78-.32-5.54zm9.06 12.57c-.92-.07-2.47-.09-4.21-.04-1.75.05-3.29.14-4.21.26-.07-1.99-.17-4.41-.3-6.89.91.07 2.5.1 4.33.05s3.41-.15 4.32-.27c0 2.48.03 4.9.07 6.89zm-4.04 6.39c-1.76.05-3.32.15-4.23.26-.02-1.44-.05-3.15-.11-5.17-.01-.28-.02-.57-.03-.87.92.07 2.46.09 4.21.04s3.28-.14 4.2-.26c.01.3.01.6.02.87.05 2.01.11 3.72.17 5.16-.92-.06-2.47-.08-4.23-.03zm3.99-19.46c-.94-.06-2.37-.07-3.99-.03-2.57.07-4.67.25-5.03.43-.03-.5-.07-1-.1-1.48.97-.36 1.95-.64 2.92-.81 2.18-.38 4.3-.27 6.23.12-.01.56-.02 1.16-.03 1.77zm9.65.31c-.21.06-.39.11-.55.16-1.81-1.54-4-2.8-6.49-3.6-.49-.16-1-.3-1.53-.42-.22-2.58-.44-4.33-.62-4.33s-.3 1.66-.38 4.12c-2.05-.37-4.3-.45-6.62-.04-.91.17-1.83.42-2.74.73-.22-2.7-.45-4.54-.64-4.54-.2.01-.33 2.03-.41 4.93-2 .83-3.93 2.05-5.55 3.71-.12.12-.22.26-.34.38-1.25.23-3.61.81-7.95-1.31-1.07-.5-2.33-1.54-2.89-3.09-.61-1.52-.24-3.39.8-4.65 1.03-1.27 2.61-1.85 3.72-2.03 1.14-.19 1.89-.07 1.92-.22.04-.11-.68-.51-1.98-.55-.47-.01-1.04.04-1.64.18.02-.26.05-.61.12-1.03.13-.87.52-2.04 1.29-3.09.38-.52.86-1.02 1.39-1.44.53-.4 1.1-.75 1.74-1 1.24-.54 2.53-.81 3.51-.94 1.81-.24 3.14 0 4 .33.85.35 1.28.77 1.57 1.07.53.66.76.7 1.03.61.13-.04.25-.08.31-.25.04-.17.1-.52-.15-1.08-.02-.05-.05-.1-.07-.16.19-.21.45-.49.78-.81.7-.69 1.78-1.51 3.14-2.07 1.34-.57 2.93-.89 4.39-.79 1.47.07 2.79.52 3.71 1.01 1.71.9 2.52 2.09 2.93 3.05.41.97.46 1.7.51 2.19.01.42.05.68.1.85-1.09.46-1.99 1.04-2.66 1.54-1.18.9-1.76 1.6-1.68 1.7.09.11.84-.39 2.09-1.05 1.24-.65 3.05-1.47 5.1-1.55 1.01-.03 2.05.11 3 .53.95.41 1.79 1.05 2.44 1.81.64.77 1.08 1.65 1.31 2.51.25.85.24 1.69.21 2.45-.09 1.36-.5 2.44-1.07 3.24-.58.79-1.3 1.33-1.97 1.71-1.35.73-2.46.99-3.18 1.23z"></path><path d="m60.24 54.51c-.2 0-.26 1.32-1.25 2.49-.96 1.2-2.24 1.51-2.21 1.7.01.08.37.14.92-.02.55-.15 1.26-.56 1.82-1.24s.83-1.46.87-2.02c.06-.57-.06-.91-.15-.91z"></path><path d="m60.88 56.25c-.2.01-.33.53-.66 1.05-.32.53-.72.89-.64 1.07.06.18.78.01 1.22-.71.45-.72.27-1.44.08-1.41z"></path><path d="m13.41 15.69c-.58 1.02-.74 2.11-.66 2.86.07.76.31 1.18.39 1.15.1-.03.04-.47.1-1.16.05-.68.26-1.61.77-2.52.52-.9 1.21-1.56 1.77-1.95s.97-.57.95-.67c-.02-.08-.5-.07-1.19.25-.69.33-1.55 1.03-2.13 2.04z"></path><path d="m12.67 14.36c.93-.88 1.99-1.15 1.96-1.34-.01-.09-.31-.14-.78-.05-.47.1-1.1.38-1.64.88s-.88 1.11-1.01 1.57c-.14.46-.1.77-.02.79.19.04.54-1 1.49-1.85z"></path></g></svg>