<svg xmlns="http://www.w3.org/2000/svg" id="Layer_1" height="512" viewBox="0 0 73 73" width="512"><g id="_x39_4"><path d="m23.8045616 43.6495018c0 .2153931.109436.4072266.2676392.5878906.0427246.9990845.0929565 2.0321655.1752319 3.0273438.0618286.7422485.3755493 1.4237671.8594971 1.9563599.3062744 2.4729614.805542 5.2364502 1.2894287 7.9108276 1.2602043 6.9660835.975956 6.3850479 1.3752441 7.3078575.321228 1.8167114 2.3375854 2.8208618 4.081543 3.2267456 4.7613525 1.1081543 9.7571411 1.1975708 14.5550537.2605591 1.7418098-.3401642 1.3128357-1.7027817-.3878174-1.9950562 1.0839081-.7440033 1.420929-2.6904564 1.6312256-3.9340172 1.683403-9.9523468 1.7838402-10.8985863 2.2972412-12.3947754.6042633-1.7605476 1.518425-3.094326 1.0439453-5.3977051.1408691-.171875.2399902-.3532715.2399902-.5560303 0-2.5428429-11.9003525-2.5433159-14.4208984-2.5264893-.2225952-1.7896729.1241455-3.6598511 1.0419922-5.199585 1.0409737-1.7435951 2.1328583-2.4872475 2.9783325-4.583313 4.9346161 3.0412102 10.0851593 1.3962326 12.4118042-3.4367065.1954498-.4063339-.0095024-.8897381-.4316406-1.0341797-4.3396263-1.4936924-8.1367226-1.5627785-11.3449097 1.6965942.1251831-1.9940186-.4175415-4.0131226-1.553772-5.6749878.6313057-.3214779 3.6611443-2.5838547 6.3530273-5.355957 1.3243408-1.3637695 2.5936279-2.8793344 3.0958862-4.7060556.9273682-3.3726749-1.0898552-7.3533301-5.1233521-8.1148682-.5769577-.1089988-1.2780342-.1368847-1.8658447-.159668-1.1464844-.0390625-2.3408203.2890625-3.3457031.9389648-.404705.2615104-.73452.6743932-1.1166382 1.0878906-1.9818726-1.2578125-4.5161743-1.663147-6.500061-.7138062-2.8785572.9308767-4.6168537 3.8214331-4.4838867 6.5057983.1704102 3.4580078 2.9506836 5.864747 4.5932617 6.9912119 1.1240234.7714844 2.3305664 1.4121094 3.4975586 2.03125 2.8320313 1.5034237 3.0586128 1.7678585 3.4107056 1.9813232 1.7844849 2.2902832 2.0583496 5.7197876.621521 8.244751-.9754829 1.712944-1.8277054 2.1579514-2.8231201 4.2084351-.5803223-1.8873901-1.4034424-3.250061-2.6373291-4.3788452-1.8041992-1.6499023-5.1494141-2.2456055-7.3793945-1.9750977-.4008789.0493164-.690918.4072266-.6557617.809082.4679642 5.410305 4.4264774 8.9687576 9.8648682 8.0562744-.1611328.9243164-.199585 1.8692627-.0998535 2.8031616-4.611023.0977787-11.5150147.5663456-11.5150147 2.5048222zm8.5644531-25.5219727c-6.8562641-4.7030697-3.5612621-11.0810556 1-11.0810556 3.5369911 0 3.396389 3.0654564 5.8979492.2734375.2050781-.2290039.4174805-.465332.574707-.5668945 2.4533539-1.5849247 5.4959106-.2915721 6.6186523 2.1777344.7280273 1.6025391.6010742 3.6010742-.3300781 5.2163086-.7481689 1.2967463-1.4549904 1.8715925-7.3745117 7.6469736-2.0584449-1.32757-4.4343337-2.3257123-6.3867187-3.666504zm19.1118164 9.8867188c-1.7101212 2.8301315-4.6768761 4.1400185-8.1960449 2.8590698.9302368-.1478882 1.848877-.3673096 2.7419434-.6710815.3920898-.1333008.6020508-.559082.46875-.9511719-.1337891-.3925781-.559082-.6035156-.9511719-.46875-.9202271.3126221-1.8683472.5354004-2.8294067.6661987 1.9856682-1.8956489 4.4218254-2.7458553 8.7659301-1.4342651zm-24.3349609 2.9003906c1.8383789-.0317383 4.2070313.5239258 5.4316406 1.6435547.8997192.8228149 1.5441284 1.8150635 2.0272217 3.1426392-.6207275-.4738159-1.1846313-1.0227051-1.6517334-1.6484985-.2485352-.3320313-.7172852-.3989258-1.0498047-.1523438-.3320313.2480469-.3999023.7177734-.1523438 1.0498047.5855713.7844238 1.2994995 1.4678955 2.0883789 2.0481567-3.6493034.0312386-6.0781325-2.4705849-6.6933593-6.083313zm22.1582031 14.2041626c-.0474319.3953972-.0675926.5545158-.2431641 1.9555054-.0966797.7910156-.671875 1.4267578-1.4301758 1.5810547-6.9604492 1.4169922-13.8134766 1.4677734-20.3666992.1513672-.8413086-.1689453-1.4526367-.8378906-1.5214844-1.6660156-.0558472-.6729736-.0957642-1.3667603-.130127-2.0587158 4.5435354 1.466133 19.0686876 1.45829 23.6916505.0368041zm-12.3862304 6.1381226c3.5056763 0 7.0645752-.3607178 10.6496582-1.0662231-.8500404 4.7601547-1.5455933 9.0498734-2.3615723 13.3728638-.2109375 1.114254-1.0859375 2.0029259-2.1782227 2.2119102-3.9389648.7539063-7.6196289.6679688-11.9350586-.2851563-1.121582-.2480469-1.9897461-1.2011719-2.1601563-2.3720665-.1481934-1.0228882-.3260498-2.1015015-.5155029-3.196228l1.4144287.2518921c.4114819.0723457.7977982-.20158.8696289-.6064453.0727539-.4082031-.1992188-.7978516-.6069336-.8701172-1.8015289-.2978935-1.6628895-.3395424-1.9451904-.2975464-.2085171-1.1661148-.3330879-1.8407478-.5770874-3.2064819 2.6199455.7424202 5.3977547.9843674 8.0803833.5177002.4077148-.0722656.6806641-.4609375.609375-.8681641-.0708008-.4082031-.4555664-.6738281-.8681641-.6103516-2.5391846.4458618-5.4125977.199646-8.1085205-.6829224-.1956787-1.1381836-.3737793-2.2540283-.5266724-3.3325806 1.6605855.4448243 5.9976045 1.0399171 10.1596071 1.0399171zm12.2954101-7.6074219c-1.53479.484436-5.5727539 1.0018921-11.2839355 1.026001.0716476-.5312309-.2601585-.4595375-.7714233-2.0532837 2.8963012-.010231 9.3108672.1593437 12.0553588 1.0272827zm-13.625122-1.0089722c.1889648.7094116.4710693 1.3883057.8204956 2.0308838-5.3435059-.0612793-9.1127319-.557373-10.5845337-1.0219116 1.3950195-.4411621 4.8570556-.9090576 9.7640381-1.0089722z"></path><path d="m24.904171 13.8311415c-.0473633-.4111328-.4101563-.7080078-.8305664-.659668-1.3066406.1499023-2.5961914.4506836-3.8334961.8945313-.7864819.2828569-.585331 1.4560547.253418 1.4560547.2952442 0 1.5205765-.6046133 3.7509766-.8603516.411621-.0473633.7070312-.4189453.6596679-.8305664z"></path><path d="m20.5164757 9.6387587c-.4169922-.0493164-.7836914.2485352-.8300781.6601563-.046875.4116211.2490234.7832031.6601563.8300781.5244141.059082.9228516.0439453 1.2763672.0297852.9241581-.0387373.9284344.0258789 1.1323242.0258789.3764648 0 .7006836-.2827148.7441406-.6655273.046875-.4111328-.2490234-.7827148-.6606445-.8295898-.9860612-.1126148-1.4760476.0450361-2.3222657-.0507814z"></path><path d="m22.7054405 4.6841688c-.2744141-.3095703-.7480469-.340332-1.0585938-.0664063s-.340332.7480469-.0664063 1.0585938c.0884743.1003542 2.3486328 2.6367188 2.8237305 2.6367188.6374474 0 .991478-.7584472.5620117-1.2460938-.9441832-1.070713-1.3532256-1.354033-2.2607421-2.3828125z"></path></g></svg>