<svg xmlns="http://www.w3.org/2000/svg" id="Layer_1" height="512" viewBox="0 0 68 68" width="512"><g id="_x37_7"><path d="m19.8288975 30.5515099c.8959961.6694336 2.0869141.2939453 3.0429688-.0068359 1.1862125-.3732471 1.4917259-.4195633 2.7709961.0805664.8964024.3509731 1.8008747.640625 3.1533203.640625 1.3772888 0 2.8131428-.4233932 3.1548462-.6537476 1.829649.4986477 3.7091808.4524364 5.5027485-.3068848 1.1409645.4619656 3.0750198.2233238 4.2950439-.083313.456543-.1147461.8876953-.2231445 1.3007813-.2294922.6462173-.0254002 1.5647125.299366 2.4238281.3930664.9819336.1040039 2.3608398-.2397461 3.0859375-1.2495117 1.0541878-1.4666767.8755684-3.7768917.7929688-5.5786133-.0834961-2.3510742-.3613281-4.8735352-.875-7.9389639-.8232422-4.9165039-1.9506836-11.6499023-7.828125-13.668457-3.137207-1.078125-6.8154297-.3657227-9.3686543 1.8139647-.1791992.1523438-.434082.2138672-.7011719.1738281-2.3583984-.3818359-5.0249023.7436526-6.7929688 2.8623049-2.3745117 2.8461914-2.9995117 6.5429688-3.2788086 9.4457998-.3779297 3.9277344-.9814453 7.6162109-1.5224609 10.7055664-.1259766.71875-.4609375 2.6279297.84375 3.6000977zm7.2182617-5.2314454c-1.3573608-1.939209-2.1740112-4.4221802-2.5018921-7.5549316 4.6974487-.6860962 11.4564228-5.0740347 14.2348042-9.177001.5458374 2.8025513 1.5629883 5.8407593 4.2717896 7.4696646-.1859131 2.6306152-.4678345 5.3903198-1.5159302 7.843811-.8808899 2.0611458-2.3608284 3.8815918-4.3952637 4.8931885-.3265381.1572266-7.9031315-.3210926-10.0935078-3.4747315zm-5.0463867-8.930664c.2583008-2.6879873.8261719-6.0981436 2.9370117-8.628417 1.4130859-1.6933594 3.5830078-2.6333008 5.4038086-2.3422852.7011719.1132813 1.3984375-.0742188 1.9125996-.5136719 2.1582031-1.8417971 5.2626953-2.4453127 7.9077148-1.5361331 5.0327148 1.7285159 6.0327148 7.699707 6.8359375 12.4975586.8590736 5.127738.8364067 7.6979551.8789063 8.2958975.0615234 1.3295898.1459961 3.1503906-.5356445 4.0991211-.300293.418457-1.0639648.7026367-1.7055664.6328125-.3178711-.034668-.6313477-.1049805-.9443359-.1743164-2.7752228-.6110096-2.7294655.227808-5.1516724.3306885 3.9233055-3.1321011 4.6812973-8.1384525 5.0222778-13.0758047.0161133-.2306519-.0806274-.4368896-.2353516-.5854492-.0394897-.2109985-.1591187-.4050903-.3613281-.5180664-2.7749023-1.5537109-3.4902344-4.8969727-4.081543-8.7832031-.1242905-.8118668-1.2435074-.8357139-1.4614258-.0986328-1.089817 3.7060051-8.9636459 9.8135309-14.7558613 10.362792-.1926212.0182667-.5423145.0234184-.8588867-.015625-.4130859-.0507813-.7856445.2402344-.8364258.6518555-.0512695.4111328.2407227.7856445.6518555.8364258.1358643.0168457.2819824.0182495.4244385.0251465.4980259 4.8813858 2.3077221 9.4497051 6.6383057 11.8380127-1.4404964.1983128-2.4441795-.0485878-3.4958496-.4593506-1.6364918-.6423702-2.2932205-.5795803-3.7680664-.1147461-3.6567365 1.1462766-1.583294-.6425131-.4208985-12.7246092z"></path><path d="m34.2058525 41.7932091c-.4140625 0-.75.3359375-.75.75v.0585938c0 .4140625.3359375.7207031.75.7207031s.75-.3652344.75-.7792969-.3359375-.75-.75-.75z"></path><path d="m60.3863335 48.3495445c-.1885986-.5545654-.9938354-2.2234497-1.8335571-2.2775269-.284668-.2294922-.6402588-.3725586-1.0300293-.3725586-1.086731-.0162354-2.2818604-.0297241-3.5614624-.0411377-2.4215088-5.0201416-7.8549805-9.4717407-12.390564-10.7506714-3.2156906-1.2575569-6.4228058-1.7240944-9.8316669-1.1183472-2.5751953.4609375-6.6352539 1.8520508-9.0869141 3.5209961-3.3959351 2.3057251-6.0310059 5.0494385-8.057251 8.366394-1.8401489.0075684-3.6531372.0152588-5.4188232.0227661-.921875 0-1.671875.75-1.6704102 1.6259766-.4130859 6.7626955-.4125977 12.442383-.0014649 17.2998086 0 .921875.75 1.671875 1.6552734 1.671875 20.3888073.4490662 48.0971909.2170944 48.9578857-.1176147.7723389-.1087036 1.4647827-.6549683 1.8432007-1.3187866.4536133-.7958374.5490112-1.7241249.6165771-2.6250648.2576904-3.4359131.2365723-6.8843384.215332-10.3287964-.0073832-1.1975098-.0183085-2.4168702-.4061258-3.5573121zm-20.2124024-12.3529052c-2.9850502 3.3465538-8.171772 3.6990814-11.4878559.1464233 3.8887463-1.2947998 7.2253094-1.6278801 11.4878559-.1464233zm-16.6785297 2.5543823c1.0148926-.690918 2.3344727-1.3256226 3.6968384-1.8621216 3.9096909 4.78862 10.7959118 4.5384293 14.4600849-.119873 2.1990967.9398804 4.0438232 2.1550293 5.4871216 3.6353149 2.0427856 2.0906372 3.2445679 3.6818848 4.0741577 5.4337158-9.5083618-.057312-22.6795673-.0176392-34.8458862.0313721 1.8427104-2.7823487 4.1844463-5.1201782 7.1276836-7.1184082zm34.0000019 26.2460975c-16.2021484.3496094-32.453125.3496094-48.3193359 0-.0947266 0-.171875-.0771484-.1743164-.234375-.4082031-4.8476601-.4077148-10.4560585.0024414-17.1914101 0-.0947266.0771484-.171875.175293-.171875 51.687561-.2212372 48.5030823-.0362282 48.5048828.2109375.2900391 5.5595703.2900391 11.3388672-.0009766 17.2148476 0 .100586-.0825196.1708985-.1879883.171875z"></path><path d="m16.0149326 51.4289513c-.409668 0-.7431641.328125-.75.7382813l-.1484375 9.296875c-.0063477.4140625.3237305.7548828.737793.7617188h.012207c.4086914 0 .7431641-.328125.75-.7382813l.0478516-3.0136719c1.5839844.3945313 3.6494141-.2138672 4.4936523-1.4228516.9799805-1.4023438.7348633-3.4755859-.546875-4.6210938-1.6512336-1.4777679-3.8632145-1.0009765-4.5961914-1.0009765zm3.9135743 4.7626953c-.5366211.7675781-2.2836914 1.1533203-3.2246094.7138672-.0048828-.0029297-.0092773-.0048828-.0141602-.0068359l.0639648-4.0029297c.3561783-.0187454.7976627-.0815125 1.2744141-.0136719.453125.0625 1.0952148.2294922 1.5830078.6660156.7226563.6455078.8676758 1.8564453.3173829 2.6435547z"></path><path d="m29.1013584 60.5119591c-1.1918945.1757813-2.4296875.0957031-3.6206055-.0498047.125-2.953125.1318359-5.0771484-.1191406-7.8457031-.0375977-.4130859-.3920898-.7070313-.8149414-.6796875-.4121094.0371094-.7163086.4023438-.6791992.8144531.262207 2.8935547.234375 5.0751953.0844727 8.3300781-.0180664.3867188.2617188.7236328.6450195.7773438.9785156.1367188 2.003418.2539063 3.0419922.2539063.5576172 0 1.1196289-.0341797 1.6801758-.1162109.409668-.0605469.6933594-.4414063.6333008-.8515625-.0605469-.4091798-.4448243-.6914064-.8510743-.6328126z"></path><path d="m36.3918877 51.3810997c-.1988411-.6134338-1.0405197-.7148094-1.3671875-.1376953-1.7241211 3.0615234-3.1240253 6.3076172-4.161623 9.6484375-.1225586.3955078.0981445.8164063.4936523.9384766.3974609.125.8154316-.0986328.9389668-.4931641.3106079-1.0001221.6657104-1.9876099 1.0421753-2.9675903.1250954.0441704.2300186.0535927.3416138.039856 1.7709618-.2212677 3.5771904-.0193443 3.7194824-.0130005.3869019 1.0147095.7672119 2.041748 1.1066895 3.0930786.1025391.3173828.3969727.5195313.7138672.5195313.5089073 0 .8695412-.4966736.7138672-.9804688-1.0759851-3.3305207-2.4851343-6.375042-3.541504-9.647461zm-2.4544678 5.4936523c.4868164-1.151123 1.0108032-2.2875977 1.5858154-3.3989258.3993568 1.1124992.8247986 2.2023201 1.2796021 3.369751-.8971558-.0581054-1.9728394-.0492553-2.8654175.0291748z"></path><path d="m50.303997 50.7814903c-.4233398-.0332031-.7661133.2958984-.7875977.7099609-.1416817 2.7331352-.2640686 4.7443199-.4047852 7.3203125-1.9345551-2.5954742-3.9898605-5.0254555-6.0756836-7.6123047-.4133339-.5112267-1.2218246-.280674-1.3242188.3505859-.5214844 3.2109375-.7246094 6.1630859-.8696289 9.6064453-.0170898.4130859.3041992.7626953.7177734.7802734.3647575.0331612.7624283-.2736206.78125-.7177734.1166992-2.7783203.2719727-5.2285156.6044922-7.75 2.0894585 2.5636978 4.2617149 5.1758537 6.1865234 7.9316406.4065895.5817719 1.3267517.3214111 1.3637695-.390625.1690331-3.2608109.3510017-6.2043762.5185547-9.4404297.0214846-.4140623-.2963865-.7666014-.710449-.7880858z"></path></g></svg>