<svg xmlns="http://www.w3.org/2000/svg" id="Layer_1" height="512" viewBox="0 0 66 66" width="512"><g><path d="m64.98 37.03c-.05-.41-.11-.81-.18-1.2-.04-.2-.06-.37-.11-.59l-.16-.67c-.08-.23-.2-.47-.3-.71-.17-.23-.32-.49-.57-.68-.5-.45-1.15-.54-1.65-.56-.98.02-1.7.25-2.36.28-.65.04-1.07-.08-1.44-.42-.17-.12-.42-.46-.61-.71-.2-.27-.38-.56-.53-.85-.31-.58-.49-1.18-.48-1.69.02-.52.19-.77.7-1.43.43-.6 1.01-1.25 1.22-2.34.09-.54-.01-1.16-.25-1.63-.24-.48-.54-.82-.86-1.13-.32-.3-.65-.54-.96-.75l-.87-.59c-.59-.38-1.15-.89-2.17-1.15-.51-.12-1.12-.06-1.58.14-.47.19-.82.45-1.13.71-.59.5-1.06 1.07-1.45 1.42-.19.16-.29.23-.44.26-.15.04-.38.04-.64.02-.55-.06-1.16-.19-1.66-.36-.51-.17-.96-.41-1.26-.69-.31-.29-.43-.55-.54-1.07-.12-.5-.16-1.12-.39-1.83-.12-.35-.3-.73-.56-1.06-.27-.32-.61-.61-.95-.78-.61-.33-1.23-.47-1.8-.5-.58-.05-1.14-.01-1.68.07-1.07.19-2.08.52-3.02 1.11-.47.29-.91.67-1.3 1.16-.18.27-.36.55-.47.89-.11.35-.15.77-.07 1.16.17.8.6 1.23.89 1.59.31.35.56.64.65.84.09.18.07.29.03.39-.04.11-.25.32-.57.54-.31.22-.69.46-1.07.78-.1.07-.19.17-.29.26l-.21.2c-.14.13-.28.25-.41.36-.54.46-1.04.63-1.46.58-.45-.07-1.01-.41-1.61-.88-.61-.44-1.26-1.01-2.27-1.29-.49-.15-1.06-.13-1.57-.03-.49.15-.94.35-1.28.6-.69.48-1.25 1.02-1.74 1.62-.48.6-.92 1.24-1.21 2.01-.15.38-.24.82-.25 1.3.01.25.03.5.1.71.05.22.12.43.24.65.42.89 1.27 1.36 1.92 1.62.68.27 1.29.4 1.83.56.51.14 1.02.37 1.17.51.01.02.02.01.03.06.01.09.02.37.03.58.02.44.03.85.02 1.24-.01.78-.12 1.53-.38 1.94-.14.2-.21.27-.43.35-.23.08-.48.11-.78.09-.58 0-1.39-.35-2.46-.05-.31.1-.58.26-.81.44-.13-1.25-.46-3.44-.95-6.32-.19-1.15-.4-2.42-.63-3.77-.11-.67-.23-1.39-.3-2.09-.04-.37-.07-.74-.11-1.12-.03-.42-.06-.53.08-.68.07-.06.14-.09.3-.16.15-.06.37-.16.49-.18.29-.08.68-.11 1.08-.13.8-.06 1.67-.03 2.65-.38.48-.17 1.02-.53 1.29-1.14.29-.68.1-1.31-.1-1.77-.42-.95-1.06-1.66-1.62-2.36-1.12-1.45-2.44-2.85-3.76-4.2-.65-.68-1.31-1.37-1.98-2.06-.68-.72-1.4-1.42-2.2-2.06s-1.68-1.23-2.71-1.63c-1-.38-2.28-.58-3.45-.11-1.16.45-1.99 1.35-2.58 2.25-.54.81-1.07 1.62-1.61 2.43-1.08 1.62-2.16 3.24-3.11 4.94-.48.85-.9 1.72-1.31 2.55-.42.86-.84 1.75-1.04 2.83-.23 1.04.03 2.61 1.29 3.36.6.34 1.2.43 1.72.45.53.01 1.01-.04 1.46-.11.9-.14 1.72-.36 2.46-.48.36-.06.73-.1.91-.08.06.29.13.58.19.87.07.31.13.61.18.91.12.6.23 1.19.32 1.77.88 5.26 1.38 9.96 1.84 14.08.22 2.06.43 3.98.63 5.77.11.91.19 1.73.32 2.62.15.96.55 1.9 1.17 2.62.62.73 1.43 1.19 2.21 1.46.79.27 1.56.37 2.29.37.36 0 .72-.02 1.06-.07.31-.05.62-.09.92-.13.6-.09 1.17-.2 1.73-.33.56-.14 1.09-.28 1.64-.56.18-.12.35-.25.5-.38.12-.14.21-.29.31-.44.16-.29.25-.57.32-.83.22-1.03.17-1.85.12-2.58-.24-2.44-.61-3.8-.84-4.61.6.14 1.11.1 1.55.06.91-.1 1.6-.18 2.12-.01.51.14.95.52 1.29.93.35.4.61.83.81 1.22.4.78.64 1.48.68 1.89.03.45-.08.78-.15 1.01-.16.47-.14.56-.05.63.08.05.21.1.57-.34.17-.23.43-.61.49-1.28.04-.7-.15-1.43-.53-2.38-.2-.47-.46-.98-.86-1.52-.39-.52-.95-1.12-1.84-1.43-1.74-.65-3.86.5-4.45-.82-.38-.67-.65-1.79-.67-2.83 0-.53.06-1.06.26-1.5.18-.42.57-.83.86-.9.3-.12.94.06 1.84.16.44.04.97.01 1.47-.16.52-.15 1.1-.6 1.37-1.08.58-.98.64-1.93.68-2.84.01-.46 0-.91-.01-1.35-.01-.23 0-.39-.03-.74-.04-.39-.2-.84-.52-1.13-.71-.63-1.34-.8-1.96-1.01-.61-.18-1.18-.32-1.66-.51-.48-.2-.8-.42-.93-.73-.09-.13-.12-.39-.13-.51.01-.18.04-.39.14-.63.37-.96 1.27-2.02 2.24-2.69.5-.33.85-.42 1.28-.3.44.1.99.52 1.61.98.61.45 1.37 1.06 2.5 1.25.56.07 1.18-.01 1.67-.21.5-.2.93-.49 1.29-.78.18-.15.35-.3.52-.45l.24-.23c.06-.05.11-.1.18-.16.25-.21.59-.42.97-.69.37-.28.85-.61 1.19-1.28s.29-1.52-.03-2.11c-.29-.59-.66-.95-.93-1.27-.27-.31-.45-.59-.45-.69-.03-.08.01-.25.18-.49.19-.22.44-.46.77-.66.64-.41 1.45-.68 2.27-.82.8-.13 1.69-.09 2.21.21.29.17.45.33.59.74.14.39.2.96.34 1.62.11.65.5 1.56 1.13 2.09.61.56 1.3.89 1.99 1.12.7.23 1.35.36 2.09.44.38.03.81.05 1.31-.06s.97-.42 1.27-.69c.59-.55.98-1.03 1.42-1.4.21-.18.42-.33.59-.39.17-.07.27-.08.44-.05.34.06.91.45 1.48.84l.89.6c.28.19.53.37.73.56.2.18.37.4.45.57s.11.3.08.48c-.05.37-.4.92-.84 1.49-.22.31-.44.55-.71 1.06-.23.47-.35.99-.36 1.48 0 .99.32 1.84.71 2.59.2.38.43.73.67 1.07.27.35.46.64.88 1 .18.18.39.33.63.45.23.15.48.22.73.3.51.14.99.14 1.45.12.88-.08 1.65-.29 2.21-.3.26.02.43.03.51.13.06.03.1.13.17.2l.16.36.11.46c.04.16.07.38.11.56.07.37.13.74.17 1.11.09.72.14 1.47.02 2.04-.07.31-.13.4-.29.58-.14.14-.28.2-.55.24-.26.04-.62.01-1.03-.01-.41-.01-.93-.03-1.5.18-.58.19-1.06.75-1.27 1.11l-.64 1.02c-.27.43-.45 1.03-.4 1.61s.29 1.08.55 1.48c.54.79 1.2 1.32 1.78 1.83s1.3 1.08 1.29 1.29c.09.29-.17 1.16-.4 1.78-.26.66-.59 1.3-1 1.85-.4.55-.88 1.01-1.38 1.16-.5.17-.99.07-1.55-.28-.55-.34-1.1-.84-1.71-1.33-.34-.23-.52-.51-1.22-.75-.62-.2-1.33.21-1.6.43-.55.41-1.19.77-1.82 1.23-.61.46-1.32.96-1.68 1.93-.31.97-.02 1.84.2 2.52.23.69.46 1.31.43 1.81.01.31-.42.73-.95 1.01s-1.13.5-1.74.62-1.23.19-1.83.17c-.59-.03-1.17-.16-1.53-.43-.12-.05-.13-.15-.21-.21-.07-.08-.12-.23-.18-.33-.1-.24-.17-.5-.22-.77-.09-.55-.06-1.14-.08-1.79-.02-.62-.13-1.41-.66-2-.53-.57-1.2-.76-1.79-.9-.58-.15-1.26-.21-1.9-.02s-1.15.62-1.52 1.07c-.73.9-1.12 1.85-1.68 2.57-.52.73-1.28 1.09-2.07 1.03-.79-.04-1.52-.39-2.15-.78s-1.16-.85-1.61-1.32c-.46-.46-.77-.93-.83-1.41-.05-.47.17-.9.4-1.23.22-.34.45-.61.63-.84.35-.45.5-.72.47-.74s-.23.2-.63.61c-.2.21-.45.46-.72.8-.26.33-.57.8-.55 1.43.03.62.42 1.22.86 1.71.45.51.99 1.02 1.65 1.48.66.45 1.45.87 2.42.97.97.14 2.1-.38 2.72-1.23.65-.8 1.09-1.75 1.73-2.49.32-.36.68-.64 1.11-.76.43-.11.91-.08 1.43.07.5.12 1 .32 1.27.64s.36.79.36 1.37c.01.57-.04 1.22.05 1.91.05.35.14.7.27 1.04.09.17.14.33.26.51.14.16.27.38.45.48.68.51 1.43.64 2.15.7.72.04 1.43-.02 2.13-.15.71-.13 1.41-.35 2.09-.71.17-.08.34-.19.51-.31.17-.1.33-.24.48-.4.32-.28.59-.79.64-1.3.05-.91-.26-1.64-.46-2.29-.21-.65-.34-1.26-.17-1.68.14-.41.65-.86 1.21-1.24.56-.39 1.21-.74 1.86-1.21.31-.21.33-.2.45-.18.02-.02.39.26.64.47.55.45 1.11 1 1.84 1.47.37.23.79.44 1.29.54.49.1 1.03.07 1.5-.08.98-.31 1.64-1 2.15-1.67.51-.68.91-1.42 1.22-2.19.16-.4.28-.78.4-1.19.1-.42.23-.9.1-1.53-.15-.66-.59-1.08-.88-1.35l-.89-.79c-.58-.52-1.14-1.01-1.47-1.53-.33-.54-.36-.87-.09-1.32l.62-.97c.2-.3.27-.35.45-.43.35-.16 1.13.03 2.14-.05.51-.05 1.14-.29 1.55-.71.19-.21.37-.41.52-.7.13-.27.21-.52.27-.77.24-1.02.15-1.85.07-2.67zm-42.08 9.51v.12c-.02.77.22 2.24.32 4.95 0 .66-.02 1.44-.2 2.13-.1.32-.27.61-.36.62-.33.15-.79.28-1.29.37-.5.1-1.04.18-1.61.26-.29.03-.58.07-.88.1-.27.03-.56.04-.84.03-1.13-.02-2.37-.37-3.13-1.27-.37-.45-.62-1.03-.72-1.72-.11-.76-.19-1.65-.28-2.53-.18-1.79-.37-3.71-.58-5.77-.44-4.13-.92-8.84-1.82-14.21-.1-.59-.21-1.2-.33-1.82-.06-.31-.12-.63-.19-.94-.07-.34-.15-.69-.23-1.03-.12-.36-.27-.73-.59-.96-.3-.24-.68-.38-1.07-.43-.61-.06-1.04.02-1.49.09-.87.16-1.66.37-2.43.49-.76.14-1.55.14-1.89-.07-.16-.1-.27-.23-.36-.5-.08-.22-.09-.52-.03-.88.12-.72.46-1.52.84-2.33.41-.84.8-1.67 1.24-2.47.88-1.62 1.92-3.22 2.97-4.86.53-.82 1.05-1.65 1.58-2.47.47-.73 1.05-1.33 1.73-1.6 1.36-.59 3.16.33 4.58 1.43.73.56 1.42 1.2 2.07 1.87l2.04 2.04c1.35 1.33 2.63 2.63 3.77 4.03.6.69 1.17 1.34 1.48 2.01.16.33.2.62.13.76-.08.2-.28.39-.6.51-.63.26-1.47.29-2.29.37-.42.04-.84.07-1.31.22-.26.08-.4.15-.62.25-.19.09-.49.23-.69.45-.44.42-.31 1.19-.27 1.49.05.38.1.75.15 1.11.11.77.26 1.45.39 2.14.29 1.35.55 2.61.79 3.75.51 2.28.92 4.12 1.2 5.39.09.39.17.72.23 1-.06.05-.11.11-.16.16-.29.31-.53.7-.68 1.08-.32.77-.37 1.51-.35 2.19.08 1.36.35 2.5 1 3.62.18.32.46.61.78.83z"></path><path d="m35.57 50.72c3.12 2.21 6.64 2.77 9.54 2.34 2.94-.46 5.2-1.95 6.65-3.53 1.49-1.58 2.31-3.21 2.83-4.6.52-1.4.73-2.59.81-3.54.15-1.92-.07-2.91-.24-3.4s-.3-.51-.44-.49-.26.08-.33.57-.08 1.42-.38 3.13c-.16.85-.42 1.91-.95 3.13-.37.86-.88 1.82-1.61 2.77 0-.01-.01-.01-.01-.01-.28-.44-.78-1-1.47-1.64-.37-.28-.74-.65-1.23-.91-.24-.14-.48-.29-.73-.44-.27-.12-.55-.24-.83-.36-1.16-.46-2.53-.74-3.98-.69-2.92.14-5.28 1.56-6.62 2.82-.67.65-1.17 1.21-1.44 1.65-.03.04-.05.08-.08.12-.83-.87-1.61-1.89-2.21-3.08-.54-.97-.86-2.07-1.12-3.21-.19-1.15-.25-2.36-.09-3.56.19-1.19.54-2.39 1.12-3.49.61-1.07 1.33-2.12 2.29-2.95 1.83-1.75 4.24-2.83 6.6-3.21 2.38-.41 4.74.07 6.63.96 1.91.9 3.33 2.26 4.25 3.58.26.32.45.65.62.97s.36.61.49.91c.23.6.48 1.11.61 1.56.25.89.42 1.38.49 1.37s.03-.53-.1-1.47c-.06-.47-.27-1.02-.45-1.68-.1-.32-.28-.65-.43-1-.15-.36-.33-.73-.58-1.08-.88-1.48-2.34-3.06-4.39-4.15-2.03-1.08-4.64-1.72-7.32-1.36-2.67.33-5.39 1.45-7.52 3.38-1.11.91-1.98 2.1-2.72 3.34-.71 1.26-1.15 2.66-1.4 4.05-.22 1.41-.17 2.82.04 4.17.28 1.33.64 2.62 1.25 3.75 1.14 2.3 2.74 4.07 4.45 5.28zm1.33-4.48c1.37-1.12 3.62-2.37 6.33-2.5 1.35-.05 2.62.2 3.72.59.27.11.54.21.79.32.24.13.48.26.71.39.48.22.84.56 1.21.8.74.59 1.27 1.12 1.63 1.48-.26.32-.53.64-.85.95-1.28 1.32-3.16 2.51-5.61 2.87-2.42.34-5.45-.15-8.11-2.03-.5-.36-1.01-.81-1.49-1.3.35-.37.9-.93 1.67-1.57z"></path><path d="m45.14 33.03c-.16-.13-.25-.19-.27-.17-.05.05.29.33.66.98.38.64.71 1.72.51 3.03-.19 1.28-.97 2.84-2.5 3.62-1.47.8-3.71.64-5.09-.76-1.37-1.41-1.93-3.53-1.22-5.07.68-1.58 2.26-2.34 3.52-2.62 1.3-.29 2.39-.01 3.07.28.69.3 1.02.59 1.05.54.03-.02-.24-.38-.93-.78-.68-.39-1.85-.78-3.29-.53-.7.13-1.46.37-2.19.82-.73.44-1.41 1.13-1.82 2.03-.42.89-.5 1.99-.25 3.01.27 1.02.76 2.01 1.56 2.82 1.64 1.64 4.19 1.78 5.89.83 1.75-.95 2.55-2.72 2.69-4.12.16-1.44-.29-2.61-.77-3.24-.24-.33-.44-.55-.62-.67z"></path><path d="m52.66 57.77c-.03.08.55.37 1.58.56 1.02.18 2.5.19 4.05-.26 1.54-.45 2.79-1.24 3.56-1.94.78-.7 1.11-1.26 1.05-1.31-.14-.16-1.87 1.77-4.8 2.58-2.91.87-5.4.16-5.44.37z"></path><path d="m58.97 59.17c-1.99.66-3.72.73-3.72.94-.02.18 1.81.42 3.93-.28 2.13-.68 3.47-1.96 3.35-2.09-.12-.16-1.56.8-3.56 1.43z"></path><path d="m9.8 6.92c.99-.29 2.39-.63 3.93-.55 1.54.07 2.86.62 3.69 1.18.84.56 1.24 1.08 1.33 1.02.07-.04-.19-.69-1.04-1.41-.82-.72-2.27-1.4-3.96-1.48-1.68-.08-3.15.37-4.13.79-.97.41-1.51.79-1.47.87.04.1.66-.13 1.65-.42z"></path><path d="m16.48 5.1c1.53.57 2.54 1.5 2.69 1.36.15-.1-.73-1.37-2.44-2.01-1.7-.66-3.2-.31-3.16-.13.02.2 1.39.18 2.91.78z"></path><path d="m13.06 28.7c-.19.05.55 3.22 1.28 7.14.75 3.93 1.21 7.14 1.41 7.12.18-.02.03-3.29-.72-7.25s-1.8-7.06-1.97-7.01z"></path></g></svg>