<svg xmlns="http://www.w3.org/2000/svg" id="Layer_1" height="512" viewBox="0 0 512 512" width="512"><path d="m398.07 421.77c-.04-2.2-.73-4.41-2.1-6.34-4.85-6.84-9.81-13.61-14.88-20.31-5.08-6.7-10.27-13.31-15.59-19.83-8.38-10.21-16.93-20.23-26.11-29.74 1.4-2.06 2.14-4.57 1.97-7.24-.96-14.76-1.84-29.52-2.86-44.28-2.92-43.89-6.2-88.87-9.73-132.78-.05-1.05-.25-2.07-.73-3.06-10.09-21.01-24.18-51.25-34.39-71.81-11.58-23.77-23.4-47.79-35.43-71.35-.49-.95-1.53-1.46-2.57-1.29-.77.09-1.49.55-1.87 1.3-3.04 5.91-6.01 11.85-8.99 17.78-2.22 4.37-6.72 13.45-8.88 17.83-17.68 35.68-34.94 71.56-51.94 107.56-.44.91-.67 2-.72 3.05l-1.77 22.12c-2.82 36.65-5.55 74.04-7.97 110.66-1.03 14.76-1.9 29.52-2.86 44.28-.17 2.72.61 5.54 2.42 7.85 6.09 7.8 12.21 15.57 18.35 23.33 6.87 8.74 20.08 25.4 32.38 40.87-27.05.82-54.1 2.69-80.86 6.72 10.52-18.12 20.24-36.71 27.78-56.32.91-2.4-2.12-4.41-4-2.7-9.53 8.71-18.12 18.18-26.51 27.9-4.02 4.69-8.33 9.87-12.14 14.7-3.99 4.94-7.83 9.98-11.62 15.05-1.15 1.54-1.87 3.42-1.97 5.49-.98 20.63-1.04 41.29-.19 61.93-.31 11.42 14.06 16.72 21.1 7.55 3.94-5.25 7.81-10.55 11.58-15.94 9.76-14.03 19.14-28.31 27.16-43.44 10.63.99 21.29 1.72 31.96 2.24.13.32.27.64.4.96 4.45 10.49 9.67 20.67 15.2 30.57 7.37 13.16 15.47 25.8 24.07 38.1 4.74 7.02 15.72 7.07 20.47 0 15.15-21.92 29.39-44.89 39.62-69.61 10.74-.52 21.48-1.25 32.18-2.26 5.06 9.16 10.6 17.99 16.28 26.77 7.22 10.99 14.75 21.79 22.58 32.34 6.26 8.39 19.83 4.36 20.36-6.21 1.06-20.79 1.28-41.62.82-62.44zm-30.19-4.94c-26.41-3.74-53.04-5.67-79.69-6.5 3.88-4.86 7.83-9.8 11.79-14.77h29.57c3.05 0 5.91 1.63 7.46 4.27l3.56 6.04c.47.79 1.3 1.23 2.16 1.23.43 0 .87-.11 1.27-.35 1.19-.7 1.59-2.23.89-3.42l-3.56-6.04c-2.44-4.15-6.96-6.73-11.77-6.73h-25.58c10.25-12.86 20.4-25.63 29.26-37.02 10.03 21.89 21.97 42.82 34.64 63.29zm-147.81-50.56 30.92-30.92 2.52.08v8.21l-28.59 28.59c-1.63-1.99-3.25-3.98-4.85-5.96zm-8.01-9.87 21.75-21.75c.75.11 1.5.19 2.27.21l8.06.27-27.24 27.24c-1.63-2.01-3.24-4-4.84-5.97zm-8.01-9.87 18.04-18.04c1.76 1.9 3.87 3.45 6.26 4.55l-19.46 19.46c-1.64-2.02-3.25-4.01-4.84-5.97zm5.23-204.36 3.09 3.1c1.22 1.23 2.19 2.63 2.92 4.15l-14.67 14.67.02-.58c2.89-7.1 5.77-14.22 8.64-21.34zm-14.45 188.63c.16-3.76.31-7.52.47-11.28l21.48-21.48v10.81zm5.6-159.44 16.31-16.31c.02.3.04.6.04.9v9.87l-16.64 16.64zm-.51 18.38 16.86-16.86v10.81l-17.2 17.2c.11-3.71.23-7.43.34-11.15zm-.57 18.45 17.42-17.42v10.81l-17.77 17.77c.13-3.73.24-7.44.35-11.16zm-.57 18.46 18-18v10.81l-18.39 18.39c.13-3.74.26-7.47.39-11.2zm-.64 18.51 18.64-18.64v10.81l-19.02 19.02c.13-3.72.25-7.46.38-11.19zm-.64 18.53 19.28-19.28v10.81l-19.71 19.71c.14-3.75.29-7.5.43-11.24zm-.71 18.58 19.99-19.99v10.81l-20.42 20.42c.15-3.74.28-7.49.43-11.24zm-.71 18.59 20.7-20.7v10.81l-21.17 21.17c.15-3.76.32-7.51.47-11.28zm-.04 35.8 20.78-20.78c.15 3.07.95 5.95 2.31 8.49l-18.26 18.26c-1.64-2.04-3.26-4.04-4.83-5.97zm62.46-1.06 10.41.35c8.06.27 14.42 6.8 14.47 14.87l.16 25.71c-8.55 10.53-17.1 21.11-25.04 31.02zm-5 15.12v10.81l-20.59 20.59c-1.61-1.99-3.22-3.98-4.84-5.97zm0 17.88v10.81l-12.59 12.59c-1.6-1.98-3.21-3.97-4.83-5.98zm0 17.88v21.14c-3.05-3.8-6.21-7.72-9.43-11.71zm57.84-222.95c.13 4.81.55 20.83.55 20.83 1.44 50.1 3.27 100.51 5.44 150.58-8.71 10.75-18.67 22.98-28.83 35.49l-.12-19.63c-.07-10.76-8.55-19.47-19.31-19.83l-10.58-.35v-301.03c3.12 8.29 6.33 16.74 9.42 24.63 13.59 35.24 29.06 74.04 43.43 109.31zm-63.68-118.6c1.88-4.92 3.87-10.19 5.84-15.41v300.91l-17.25-.57c-8.12-.27-14.47-6.84-14.47-14.96v-158.96c0-5.36-2.08-10.4-5.86-14.2l-4.59-4.61c12.34-30.64 24.46-61.38 36.33-92.2zm-88.92 388.6c-6.91 6.14-13.57 12.52-20.07 19.05-.01-5.02-.06-10.04-.18-15.07-.08-3.58-.21-7.16-.35-10.74 8.14 1.31 16.31 2.41 24.5 3.33-1.3 1.14-2.61 2.28-3.9 3.43zm79.86 19.69c-5.66-6.54-11.54-12.96-17.72-19.08 7.42.25 14.84.41 22.25.52 1.12 1.41 2.17 2.72 3.1 3.89 1.87 2.4 4.48 3.87 7.26 4.42v28.54c-4.78-6.22-9.73-12.32-14.89-18.29zm19.9 18.28v-28.53c2.78-.55 5.39-2.02 7.26-4.43 1-1.27 2.02-2.57 3.06-3.88 7.42-.1 14.85-.27 22.28-.51-11.75 11.66-22.53 24.24-32.6 37.35zm90.46-41.32c8.19-.92 16.35-2.02 24.49-3.32-.15 8.82-.17 17.63-.06 26.45-7.87-7.99-15.99-15.74-24.43-23.13z"></path></svg>