<svg xmlns="http://www.w3.org/2000/svg" id="Layer_1" height="512" viewBox="0 0 66 66" width="512"><g><path d="m48.516 53.9c.209-.047.365-.223.387-.435.221-2.13-.264-4.315-1.367-6.149-.305-.508-.686-1.019-1.139-1.55v-12.775h.463c.276 0 .5-.224.5-.5s-.224-.5-.5-.5h-.463v-4.906h.531c.276 0 .5-.224.5-.5s-.224-.5-.5-.5h-.531v-4.681h.387c.276 0 .5-.224.5-.5s-.224-.5-.5-.5h-.387v-4.887c0-2.046-.798-3.961-1.579-5.563-.313-.647-.711-.98-1.221-.954-1 .027-1.119 1.119-1.861 2.754-.539 1.188-1.097 2.415-1.097 3.764v4.887h-.079c-.052-6.97-1.227-14.511-6.733-19.283-.188-.162-.467-.162-.655 0-5.486 4.755-6.682 12.294-6.733 19.283h-.211v-4.887c0-1.345-.554-2.568-1.09-3.753-.735-1.625-.866-2.738-1.866-2.765-.499.023-.911.307-1.223.954-.781 1.602-1.58 3.516-1.58 5.564v4.887h-.387c-.276 0-.5.224-.5.5s.224.5.5.5h.387v4.681h-.531c-.276 0-.5.224-.5.5s.224.5.5.5h.531v4.906h-.463c-.276 0-.5.224-.5.5s.224.5.5.5h.463v12.994c-2.142 2.126-4.183 4.821-3.147 7.776.058.167.201.291.375.325.925.184 1.85.373 2.773.563v5.904c-.613.899-1.052 1.956-1.264 3.067-.059.312.181.594.491.594h.005c2.217-.023 4.555-.072 6.882-.096.387-.004.62-.425.426-.754-.511-.865-.537-1.776-.782-2.687v-4.839c.833.172 1.666.343 2.502.509-.023.654-.021 1.31.019 1.961.016.264.235.469.499.469h.004c.951-.007 1.898-.008 2.845-.01-.078.047-.146.094-.19.128-.102.078-.206.169-.313.262-.604.526-.665.467-.804.326-.215-.216-.575-.571-1.071-.476-.507.102-.924.63-.708 1.684.257 1.235.675 2.417 1.242 3.512.571 1.099 1.6 1.084 2.061-.187.418-1.156.74-2.359.983-3.577.013.085.023.171.04.252.256 1.233.674 2.415 1.242 3.513.568 1.093 1.598 1.087 2.061-.188.46-1.273.82-2.602 1.067-3.947.096-.521.067-1.027-.376-1.322h.151c.28-.002.508-.236.496-.521l-.086-1.985c.919-.189 1.832-.386 2.746-.585 0 3.474.259 5.944-.781 7.709-.195.329.039.75.426.754 2.328.024 4.665.073 6.882.096h.005c.31 0 .55-.281.491-.594-.212-1.112-.651-2.169-1.264-3.067v-6.18c.706-.158 1.414-.315 2.119-.475zm-19.786 1.428c-.001-.063-.024-.126-.072-.174l-.779-.778 1.007-1.006.147.147c-.161.797-.156 1.049-.223 1.828-.026-.006-.053-.012-.08-.017zm-7.26 4.949v-5.422l3.758.778v4.668zm1.676-7.534.789.789-.517.517c-.012-.032-.013-.067-.039-.093l-.723-.723zm2.339-.055.844.844-.844.844-.844-.844zm-.525 1.87-1.113-.231.441-.441zm-2.127-.441-.879-.182.348-.348zm-3.046-.627.448-.448.677.677c-.374-.078-.75-.152-1.125-.229zm6.044 1.248.852-.852.666.666v.001h.001l.621.621c-.714-.145-1.428-.288-2.14-.436zm2.702-1.723-1.007 1.007-.49-.49 1.007-1.007zm.73-.344c-.006-.007-.003-.017-.01-.023-.098-.098-.256-.098-.354 0l-.014.014-.495-.495c.083-.098.085-.242-.008-.335s-.237-.091-.335-.008l-.522-.522 1.034-1.034.885.884c.098.098.256.098.354 0 .046-.046.067-.107.069-.167l.013.572c-.138.168-.264.35-.372.552-.098.183-.176.372-.245.562zm7.073-5.401-.029 1.332-.81-.81.68-.68zm.018-.843c-.052-.016-.098-.014-.149.005l-.613-.613c-.098-.098-.256-.098-.354 0s-.098.256 0 .354l.585.585-.731.731c-.065-.001-.13.022-.18.072-.098.098-.098.256 0 .354l1.094 1.094c.109.109.197.077.291.026l-.045 2.071c-.492-.286-1.07-.412-1.625-.262-.012-.035-.014-.072-.042-.1l-.367-.367.435-.435.762.762c.098.098.256.098.354 0s.098-.256 0-.354l-.762-.762.532-.531c.098-.098.098-.256 0-.354s-.256-.098-.354 0l-.531.531-.531-.53c-.098-.098-.256-.098-.354 0s-.098.256 0 .354l.531.531-.435.435-.708-.708.583-.583c.098-.098.098-.256 0-.353-.098-.098-.256-.098-.354 0l-.588.588c-.098-.083-.242-.085-.335.008-.092.092-.09.236-.008.335l-.931.931-.503-.504c-.051-.051-.117-.072-.183-.07-.605-27.632-.776-27.504-.122-29.66.503-1.66 1.559-2.934 2.845-3.442 1.286.509 2.342 1.782 2.845 3.442.653 2.156.473 2.433-.052 26.419zm-5.491 4.364-.011-.517.32.32-.129.129c-.06.021-.121.041-.18.068zm1.026-.208.915-.915.747.747c-.015.078-.005.159.056.22.085.085.138.071.22.056l.348.348c-.208.123-.385.273-.528.449-.422-.533-1.078-.871-1.758-.905zm3.224 1.197c2.017 0 1.739 3.537 1.844 5.972-1.076.006-2.149.009-3.222.011-.054-1.255-.184-5.983 1.378-5.983zm5.191 1.481.658.658-.585.585c-.045.045-.063.103-.067.161l-.854-.854.81-.809c-.035.088-.034.187.038.259zm3.513-1.492 1.025 1.025-.662.662-1.025-1.025zm1.691 1.691c.038.038.088.049.138.057l-.155.035c-.3.068-.6.133-.9.201l.606-.605zm-1.587.443c-.617.139-1.235.278-1.853.415l-.4-.4 1.134-1.134zm-2.431.544c-.151.033-.301.069-.452.101l.277-.277zm-1.731.374c-.556.12-1.112.239-1.669.355l1.012-1.012zm5.638-.223v5.679l-3.759.024v-4.863c1.254-.273 2.506-.556 3.759-.84zm.42-1.119c.014-.009.033-.006.045-.019.098-.098.098-.256 0-.354l-.312-.312 1.134-1.134.466.466c.098.098.256.098.354 0s.098-.256 0-.354l-.466-.466.549-.549c.098-.098.098-.256 0-.354s-.256-.098-.354 0l-.549.549-.699-.699.879-.879.444.444c.097.097.156.072.244.045.305 1.016.452 2.079.386 3.14-.706.161-1.415.32-2.121.476zm1.492-4.366-.091-.091.039-.039c.018.043.035.086.052.13zm-.288-.601-.157.157-.693-.693c-.098-.098-.256-.098-.354 0s-.098.256 0 .354l.693.693-.911.911c-.059.059-.07.136-.059.212-.004.004-.01.002-.014.006-.098.098-.098.256 0 .354l.803.803-1.134 1.134-1.025-1.025.765-.765c.098-.098.098-.256 0-.354s-.256-.098-.353 0l-1.781 1.781-.258-.258c-.098-.098-.256-.098-.354 0s-.098.256 0 .354l.258.258-1.134 1.134-.658-.658c-.072-.072-.171-.073-.26-.038l1.27-1.27c.098-.098.098-.256 0-.354s-.256-.098-.354 0l-2.211 2.211-.113-.113c-.098-.098-.256-.098-.354 0s-.098.256 0 .354l.113.113-.923.923c-.037-.83-.108-1.819-.604-2.662.018-.15.396-17.662.399-17.812 2.66 9.223 6.499 9.308 9.059 13.571.134.216.232.45.344.679zm-6.563-21.427h.181v4.906h-.246c.001-.077.002-.154.003-.231.017-1.577.036-3.152.062-4.675zm-.077 5.906h.257v6.121c-.124-.222-.247-.444-.366-.679.052-.222.106-5.214.109-5.442zm5.016 11.68c-1.329-1.361-2.845-2.68-3.759-3.969v-7.711h3.759zm0-12.68h-3.759v-4.906h3.759zm0-5.906h-3.759v-4.681h3.759zm-3.758-10.567c0-1.132.489-2.21 1.007-3.351.44-.97.872-2.079.872-2.079.15-.199.291.078.401.304.731 1.501 1.479 3.283 1.479 5.126v4.887h-3.759zm-1 10.567h-.161c.032-1.554.074-2.999.081-4.681h.081v4.681zm-7.14-23.915c5.058 4.667 6.035 11.913 6.06 18.531-.06.135-.06.273-.001.405 0 0-.224 15.175-.224 15.177-.652-1.727-1.196-3.719-1.628-5.967.143-6.527.309-8.441-.344-10.599-.617-2.038-1.979-3.592-3.641-4.159-.104-.035-.218-.035-.322 0-1.663.567-3.024 2.122-3.641 4.159-.656 2.165-.486 4.11-.36 9.869-.483 1.618-1.046 3.136-1.679 4.712l-.218-9.123c-.155-6.541-.605-16.913 5.998-23.005zm-7.271 30.821h.461l.086 3.601c-.524 1.24-.187.456-.547 1.257zm.437-1h-.437v-4.906h.319zm-.225-10.586c.005 1.273.032 2.54.062 3.794l.021.887h-.296v-4.681zm-4.97-5.887c0-1.845.747-3.626 1.479-5.128.109-.226.25-.501.4-.302 0 0 .496 1.245.878 2.089.515 1.138 1.001 2.212 1.001 3.341v4.887h-3.758zm0 5.887h3.758v4.681h-3.758zm0 5.68h3.758v4.906h-3.758zm3.758 5.906v6.88c-1.232 2.29-2.394 3.731-3.758 5.103v-11.983zm.939 7.252c1.099-2.018 2.638-5.892 3.297-7.702l.355 16.21-.973-.973c-.098-.098-.256-.098-.354 0s-.098.256 0 .354l1.307 1.307c.01.01.024.007.035.014l.033 1.511c-.003-.06-.023-.12-.069-.166l-.885-.884.397-.397c.098-.098.098-.256 0-.354s-.256-.098-.354 0l-.396.397-.041-.041c-.098-.098-.256-.098-.354 0s-.098.256 0 .354l.041.041-1.074 1.075c-.039.039-.051.091-.059.142-.016.01-.036.007-.05.021-.098.098-.098.256 0 .354l.667.667-1.007 1.007-.844-.844.602-.602c.098-.098.098-.256 0-.353-.098-.098-.256-.098-.354 0l-.642.642c-.078-.014-.159-.005-.219.056-.061.06-.07.141-.056.219l-.883.883-.789-.789.592-.592c.098-.098.098-.256 0-.354s-.256-.098-.354 0l-1.436 1.436-.313-.313c-.098-.098-.256-.098-.354 0s-.098.256 0 .353l.313.313-.58.58-.048-.01c.006-.005.015-.003.021-.009.098-.098.098-.256 0-.353l-.753-.753 1.186-1.186c.098-.098.098-.256 0-.354s-.256-.098-.354 0l-1.186 1.186-.092-.096c-.098-.098-.256-.098-.354 0s-.098.256 0 .354l.095.095-.585.585c-.03.03-.033.07-.045.107-.356-.072-.711-.147-1.068-.218-1.149-4.349 4.549-6.466 7.984-12.92zm-5.839 22.964c.193-.692.484-1.348.858-1.932l4.155.026c.124.615.24 1.234.458 1.825-1.54.02-3.611.058-5.471.081zm10.062-10.628c.283-.529.792-1.005 1.389-1.005.564 0 1.01.276 1.327 1.044-.21.784-.464 2.924-.372 5.146-1.002.002-2.005.004-3.011.011-.048-1.316.048-4.034.667-5.196zm.983 11.097c-.046.128-.086.209-.117.261-.03-.041-.068-.102-.116-.193-.525-1.014-.913-2.108-1.15-3.255-.028-.135-.052-.266-.031-.418.974.882 1.427.563 2.459-.304-.121.827-.52 2.461-1.045 3.909zm4.327 0c-.046.128-.086.209-.117.261-.029-.04-.068-.102-.116-.192-.526-1.017-.913-2.111-1.15-3.256-.028-.135-.053-.266-.031-.418.046.042.097.093.141.138.842.845 1.726.074 2.15-.297.057-.049.113-.099.168-.145-.122.827-.521 2.461-1.045 3.909zm.533-4.78c-.102.078-.207.169-.313.263-.604.526-.664.466-.805.324-.215-.215-.578-.57-1.07-.475-.268.054-.491.243-.629.505-.003-.04.003-.076-.004-.117-.048-.269-.192-.493-.388-.632.113 0 .227-.001.34-.001 1.028-.002 2.058-.007 3.089-.012-.091.052-.171.107-.22.145zm4.835 4.231c.226-.612.328-1.197.458-1.825l4.155-.026c.374.584.665 1.239.858 1.932-1.862-.024-3.924-.062-5.471-.081z"></path><path d="m31.15 22.661c-.243.133-.332.437-.2.679.132.241.434.332.678.2 1.283-.702 2.856-.27 2.921.061.055.28.33.448.587.393.271-.053.448-.315.395-.587-.256-1.306-2.769-1.623-4.381-.746z"></path></g></svg>