<svg xmlns="http://www.w3.org/2000/svg" id="Layer_1" height="512" viewBox="0 0 66 66" width="512"><g><path d="m7.05 32.25c.02 0 .04.02.05.04.41 1.2.81 2.33 1.18 3.4.22.7 1.08.97 1.67.69.14-.06.28-.15.39-.25.12-.1.21-.24.24-.3.1-.15.2-.3.31-.44.4-.59.78-1.14 1.13-1.66.18-.26.35-.51.51-.76l.24-.36c.04-.06.09-.11.15-.15.07-.07.38-.07.63-.11.25-.03.48-.06.71-.08 1.79-.22 2.79-.4 2.79-.52-.01-.12-1.03-.16-2.83-.13-.23 0-.46.01-.71.01-.12 0-.25.01-.38.01-.1 0-.36.02-.53.1-.18.08-.36.21-.48.38-.09.11-.18.23-.27.34-.18.23-.37.47-.56.72-.38.5-.79 1.03-1.23 1.6-.11.14-.22.28-.33.43-.07.09-.08.11-.11.12-.02.02-.05.03-.08.04-.1.03-.18-.02-.2-.09-.34-1.08-.7-2.23-1.07-3.43-.12-.38-.43-.68-.81-.8-.22-.05-.45-.1-.68-.16-.4-.09-.81-.18-1.23-.27-.41-.09-.83-.18-1.26-.28l-.61-.14c-.01 0-.01-.01-.01-.02s0-.01.01-.01l.47-.34c.38-.28.75-.55 1.13-.83s.76-.56 1.15-.84l.29-.21c.11-.09.15-.1.36-.28.16-.16.3-.36.37-.6.04-.12.06-.24.06-.36v-.21c0-.78 0-1.56 0-2.32 0-.38 0-.76 0-1.14 0-.09 0-.1 0-.11 0 0 0 0 0-.01.01-.02.05-.04.07-.05.03-.01.02 0 .03 0l.45.28.93.57c.61.38 1.22.74 1.81 1.1.34.22.79.24 1.13.13.29-.11.41-.16.62-.25.37-.15.74-.31 1.11-.46.73-.3 1.43-.6 2.11-.88.2-.09.19-.02.21-.03 0 .01.02-.01 0 .07-.06.16-.11.33-.17.49-.22.64-.42 1.26-.62 1.85-.1.29-.19.58-.28.86-.05.14-.09.28-.14.41-.07.18-.11.44-.06.65.04.21.19.43.3.53.09.1.18.2.26.29.17.19.34.37.5.55.64.7 1.2 1.3 1.62 1.73.27.26.1.63-.06.76-.17.16-.32.19-.32.24 0 .03.16.11.45-.02.14-.06.31-.2.42-.43.11-.22.12-.56-.1-.84-.38-.53-.85-1.16-1.44-1.92-.15-.19-.3-.39-.45-.59-.08-.1-.16-.21-.24-.31-.07-.09-.07-.1-.08-.16 0-.06 0-.08.04-.17.05-.13.11-.27.16-.4.11-.27.22-.55.33-.84.23-.57.46-1.18.71-1.81.06-.16.12-.32.19-.48.1-.23.14-.64-.02-.95-.15-.32-.45-.55-.77-.63-.31-.1-.7-.02-.9.07-.69.26-1.4.53-2.14.81-.37.14-.74.28-1.12.43l-.52.2c-.05.01-.06 0-.07-.01-.58-.37-1.17-.75-1.78-1.13-.3-.19-.61-.39-.92-.58l-.48-.3c-.28-.22-.68-.27-1.01-.19s-.63.26-.85.55c-.11.14-.2.32-.24.49-.05.18-.05.4-.05.46v1.14 2.32.16s0 0-.01.02l-.52.39c-.4.3-.8.59-1.19.88s-.78.58-1.17.87l-.29.21c-.1.09-.16.1-.35.3-.31.34-.43.8-.34 1.22s.41.78.82.92c.27.07.47.1.71.15.46.09.91.19 1.36.28s.89.18 1.32.27z"></path><path d="m31.9 8.5.21.26.39.49c.52.65 1.04 1.29 1.54 1.91l.37.46.12.15c.01.01.01.03.02.04v.05l-.07.26-.15.55c-.2.73-.4 1.44-.59 2.12-.09.34-.19.68-.28 1.01-.02.06-.06.2-.07.35s0 .3.04.44c.07.29.24.53.47.7.22.18.51.27.8.26.14 0 .28-.03.4-.08l.23-.1c.29-.12.58-.24.85-.36.56-.24 1.08-.46 1.59-.68.25-.11.49-.21.73-.31.12-.05.23-.1.35-.15.14-.06.13-.06.2-.07.11-.02.19.04.42.19.19.12.37.24.54.35.35.22.67.42.95.6 1.15.71 1.82 1.06 1.87.98s-.5-.58-1.56-1.43c-.27-.21-.56-.44-.88-.7-.16-.13-.33-.26-.51-.39-.11-.08-.14-.12-.31-.23-.15-.09-.33-.14-.52-.15-.17-.02-.42.06-.51.1-.12.04-.24.08-.36.13-.24.09-.49.17-.75.26-.51.18-1.05.38-1.62.58-.28.1-.57.21-.87.32l-.21.08c-.03.01-.05.01-.07.01-.04 0-.08-.02-.11-.05s-.06-.07-.06-.12c0-.02 0-.04 0-.07 0-.02.01-.04.04-.14.1-.33.21-.66.31-1 .21-.68.43-1.38.65-2.1l.17-.55.09-.29c.05-.17.06-.35.04-.52-.02-.18-.07-.35-.16-.51-.04-.07-.11-.17-.14-.21l-.09-.12-.36-.47c-.49-.63-.99-1.28-1.5-1.94l-.39-.5-.18-.24c-.01-.01-.01-.02-.01-.03-.01-.04.04-.1.06-.09.86-.02 1.73-.04 2.62-.06.45-.01.9-.02 1.36-.04l.21-.01c.11-.01.22-.03.33-.07.21-.07.41-.19.57-.34.08-.08.15-.17.2-.25l.09-.14.19-.29c.5-.78.99-1.54 1.47-2.3l.36-.57.09-.14c.03-.06.06-.09.06-.08.01-.01.01-.01.01-.01s.02-.01.03 0c0 0 .01 0 .01.01.01.03-.01-.04.04.09.29.82.57 1.63.85 2.41.14.39.28.78.41 1.17l.1.29c.06.18.16.35.29.48.22.29.73.43.84.45.77.2 1.53.4 2.26.59.37.09.73.19 1.08.28l.47.12c.04.01.06.03.08.06.04.08.03.18-.04.24-.27.22-.53.43-.78.64-.51.42-1 .82-1.46 1.2-.23.19-.46.38-.68.56l-.35.3c-.16.16-.28.36-.33.56-.06.21-.03.44-.02.54.01.13.02.26.03.39.02.26.04.5.06.74.09.96.17 1.78.23 2.45.02.16.04.32.05.47.01.11-.01.2-.05.29-.08.18-.24.28-.37.32-.29.08-.47-.04-.49.01-.03.01.09.26.53.26.21-.01.49-.11.69-.38.1-.14.16-.31.17-.51 0-.15.01-.32.01-.49 0-.68 0-1.5 0-2.46 0-.24 0-.49-.01-.74.01-.23-.03-.61.01-.65.02-.05.05-.1.1-.13l.31-.23c.23-.17.47-.35.71-.53.48-.36.99-.74 1.52-1.13.26-.2.53-.4.81-.61.49-.36.67-1.09.38-1.64-.14-.28-.39-.53-.69-.64-.18-.07-.21-.07-.32-.1l-.26-.06c-.35-.1-.71-.21-1.07-.31-.73-.21-1.48-.42-2.24-.64-.27-.08-.17-.05-.22-.08-.01-.01-.01-.02-.02-.04l-.1-.29c-.13-.39-.26-.78-.39-1.18-.27-.79-.54-1.6-.81-2.43-.06-.26-.36-.74-.74-.89-.38-.19-.85-.19-1.24 0-.2.09-.37.24-.5.4-.07.1-.11.15-.13.19l-.09.14-.36.56c-.48.76-.98 1.52-1.47 2.3l-.21.3-.09.14-.01.01c-.01.01-.01.01-.01.01h-.01-.13c-.46.03-.91.04-1.36.05-.91.03-1.8.06-2.68.09-.88.05-1.49.96-1.28 1.76.05.2.14.39.26.54z"></path><path d="m63.35 28.87c-.15-.13-.18-.14-.26-.21l-.22-.17c-.29-.22-.59-.44-.89-.67-.61-.45-1.23-.92-1.87-1.4-.23-.17-.14-.11-.17-.15 0-.01 0-.02 0-.04l.01-.31c.02-.41.03-.82.05-1.24.03-.84.07-1.69.1-2.56.04-.27-.07-.82-.38-1.1-.29-.31-.72-.48-1.16-.44-.22.02-.43.09-.61.2-.1.06-.16.1-.19.13l-.13.1-.54.4c-.72.53-1.45 1.08-2.19 1.62l-.28.21-.14.1-.01.01c-.01 0-.02 0-.02 0h-.01l-.13-.04c-.43-.15-.86-.3-1.28-.44-.86-.29-1.7-.58-2.54-.87-.85-.26-1.73.37-1.82 1.19-.03.2-.01.41.05.6l.1.32.19.6c.26.8.51 1.57.76 2.33l.18.57.06.18v.05c0 .02-.01.03-.02.05l-.16.22-.34.46c-.45.61-.88 1.2-1.3 1.77-.21.29-.42.57-.62.85-.04.05-.13.17-.19.3s-.11.28-.12.42c-.04.29.04.58.19.82s.38.43.65.53c.13.05.27.07.41.07l.25-.01c.32-.01.62-.02.93-.03.6-.02 1.18-.05 1.72-.07.27-.01.54-.02.79-.03.13-.01.25-.01.38-.02.15-.01.14-.01.21.01.11.02.16.1.32.32.13.18.26.35.38.52.25.33.48.63.68.9.83 1.07 1.32 1.64 1.4 1.58.08-.05-.26-.72-.95-1.89-.17-.29-.37-.61-.58-.97-.11-.18-.22-.36-.34-.55-.07-.11-.09-.16-.21-.32-.11-.14-.26-.25-.43-.32-.15-.08-.41-.09-.51-.09-.12 0-.25-.01-.38-.01-.26-.01-.52-.01-.79-.02-.54-.01-1.12-.02-1.72-.03-.3 0-.61-.01-.93-.01h-.22c-.03 0-.05-.01-.06-.02-.03-.02-.07-.04-.09-.09-.02-.04-.03-.09-.02-.13 0-.02.01-.04.02-.06s.02-.04.09-.12c.21-.27.43-.54.65-.82.44-.56.89-1.14 1.36-1.73l.35-.45.19-.24c.1-.14.18-.3.23-.48.04-.17.06-.35.03-.53-.01-.08-.04-.2-.06-.25l-.04-.14-.17-.57c-.23-.76-.47-1.55-.71-2.35l-.18-.6-.09-.29c0-.02 0-.02 0-.03.01-.04.07-.08.08-.06.81.29 1.63.58 2.47.87.42.15.85.3 1.28.45l.2.07c.11.03.22.05.33.06.22.01.45-.03.65-.12.1-.04.2-.1.28-.16l.14-.1.28-.21c.74-.55 1.47-1.09 2.19-1.63l.54-.4.13-.1c.05-.04.09-.06.08-.06.01 0 .02-.01.02-.01s.02 0 .03.01c0 0 .01 0 .01.01 0 .03.01-.05 0 .1-.02.87-.05 1.72-.07 2.56-.01.42-.02.83-.03 1.24l-.01.31c0 .19.03.38.1.56.1.35.53.67.63.72.65.46 1.29.91 1.9 1.35.31.22.61.43.91.65l.4.28c.03.02.04.05.05.09.01.09-.03.18-.12.21-.33.11-.64.21-.96.32-.62.21-1.22.41-1.8.6-.29.1-.56.19-.84.29-.15.05-.29.1-.44.15-.21.09-.38.23-.51.41s-.19.4-.22.5c-.04.13-.07.25-.11.38-.07.25-.14.49-.21.72-.25.93-.47 1.72-.65 2.38-.04.16-.08.31-.12.45-.03.1-.08.19-.15.25-.14.14-.32.18-.46.17-.3-.03-.42-.2-.47-.16-.03 0-.01.27.41.44.2.07.5.08.78-.11.14-.09.26-.24.34-.41.06-.14.12-.29.18-.45.24-.63.54-1.4.88-2.3.08-.23.17-.46.26-.7.09-.21.19-.58.24-.6.04-.04.09-.08.14-.09.12-.03.25-.07.37-.1.28-.08.56-.16.85-.24.58-.17 1.19-.34 1.82-.52.32-.09.64-.18.97-.28.58-.16 1.01-.78.94-1.4.02-.37-.12-.69-.37-.91z"></path><path d="m42.66 43.36c1.09-1.45 2.15-2.7 3.11-3.7 1.9-2 3.24-3.1 3.11-3.28-.09-.13-1.66.69-3.8 2.56-1.08.93-2.25 2.16-3.44 3.62-1.17 1.48-2.33 3.21-3.35 5.14-1 1.94-1.75 3.88-2.29 5.68-.52 1.81-.85 3.48-1 4.9-.31 2.83-.09 4.59.07 4.58.22 0 .35-1.72.9-4.43.27-1.35.69-2.94 1.25-4.66.59-1.72 1.35-3.56 2.31-5.43.98-1.83 2.06-3.51 3.13-4.98z"></path><path d="m55.5 45.16c-1.33.5-2.86 1.24-4.48 2.2-1.61.98-3.3 2.2-4.92 3.65-1.61 1.47-2.99 3.03-4.13 4.53-1.12 1.52-2.01 2.97-2.64 4.24-1.28 2.55-1.68 4.27-1.52 4.33.21.08.93-1.49 2.39-3.84.72-1.18 1.67-2.52 2.79-3.94 1.15-1.4 2.5-2.87 4.05-4.29 1.56-1.4 3.16-2.59 4.67-3.6 1.53-.98 2.95-1.79 4.2-2.39 2.48-1.21 4.12-1.78 4.06-1.99-.06-.14-1.81.09-4.47 1.1z"></path><path d="m28.23 22.03c-.6 1.29-1.18 2.89-1.67 4.71-.46 1.83-.82 3.88-.97 6.05-.12 2.18-.02 4.26.22 6.13.26 1.87.64 3.53 1.08 4.88.87 2.71 1.78 4.23 1.93 4.16.21-.09-.38-1.72-.97-4.41-.31-1.34-.57-2.97-.75-4.77-.15-1.81-.22-3.8-.1-5.89.14-2.09.45-4.06.82-5.84.41-1.77.86-3.35 1.33-4.64.92-2.6 1.7-4.15 1.51-4.26-.14-.09-1.23 1.3-2.43 3.88z"></path><path d="m38.15 28.02c.99-1.52 1.97-2.84 2.86-3.89 1.77-2.12 3.04-3.3 2.89-3.47-.1-.13-1.61.79-3.63 2.8-1.01 1-2.11 2.3-3.2 3.84-1.07 1.55-2.12 3.35-3.01 5.34-.87 2-1.49 3.99-1.92 5.82-.4 1.84-.63 3.53-.68 4.95-.13 2.85.21 4.58.37 4.57.22-.01.24-1.74.62-4.48.18-1.37.5-2.98.95-4.73.48-1.75 1.12-3.64 1.95-5.56.86-1.91 1.83-3.65 2.8-5.19z"></path><path d="m22.82 46.04c-2.19-3.43-4.64-6.21-6.57-8.02-1.94-1.82-3.31-2.74-3.42-2.6-.29.32 4.58 4.66 8.81 11.38 4.3 6.67 6.18 12.93 6.59 12.8.17-.05-.08-1.68-.91-4.2-.83-2.53-2.32-5.92-4.5-9.36z"></path><path d="m17.82 49.39c-2.85-2.9-5.82-5.11-8.09-6.49s-3.8-1.99-3.89-1.84c-.22.37 5.45 3.61 10.98 9.31 5.59 5.64 8.72 11.37 9.1 11.15.16-.08-.43-1.62-1.76-3.92-1.34-2.29-3.49-5.3-6.34-8.21z"></path><path d="m16.12 17.77c.6-.04 1.16-.32 1.54-.69.39-.37.63-.83.76-1.29.26-.94-.09-1.9-.65-2.37-.57-.49-1.17-.52-1.52-.47-.36.06-.52.19-.51.28.01.1.19.16.46.26.26.1.62.28.85.61s.32.81.13 1.31c-.18.5-.65.94-1.15.96-.53.04-1.13-.31-1.38-.73-.26-.41-.25-.92-.06-1.27.43-.75 1.2-.95 1.15-1.15-.01-.09-.2-.18-.56-.15-.35.03-.9.17-1.39.71-.49.53-.74 1.55-.28 2.46.44.89 1.42 1.59 2.61 1.53z"></path><path d="m17.77 59.22c-.57-.49-1.17-.52-1.52-.47-.36.06-.52.19-.51.28.01.1.19.16.46.26.26.1.62.28.85.61s.32.81.13 1.31c-.18.5-.65.94-1.15.96-.53.04-1.13-.31-1.38-.73-.26-.41-.25-.92-.06-1.27.43-.75 1.2-.95 1.15-1.15-.01-.09-.2-.18-.56-.15-.35.03-.9.17-1.39.71-.49.53-.74 1.55-.28 2.46.44.88 1.41 1.58 2.61 1.52.6-.04 1.16-.32 1.54-.69.39-.37.63-.83.76-1.29.26-.93-.09-1.89-.65-2.36z"></path><path d="m43.86 31.19c-.57-.49-1.17-.52-1.52-.47-.36.06-.52.19-.51.28.01.1.2.16.46.26s.62.28.85.61.32.81.13 1.31c-.18.5-.65.94-1.15.96-.53.04-1.13-.31-1.38-.73-.26-.41-.25-.92-.06-1.27.43-.75 1.2-.95 1.15-1.15-.01-.09-.2-.18-.56-.15-.35.03-.9.17-1.39.71-.49.53-.74 1.55-.28 2.46.44.88 1.41 1.58 2.61 1.52.6-.04 1.16-.32 1.54-.69.39-.37.63-.83.76-1.29.26-.93-.08-1.89-.65-2.36z"></path><path d="m54.72 11.41c.6-.04 1.16-.32 1.54-.69.39-.37.63-.83.76-1.29.26-.94-.09-1.9-.65-2.37-.57-.49-1.17-.52-1.52-.47-.36.06-.52.19-.51.28.01.1.2.16.46.26s.62.28.85.61.32.81.13 1.31c-.18.5-.65.94-1.15.96-.53.04-1.13-.31-1.38-.73-.26-.4-.25-.91-.06-1.26.43-.75 1.2-.95 1.15-1.15-.01-.09-.2-.18-.56-.15-.35.03-.9.17-1.39.71-.49.53-.74 1.55-.28 2.46.44.89 1.42 1.59 2.61 1.52z"></path><path d="m21.1 9.43c1.75 1.27 2.93 2.61 3.09 2.48.15-.1-.83-1.71-2.67-3.05-1.84-1.35-3.67-1.8-3.72-1.62-.07.19 1.56.9 3.3 2.19z"></path><path d="m25.58 10.52c.17-.07-.23-1.41-1.32-2.71s-2.35-1.93-2.44-1.77c-.11.17.89 1 1.9 2.22 1.03 1.2 1.68 2.34 1.86 2.26z"></path><path d="m53.17 16.65c.29.51 1.7.25 3.28-.24 1.58-.5 2.89-1.09 2.83-1.68-.04-.57-1.64-.9-3.46-.33s-2.94 1.76-2.65 2.25z"></path><path d="m58.29 17.75c-.72.12-1.13.41-1.12.7.05.59 1.5.96 3.1 1.61 1.61.62 2.91 1.36 3.35.97.2-.2.11-.69-.33-1.28-.43-.58-1.22-1.23-2.25-1.64-1.01-.41-2.04-.49-2.75-.36z"></path></g></svg>