<svg xmlns="http://www.w3.org/2000/svg" xmlns:xlink="http://www.w3.org/1999/xlink" id="Layer_1" x="0px" y="0px" viewBox="0 0 512.002 512.002" style="enable-background:new 0 0 512.002 512.002;" xml:space="preserve"><g>	<g>		<path d="M371.31,145.255c-7.076-1.147-15.108,3.908-21.103,7.28c-7.014,3.945-12.575,8.891-19.043,13.563   c-6.591,4.76-12.702,9.643-18.44,15.427c-5.114,5.156-11.468,10.71-12.953,18.145c-0.49,2.449,2.155,5.156,4.576,3.518   c5.521-3.735,10.249-9.093,15.062-13.736c5.415-5.223,11.035-9.739,17.195-14.047c5.375-3.76,9.964-8.319,15.73-11.5   c6.615-3.649,13.923-6.196,20.032-10.564C375.087,151.397,375.445,145.925,371.31,145.255z"></path>	</g></g><g>	<g>		<path d="M316.29,150.26c1.34-2.338,4.672-5.348,4.34-8.196c-0.356-3.062-3.063-3.742-5.687-3.977   c-1.861-0.166-4.193-0.044-5.947-0.74c-2.208-0.875-2.129-2.073-2.917-4.562c-1.344-4.245-2.37-8.798-3.905-12.946   c-0.927-2.503-3.043-4.319-5.832-3.194c-2.095,0.845-3.088,3.153-3.603,5.334c-1.192,2.525-2.026,5.089-2.837,7.855   c-0.217,0.74-1.071,5.78-1.398,6.036c-0.37,0.29-2.608-0.044-3.275-0.003c-3.885,0.242-8.041,0.083-11.883,0.475   c-2.284,0.233-4.275,0.961-4.899,3.393c-1.338,5.21,7.669,9.299,10.882,11.889c1.827,1.473,2.584,1.871,2.627,4.004   c0.039,1.965-1.043,4.3-1.376,6.253c-0.597,3.516-1.808,7.562-1.408,11.094c0.226,1.995,1.381,3.134,3.38,3.38   c5.367,0.659,10.715-8.002,13.476-11.519c0.332-0.423,0.703-1.085,1.107-1.664c-0.436,1.322,1.804,2.714,2.974,3.787   c3.289,3.016,5.825,6.671,9.897,8.699c1.62,0.807,4.259,0.263,4.602-1.872c0.706-4.382-0.662-8.466-1.597-12.74   c-0.525-2.396-1.197-3.611,0.004-5.708C314.001,153.617,315.29,152.006,316.29,150.26z M312.283,144.636   c-1.743,2.853-3.631,5.698-5.356,8.546c-2.378,3.93-0.189,8.674,1.036,13.231c-1.87-1.76-3.622-3.713-5.243-5.361   c-2.043-2.076-4.171-5.482-7.605-4.281c-2.448,0.856-4.554,4.559-6.121,6.419c-0.416,0.494-1.401,1.808-2.506,3.118   c0.393-2.054,0.883-4.082,1.209-5.779c0.533-2.779,2.013-6.03,0.717-8.786c-1.499-3.187-5.338-5.393-8.031-7.458   c-0.274-0.21-0.687-0.609-1.154-1.057c2.417-0.232,4.872-0.815,7.164-0.935c2.411-0.127,4.807,0.331,6.667-1.616   c2.395-2.508,2.378-8.002,2.995-11.171c0.186-0.956,0.422-1.967,0.614-2.993c0.091-0.078,0.183-0.155,0.269-0.25   c1.072,3.674,2.444,7.315,3.773,10.895c0.833,2.247,1.365,4.227,3.565,5.399c2.131,1.135,5.593,1.326,7.924,1.592   c-0.049-0.006,0.075,0.01,0.291,0.035C312.421,144.334,312.338,144.477,312.283,144.636z"></path>	</g></g><g>	<g>		<path d="M337.067,81.558c-9.395,1.297-18.639,15.071-9.553,22.282c0.58,1.318,1.334,2.509,2.259,3.485   c7.15,7.546,20.222,5.762,23.917-4.493C356.941,93.811,346.784,80.217,337.067,81.558z M346.452,101.019   c-2.233,4.367-7.276,5.144-11.202,2.698c-2.827-1.761-4.729-6.054-4.516-9.855c0.132-0.377,0.292-0.758,0.516-1.145   c1.445-2.503,4.739-4.774,7.605-4.347C343.342,89.039,348.767,96.492,346.452,101.019z"></path>	</g></g><g>	<g>		<path d="M367.868,56.102c-0.99-8.674-11.515-18.454-20.115-12.709c-4.464,2.982-13.602,16.896-6.065,20.934   c1.192,2.803,3.615,4.867,6.629,6.171C357.648,74.532,369.045,66.404,367.868,56.102z M350.359,63.094   c-2.413-0.931-3.436-2.381-3.714-4.083c0.208-2.775,1.703-5.748,3.652-7.535c3.511-3.218,8.393,1.098,9.128,5.015   C360.377,61.563,354.479,64.685,350.359,63.094z"></path>	</g></g><g>	<g>		<path d="M375.902,111.101c-9.667,2.84-18.264,8.716-26.209,14.759c-4.242,3.224-8.177,6.813-12.317,10.163   c-3.072,2.486-7.173,5.739-8.467,9.581c-0.318,0.943,0.367,2.019,1.288,2.269c0.168,0.046,0.334,0.072,0.499,0.103   c0.033,0.027,0.064,0.056,0.105,0.074c0.115,0.051,0.23,0.103,0.346,0.154c0.463,0.206,1.088,0.346,1.54,0   c0.115-0.088,0.237-0.164,0.359-0.24c1.246-0.243,2.427-0.824,3.561-1.543c0.101-0.052,0.205-0.101,0.304-0.158   c0.768-0.445,1.449-0.983,2.109-1.546c0.633-0.473,1.256-0.939,1.872-1.358c4.808-3.27,9.415-6.801,14.209-10.085   c2.888-1.979,5.832-3.918,8.825-5.766c3.99-2.197,8.503-3.554,12.3-6.024c0.04-0.026,0.069-0.058,0.107-0.084   c1.849-0.857,3.511-1.947,4.63-3.716C383.056,114.378,379.59,110.018,375.902,111.101z"></path>	</g></g><g>	<g>		<path d="M409.137,96.487c-3.392-2.128-6.707-0.046-10.018,1.155c-0.548,0.198-1.082,0.422-1.61,0.655   c-3.36,0.626-7.06,3.481-9.527,4.59c-5.085,2.284-1.476,10.828,3.806,9.03c3.463-1.179,6.671-2.969,10.126-4.133   c3.268-1.102,6.985-2.321,8.728-5.556C411.742,100.185,411.113,97.727,409.137,96.487z"></path>	</g></g><g>	<g>		<path d="M433.03,84.448c-3.617-1.708-6.409-0.26-9.386,1.868c-1.961,1.401-4.184,2.03-5.737,3.981   c-1.982,2.488-0.713,5.833,2.532,6.114c4.611,0.4,11.879-1.174,14.241-5.671C435.757,88.689,435.359,85.548,433.03,84.448z"></path>	</g></g><g>	<g>		<path d="M388.098,47.548c-2.478,2.056-2.775,5.735-3,8.717c-0.242,3.223-0.804,7.107,0.944,9.981   c0.835,1.373,2.905,1.77,4.06,0.523c3.383-3.657,3.308-9.059,5.863-13.151C399.157,48.505,392.252,44.1,388.098,47.548z"></path>	</g></g><g>	<g>		<path d="M420.228,58.285c-3.291-2.397-7.786-0.845-11.268,0.351c-3.38,1.161-7.721,2.785-9.577,6.041   c-0.591,1.036-0.222,2.32,0.773,2.948c2.966,1.87,6.813,0.838,10.092,0.531c3.511-0.329,7.013-0.699,9.98-2.773   C422.902,63.516,422.814,60.167,420.228,58.285z"></path>	</g></g><g>	<g>		<path d="M413.71,78.487c-1.362-1.592-3.097-2.374-5.026-3.096c-1.195-0.448-3.059-0.712-4.647-0.505   c-1.077-0.735-2.91-0.478-3.121,1.032c-0.097,0.697-0.083,1.292,0.142,1.879c0.109,1.789,1.878,3.145,3.01,4.402   c1.216,1.351,2.163,2.864,3.856,3.787c2.072,1.13,4.85,1.119,6.385-0.87C415.889,83.068,415.292,80.337,413.71,78.487z"></path>	</g></g><g>	<g>		<path d="M304.134,53.656c-0.102-2.384-0.02-4.745-2.051-6.373c-1.69-1.354-3.483-1.411-5.356-0.377   c-1.449,0.8-2.429,2.509-2.388,4.164c0.12,4.867,0.927,11.289,4.327,15.054c1.19,1.316,3.219,0.797,4.102-0.529   C304.884,62.417,304.29,57.289,304.134,53.656z"></path>	</g></g><g>	<g>		<path d="M308.235,64.571c-0.524,0.758-0.137,1.891,0.611,2.331c2.673,1.57,6.364,1.227,9.366,1.253   c2.249,0.019,4.44,0.19,6.686,0.06c1.847-0.107,3.725-1.563,3.597-3.596C327.896,55.055,311.636,59.638,308.235,64.571z"></path>	</g></g><g>	<g>		<path d="M285.66,93.745c-3.181,5.423-7.971,9.781-10.846,15.497c-0.878,1.747-1.987,3.792-2.943,5.942   c-1.793,2.557-3.687,4.94-4.763,7.934c-2.215,6.165,7.601,8.821,9.799,2.702c0.898-2.5,3.192-4.858,4.49-7.186   c1.501-2.692,2.632-5.578,4.114-8.29c1.134-2.073,2.586-4.259,3.704-6.547c1.51-1.799,2.909-3.65,3.937-5.672   C295.668,93.174,288.507,88.891,285.66,93.745z"></path>	</g></g><g>	<g>		<path d="M302.532,82.875c-0.01-0.028-0.02-0.056-0.03-0.085c-0.277-0.787-0.671-1.425-1.34-1.942   c-0.6-0.464-1.482-0.888-2.265-0.803c-0.024,0.003-0.048,0.005-0.071,0.008c-1.002,0.108-2,0.343-2.718,1.126   c-0.7,0.763-1.099,1.668-1.126,2.718c-0.003,0.13-0.009,0.258-0.023,0.388l0.047-0.353c-0.094,1.091,0.142,2.108,0.976,2.941   c0.859,0.859,2.265,1.303,3.449,0.912c0.458-0.152,0.902-0.354,1.335-0.569c0.73-0.363,1.268-1.115,1.572-1.838   C302.654,84.63,302.811,83.667,302.532,82.875z"></path>	</g></g><g>	<g>		<path d="M207.654,308.811c-5.521,3.735-10.249,9.093-15.062,13.736c-5.415,5.223-11.035,9.739-17.195,14.047   c-5.375,3.759-9.964,8.319-15.73,11.5c-6.615,3.648-13.923,6.196-20.032,10.564c-2.721,1.945-3.08,7.417,1.055,8.087   c7.076,1.147,15.108-3.908,21.103-7.281c7.014-3.945,12.575-8.891,19.043-13.563c6.591-4.761,12.702-9.643,18.44-15.427   c5.114-5.156,11.468-10.71,12.954-18.145C212.72,309.88,210.075,307.173,207.654,308.811z"></path>	</g></g><g>	<g>		<path d="M232.673,360.376c-1.827-1.473-2.584-1.871-2.627-4.004c-0.039-1.965,1.043-4.3,1.376-6.253   c0.597-3.516,1.808-7.562,1.408-11.094c-0.226-1.995-1.381-3.134-3.38-3.38c-5.367-0.659-10.715,8.002-13.476,11.519   c-0.332,0.423-0.703,1.085-1.107,1.664c0.436-1.322-1.804-2.714-2.974-3.787c-3.289-3.016-5.825-6.67-9.897-8.699   c-1.62-0.807-4.259-0.263-4.602,1.872c-0.705,4.382,0.662,8.466,1.597,12.741c0.524,2.396,1.197,3.611-0.004,5.708   c-0.986,1.721-2.276,3.332-3.275,5.078c-1.339,2.338-4.672,5.347-4.34,8.196c0.356,3.062,3.063,3.742,5.687,3.977   c1.861,0.166,4.193,0.044,5.947,0.74c2.208,0.875,2.129,2.073,2.917,4.561c1.344,4.245,2.37,8.798,3.905,12.946   c0.926,2.504,3.042,4.319,5.832,3.194c2.095-0.845,3.088-3.153,3.603-5.334c1.192-2.525,2.026-5.089,2.837-7.855   c0.217-0.74,1.071-5.78,1.398-6.036c0.37-0.29,2.608,0.044,3.275,0.003c3.885-0.242,8.041-0.083,11.883-0.475   c2.285-0.233,4.275-0.961,4.899-3.393C244.893,367.055,235.886,362.966,232.673,360.376z M225.608,369.706   c-2.411,0.127-4.807-0.331-6.667,1.616c-2.395,2.508-2.378,8.002-2.995,11.171c-0.186,0.956-0.422,1.967-0.614,2.993   c-0.091,0.078-0.183,0.155-0.269,0.25c-1.072-3.673-2.444-7.315-3.773-10.894c-0.834-2.247-1.366-4.227-3.565-5.399   c-2.131-1.135-5.593-1.326-7.924-1.592c0.049,0.006-0.075-0.01-0.291-0.036c0.07-0.15,0.154-0.292,0.208-0.452   c1.743-2.853,3.631-5.698,5.356-8.546c2.378-3.93,0.189-8.674-1.036-13.231c1.87,1.76,3.622,3.713,5.243,5.361   c2.043,2.077,4.171,5.482,7.605,4.281c2.448-0.856,4.554-4.559,6.121-6.419c0.416-0.494,1.401-1.808,2.506-3.118   c-0.393,2.054-0.883,4.082-1.209,5.779c-0.533,2.779-2.013,6.029-0.717,8.786c1.499,3.187,5.338,5.393,8.031,7.458   c0.274,0.21,0.687,0.609,1.154,1.057C230.355,369.003,227.9,369.586,225.608,369.706z"></path>	</g></g><g>	<g>		<path d="M184.486,408.16c-0.58-1.318-1.334-2.509-2.259-3.485c-7.15-7.546-20.222-5.762-23.917,4.493   c-3.251,9.021,6.906,22.616,16.623,21.274C184.328,429.145,193.573,415.371,184.486,408.16z M181.267,418.138   c-0.132,0.377-0.292,0.757-0.516,1.144c-1.445,2.503-4.739,4.774-7.605,4.347c-4.487-0.669-9.912-8.121-7.597-12.649   c2.233-4.367,7.276-5.144,11.202-2.698C179.578,410.044,181.48,414.337,181.267,418.138z"></path>	</g></g><g>	<g>		<path d="M170.313,447.673c-1.192-2.803-3.615-4.867-6.629-6.171c-9.331-4.034-20.728,4.095-19.551,14.396   c0.99,8.674,11.515,18.454,20.115,12.709C168.712,465.625,177.849,451.711,170.313,447.673z M161.704,460.524   c-3.511,3.218-8.393-1.098-9.128-5.015c-0.952-5.071,4.946-8.193,9.066-6.603c2.413,0.932,3.436,2.381,3.714,4.083   C165.148,455.764,163.653,458.737,161.704,460.524z"></path>	</g></g><g>	<g>		<path d="M181.804,364.127c-0.168-0.046-0.334-0.072-0.499-0.103c-0.033-0.027-0.064-0.056-0.105-0.074   c-0.115-0.051-0.23-0.103-0.346-0.154c-0.463-0.207-1.088-0.345-1.54,0c-0.115,0.088-0.237,0.164-0.359,0.24   c-1.246,0.243-2.427,0.824-3.561,1.543c-0.101,0.052-0.205,0.101-0.304,0.158c-0.768,0.445-1.449,0.984-2.109,1.546   c-0.633,0.473-1.256,0.939-1.872,1.358c-4.808,3.27-9.415,6.801-14.209,10.085c-2.888,1.979-5.832,3.918-8.825,5.766   c-3.99,2.197-8.503,3.554-12.3,6.024c-0.04,0.026-0.069,0.057-0.107,0.084c-1.849,0.857-3.511,1.947-4.63,3.716   c-2.092,3.306,1.374,7.666,5.061,6.583c9.667-2.84,18.264-8.716,26.209-14.759c4.241-3.224,8.177-6.813,12.317-10.163   c3.072-2.486,7.173-5.739,8.467-9.581C183.41,365.453,182.725,364.377,181.804,364.127z"></path>	</g></g><g>	<g>		<path d="M120.213,400.083c-3.463,1.179-6.671,2.969-10.126,4.134c-3.268,1.102-6.985,2.321-8.728,5.555   c-1.1,2.043-0.471,4.501,1.505,5.741c3.392,2.128,6.707,0.046,10.019-1.155c0.548-0.198,1.082-0.422,1.61-0.655   c3.36-0.626,7.06-3.481,9.527-4.59C129.104,406.829,125.495,398.285,120.213,400.083z"></path>	</g></g><g>	<g>		<path d="M91.562,415.589c-4.612-0.4-11.879,1.174-14.241,5.671c-1.077,2.051-0.679,5.193,1.65,6.292   c3.618,1.708,6.409,0.26,9.386-1.868c1.961-1.401,4.183-2.03,5.737-3.981C96.076,419.215,94.807,415.87,91.562,415.589z"></path>	</g></g><g>	<g>		<path d="M125.959,445.754c-0.835-1.373-2.905-1.77-4.06-0.523c-3.382,3.657-3.308,9.059-5.863,13.151   c-3.192,5.113,3.713,9.518,7.867,6.07c2.478-2.056,2.775-5.735,3-8.717C127.145,452.512,127.707,448.628,125.959,445.754z"></path>	</g></g><g>	<g>		<path d="M111.845,444.375c-2.966-1.87-6.813-0.838-10.092-0.531c-3.511,0.329-7.013,0.699-9.98,2.773   c-2.674,1.867-2.585,5.216,0,7.098c3.291,2.397,7.786,0.845,11.268-0.351c3.38-1.161,7.721-2.785,9.577-6.041   C113.208,446.287,112.839,445.003,111.845,444.375z"></path>	</g></g><g>	<g>		<path d="M110.942,434.204c-0.109-1.789-1.878-3.145-3.01-4.402c-1.216-1.351-2.163-2.864-3.856-3.787   c-2.072-1.13-4.85-1.119-6.385,0.87c-1.58,2.047-0.983,4.778,0.599,6.629c1.363,1.592,3.098,2.374,5.026,3.096   c1.195,0.448,3.059,0.712,4.647,0.505c1.077,0.735,2.91,0.478,3.121-1.032C111.181,435.385,111.167,434.791,110.942,434.204z"></path>	</g></g><g>	<g>		<path d="M213.333,445.878c-1.188-1.317-3.217-0.798-4.101,0.528c-2.116,3.177-1.522,8.306-1.367,11.939   c0.102,2.384,0.02,4.746,2.051,6.373c1.69,1.354,3.483,1.411,5.356,0.377c1.449-0.8,2.429-2.509,2.388-4.163   C217.54,456.065,216.733,449.643,213.333,445.878z"></path>	</g></g><g>	<g>		<path d="M203.155,445.098c-2.673-1.57-6.364-1.227-9.366-1.253c-2.249-0.019-4.44-0.19-6.686-0.06   c-1.847,0.108-3.725,1.563-3.597,3.597c0.599,9.564,16.859,4.981,20.26,0.048C204.29,446.671,203.903,445.538,203.155,445.098z"></path>	</g></g><g>	<g>		<path d="M235.094,386.181c-0.898,2.5-3.192,4.858-4.49,7.186c-1.501,2.692-2.632,5.578-4.114,8.289   c-1.134,2.073-2.586,4.259-3.704,6.547c-1.51,1.799-2.909,3.65-3.937,5.672c-2.516,4.95,4.645,9.234,7.492,4.38   c3.181-5.422,7.972-9.781,10.846-15.497c0.878-1.746,1.987-3.792,2.943-5.942c1.793-2.557,3.687-4.94,4.763-7.934   C247.109,382.718,237.293,380.063,235.094,386.181z"></path>	</g></g><g>	<g>		<path d="M216.995,428.068c0.094-1.091-0.142-2.108-0.976-2.941c-0.859-0.859-2.265-1.303-3.449-0.912   c-0.458,0.152-0.902,0.354-1.335,0.569c-0.73,0.363-1.268,1.115-1.572,1.838c-0.316,0.749-0.473,1.711-0.194,2.503   c0.01,0.028,0.02,0.056,0.03,0.085c0.277,0.787,0.671,1.425,1.34,1.942c0.6,0.464,1.482,0.888,2.265,0.803   c0.024-0.003,0.048-0.005,0.071-0.008c1.002-0.109,2-0.343,2.718-1.126c0.7-0.763,1.099-1.668,1.126-2.718   c0.003-0.13,0.009-0.258,0.023-0.388L216.995,428.068z"></path>	</g></g><g>	<g>		<path d="M415.845,259.229c-4.193-5.815-13.446-7.919-20.07-9.774c-7.749-2.17-15.179-2.605-23.056-3.875   c-8.026-1.295-15.8-2.163-23.947-2.131c-7.262,0.03-15.682-0.536-21.99,3.671c-2.078,1.385-2.122,5.17,0.748,5.724   c6.545,1.263,13.677,0.818,20.364,0.938c7.522,0.136,14.689,0.916,22.091,2.226c6.459,1.142,12.928,1.163,19.255,2.991   c7.257,2.098,14.226,5.463,21.634,6.695C414.173,266.242,418.296,262.627,415.845,259.229z"></path>	</g></g><g>	<g>		<path d="M384.93,192.37c1.115-2.426,0.903-5.206-1.865-6.383c-2.079-0.884-4.413,0.046-6.319,1.224   c-2.628,0.942-5.031,2.166-7.56,3.548c-0.677,0.37-4.844,3.329-5.256,3.28c-0.467-0.056-1.813-1.875-2.314-2.318   c-2.918-2.576-5.745-5.628-8.739-8.067c-1.78-1.45-3.703-2.343-5.864-1.065c-4.63,2.738-1.152,11.998-0.712,16.102   c0.25,2.334,0.504,3.15-0.974,4.688c-1.362,1.417-3.779,2.303-5.394,3.449c-2.909,2.064-6.625,4.069-8.841,6.849   c-1.251,1.571-1.24,3.193,0,4.78c3.329,4.261,13.234,1.919,17.675,1.383c0.534-0.064,1.265-0.27,1.959-0.394   c-1.244,0.626-0.644,3.195-0.575,4.781c0.193,4.458-0.598,8.836,0.847,13.15c0.574,1.716,2.825,3.197,4.578,1.93   c3.598-2.6,5.519-6.454,7.88-10.138c1.324-2.066,1.707-3.4,4.039-4.033c1.914-0.52,3.966-0.747,5.907-1.275   c2.601-0.706,7.085-0.478,8.865-2.727c1.913-2.417,0.48-4.812-1.21-6.833c-1.198-1.434-2.934-2.996-3.682-4.729   c-0.942-2.18-0.039-2.971,1.163-5.288C380.588,200.333,383.082,196.388,384.93,192.37z M370.353,209.919   c0.704,2.309,3.017,4.892,4.477,6.729c-0.031-0.038,0.046,0.06,0.18,0.23c-0.155,0.057-0.315,0.098-0.467,0.172   c-3.25,0.785-6.597,1.461-9.83,2.256c-4.461,1.097-6.267,6.001-8.623,10.088c-0.078-2.567,0.064-5.187,0.083-7.498   c0.023-2.913,0.927-6.826-2.35-8.405c-2.336-1.126-6.444,0.004-8.867,0.211c-0.644,0.055-2.269,0.287-3.977,0.433   c1.73-1.174,3.51-2.262,4.941-3.232c2.342-1.588,5.687-2.84,6.72-5.705c1.194-3.313,0.039-7.588-0.406-10.952   c-0.045-0.342-0.055-0.917-0.068-1.564c1.873,1.545,4.022,2.869,5.727,4.404c1.795,1.615,3.165,3.633,5.857,3.572   c3.467-0.08,7.34-3.977,10.017-5.781c0.807-0.544,1.69-1.093,2.55-1.683c0.12,0.009,0.24,0.02,0.367,0.014   c-1.84,3.356-3.445,6.9-5.035,10.372C370.65,205.76,369.626,207.536,370.353,209.919z"></path>	</g></g><g>	<g>		<path d="M436.671,189.974c-7.56-5.726-23.836-2.522-22.51,9.001c-0.522,1.342-0.831,2.717-0.867,4.061   c-0.28,10.391,10.226,18.373,20.089,13.735C442.061,212.691,444.491,195.896,436.671,189.974z M429.547,210.37   c-4.667,1.509-8.782-1.507-9.829-6.013c-0.754-3.243,0.937-7.625,3.776-10.162c0.36-0.173,0.742-0.329,1.174-0.445   c2.791-0.748,6.727-0.025,8.451,2.304C435.819,199.701,434.386,208.805,429.547,210.37z"></path>	</g></g><g>	<g>		<path d="M471.216,170.544c-5.266-1.048-21.566,2.329-19.092,10.513c-1.139,2.824-0.885,5.998,0.325,9.051   c3.745,9.451,17.553,11.761,24.004,3.646C481.886,186.919,481.36,172.563,471.216,170.544z M470.207,188.058   c-2.913,4.258-9.291,2.296-11.08-1.742c-1.048-2.365-0.746-4.114,0.26-5.513c2.111-1.815,5.27-2.86,7.911-2.745   C472.057,178.266,472.456,184.768,470.207,188.058z"></path>	</g></g><g>	<g>		<path d="M443.243,238.324c-8.843-4.829-19.077-6.752-28.967-8.097c-5.281-0.718-10.602-0.964-15.897-1.522   c-3.93-0.415-9.131-1.014-12.762,0.788c-0.891,0.442-1.168,1.688-0.694,2.515c0.087,0.151,0.185,0.287,0.28,0.426   c0.004,0.043,0.005,0.085,0.021,0.127c0.045,0.118,0.091,0.235,0.136,0.353c0.182,0.474,0.525,1.013,1.089,1.089   c0.144,0.019,0.284,0.051,0.424,0.084c1.054,0.709,2.299,1.133,3.609,1.427c0.109,0.035,0.216,0.074,0.327,0.103   c0.858,0.228,1.72,0.329,2.585,0.398c0.782,0.113,1.552,0.224,2.284,0.363c5.712,1.088,11.467,1.848,17.179,2.916   c3.441,0.643,6.894,1.354,10.317,2.163c4.374,1.267,8.525,3.5,12.956,4.438c0.047,0.01,0.09,0.008,0.136,0.016   c1.913,0.702,3.86,1.106,5.901,0.647C445.984,245.701,446.616,240.167,443.243,238.324z"></path>	</g></g><g>	<g>		<path d="M477.077,251.49c-0.893-3.902-4.71-4.774-7.9-6.267c-0.528-0.247-1.063-0.467-1.602-0.676   c-2.819-1.933-7.453-2.531-9.982-3.491c-5.21-1.979-8.7,6.615-3.694,9.078c3.282,1.615,6.816,2.617,10.083,4.237   c3.089,1.532,6.58,3.298,10.1,2.243C476.304,255.948,477.598,253.766,477.077,251.49z"></path>	</g></g><g>	<g>		<path d="M502.487,259.875c-1.352-3.767-4.349-4.717-7.959-5.317c-2.378-0.396-4.395-1.522-6.872-1.241   c-3.161,0.358-4.628,3.621-2.533,6.114c2.978,3.543,9.23,7.57,14.081,6.06C501.416,264.802,503.356,262.299,502.487,259.875z"></path>	</g></g><g>	<g>		<path d="M496.805,202.009c-3.206-0.298-6.018,2.093-8.285,4.043c-2.45,2.108-5.594,4.457-6.39,7.725   c-0.38,1.562,0.803,3.307,2.501,3.241c4.977-0.195,8.745-4.067,13.445-5.154C503.948,210.506,502.181,202.508,496.805,202.009z"></path>	</g></g><g>	<g>		<path d="M511.934,232.321c-0.632-4.022-4.908-6.104-8.216-7.72c-3.211-1.569-7.429-3.49-11.043-2.5   c-1.151,0.315-1.798,1.484-1.538,2.631c0.775,3.42,4.225,5.41,6.761,7.511c2.715,2.25,5.453,4.464,9.017,5.097   C510.125,237.91,512.429,235.48,511.934,232.321z"></path>	</g></g><g>	<g>		<path d="M491.675,236.253c-0.529-1.161-1.66-2.666-2.929-3.643c-0.242-1.281-1.719-2.396-2.936-1.477   c-0.562,0.424-0.972,0.855-1.228,1.429c-1.188,1.342-0.896,3.552-0.984,5.242c-0.095,1.815-0.495,3.554,0.049,5.405   c0.664,2.263,2.637,4.221,5.128,3.899c2.565-0.33,4.074-2.683,4.263-5.111C493.201,239.907,492.527,238.128,491.675,236.253z"></path>	</g></g><g>	<g>		<path d="M436.171,141c-0.235-2.152-1.463-3.461-3.519-4.053c-1.59-0.458-3.492,0.057-4.633,1.256   c-3.356,3.526-7.327,8.638-7.585,13.704c-0.09,1.771,1.711,2.84,3.273,2.526c3.743-0.75,6.95-4.797,9.408-7.476   C434.728,145.199,436.457,143.587,436.171,141z"></path>	</g></g><g>	<g>		<path d="M428.297,157.573c-0.908,0.167-1.435,1.241-1.217,2.081c0.78,3.001,3.633,5.367,5.737,7.508   c1.577,1.604,3.005,3.274,4.686,4.77c1.382,1.23,3.739,1.529,5.086,0C448.928,164.747,434.19,156.49,428.297,157.573z"></path>	</g></g><g>	<g>		<path d="M391.704,162.24c-6.083,1.585-12.553,1.279-18.627,3.289c-1.856,0.614-4.086,1.276-6.283,2.12   c-3.076,0.54-6.1,0.886-8.978,2.242c-5.926,2.793-0.862,11.611,5.019,8.839c2.403-1.133,5.692-1.178,8.256-1.906   c2.965-0.842,5.806-2.084,8.771-2.952c2.267-0.664,4.84-1.183,7.249-2.01c2.34-0.204,4.638-0.524,6.794-1.227   C399.184,168.914,397.15,160.821,391.704,162.24z"></path>	</g></g><g>	<g>		<path d="M411.785,164.082c-0.096-0.752-0.42-1.675-1.034-2.169c-0.019-0.015-0.037-0.03-0.056-0.045   c-0.785-0.632-1.657-1.171-2.718-1.126c-1.035,0.044-1.957,0.402-2.718,1.125c-0.094,0.09-0.189,0.177-0.29,0.258l0.282-0.216   c-0.837,0.707-1.388,1.593-1.388,2.772c0,1.215,0.68,2.523,1.794,3.083c0.431,0.217,0.888,0.387,1.346,0.541   c0.773,0.26,1.685,0.108,2.411-0.188c0.753-0.306,1.543-0.875,1.906-1.633c0.013-0.027,0.026-0.054,0.039-0.081   C411.72,165.651,411.892,164.922,411.785,164.082z"></path>	</g></g><g>	<g>		<path d="M184.47,259.156c-6.545-1.263-13.676-0.818-20.363-0.938c-7.522-0.136-14.689-0.917-22.091-2.226   c-6.459-1.142-12.928-1.163-19.255-2.992c-7.258-2.098-14.226-5.463-21.634-6.695c-3.298-0.548-7.421,3.068-4.971,6.465   c4.193,5.817,13.446,7.921,20.069,9.776c7.749,2.17,15.179,2.605,23.056,3.875c8.027,1.294,15.801,2.163,23.948,2.13   c7.262-0.03,15.682,0.536,21.989-3.671C187.296,263.495,187.34,259.711,184.47,259.156z"></path>	</g></g><g>	<g>		<path d="M180.909,293.543c-3.329-4.262-13.234-1.919-17.674-1.384c-0.534,0.064-1.265,0.27-1.959,0.394   c1.244-0.626,0.643-3.194,0.575-4.781c-0.193-4.459,0.598-8.836-0.847-13.15c-0.575-1.716-2.825-3.197-4.578-1.93   c-3.598,2.6-5.518,6.454-7.88,10.138c-1.324,2.065-1.707,3.4-4.038,4.033c-1.913,0.52-3.965,0.747-5.907,1.274   c-2.6,0.706-7.085,0.478-8.865,2.727c-1.913,2.417-0.481,4.812,1.21,6.833c1.198,1.434,2.933,2.996,3.682,4.729   c0.942,2.18,0.04,2.971-1.163,5.288c-2.053,3.953-4.547,7.898-6.394,11.917c-1.115,2.426-0.902,5.206,1.866,6.383   c2.079,0.884,4.413-0.046,6.319-1.224c2.629-0.942,5.031-2.166,7.56-3.548c0.677-0.37,4.844-3.329,5.256-3.28   c0.467,0.056,1.813,1.875,2.314,2.318c2.918,2.576,5.745,5.627,8.739,8.067c1.78,1.45,3.703,2.343,5.864,1.065   c4.63-2.738,1.152-11.998,0.712-16.102c-0.25-2.334-0.504-3.15,0.974-4.689c1.362-1.417,3.778-2.303,5.394-3.449   c2.908-2.064,6.625-4.068,8.84-6.849C182.16,296.752,182.149,295.13,180.909,293.543z M166.081,301.096   c-2.342,1.588-5.687,2.84-6.72,5.705c-1.194,3.313-0.039,7.588,0.405,10.952c0.045,0.342,0.056,0.916,0.068,1.563   c-1.873-1.545-4.021-2.869-5.727-4.404c-1.794-1.615-3.165-3.633-5.857-3.571c-3.467,0.08-7.34,3.977-10.016,5.781   c-0.807,0.544-1.69,1.093-2.551,1.682c-0.12-0.009-0.239-0.02-0.367-0.014c1.839-3.356,3.444-6.9,5.035-10.372   c1-2.178,2.024-3.954,1.297-6.337c-0.704-2.309-3.017-4.892-4.477-6.729c0.031,0.039-0.046-0.06-0.18-0.23   c0.155-0.057,0.315-0.098,0.467-0.172c3.25-0.785,6.596-1.461,9.829-2.256c4.461-1.097,6.268-6.001,8.624-10.089   c0.078,2.567-0.065,5.187-0.083,7.498c-0.024,2.913-0.927,6.825,2.35,8.405c2.335,1.126,6.444-0.004,8.867-0.211   c0.644-0.055,2.269-0.288,3.977-0.433C169.292,299.038,167.511,300.126,166.081,301.096z"></path>	</g></g><g>	<g>		<path d="M98.705,308.964c0.281-10.391-10.224-18.373-20.088-13.735c-8.678,4.08-11.108,20.875-3.289,26.797   c7.56,5.725,23.837,2.522,22.51-9.001C98.36,311.683,98.669,310.308,98.705,308.964z M88.507,317.805   c-0.36,0.173-0.742,0.329-1.174,0.444c-2.792,0.748-6.727,0.025-8.452-2.304c-2.699-3.646-1.266-12.751,3.573-14.316   c4.667-1.509,8.782,1.507,9.828,6.013C93.036,310.887,91.345,315.268,88.507,317.805z"></path>	</g></g><g>	<g>		<path d="M59.552,321.892c-3.746-9.451-17.553-11.761-24.004-3.645c-5.434,6.834-4.907,21.191,5.236,23.21   c5.266,1.048,21.566-2.329,19.092-10.513C61.016,328.119,60.762,324.945,59.552,321.892z M52.613,331.197   c-2.11,1.815-5.27,2.86-7.911,2.745c-4.759-0.207-5.158-6.71-2.909-10c2.912-4.259,9.291-2.296,11.08,1.742   C53.922,328.049,53.62,329.797,52.613,331.197z"></path>	</g></g><g>	<g>		<path d="M127.078,279.992c-0.087-0.151-0.185-0.287-0.28-0.426c-0.004-0.043-0.006-0.085-0.022-0.127   c-0.045-0.118-0.09-0.235-0.135-0.353c-0.182-0.474-0.525-1.013-1.089-1.089c-0.144-0.019-0.284-0.052-0.424-0.084   c-1.053-0.709-2.299-1.133-3.609-1.427c-0.108-0.035-0.216-0.074-0.326-0.103c-0.858-0.228-1.72-0.329-2.585-0.398   c-0.782-0.113-1.552-0.224-2.284-0.363c-5.711-1.087-11.466-1.848-17.179-2.916c-3.441-0.643-6.894-1.353-10.317-2.163   c-4.375-1.267-8.525-3.5-12.957-4.438c-0.046-0.01-0.089-0.008-0.135-0.016c-1.913-0.702-3.86-1.106-5.901-0.647   c-3.817,0.858-4.45,6.392-1.077,8.234c8.843,4.829,19.076,6.752,28.967,8.097c5.281,0.718,10.601,0.963,15.897,1.522   c3.93,0.415,9.131,1.014,12.762-0.788C127.275,282.065,127.552,280.82,127.078,279.992z"></path>	</g></g><g>	<g>		<path d="M58.102,261.866c-3.283-1.615-6.816-2.617-10.083-4.237c-3.089-1.532-6.581-3.298-10.1-2.243   c-2.223,0.666-3.516,2.849-2.995,5.124c0.894,3.902,4.71,4.774,7.9,6.267c0.528,0.247,1.063,0.466,1.602,0.676   c2.819,1.933,7.453,2.531,9.982,3.491C59.619,272.923,63.108,264.33,58.102,261.866z"></path>	</g></g><g>	<g>		<path d="M26.878,252.57c-2.978-3.544-9.229-7.57-14.08-6.06c-2.212,0.689-4.152,3.191-3.283,5.616   c1.35,3.767,4.348,4.717,7.958,5.317c2.378,0.396,4.394,1.522,6.873,1.241C27.507,258.326,28.974,255.064,26.878,252.57z"></path>	</g></g><g>	<g>		<path d="M27.37,294.983c-4.977,0.194-8.745,4.067-13.445,5.153c-5.872,1.359-4.104,9.356,1.271,9.856   c3.206,0.298,6.018-2.093,8.285-4.043c2.45-2.108,5.594-4.457,6.39-7.725C30.251,296.662,29.068,294.917,27.37,294.983z"></path>	</g></g><g>	<g>		<path d="M20.866,287.268c-0.775-3.42-4.225-5.41-6.761-7.511c-2.715-2.25-5.453-4.464-9.018-5.096   c-3.211-0.57-5.516,1.86-5.019,5.019c0.632,4.022,4.909,6.103,8.217,7.72c3.21,1.568,7.428,3.49,11.042,2.499   C20.478,289.584,21.125,288.415,20.866,287.268z"></path>	</g></g><g>	<g>		<path d="M28.357,268.792c-0.668-2.264-2.64-4.222-5.132-3.9c-2.564,0.331-4.074,2.683-4.263,5.111   c-0.163,2.09,0.511,3.87,1.364,5.744c0.528,1.161,1.66,2.666,2.929,3.643c0.242,1.281,1.72,2.396,2.937,1.477   c0.562-0.424,0.972-0.855,1.229-1.429c1.188-1.342,0.895-3.552,0.984-5.241C28.501,272.382,28.901,270.643,28.357,268.792z"></path>	</g></g><g>	<g>		<path d="M88.293,357.567c-3.742,0.75-6.949,4.797-9.408,7.476c-1.614,1.758-3.341,3.37-3.056,5.957   c0.237,2.152,1.465,3.461,3.52,4.053c1.59,0.459,3.492-0.057,4.633-1.256c3.356-3.526,7.327-8.638,7.585-13.704   C91.657,358.322,89.856,357.253,88.293,357.567z"></path>	</g></g><g>	<g>		<path d="M84.92,352.346c-0.78-3.001-3.633-5.367-5.737-7.508c-1.577-1.604-3.005-3.274-4.686-4.77   c-1.382-1.23-3.739-1.529-5.087,0c-6.338,7.185,8.4,15.442,14.293,14.359C84.611,354.26,85.138,353.186,84.92,352.346z"></path>	</g></g><g>	<g>		<path d="M149.164,333.27c-2.403,1.133-5.692,1.178-8.257,1.906c-2.965,0.842-5.805,2.083-8.771,2.952   c-2.267,0.664-4.84,1.183-7.249,2.01c-2.338,0.204-4.635,0.524-6.792,1.227c-5.28,1.721-3.245,9.814,2.201,8.395   c6.084-1.585,12.553-1.279,18.627-3.289c1.856-0.614,4.086-1.276,6.282-2.12c3.076-0.54,6.1-0.886,8.978-2.242   C160.109,339.316,155.045,330.498,149.164,333.27z"></path>	</g></g><g>	<g>		<path d="M108.138,347.319c0-1.215-0.68-2.523-1.794-3.083c-0.432-0.216-0.888-0.387-1.346-0.541   c-0.773-0.26-1.685-0.108-2.411,0.188c-0.753,0.306-1.544,0.876-1.907,1.633c-0.013,0.027-0.025,0.054-0.039,0.081   c-0.361,0.752-0.533,1.482-0.426,2.321c0.096,0.752,0.42,1.675,1.034,2.169c0.018,0.015,0.037,0.03,0.056,0.045   c0.785,0.632,1.657,1.171,2.718,1.126c1.035-0.044,1.956-0.402,2.718-1.126c0.094-0.09,0.189-0.177,0.29-0.258l-0.282,0.216   C107.587,349.384,108.139,348.498,108.138,347.319z"></path>	</g></g><g>	<g>		<path d="M359.465,350.207c-3.945-7.014-8.892-12.575-13.563-19.043c-4.761-6.591-9.643-12.702-15.427-18.44   c-5.156-5.114-10.71-11.468-18.145-12.953c-2.449-0.49-5.156,2.155-3.518,4.576c3.735,5.521,9.093,10.249,13.736,15.062   c5.223,5.415,9.739,11.035,14.047,17.195c3.759,5.375,8.319,9.963,11.5,15.73c3.648,6.615,6.196,13.922,10.563,20.031   c1.945,2.722,7.417,3.08,8.087-1.055C367.892,364.234,362.837,356.202,359.465,350.207z"></path>	</g></g><g>	<g>		<path d="M395.355,296.34c-0.845-2.095-3.153-3.088-5.333-3.603c-2.525-1.192-5.089-2.026-7.855-2.837   c-0.74-0.217-5.78-1.071-6.036-1.398c-0.291-0.37,0.044-2.608,0.003-3.275c-0.242-3.885-0.083-8.041-0.476-11.883   c-0.233-2.285-0.961-4.275-3.393-4.899c-5.21-1.338-9.298,7.669-11.889,10.882c-1.474,1.827-1.871,2.584-4.004,2.627   c-1.966,0.039-4.301-1.043-6.253-1.376c-3.516-0.597-7.562-1.808-11.095-1.408c-1.996,0.226-3.134,1.381-3.38,3.38   c-0.659,5.367,8.002,10.715,11.519,13.476c0.423,0.332,1.086,0.703,1.664,1.107c-1.322-0.436-2.714,1.804-3.787,2.974   c-3.016,3.289-6.671,5.825-8.699,9.897c-0.807,1.62-0.263,4.259,1.873,4.602c4.383,0.705,8.466-0.662,12.74-1.597   c2.396-0.525,3.611-1.197,5.707,0.004c1.721,0.986,3.333,2.276,5.078,3.275c2.339,1.34,5.349,4.673,8.197,4.341   c3.062-0.356,3.742-3.063,3.977-5.687c0.167-1.861,0.045-4.193,0.74-5.947c0.876-2.208,2.073-2.129,4.562-2.917   c4.244-1.344,8.798-2.37,12.946-3.905C394.665,301.246,396.48,299.13,395.355,296.34z M374.845,300.711   c-2.247,0.834-4.227,1.366-5.398,3.566c-1.135,2.131-1.326,5.593-1.592,7.924c0.003-0.049-0.013,0.074-0.038,0.29   c-0.15-0.07-0.292-0.153-0.452-0.208c-2.852-1.743-5.698-3.631-8.546-5.356c-3.93-2.378-8.674-0.189-13.231,1.036   c1.76-1.87,3.713-3.622,5.361-5.243c2.076-2.043,5.481-4.171,4.281-7.605c-0.856-2.448-4.559-4.554-6.419-6.121   c-0.494-0.416-1.807-1.401-3.117-2.506c2.053,0.393,4.082,0.883,5.779,1.209c2.779,0.533,6.029,2.013,8.786,0.717   c3.187-1.499,5.393-5.338,7.458-8.031c0.21-0.274,0.609-0.687,1.057-1.154c0.232,2.417,0.815,4.872,0.935,7.164   c0.126,2.411-0.331,4.807,1.616,6.667c2.508,2.395,8.002,2.378,11.171,2.995c0.956,0.186,1.967,0.422,2.993,0.614   c0.078,0.091,0.155,0.183,0.25,0.269C382.066,298.009,378.423,299.38,374.845,300.711z"></path>	</g></g><g>	<g>		<path d="M430.442,337.066c-1.297-9.394-15.071-18.638-22.282-9.552c-1.318,0.58-2.509,1.334-3.485,2.259   c-7.545,7.149-5.761,20.222,4.493,23.917C418.19,356.941,431.784,346.784,430.442,337.066z M423.63,338.854   c-0.669,4.487-8.121,9.912-12.649,7.597c-4.366-2.233-5.144-7.276-2.698-11.202c1.761-2.827,6.055-4.729,9.855-4.516   c0.378,0.132,0.758,0.292,1.145,0.516C421.786,332.694,424.057,335.988,423.63,338.854z"></path>	</g></g><g>	<g>		<path d="M468.607,347.753c-2.982-4.464-16.896-13.602-20.934-6.065c-2.802,1.192-4.867,3.615-6.171,6.629   c-4.034,9.331,4.095,20.728,14.396,19.551C464.572,366.878,474.353,356.353,468.607,347.753z M455.509,359.424   c-5.071,0.952-8.193-4.946-6.603-9.066c0.932-2.414,2.381-3.436,4.083-3.714c2.776,0.209,5.749,1.704,7.535,3.653   C463.742,353.808,459.426,358.689,455.509,359.424z"></path>	</g></g><g>	<g>		<path d="M400.901,375.902c-2.839-9.667-8.716-18.264-14.759-26.209c-3.226-4.242-6.815-8.177-10.165-12.317   c-2.485-3.072-5.738-7.173-9.581-8.467c-0.942-0.318-2.019,0.368-2.269,1.288c-0.045,0.168-0.072,0.334-0.103,0.499   c-0.027,0.033-0.056,0.064-0.074,0.105c-0.051,0.115-0.102,0.23-0.154,0.346c-0.206,0.463-0.345,1.088,0,1.54   c0.088,0.115,0.164,0.237,0.241,0.359c0.244,1.246,0.824,2.427,1.543,3.561c0.052,0.101,0.101,0.205,0.158,0.304   c0.445,0.768,0.983,1.449,1.546,2.109c0.473,0.633,0.939,1.256,1.358,1.872c3.269,4.808,6.801,9.415,10.085,14.209   c1.979,2.888,3.918,5.832,5.766,8.825c2.197,3.99,3.554,8.503,6.024,12.3c0.026,0.04,0.058,0.069,0.085,0.107   c0.857,1.849,1.947,3.511,3.715,4.63C397.624,383.055,401.984,379.589,400.901,375.902z"></path>	</g></g><g>	<g>		<path d="M414.359,399.118c-0.198-0.548-0.422-1.082-0.655-1.61c-0.626-3.36-3.48-7.06-4.589-9.527   c-2.286-5.084-10.829-1.475-9.031,3.807c1.179,3.463,2.97,6.671,4.134,10.126c1.102,3.268,2.321,6.985,5.555,8.728   c2.043,1.101,4.501,0.471,5.741-1.505C417.641,405.745,415.559,402.429,414.359,399.118z"></path>	</g></g><g>	<g>		<path d="M425.684,423.645c-1.401-1.961-2.03-4.184-3.981-5.737c-2.488-1.982-5.833-0.713-6.114,2.532   c-0.4,4.611,1.173,11.879,5.671,14.241c2.051,1.077,5.192,0.68,6.292-1.65C429.26,429.414,427.812,426.622,425.684,423.645z"></path>	</g></g><g>	<g>		<path d="M464.453,388.097c-2.056-2.478-5.736-2.776-8.717-3c-3.223-0.242-7.108-0.804-9.981,0.944   c-1.373,0.835-1.771,2.906-0.523,4.06c3.657,3.383,9.059,3.308,13.151,5.863C463.495,399.156,467.9,392.251,464.453,388.097z"></path>	</g></g><g>	<g>		<path d="M453.364,408.961c-1.16-3.38-2.784-7.722-6.04-9.577c-1.037-0.591-2.321-0.222-2.948,0.773   c-1.87,2.966-0.838,6.813-0.531,10.092c0.329,3.511,0.699,7.013,2.772,9.98c1.868,2.673,5.216,2.585,7.098,0   C456.112,416.938,454.56,412.443,453.364,408.961z"></path>	</g></g><g>	<g>		<path d="M436.083,400.916c-0.698-0.097-1.293-0.083-1.879,0.142c-1.789,0.109-3.145,1.878-4.403,3.01   c-1.351,1.216-2.864,2.163-3.787,3.856c-1.13,2.072-1.119,4.85,0.87,6.385c2.047,1.58,4.778,0.983,6.628-0.599   c1.593-1.362,2.375-3.098,3.098-5.026c0.447-1.195,0.711-3.059,0.505-4.647C437.85,402.96,437.593,401.128,436.083,400.916z"></path>	</g></g><g>	<g>		<path d="M465.095,296.729c-0.8-1.449-2.509-2.429-4.164-2.388c-4.866,0.12-11.288,0.927-15.053,4.327   c-1.316,1.189-0.798,3.218,0.529,4.101c3.176,2.116,8.305,1.522,11.938,1.367c2.385-0.102,4.746-0.02,6.373-2.051   C466.072,300.394,466.129,298.602,465.095,296.729z"></path>	</g></g><g>	<g>		<path d="M447.431,308.235c-0.759-0.524-1.893-0.137-2.332,0.611c-1.57,2.673-1.226,6.364-1.252,9.366   c-0.02,2.248-0.191,4.439-0.061,6.686c0.108,1.847,1.563,3.724,3.597,3.597C456.947,327.896,452.364,311.636,447.431,308.235z"></path>	</g></g><g>	<g>		<path d="M418.257,285.66c-5.422-3.181-9.781-7.971-15.496-10.846c-1.747-0.878-3.792-1.987-5.942-2.943   c-2.557-1.793-4.94-3.687-7.934-4.763c-6.165-2.215-8.82,7.6-2.701,9.799c2.5,0.898,4.858,3.192,7.186,4.49   c2.691,1.501,5.578,2.632,8.289,4.115c2.072,1.132,4.258,2.585,6.546,3.703c1.799,1.51,3.65,2.909,5.672,3.937   C418.827,295.668,423.111,288.508,418.257,285.66z"></path>	</g></g><g>	<g>		<path d="M431.947,298.825c-0.108-1.002-0.343-2-1.125-2.718c-0.763-0.7-1.668-1.099-2.718-1.126   c-0.13-0.003-0.259-0.009-0.387-0.023l0.353,0.047c-1.092-0.094-2.108,0.143-2.942,0.977c-0.859,0.859-1.303,2.265-0.912,3.449   c0.152,0.458,0.354,0.902,0.569,1.335c0.363,0.73,1.115,1.268,1.837,1.572c0.749,0.316,1.711,0.473,2.503,0.194   c0.029-0.01,0.057-0.02,0.085-0.029c0.788-0.278,1.425-0.672,1.942-1.342c0.464-0.6,0.888-1.482,0.803-2.265   C431.952,298.872,431.949,298.848,431.947,298.825z"></path>	</g></g><g>	<g>		<path d="M203.189,207.654c-3.735-5.521-9.092-10.249-13.736-15.062c-5.224-5.415-9.739-11.035-14.047-17.195   c-3.76-5.375-8.32-9.964-11.5-15.73c-3.648-6.615-6.196-13.922-10.563-20.031c-1.946-2.722-7.417-3.08-8.088,1.055   c-1.146,7.076,3.909,15.108,7.281,21.103c3.945,7.014,8.892,12.575,13.563,19.043c4.761,6.591,9.643,12.702,15.427,18.44   c5.156,5.114,10.71,11.468,18.145,12.953C202.121,212.719,204.827,210.074,203.189,207.654z"></path>	</g></g><g>	<g>		<path d="M164.836,215.975c-0.423-0.332-1.085-0.703-1.664-1.107c1.322,0.436,2.714-1.804,3.788-2.974   c3.016-3.289,6.67-5.825,8.699-9.897c0.807-1.62,0.263-4.259-1.872-4.602c-4.383-0.705-8.466,0.662-12.74,1.597   c-2.397,0.524-3.611,1.197-5.708-0.004c-1.721-0.986-3.332-2.276-5.078-3.275c-2.339-1.341-5.348-4.674-8.197-4.342   c-3.062,0.356-3.742,3.063-3.977,5.687c-0.166,1.861-0.044,4.193-0.74,5.947c-0.875,2.208-2.073,2.129-4.562,2.917   c-4.244,1.344-8.798,2.37-12.946,3.905c-2.504,0.927-4.319,3.043-3.195,5.833c0.845,2.095,3.153,3.088,5.334,3.603   c2.525,1.192,5.089,2.026,7.855,2.837c0.74,0.217,5.78,1.071,6.036,1.398c0.291,0.37-0.044,2.608-0.003,3.275   c0.242,3.885,0.083,8.041,0.475,11.883c0.234,2.285,0.961,4.275,3.394,4.899c5.21,1.338,9.298-7.669,11.889-10.882   c1.473-1.827,1.871-2.584,4.004-2.626c1.965-0.039,4.3,1.043,6.253,1.376c3.516,0.597,7.562,1.808,11.095,1.408   c1.995-0.226,3.134-1.381,3.38-3.38C177.015,224.084,168.354,218.736,164.836,215.975z M160.529,224.303   c-2.779-0.533-6.03-2.013-8.786-0.717c-3.187,1.499-5.393,5.338-7.458,8.031c-0.211,0.274-0.609,0.687-1.057,1.154   c-0.232-2.417-0.815-4.872-0.935-7.164c-0.127-2.411,0.331-4.807-1.616-6.667c-2.508-2.395-8.003-2.378-11.171-2.995   c-0.956-0.186-1.968-0.422-2.993-0.614c-0.078-0.091-0.156-0.183-0.25-0.269c3.674-1.072,7.315-2.444,10.895-3.773   c2.247-0.834,4.227-1.366,5.398-3.565c1.135-2.131,1.326-5.593,1.592-7.924c-0.004,0.05,0.011-0.074,0.036-0.29   c0.15,0.07,0.293,0.153,0.452,0.208c2.852,1.743,5.698,3.631,8.545,5.356c3.93,2.378,8.675,0.189,13.232-1.036   c-1.76,1.87-3.713,3.622-5.361,5.243c-2.077,2.043-5.481,4.171-4.281,7.604c0.855,2.448,4.559,4.554,6.419,6.121   c0.494,0.417,1.808,1.401,3.118,2.506C164.254,225.119,162.226,224.629,160.529,224.303z"></path>	</g></g><g>	<g>		<path d="M102.832,158.311c-9.021-3.251-22.615,6.906-21.274,16.623c1.297,9.394,15.072,18.638,22.282,9.552   c1.318-0.579,2.509-1.334,3.485-2.258C114.871,175.078,113.087,162.006,102.832,158.311z M103.719,176.751   c-1.763,2.826-6.056,4.729-9.857,4.516c-0.377-0.132-0.757-0.292-1.144-0.516c-2.503-1.445-4.774-4.739-4.347-7.605   c0.669-4.487,8.121-9.912,12.649-7.597C105.387,167.782,106.164,172.826,103.719,176.751z"></path>	</g></g><g>	<g>		<path d="M56.102,144.133c-8.674,0.99-18.454,11.515-12.709,20.115c2.982,4.464,16.896,13.602,20.934,6.065   c2.802-1.192,4.867-3.615,6.171-6.629C74.532,154.352,66.402,142.956,56.102,144.133z M63.094,161.642   c-0.931,2.414-2.381,3.436-4.082,3.714c-2.776-0.209-5.749-1.704-7.535-3.653c-3.219-3.511,1.097-8.392,5.014-9.127   C61.562,151.625,64.684,157.522,63.094,161.642z"></path>	</g></g><g>	<g>		<path d="M148.204,179.313c-0.088-0.115-0.164-0.237-0.24-0.359c-0.243-1.246-0.824-2.427-1.543-3.561   c-0.052-0.101-0.101-0.205-0.158-0.304c-0.445-0.768-0.984-1.449-1.546-2.109c-0.473-0.633-0.939-1.256-1.358-1.872   c-3.27-4.808-6.801-9.415-10.085-14.209c-1.979-2.888-3.918-5.832-5.766-8.825c-2.197-3.99-3.554-8.503-6.024-12.3   c-0.025-0.04-0.057-0.069-0.084-0.107c-0.857-1.849-1.947-3.511-3.716-4.63c-3.307-2.091-7.668,1.375-6.584,5.062   c2.84,9.667,8.716,18.264,14.759,26.209c3.226,4.242,6.815,8.177,10.164,12.317c2.486,3.072,5.739,7.173,9.581,8.467   c0.942,0.318,2.019-0.367,2.269-1.288c0.046-0.168,0.072-0.334,0.103-0.5c0.028-0.033,0.056-0.064,0.074-0.105   c0.051-0.115,0.103-0.23,0.154-0.346C148.41,180.39,148.55,179.765,148.204,179.313z"></path>	</g></g><g>	<g>		<path d="M111.918,120.212c-1.179-3.463-2.969-6.671-4.133-10.126c-1.102-3.268-2.321-6.985-5.555-8.728   c-2.043-1.1-4.501-0.471-5.741,1.505c-2.13,3.392-0.047,6.708,1.153,10.019c0.198,0.548,0.422,1.082,0.655,1.61   c0.627,3.36,3.48,7.06,4.59,9.527C105.172,129.104,113.716,125.495,111.918,120.212z"></path>	</g></g><g>	<g>		<path d="M90.739,77.32c-2.051-1.077-5.193-0.68-6.293,1.65c-1.708,3.617-0.26,6.409,1.868,9.386   c1.403,1.961,2.032,4.184,3.983,5.737c2.488,1.982,5.832,0.713,6.113-2.532C96.81,86.951,95.236,79.682,90.739,77.32z"></path>	</g></g><g>	<g>		<path d="M66.769,121.899c-3.656-3.382-9.059-3.308-13.151-5.863c-5.113-3.192-9.518,3.713-6.07,7.868   c2.056,2.477,5.735,2.775,8.717,2.999c3.222,0.242,7.107,0.804,9.981-0.944C67.619,125.125,68.017,123.053,66.769,121.899z"></path>	</g></g><g>	<g>		<path d="M68.156,101.753c-0.329-3.511-0.699-7.013-2.773-9.98c-1.868-2.674-5.215-2.585-7.098,0   c-2.397,3.291-0.845,7.786,0.351,11.268c1.161,3.381,2.785,7.722,6.04,9.577c1.037,0.591,2.321,0.222,2.949-0.773   C69.495,108.878,68.462,105.031,68.156,101.753z"></path>	</g></g><g>	<g>		<path d="M85.115,97.691c-2.047-1.58-4.779-0.983-6.629,0.599c-1.593,1.363-2.375,3.098-3.097,5.026   c-0.448,1.195-0.712,3.059-0.505,4.647c-0.733,1.077-0.477,2.91,1.033,3.121c0.697,0.097,1.292,0.083,1.879-0.142   c1.789-0.109,3.144-1.878,4.402-3.01c1.351-1.216,2.864-2.163,3.787-3.856C87.115,102.004,87.104,99.225,85.115,97.691z"></path>	</g></g><g>	<g>		<path d="M65.594,209.232c-3.177-2.116-8.306-1.522-11.939-1.367c-2.384,0.102-4.745,0.02-6.373,2.051   c-1.353,1.69-1.411,3.483-0.377,5.356c0.8,1.449,2.509,2.429,4.163,2.388c4.867-0.12,11.289-0.927,15.054-4.327   C67.439,212.144,66.921,210.115,65.594,209.232z"></path>	</g></g><g>	<g>		<path d="M68.214,187.102c-0.108-1.847-1.563-3.725-3.597-3.597c-9.564,0.6-4.981,16.86-0.048,20.26   c0.76,0.524,1.893,0.137,2.332-0.611c1.57-2.674,1.227-6.364,1.253-9.366C68.174,191.54,68.345,189.349,68.214,187.102z"></path>	</g></g><g>	<g>		<path d="M125.819,235.094c-2.5-0.898-4.858-3.192-7.186-4.49c-2.692-1.501-5.578-2.632-8.29-4.115   c-2.073-1.134-4.259-2.586-6.547-3.704c-1.799-1.51-3.65-2.909-5.672-3.937c-4.95-2.515-9.234,4.646-4.379,7.493   c5.423,3.181,9.781,7.971,15.497,10.846c1.747,0.878,3.792,1.987,5.942,2.943c2.557,1.793,4.94,3.687,7.934,4.763   C129.284,247.108,131.939,237.293,125.819,235.094z"></path>	</g></g><g>	<g>		<path d="M87.785,212.569c-0.152-0.458-0.354-0.902-0.569-1.334c-0.363-0.73-1.115-1.268-1.838-1.573   c-0.749-0.316-1.711-0.472-2.503-0.194c-0.028,0.01-0.056,0.02-0.085,0.03c-0.787,0.277-1.425,0.671-1.942,1.34   c-0.463,0.6-0.887,1.482-0.803,2.265c0.003,0.024,0.005,0.048,0.008,0.071c0.109,1.002,0.343,2,1.126,2.718   c0.763,0.7,1.668,1.099,2.718,1.126c0.13,0.003,0.258,0.009,0.387,0.023l-0.353-0.047c1.092,0.095,2.109-0.142,2.943-0.976   C87.733,215.159,88.177,213.753,87.785,212.569z"></path>	</g></g><g>	<g>		<path d="M264.88,326.782c-1.385-2.078-5.169-2.123-5.723,0.748c-1.263,6.545-0.818,13.677-0.938,20.364   c-0.136,7.523-0.917,14.689-2.226,22.091c-1.142,6.459-1.163,12.928-2.992,19.255c-2.098,7.257-5.463,14.226-6.695,21.634   c-0.548,3.298,3.068,7.421,6.466,4.971c5.815-4.193,7.92-13.447,9.774-20.07c2.17-7.749,2.605-15.179,3.875-23.055   c1.294-8.027,2.163-15.801,2.13-23.948C268.521,341.51,269.087,333.09,264.88,326.782z"></path>	</g></g><g>	<g>		<path d="M320.28,361.614c2.576-2.918,5.627-5.745,8.067-8.739c1.45-1.78,2.343-3.703,1.065-5.864   c-2.738-4.63-11.998-1.152-16.102-0.712c-2.334,0.25-3.151,0.504-4.689-0.974c-1.418-1.362-2.303-3.779-3.449-5.395   c-2.064-2.909-4.069-6.625-6.85-8.84c-1.571-1.251-3.192-1.24-4.78,0c-4.262,3.329-1.919,13.234-1.383,17.674   c0.064,0.534,0.27,1.265,0.394,1.959c-0.626-1.243-3.194-0.644-4.781-0.575c-4.458,0.193-8.836-0.598-13.15,0.847   c-1.716,0.575-3.197,2.826-1.93,4.578c2.6,3.598,6.454,5.519,10.138,7.88c2.065,1.324,3.4,1.707,4.033,4.038   c0.519,1.914,0.747,3.965,1.274,5.907c0.706,2.601,0.478,7.085,2.727,8.865c2.418,1.913,4.812,0.48,6.833-1.209   c1.435-1.197,2.998-2.932,4.731-3.681c2.18-0.942,2.971-0.039,5.288,1.163c3.951,2.051,7.897,4.546,11.915,6.393   c2.426,1.115,5.206,0.902,6.383-1.866c0.884-2.079-0.046-4.413-1.223-6.319c-0.943-2.628-2.166-5.031-3.549-7.56   c-0.37-0.677-3.329-4.844-3.28-5.256C318.018,363.461,319.837,362.115,320.28,361.614z M317.123,373.766   c0.544,0.807,1.093,1.69,1.682,2.55c-0.009,0.12-0.019,0.239-0.013,0.367c-3.356-1.839-6.9-3.445-10.372-5.035   c-2.179-0.999-3.955-2.023-6.338-1.296c-2.31,0.704-4.892,3.017-6.729,4.477c0.038-0.029-0.061,0.047-0.231,0.182   c-0.057-0.156-0.098-0.315-0.172-0.467c-0.785-3.249-1.461-6.596-2.256-9.83c-1.097-4.461-6.001-6.267-10.088-8.624   c2.567-0.078,5.187,0.064,7.498,0.083c2.913,0.024,6.826,0.927,8.405-2.35c1.125-2.336-0.004-6.444-0.211-8.867   c-0.055-0.644-0.288-2.269-0.433-3.977c1.174,1.73,2.262,3.511,3.232,4.941c1.588,2.342,2.84,5.687,5.705,6.719   c3.313,1.194,7.588,0.039,10.952-0.405c0.342-0.045,0.917-0.055,1.564-0.068c-1.545,1.873-2.869,4.022-4.405,5.727   c-1.615,1.794-3.633,3.165-3.571,5.857C311.422,367.216,315.319,371.089,317.123,373.766z"></path>	</g></g><g>	<g>		<path d="M313.026,414.161c-1.342-0.522-2.718-0.831-4.062-0.867c-10.391-0.28-18.373,10.225-13.735,20.089   c4.081,8.678,20.876,11.108,26.798,3.288C327.754,429.111,324.549,412.835,313.026,414.161z M315.947,433.119   c-3.646,2.7-12.751,1.267-14.316-3.572c-1.509-4.666,1.507-8.782,6.013-9.829c3.244-0.753,7.625,0.938,10.163,3.776   c0.173,0.36,0.329,0.742,0.445,1.174C318.997,427.459,318.274,431.395,315.947,433.119z"></path>	</g></g><g>	<g>		<path d="M330.943,452.124c-2.824-1.139-5.998-0.885-9.051,0.324c-9.451,3.746-11.761,17.553-3.645,24.004   c6.834,5.433,21.191,4.907,23.21-5.237C342.505,465.951,339.128,449.65,330.943,452.124z M323.942,470.206   c-4.259-2.913-2.296-9.291,1.742-11.08c2.365-1.048,4.113-0.746,5.513,0.26c1.815,2.11,2.86,5.27,2.745,7.911   C333.735,472.056,327.232,472.456,323.942,470.206z"></path>	</g></g><g>	<g>		<path d="M282.509,385.617c-0.442-0.891-1.687-1.168-2.515-0.694c-0.151,0.087-0.288,0.185-0.426,0.28   c-0.043,0.004-0.085,0.006-0.127,0.022c-0.118,0.045-0.235,0.09-0.353,0.135c-0.474,0.182-1.013,0.525-1.089,1.089   c-0.019,0.144-0.051,0.284-0.084,0.424c-0.709,1.053-1.133,2.299-1.427,3.609c-0.035,0.108-0.074,0.216-0.103,0.327   c-0.228,0.858-0.329,1.72-0.398,2.585c-0.114,0.782-0.224,1.552-0.363,2.284c-1.087,5.712-1.848,11.467-2.916,17.179   c-0.643,3.441-1.354,6.894-2.163,10.317c-1.268,4.375-3.5,8.526-4.438,12.957c-0.01,0.047-0.008,0.089-0.016,0.135   c-0.701,1.914-1.106,3.86-0.646,5.901c0.857,3.818,6.391,4.451,8.233,1.077c4.828-8.844,6.751-19.078,8.096-28.968   c0.718-5.281,0.963-10.601,1.523-15.897C283.71,394.448,284.311,389.248,282.509,385.617z"></path>	</g></g><g>	<g>		<path d="M261.865,453.898c-1.615,3.282-2.617,6.816-4.237,10.083c-1.532,3.09-3.297,6.58-2.243,10.1   c0.666,2.223,2.849,3.516,5.124,2.995c3.903-0.894,4.775-4.711,6.268-7.901c0.247-0.527,0.466-1.062,0.675-1.601   c1.933-2.819,2.531-7.453,3.491-9.982C272.922,452.381,264.329,448.892,261.865,453.898z"></path>	</g></g><g>	<g>		<path d="M258.684,487.654c-0.358-3.16-3.62-4.627-6.113-2.532c-3.544,2.978-7.57,9.23-6.06,14.08   c0.689,2.212,3.191,4.152,5.616,3.283c3.766-1.35,4.715-4.348,5.316-7.958C257.839,492.149,258.965,490.133,258.684,487.654z"></path>	</g></g><g>	<g>		<path d="M305.949,488.521c-2.107-2.45-4.457-5.595-7.725-6.39c-1.562-0.38-3.307,0.803-3.241,2.501   c0.194,4.977,4.067,8.745,5.153,13.445c1.359,5.872,9.356,4.104,9.856-1.271C310.29,493.599,307.899,490.787,305.949,488.521z"></path>	</g></g><g>	<g>		<path d="M289.9,492.675c-0.315-1.153-1.484-1.8-2.631-1.54c-3.42,0.775-5.41,4.225-7.511,6.761   c-2.25,2.715-4.464,5.453-5.097,9.018c-0.57,3.211,1.861,5.516,5.019,5.02c4.022-0.632,6.103-4.908,7.72-8.216   C288.969,500.507,290.891,496.289,289.9,492.675z"></path>	</g></g><g>	<g>		<path d="M280.867,485.809c-0.424-0.562-0.855-0.972-1.429-1.229c-1.342-1.188-3.552-0.895-5.241-0.984   c-1.816-0.096-3.554-0.496-5.405,0.048c-2.264,0.666-4.221,2.638-3.9,5.13c0.33,2.564,2.683,4.074,5.111,4.263   c2.09,0.163,3.869-0.511,5.743-1.364c1.162-0.527,2.667-1.658,3.644-2.928C280.671,488.503,281.786,487.025,280.867,485.809z"></path>	</g></g><g>	<g>		<path d="M373.8,428.019c-3.528-3.356-8.64-7.327-13.706-7.585c-1.771-0.09-2.84,1.711-2.526,3.274   c0.75,3.743,4.796,6.949,7.476,9.408c1.758,1.614,3.37,3.342,5.957,3.056c2.152-0.238,3.461-1.465,4.054-3.52   C375.514,431.062,374.998,429.16,373.8,428.019z"></path>	</g></g><g>	<g>		<path d="M354.428,428.297c-0.168-0.908-1.242-1.435-2.082-1.217c-3.001,0.78-5.367,3.633-7.508,5.737   c-1.604,1.577-3.274,3.005-4.77,4.686c-1.23,1.382-1.529,3.738,0,5.086C347.256,448.928,355.512,434.19,354.428,428.297z"></path>	</g></g><g>	<g>		<path d="M349.76,391.704c-1.586-6.083-1.28-12.553-3.289-18.627c-0.614-1.856-1.276-4.086-2.12-6.283   c-0.54-3.076-0.885-6.1-2.242-8.978c-2.793-5.926-11.611-0.863-8.839,5.019c1.133,2.403,1.178,5.692,1.906,8.256   c0.842,2.965,2.084,5.805,2.952,8.771c0.664,2.267,1.183,4.84,2.01,7.249c0.204,2.34,0.523,4.638,1.227,6.794   C343.087,399.184,351.18,397.15,349.76,391.704z"></path>	</g></g><g>	<g>		<path d="M350.132,405.26c-0.09-0.094-0.176-0.189-0.258-0.29l0.217,0.283c-0.705-0.838-1.592-1.39-2.77-1.389   c-1.215,0-2.523,0.68-3.084,1.794c-0.216,0.431-0.387,0.888-0.541,1.346c-0.26,0.773-0.108,1.685,0.188,2.411   c0.306,0.752,0.875,1.543,1.633,1.906c0.026,0.013,0.054,0.026,0.08,0.039c0.752,0.361,1.482,0.533,2.321,0.426   c0.752-0.096,1.675-0.42,2.169-1.034c0.015-0.019,0.03-0.038,0.045-0.056c0.632-0.785,1.171-1.657,1.126-2.718   C351.213,406.943,350.855,406.021,350.132,405.26z"></path>	</g></g><g>	<g>		<path d="M259.228,96.156c-5.815,4.193-7.92,13.446-9.774,20.07c-2.17,7.749-2.605,15.179-3.875,23.056   c-1.294,8.027-2.163,15.8-2.13,23.947c0.03,7.262-0.536,15.682,3.671,21.99c1.385,2.077,5.17,2.121,5.724-0.749   c1.263-6.545,0.818-13.677,0.937-20.363c0.136-7.523,0.916-14.689,2.226-22.091c1.142-6.459,1.162-12.928,2.991-19.255   c2.098-7.258,5.464-14.226,6.695-21.634C266.241,97.829,262.625,93.706,259.228,96.156z"></path>	</g></g><g>	<g>		<path d="M239.306,156.427c-2.6-3.598-6.455-5.519-10.138-7.88c-2.065-1.324-3.4-1.707-4.033-4.038   c-0.52-1.914-0.747-3.965-1.274-5.907c-0.706-2.6-0.478-7.085-2.727-8.865c-2.417-1.913-4.812-0.48-6.833,1.209   c-1.433,1.197-2.996,2.932-4.728,3.681c-2.18,0.942-2.971,0.04-5.288-1.163c-3.951-2.051-7.897-4.545-11.915-6.393   c-2.426-1.115-5.206-0.902-6.383,1.865c-0.884,2.079,0.046,4.413,1.223,6.319c0.943,2.629,2.166,5.031,3.548,7.56   c0.37,0.677,3.329,4.844,3.28,5.257c-0.056,0.467-1.875,1.813-2.318,2.314c-2.577,2.918-5.628,5.745-8.067,8.739   c-1.45,1.78-2.343,3.703-1.065,5.864c2.738,4.63,11.998,1.152,16.102,0.712c2.334-0.25,3.15-0.504,4.688,0.974   c1.417,1.362,2.303,3.779,3.449,5.395c2.064,2.909,4.069,6.625,6.849,8.84c1.571,1.251,3.193,1.24,4.78,0   c4.262-3.329,1.919-13.234,1.383-17.674c-0.064-0.534-0.27-1.265-0.394-1.959c0.626,1.243,3.194,0.643,4.781,0.575   c4.459-0.193,8.835,0.598,13.15-0.847C239.092,160.43,240.574,158.18,239.306,156.427z M221.897,155.828   c-2.913-0.024-6.825-0.927-8.404,2.35c-1.126,2.336,0.003,6.444,0.211,8.867c0.055,0.644,0.288,2.269,0.432,3.977   c-1.174-1.73-2.262-3.511-3.231-4.941c-1.588-2.342-2.84-5.687-5.705-6.72c-3.314-1.194-7.588-0.039-10.952,0.406   c-0.342,0.045-0.917,0.055-1.564,0.069c1.545-1.873,2.869-4.022,4.404-5.727c1.615-1.794,3.633-3.165,3.572-5.857   c-0.08-3.467-3.977-7.34-5.781-10.016c-0.544-0.807-1.093-1.69-1.683-2.55c0.009-0.12,0.02-0.239,0.014-0.367   c3.356,1.839,6.9,3.444,10.372,5.035c2.179,0.999,3.955,2.023,6.338,1.296c2.31-0.704,4.892-3.017,6.729-4.477   c-0.039,0.028,0.06-0.049,0.23-0.183c0.057,0.156,0.098,0.315,0.172,0.467c0.785,3.249,1.461,6.596,2.256,9.83   c1.097,4.461,6,6.267,10.088,8.624C226.828,155.99,224.208,155.847,221.897,155.828z"></path>	</g></g><g>	<g>		<path d="M216.771,78.617c-4.08-8.678-20.875-11.108-26.797-3.288c-5.726,7.56-2.523,23.836,9.001,22.51   c1.342,0.522,2.717,0.831,4.061,0.867C213.428,98.987,221.409,88.482,216.771,78.617z M204.358,92.282   c-3.244,0.754-7.625-0.937-10.162-3.776c-0.173-0.36-0.329-0.742-0.445-1.174c-0.748-2.791-0.025-6.727,2.304-8.451   c3.646-2.7,12.751-1.266,14.316,3.572C211.88,87.12,208.864,91.235,204.358,92.282z"></path>	</g></g><g>	<g>		<path d="M193.755,35.548c-6.834-5.434-21.191-4.907-23.21,5.236c-1.049,5.267,2.327,21.566,10.513,19.092   c2.824,1.139,5.997,0.886,9.051-0.324C199.56,55.806,201.87,42,193.755,35.548z M186.316,52.875   c-2.365,1.048-4.113,0.746-5.513-0.261c-1.815-2.111-2.86-5.27-2.745-7.911c0.207-4.758,6.71-5.158,10-2.908   C192.317,44.707,190.354,51.086,186.316,52.875z"></path>	</g></g><g>	<g>		<path d="M246.557,69.832c-0.858-3.817-6.392-4.449-8.234-1.076c-4.828,8.844-6.751,19.078-8.096,28.968   c-0.719,5.281-0.963,10.601-1.523,15.897c-0.414,3.93-1.014,9.13,0.788,12.762c0.442,0.891,1.688,1.168,2.515,0.694   c0.151-0.087,0.287-0.185,0.426-0.281c0.043-0.004,0.085-0.005,0.127-0.022c0.118-0.045,0.235-0.09,0.353-0.135   c0.473-0.182,1.013-0.525,1.089-1.089c0.019-0.144,0.051-0.284,0.084-0.424c0.709-1.053,1.133-2.299,1.427-3.609   c0.035-0.108,0.073-0.216,0.103-0.326c0.228-0.858,0.329-1.72,0.398-2.585c0.114-0.782,0.224-1.552,0.363-2.284   c1.088-5.711,1.849-11.466,2.916-17.178c0.643-3.441,1.353-6.894,2.163-10.317c1.267-4.375,3.5-8.525,4.438-12.957   c0.01-0.047,0.008-0.09,0.016-0.136C246.612,73.821,247.016,71.875,246.557,69.832z"></path>	</g></g><g>	<g>		<path d="M256.614,37.919c-0.666-2.223-2.849-3.516-5.124-2.995c-3.903,0.894-4.775,4.711-6.268,7.901   c-0.246,0.527-0.465,1.062-0.674,1.601c-1.933,2.819-2.531,7.453-3.492,9.982c-1.979,5.211,6.615,8.7,9.078,3.694   c1.615-3.282,2.617-6.816,4.237-10.083C255.903,44.93,257.668,41.439,256.614,37.919z"></path>	</g></g><g>	<g>		<path d="M265.489,12.798c-0.689-2.212-3.191-4.152-5.615-3.283c-3.766,1.35-4.716,4.348-5.316,7.958   c-0.396,2.378-1.522,4.395-1.241,6.873c0.357,3.16,3.619,4.627,6.113,2.532C262.974,23.901,267,17.648,265.489,12.798z"></path>	</g></g><g>	<g>		<path d="M211.863,13.925c-1.358-5.872-9.356-4.104-9.855,1.271c-0.298,3.206,2.093,6.018,4.043,8.285   c2.108,2.449,4.457,5.594,7.725,6.39c1.562,0.38,3.307-0.803,3.241-2.501C216.823,22.393,212.95,18.625,211.863,13.925z"></path>	</g></g><g>	<g>		<path d="M232.321,0.068c-4.022,0.632-6.104,4.908-7.72,8.216c-1.569,3.211-3.491,7.429-2.5,11.043   c0.315,1.152,1.484,1.799,2.631,1.539c3.42-0.775,5.41-4.225,7.511-6.761c2.25-2.715,4.464-5.453,5.097-9.018   C237.91,1.875,235.479-0.43,232.321,0.068z"></path>	</g></g><g>	<g>		<path d="M247.109,23.224c-0.33-2.564-2.684-4.074-5.111-4.263c-2.09-0.163-3.87,0.511-5.744,1.364   c-1.162,0.529-2.666,1.66-3.643,2.929c-1.281,0.242-2.396,1.719-1.477,2.936c0.425,0.562,0.855,0.972,1.429,1.229   c1.342,1.188,3.552,0.895,5.241,0.984c1.815,0.095,3.554,0.496,5.405-0.049C245.473,27.688,247.43,25.716,247.109,23.224z"></path>	</g></g><g>	<g>		<path d="M154.433,88.292c-0.75-3.743-4.796-6.949-7.476-9.408c-1.758-1.614-3.37-3.342-5.957-3.056   c-2.152,0.238-3.46,1.465-4.053,3.52c-0.459,1.59,0.057,3.492,1.255,4.633c3.527,3.356,8.638,7.327,13.705,7.585   C153.678,91.656,154.746,89.855,154.433,88.292z"></path>	</g></g><g>	<g>		<path d="M171.933,69.411c-7.187-6.339-15.443,8.399-14.36,14.292c0.167,0.908,1.242,1.435,2.082,1.217   c3.001-0.78,5.367-3.633,7.508-5.737c1.604-1.577,3.274-3.005,4.77-4.686C173.163,73.115,173.462,70.758,171.933,69.411z"></path>	</g></g><g>	<g>		<path d="M178.73,149.165c-1.133-2.403-1.178-5.692-1.906-8.256c-0.842-2.965-2.083-5.805-2.952-8.771   c-0.664-2.267-1.183-4.84-2.01-7.249c-0.204-2.34-0.524-4.638-1.227-6.794c-1.721-5.279-9.814-3.245-8.395,2.201   c1.585,6.084,1.279,12.553,3.289,18.627c0.614,1.856,1.276,4.086,2.12,6.283c0.54,3.076,0.886,6.1,2.242,8.978   C172.684,160.11,181.502,155.047,178.73,149.165z"></path>	</g></g><g>	<g>		<path d="M168.116,102.586c-0.304-0.752-0.874-1.543-1.631-1.906c-0.027-0.013-0.054-0.026-0.081-0.039   c-0.752-0.361-1.482-0.533-2.321-0.426c-0.752,0.096-1.675,0.42-2.169,1.034c-0.015,0.019-0.03,0.037-0.045,0.056   c-0.632,0.785-1.171,1.657-1.126,2.718c0.044,1.035,0.402,1.956,1.125,2.718c0.09,0.094,0.177,0.189,0.258,0.29l-0.216-0.283   c0.705,0.838,1.591,1.39,2.77,1.389c1.215,0,2.523-0.68,3.083-1.794c0.217-0.431,0.387-0.888,0.541-1.346   C168.564,104.224,168.412,103.313,168.116,102.586z"></path>	</g></g><g></g><g></g><g></g><g></g><g></g><g></g><g></g><g></g><g></g><g></g><g></g><g></g><g></g><g></g><g></g></svg>