<svg xmlns="http://www.w3.org/2000/svg" xmlns:xlink="http://www.w3.org/1999/xlink" id="Layer_1" x="0px" y="0px" viewBox="0 0 343.496 343.496" style="enable-background:new 0 0 343.496 343.496;" xml:space="preserve"><g>	<g>		<g>			<path d="M171.394,139.54c-14.276,0-25.892,11.616-25.892,25.896c0,14.276,11.616,25.892,25.892,25.892    s25.896-11.616,25.896-25.892C197.286,151.156,185.67,139.54,171.394,139.54z M171.394,185.456    c-11.04,0-20.024-8.98-20.024-20.024c0-11.04,8.98-20.028,20.024-20.028c11.04,0,20.028,8.984,20.028,20.028    C191.418,176.476,182.434,185.456,171.394,185.456z"></path>			<path d="M267.066,282.856l-28.376-28.82c-0.004-0.004-0.008-0.012-0.012-0.012l-23.796-24.18c2-15.94,3.104-33.332,3.104-51.664    c0-31.548-3.24-60.356-8.776-83.648c-0.084-0.352-0.164-0.712-0.248-1.064c-0.332-1.372-0.68-2.716-1.028-4.048    c-7.232-28.004-17.476-45.876-29.212-51.12c-0.084-0.036-0.168-0.076-0.252-0.116c-0.616-0.264-1.232-0.5-1.856-0.696    c-0.404-0.132-0.812-0.232-1.216-0.332c-0.356-0.084-0.712-0.208-1.068-0.268v-9.956c6.112-1.348,10.7-6.788,10.7-13.3    C185.03,6.112,178.914,0,171.398,0c-7.52,0-13.636,6.116-13.636,13.632c0,6.508,4.592,11.952,10.7,13.3v9.956    c-0.36,0.06-0.712,0.184-1.068,0.268c-0.408,0.1-0.816,0.2-1.216,0.332c-0.624,0.196-1.244,0.432-1.856,0.696    c-0.084,0.036-0.164,0.076-0.248,0.116c-11.74,5.244-21.98,23.116-29.212,51.12c-0.348,1.332-0.696,2.676-1.028,4.048    c-0.084,0.352-0.164,0.712-0.248,1.064c-5.532,23.292-8.776,52.1-8.776,83.648c0,18.572,1.132,36.176,3.184,52.288    l-23.188,23.556c-0.004,0.004-0.004,0.004-0.012,0.012L76.426,282.86c-0.54,0.548-0.84,1.288-0.84,2.06v55.644    c0,1.364,0.936,2.548,2.264,2.856c0.224,0.052,0.448,0.076,0.668,0.076c1.096,0,2.128-0.616,2.628-1.636l11.28-22.8    l48.028-34.268c7.5,20.032,17.204,32.7,28.012,34.652v21.116c0,1.62,1.312,2.932,2.936,2.932c1.62,0,2.932-1.312,2.932-2.932    v-21.116c10.88-1.964,20.64-14.78,28.16-35.04l48.576,34.656l11.276,22.8c0.504,1.02,1.532,1.636,2.628,1.636    c0.22,0,0.444-0.024,0.668-0.076c1.328-0.308,2.268-1.492,2.268-2.856v-55.648C267.91,284.144,267.606,283.404,267.066,282.856z     M163.626,13.632c0-4.284,3.488-7.768,7.768-7.768c4.284,0,7.768,3.488,7.768,7.768c0,4.28-3.488,7.768-7.768,7.768    C167.11,21.4,163.626,17.912,163.626,13.632z M148.458,67.136c0.372-0.856,0.748-1.68,1.128-2.496    c0.152-0.332,0.308-0.66,0.46-0.984c4.784-9.964,10.08-16.656,15.436-19.54c0.184-0.096,0.364-0.204,0.548-0.292    c0.408-0.2,0.816-0.36,1.228-0.52c0.372-0.14,0.748-0.26,1.124-0.36c0.3-0.084,0.6-0.172,0.896-0.228    c0.704-0.132,1.408-0.228,2.116-0.228c0.704,0,1.412,0.096,2.116,0.228c0.3,0.06,0.596,0.148,0.896,0.228    c0.376,0.1,0.752,0.22,1.124,0.36c0.408,0.156,0.816,0.32,1.224,0.52c0.184,0.088,0.368,0.196,0.552,0.292    c5.356,2.884,10.652,9.576,15.432,19.54c0.156,0.324,0.308,0.656,0.464,0.984c0.376,0.816,0.756,1.644,1.128,2.496    c3.888,8.996,7.36,20.188,10.184,33.22c-20.408,10.68-45.82,10.684-66.236,0C141.094,87.324,144.57,76.136,148.458,67.136z     M88.41,314.708c-0.392,0.28-0.712,0.656-0.928,1.088l-6.04,12.212v-41.892l22.492-22.852v18.08c0,1.62,1.312,2.932,2.936,2.932    c1.62,0,2.932-1.312,2.932-2.932v-24.04l19.196-19.504c2.312,15.512,5.508,29.452,9.412,41.236L88.41,314.708z M174.326,313.432    v-57.024c0-1.62-1.312-2.932-2.932-2.932c-1.624,0-2.936,1.312-2.936,2.932v57.02c-18.768-5.072-37.784-58.112-37.784-135.252    c0-27.36,2.396-51.676,6.324-71.916c10.676,5.304,22.48,8.116,34.396,8.116s23.724-2.812,34.396-8.116    c3.924,20.236,6.324,44.552,6.324,71.916C212.114,255.316,193.098,308.356,174.326,313.432z M255.066,314.708L204.51,278.64    c3.892-11.856,7.072-25.876,9.364-41.456l19.8,20.116v22.596c0,1.624,1.312,2.936,2.932,2.936c1.624,0,2.936-1.312,2.936-2.936    v-16.632l22.488,22.852V328l-6.036-12.204C255.778,315.364,255.462,314.988,255.066,314.708z"></path>			<path d="M150.838,77.276c-1.172,4.844-1.84,9.752-2.012,14.732c-0.092,2.664,4.048,2.66,4.14,0    c0.16-4.616,0.78-9.14,1.864-13.632C155.454,75.788,151.466,74.684,150.838,77.276z"></path>			<path d="M168.874,51.084c-6.264,3.564-9.788,10.16-12.892,16.4c-1.18,2.38,2.388,4.48,3.576,2.092    c2.772-5.572,5.792-11.724,11.404-14.916C173.282,53.34,171.198,49.764,168.874,51.084z"></path>			<path d="M180.294,169.484c-1.604,3.164-4.3,5.28-7.76,6.064c-2.596,0.588-1.5,4.58,1.1,3.992    c4.428-1.004,8.18-3.916,10.232-7.968C185.074,169.204,181.502,167.104,180.294,169.484z"></path>		</g>	</g></g><g></g><g></g><g></g><g></g><g></g><g></g><g></g><g></g><g></g><g></g><g></g><g></g><g></g><g></g><g></g></svg>