<svg xmlns="http://www.w3.org/2000/svg" id="Layer_1" height="512" viewBox="0 0 135 135" width="512"><g><path d="m121.9 128.9c.3-.1.6-.3 1-.8.4-.4.9-1.1 1.2-2.1s.5-2.4 0-4.1c-.1-.4-.3-.8-.5-1.2-.1-.2-.3-.4-.4-.6l-.2-.3-.2-.2c-2.5-3.2-4.4-5.7-11.3-13.8-.2-.2-.4-.5-.6-.7.6-.8 1.2-1.7 1.7-2.4 1-1.6 1.7-3.1 2-4.2s.1-1.7 0-1.7c-.2 0-.3.5-.8 1.4s-1.3 2.1-2.5 3.6c-5.9 7.3-12 11.3-18.2 13.7-.7.3-1.4.6-1.8.6-.2 0-.2 0-.3 0s-.2-.1-.4-.3c-.3-.3-.8-.9-1.1-1.4-3.4-5.3-3.2-11.1-.9-15.2.1-.2.2-.4.3-.6 2.8-4.5 8.6-6.1 13.6-5.9 4.2.2 6.8 1.4 8.5 2.2.4.2.8.4 1.1.6.2.1.3.2.5.3.1.1.3.1.3.2.3.1.5.3.6.4.3.3.5.5.8.5s.6.1.8-.8c.1-.4 0-1.1-.6-1.8-.1-.1-.3-.3-.4-.4s-.3-.3-.4-.4c-.3-.3-.7-.6-1.2-1-1.8-1.3-4.8-3-9.8-3.5-2.3-.2-4.9-.1-7.9.7-6.8-7.4-13.9-14.9-20.8-22.4 11.6-14 26.3-32 36.6-44.9 3.6-4.5 6.6-8.2 8.6-10.8s3-4 2.9-4.1c.1.1.2.2.5 0 .2-.2.8-.7.7-1.9-.1-.6-.4-1.4-1.2-1.9-.8-.6-2.2-.8-3.4.1-.3.3-.4.4-.6.6s-.4.4-.6.5c-.4.4-.8.8-1.2 1.2-.9.9-1.9 1.9-3 3-7.8 7.9-21.8 22.5-47.3 49.6-7.6-8.7-49.6-53.8-50.7-53.8.1-.1.2-.2 0-.5-.1-.3-.6-.8-1.8-.9-.6 0-1.4.2-2.1.9-2.1 2.2-3.6.5 46.9 62.6-3.1 3.4 4.7-5-19.9 21.3-.1.1-.2.2-.3.3-5.5-1.4-11.6-.3-17 4.6-.6.6-1.2 1.1-1.8 2-.3.5-.6 1-.7 1.7s-.1 1.4.1 2c.4 1.1.9 1.8 1.3 2.4 1.1 1.8 2.4 3.5 3.7 5.1-3.8 4.4-7.1 8.3-11.2 13.2-.2.3-.4.5-.7.9-.3.3-.5.7-.7 1-.4.7-.6 1.4-.6 2.1-.2 1.4.2 2.6.6 3.4.5.9 1 1.4 1.4 1.7s.7.4.7.3c.2-.2-.6-.9-1.1-2.4-.2-.8-.3-1.7 0-2.7.1-.5.3-1 .7-1.4.2-.2.3-.4.5-.6s.5-.5.8-.7c4.7-4.6 7.7-7.7 11.9-12.1 1.9 1.9 3.9 3.5 5.9 4.8 0 0-.1.1-.1.1-3.5 3.9-8.5 9.4-11.9 13.4l-.2.2-.1.1c-1.7 2.2-5.1 1.1-5.5 1.1-.5-.1-.7.1-.9.3s-.4.4-.1.9c.1.3.4.6.9 1 2.2 1.6 5.5 1.3 7.5-.4.2-.1.4-.3.6-.5l.3-.3.2-.2c3.9-4 8.2-8.7 12.2-13.1.2-.2.4-.5.6-.7.9.5 1.8 1 2.7 1.3 1.8.8 3.3 1.3 4.4 1.4s1.7-.1 1.7-.2c0 .3 0 .6.8.6.4 0 1.1-.1 1.7-.8.1-.1.2-.3.4-.5.1-.2.2-.3.4-.5.3-.4.5-.8.8-1.3 2.8-5.2 3-11.9.5-18 5.8-7 11.6-14.1 17.5-21.2 2.9 3.6 15.1 18.5 17.7 21.7l.3.3c-2.1 5.2-1.8 11.6 2.3 17.4.5.7 1 1.3 1.8 2 .4.4.9.7 1.6.9s1.4.2 2 .1c1.2-.3 1.8-.6 2.5-1 1.9-.8 3.8-1.9 5.6-3 4.3 4.8 7.6 8.5 11.6 12.7l.8.8c.3.3.6.5.9.8.6.5 1.3.8 2 .9 1.4.4 2.6.2 3.5-.1s1.5-.8 1.8-1.2.5-.6.4-.7c-.1-.2-1 .5-2.5.7-.8.1-1.7.1-2.7-.3-.5-.2-.9-.5-1.3-.8-.2-.2-.4-.4-.6-.6-.2-.3-.4-.5-.6-.8-3.4-4.6-6.8-8.9-10.4-13.4 2.1-1.6 3.9-3.4 5.4-5.2 0 0 .1.1.1.1 4.2 5 7.5 8.8 9.9 11.6.6.7 1.2 1.3 1.7 1.9l.2.2.1.2c.1.1.2.2.2.3.2.2.3.4.3.6.4.8.4 1.6.4 2.3-.1 1.3-.5 1.9-.6 2.4-.1.4 0 .7.2.9.3.6.4.8 1 .6zm-108.8-122.3c-.2-.3-.3-.7-.1-.9.2-.3.4-.5.7-.5.5-.1.9 0 1.1 0s.4 0 .5-.1c-.3.3 7.9 9.9 48.9 55.8-1 1.1-2.1 2.2-3.1 3.3-11.4-14-36.1-44.3-48-57.6zm32.7 108.3c-.2.5-.3.9-.4 1.2-.1.2-.1.3-.2.5s-.1.3-.1.4c-.1.3-.2.5-.3.7-.3.3-.4.6-.3.9 0-.2-.6-.2-1.5-.6s-2.3-1-3.9-2c-6.8-4.2-12.2-9.2-16.1-16.3-.4-.7-.8-1.3-.9-1.7 0-.2 0-.2 0-.3s.1-.2.2-.4c.3-.4.8-.9 1.3-1.3 6.7-5.8 15.2-4.3 19-.3 3.6 3.9 5.8 11.1 3.2 19.2zm1.1-20.2c-.4-.6-.9-1.2-1.5-1.8-.9-1-2.1-1.9-3.4-2.6 11.8-12.6 56.3-59.8 73.7-79.3 1.1-1.2 2-2.3 2.8-3.2s1.4-1.7 2-2.4c.3-.3.6-.3.9-.2s.5.4.6.6c.2.5.1.9.2 1.1 0 .2.1.3.2.4-.2 0-1.4 1.3-3.5 3.6-2.2 2.4-5.3 5.9-9.2 10.3-15.9 18.3-35.2 41.1-62.8 73.5zm39.5.5c-15.3-19-13.9-17.1-17.4-21.5 1.1-1.3 2.2-2.7 3.3-4 6.3 7.1 12.8 14.3 19.1 21.3-.7.3-1.3.7-2 1.2-1.1.8-2.1 1.8-3 3z"></path></g></svg>