<svg xmlns="http://www.w3.org/2000/svg" id="Layer_1" height="512" viewBox="0 0 55 55" width="512"><g id="_x31_75"><path d="m6.1976852 16.1000824c.9710083 2.1846924 2.8077393 3.9278564 5.3264771 4.3859253 2.0247192.3682251 4.0748901-.2302246 5.7197266-1.399231.0706177.031189.1399536.0684204.2098389.1030884-.6543026.8587017-1.5157518 1.8680973-1.6265259 2.9223633-.1352539 1.2832031.4780273 2.8837891 1.8813477 3.3251953.8558884.2699451 1.7432957.0385113 2.5668945-.3271484.965332-.427002 1.890564-.9284058 2.7665405-1.475708 1.5888252 1.2645588 3.0655422 2.4833317 4.6278687 3.7789917-1.1395874 5.2150269-1.5493164 7.3584595-1.723999 9.7123413-.3041992 4.1064453 2.1103516 10.2080078 3.2236328 12.7695313-.7373047-.2685547-1.503418-.4482422-2.2875977-.5371094-.4082031-.0449219-.8447266-.0634766-1.2680664.109375-1.3141136.541172-1.2025299 2.4288788.875 2.5224609 1.2189751.0615654 2.428318-.2535324 3.5166016-.7724609.0610352-.0166016.1186523-.0449219.1694336-.0830078.034668-.0175781.0693359-.0351563.1040039-.0527344.237793-.1230469.3369141-.4111328.2241211-.6542969-1.8916016-4.0908203-3.8203125-9.7138672-3.5600586-13.2275391.2884178-3.8862305 1.6756401-9.0925159 1.7164917-9.7007446 8.0078468-7.2303162 12.4498062-9.4538879 20.6380005-14.9848022.1176758-.0791016.1958008-.2041016.215332-.3447266.2163086-1.5498047-.0458984-3.4589844-.684082-4.9843755-.0834961-.1982422-.2783203-.6630859-.7558594-.8125-.4023438-.1289063-.8637695.0341797-1.144043.4003906-.2138672.2773438-.2861328.6083984-.3251953.8652344-.2470703 1.6250005.340332 3.3261724 1.5107422 4.4677739-7.7672272 5.2066479-12.186512 7.5137539-19.9072266 14.453125-1.8391209-1.5248108-3.3256111-2.7283688-4.2684937-3.5163574 1.276123-.8894653 2.4013672-1.8834229 3.3013916-2.9293213l.8845825 1.30896c.3731155.5515633.8004818.6638222 1.3789063.3662109.5039063-.2587891 1.0004883-.5429688 1.4824219-.8486328.2397156.4909554.9867916.2954006.9373169-.2657471.276123-.0102539.5350952-.0716553.7311401-.1229248 1.1621246-.3046131 3.3424339-.9589329 4.2504883-1.7441406 1.0390625-.9023438 1.0170898-2.6767578.6821289-3.921875-.2416992-.8994141-1.0327148-2.4414063-2.2216797-3.0029297-.4849854-.2299194-.9888306-.2589111-1.4751587-.1101074-.2855835-.3098145-.7481689-.447937-1.2069702-.3439941-.3666992.0820313-.6689453.2880859-.9160156.4794922-1.3568726 1.0469971-2.3413696 2.5114136-2.8167114 4.1542969-.1566772.0089722-.3134766.0438232-.4547729.1328125-.2866669.1824226-.6572342.294405-1.0351563.4814453-.7651367.3759766-1.2016602.9853516-1.1674805 1.6298828.0205078.3850708.2034912.6977539.3656616.9437256-.9215088 1.1201172-2.1225586 2.1881104-3.5072632 3.1257935-1.0405273-.8967285-2.0914307-1.8673706-4.1384277-3.8170166 2.741333-3.0596313 4.5441284-4.5819702 7.484436-6.7400513l.4953003.6096191c.4040604.4960728.8334637.5480614 1.3305664.2304688.4204102-.2646484.8310547-.5498047 1.2275391-.8515625.3176861.4131117.9818134.1275692.8786621-.4003906 1.0620728-.0027466 2.2166138-.5615234 2.9672852-1.2460327.1254272.0224609.2513428.0546265.3752441.0546265 1.5869942 0 2.7337227-1.8461151 1.8466797-3.9042974-.7905273-1.8369141-2.3481445-2.9199219-4.6293945-3.2197266-.0316162-.0042725-.0617065.0010986-.0925293.0026855-.3425903-.1497192-.7475586-.1193848-1.154541.107666-.5395508.3007813-1.0063477.8798828-1.4262695 1.7685547-.3312378.6981201-.6448975 1.5236206-.9564819 2.4943237-.154541.0194702-.3074951.0668335-.4400024.1677856-.2392311.1822715-.573885.320931-.8881836.5107427-.6743164.4101563-1.0263672 1.0107422-.9418945 1.6064453.0676727.4771442.3713894.7927551.7772217 1.2926636-2.4248657 1.7803955-4.0965576 3.145752-6.1343994 5.2672119.3111572-.5692749.5493774-1.1724854.6986694-1.8021851.2785034-.7941895.4391479-1.6273193.4280396-2.4696045-.0400391-3.015625-2.0458984-5.9052739-4.8774414-7.0253911-2.2871094-.9052734-4.8706055-.6289063-7.2744141.7744141-.901062.5256958-1.5722656 1.2727051-2.0452271 2.121521-1.3499295 2.0062842-1.7558987 5.2852159-.4641726 8.1915288zm20.3370362 34.8920288c-.4067383-.0185547-.7646484-.1660156-.7817383-.3212891-.0087891-.0810547.0922852-.2167969.2416992-.2783203.5102463-.2108459 1.9977322.1670609 2.5219727.3359375-.6723633.2041016-1.3383789.2851563-1.9819336.2636719zm21.0571289-43.2031255c.0209961-.1376953.0546875-.3085938.1713867-.4667969.1522064.1053748.8522835 1.8833423.8242188 3.8271489-.7827149-.9082031-1.1748047-2.180664-.9956055-3.360352zm-15.2133789 4.9101568c.1679688-.1298828.3476563-.2548828.5239258-.2949219.1132813-.0253906.2250977.0019531.2587891.0429688.0883789.1064453-.1176758.40625-.2480469.5751953-.3557625.4647303-.4220695.5758257-.9760742.9169922-.2353516.1445313-.3081055.453125-.1635742.6884766.1450195.234375.4526367.3056641.6879883.1630859.7084122-.4363565.8259773-.6257467 1.2436523-1.1582031.244873-.317749.380188-.6105957.4386597-.8849487.2626953-.0893555.5235596-.0892944.7942505.038269.8291016.3925781 1.4833984 1.6152344 1.6831055 2.359375.2797852 1.0410156.2421875 2.3740234-.3710938 2.90625-.7329674.6326962-2.8099518 1.2596931-3.8491211 1.5332031-.2299805.0595703-.425293.1044922-.5888672.0957031-.125-.0068359-.1269531-.0097656-.1713867-.0703125-.0131836-.0180054-.0323486-.0275879-.0473633-.043335-.4122314-1.1413574-1.0007324-2.1619873-1.7362061-3.0076904.3859253-1.508667 1.2908325-2.9100342 2.5213623-3.8601074zm-4.4760742 4.8740234c.1259766-.0625.2573242-.1162109.3881836-.171875.2446289-.1015625.4980469-.2080078.6450195-.3886719.746582.7978516 1.340332 1.8007813 1.7436523 2.9355469-.6886845.4510536-1.4471359.8670368-1.6826172.9765625-.034132-.0474072-1.1491013-1.6977654-1.1818237-1.7461548-.0154419-.1289063-.0797119-.2516479-.1907349-.336853-.0169067-.0128784-.0371094-.0162964-.0550537-.0266724-.0746326-.1105938-.2676697-.3783455-.2769775-.5612183-.0136719-.2558593.2963867-.5263671.6103516-.680664zm4.1918945-10.8652349c.0004883 0 .0004883-.0009766.0004883-.0009766.0396957-.1403561.8473396-1.1701174.3632813-2.2080078 1.0488281.4423828 1.7998047 1.1806641 2.2416992 2.2070313.1450195.3369141.2973633.8476563.199707 1.3701177-.1835022.9761534-.9616432 1.4405098-1.8320313.9248047-.4663277-.2760067-1.1080894-1.0102334-1.1762695-1.523438-.0336914-.2617188.0488281-.4804688.203125-.7695313zm-2.8745117-1.3095703c.3237305-.6845703.6635742-1.1298828 1.0097656-1.3232422.0805664-.0449219.2260742-.1103516.293457-.0556641.1181641.0996094.2128906.46875.0917969.8232422-.1668644.4869151-.6830616.9738812-.7407227 1.7011719-.0214844.2753906.1835938.515625.4589844.5371094.2817383.0263672.5161133-.1826172.5380859-.4589844.0175782-.2246093.1567383-.4541015.3173829-.7197265.1367188-.2265625.2783203-.4609375.3725586-.7363281.0116577-.0341797.0108032-.0697632.0205688-.1043091.0788879.3652782-.0926762.6688857-.2817993 1.0144653l-.0874023.1611328c-.459013.8590088-.4739933 1.5881929.1918945 2.5214849.2886353.4047241.6135864.7109375.9570923.9525146-.7163086.4970703-1.6821899.8191528-2.3609009.6356812-.4501953-.944519-1.034729-1.7751465-1.7282104-2.4536748.310791-.984314.621582-1.8068238.9474487-2.4948731zm-2.6699219 3.6005864c.2786293-.167942.5926189-.2976866.9057617-.5195313.6850586.6357422 1.2602539 1.4453125 1.6914063 2.3759766-.4345703.3417969-.8896484.6630859-1.3579102.9580078-.0014648.0019531-.003418.0029297-.0048828.0039063-.1097069-.1350985-1.5248795-1.8778143-1.4345703-1.7666016-.1118164-.1376953-.2514648-.3095703-.2700195-.4414063-.0292969-.205078.2236328-.4609374.4702148-.6103515zm-14.4046631-3.4174809c.3565674.2414551.6030273.5020752.8421631.8540039-.7839355-.2294312-1.5978394-.3640747-2.4162598-.4210815.5239868-.1990357 1.0499878-.3510743 1.5740967-.4329224zm-4.6134033 2.8673711c.7460938.0531006 1.4609985.5247192 1.8208008 1.1829224-.8228149-.1108398-1.6673584.0421143-2.4152222.4002075.1289063-.5664063.3283691-1.1002198.5944214-1.5831299zm1.6791992-1.7985234c.046936-.0273438.0949097-.0455933.1419678-.0719604.7332764.1833496 1.4171143.5631714 1.9488525 1.1012573-1.0826416-.2802735-2.2456665-.2442628-3.3151855.0733032.3483886-.4476929.7559814-.8292237 1.2243652-1.1026001zm10.6601563 17.5458989c-.7880859.3486328-1.3779297.4404297-1.862793.2880859-.8637695-.2724609-1.2817383-1.3662109-1.1870117-2.2666016.0829563-.7854767.9287415-1.7584858 1.4966431-2.5137329 1.15979.8026733 2.21875 1.9365234 3.1973877 2.7155151.2324219.1849976.4647827.3699341.6972046.5549316-.7465211.4486085-1.5288087.8623048-2.3414307 1.2218019zm-4.2573243-18.2539068c2.4648438.9755859 4.2104492 3.4873052 4.2451172 6.1093755.0294189 2.1959839-1.1904907 4.34552-3.0090332 5.5359497-1.3634176.8083858-2.7493505 1.0644054-4.3167725.8687744-1.515625-.2485352-2.9536133-.9996948-3.8968506-2.1752319-.9462891-1.1796875-1.6191406-2.3105469-1.8251953-3.9931641-.067688-.5524292-.0587158-1.1031494.0093384-1.6368408.8515625-.5206909 1.9065552-.6953735 2.8773804-.4422607.1937647.0457191.3558111-.1289549.3032227-.3125-.230957-.7919922-.8476563-1.4423828-1.6030273-1.7568359 1.1660156-.2832036 2.4365234-.188477 3.5351563.2822266.2292433.0943298.4409666-.1593475.309082-.3642578-.4169922-.6494145-1.0058594-1.1855474-1.684082-1.5537114.9931641.0703125 1.9794922.2783203 2.909668.6152344.0986328.0341797.2084961.0058594.2758789-.0742188.0673828-.0791016.078125-.1933594.0268555-.2841797-.2974243-.5263672-.569519-.90979-.9242554-1.2417603.1266479-.007019.2543945-.027771.3803101-.027771.8208006 0 1.6245115.149414 2.3872068.4511718z"></path><ellipse cx="14.552" cy="9.196" rx=".665" ry=".687"></ellipse><path d="m10.518364 11.5565033c-.3673706 0-.6651611.307373-.6651611.6865845 0 .3792725.2977905.6866455.6651611.6866455s.6651611-.307373.6651611-.6866455c0-.3792115-.2977905-.6865845-.6651611-.6865845z"></path><path d="m12.044487 15.1884003c-.1083984.0849609-.1269531.2421875-.0415039.3505859.086132.1091566.2426472.1273489.3510742.0419922.5244141-.4130859 1.3393555-.4453125 1.8959961-.0742188.1142578.0761719.2700195.0458984.3466797-.0693359s.0454102-.2705078-.0693359-.3466797c-.741211-.4941406-1.784668-.4511719-2.4829102.0976563z"></path><path d="m38.9458542 5.2645717c-.1162109-.0703125-.2709961-.0332031-.3427734.0849609l-1.5 2.5c-.1015968.1684003.02388.3789067.2143555.3789067.0844727 0 .1674805-.0429688.2143555-.1210938l1.5-2.5000005c.0712889-.118164.0327147-.2724608-.0859376-.3427733z"></path><path d="m38.5874557 9.1024628 1.7441406-1.0087891c.1191406-.0693359.1601563-.2226567.0908203-.3417974-.0698242-.1201172-.2236328-.1601563-.3417969-.0917969l-1.7441406 1.0107427c-.1191406.0683594-.1601563.2216797-.0908203.3408203.0698663.1206084.2241936.1605111.3417969.0908204z"></path><path d="m38.5396042 11.0702362c.0271683.0034924 2.0038567.2597656 2.03125.2597656.1235352 0 .230957-.0917969.2475586-.2177734.0175781-.1367188-.0791016-.2626953-.2158203-.2802734l-1.9995117-.2578125c-.1337891-.0107422-.2617188.0791016-.2797852.2158203-.0175781.1367187.0791016.2626953.2163086.2802734z"></path></g></svg>