<svg xmlns="http://www.w3.org/2000/svg" xmlns:x="http://ns.adobe.com/Extensibility/1.0/" xmlns:i="http://ns.adobe.com/AdobeIllustrator/10.0/" xmlns:graph="http://ns.adobe.com/Graphs/1.0/" id="Layer_1" height="512" viewBox="0 0 66 66" width="512"><g><g id="XMLID_1_"><path d="m62.75 39.77c-.09.09-.25.09-.35 0-.1-.1-.1-.26 0-.36l.29-.29-.34-.33c-.09-.1-.09-.26 0-.36.23-.22.46.11.69.34l.07-.06c.23-.24.58.12.35.35l-.06.06.49.49c.1.1.1.26 0 .36s-.26.1-.36 0l-.49-.49z"></path><path d="m38.79 34.94c-.11-.63-.17-1.27-.18-1.91 0-.25.01-.5.03-.74l-.42-.04c-.14-.01-.24-.13-.23-.27.02-.13.14-.24.27-.22l.43.03c.09-.77.28-1.5.54-2.17l-.27-.1c-.13-.05-.19-.19-.15-.32.05-.13.2-.2.33-.15l.29.11c.29-.6.65-1.14 1.08-1.61l-.45-.27c-.12-.07-.16-.22-.09-.34s.22-.16.34-.09l.55.33c.19-.18.38-.34.59-.49s.43-.28.66-.4l-.18-.25c-.08-.11-.06-.27.05-.35s.27-.06.35.05l.24.32c.54-.24 1.1-.41 1.68-.55l-.12-.59c-.07-.33.42-.42.49-.1l.12.58c.63-.12 1.27-.21 1.87-.29.13-.02.26.07.28.21.01.14-.08.27-.22.28-.59.08-1.22.17-1.84.29l.11.55c.03.14-.06.27-.19.3-.02 0-.03 0-.05 0-.12 0-.22-.08-.25-.2l-.11-.54c-.5.12-1 .27-1.48.48l.17.23c.08.11.06.27-.05.35-.05.03-.1.05-.15.05-.08 0-.15-.04-.2-.11l-.23-.3c-.23.12-.45.25-.67.4-.14.1-.28.23-.42.35l.11.07c.12.07.16.22.09.34-.05.08-.13.12-.22.12-.04 0-.09-.01-.13-.03l-.22-.14c-.41.44-.76.96-1.04 1.53l.54.2c.13.05.19.19.14.32-.03.1-.13.16-.23.16-.03 0-.06 0-.09-.01l-.56-.21c-.25.62-.43 1.31-.52 2.03l.3.03c.13.01.24.13.23.27-.02.13-.12.23-.25.23-.01 0-.02 0-.02 0l-.3-.03c-.02.23-.03.46-.03.69 0 .57.06 1.12.14 1.68l.08-.04c.13-.07.28-.02.34.1s.02.28-.11.34l-.22.12c.11.54.24 1.08.4 1.61l.32-.26c.11-.08.27-.06.36.04.08.11.06.27-.04.35l-.49.39c.19.59.4 1.19.62 1.79.07-.06.17-.08.25-.04.13.05.19.2.14.33l-.18.44c-.04.09-.13.15-.24.15-.1 0-.19-.06-.23-.16-.27-.73-.54-1.45-.77-2.18l-.32.25c-.04.04-.1.05-.15.05-.08 0-.15-.03-.2-.09-.08-.11-.07-.27.04-.35l.47-.37c-.17-.57-.32-1.14-.44-1.71l-.7.36c-.03.02-.07.03-.11.03-.09 0-.18-.05-.22-.13-.07-.13-.02-.28.1-.34z"></path><path d="m49.6 54.08 1.09-1.09-.44-.45-1.1 1.09zm-.8-.09-1.49 1.49 2.76-.24c-.01-.01-.03-.01-.04-.02l-.46-.46c-.09.04-.16.07-.26-.04-.07-.07-.07-.17-.04-.26zm-3.6 1.51-.19.19 1.77-.16c-.03-.09-.03-.2.04-.27l.16-.16-.7-.69-.83.83c0 .07-.02.13-.07.18s-.11.08-.18.08zm-.05-.66.78-.78-.67-.67-.78.78zm-1.02-.32-1.18 1.18c.37.04.84.05 1.4.03.01-.06.02-.12.07-.16l.38-.38zm16.33-13.26.39.38c.27-.43.65-.79 1.18-.98l-.48-.49zm-1.38 5.74-1.05 1.05 1 .99c.46-.13.88-.32 1.17-.64.04-.06.06-.12.1-.18l-.24-.24-.6.6c-.1.1-.26.1-.35 0-.1-.1-.1-.26 0-.35l.6-.61zm.38-3.05-1.36 1.36.98.98.25-.25c.1-.1.25-.1.35 0s.1.26 0 .36l-.25.24.63.63.11-.11c.1-.1.26-.1.35 0 .1.1.1.26 0 .35l-.11.11.13.13c.27-.83.12-1.65-.03-2.48-.02-.13-.04-.26-.06-.39-.03-.01-.07-.01-.1-.04zm-4.59 4.54 1.25 1.25c.87-.37 1.42-.38 2.34-.56l-.78-.78-1.07 1.07c-.1.1-.26.1-.35 0-.1-.1-.1-.25 0-.35l1.07-1.07-1.01-1.01zm-2.14 6.46c-.05-.01-.1-.02-.13-.06l-1.55-1.54-1.1 1.09.43.43c.1.09.1.24.01.34l1.39-.13c.35-.03.67-.07.95-.13zm1.37-2.74-.96-.96-1.74 1.74.96.96zm-1.2 2.7c1.66-.4 1.69-1.13 1.59-2.14-.01-.07-.02-.14-.03-.22l-1.75 1.75.24.24c.1.09.1.25 0 .35-.01.01-.03.01-.05.02zm-15-12.56c-1.54-3.39-3.4-7.49-2.64-11.7 1.23-6.77 9.23-12 19.1-8.76 4.08 1.34 7.38 4.03 7.58 7.92.06 1.13-.18 2.21-.27 3.28-.1 1.22.08 2.12.53 2.76.79 1.11 3.05 1.93 2.78 4.06-.13 1.1-.93 1.46-1.97 1.58-3.64.42.11 5.11-2.06 7.57-1.43 1.61-4.98.83-5.46 2.6-.08.3-.05.64-.01 1.01.25 2.4-1.2 3.2-3.62 3.41l-6.8.6c-.44.04-.85.06-1.23.06-2.06 0-3.84-.66-3.48-2.7.78-4.5-.59-7.6-2.45-11.69zm-1.66-11.52c-.72 3.94 1.12 7.91 2.57 11.11 1.87 4.1 3.35 7.46 2.52 12.27-.14.8.24 1.17 1.02 1.37l.3-.29c-.02-.01-.03-.01-.05-.02l-.77-.77c-.09-.1-.09-.26 0-.35.1-.1.26-.1.36 0l.77.76c.01.02.01.04.02.05l.8-.8c-.07-.1-.08-.24.01-.33s.23-.08.33-.01l.81-.81c.1-.1.26-.1.35 0 .01 0 .01.01.01.01.1-.07.23-.08.32.01l.67.67 1.76-1.75c.1-.1.25-.1.35 0 .1.09.1.25 0 .35l-1.75 1.76.69.69 1.12-1.12-.43-.42c-.1-.1-.1-.26 0-.36.1-.09.26-.09.36 0l.42.43 1.69-1.69c.09-.1.25-.1.35 0s.1.26 0 .35l-.24.25.45.44 1.74-1.73-.9-.89c-.09-.1-.09-.26 0-.36.1-.1.26-.1.36 0l.89.89.42-.42c.09-.09.25-.09.35 0 .1.1.1.26 0 .36l-.41.42.95.95c.01-.15.03-.3.07-.45.16-.59.55-1.06 1.14-1.41l-1.14-1.14-.67.67c-.1.09-.26.09-.35 0-.1-.1-.1-.26 0-.36l.66-.67-.66-.67c-.1-.09-.1-.25 0-.35.09-.1.25-.1.35 0l.67.67 1.45-1.45-.52-.51c-.09-.1-.09-.26 0-.36.1-.09.26-.09.36 0l.51.52.16-.16c.1-.1.25-.1.35 0s.1.26 0 .35l-.16.16 1.01 1.01 1.05-1.05-1.36-1.36c-.1-.1-.1-.26 0-.36.1-.09.25-.09.35 0l.03.03 1.36-1.36-.36-.36c-.1-.1-.1-.26 0-.35.1-.1.25-.1.35 0l.36.35.11-.11c.1-.09.25-.09.35 0 .1.1.1.26 0 .36l-.11.11.54.54c-.02-.27-.04-.54-.03-.81.02-.38.11-.81.28-1.22l-1.01-1.01c-.09-.1-.09-.25 0-.35.1-.1.26-.1.36 0l.15.15 1.1-1.09-.18-.18c-.1-.1-.1-.25 0-.35s.25-.1.35 0l.18.18.06-.06c.09-.1.25-.1.35 0s.1.26 0 .36l-.06.05c.1.1.62.61.7.72.68-.1 1.3-.07 1.39-.75.18-1.48-1.7-2.06-2.61-3.35-.59-.84-.83-1.96-.71-3.42.09-1.1.32-2.13.27-3.14-.19-3.55-3.39-5.88-6.9-7.03-9.37-3.07-16.69 1.87-17.8 7.99z"></path><path d="m37.13 19.83c-1.44-.53-3.09-.39-4.42.37-.24.13-.54.05-.68-.19s-.05-.54.19-.68c2.33-1.33 5.95-.87 5.55.21-.1.25-.39.39-.64.29z"></path><path d="m30.69 16.94c2.66-2.66 6.83-2.59 9.44-.25.2.18.22.5.04.71-.19.2-.5.22-.71.03-2.34-2.1-5.88-1.96-8.06.22-.2.19-.52.19-.71 0-.19-.2-.19-.52 0-.71z"></path><path d="m42.56 17.18c-3.88-4.89-11.57-4.58-14.98.79-.15.22-.46.3-.69.15-.24-.15-.31-.46-.16-.69 3.76-5.9 12.27-6.34 16.62-.87.17.21.13.53-.09.7-.21.17-.53.14-.7-.08z"></path><path d="m24.32 14.43c5.88-7 16.64-6.84 22.35.16.17.21.14.53-.08.7-.09.08-.2.11-.31.11-.15 0-.29-.06-.39-.18-5.46-6.7-15.52-6.44-20.81-.15-.17.21-.49.24-.7.06s-.24-.49-.06-.7z"></path><path d="m14.7 25.03-.04-.6c-.01-.13.09-.25.23-.26.13-.03.26.09.27.23l.04.62c.44 0 .87.02 1.26.05.13.02.24.14.22.28-.01.13-.13.24-.27.22-.36-.03-.76-.05-1.18-.05l.06.77c.01.14-.1.26-.23.27-.01 0-.02 0-.02 0-.13 0-.24-.1-.25-.23l-.06-.8c-.55.01-1.12.07-1.71.18l.23.51c.05.12-.01.27-.13.33-.13.05-.27 0-.33-.13l-.27-.61c-.51.12-1.02.29-1.52.51l.22.26c.09.11.07.27-.03.36-.11.09-.27.07-.36-.03l-.29-.36c-.64.33-1.06.6-1.68 1.24l.45.38c.11.09.12.25.03.35-.08.11-.24.12-.35.03l-.47-.39c-.58.69-.98 1.49-1.19 2.32l.51.34c.12.07.15.23.08.34-.08.12-.24.15-.35.08l-.35-.24c-.08.56-.08 1.12.05 1.66.03.13-.06.27-.19.3-.14.03-.27-.06-.3-.19-.15-.67-.14-1.37-.01-2.06l-.8-.52c-.12-.07-.15-.23-.07-.34.07-.12.23-.15.34-.08l.64.42c.24-.84.67-1.64 1.25-2.35l-.37-.32c-.11-.08-.12-.24-.04-.35.21-.25.49.09.76.3.69-.72 1.11-.97 1.73-1.31l-.43-.52c-.09-.1-.07-.26.04-.35.1-.09.26-.07.35.03l.5.6c.54-.25 1.09-.44 1.64-.58l-.08-.19c-.06-.13 0-.27.13-.33.12-.06.27 0 .33.13l.12.29c.65-.13 1.28-.19 1.89-.21z"></path><path d="m21.26 51.92-1-1-1.32 1.32 1 1zm-.96 1.67 1.12 1.12 1.32-1.32-1.12-1.12zm-3.44 1.73-.5-.5-.42.42zm-.15-.85.82.82c.03.03.03.06.04.09l.46.04c-.06-.09-.06-.21.02-.29l1.54-1.54-1-1zm-1.71-1.72 1.36 1.36 1.88-1.87-1.36-1.36zm-.77 2.33-.78-.78-.55.55c.37.11.8.19 1.33.23zm.53-.18c.06.07.07.15.05.24l.64.05c-.02-.08-.01-.16.05-.22l.51-.5-1.36-1.36-.85.84zm11.92-12.87-1.72 1.72 1 1c.34-.83.7-1.64 1.06-2.44-.04-.02-.08-.02-.11-.05zm-5.65 13.66c1.65.14 3.92.15 3.64-1.47-.11-.62-.17-1.23-.21-1.84l-1.01 1.01.98.99c.1.09.1.25 0 .35s-.26.1-.35 0l-.99-.98-1.35 1.35c.03.08.03.18-.04.25-.1.1-.2.08-.3.02-.21.06-.32-.09-.29-.27l-1.17-1.16-1.51 1.52zm-17.92-15.2c1.72.2 2.49 1.32 2.57 2.84.09 1.73-.95 3.84.13 5.06 1.19 1.36 4.94.37 5.67 3 .2.72-.09 1.93.05 2.4.1.37.39.66.85.88l.72-.73-.7-.7c-.1-.09-.1-.25 0-.35s.25-.1.35 0l.7.7.88-.88c-.01-.08 0-.16.06-.22s.14-.07.22-.05l1.96-1.96c-.02-.08-.01-.16.05-.22s.14-.07.22-.06l.81-.81c.09-.09.25-.09.35 0 .1.1.1.26 0 .36l-.77.77 1.36 1.36 1.32-1.32-.82-.82c-.1-.1-.1-.26 0-.35.1-.1.26-.1.35 0l.82.82.23-.23c.1-.1.26-.1.35 0 .1.1.1.26 0 .35l-.22.23 1 1 1.36-1.36-1.42-1.42c-.09-.09-.09-.25 0-.35.1-.1.26-.1.36 0l.1.1 1.4-1.4-.58-.58c-.1-.1-.1-.25 0-.35s.25-.1.35 0l.58.58.99-.99c.1-.1.26-.1.35 0 .1.1.1.26 0 .35l-.98.99.58.58c.05.05.07.11.07.18s-.02.13-.07.18c-.1.1-.26.1-.36 0l-.58-.58-1.4 1.4 1 .99c.08-.01.16 0 .22.06.07.06.08.14.06.22l.44.44c.1.1.1.26 0 .36s-.25.1-.35 0l-.41-.41-1.36 1.36 1.12 1.12 1.11-1.1c.07-.07.16-.07.25-.05-.03-1.45.14-2.73.45-3.96.21-.9.51-1.77.86-2.67l-1.17-1.17c-.01 0 0-.02-.01-.02-.02 0-.03.02-.05.02-.07 0-.13-.03-.18-.08-.1-.09-.1-.25 0-.35l1.98-1.98-.07-.06c-.09-.09-.09-.25 0-.35.1-.1.26-.1.36 0l.06.06c.28-.28.63.08.35.36l.19.18c.32-.71.64-1.43.95-2.16l-.45-.46-.71.7c-.09.1-.25.1-.35 0s-.1-.26 0-.35l.71-.71c-.08-.1-.08-.24.01-.33s.23-.09.33-.01l.49-.49c.1-.1.26-.1.35 0 .1.1.1.25 0 .35l-.48.49.31.31c.05-.12.1-.23.15-.35 1.26-3.18 1.65-5.73 1.23-8.02-1.13-6.22-8.55-11.03-17.8-7.99-3.54 1.16-6.71 3.49-6.9 7.02-.15 2.77 1.54 5.19-1.7 7.79-.72.58-1.47 1.18-1.35 2.13.07.59.52.65 1.1.71zm7.4 11.17c-.52-1.89-3.91-.85-5.46-2.6-1.48-1.68-.29-4.07-.37-5.68-.15-3.08-3.34-.86-3.66-3.47-.27-2.13 1.99-2.94 2.78-4.06 1.14-1.61.15-4 .26-6.04.21-3.97 3.64-6.62 7.58-7.92 9.92-3.26 17.88 2.03 19.1 8.76 1.54 8.47-6.67 14.26-5.09 23.4.43 2.47-2.2 2.86-4.71 2.64l-6.8-.61c-.76-.07-3.07-.27-3.58-2-.21-.74.09-1.93-.05-2.42z"></path></g></g></svg>