<svg xmlns="http://www.w3.org/2000/svg" id="Layer_1_4_" height="512" viewBox="0 0 48 48" width="512"><path d="m23.514 6.842c-.684-1.882-.747-3.797-.057-5.684.042-.183.737-.712 1-.001.694 1.878.746 3.797.057 5.684-.04.096-.325.373-.601.36-.227-.011-.368-.284-.399-.359zm23.308 16.653c-1.872-.688-3.775-.66-5.644.026-.074.031-.3.313-.311.54-.014.276.216.42.311.46 1.872.688 3.775.66 5.644-.026.205-.077.489-.818 0-1zm-23.28 17.667c-.685 1.881-.726 3.798-.026 5.676.239.64.958.182 1 0 .686-1.881.691-3.785.026-5.676-.173-.493-.958-.182-1 0zm-16.698-17.67c-1.888-.689-3.81-.647-5.689.052-.581.216-.182.958.001 1 1.888.689 3.801.62 5.689-.052.623-.222.182-.958-.001-1zm2.374-13.566c.521.283.844-.505.707-.707-1.223-2.194-2.933-3.945-5.137-5.151-.552-.302-.841.507-.707.707 1.223 2.194 2.929 3.952 5.137 5.151zm29.6.015c2.143-1.173 3.911-2.933 5.128-5.12.131-.237-.038-1.056-.707-.708-2.189 1.214-3.91 2.933-5.128 5.12-.129.236.119 1.03.707.708zm2.876 30.357c-.873-.84-1.791-1.632-2.929-2.207-.726-.367-.842.507-.707.707 1.222 2.196 2.97 3.898 5.158 5.128.567.319.842-.507.707-.707-.578-1.136-1.377-2.057-2.229-2.921zm-32.453-2.214c-2.195 1.229-3.969 2.916-5.194 5.119-.132.238.031 1.097.707.708 2.195-1.229 3.969-2.916 5.195-5.119.13-.237-.096-1.033-.708-.708zm27.608-12.568c-2.906 5.068-7.298 9.16-12.048 12.383-.552.378-1.04.495-1.217.338-3.471-2.019-6.314-5.088-8.996-8.056-5.221-5.49-9.175-17.213.827-19.879 3.613-.77 7.419 1.507 8.595 4.883 3.99-10.523 21.397-3.548 12.839 10.331zm-12.321-8.625c-.101.516-.436 1.587-.881.833-2.563-11.424-20.943-5.27-7.681 11.323 2.367 3.014 5.054 5.808 7.884 8.398.1-.114.212-.228.344-.34 27.162-22.975 3.483-31.709.334-20.214z"></path></svg>