<svg xmlns="http://www.w3.org/2000/svg" xmlns:xlink="http://www.w3.org/1999/xlink" id="Capa_1" x="0px" y="0px" width="299.726px" height="299.726px" viewBox="0 0 299.726 299.726" style="enable-background:new 0 0 299.726 299.726;" xml:space="preserve"><g>	<g>		<g>			<path d="M295.469,241.954c-1.837-33.049-2.448-66.708-5.509-100.369c0.611-0.612,1.225-1.836,0.611-3.06    c-1.836-7.344-6.12-14.076-12.852-17.748c-0.612,0-1.226-0.612-1.226-0.612c1.837-17.748,1.837-36.108-0.611-53.856    c-2.447-14.688-7.955-54.468-23.256-62.424c-11.017-5.508-36.107-1.836-48.96-2.448c-17.748-0.612-35.496-1.224-53.244-1.224    c-41.616-0.612-82.62,0-124.236,3.06c-3.06,0-6.12,3.06-4.896,6.732c8.568,29.376,14.688,59.364,20.196,89.352    c-5.508,4.896-10.404,11.016-14.688,16.524c-4.896,6.12-9.792,11.628-14.688,18.36c-0.612,1.224-0.612,2.448,0,3.06    c-4.896,25.705-5.508,51.409-6.732,77.724c-0.612,17.137-7.956,48.349,3.672,63.035c7.956,10.404,23.868,8.568,35.496,9.181    c33.66,2.448,67.32,4.896,100.368,7.345c30.6,2.447,61.812,6.12,92.412,4.896c14.688-0.611,39.78,0,51.408-11.017    C300.976,276.838,296.692,256.029,295.469,241.954z M282.004,136.689c-0.611,0.612-0.611,0.612-0.611,1.224    c-0.612,0-1.225,0.612-2.448,1.224c-1.836,1.836-4.284,3.672-6.12,5.508c1.225-4.896,1.836-9.792,3.061-14.688    C277.719,131.793,280.168,133.629,282.004,136.689z M32.92,13.677c55.08-1.224,109.548-2.448,164.627-0.612    c12.239,0.612,29.987-2.448,41.615,1.836c16.524,5.508,20.196,23.868,24.48,39.168c9.18,31.212,9.18,63.036,1.836,94.248    c0,0.612,0,1.224,0,1.836c-21.42,18.359-42.84,34.885-65.484,52.021c-0.611,0.611-1.224,1.225-1.224,1.836    c-13.464-14.688-34.272-38.556-54.468-39.779c-17.748-0.612-31.824,17.747-43.452,28.765c-1.836,1.836-4.284,3.672-6.12,5.508    c0-0.612,0-1.836-0.612-2.448c-9.792-11.016-23.256-19.584-34.884-28.764c-1.224-1.225-2.448-1.836-3.672-3.061    c1.224,0,2.448-0.612,2.448-1.837C56.176,112.209,43.936,62.638,32.92,13.677z M12.724,259.701    c-4.896-14.688,0.612-40.393,0.612-56.305c0.612-22.031,2.448-43.451,2.448-65.483c0,0,0.612,0,0.612-0.612    c6.12-5.508,11.628-12.24,17.136-18.36c3.06-3.672,6.12-6.732,9.18-10.404c3.06,18.36,6.732,36.108,10.404,54.468l0,0    c-11.628-8.568-22.644-17.749-35.496-25.092c-1.224-0.612-2.448,1.224-1.224,1.836c11.628,12.24,25.092,22.644,37.332,33.048    c11.628,9.792,22.644,20.195,36.108,27.54c0.612,0,1.224,0.611,1.836,0.611c-24.48,22.645-50.184,44.677-72.828,69.156    C17.008,267.046,14.56,263.985,12.724,259.701z M145.528,286.018c-19.584-1.224-39.78-3.06-59.364-4.283    c-18.36-1.225-47.736,1.836-63.648-9.181c17.748-13.464,33.66-28.151,50.184-43.452c18.972-17.136,55.08-62.424,84.456-50.184    c20.196,8.567,40.393,37.943,55.08,53.855c17.136,18.359,33.66,37.332,50.796,55.691    C228.76,298.869,167.56,287.854,145.528,286.018z M287.512,266.434c-1.837,7.956-7.345,14.076-15.301,17.748    c-22.645-26.315-45.899-51.407-69.769-76.5h0.612c28.15-14.688,54.468-34.884,77.11-56.916c0.612,18.36,1.837,36.721,3.062,55.08    C285.676,223.594,291.184,248.686,287.512,266.434z"></path>			<path d="M214.072,59.578c-42.84-1.224-86.292,2.448-128.52,7.956c-1.836,0-1.836,3.06,0,3.06    c42.84-1.224,86.292-3.06,128.52-7.344C217.132,63.861,217.132,59.578,214.072,59.578z"></path>			<path d="M229.372,88.954c-41.004-10.404-83.23-3.06-123.624,3.672c-2.448,0.612-1.224,4.284,1.224,3.672    c41.004-5.508,80.783-8.568,122.398-3.672C231.208,93.85,231.208,89.565,229.372,88.954z"></path>			<path d="M217.132,120.777c-39.779-4.284-82.619,0.612-122.399,2.448c-3.06,0-3.06,4.896,0,4.896    c40.392,0.612,83.231,4.284,123.011-1.836C221.416,125.673,220.192,120.777,217.132,120.777z"></path>			<path d="M84.328,25.917c-4.896,1.224-8.568,4.284-11.628,7.956c-2.448-1.836-5.508-2.448-9.18-3.06    c-2.448,0-4.896,2.448-4.896,4.896c0.612,4.284,2.448,7.344,5.508,9.792c0.612,1.224,1.224,2.448,2.448,3.06    c2.448,1.836,7.344,1.836,10.404,0.612h0.612C84.328,47.95,88,38.158,89.224,32.038C91.06,28.366,88,25.306,84.328,25.917z"></path>		</g>	</g></g><g></g><g></g><g></g><g></g><g></g><g></g><g></g><g></g><g></g><g></g><g></g><g></g><g></g><g></g><g></g></svg>