<svg xmlns="http://www.w3.org/2000/svg" xmlns:xlink="http://www.w3.org/1999/xlink" id="Capa_1" x="0px" y="0px" width="376.725px" height="376.725px" viewBox="0 0 376.725 376.725" style="enable-background:new 0 0 376.725 376.725;" xml:space="preserve"><g>	<g>		<path d="M365.999,107.534c-14.688-20.808-42.229-28.152-65.484-16.524c-12.852,6.12-26.928,22.032-33.048,37.944   c-17.748-32.436-61.812-49.572-87.516-22.032c-11.628-16.524-38.556-12.852-53.856-3.06   c-11.016,7.344-19.584,18.972-23.868,31.824C90.598,111.818,67.954,93.458,39.19,97.742C-2.426,104.474-6.098,146.09,6.142,179.75   c15.3,39.78,42.84,80.171,81.396,100.98c12.24,6.73,26.316,14.075,39.78,8.567c11.016-4.896,21.42-20.195,29.988-28.151   c13.464-13.464,26.928-26.929,39.168-41.616c17.748,18.359,39.78,32.437,59.978,39.168c1.224,3.672,5.508,6.12,9.792,3.672   C309.695,238.502,409.451,168.734,365.999,107.534z M102.837,272.774c-24.48-6.12-47.736-35.496-61.2-55.08   c-14.688-22.032-40.392-64.26-24.48-90.576c13.464-22.644,44.064-19.584,61.2-4.284c12.24,11.016,17.136,25.704,20.808,40.392   c1.836,7.956,13.464,4.284,12.24-3.06c0-1.224-0.612-1.836-0.612-3.06c1.836-14.688,7.344-28.152,18.36-37.944   c12.852-12.24,31.212-15.912,45.9-3.672c-1.224,2.448-3.06,4.896-4.284,7.956c-14.076,31.824-1.836,64.26,20.196,89.964   C167.709,232.383,133.438,280.73,102.837,272.774z M346.415,176.69c-21.42,31.212-55.08,55.081-86.904,74.052   c-29.376-20.808-61.812-37.943-75.276-74.052c-6.12-15.912-11.628-41.616,1.224-56.304c12.242-14.076,36.109-18.36,52.02-9.18   c15.302,9.18,20.81,24.48,26.316,39.78c1.224,3.06,3.06,4.284,5.508,3.672c3.062,0.612,6.732-1.224,6.12-4.896   c-3.06-33.048,39.168-59.364,66.708-47.124C372.729,117.938,360.491,157.106,346.415,176.69z"></path>	</g></g><g></g><g></g><g></g><g></g><g></g><g></g><g></g><g></g><g></g><g></g><g></g><g></g><g></g><g></g><g></g></svg>