<svg xmlns="http://www.w3.org/2000/svg" id="Layer_1" height="512" viewBox="0 0 68 68" width="512"><g id="_x33_3"><path d="m12.24646 49.8579979c1.8153362 0 2.2750769-2.0681725.9428711-2.9140625-.1748047-.1103516-.3779297-.1416016-.5678711-.0986328-.9744577-.371563-1.9304056.0752296-2.2163086.9160156-.383771 1.1301994.6035499 2.0966797 1.8413086 2.0966797z"></path><path d="m53.5297241 9.3793001c-3.8779449-.1393938-7.8395042 1.6371679-10.496521 4.5936279-1.1936035.6602173-1.5273438.3922729-2.326355.0230103-.8557129-.3955078-1.5756836-1.0270996-2.3520508-1.5618286-2.510498-1.729187-5.7040405-2.4360962-8.7098389-1.9279175-.8707886.1471558-1.6954346.4769897-2.491394.8742676-3.0131226 1.0145874-5.6298828 3.1794434-7.0438232 6.0722647-3.6710815 7.4550171.7114868 15.9164429 12.9849243 25.1524658-.665905.5234833-.5454407.4358635-.6289673.5028076-.1030273.0585938-.2216797.1328125-.2875977.1767578-1.6417542 1.0122108-3.6091232.9052353-5.4135742 1.1201172-2.7790318 0-6.6658993 2.3365021-9.956665 3.0927124-.164978-.5180054-.3282471-1.036377-.5198975-1.5497437-.512207-1.3720703-2.09375-2.2470703-3.7646484-2.1054688-1.6762695.1523438-3.1508789.3671875-4.3828125.6396484-2.1226602.4665604-6.9830346.0717964-6.4829102 2.3691406 1.075527 4.9220314.9745386 8.6364899 1.8745117 12.2714844.0991211.4013672.5058596.6523438.9082034.546875.4023438-.0986328.6474609-.5058594.5478516-.9082031-.8689842-3.5117683-.7509084-7.0329018-1.8266604-12.0537109.4951172-.2509766 2.0878909-.3925781 2.9760745-.4716797 3.3058429-.2927818 2.6301007-.5460777 6.5214839-.8994141.9697266-.0888672 1.9521484.4101563 2.2236328 1.1367188 1.9350586 5.1826172 2.4472656 10.6347656 1.4897461 15.8085938-2.9042149.0526581-7.666996.2559967-10.3598633.2880859-.4431858.0052261-.8471375.4105453-.701416.9434204l-.090332.2756348c.3109741.4255409 2.0039673 1.488224 2.5310059 1.4923134 1.1653438.0089722 3.0463862.0651245 3.51123.0438843 2.5602417-.1170654 4.3273926-.2662354 6.5246582-.3846436.729248-.0393066 1.2877197-.4996338 1.2942505-1.0922279.0151978-1.371521.0101929-2.7766113.0327759-4.1358032 17.2972984 6.488987 33.9766121 2.4521675 43.791626-7.9579468.8009644-.8495483 1.5696411-1.7624512 1.9549561-2.8918457.24646-.7224731.4107666-1.8311768.0604858-2.6865845.4154358-1.747757-1.0883255-2.9992981-2.656311-2.7019043-1.0888367.203701-2.0208893.9868927-2.7416992 1.3017578-5.9952011 3.205265-5.1286545 3.1555138-14.0273438 5.65625-.2123566.0308533-7.9474792 1.6177788-11.388855 1.2398682 1.9987144-1.1325607 4.3810844-2.5637321 6.0211182-4.1672974.7335129.4637985 1.0692024.6416206 1.8898315 1.1307983-.1671753.2033081.8562622.6781006 1.654541.9937134.3418579.1351929.7283325.1012573 1.0426636-.0891724 7.9515381-4.8173714 18.3556595-14.8880119 20.9418335-23.6149292 1.1389771-3.8435669 1.0216675-8.1969604-1.0299683-11.6409903-2.0516962-3.4440306-6.9960931-5.1889037-11.0978998-4.9049071zm7.2594605 2.4547119c-1.4215698-1.0744019-3.1164551-1.8152466-4.996582-2.1864014 1.8166503.1517335 3.5854492.9594117 4.996582 2.1864014zm-30.7570801 40.3267203c-.3681641.1894531-.5136719.640625-.3242188 1.0097656.1898174.3698654.6438866.5128517 1.0097656.3242188.5338745-.2740479 1.0304565-.5368652 1.5197754-.7977905 2.7093315 1.3655243 10.6163063-.2998619 13.5334473-.7901001 8.7960129-2.462635 8.3264503-2.4927521 14.3994141-5.7792969.7184906-.3042145 1.6196938-1.0388107 2.3793945-1.1806641.5603523-.1024399.9303246.2726784.9506836.6035156.0785637 1.2520752-2.6446304 3.5305862-3.4624023 4.2958984-5.1589279 4.7031631-12.1797256 8.2311172-19.875 9.046875-.0254097.0018845-.0583038.0078087-.0849609.0126953v.0009766c-.0361328.0078125-.0712891.0185547-.105957.03125l-.006836-.0263672c-4.4994965.4775124-8.2690315-.0616684-8.6025391-.0283203v-.0058594c-5.936676-.5372124-11.8455315-1.7553558-12.8088379-1.9080811-.0663452-.0440063-.1387329-.0786743-.2173462-.0979004-.0223999-2.6454468-.4028931-5.3085327-1.1085815-7.9325562 3.6370506-.8618011 5.9572906-2.6315842 9.6152344-3.0380249 2.8314152-.3018265 4.620266-.1236534 6.8994141-1.8867188 2.4221115-1.8180923 4.7534027-5.0190315 8.296875-4.546875.5883789.0855713 1.0581665.314209 1.4401855.6906128.6440582.8266716-.5186501 2.1271935-1.1896973 2.8445435-5.8909454 6.2890739-.7140198.8253517-2.9213867 3.1494141-2.0428009 2.1512948-6.3877678 4.4950601-9.3364258 6.0087892zm11.1533203-5.7597657c0-.000061 0-.000061 0-.0001221 2.5012741-2.6916084 3.9712143-3.4808731 4.0595703-5.2303467.0545082-.6976166-.2199745-1.5768394-.621582-1.9960938-1.340683-1.4067612-3.4966698-1.4954987-5.3510742-.9150391-2.0277214.6395683-3.3899498 1.9306564-5.0116577 3.3587036-11.8318481-8.8251953-16.1403809-16.7304688-12.8042603-23.505188 1.7402344-3.5615225 5.71875-5.95996 9.6918945-5.8710928 2.8085938.0683594 5.5605469 1.3447266 7.5478516 3.4990234 1.3851738 1.5174875 3.691925 1.3972788 4.9125977-.1572266 2.3266602-2.9814453 6.0292969-4.7705078 9.6416016-4.7226563 6.7806511.12813 10.7913513 5.125576 10.2368164 10.3378897-.0004883.0009766-.0004883.0009766-.0004883.0019531-.4106445 3.9882813-1.9726563 7.5078125-5.0654297 11.4140625-4.3410339 5.496006-10.0247002 10.4965858-15.7641602 14.6513672-.505146-.2990224-.9383431-.5358845-1.4716797-.8652341z"></path><path d="m6.6434331 18.375576h.0039063l6.2172847-.0332031c.4140625-.0019531.7480469-.3398438.7460938-.7539063-.0019531-.4130859-.3374023-.7460938-.75-.7460938-.0014648 0-.0024414 0-.0039063 0l-6.2172848.0332032c-.4140625.0019531-.7480469.3398438-.7460938.7539063.0019532.4130859.3374024.7460937.7500001.7460937z"></path><path d="m13.574585 13.5640535c.2929611.2929611.7675705.2929773 1.0605469 0 .2929688-.2929688.2929688-.7675781 0-1.0605469l-4.0415039-4.0419922c-.2929688-.2929688-.7675781-.2929688-1.0605469 0s-.2929688.7675781 0 1.0605469z"></path><path d="m18.0379639 9.0650301c.1933422.3697481.6500645.5062876 1.0126953.3154297.3666992-.1923828.5078125-.6455078.3154297-1.0126953l-2.7783203-5.2958985c-.1918945-.3662109-.6469727-.5087891-1.012207-.3154297-.3671875.1923828-.5083008.6455078-.315918 1.0126953z"></path><path d="m29.024292 14.4146395c-3.0424805 1.0380859-5.2573242 4.2451162-5.3857422 7.7998037-.1083984 3.0048828 1.140625 6.1425781 3.5170898 8.8369141.1484375.1679688.3549805.2539063.5629883.2539063.6393185 0 .9900208-.7608624.5620117-1.2460938-2.121582-2.4052734-3.237793-5.171875-3.1430664-7.7900391.1064453-2.9472656 1.9038086-5.59375 4.3710938-6.4345694.3920898-.1337891.6015625-.5595703.4677734-.9521484-.133789-.3916016-.5610351-.6015625-.9521484-.4677734z"></path></g></svg>