<svg xmlns="http://www.w3.org/2000/svg" id="Layer_1" height="512" viewBox="0 0 66 66" width="512"><g><g><path d="m14.094 29.24c1.939 6.835 11.759 18.685 17.459 23.877.093.085.212.128.332.128.077 0 .155-.018.227-.056 9.246-4.812 16.507-13.23 19.919-23.094 4.26-12.325-4.39-15.998-11.064-14.035-2.397.705-4.542 2.016-6.499 3.457-2.851-2.822-6.526-4.457-10.107-4.493-6.445-.115-12.795 5.304-10.267 14.216zm14.233 16.104 1.078 1.078-1.564 1.564c-.39-.427-.78-.86-1.17-1.306l1.637-1.637c-.061.096-.064.219.019.301zm7.292 4.26-.051-.051 1.363-1.363.355.355c.045.045.103.064.161.067-.594.456-1.2.897-1.819 1.318.079-.097.081-.236-.009-.326zm-2.514-2.514 1.363-1.363.988.988-1.363 1.363zm.64 1.335-.821.821-.987-.987.821-.821zm2.059-1.362.779.779-1.363 1.363-.779-.779zm1.83 1.133-.355-.355 1.906-1.906.678.678c-.705.633-1.435 1.237-2.182 1.819.022-.083.018-.17-.047-.236zm-.703-.703-.779-.779 1.906-1.906.779.779zm1.474-3.032 1.822-1.822.779.779-1.822 1.822zm-.347-.348-.988-.988 1.822-1.822.988.988zm-.348.348-1.906 1.906-.988-.988 1.906-1.906zm-3.242.57-1.488-1.488 1.906-1.906 1.489 1.488zm-.348.348-1.363 1.363-1.488-1.488 1.363-1.363zm-1.711 1.711-.821.821-1.488-1.489.821-.821zm-1.168 1.169-1.615 1.615c-.484-.494-.968-1.001-1.452-1.524l1.58-1.58zm-1.272 1.967 1.62-1.62.987.987-1.579 1.579c-.012.012-.009.03-.018.044-.337-.324-.673-.651-1.01-.99zm1.992 1.93c-.217-.2-.433-.416-.65-.621.01-.008.024-.005.034-.014l.531-.531c.109.1.252.083.339-.005l.132-.132c.093-.093.091-.241.003-.337l.573-.573.519.519c.096.096.252.096.348 0s.096-.252 0-.348l-.519-.519.821-.821.779.779-.202.202c-.096.096-.096.252 0 .348s.252.096.348 0l.203-.203.051.051c.101.101.194.081.293.023-1.162.789-2.361 1.522-3.603 2.182zm8.262-5.878-.691-.691 1.822-1.822.156.156c.096.096.252.096.348 0s.096-.252 0-.348l-.156-.156 2.21-2.21c.012-.012.009-.029.018-.042l.551.551c-1.301 1.627-2.726 3.152-4.258 4.562zm11.872-23.491c-.009-.014-.006-.033-.019-.046l-.065-.065.062-.062c.008.058.014.115.022.173zm-27.847-6.779h.103c3.285.033 6.667 1.527 9.322 4.108-.758.583-1.487 1.177-2.192 1.75-.211.172-.243.481-.071.692s.482.244.692.071c2.65-2.156 5.653-4.599 9.142-5.625 3.784-1.112 9.568-.325 10.727 5.063-.028.012-.059.011-.082.034l-.227.227-.619-.619c-.096-.096-.252-.096-.348 0s-.096.252 0 .348l.619.619-1.036 1.036c-.096.096-.096.252 0 .348.01.01.025.007.036.015-.023.083-.018.17.047.235l.995.994-1.078 1.078c-.096.096-.096.252 0 .348s.252.096.348 0l1.125-1.125c.004 0 .008.005.012.005.063 0 .126-.024.174-.072.068-.068.07-.16.042-.246.01-.073-.003-.148-.06-.204-.04-.04-.093-.053-.145-.06l-1.059-1.059.946-.946.065.065c.096.096.252.096.348 0 .03-.03.033-.07.045-.108.248 2.308-.331 4.797-1.021 6.791-1.444 4.177-3.597 8.087-6.306 11.56l-1.964-1.964 1.947-1.947.612.612-.702.703c-.096.096-.096.252 0 .348s.252.096.348 0l.702-.703.453.453c.096.096.252.096.348 0s.096-.252 0-.348l-.453-.453 1.228-1.228c.096-.096.096-.252 0-.348s-.252-.096-.348 0l-1.228 1.228-.612-.612 2.323-2.323.536.536c.096.096.252.096.348 0s.096-.252 0-.348l-.666-.666c-.011-.02-.008-.044-.025-.061s-.041-.014-.061-.025l-2.21-2.21c-.096-.096-.252-.096-.348 0s-.096.252 0 .348l.869.869-2.323 2.323-.403-.403 1.543-1.543c.096-.096.096-.252 0-.348s-.252-.096-.348 0l-3.838 3.839-.327-.327c-.096-.096-.252-.096-.348 0s-.096.252 0 .348l.327.327-.828.828c-.096.096-.096.252 0 .348s.252.096.348 0l.828-.828 3.086 3.086c-.013.009-.031.006-.042.018l-2.21 2.21-.779-.779 1.455-1.455c.096-.096.096-.252 0-.348s-.252-.096-.348 0l-1.455 1.455-.988-.988 1.946-1.946c.096-.096.096-.252 0-.348s-.252-.096-.348 0l-1.946 1.946-2.205-2.205c-.096-.096-.252-.096-.348 0s-.096.252 0 .348l2.205 2.205-1.822 1.822-1.489-1.488 1.555-1.555c.096-.096.096-.252 0-.348s-.252-.096-.348 0l-1.555 1.555-.452-.452c-.096-.096-.252-.096-.348 0s-.096.252 0 .348l.452.452-1.906 1.906-1.036-1.036c-.096-.096-.252-.096-.348 0s-.096.252 0 .348l1.036 1.036-1.363 1.363-.577-.577c-.096-.096-.252-.096-.348 0s-.096.252 0 .348l.577.577-.821.821-1.078-1.078c-.083-.083-.205-.08-.3-.02l5.606-5.606c.096-.096.096-.252 0-.348s-.252-.096-.348 0l-7.284 7.284c-3.284-3.801-9.833-12.142-11.308-17.335-2.284-8.065 3.24-12.964 9.21-12.964zm18.567 19.452.403.403-.702.702c-.096.096-.096.252 0 .348s.252.096.348 0l.702-.702.862.862-1.947 1.947-1.613-1.613zm4.284-1.057-2.323 2.323-.862-.862 2.323-2.323z"></path></g><g><path d="m51.935 14.592 4.723-4.723c.192-.192.192-.504 0-.696s-.504-.192-.696 0l-4.723 4.723c-.192.192-.192.504 0 .696s.503.192.696 0z"></path></g><g><path d="m33.776 8.725c.272 0 .492-.22.492-.492v-6.238c0-.272-.22-.492-.492-.492s-.492.22-.492.492v6.238c0 .272.22.492.492.492z"></path></g><g><path d="m15.839 15.149c.192.192.504.192.696 0s.192-.504 0-.696l-4.873-4.873c-.192-.192-.504-.192-.696 0s-.192.504 0 .696z"></path></g><g><path d="m1.492 32.993h8.238c.272 0 .492-.22.492-.492s-.22-.492-.492-.492h-8.238c-.272-.001-.492.22-.492.492s.22.492.492.492z"></path></g><g><path d="m56.883 32.723c0 .272.22.492.492.492h7.132c.272 0 .492-.22.492-.492s-.22-.492-.492-.492h-7.132c-.271 0-.492.22-.492.492z"></path></g><g><path d="m50.794 48.74c-.192.192-.192.504 0 .696l4.978 4.978c.192.192.504.192.696 0s.192-.504 0-.696l-4.978-4.978c-.193-.193-.504-.193-.696 0z"></path></g><g><path d="m33.934 64.005v-7.793c0-.272-.22-.492-.492-.492s-.492.22-.492.492v7.793c0 .272.22.492.492.492s.492-.22.492-.492z"></path></g><g><path d="m11.943 54.333c.192.192.504.192.696 0l4.341-4.341c.192-.192.192-.504 0-.696s-.504-.192-.696 0l-4.341 4.341c-.192.193-.192.504 0 .696z"></path></g><g><path d="m56.2 21.456c.12.245.415.344.659.224l5.994-2.948c.244-.12.344-.415.224-.659s-.416-.344-.659-.224l-5.994 2.948c-.243.12-.344.415-.224.659z"></path></g><g><path d="m41.562 10.271c.247.086.534-.043.624-.307l2.011-5.905c.088-.257-.05-.537-.307-.624-.256-.089-.537.05-.624.307l-2.011 5.905c-.088.257.049.537.307.624z"></path></g><g><path d="m22.512 10.569c.121.245.416.344.659.224.244-.12.344-.415.224-.659l-3.042-6.184c-.119-.243-.414-.343-.659-.224-.244.12-.344.415-.224.659z"></path></g><g><path d="m3.177 22.834 7.798 2.656c.247.086.534-.043.624-.307.088-.254-.048-.536-.307-.624l-7.798-2.656c-.258-.088-.537.05-.624.307-.018.053-.026.106-.026.159 0 .204.128.395.333.465z"></path></g><g><path d="m62.756 43.363c.247.086.534-.043.624-.307.088-.257-.05-.537-.307-.624l-6.752-2.3c-.256-.09-.537.05-.624.307-.088.257.05.537.307.624z"></path></g><g><path d="m48.31 60.837c.244-.12.344-.415.224-.659l-3.108-6.318c-.12-.244-.415-.344-.659-.224s-.344.415-.224.659l3.108 6.318c.121.244.416.343.659.224z"></path></g><g><path d="m23.887 62.65 2.513-7.377c.088-.257-.05-.537-.307-.624-.257-.09-.536.05-.624.307l-2.513 7.377c-.088.257.05.537.307.624.247.086.534-.043.624-.307z"></path></g><g><path d="m11.923 43.036-5.51 2.71c-.244.12-.344.415-.224.659.121.245.416.344.659.224l5.51-2.71c.244-.12.344-.415.224-.659-.119-.243-.414-.344-.659-.224z"></path></g><g><path d="m50.647 27.934-.703.703c-.096.096-.096.252 0 .348s.252.096.348 0l.702-.702.13.13c.096.096.252.096.348 0s.096-.252 0-.348l-.13-.13.167-.167c.096-.096.096-.252 0-.348s-.252-.096-.348 0l-.166.166-.703-.703c-.096-.096-.252-.096-.348 0s-.096.252 0 .348z"></path></g><g><path d="m28.827 48.099c.096.096.252.096.348 0l.167-.167c.096-.096.096-.252 0-.348s-.252-.096-.348 0l-.167.167c-.096.096-.096.252 0 .348z"></path></g><g><path d="m47.204 33.158 1.871-1.871.581.581c.096.096.252.096.348 0s.096-.252 0-.348l-.581-.581.752-.752c.096-.096.096-.252 0-.348s-.252-.096-.348 0l-.752.752-.987-.987 1.749-1.749c.096-.096.096-.252 0-.348s-.252-.096-.348 0l-2.382 2.382c-.096.096-.096.252 0 .348s.252.096.348 0l.285-.285.987.987-1.871 1.871c-.096.096-.096.252 0 .348s.252.096.348 0z"></path></g><g><path d="m19.572 27.876c.063 0 .126-.024.174-.072l1.278-1.278.806.806-.868.868c-.096.096-.096.252 0 .348.048.048.111.072.174.072s.126-.024.174-.072l.868-.868 1.354 1.354c.019.019.045.017.068.028l-1.595 1.595c-.096.096-.096.252 0 .348.048.048.111.072.174.072s.126-.024.174-.072l3.204-3.205c.096-.096.096-.252 0-.348s-.252-.096-.348 0l-1.301 1.301c-.011-.022-.009-.049-.028-.068l-1.354-1.354 1.582-1.582c.002-.002.001-.006.003-.008l.697.697-.943.943c-.096.096-.096.252 0 .348.048.048.111.072.174.072s.126-.024.174-.072l.943-.943.427.427c.048.048.111.072.174.072s.126-.024.174-.072c.096-.096.096-.252 0-.348l-.427-.427.694-.694 1.178 1.178-2.097 2.097c-.096.096-.096.252 0 .348.048.048.111.072.174.072s.126-.024.174-.072l2.097-2.097.831.831c.048.048.111.072.174.072s.126-.024.174-.072c.096-.096.096-.252 0-.348l-.841-.841c.069-.096.072-.226-.014-.313-.086-.086-.217-.084-.313-.014l-1.188-1.188.404-.404c.044.035.094.061.148.061.063 0 .126-.024.174-.072.089-.089.086-.225.011-.322l.293-.293c.096-.096.096-.252 0-.348s-.252-.096-.348 0l-.286.286-1.848-1.848.289-.289c.096-.096.096-.252 0-.348s-.252-.096-.348 0l-.289.289-.322-.322.357-.357c.096-.096.096-.252 0-.348s-.252-.096-.348 0l-.357.357-.459-.459c-.096-.096-.252-.096-.348 0s-.096.252 0 .348l.459.459-1.439 1.439-.608-.608c-.096-.096-.252-.096-.348 0s-.096.252 0 .348l.608.608-.98.98c-.096.096-.096.252 0 .348.048.048.111.072.174.072s.126-.024.174-.072l.98-.98.322.322-1.588 1.588-1.203-1.203c-.096-.096-.252-.096-.348 0s-.096.252 0 .348l1.203 1.203-1.278 1.278c-.096.096-.096.252 0 .348.048.046.111.07.174.07zm7.022-3.223-.397.397-.347-.347c-.096-.096-.252-.096-.348 0s-.096.252 0 .348l.347.347-.694.694-1.848-1.848 1.439-1.439zm-3.957-1.08 1.439-1.439.322.322-1.439 1.439zm.322 1.018.809.809c-.002.002-.006.001-.008.003l-1.582 1.582-.806-.806z"></path></g></g></svg>