<svg xmlns="http://www.w3.org/2000/svg" id="Layer_1" height="512" viewBox="0 0 66 66" width="512"><g><path d="m64.56 22.87c-.15-4.94-2.75-9.88-6.78-12.88-3.41-2.54-7.44-3.36-11.35-2.32-5.03 1.35-8.43 4.11-12.03 7.04-.55.45-1.12.91-1.69 1.37-1.01-.8-1.99-1.65-2.94-2.48-4.2-3.65-8.54-7.43-15.32-6.78-8.5.8-11.52 8.37-12.42 11.59-2.39 8.5 2.5 18.9 14.54 30.94 6.8 6.79 11.86 9.76 16.92 9.91h.3c3.85 0 7.83-2.22 12.86-7.15l.26-.25c7.59-7.44 17.98-17.63 17.65-28.99zm-18.66 27.96-.26.25c-4.86 4.76-8.59 6.84-12.11 6.73-4.6-.14-9.52-3.07-15.95-9.49-11.64-11.63-16.4-21.56-14.16-29.52.82-2.93 3.56-9.83 11.17-10.55.47-.04.92-.07 1.37-.07 5.39 0 9.03 3.16 12.87 6.5 1.11.96 2.25 1.96 3.44 2.88.26.2.63.2.89 0 .74-.58 1.45-1.16 2.16-1.74 3.63-2.95 6.76-5.5 11.49-6.77 3.47-.93 7.06-.19 10.11 2.08 3.69 2.74 6.06 7.25 6.2 11.77.31 10.74-9.82 20.67-17.22 27.93z"></path><path d="m53.31 16.99c-.44-.35-.71-.5-.74-.46-.09.1.94.82 1.87 2.5.95 1.65 1.64 4.33 1.29 7.24-.37 2.92-1.48 5.41-2.3 7.17-.84 1.76-1.41 2.84-1.32 2.89.07.04.79-.95 1.75-2.67.94-1.72 2.17-4.25 2.55-7.31.38-3.07-.44-5.89-1.55-7.57-.55-.85-1.11-1.44-1.55-1.79z"></path><path d="m7.43 17.45c-.07-.05-.47.38-.91 1.21s-.85 2.09-.93 3.54c-.08 1.44.2 2.74.55 3.61.34.88.7 1.34.77 1.3.19-.08-.81-2.16-.63-4.88.12-2.72 1.33-4.68 1.15-4.78z"></path></g></svg>