<svg xmlns="http://www.w3.org/2000/svg" id="Layer_1" height="512" viewBox="0 0 73 73" width="512"><g id="_x38_9"><path d="m63.4133568 35.7164345c1.4738197-4.1080952 1.4907265-8.2716694.0239258-12.3784199-3.7809105-10.6790104-16.4967842-14.0052929-22.7138672-9.4257803-3.7615623 2.7882509-4.2688751 4.6470709-5.9296875 3.8574209-1.9849434-.949749-2.9867325-3.6217871-9.4057617-4.7592764-3.1218262-1.171936-7.2902222-.482666-8.5119629-.1505127-3.0445557.8276978-5.8768311 2.4968872-8.0040283 4.8357534-4.4873047 4.9338989-5.8066406 12.3432617-3.9082031 18.7366352 3.7407961 12.5981026 17.1149769 19.2068138 28.3504028 26.2466431.6016121.3768539 2.2643051.7975082 2.5993652.0991821 1.2175293-.9465332 2.4038086-1.866272 3.581604-2.7766113 2.7745476 2.1334267 6.2648506 4.39674 9.6030273 6.0841026.7931175.4009552 1.4825706.5115128 2.2736816-.1088867 7.9529533-6.2102737 12.3386116-9.1896248 15.2539101-13.3779259 3.8209992-5.4904059 2.797905-13.0870322-3.2124061-16.8823241zm-27.9975586 25.5493164c-5.8395844-4.7136459-12.6859856-8.1643906-18.4101563-12.8457031-4.0273438-3.2998047-10.7392578-10.1416016-10.4375-18.8779316.2421875-6.5263672 4.9335938-12.6816406 11.15625-14.6357412 2.7470703-.8642578 5.7763672-.9091797 8.7617188-.1279297 5.0846672 1.3340425 5.432251 3.2795153 7.6630859 4.3457022 2.7769699 1.314682 3.6999435-1.2110729 7.4648438-4.0058584 2.5634766-1.8867188 5.5029297-1.8144531 8.0410156-1.4970703 5.4746094.6787109 10.4443359 4.7851553 12.3691406 10.218749 1.3213501 3.7021484 1.3272095 7.4517822.0495605 11.1565571-6.1550636-2.7620506-9.6701241 2.4517097-10.8432007 3.1132202-1.2965088-1.0975342-4.7792358-2.954834-6.3670654-3.4953613-2.1146851-.7199097-4.3968506-.4779053-6.5266113.1963501-8.713028 2.7584152-10.7907276 15.0595551-.039978 24.2205811-.9499512.7348631-1.9059448 1.4760741-2.8811035 2.2344359zm29.979496-9.5244141c-2.7758713 3.9860992-7.0062828 6.865406-14.4765663 12.6865196-3.5346756-2.8068848-7.6128197-4.8808327-11.0029297-7.6591759-12.5661411-10.2934341-3.686821-22.3721008 5.5-19.9345703 3.1264458.8250847 3.0927162 1.9021683 4.6044922 2.6201172 1.9007683.9037743 2.6269379-.8237381 4.8417969-2.4609375 1.4228516-1.0527344 2.8427734-1.453125 4.4716797-1.2460938 3.1044922.3857422 6.3212929 3.1416016 7.4834023 6.4082031 1.0947265 3.0791017.5498046 6.7529298-1.4218751 9.5859376z"></path><path d="m15.4919701 20.0186787c-3.6405716 1.6869469-5.506444 5.9022579-4.1601563 9.7919922.3248816.9392033 1.7430401.4452229 1.4179688-.4902344-1.0827112-3.1230469.396883-6.5633678 3.3730469-7.9404297.3759766-.1738281.5390625-.6201172.3652344-.9960938-.1738282-.375-.6201173-.5371093-.9960938-.3652343z"></path><path d="m61.061306 39.3907509c-.8769379-.4559135-1.5716972.8791847-.6855469 1.3339844 1.3417969.6904297 2.2871094 2.1689453 2.3505859 3.6767578.0180931.4395714.4118042.7512703.7802734.7177734.4140625-.0175781.7353554-.3671875.7177773-.7802734-.086914-2.0615235-1.3281288-4.0039063-3.1630897-4.9482422z"></path><path d="m53.9265404 7.2384062-.4326172 3.4580078c-.123703.9826183 1.3639107 1.1738625 1.4882813.1865234l.4326172-3.4589844c.1239738-.9847683-1.3668671-1.1708593-1.4882813-.1855468z"></path><path d="m61.4948997 8.399539-2.7275391 4.90625c-.4794884.8612146.8335037 1.5906019 1.3105469.7285156l2.7275391-4.90625c.4829331-.8697471-.8319969-1.5945768-1.3105469-.7285156z"></path><path d="m63.0134544 17.0352802 3.026371-2.0175772c.826004-.5483398-.0049973-1.7988844-.8300781-1.2480469l-3.0283241 2.0175781c-.8246193.5489684.0094871 1.7943164.8320312 1.248046z"></path></g></svg>