<svg xmlns="http://www.w3.org/2000/svg" id="Layer_1" height="512" viewBox="0 0 73 73" width="512"><g id="_x33_6"><path d="m49.167408 21.8828049c-.9541016 2.2822266-.3076172 5.1347656 1.5375977 6.7832031 1.845665 1.6477108 4.7530746 1.9703159 6.9130859.765625 2.1606445-1.2050781 3.4160156-3.8466797 2.9848633-6.2822266-1.0298424-5.8211231-9.1533242-6.7259102-11.4355469-1.2666015zm7.7202148 6.2382812c-2.062027 1.1488152-5.1252174.5082035-6.260437-2.097168-.2355347-1.1567383.2784424-2.4631348 1.0830688-3.2939453 1.8676987-1.9286366 5.3104591-1.8899536 7.418335.7104492.3082276 1.8178712-.6294555 3.7822266-2.2409668 4.6806641z"></path><path d="m67.7109833 23.7514572c-1.4857941-6.7977695-6.5906982-12.3122139-11.7086143-14.2026377-2.8004913-1.0212307-4.1550827-1.1503906-6.7338867-1.1503906-13.7581367 0-23.1557178 13.1136866-19.7631855 25.3830566-9.4974366 7.0532237-17.1529532 12.9846202-23.3735348 18.1140147-.5068359.4169922-.8320313 1.0087891-.9160156 1.6679688l-.7998047 6.3183594c-.0920115.7277756.1082048 1.4780273.708252 2.1037598 1.30616 2.0405045 4.6237655 1.8674545 8.9433594 2.5837402.6687012.0915527 1.3629761-.0095215 1.9551382-.333252 1.5529175-.8491211 1.3150635-2.244873 1.5825806-3.5568848.1188965-.5830078.7194214-.9187012 1.2939453-.7636719 1.1956787.3225098 2.4829712.338623 3.5880127-.1870117 1.0028076-.4770508 1.8410645-1.8796387 1.9580688-2.9838867.0386963-.3652344.0494995-.7338867.0443726-1.1032715-.0095825-.6914063.6439209-1.2041016 1.3068237-1.0075684.9897461.293457 1.9993896.4978027 3.0214233.4157715 1.5028687-.1208496 2.8862305-.9147949 3.2656879-2.3740234.2685547-1.0324707.0882568-2.2709961.3864136-3.295166.3811035-1.3095703 1.637207-1.9572754 2.7069092-2.8032227.3776855-.298584.7304077-.5332031 1.0710449-.748291 5.3815918 3.395752 12.2600708 4.4060059 18.3209229 2.4645996 10.0407452-3.2163925 16.4970669-13.8078194 13.1420865-24.5419922zm-11.5670128 20.9526367c-5.7781334 2.8139572-13.4631958 2.4593163-19.1005859-1.9638672-.0052299-.0041351-.1158028-.0653343-.1821289-.092041-.3978233-.1648293-.6396828.059494-.7402344.0891113-5.7048969 4.5191994-5.7868633 4.2673264-5.8559589 4.8173828l-.4970703 3.9257813c-.0756836.5996094-.6279297 1.0166016-1.222168.9482422l-5.1152344-.6474609c-.421875-.0507813-.7866211.2382813-.8383789.6503906l-.5488281 4.3339844c-.0852089.6733589-.7029781 1.1166229-1.3310547 1.0322266-4.0357323-.4387932-4.1643543-.6941109-4.5942383-.3603516-.1572256.1220703-.2597647.3007813-.284667.4990234-.4863186 3.1149483-.2310619 3.5850525-.8354492 4.0537109-.2304688.1787109-.5151367.2587891-.8061523.2197266-7.4302959-1.0472221-7.5872774-.7193222-8.0693359-1.3408203-.1767578-.2285156-.2543945-.5126953-.2182617-.7998047.9036775-6.373497.6077747-6.5457726 1.1811523-7.015625 16.9053726-13.9408989 23.9142799-17.9424477 24.0204468-18.8942871.0502872-.4390831-2.3686695-6.3605881 1.0567036-13.5061035 4.2768478-8.9978619 14.7030258-12.8394222 23.3232422-9.69629 5.3307419 1.9708014 10.4945946 8.2403421 11.1137657 15.3046885.6396473 7.4374999-3.7568332 15.1933593-10.4555637 18.4423827z"></path><path d="m17.8514881 29.5898361c-.4057617-.0947266-.8081055.1513672-.9042969.5546875s.1518555.8076172.5546875.9042969c5.1036205 1.2141685 4.8696251 1.1835938 5.0327148 1.1835938.8855743 0 1.0329456-1.2734222.1743164-1.4794922z"></path><path d="m16.2069569 22.8290939c-.1801758.3720703-.0239258.8212891.3486328 1.0009766 2.2675781 1.0966797 4.3828125 2.4882813 6.2880859 4.1357422.3172894.2725849.7890091.2344379 1.0581055-.0771484.2709961-.3125.2363281-.7861328-.0766602-1.0576172-2.0048828-1.7333984-4.230957-3.1972656-6.6162109-4.3505859-.375-.1845704-.8217774-.0244141-1.0019531.3486327z"></path><path d="m25.2469959 24.4882736c.3974609-.1152344.6259766-.5322266.5102539-.9296875l-1.8017578-6.1777344c-.1162109-.3974609-.5317383-.6269531-.9301758-.5097656-.3974609.1152344-.6259766.5322266-.5102539.9296875l1.8017578 6.1777344c.1157818.3957806.5307732.6262569.9301758.5097656z"></path></g></svg>