<svg xmlns="http://www.w3.org/2000/svg" id="Layer_1" height="512" viewBox="0 0 53 53" width="512"><g><path d="m32.9 47.9c.2.2 3 3.1 2.9 3 .4.4 1 .4 1.4 0l4-3.9c1.4 1.4 1.9 1.9 2.5 2.3 4.2 2.5 8.7-2.7 5.9-6.5-.4-.5-8.4-8.4-21.2-21 3-6.1 1.2-13.4-4.1-17.2-2.6-2-6-2.9-9.2-2.6-3.2.2-6.2 1.7-8.4 4 2.3-2.2 5.3-3.4 8.4-3.6s6.2.8 8.6 2.8c5.1 4.1 6.2 11 3.1 16.3-.2.3-.1.6.1.9 5.7 5.8 20.9 21.2 21.1 21.4 1.6 2.2-1 5.2-3.4 3.7-.3-.2-.3-.2-2.8-2.7-.4-.4-1-.4-1.4 0l-4 4-1.4-1.6c.1-.1 1.8-1.8 1.7-1.7.4-.4.4-1 0-1.3-.3-.3-4.4-4.3-4.2-4.2-.4-.4-.9-.4-1.3 0l-1.8 1.8-1.7-1.7 4-4c.3-.3.3-.9 0-1.2-2.9-2.9-5.8-5.7-8.7-8.5-.2-.2-.6-.3-.9-.1-5.3 3.1-12.2 2-16.3-3.1-1.9-2.4-2.9-5.5-2.8-8.6.2-3.2 1.5-6.3 3.7-8.6-2.3 2.2-3.8 5.2-4.1 8.4s.6 6.5 2.6 9.2c3.8 5.3 11.1 7.1 17.2 4.1 2.5 2.6 5 5.2 7.6 7.7l-4.1 4c-.3.3-.3.9 0 1.2.2.2 3 3.1 2.9 3 .3.4.9.4 1.3 0 .1-.1 1.9-1.9 1.8-1.7l2.8 2.9-1.7 1.7c-.5.4-.5 1-.1 1.4z"></path><path d="m15.3 19.7c1.3-.1 2.5-.8 3.2-1.8-1 .7-2.2 1-3.2.9-1.1-.1-2-.6-2.7-1.4-1.3-1.5-1.2-3.9.2-5.2 1.3-1.4 3.7-1.5 5.2-.2.8.7 1.3 1.6 1.4 2.7s-.2 2.2-.9 3.2c1-.7 1.7-1.9 1.8-3.2s-.3-2.8-1.3-3.8c-.9-1.1-2.4-1.7-3.8-1.7s-2.9.6-3.9 1.6-1.6 2.5-1.6 4c0 1.4.7 2.9 1.7 3.8 1.2.8 2.6 1.3 3.9 1.1z"></path></g></svg>