<svg xmlns="http://www.w3.org/2000/svg" id="Layer_1" height="512" viewBox="0 0 73 73" width="512"><g id="_x32_5"><path d="m37.8012428 7.378149c-1.1727905.4026346-1.5458527.7838154-2.1464844 1.2910156-2.6538963-.5599966-5.6082497 1.460247-6.3828125 5.1884766-.2885132 1.3873901.0184326 2.7303467.8144531 3.6234741.2185059 1.916687.8352661 4.3549194 2.0058594 6.0259399 1.6650658 2.3972301 4.6267052 3.7634201 7.2792969 2.9980469 1.8369141-.5341797 3.4052734-2.0439453 4.3007813-4.1416016.6890411-1.6114578.8115845-3.9472599.9176025-5.7183228 3.9250679-3.7149209-.4724502-11.4293469-6.7886963-9.2670287zm-3.2636718 2.7050782c.0820313 0 .1738281-.0029297.1660156-.0068359 1.3502083.0208368.9111862.597784 2.2050781-.5048828 1.0208549-.8643236 2.4769173-1.1831923 3.7158203-1.0205078 2.8342094.364151 5.0403976 3.9705238 3.350769 6.5084839-1.3612862-1.5365887-1.1037788-2.2926817-1.8097534-2.4537964-.2373047-.0546875-.4833984.0107422-.6650391.1708984-.9726563.8642578-1.875 1.7783203-2.6933594 2.7275391-.3349609-.5585938-.5654297-1.1630859-.6767578-1.78125-.1084328-.6016912-.8554459-.8243217-1.2783203-.3867188-.9794922 1.0146484-1.9091797 2.0683594-2.7714844 3.140625-.6660156-.5810547-1.2060547-1.2714844-1.5800781-2.0253906-.2801933-.5647974-1.0601463-.5201015-1.3291016-.0273438l-.4698486.8491821c-.2472133-1.9795771 1.4317246-5.0071764 3.8360597-5.1900024zm7.7558593 11.6904296c-.7080078 1.6582031-1.9570313 2.8886719-3.3398438 3.2910156-2.1611328.625-4.46875-.7412109-5.6308594-2.4160156-1.1019897-1.5738525-1.6512451-4.0791016-1.7912598-5.7778931l.3312988-.5980835c.5205078.7060547 1.1660156 1.3398438 1.9072266 1.8671875.3287354.2337685.7814789.1645126 1.0273438-.1513672.7001953-.9023438 1.453125-1.7949219 2.2470703-2.6650391.2744141.6738281.6601563 1.3125 1.1435547 1.8896484.3591614.4271107.9100227.3002129 1.1611328-.0136719.7275391-.9101563 1.5390625-1.7929688 2.4208984-2.6337891.3610229.6300049.8133545 1.2172852 1.3364258 1.7634888-.0976867 1.6323187-.1998175 4.0109617-.8129882 5.4445192z"></path><path d="m19.6821632 51.0119972c3.0233765-1.0658569 4.5254517-4.1878662 3.3549805-6.9731445-1.1704712-2.7853394-4.5702515-4.1791992-7.5936289-3.1133423-3.0234375 1.0658569-4.5255127 4.1878662-3.3550415 6.9732056 1.1675015 2.778286 4.5629816 4.1817283 7.5936899 3.1132812z"></path><path d="m5.747592 65.9975967 23.3939209-.0255127 1.0707397-1.5838013-.0849609.0001831c.1786308-.5143089-.2044754-1.1113319-.3455811-1.4556313-.9925957-2.491436-1.9250526-4.6165962-4.0146484-6.390625-2.2810287-1.9350014-5.2821617-2.9736328-8.0839844-2.9736328-2.7998056 0-5.3847666.9921875-8.125001 3.1171875-1.9990234 1.5507813-4.3808594 3.7822266-5.0615234 7.3007813-.0303345.1551552.0059204.3072548.0703125.448185l-.0525513.0001221c.2400976.2497635.8927408 1.2088394 1.2332774 1.5627441zm4.7304077-8.1262855c2.4374065-1.8909912 4.9414577-3.0299454 8.0537119-2.7666016 2.6875076.236702 5.1609306 1.4263039 6.8427734 3.1171875 1.4539204 1.4668884 2.2070332 3.2447052 2.9765625 5.1708984l-22.1611338-.0126952c.6074219-1.9921875 1.9335938-3.6826172 4.288086-5.5087891z"></path><path d="m53.7455177 40.9255104c-3.0233765 1.0658569-4.5254517 4.1878662-3.3549805 6.9732056 1.1674957 2.7782707 4.5632477 4.1817169 7.5936279 3.1132813 3.0233765-1.0658569 4.5254517-4.1878662 3.3549805-6.9731445-1.1704711-2.7853395-4.5702514-4.1791993-7.5936279-3.1133424z"></path><path d="m68.4290466 64.3884659c.1821976-.5247383-.2242126-1.1623268-.3455811-1.4556313-.8523636-2.1394577-1.6757584-4.0831146-3.3398438-5.765625-1.855751-1.8815269-4.6705399-3.2836113-7.7802696-3.5566406-3.4328232-.3005142-6.3559189.9444847-9.1025391 3.0751953-1.9990234 1.5517578-4.3818359 3.7832031-5.0625 7.3007813-.0303345.1551552.0059204.3072548.0703125.448185l-.0522461.0001221c.2206688.2292938.9056664 1.2223206 1.2332764 1.5627441l23.3939172-.0255128 1.0707397-1.5838013zm-19.6483116-6.5171547c2.4375648-1.8918571 4.9413643-3.0298691 8.0527344-2.7666016 2.6937141.2372475 5.1675606 1.4319878 6.84375 3.1171875 1.4552498 1.4701042 2.2081871 3.2512245 2.9755821 5.1708984l-22.161129-.0126953c.6074219-1.9921874 1.9345703-3.6826171 4.2890625-5.508789z"></path><path d="m51.9599953 37.2724342c.5033684-.0999222.7149429-.5696144.5629272-.9772949-.6542969-1.7548828-1.5332031-3.4238281-2.6113281-4.9589825-1.2753906-1.8183594-3.2939453-3.2646484-5.9980469-4.3007813-.2416725-.0934029-.5970535-.0116043-.7675781.1396484-1.25494 1.117054-3.3890343 2.0449219-5.0830078 2.0449219-1.6816406-.0146484-3.8613281-.8447266-5.0693359-1.9306641-.1638145-.1479969-.51754-.2332439-.7578125-.1474609-4.562664 1.6633739-8.1854477 4.9978695-10.4492188 9.0488262-.2098713.3755608-.0875072.9202309.4709473 1.0675049.3085327.4777832.6171265.9555054.9256592 1.4332275l27.7877808.0646362zm-19.5969239-8.5702495c1.5479965 1.2089653 3.8468781 2.0177612 5.7369995 2.0177612 1.7840576 0 4.0776978-.8740234 5.6672974-2.1222534 3.2223778 1.3236408 5.1295166 3.043169 6.9411011 7.2091656h-26.9404297c1.9592361-3.0198479 4.9356728-5.6959668 8.5950317-7.1046734z"></path><path d="m28.9653053 54.2677956 7.5742188-5.515625c6.7480774 6.6539001 6.401619 6.6923828 6.9794922 6.6923828.6614799 0 1.0035973-.8053665.53125-1.2792969l-6.7145996-6.7392578c.0690498-.3099976.009758.612011.0319824-6.9179688 0-.4140625-.3359375-.75-.75-.75s-.75.3359375-.75.75c.003849 1.6694069-.0163078 6.6052628.020813 6.862854l-7.8059692 5.684021c-.3349609.2441406-.4091797.7128906-.1650391 1.0478516.2421875.3339844.711914.4082031 1.0478515.1650391z"></path></g></svg>