<svg xmlns="http://www.w3.org/2000/svg" height="512" viewBox="0 0 64 64" width="512"><g fill="rgb(0,0,0)"><path d="m26.83594 41.64856c-.03481.49455-.23964.97865-.22979 1.46752a.62117.62117 0 0 0 1.15185.31192 5.32051 5.32051 0 0 0 .24375-2.54166.77944.77944 0 0 0 -.30029-1.31579c-.84525-.14625-3.956.6399-3.513 1.85955.68562.68451 1.891-.16875 2.72234-.22644-.02057.14904-.04848.29678-.07486.4449z"></path><path d="m38.52405 39.95636a2.1057 2.1057 0 0 0 .792-.01227.69353.69353 0 0 0 .16354-1.25156 3.863 3.863 0 0 0 -3.05331-.06387.64358.64358 0 0 0 -.87449.65542 12.27921 12.27921 0 0 0 .7822 2.27256 23.29818 23.29818 0 0 0 -4.53076 5.0401 5.98481 5.98481 0 0 0 -4.09377-2.94564.31669.31669 0 0 0 -.16819.61019 6.64 6.64 0 0 1 3.07058 2.71146c.3124.45318.58543 1.79087 1.35471 1.36667.54886-.00912.84025-.51775 1.12866-.9129a40.78707 40.78707 0 0 1 4.06714-4.7848.58176.58176 0 0 0 .58509-.73223c-.19513-.74838-.40272-1.49389-.66248-2.22266.3812.07255.7555.16445 1.1405.21423l-.20629-.02771c.1693.02289.33702.05219.50487.08301z"></path><path d="m30.865 32.60284.00073.00306c-.00025-.08875-.00928-.04633-.00073-.00306z"></path><path d="m59.2334 38.66144a9.43069 9.43069 0 0 0 -7.49451-3.97681 6.06551 6.06551 0 0 0 -.12195-.8667 5.8725 5.8725 0 0 0 2.69016-4.557 5.03911 5.03911 0 0 0 -.2496-2.96549c1.14652.00652 1.1916 1.26584.62334 1.98142-.23355.85544.88989.543 1.28177-.0371a2.00364 2.00364 0 0 0 -2.35446-3.06627c-.31406-.21649-.72309-.26411-1.02783-.50714-.15005-1.03652-1.39239-.43081-1.97774-.14939a22.29192 22.29192 0 0 1 -2.89187.6401c-.23805.03731-.22585.3603-.06166.47114 1.18483.92272 2.95656.61685 4.22449.00476a1.985 1.985 0 0 0 1.11047.66645c-.491.87234.04361 1.99945-.02732 2.96153a4.21513 4.21513 0 0 1 -.51406 2.14363c-1.25207 2.2509-4.84393 2.00072-6.24849.01966-.8436-1.01094-.92963-2.35449-1.33745-3.53962 1.29488.3742 3.36492-.77623 2.77241-2.27408-.367-.48622-.88541.2001-1.17438.46112a8.42081 8.42081 0 0 1 -.63956.56258 2.74788 2.74788 0 0 1 -1.15819.45207c-.465.017-.68281.33733-.22423.62168-.63551.37652-.46574 1.57719-.31152 2.26843a1.32408 1.32408 0 0 1 -.1659.04163l.07447-.00947a.948.948 0 0 1 -1.07979-.45639c-.29451-.64.28928-.93729.64043-1.39554.0836-.12153.25656-.0935.38838-.10056.30306-.04221.21683-.40345-.2981-.43615a1.24407 1.24407 0 0 0 -1.06665-.03741 4.23851 4.23851 0 0 1 -.44533-1.19659 1.45071 1.45071 0 0 1 1.25149-1.53351c.416-.03414.7983-.37089.72216-.76746.08456-.13037.04153-.31659.06421-.4682a1.56207 1.56207 0 0 1 2.63514-1.02859c.52252.52361 1.335.27184.94592-.527a.31516.31516 0 0 0 .3457-.05365 3.89108 3.89108 0 0 1 2.19519-.911c1.11737-.18882 1.82987.56584 2.76636.92529a.38031.38031 0 0 0 .581.0542.55771.55771 0 0 1 .483.09975c.865.47229.101 1.66672.71809 2.31063.44965.39421.91751-.29632 1.02935-.69521.33593-1.306-.6966-3.34379-2.24792-2.65749a3.69533 3.69533 0 0 0 -6.06348.6015 2.51488 2.51488 0 0 0 -4.35657 1.78509c-2.30969.07706-3.48411 3.52583-1.34436 4.68415-1.21239 1.72893.822 4.14232 2.69409 3.03949a5.35419 5.35419 0 0 0 5.77918 3.08557 2.02226 2.02226 0 0 0 .18327 1.27367.61847.61847 0 0 0 1.13045-.19182c.46265.23114.933.42187 1.40808.63751-.708 1.32434-1.24951 3.13794-2.99267 3.33-1.669.18389-3.02076-1.19819-3.689-2.59034a.366.366 0 0 0 -.677.18335 4.04794 4.04794 0 0 0 4.30569 3.94822c2.2883-.1215 3.74814-2.066 4.29172-4.13206a10.47886 10.47886 0 0 1 5.27336 8.6012c.064.90024-.35311 1.91991.10127 2.74634-6.069 3.3982-11.00326 3.9352-17.72363 2.062 1.10172-.57356 2.63626-1.03959 3.256-2.17617.34288-1.79985-2.445.11919-3.04464.46882a26.39038 26.39038 0 0 1 -18.69086 2.20271c.205-.11462.41077-.22345.61572-.34241.37378-.217.04614-.73376-.33117-.56665-.48536.21491-.99146.405-1.50586.58295a26.98809 26.98809 0 0 1 -3.9126-1.42108c-.37659-.17316-.70606.35553-.33118.56665a28.44756 28.44756 0 0 0 2.69177 1.322 20.0836 20.0836 0 0 1 -14.66215-1.4477c-.66163-.34878-1.33411-1.00582-2.11036-.9175a.508.508 0 0 0 -.48254.63342c.23486.78772 1.03051 1.08191 1.71509 1.45044 5.10642 2.72989 11.66769 3.41558 16.95849.84485a25.24815 25.24815 0 0 0 18.33338-.52735c5.90254 3.84475 14.04591 2.85149 19.80493-.82826a1.07362 1.07362 0 0 0 .30139-1.52592.86334.86334 0 0 0 .6853-.44409c1.0616-3.10713-.17165-6.83674-2.03613-9.41083zm-16.03882-8.79737c.021.01355.016.0105 0 0z"></path><path d="m3.7948 48.50482a.98387.98387 0 0 0 .691-.90765 10.62619 10.62619 0 0 1 5.18632-10.81433c.74337 3.50065 4.67225 5.67828 7.48547 2.87854a15.551 15.551 0 0 0 -.71154 6.24627c.08764.93225.1311 2.39808.8894 3.036a.35791.35791 0 0 0 .5896-.1557c.27734-.85461-.199-1.99914-.2876-2.88025a14.35339 14.35339 0 0 1 6.218-13.36682c.46921 2.02982 1.06072 4.11461.51864 6.21664-.10311.476-.20394 1.34183.53116 1.3397.72315-.00208.82373-1.00116.90674-1.52924.26731-2.19024.255-4.72385-1.24-6.49182.26685-.161.54126-.30719.81751-.45166a68.19229 68.19229 0 0 1 5.78689 10.009.79988.79988 0 0 0 1.448-.639 34.0028 34.0028 0 0 0 2.39384-4.90037c.696-1.699 1.71281-3.2744 2.399-4.96554a14.06974 14.06974 0 0 1 2.06421 1.37116c-1.83984.34584-2.20892 3.458-1.57089 4.91814a4.01085 4.01085 0 0 0 .44479.606.46118.46118 0 0 0 .78015-.32318 7.87105 7.87105 0 0 1 .31425-3.282 4.0813 4.0813 0 0 0 .46871-1.5462 13.83683 13.83683 0 0 1 4.92555 10.97528c-.01877.76915-.42722 1.94689.06277 2.59929a.46107.46107 0 0 0 .61731.16187c.77087-.48212.96531-2.67278.50329-5.57636-.88145-6.11867-6.14471-11.77395-12.48669-12.05645-.0736-.38555-.01247-1.134-.24609-1.46674a7.1845 7.1845 0 0 0 3.61462-5.74432c1.31091.14191 2.32366-1.47922 2.19793-2.67729-.06088-1.09148-1.16933-2.16443-2.269-1.62722-.05433-.85477-1.06566-.82332-1.69457-.677a6.73434 6.73434 0 0 1 -2.50269-.26164.71846.71846 0 0 0 -1.06739-.62875c-.73121.39162-1.592 2.22237-2.8037 1.37985.28937-.73108-.54485-1.49189-1.16644-.90208a1.61473 1.61473 0 0 0 -.26057.33671c-.02136.04328-.13086.28418-.04785.11371a2.08762 2.08762 0 0 1 -2.188 1.26424c-.381-.022-.71946-.25353-1.11228-.18984a.287.287 0 0 0 -.23816.00952 1.81236 1.81236 0 0 1 .01166-2.65372c.45222-.41052 1.28511-.35138 1.725-.48116.23057-.02281.50337-.10911.52967-.36786.88981-1.03486 1.95305-1.90253 3.42951-1.65742.56639.0171 1.94317.93271 1.9146-.16521 1.21691-.62466 3.06931-1.20264 3.88916.24783.23062.32513.38832.8987.89541.76733.02669.00692.21941-.03067.16-.0242.56273-.0426 1.44755.40356 1.54248 1.00672.13722.76958-.64573 1.14468-.90338 1.74649a.72161.72161 0 0 0 .49713.87552c1.25238.18689 2.0449-1.33866 1.94861-2.42788a2.3 2.3 0 0 0 -2.863-2.146c-.66987-2.42222-4.18717-2.39364-5.59778-.64251a3.886 3.886 0 0 0 -5.59107 1.59619 3.05115 3.05115 0 0 0 -2.61487 5.39374c-2.536 1.0099-1.245 4.85353 1.38379 4.436a7.29593 7.29593 0 0 0 4.21159 4.33194 5.97223 5.97223 0 0 0 .02661 1.97015c-.8548-.25039-1.91691.30028-2.71289.622a15.18811 15.18811 0 0 0 -7.37372 6.74397c.10378-.39-.47526-.66591-.671-.28869-.6699 1.39544-2.01853 2.76959-3.68894 2.59033-1.74085-.18683-2.28589-2.00672-2.99158-3.32758.47278-.21527.94422-.40961 1.40711-.64075a.61829.61829 0 0 0 1.13039.1926 2.07254 2.07254 0 0 0 .18247-1.3 4.32238 4.32238 0 0 0 1.43762.10834c-.11347.53609-.20254 1.26173.33376 1.61066a.70864.70864 0 0 0 .97749-.318 2.794 2.794 0 0 0 .15189-1.6512 5.68592 5.68592 0 0 0 3.00979-2.82233c1.92386 1.11291 3.84784-1.28083 2.68176-3.02582 2.14221-1.15825.96564-4.60775-1.34339-4.68469a2.51488 2.51488 0 0 0 -4.35649-1.78508 3.67445 3.67445 0 0 0 -6.05249-.59754c-1.554-.69751-2.59664 1.34206-2.25886 2.65369.3257.99278 1.16866 1.162 1.3117-.03147-.02184-.513-.07481-1.23592.29066-1.50381.204-.11161.37034-.23885.56641-.19372.25277.122.44389.22133.64307-.041.84423-.262 1.421-1.01145 2.4318-.93811a3.84273 3.84273 0 0 1 2.52938.92444.31665.31665 0 0 0 .34582.05328c-.27824.47254.05129.97944.58684.76373a4.23568 4.23568 0 0 1 1.27853-.65422 1.44145 1.44145 0 0 1 1.51147.84734c.26947.50066.14683.72531.26855 1.06653a.6968.6968 0 0 0 .62039.75344q.3105.04051.10166.01481a1.46374 1.46374 0 0 1 1.24975 1.24993 2.96787 2.96787 0 0 1 -.44714 1.48859c-.55828-.283-.9305.03354-1.40809.11983-.17223.06828-.16662.3502.04676.34532.10482-.02182.3936.06236.30542.0116.17.238.41177.42375.59914.6522.53478.71775-.15164 1.45437-.93251 1.29158l.05139.00654c-.05786-.01563-.11646-.02643-.17407-.04279.11843-.64346.349-1.88783-.30408-2.26752.45718-.28345.2458-.60334-.22427-.62156-1.10009-.10466-1.551-.91841-2.49013-1.60182-.483-.23128-.692.452-.57085.81523a2.36542 2.36542 0 0 0 2.86215 1.58485c-.40818 1.18507-.49334 2.52893-1.3376 3.53976-1.404 1.98127-4.99665 2.23123-6.2485-.0196a4.222 4.222 0 0 1 -.51412-2.14363c-.07145-.96213.46448-2.08856-.02734-2.96094a1.99137 1.99137 0 0 0 1.11059-.66638 4.77652 4.77652 0 0 0 3.72839.32394c.17054-.09457.33411-.22.4961-.32938.16309-.1101.17591-.434-.06164-.47119a8.51834 8.51834 0 0 0 -1.02613-.20791 7.21915 7.21915 0 0 1 -1.86572-.43218c-.58532-.28156-1.82752-.887-1.97754.14937a9.664 9.664 0 0 1 -1.04907.50421 2.01209 2.01209 0 0 0 -2.4937 2.85621c.2902.39941.72471.87416 1.26543.75534.22315-.0315.26124-.30274.18922-.46479-.01267-.12713-.22568-.33739-.28895-.53405a1.02144 1.02144 0 0 1 .90479-1.497 4.595 4.595 0 0 0 -.29007 2.63592 6.11423 6.11423 0 0 0 2.63309 4.83241 4.12519 4.12519 0 0 0 -.14893.93017c-4.67808-.07684-8.55971 3.97145-9.5444 8.35009-.30101 1.21174-1.07286 5.7968 1.07662 5.47008zm27.76562-16.4256a1.8835 1.8835 0 0 0 .11463 1.02716.574.574 0 0 1 -.80933-.50048c-.02165-.216.03223-.441.0033-.68171a1.93251 1.93251 0 0 0 .6914.15503zm-.83813 5.024a16.50764 16.50764 0 0 0 .49561-2.72107 1.86026 1.86026 0 0 0 .59631.04993c.12915.24145.262.48114.36914.73346l-.06238-.14771c.25085.48017.39607 1.15075.97962 1.32117a26.46669 26.46669 0 0 0 -1.17591 3.04663c-.37255-.77617-.77433-1.53382-1.20239-2.28242zm6.74072-18.388c-.01135-.009-.02356-.01868-.05237-.04034.01172-.00088.03272.01939.05236.04033zm-.1831-.10345a.89819.89819 0 0 1 .21667.13983c.02149.021.13831.11029.052.04907a.845.845 0 0 1 .11914.543c.00332-.0163-.0077.0777-.00805.051a2.3287 2.3287 0 0 1 -.63819 1.18872 8.46391 8.46391 0 0 0 -.137-2.14148.57585.57585 0 0 1 .39543.16985zm-14.098-1.87183a.183.183 0 0 1 -.01025-.07135zm-.718 4.25134c-.002-.02264-.00135-.02759 0 0zm.40307.74164a.13172.13172 0 0 1 .02515.01947c-.01298-.00831-.02531-.01686-.02519-.01948zm.79969.329a.12284.12284 0 0 1 .03186.0058.13439.13439 0 0 0 -.0319-.00572zm2.66272 2.65192a7.1227 7.1227 0 0 1 -1.26639-2.44835c-.2552-.48579-.35329-3.64473-1.25052-2.43514a4.14334 4.14334 0 0 0 -.095 2.23191 1.2812 1.2812 0 0 1 -1.25-1.47351 2.91822 2.91822 0 0 1 .77832-1.36591.78622.78622 0 0 0 .77258-.21069 3.32494 3.32494 0 0 0 4.28443-.87745c1.08856 1.05561 2.82274.52175 3.73962-.51647a4.43008 4.43008 0 0 0 3.365.928c.10191 1.98524.53555 4.13416-.55671 5.951-1.75136 3.05386-6.48167 2.88033-8.52137.21664zm2.09729 5.50738a.25427.25427 0 0 0 .08752-.14679.67245.67245 0 0 0 1.05958.18888c.51018-.589.24055-1.47023.13488-2.16489a6.098 6.098 0 0 0 2.4375-.09668c.03552.68205-.18644 1.51939.351 2.0533.47294.37259 1.00637-.10235 1.03653-.62056.86426.31549 1.69483.63122 2.50171.99518a43.16891 43.16891 0 0 0 -2.41626 4.7641 3.89919 3.89919 0 0 0 -.8562-1.2146c.26346-.25577.46168-.79288.11011-1.04779a1.86078 1.86078 0 0 0 -.27515-1.06025 1.32717 1.32717 0 0 0 .78076-.85809.59183.59183 0 0 0 -.7207-.72076c-.898.42572-1.84994 1.181-2.71877.203-.19407-.20838-.51939.05773-.38646.29833a2.62918 2.62918 0 0 0 .88477.91425c-.74375.32766-.62462 1.53526-.14941 2.05059a6.86808 6.86808 0 0 0 -.67933 1.60944 24.60255 24.60255 0 0 0 -3.62-4.05664 12.55789 12.55789 0 0 0 2.43788-1.08999zm-19.04021-3.69235c.00513-.00684.01661-.01184.02356-.01831-.01503.01269-.02673.02234-.02356.01831z"></path><path d="m37.854 14.57764c.00025.00555-.00012.01135.00049.01635z"></path><path d="m37.65967 19.39465a.25736.25736 0 0 0 .00805-.051.13774.13774 0 0 0 -.00805.051z"></path><path d="m43.08533 29.76947c.01306.00806.00476-.00818-.04627-.05353a.63714.63714 0 0 0 .04627.05353z"></path><path d="m42.95 29.55219c-.02453-.08539-.01831-.05115 0 0z"></path><path d="m54.94775 27.81036-.002.00385z"></path><path d="m9.88208 26.30487c.07324.00037.09131-.00439.07959-.00745a.66777.66777 0 0 0 -.07959.00745z"></path></g></svg>