<svg xmlns="http://www.w3.org/2000/svg" id="Layer_1" height="512" viewBox="0 0 66 66" width="512"><g><path d="m28.65 38.87c-.9 1-1.38 2.29-1.33 3.65s.6 2.62 1.57 3.56c.94.9 2.14 1.39 3.42 1.39h.17c1.34-.04 2.58-.62 3.49-1.62.9-1 1.38-2.29 1.33-3.65-.09-2.82-2.41-5.03-5.16-4.95-1.34.04-2.58.62-3.49 1.62zm3.65.3c1.65 0 3.02 1.37 3.07 3.09.03.86-.27 1.67-.83 2.3-.56.62-1.31.97-2.13 1-.83.02-1.59-.28-2.19-.85-.61-.58-.96-1.38-.98-2.24-.03-.86.27-1.67.83-2.3.56-.61 1.31-.97 2.13-1z"></path><path d="m59.15 35c1.43-.05 2.56-1.25 2.51-2.67l-.71-21.36c-.02-.69-.31-1.33-.82-1.81-.51-.47-1.18-.72-1.85-.7l-46.95 1.3c-2.83.09-5.06 2.46-4.97 5.28.05 1.37.62 2.63 1.63 3.57.96.89 2.2 1.38 3.51 1.38h.17c2.83-.09 5.06-2.46 4.97-5.28-.04-1.17-.49-2.25-1.24-3.13l42.95-1.19c.17-.01.35.06.49.18.13.12.21.29.21.46l.71 21.36c.01.37-.28.67-.65.69l-39.42 1.3c-.03-.63-.07-1.25-.1-1.9-.15-2.64-.27-4.81-.33-6.13 1.04-.06 2.1-.11 3.13-.14 2.72-.09 5.53-.19 8.16-.69 2-.38 2.57-1.73 2.45-2.77-.15-1.39-1.53-2.81-3.55-2.73-1.09.03-2.17.06-3.26.09-1.84.05-3.75.09-5.62.18-2.39.12-4.78.27-7.16.42l-3.09.19c-3.44.21-8.63.52-9.02 5.63-.23 3-.2 6.04.1 9.03.02.24.04.5.06.78.16 2.18.43 5.82 3.48 6.42.22.04.44.06.66.06.5 0 1.01-.11 1.47-.31l.33 10.03c.05 1.63.21 3.23.48 5.02.25 1.67 1.34 3.09 2.83 3.68.52.21 1.05.31 1.59.31.9 0 1.8-.3 2.63-.87.57.46 1.32.71 2.1.71.34 0 .69-.05 1.04-.14 1.1-.29 1.97-1.03 2.32-1.98.47-1.28.18-9.08-.57-22.99zm-47.65-23.31c.82 0 1.6.3 2.2.86.63.58.99 1.37 1.01 2.22.06 1.76-1.34 3.24-3.11 3.3-.87.02-1.68-.28-2.31-.86s-.99-1.37-1.01-2.22c-.06-1.76 1.33-3.24 3.11-3.3h.08zm7.03 46.93c-.13.36-.51.65-1.01.79-.55.15-1.11.06-1.45-.22-.65-.54-.69-2.06-.71-3.06-.03-1.27-.08-2.54-.12-3.82-.09-2.6-.18-5.29-.19-7.93 0-.53-.43-.96-.96-.96-.53 0-.96.43-.96.96.01 2.67.1 5.37.19 7.99.04 1.27.08 2.54.12 3.89.02.76.05 1.85.38 2.82-.79.55-1.65.7-2.44.38-.87-.35-1.48-1.17-1.64-2.19-.26-1.72-.41-3.24-.46-4.8l-.39-11.85c0-.03 0-.07 0-.1l-.35-10.4c-.02-.53-.49-.97-.99-.93-.53.02-.95.46-.93.99l.33 10.03c-.38.49-1.07.79-1.68.67-1.48-.29-1.76-2.37-1.93-4.67-.02-.3-.04-.58-.07-.83-.28-2.88-.31-5.81-.09-8.7.25-3.2 3.15-3.61 7.25-3.86l3.06-.19c2.38-.15 4.76-.3 7.14-.41 1.85-.09 3.74-.14 5.57-.18 1.09-.03 2.19-.05 3.28-.09.95 0 1.53.58 1.58 1.01.05.42-.54.6-.9.67-2.49.47-5.22.56-7.87.65-1.61.06-3.28.11-4.87.25-.53.05-.92.51-.87 1.04.04.43.35.75.75.84.06 1.33.18 3.51.33 6.16.45 7.96 1.36 24.48.9 26.05z"></path><path d="m44.93 24.02c-.14-.05-.34-.33-.51-.58-.32-.47-.72-1.05-1.45-1.3-1.33-.47-2.53.56-2.98.95l-6.75 5.78c-.4.35-.45.95-.11 1.36.19.22.46.34.73.34.22 0 .44-.08.62-.23l6.75-5.78c.7-.6.99-.63 1.09-.6.14.05.34.33.51.58.32.47.72 1.05 1.46 1.31 1.04.36 2.13-.1 3.22-1.37l5.13-5.94v2.8c0 .53.43.96.96.96.53 0 .96-.43.96-.96l-.01-5.51c0-.28-.12-.55-.34-.73-.21-.18-.5-.26-.77-.22l-4.94.77c-.52.08-.88.57-.8 1.1s.58.88 1.1.8l2.48-.39-5.23 6.06c-.58.67-.97.85-1.12.8z"></path><path d="m40.13 50.45c-2.02-2.18-5.13-2.57-7.29-2.67-2.53-.11-6.03.28-8.36 2.88-2.59 2.9-2.59 6.37-2.2 9.69.06.49.47.85.95.85.04 0 .08 0 .11-.01.53-.06.9-.54.84-1.07-.39-3.32-.25-5.98 1.72-8.18 1.82-2.04 4.72-2.34 6.83-2.24 1.98.09 4.44.41 5.97 2.06 1.88 2.03 1.93 4.76 1.99 7.65l.01.33c.01.53.43.95.98.94.53-.01.95-.45.94-.98l-.01-.33c-.04-3.12-.11-6.35-2.48-8.92z"></path><path d="m27.8 53.75c-.53.02-.95.46-.93.99l.18 5.49c.02.52.44.93.96.93h.03c.53-.02.95-.46.93-.99l-.18-5.49c-.01-.54-.45-.98-.99-.93z"></path><path d="m36.42 53.4c-.53.02-.95.46-.93.99l.17 5.27c.02.52.44.93.96.93h.03c.53-.02.95-.46.93-.99l-.17-5.27c-.01-.53-.45-.97-.99-.93z"></path><path d="m54.06 36.56c-2.83.09-5.06 2.46-4.97 5.28.09 2.76 2.38 4.95 5.14 4.95h.17c2.83-.09 5.06-2.46 4.97-5.28-.09-2.83-2.5-5.06-5.31-4.95zm.28 8.3c-1.78.06-3.27-1.33-3.32-3.09-.06-1.76 1.34-3.24 3.11-3.3h.11c1.73 0 3.16 1.36 3.21 3.09.06 1.76-1.34 3.25-3.11 3.3z"></path><path d="m64.88 58.67c-.06-3.13-.13-6.36-2.59-8.93-2.06-2.15-5.1-2.55-7.52-2.66-2.61-.12-6.22.29-8.63 2.88-2.7 2.9-2.7 6.38-2.29 9.71.06.49.47.85.95.85.04 0 .08 0 .12-.01.53-.06.9-.54.84-1.07-.4-3.31-.25-5.97 1.79-8.17 1.9-2.05 4.93-2.37 7.13-2.27 2.06.09 4.63.41 6.22 2.06 1.94 2.03 2 4.75 2.05 7.64l.01.33c.01.52.44.94.96.94h.02c.53-.01.95-.45.94-.98z"></path><path d="m49.51 53.06c-.53.02-.95.46-.93.99l.18 5.49c.02.52.44.93.96.93h.03c.53-.02.95-.46.93-.99l-.18-5.49c-.01-.53-.45-.98-.99-.93z"></path><path d="m58.52 52.7c-.53.02-.95.46-.93.99l.17 5.27c.02.52.44.93.96.93h.03c.53-.02.95-.46.93-.99l-.17-5.27c-.01-.53-.46-.96-.99-.93z"></path><path d="m54.8 7.33c.8.31 1.48.53 1.58.37s-.47-.68-1.33-1.01-1.63-.33-1.66-.15c-.05.19.61.48 1.41.79z"></path><path d="m57.94 5.5c1.64.54 2.85 1.31 2.97 1.15.12-.13-.98-1.21-2.75-1.8-1.76-.6-3.29-.4-3.28-.23.01.2 1.43.32 3.06.88z"></path></g></svg>