<svg xmlns="http://www.w3.org/2000/svg" id="Layer_1" height="512" viewBox="0 0 68 68" width="512"><g id="_x38_6"><path d="m65.4909363 38.1066666c-1.0319214.2996826-2.7789268 1.3063965-3.8511314 1.9780884-3.562561-4.8059006-7.2535973-11.7652607-8.3666992-17.6427021 1.7220459-.4752808 5.4380493-2.0637817 7.140564-2.8563843 1.6414948 3.8524113 2.6706772 7.1212578 3.7838097 9.3085938.1867523.3673.6374207.5163059 1.0087891.328125.3691406-.1879883.5161133-.6396484.328125-1.0087891-1.0202484-2.0035095-3.4587898-8.8829899-4.0659142-10.0083008-.0032959-.0061035-.0093384-.0093384-.0127563-.0153198-.2909889-.6536388-1.0458908-.6466827-1.3483276-.1156616-1.5955811.7747192-6.3465576 2.7871094-7.4967041 2.9902344-.5646935-.179985-1.0415039.3004341-.9630127.8189697.0671997.4417114.1511841.8902588.2470093 1.3431396-7.1883011 2.0697422-10.1695213-2.2800751-14.8388062-1.4378662-.9299316.168335-1.8518677.4727783-2.7426758.8374023-5.3048077-3.3384132-12.8225956.8801422-16.8364277-1.4082031-1.2621937-.7296658-2.5674582-1.4286861-3.8821402-2.1363525.1084585-.567028.2029629-.9751873.1553955-1.1765137-.1467485-.62644-7.8236275-4.0268078-7.9860845-4.015625-.0079346-.0014648-.0139771-.0067139-.0220337-.0079346-.4082031-.0620117-.7910156.2231445-.8515625.6328125-.4042578 2.7449913-2.640182 9.141573-3.3178709 11.9243164-.0976563.4023438.1494141.8081055.5517578.90625.4124687.0980453.8102582-.1576862.90625-.5517578.6645844-2.7371216 2.4622872-7.7929802 3.1699827-11.1287231 1.4504299.7053833 4.7052388 2.1887589 5.9814458 2.8188477-.6266479 3.3070068-2.3487549 11.8768311-4.4913945 18.246706-.7245383-.431324-1.6372304-.9831429-2.2664795-1.3533325-.7324677-.4296227-1.5179443.5064697-.9207153 1.1494751.0740356.3681641.1356812.7557373.2331543 1.0870361.9663086.7119141 2.2597656 1.505127 3.3668218 1.968811.2411499-.1333618.421814-.6159058.4822998-.8847656.9605103.6187744 1.9189453 1.4812622 2.8794556 2.0999756-.781002.8255386-.6807261 3.2259407 1.0410767 4.9059448.7366333.718811 1.8267822 1.1273193 2.8226929.8676758-.4387846 2.8867035 2.2421198 4.813797 4.7130117 4.175415-.0349731 2.6496925 2.5788918 4.6634445 5.1613159 3.7841187.3647461 1.3418579 1.4268188 2.6032715 2.7467041 3.0407715 1.3198853.437561 2.8513184.1705933 3.9453735-.6876831.1589985-.1247559.3088398-.2293701.4599018-.3359985 1.9985962.5603523 4.0326805.2715912 5.8102417-.5396118 2.1918907.9516449 4.6036644-.6383247 4.923584-2.6343384 2.2522011 1.09655 4.7978859-.6753845 5.0341187-2.6583252 1.0344849.286377 2.2022095.036438 3.0289307-.6481934.8266602-.6846313 1.4470825-2.03125 1.3585205-3.1009521 2.9619141-1.6800537 5.7897339-3.2852783 8.8192139-5.0037842.0125732.0048218.026123.0046997.0389404.0088501.5023193.645874.5731201.6390991.8116455.5733032.9350586-.2295532 2.9013023-1.1032104 3.7206993-1.6088257.2250366-.5562744.2428589-.6430664.3348389-1.6020508.5393217-.5727921-.0329058-1.4395981-.7449343-1.2268677zm-29.3549767 15.8706054c.1584473.1383057.3375854.2936401.5333862.4500732-1.0211792.4935303-1.9535522.5402832-2.5182495.3883057-.7764893-.2095947-1.8553467-.8899536-2.3495502-1.6003418.2136974-.6795845.5514278-1.2647476.6821308-2.0950317 1.480896 1.143322 2.5422669 1.8888969 3.6522827 2.8569946zm-5.1069355-3.4370117c.0219727.4199219-.1484375.8862305-.3681641 1.4360352-.4764843 1.19561-.4472523 1.4982491-.4912109 2.03125-.0174561.3821411-.0396729.9088135.1679077 1.3488159-1.4653683.5338097-3.1711617-.8197784-3.6998291-2.1600342 1.0754395-1.2402344 2.0631104-2.5656738 2.9525146-3.9472656.0025024-.000061.0046387.0012207.0071411.0011597.6865235-.0405274 1.3955079.6044921 1.4316407 1.290039zm-2.4540405-2.4571533c-.3950691.5752754-1.215765 1.9925117-3.067627 4.1277466-.0654297.0245972-.1352539.036438-.192688.0794067-.5058594.3769531-1.21875.4897461-1.815918.2866211-.597168-.2036133-1.0927734-.7275391-1.2631836-1.3349609-.1436768-.5114136-.1431885-1.3222046-.0709229-1.9054565.5189438-.6411514.2607059-.6438065 2.9058838-3.6228638l.4897461-.5532227c.0285645-.0324097.0401611-.0720825.0621338-.107605.6525269-.0407715 1.175354.0198975 1.6072998.1984253.8745117.3613281 1.5009766 1.6425781 1.340332 2.7416992-.0045165.0310669.0056154.0595703.004944.09021zm-7.6378174.4485474c-.9346924.3912354-2.1079712.2081909-2.8573608-.4713745-.7788086-.7067871-1.072876-1.9216919-.7146606-2.90979 1.8418102-1.6750984 3.2849178-3.8793335 5.2639771-2.883667.9614258.4848633 1.5288086 1.59375 1.5048828 2.012207-.0039063.0693359.0144043.1329956.0284424.1977539-.7991544.9017791-2.6575319 2.9736175-3.2252809 4.0548706zm-3.9044189-5.1411133c-.3065796.3121948-.6022949.5992432-.8853149.8376465-.8856192.2960815-2.0059805-.1047974-2.4538565-.9266968-.4689331-.8601685-.1540527-2.0900879.6516113-2.6434326 1.9346285-.1628151 3.1671667 1.7207107 2.6875601 2.7324829zm20.2897358-20.1256733c3.8544617-.6948566 7.487812 3.5288544 14.9256592 1.4207764 1.3997192 5.225769 4.3997803 10.9023457 7.381897 15.1734638-3.043396 1.0095825-5.447998 2.3378296-8.3181763 4.5787354-.5189209-1.1945534-1.2637558-1.9406395-2.3267822-2.9747314-3.7221909-3.6293488-8.0961838-8.8297539-12.6358032-11.371706.1210938-.0142822.2393188-.0251465.3433228-.0223389.4155273.0307617.7592773-.3129883.7719727-.7270508s-.3129883-.7597656-.7270508-.7719727c-1.4785156-.0581055-3.6831055.9077148-4.7504902 2.0327148-1.7540169 1.8307323-2.7613678 4.5944195-4.9423828 5.3979511-.6484375.2397461-1.5058594.1923828-1.8120117-.2978516-.2524414-.4135742-.3745117-1.2983398-.2612305-1.8964844.3525391-1.9179707 1.1513672-3.1191425 2.3300781-4.7334003.8613281-1.1845703 2.28125-2.3393555 4.1025391-3.3388672 1.809572-.9829101 3.8608416-2.0966796 5.9184588-2.4692382zm-20.5927754-.7460938c4.3052521 2.4530182 11.0670815-1.0658073 15.8606586.8955688-2.4097748 1.2054348-4.9086037 2.5867462-6.5012836 4.7748413-1.2597656 1.7260742-2.1835938 3.1201172-2.5922852 5.3417988-.1582031.8364258-.0527344 2.1191406.4594727 2.9594727.7355137 1.1781006 2.3510761 1.3842926 3.6079102.9169922 1.8190441-.6687927 2.9602051-2.2786026 3.9584961-3.7402344 1.0958157-1.6074142 1.5512257-2.2634563 2.8183002-2.9097919 4.6730957 2.090292 9.0270615 7.2224369 12.7681274 10.9635029.9571419.9571419 1.2506409 1.1969948 1.9394531 1.9541016 2.1528358 2.3644791 1.0399933 4.803669-.7641602 4.5571289-1.3070602-.1742783-2.3970528-1.4443016-3.4169922-2.3974609-1.8393555-1.7172852-3.7607422-3.5722656-5.3554688-5.503418-.2626953-.3198242-.7363281-.3647461-1.0556641-.1005859-.3193359.2636719-.3647461.7363281-.1005859 1.0556641 1.6484375 1.996582 3.6118164 3.8930664 5.4882813 5.6450195.7460518.6972427 1.5626907 1.5894279 2.5678101 2.1830444-.4341698 1.6796684-2.1861305 2.5859337-3.7763062 2.0464478-1.1687469-.3979225-1.6760406-1.0705223-6.6962891-6.1665039-.2895508-.2944336-.7651367-.2983398-1.0605469-.0078125-.2949219.2905273-.2988281.765625-.0078125 1.0605469 4.7178307 4.7831612 5.2438393 5.4255829 6.3274536 6.0791016-.3018799 1.3704834-1.2800903 1.8890381-2.0842896 1.8393555-.6694336-.0117188-1.3242188-.5356445-1.9916992-1.1181641-1.6880074-1.472908-3.5883179-2.705513-5.2172871-4.1274414-.0841064-.0734863-.1804199-.1208496-.2808228-.1505127-.4246216-.4064941-.9608154-.6950684-1.543396-.7880249.0415039-1.4866333-.7459717-3.2838135-2.277832-3.9169312-.6511841-.2689209-1.3920288-.3610229-2.2845459-.3046875-.2824097-.961731-1.0826416-2.0618896-2.213501-2.6318359-1.9355469-.9770508-3.5328369-.0876465-4.8223877 1.045105-.5511837-1.7609253-2.3371201-3.0568504-4.3006582-2.7990112-.0548706.0073242-.1005249.0337524-.1505127.0518799-.1075439-.0010986-.2125854.0198975-.3148804.0670166-1.6224194-1.267971-2.6098852-1.7703285-4.3955688-2.7282104 1.7474365-5.3771992 3.194397-12.0409565 3.9724121-15.9403706 1.1524051.6199949 2.3053592 1.2402952 3.4364007 1.8944089z"></path><path d="m8.4133024 21.0890865c.7319841-.2846603.9156942-1.1824493.3647461-1.7333984-.662261-.6622601-1.7621784-.2336521-1.8032231.7016602-.0161133.3676758.1459961.7094727.4326172.9150391.2943544.2116431.673491.2456779 1.0058598.1166991z"></path><path d="m54.7121315 23.9528561c-.5374146 1.4740219.6765404 3.2286224 2.359375 2.7729492h.0004883c1.0200195-.2739258 1.5874023-1.1938477 1.3803711-2.2368164-.4052582-2.0433064-3.1040688-2.2812748-3.7402344-.5361328zm1.9702148 1.324707c-.1787109.0454102-.2998047.0170898-.4072266-.0996094-.2239075-.2440166-.3110123-.8374329.0947266-.890625.3287735-.0426197.5546608.2069283.6113281.4941406.0786134.3945313-.2055663.4707032-.2988281.4960938z"></path><path d="m29.7091999 18.40061c.2104168.354847.6694717.4744129 1.027832.2631836.3564453-.2114258.4741211-.6713867.2631836-1.027832l-2.4755859-4.1806641c-.2109375-.3569336-.6704102-.4741211-1.0273438-.2636719-.3564453.2109375-.4746094.6708984-.2636719 1.0273438z"></path><path d="m34.2096901 18.3854733c.3637695 0 .6835938-.265625.7402344-.6362305l1.0214844-6.6635742c.0629883-.409668-.2182617-.7924805-.6274414-.8549805-.4077148-.0644531-.7924805.2177734-.8549805.6274414l-1.0214844 6.6635742c-.069809.4540234.2811737.8637696.7421875.8637696z"></path><path d="m39.9465065 17.6017818 2.1289063-3.1918945c.2299805-.3447266.1367188-.8100586-.2080078-1.0400391s-.8100586-.1367188-1.0400391.2080078l-2.1289063 3.1918945c-.2299805.3447266-.1367188.8100586.2080078 1.0400391.3434334.2293931.8098793.13723 1.0400391-.2080078z"></path></g></svg>