<svg xmlns="http://www.w3.org/2000/svg" id="Layer_1" height="512" viewBox="0 0 66 66" width="512"><g><path d="m61.108 29.82c.582-1.514.374-3.287-.577-4.543-.934-1.235-2.583-1.949-4.203-1.808-1.689.143-3.143 1.562-3.704 2.889-.544 1.288-.409 2.849.319 4.109-.464.351-.937.714-1.374 1.146-.489.486-.884.99-1.217 1.505h-2.123c-.138 0-.25.112-.25.25s.112.25.25.25h1.826c-.286.531-.506 1.073-.626 1.627-.605 2.818.819 5.419 5.172 5.856 1.833.194 3.682.124 5.498-.201 3.573-.632 4.886-2.788 4.37-5.846-.368-2.121-1.596-4.029-3.361-5.234zm1.602 3.244c.143.259.274.524.384.798l-.961.961-.511-.511c-.031-.031-.073-.035-.113-.047zm-.263-.445-.577.576c-.005-.005-.003-.013-.008-.019l-.722-.722.671-.671c.232.264.446.542.636.836zm-3.836.412 1.2-1.199.623.623-1.2 1.199zm-1.393.687c-.031.031-.036.074-.047.114l-.848-.848.3-.3c.037.001.074.003.111.004.028 0 .055.005.082.005.074 0 .146-.019.219-.022.159-.007.319-.009.477-.032l.393.392zm-3.682-2.434-.273.273-.041-.041c.103-.08.204-.162.307-.239.002.002.004.004.007.007zm.36.347c.161.14.327.269.504.381.096.061.199.106.299.158l-.412.412-.671-.671zm2.091.981-.018.018-.023-.022c.013.002.027.002.041.004zm2.103-.102c.143-.039.282-.088.42-.14.026-.01.053-.014.078-.024l-.331.331zm2.074-1.032.638-.638c.234.178.456.373.666.581l-.681.681zm-6.618-4.731c.51-1.205 1.742-2.186 2.866-2.281.107-.009.214-.014.321-.014 1.178 0 2.329.541 3 1.429.803 1.059.93 2.666.308 3.908 0 0-.001.001-.001.001-.132.266-.302.516-.503.741-1.126 1.242-3.19 1.529-4.602.635-.174-.11-.338-.238-.492-.384s-.297-.309-.429-.489c-.757-1.037-.941-2.429-.468-3.546zm6.379 13.169c-1.734.311-3.488.374-5.221.191-3.657-.369-4.799-2.314-4.297-4.651.231-1.066.877-2.15 1.866-3.133.175-.173.363-.336.554-.494l.082.082-.377.378c-.098.098-.098.256 0 .354.096.096.255.099.354 0l.377-.377.671.671-.245.245c-.098.098-.098.256 0 .354.097.097.255.098.354 0l.245-.245.255.255c.099.099.257.096.354 0 .098-.098.098-.256 0-.354l-.255-.255.448-.448c.006-.006.004-.015.009-.021l.518.518-.752.752c-.098.098-.098.256 0 .354.097.097.255.098.354 0l.752-.752.88.88c.097.097.255.098.354 0 .036-.036.044-.083.054-.13.121.085.23.069.315-.016l.687-.687.719.719c.011.04.016.083.048.115s.074.036.115.048l.272.272c.096.096.255.099.354 0 .098-.098.098-.256 0-.354l-.176-.176 1.199-1.199.722.722c.005.005.013.003.019.008l-.772.771c-.098.098-.098.256 0 .354.097.097.255.098.354 0l.111-.111c.011.04.016.082.047.113l.511.511-.647.647c-.098.098-.098.256 0 .354.097.097.255.098.354 0l.647-.647.465.465c.097.097.255.098.354 0 .098-.098.098-.256 0-.354l-.465-.465.789-.79c.086.276.16.554.209.837.497 2.973-1.006 4.237-3.565 4.689z"></path><path d="m25.474 12.786c-.599 2.788.793 5.419 5.172 5.855.675.072 1.354.107 2.035.107 1.153 0 2.313-.103 3.463-.308 3.578-.632 4.887-2.799 4.37-5.846-.238-1.371-.839-2.65-1.708-3.711-.003-.059-.023-.119-.068-.164-.033-.033-.077-.039-.119-.05-.433-.493-.921-.938-1.466-1.311.582-1.515.374-3.288-.578-4.541-1.926-2.556-6.35-2.598-7.907 1.08-.543 1.288-.408 2.85.32 4.108-.464.35-.935.714-1.373 1.145-1.129 1.122-1.869 2.379-2.141 3.636zm13.189 3.537c-.001 0-.001.001 0 0-.724.711-1.819.979-2.694 1.134-1.739.309-3.495.371-5.221.19-3.657-.365-4.798-2.315-4.297-4.65.231-1.068.877-2.151 1.867-3.134.021-.021.045-.039.067-.059.033.015.063.041.099.041.064 0 .128-.024.177-.073l.093-.093.898.898-.315.316c-.098.098-.098.256 0 .354.096.096.255.099.354 0l.362-.362c.172.01.271-.112.26-.26l.707-.708.534.534-1.291 1.291c-.098.098-.098.256 0 .354.097.097.255.098.354 0l1.291-1.291.962.962-.241.241c-.098.098-.098.256 0 .354.097.097.255.098.354 0l.274-.274c.087.025.144.048.24-.047.066-.066.071-.155.047-.24l.663-.663 1.198 1.198c.097.097.255.098.354 0 .098-.098.098-.256 0-.354l-1.198-1.198 1.069-1.074.882.882-.757.757c-.098.098-.098.256 0 .354.099.099.257.096.354 0l.757-.757.346.346c.097.097.255.098.354 0 .098-.098.098-.256 0-.354l-.346-.346.375-.375.565.565-1.661 1.661c-.098.098-.098.256 0 .354.097.097.255.098.354 0l.013-.013.534.534-.322.322c-.098.098-.098.256 0 .354.097.097.255.098.354 0l.322-.322.602.602c.097.097.255.098.354 0 .098-.098.098-.256 0-.354l-.602-.602 1.257-1.258c.067.232.123.467.164.705.246 1.456-.078 2.786-.866 3.558zm-5.394-6.121.581.581-.629.629-.962-.962c.098-.098.147-.137.22-.242.367.029.287.035.79-.006zm1.556-.394-.621.621-.314-.314c.206-.044.745-.222.935-.307zm-4.82.416-.898-.898.487-.488c.245.266.577.551 1.001.795zm8.551.869c.079.01.132.014.206-.061.057-.057.07-.132.061-.206l.036-.036c.135.263.25.534.351.811-.058.004-.116.022-.16.066l-1.297 1.297-.534-.534zm.064-.725c-.026.012-.056.011-.077.032l-.03.03-.565-.565.198-.198c.173.222.329.458.474.701zm-.798-1.085-.227.227-.473-.473c-.097-.097-.255-.099-.354 0-.098.098-.098.256 0 .354l.473.473-.375.375-.883-.883.927-.926c.328.256.634.541.912.853zm-8.233-4.994c1.19-2.81 4.598-2.976 6.188-.866.804 1.058.931 2.664.309 3.907-.948 1.903-3.488 2.399-5.106 1.378-.349-.222-.659-.517-.921-.875-.757-1.036-.941-2.428-.47-3.544z"></path><path d="m37.153 53.605c.582-1.515.373-3.287-.578-4.541-.879-1.167-2.395-1.856-3.928-1.814l-.059-1.733c-.005-.138-.119-.262-.259-.241-.138.005-.246.12-.241.259l.06 1.761c-1.592.243-2.943 1.581-3.48 2.849-.543 1.289-.408 2.851.32 4.109-.464.35-.936.714-1.374 1.145-1.145 1.136-1.864 2.357-2.141 3.633-.608 2.829.828 5.42 5.172 5.856 1.854.196 3.701.121 5.498-.201 1.016-.18 2.3-.501 3.219-1.402 1.022-1.002 1.453-2.662 1.151-4.443-.367-2.122-1.594-4.03-3.36-5.237zm2.331 5.209-.64-.64.357-.357c.12.326.214.659.283.997zm-1.239-2.748-.111.111-1.002-1.002.173-.173c.351.319.668.676.95 1.06-.004.002-.007.001-.01.004zm-7.837.084-.797-.797.129-.129c.044.043.088.086.133.127.181.164.369.318.572.446.066.042.138.072.206.109zm3.6.173c.187-.046.37-.102.55-.169.105-.039.208-.079.31-.125.063-.029.13-.049.192-.081l.296.296-.797.797-.678-.678c.044-.01.084-.03.127-.04zm1.492-.643c.05-.033.099-.065.147-.1.226-.163.437-.346.63-.552l.146.146-.715.715zm1.126-1.011c-.011-.011-.028-.008-.041-.017.034-.046.073-.088.104-.135.003-.004.006-.008.009-.011.076.054.146.117.22.175l-.14.14zm-7.037-4.136c1.192-2.816 4.601-2.971 6.188-.867.803 1.059.93 2.666.309 3.908-.133.267-.304.518-.504.742-1.324 1.46-4.105 1.707-5.523-.239-.757-1.036-.941-2.427-.47-3.544zm9.074 12.036c-.724.71-1.819.979-2.694 1.133-1.734.311-3.489.373-5.221.191-3.657-.369-4.799-2.314-4.297-4.651.231-1.067.877-2.15 1.867-3.133.177-.175.367-.34.561-.5.012.029.012.063.036.086.085.085.221.108.338.007l.824.824c-.045.093-.046.202.031.279.049.049.112.073.177.073.112 0 .157-.054.232-.129.123-.044.093-.016.137-.137l.453-.453.592.592-.936.936c-.098.098-.098.256 0 .354.097.097.255.098.354 0l.936-.936.856.857c.099.099.257.096.354 0 .098-.098.098-.256 0-.354l-.856-.857.275-.275c.001-.001.001-.003.002-.005.033.001.066.001.1.002.025 0 .05.005.076.005.069 0 .137-.018.206-.021.065-.003.129-.005.194-.011l.948.948-.346.346c-.098.098-.098.256 0 .354.097.097.255.098.354 0l.346-.346.31.31c.097.097.256.098.354 0s.098-.256 0-.354l-.31-.31.797-.797.639.639c.097.097.255.098.354 0 .098-.098.098-.256 0-.354l-.639-.639.715-.715 1.002 1.002-1.597 1.597c-.098.098-.098.256 0 .354.097.097.255.098.354 0l2.005-2.005c.171.271.317.556.451.847-.003.002-.006.001-.009.004l-.494.494-.467-.467c-.098-.098-.256-.098-.354 0s-.098.256 0 .354l.467.467-.824.824c-.098.098-.098.256 0 .354.097.097.255.098.354 0l.824-.824.782.782c.049.049.112.073.177.073.038 0 .069-.026.104-.043.142 1.322-.167 2.515-.894 3.228z"></path><path d="m54.208 48.635c.318-.956.163-2.048-.429-2.829-1.282-1.693-4.154-1.659-5.155.701-.332.788-.259 1.724.14 2.514-.25.191-.501.39-.739.625-.724.719-1.181 1.496-1.357 2.311-.387 1.806.532 3.526 3.322 3.804 1.162.125 2.306.072 3.404-.124.646-.114 1.466-.32 2.064-.907.669-.655.952-1.731.757-2.881-.225-1.292-.961-2.448-2.007-3.214zm-3.348 2.816-.469-.469.402-.402c.009.002.019.002.028.003.163.029.381.047.477.048.019 0 .037.004.056.004.003 0 .006-.001.01-.001l.156.156zm-1.225-1.373c.05.037.095.081.147.114.137.087.282.156.43.217.01.004.02.011.03.015l-.204.204-.446-.446c.026-.029.034-.067.043-.104zm3.047.258c.114-.053.221-.116.328-.183.047-.03.098-.052.144-.085l.051.051-.824.824-.153-.153zm.849-.596c.027-.027.059-.049.085-.077.042-.048.083-.097.121-.146.013.01.024.025.037.035l-.216.215zm.604.157c.199.208.38.432.533.677l-.151.151-.605-.605zm.772 1.145c.022.048.048.093.068.142l-.105-.105zm-.073.707c.049.049.112.073.177.073.054 0 .103-.027.148-.061.01.042.026.084.035.127-.034.012-.072.014-.099.041l-.303.303-.521-.521c-.006-.006-.015-.004-.021-.009l.269-.269zm.429.717c.002.081.005.161.001.239l-.12-.12zm-5.719-5.569c.666-1.573 2.554-1.654 3.437-.487.445.588.515 1.483.168 2.177-.073.147-.168.285-.276.408-.751.826-2.292.925-3.064-.131h-.001c-.421-.578-.525-1.35-.264-1.967zm5.213 7.118c-.402.395-1.033.548-1.539.637-1.038.187-2.091.224-3.127.114-2.087-.207-2.733-1.265-2.447-2.599.111-.51.398-1.029.821-1.519-.054.095-.057.213.024.294.097.097.255.098.354 0l.401-.401.441.441-.558.558c-.098.098-.098.256 0 .354.097.097.255.098.354 0l.558-.558.469.469-.26.26c-.098.098-.098.256 0 .354.096.096.255.099.354 0l1.273-1.274.153.153-.805.805c-.098.098-.098.256 0 .354.097.097.255.098.354 0l.805-.805.152.152c.097.097.255.098.354 0 .098-.098.098-.256 0-.354l-.152-.152.824-.824.605.605-1.367 1.367c-.098.098-.098.256 0 .354.097.097.255.098.354 0l.757-.757c.005.006.003.016.009.021l.521.521-.385.385c-.098.098-.098.256 0 .354.097.097.255.098.354 0l.385-.385.366.366c-.089.279-.216.527-.402.71.001-.001 0-.001 0 0z"></path><path d="m49.941 20.283c3.503.377 6.819-.423 6.226-3.912-.224-1.292-.961-2.45-2.006-3.213.319-.955.163-2.046-.43-2.828-.608-.806-1.67-1.272-2.734-1.18-1.107.095-2.056 1.017-2.42 1.879-.332.788-.259 1.724.14 2.515-.25.191-.502.389-.74.624-.715.709-1.184 1.508-1.358 2.312-.393 1.833.561 3.529 3.322 3.803zm5.247-3.033-.095-.095.126-.126c.002.093-.004.181-.011.271-.009-.016-.006-.036-.02-.05zm-1.228-1.535-.758-.759.708-.708c.023.022.046.044.069.066-.039.091-.039.195.035.269l.539.539zm-2.44-.574c.109-.007.217-.017.325-.035.075-.013.147-.031.221-.049.117-.029.232-.064.345-.106.019-.007.04-.01.059-.018l.024.024-.58.579zm-1.644.287c-.012-.038-.015-.079-.045-.109l-.336-.336.257-.258c.132.082.27.15.412.208.045.018.091.032.136.048.005.002.011.004.016.006zm-.572-1.053c.016.015.032.028.048.042l-.211.211-.076-.076c.076-.062.144-.129.223-.19.005.005.011.008.016.013zm.195-2.957c.284-.672.965-1.219 1.583-1.271.06-.005.12-.008.18-.008.658 0 1.3.301 1.672.794.446.589.516 1.483.169 2.176v.001c-.072.146-.167.284-.277.408-.626.691-1.771.848-2.556.353-.095-.06-.185-.131-.27-.211-.085-.081-.164-.171-.237-.271-.422-.578-.526-1.352-.264-1.971zm-1.902 5.273c.133-.614.508-1.24 1.084-1.812l.002-.002.105.105-.16.16c-.098.098-.098.256 0 .354.096.096.255.099.354 0l.16-.16.336.336c.03.03.071.034.109.045l-.146.146c-.098.098-.098.256 0 .354.097.097.255.098.354 0l1.047-1.047.759.759c-.014.078-.005.158.056.219.085.085.138.071.219.056l.31.31c.097.097.255.098.354 0 .098-.098.098-.256 0-.354l-.271-.271.58-.579.759.759-.699.699c-.098.098-.098.256 0 .354.097.097.255.098.354 0l1.585-1.585c.13.278.233.565.297.863l-.403.403-.347-.347c-.098-.098-.256-.098-.354 0s-.098.256 0 .354l.347.347-.565.565c-.098.098-.098.256 0 .354.097.097.255.098.354 0l.565-.565.095.095c.084.084.218.108.336.007-.076.374-.227.698-.46.925-.001 0-.001.001-.001.001-.402.396-1.032.549-1.538.638-1.041.186-2.092.223-3.128.114-2.095-.212-2.733-1.273-2.449-2.6z"></path><path d="m16.937 48.547c.318-.956.162-2.048-.431-2.829-.607-.804-1.68-1.273-2.732-1.178-1.107.093-2.057 1.016-2.421 1.879-.333.789-.259 1.725.14 2.513-.25.191-.501.39-.74.625-.724.719-1.181 1.496-1.357 2.311-.39 1.822.547 3.525 3.322 3.805 1.071.115 2.235.085 3.405-.125 2.316-.409 3.149-1.856 2.82-3.788-.224-1.293-.961-2.451-2.006-3.213zm1.061 3.894c.001.057 0 .112-.003.167l-.082-.082zm-3.315-1.498-.411-.411c.119-.007.236-.017.353-.037.072-.012.142-.03.213-.047.009-.002.018-.004.028-.006l.16.16zm-1.48-.307c-.011-.02-.008-.044-.026-.062l-.261-.261c.008.003.016.005.024.009.045.019.091.033.138.049.099.035.199.066.301.09zm3.487-.993c.184.171.35.357.501.56l-.531-.531zm-4.415-2.835c.283-.673.964-1.219 1.583-1.271.06-.005.12-.008.18-.008.658 0 1.3.301 1.672.793.445.588.515 1.483.169 2.177-.072.146-.167.284-.277.408-.626.691-1.771.848-2.556.353-.19-.12-.361-.283-.508-.482-.421-.578-.524-1.35-.263-1.97zm5.211 7.119c-.402.395-1.032.548-1.538.637-1.041.187-2.093.224-3.128.115-2.11-.214-2.728-1.288-2.447-2.6.133-.612.508-1.239 1.083-1.811.119-.117.253-.22.383-.326l.078.078-.206.206c-.098.098-.098.256 0 .354.097.097.255.098.354 0l.206-.206.554.554c.032.032.076.038.117.049-.014.078-.005.158.056.219.099.099.257.096.354 0l.439-.439.539.539-.172.172c-.098.098-.098.256 0 .354.099.099.257.096.354 0l.257-.257c.046-.01.094-.018.13-.054s.044-.083.054-.13l.428-.427.603.602c.049.049.113.073.177.073s.128-.024.177-.073c.098-.098.098-.256 0-.354l-.606-.602.575-.574.806.806-1.124 1.124c-.098.098-.098.256 0 .354.097.097.255.098.354 0l1.314-1.314c.121.271.218.551.276.84-.02.011-.045.009-.062.026l-.311.311-.334-.333c-.098-.098-.257-.098-.354 0-.098.098-.098.256 0 .354l.334.333-.433.433c-.098.098-.098.256 0 .354.097.097.255.098.354 0l.433-.433.33.33c-.087.281-.216.532-.404.716.001-.001 0-.001 0 0z"></path><path d="m18.943 16.459c-.224-1.292-.961-2.45-2.006-3.213.318-.956.163-2.048-.431-2.83-1.279-1.693-4.158-1.657-5.153.701-.333.789-.259 1.725.14 2.515-.25.191-.502.389-.739.624-.715.709-1.184 1.508-1.358 2.312-.388 1.809.535 3.523 3.322 3.804 1.071.115 2.235.085 3.405-.125 2.334-.413 3.145-1.877 2.82-3.788zm-2.496-.358-.746-.746.53-.53.746.746zm-4.039-1.378c.036.025.067.057.103.08.137.086.281.156.429.217.04.017.081.03.122.044.001.001.001.003.002.004l.049.049-.458.458-.551-.551zm1.626.521c.017 0 .034.003.05.003.046 0 .092-.012.138-.014.135-.006.27-.017.403-.04.057-.01.113-.021.17-.034l.197.197-.468.468-.585-.585c.033.002.064.004.095.005zm1.299-.256c.022-.009.04-.024.062-.034l-.048.048zm1.251-.516.119-.119c.258.242.491.511.68.812l-.052.052zm1.353 2.079c.005.026.017.052.021.078.07.412.061.805-.021 1.148l-.614-.614zm-5.662-5.045c.659-1.566 2.549-1.657 3.435-.486.446.588.516 1.483.169 2.177-.073.147-.168.285-.278.408-.624.689-1.77.852-2.555.354-.189-.12-.36-.282-.508-.483 0 0-.001 0-.001-.001-.42-.578-.523-1.351-.262-1.969zm5.211 7.119c-.401.395-1.032.547-1.538.637-1.041.187-2.093.224-3.128.115-2.106-.214-2.729-1.284-2.447-2.599.117-.542.432-1.09.897-1.604-.07.098-.073.23.015.318.099.099.257.096.354 0l.112-.112.551.551-.171.171c-.098.098-.098.256 0 .354.097.097.255.098.354 0l.171-.171.185.185c.097.097.255.098.354 0 .098-.098.098-.256 0-.354l-.185-.185.458-.458.705.705-.003.002c-.098.098-.098.256 0 .354.096.096.255.099.354 0l.002-.002.156.156c.097.097.255.098.354 0 .098-.098.098-.256 0-.354l-.156-.156.468-.468.746.745-.286.286c-.098.098-.098.256 0 .354.097.097.255.098.354 0l1.169-1.169.143.143c.047.047.108.069.17.07l-.673.673c-.098-.095-.253-.095-.35.001-.097.097-.096.252-.001.35l-.59.587c-.098.098-.098.256 0 .354.097.097.255.098.354 0l.586-.586.677.677c.033.033.077.038.118.049-.075.144-.168.273-.279.381 0-.001 0 0 0 0z"></path><path d="m16.594 35.055c-.368-2.121-1.596-4.03-3.361-5.235.582-1.515.374-3.287-.578-4.542-1.93-2.558-6.352-2.594-7.906 1.08-.544 1.288-.409 2.85.319 4.109-.465.351-.936.714-1.374 1.146-1.145 1.136-1.864 2.358-2.141 3.633-.595 2.78.785 5.415 5.172 5.855 1.851.195 3.698.122 5.499-.201 3.567-.63 4.888-2.781 4.37-5.845zm-1.092 2.371-.597-.597.611-.611c.006 0 .011.007.017.007.053 0 .102-.027.146-.061 0 .452-.063.873-.177 1.262zm-.259-3.506c-.015.01-.034.006-.047.02l-.672.672-.618-.618c-.027-.027-.065-.029-.099-.041l.977-.977c.174.305.332.618.459.944zm.171.509c.079.262.148.526.195.795.01.062.005.119.014.181l-.153.153-.592-.592zm-4.219-.707-.687-.688.865-.865.688.688zm-2.013-.068-.578-.578.388-.388s.431-.031.432-.031l.378.378zm-2.288-1.165-.454-.454.049-.049c.013.008.024.019.037.027.177.112.362.209.552.293zm1.426.163-.07.07-.104-.104c.058.01.115.026.174.034zm1.711-.095s.324-.077.325-.078l-.201.201zm2.747-1.836c.015.011.028.023.043.034-.015-.013-.035-.013-.052-.021.001-.002.002-.004.003-.005.002-.003.004-.006.006-.008zm-1.051 1.094c.27-.27.232-.123.678-.615.027-.03.048-.064.075-.095.003.003.001.008.004.01l.659.659-.729.729zm1.142-1.022c.238.177.462.372.675.579l-.048.048zm1.024.938c.139.156.273.316.398.484l-.441-.441zm-8.222-4.984c1.181-2.791 4.615-2.949 6.187-.866.803 1.058.93 2.666.309 3.908 0 0-.001.001-.001.001-.132.266-.302.516-.503.741-1.326 1.462-4.1 1.706-5.522-.238-.759-1.037-.943-2.429-.47-3.546zm1.157 13.361c-3.648-.368-4.799-2.304-4.297-4.651.231-1.065.877-2.149 1.867-3.133.272-.268.57-.513.873-.75l.461.461-.358.358c-.098.098-.098.256 0 .354.097.097.255.098.354 0l.358-.358.454.454-.364.364c-.098.098-.098.256 0 .354.096.096.255.099.354 0l.925-.926.441.441-.785.785c-.098.098-.098.256 0 .354.097.097.255.098.354 0l.785-.785.578.578-.161.161c-.098.098-.098.256 0 .354.097.097.255.098.354 0l.208-.208c.006 0 .01.007.017.007.064 0 .128-.024.177-.073.053-.053.071-.124.066-.193l.666-.666.707.708c-.049.094-.051.207.028.286.097.097.255.098.354 0l.003-.003c.002 0 .003.002.004.002.063 0 .128-.024.177-.073.05-.05.073-.115.072-.181l.916-.916.317.317c.097.097.255.098.354 0 .098-.098.098-.256 0-.354l-.317-.317.729-.729.509.509c.097.097.255.098.354 0 .077-.077.076-.187.03-.28.043.06.085.12.126.181l-2.119 2.119c-.098.098-.098.256 0 .354.097.097.255.098.354 0l.761-.761c.012.034.014.071.041.099l.618.618-.586.586c-.098.098-.098.256 0 .354.097.097.255.098.354 0l.586-.586.592.592-.564.564-.152-.152c-.098-.098-.256-.098-.354 0s-.098.256 0 .354l.152.152-.12.12c-.098.098-.098.256 0 .354.097.097.255.098.354 0l.12-.12.645.645c.037.037.086.047.134.056-.392.878-1.012 1.633-3.281 2.033-1.738.306-3.493.369-5.225.187z"></path><path d="m47.262 33.318c0-.138-.112-.25-.25-.25h-3.559c-.138 0-.25.112-.25.25s.112.25.25.25h3.559c.137 0 .25-.113.25-.25z"></path><path d="m42.005 33.156c-.012-.137-.12-.251-.271-.227l-.36.032c-.398-1.072-1.444-1.882-2.588-1.958-.12-.008-.24-.002-.359.006-.078-.731-.337-1.434-.738-2.045l2.026-2.025c.098-.098.098-.256 0-.354-.097-.097-.255-.099-.354 0l-1.98 1.979c-1.264-1.543-3.132-1.983-4.864-1.432l-.068-2.547c-.004-.136-.115-.243-.25-.243-.002 0-.004 0-.007 0-.138.004-.247.118-.243.257l.071 2.681c0 .015.014.024.017.038-.572.253-1.087.622-1.514 1.088-1.053-.582-2.213-.388-3.002.24-.065.051-.11.121-.169.178l-1.632-1.549c-.1-.096-.258-.09-.354.01-.095.1-.091.258.01.354l1.637 1.553c-.304.429-.47.942-.498 1.468-1.581-.009-2.679 1.073-3.079 2.459h-1.393c-.138 0-.25.112-.25.25s.112.25.25.25h1.285c-.07.458-.07.933.028 1.404.329 1.572 1.565 3.115 3.844 3.903l-1.649 1.739c-.095.1-.091.258.01.354.096.092.254.093.354-.01l1.809-1.908c1.08.295 2.251.402 3.37.402 1.97 0 4.016-.351 6.099-1.046 1.036-.347 2.217-.821 3.129-1.715.936-.915 1.379-2.178 1.185-3.29l.272-.025c.137-.012.238-.133.226-.271zm-2.383 2.872c-.768.753-1.819 1.171-2.746 1.48-5.438 1.819-11.718 1.257-12.542-2.688-.355-1.708.883-3.585 2.731-3.098.494.13.884.415 1.099.803.135.242.44.327.68.195.241-.134.329-.438.195-.68-.318-.574-.862-.994-1.531-1.217-.006-.528.225-1.067.636-1.395 1.023-.814 2.602-.228 2.797 1.104.041.273.29.453.568.422.273-.041.462-.295.422-.568-.074-.503-.303-.969-.629-1.355.952-.991 2.515-1.393 3.806-.922 1.291.469 2.228 1.773 2.325 3.139-.702.304-1.296.868-1.593 1.574-.107.255.013.548.268.654.256.106.548-.014.654-.268.198-.47.615-.832 1.093-1.034.021.004.039.015.06.016.01.001.02.001.029.001.137 0 .26-.057.351-.147.14-.023.28-.052.422-.041.802.054 1.565.68 1.775 1.457.224.824-.118 1.832-.87 2.568z"></path><path d="m17.016 33.318c0 .138.112.25.25.25h3.559c.138 0 .25-.112.25-.25s-.112-.25-.25-.25h-3.559c-.137 0-.25.112-.25.25z"></path><path d="m32.088 19.338v3.559c0 .138.112.25.25.25s.25-.112.25-.25v-3.559c0-.138-.112-.25-.25-.25s-.25.112-.25.25z"></path><path d="m32.14 40.836v3.471c0 .138.112.25.25.25s.25-.112.25-.25v-3.471c0-.138-.112-.25-.25-.25s-.25.112-.25.25z"></path><path d="m18.827 20.114c-.098-.098-.256-.098-.354 0s-.098.256 0 .354l2.454 2.454c.097.097.255.098.354 0 .098-.098.098-.256 0-.354z"></path><path d="m24.622 26.336c.098-.098.098-.256 0-.354l-2.517-2.517c-.098-.098-.256-.098-.354 0s-.098.256 0 .354l2.517 2.517c.098.097.256.098.354 0z"></path><path d="m36.99 38.631c-.098.098-.098.256 0 .354l2.454 2.454c.097.097.255.098.354 0 .098-.098.098-.256 0-.354l-2.454-2.454c-.098-.098-.256-.098-.354 0z"></path><path d="m40.622 41.983c-.098-.098-.256-.098-.354 0s-.098.256 0 .354l2.517 2.517c.097.097.255.098.354 0 .098-.098.098-.256 0-.354z"></path><path d="m44.236 45.792c-.1-.096-.258-.09-.354.01-.095.1-.091.258.01.354l1.945 1.846c.096.092.254.093.354-.01.095-.1.091-.258-.01-.354z"></path><path d="m20.844 45.104-2.455 2.454c-.098.098-.098.256 0 .354.099.099.257.096.354 0l2.455-2.454c.098-.098.098-.256 0-.354-.098-.097-.257-.099-.354 0z"></path><path d="m24.257 41.763-2.516 2.517c-.098.098-.098.256 0 .354.096.096.255.099.354 0l2.516-2.517c.098-.098.098-.256 0-.354s-.257-.098-.354 0z"></path><path d="m43.127 23.246c-.099-.099-.257-.097-.354 0l-2.516 2.517c-.098.098-.098.256 0 .354.097.097.255.098.354 0l2.516-2.517c.097-.098.097-.256 0-.354z"></path><path d="m45.912 20.203-1.845 1.945c-.095.1-.091.258.01.354.096.092.254.093.354-.01l1.845-1.945c.095-.1.091-.258-.01-.354-.1-.095-.258-.09-.354.01z"></path></g></svg>