<svg xmlns="http://www.w3.org/2000/svg" id="Layer_1" height="512" viewBox="0 0 72 72" width="512"><g id="Attract_1_"><g><path d="m5.957006 49.2082024c2.4072795-1.3306084 5.637629-3.3709412 7.6982417-4.8818359 1.0833015 1.7909508 2.5392447 3.9200783 3.5668955 5.6542969-2.7522707 2.298912-6.6745272 5.4330254-6.9677744 5.7529297-.5888739.3236313-.4866924 1.2027168.1616211 1.3818359.1190796.0325928.2529297.0670166.385437.1013184 1.7623301 1.9892273 7.4262915 3.1743698 11.4558115.2321777 3.0623169-2.2359619 4.4898682-6.4226074 3.4920044-10.0524902.1736774-.1480331 9.5060787-8.0787201 9.9751568-8.4743652.7321777.8460693 1.4642334 1.6862793 2.1964111 2.5299072-.3111572.1732178-.621582.3389893-.9252319.4749756-.3779297.1689453-.5473633.6132813-.3779297.9912109.1729469.3850708.6227112.544117.9912109.3779297.1845093-.0826416.3743286-.1923828.5615845-.2878418.4301071.2324066 1.7974968-.073513 3.0228882 1.7487793.4323196.6418114.1815567 1.8421936-.109375 2.0205078-.3510742.2207031-.4570313.6835938-.2368164 1.0341797 3.8485527 6.1673965 10.1907158 15.8940735 14.9854126 17.1779747 3.9289551 1.0515518 8.3678856-2.7256927 8.7338295-5.8361778.4980621-4.2310562-11.329628-15.7133636-14.3731728-18.6040039.0975952-.277832.0266724-.5991211-.2064209-.8071289-.3095703-.2783203-.7836914-.25-1.059082.0585938-.2294579.2529945-1.4389229.3050194-2.0014648-.2363281-1.5403633-1.4804916-.8054237-2.5135422-1.0726929-3.1157227.0596313-.0776367.1322632-.1610107.1884155-.2368164.2460938-.3330078.1762695-.8027344-.1567383-1.0488281-.3320313-.2460938-.8037109-.1757813-1.0493164.15625-.5484009.7414551-1.2875366 1.5737305-2.1207275 2.4020996l-2.3448486-2.644165c3.4128418-2.767334 6.9863281-5.5063477 11.2240601-8.4953613h.0071411c1.4264984 1.0757847 2.9559746 1.6889114 4.4787178 1.9150162 5.427784.8059502 10.77005-3.3053513 11.0582504-8.9082413.1303253-2.5336304-.5044937-3.3474731-.8493423-3.8845825.0543671-1.1991272-.8742676-1.2391405-1.2667236-.8466797-.4245682.2082767-3.8066559 2.5267887-7.5488319 4.9404297-4.6807175-5.1754303-4.1180611-3.0301952 2.8753662-8.1506348-.161499-.8813477-.322937-1.7629395-.484375-2.6442871.724247-.685708.4078598-1.3175664-.1185303-1.4589844-3.1640625-.8515625-5.9472656-.9404297-8.5078125-.2685547-2.7407227.7167969-5.1494141 3.1044922-5.8579102 5.8066406-.4014664 1.5326319-.254406 4.0547562.7661133 6.1125488-2.0625 1.6879883-6.7780151 5.3618164-11.742981 9.1483154l-11.9135114-13.463257c-.0228729-.3093891.107317.3897209-.517334-2.0661621-.059082-.2236328-.2177734-.4072266-.4306641-.4980469-1.5732269-.6718435-2.7022114-1.8256102-3.7753906-2.9414063-.2880859-.296875-.762207-.3066406-1.0605469-.0195313l-2.5664072 2.4765625c-.1874924.1809988-.2897863.573678-.1967773.8374023-.017334.4804688-.0234375 1.0616455-.0584106 1.3834229.7199707 1.6099854 1.7299805 3.0300293 2.6300058 4.6099854.8399658.1900635 1.3899536.4801025 2.2399902.6800537 3.6456909 4.210083 7.2817993 8.4022217 10.9179077 12.6019287-6.0446224 4.5725288-4.4995937 3.2167778-9.5159302 7.1905518-1.7230682-1.6703453-4.0741558-2.6159248-5.7687387-2.69104-2.7958984-.1240234-5.7851563 1.46875-7.2797847 3.8720703-1.3959961 2.2441406-2.1362305 4.9287109-2.2631836 8.2070313-.0221166.5834617.6008359.968174 1.1123048.6855469zm38.4994492-11.1230469c.1287231.8736572.519104 1.6860352 1.4302368 2.5615234.710701.6824226 1.9253883 1.0010567 3.0300903.7573242 2.4035034 2.2653084 14.5544968 14.2206612 14.1603394 17.5737305-.2795563 2.3700256-3.7032623 4.7456169-5.2597656 4.4863281-2.9184265-.4773712-5.1579323-4.6132736-15.2266235-16.2727051.5230103-1.0859718.415554-2.4276161-.1532593-3.2722168-.6643066-.987793-1.4559937-1.637207-2.4252319-1.9985352 1.6052246-1.0947265 3.1802368-2.491455 4.4442138-3.8354491zm-4.2631225 1.6035156-2.2819824-2.5949707c.4324341-.3574219.8649902-.7132568 1.2974243-1.0678711l2.2819214 2.5769043zm6.6381836-26.2255859c.5678711-2.1679688 2.5810547-4.1601563 4.7866211-4.7363281 2.1217194-.5551968 4.2743034-.4798069 6.3984375-.0507813-1.2118111 1.1109304-5.5181122 4.8393583-6.371582 5.2490234-.5018387.2463732-.5830612 1.0330019-.043457 1.3476563 1.6046524 1.7439232 3.5312576 4.228157 5.1547852 5.9619141.2964554.3207512.7087898.3519344 1.0092773.1601563 3.179203-2.0454617 6.9090538-4.5474892 6.9443398-4.5703125-.0878067.9559917-.2244797 1.8251629-.4041595 2.612709-1.1859055 5.1979675-4.2451363 6.8401012-7.4916954 6.4199409-5.4184687-.7012425-11.358742-7.1470623-9.982567-12.3939781zm-26.2182598.0771484.418457 1.5869141c.0079746.0301514.2607517.6625757.3310547.7421875l11.8444805 13.3852539c-.4441528.340332-.883728.6757813-1.3160381 1.0021973l-11.6627198-13.2487794c-.0809155-.0924301-.7940483-.4976158-.8120117-.5039063l-1.5419922-.5400391c-.5275269-1.3681641-1.3741455-2.5219727-2.2148447-3.5148926l1.5419931-1.4880371c.9406739.9472658 2.0497437 1.9252931 3.4116212 2.5791017zm26.2520732 7.0041504c.6931992 1.2065296 1.7039375 2.6396103 3.9466553 4.375l-.0078125.0056152c-.1087112.0788822-25.7553177 19.1289139-26.7833233 20.0493164-.8537827-2.2442856-1.8304482-3.6826744-2.8091431-4.7619629 5.9680787-4.7253913 16.2743397-12.0494747 25.6536236-19.6679687zm-38.4840078 20.564209c1.203125-1.9345703 3.6923828-3.2509766 5.9399414-3.1669922 7.182435.3231049 12.6148367 12.6587029 5.9228525 17.5136719-1.9991875 1.4500046-5.6112928 1.0735664-8.0141611.5595703.0497961-.0415382 3.5516462-2.8704796 6.4257822-5.2773438.2518063-.2111931.3383083-.6838951.1503906-1.0166016-1.1824436-2.0795326-3.0130291-4.6840744-4.2109385-6.7509766-.1904802-.5834312-.9871588-.7437668-1.3544922-.21875-.0058594.0078125-.0117188.0166016-.0170898.0244141-1.818162 1.3845482-4.651309 3.1889496-6.7846675 4.4335938.2441407-2.3935547.8837891-4.399414 1.9423824-6.1005859z"></path><path d="m58.73386 60.342968c.6324768.7347565 1.7904434-.2185936 1.1367188-.9785156-4.0639649-4.7236329-11.8051758-13.7265625-12.0732422-14.0527344-.253418-.3203125-.7182617-.3789063-1.0439453-.1289063-.3286133.2519531-.390625.7226563-.1386719 1.0507813.1435547.1875 9.3120117 10.8466797 12.1191406 14.109375z"></path></g></g></svg>