<svg xmlns="http://www.w3.org/2000/svg" id="Layer_1" height="512" viewBox="0 0 73 73" width="512"><g id="_x31_16"><path d="m43.8624496 37.8998146c-.4479675.3622589-2.3611107 4.2196198-7.029541 4.2908936-3.375.3300781-5.8623047-2.3808594-7.0292969-4.0273438-.1940479-.1651497-.3180027-.3284798-.6708984-.3013306-1.2672233.0981636-8.3911533 3.364029-12.8349609 10.6548462-.2132721.3510094-.1345482.8710556.3775024 1.0692749.2119141.4710083.4428101.9334106.7102661 1.3752441h36.8250732c.1254883-.5404663.3837891-1.0263672.572998-1.5407104.0344238-.0344849.0794678-.0557861.1069336-.097168.1386719-.2089844.1650391-.4726563.0683594-.7041016-.8154297-1.9580078-1.8232422-3.7949219-2.9960938-5.4589844-1.5732422-2.2402344-4.046875-4.0517578-7.3525391-5.3837891-.2033003-.0213011-.4393499-.1278189-.7478026.1231691zm9.2546387 10.2576904h-34.8007812c2.5108318-3.6550751 6.2653217-6.9217834 10.6164551-8.6506348 1.9811268 2.5775566 4.7182961 4.4972572 7.9841309 4.1799316 3.050293-.0441895 5.6206055-1.4984131 7.6623535-4.2896118 4.4027366 1.905903 6.464981 4.2938615 8.5378417 8.760315z"></path><path d="m28.0433578 26.9183064c1.1646194 8.4058666 7.7399712 11.3681507 12.8505859 8.3499775 2.6429634-1.5609589 3.4365044-5.198967 3.9194336-7.9829731 2.608326-.3818169 2.8054008-4.0929699 1.2423096-5.0388184 2.0406532-7.2586012-4.4299889-13.1585588-10.4569092-9.9552002.0701904-.2093506.152832-.4141846.2614746-.6044922.2050781-.3603516.0800781-.8183594-.2792969-1.0234375-.3603516-.2080078-.8183594-.0800781-1.0234375.2792969-.2055664.3599854-.3562012.7441406-.4645996 1.1391602-.0698242-.0534058-.1335449-.1143799-.2092285-.159668-.3583984-.2099609-.8164063-.0947266-1.0292969.2597656-.2091064.3516846-.0964355.8021851.2480469 1.0186768-3.2226906-.1024485-6.4257298 2.9416885-5.6586914 8.5542603-.4775391.0968018-.9199219.3786621-1.2172852.7981567-1.1057681 1.5637779.0706769 3.7362537 1.8168946 4.3652954zm3.315918 4.9247436c-1.2229004-1.7568359-1.8615723-4.0683594-2.0029297-7.2036743 3.3911133.218689 8.534668-2.185791 10.8789063-5.2689819.5024414 2.1176758 1.3808594 4.1287231 3.144043 5.3534546.0065918.0473022.0273438.0900269.0427246.1353149-.1362305 1.9762573-.3522949 4.0447998-1.1477051 5.9106445-.8583984 2.0097675-2.3769531 3.5009785-4.0625 3.9902363-2.6347656.7685547-5.4394531-.8876953-6.8525391-2.9169941zm-.8339844-16.2001953c.9892578-.890625 2.4326172-1.1943359 3.5126953-.7460938.2919922.1259766.6367188.046875.8505859-.1943359 1.3847656-1.5644531 3.9980469-2.2314453 5.9589844-1.5087891 3.8256989 1.4075327 5.1494331 6.3276272 3.173584 10.1386108-1.7114258-1.3447266-2.3221436-3.7984619-2.7028809-6.296814-.1194611-.7853451-1.2318573-.8734608-1.4609375-.0986328-.9836426 3.3411255-7.2260742 6.5609131-10.621582 6.1917114-.6335239-2.6610888-.7337512-5.6589163 1.2895508-7.4856566z"></path><path d="m68.1864243 36.4660988c-.2298584-3.599453-4.0795746-5.8743286-7.3760986-4.1622925-2.1114426.6803055-3.4018631 2.3420448-3.6546631 4.3058472h-5.6870117c-.4140625 0-.75.3359375-.75.75s.3359375.75.75.75h5.7230225c.6357422 3.6635056 5.1738625 5.517952 7.8594971 3.3417358 2.1469801-.8781433 3.2680968-2.9239273 3.1352538-4.9852905zm-7.3994141 2.9951172c-2.4491081-2.1542778-.9234352-6.2324219 2.3515625-6.2324219 1.8603516 0 3.4306641 1.4511719 3.5517578 3.3330078.2007599 3.1473656-3.5262413 4.9874764-5.9033203 2.8994141z"></path><path d="m16.128746 14.0579548c.0650024-.0269165.1339111-.0460205.1975098-.0755615 7.767931 7.6395607 7.4330578 7.7005005 8.0213013 7.7005005.6656666 0 1.001009-.8111057.5302734-1.2802734l-7.2850952-7.2751465c3.5714264-3.2551317.9882565-9.1292086-3.7100229-8.7736816-.7124634.0454102-1.3883667.2443848-2.003479.5634766-2.9465027.9487971-4.2377386 3.8655556-3.5003663 6.3480833.9826346 3.3079825 5.2107792 4.8636895 7.7498789 2.7926026zm.4277954-7.328186c2.3649044 2.0802116 1.0441246 6.0218134-2.1230478 6.2255859-1.9707031.1289063-3.6552734-1.3671875-3.7802734-3.3251953-.2030325-3.1830206 3.5466327-4.9725895 5.9033212-2.9003906z"></path><path d="m16.1161728 37.7036476c1.309803.0183029 8.0866604.1129646 8.2313843.1149902.4091797 0 .7441406-.3291016.75-.7392578.0058594-.4140625-.3251953-.7548828-.7392578-.7607422l-8.164856-.1141968c-.3392687-3.6241608-4.1371155-5.7629242-7.3926401-4.2090473-3.1929903.9140148-4.5235319 3.991106-3.8100586 6.5269184.9659271 3.4334793 5.3598194 5.1384697 8.0171509 2.9561157 1.7139301-.7044486 2.7772493-2.1088294 3.1082773-3.7747802zm-1.3867807-1.1994629c.1005859 2.0371094-1.4755859 3.7763672-3.5126953 3.8769531-2.0283203.0927734-3.7773438-1.4746094-3.8779297-3.5117188-.1040225-2.1057053 1.5813322-3.8808594 3.6982422-3.8808594 1.9560546.0000001 3.5937499 1.5410157 3.6923828 3.5156251z"></path><path d="m52.2475815 58.5610695c-.8365822-1.6917534-1.225853-2.5690613-3.1256104-5.5705566-.2207031-.3496094-.6826172-.4550781-1.0351563-.2324219-.3496094.2216797-.4541016.6855469-.2324219 1.0351563 2.2912407 3.6180496 2.7858734 4.9292603 3.0369873 5.40802-2.028511 1.287426-2.7784576 3.721962-2.1815186 5.7316856.9836655 3.3118439 5.2046967 4.8564072 7.7409668 2.7992554 2.1480827-.878891 3.2664452-2.9222183 3.1350098-4.9848595-.1777343-2.7832031-4.0427398-5.8596535-7.3382567-4.1862793zm2.5159912 8.0612755c-3.1600456.1968918-4.9817123-3.5360413-2.8994141-5.9033165 2.0889397-2.3748322 6.0224609-1.0326157 6.2255859 2.1240234.123169 1.9626503-1.3619193 3.6540032-3.3261718 3.7792931z"></path><path d="m49.4032211 20.3010578 6.4060059-6.3977661c1.7517776 1.3268757 4.1934738 1.5174017 5.8668213.1622314 3.5579987-1.4552422 4.1862183-6.0365076 1.4293213-8.461731-1.6022263-1.4094634-3.8265114-1.6418469-5.6685791-.6866455-3.6065788 1.1610909-4.7313576 5.2100697-2.6859131 7.9230957l-6.4082031 6.3983154c-.2929688.2929688-.2929688.7675781-.0009766 1.0615234.2977867.2958166.7708321.2897302 1.0615234.0009767zm12.7109375-13.571289c2.3663254 2.0814619 1.0369415 6.020709-2.1240234 6.2255859-1.9228516.1308594-3.6542969-1.3671875-3.7802734-3.3251953-.2012368-3.178555 3.5507583-4.9698215 5.9042968-2.9003906z"></path><path d="m26.7772446 52.4602394c-.3662109-.1972656-.8203125-.0585938-1.0146484.3076172-1.2727051 2.3775635-1.8952637 3.7396851-2.678833 5.6209106-1.5120831-.7233582-3.1164265-.6455231-4.4890137.06604-2.9468031.9481888-4.2386551 3.8657722-3.5012827 6.3483849.9698362 3.2647858 5.1652594 4.8849564 7.7387094 2.8009033 3.4847507-1.4243011 4.2003403-5.8786545 1.5224609-8.3647423.8195801-1.9796753 1.4287109-3.3334351 2.7302246-5.7644653.1953126-.3652343.0576172-.8193359-.3076171-1.0146484zm-3.1845703 12.8310509c-.6279297.7138672-1.4960938 1.140625-2.4453125 1.2021484-3.1322613.2150421-4.9955864-3.521244-2.8994141-5.9042931.6694679-.7610931 1.6235485-1.2080078 2.6787109-1.2080078 3.055275 0 4.6777573 3.6230889 2.6660157 5.9101525z"></path></g></svg>