<svg xmlns="http://www.w3.org/2000/svg" id="Layer_1" height="512" viewBox="0 0 72 72" width="512"><g id="Campaign"><g><path d="m8.3150721 64.2880707c4.1696434 3.292305 9.198966 4.3994751 11.2069101 4.1625977 1.1533813-.1361084 1.7669678-.836731 2.3989258-1.6386719 1.9060516-1.3103638 1.7755756-1.1344986 1.9230347-1.3443604.619751-.1809692 1.1262207-.5703125 1.4232178-1.092041 1.6050758.1535034 6.1968555-.0436172 9.5243511-1.2697105 7.3981705-2.7260132 10.7645721-11.1882896 6.5827026-12.2333374 1.2891693-1.9740486 1.970993-4.4932861-.1827393-5.4754639.3941231-1.4769516-.4102898-2.7359085-1.5473633-3.1859131.5442963-1.6412697-.3502388-3.130249-2.3652344-3.1032104-.1604614-.4960327-.624939-1.00177-1.0426636-1.1187134 1.0709229-.0696411.9810791-2.1196289.0911255-2.8197021 6.7548828.168129 12.4362602 3.3110504 12.9972534 3.8783569.6658363.6751518 1.3662758 1.2998047 2.2797852.9702148 2.3303375-.8428497 2.7505112-6.9194031 2.5053711-10.2641602-.779232-10.6486092-5.2806168-20.7301254-7.8022461-24.2832031-2.0647011-2.9100592-4.3656006-2.1574309-5.206665-.3945313-5.7789917 6.4783936-12.274229 11.4332895-19.3094463 14.724122-1.742321.8063965-3.4965706 1.5656853-4.878418 2.8701172-2.6963301 2.5453053-4.0218058 7.957346-1.4558115 11.8293457 1.7331553 2.6152954 4.9312754 4.1016235 8.046998 3.9885864-.6447144.7684326-1.1480713 1.7504883-1.1990967 2.562439-.2270737 3.6122055-.4536037 3.2225342-1.2709961 6.2304688-.5233765 1.9268188-.8834839 3.9338989-1.0571289 5.7994385-.4110107-.2564087-.8563843-.3352661-1.3383789-.2110596-.526001.1356201-.9825439.4935303-1.2903442.9945679-.6224957.3429642-5.0345316 3.4676743-5.6144419 3.8804321-1.4790039 1.0517578-2.8754883 2.0454102-5.0317378 3.4975586-.9781399.6585761.7691121 2.3794661 1.6130367 3.0458327zm36.7687978-57.9491549c2.6328697 3.7045403 6.7788353 13.2693033 7.5297852 23.5244141.1365204 1.8586121-.0305939 8.1591301-1.4887695 8.7402344-1.7176399-.2508316-5.145504-6.9872341-5.8755493-8.567749.8977051-1.0747681 1.9763794-2.0134277 3.1643677-2.767334.1748047.0720825.3547974.1105347.5393066.1104736 2.1455154 0 1.8930779-3.9334335 1.4482422-6.0356445-.5800781-2.7431641-1.8891602-5.35254-3.4985352-5.019043-.4043579.0856934-.7155151.3344727-.9458618.7018433-1.4337769.1729736-2.8804932.1754761-4.3175049-.0007324-.354599-3.5527267-.0304985-9.3199806.7653809-11.2165537.4859886-1.0255113 1.3759498-1.3074918 2.6791381.5300912zm.6533203 15.9912119c.3151245 1.4885254.8448486 2.9365234 1.5200806 3.8981323-.977417.6592407-1.8709106 1.4413452-2.6680908 2.305603-1.3585815-3.2617798-2.2905273-6.630188-2.7640991-9.9836426 1.3599434.140377 2.3759308.1447201 3.6557617.0341797-.1314697 1.0903321-.0204468 2.4366456.2563476 3.7457276zm-5.3721313-14.2618418c-1.4022293 10.2249746 1.2949142 19.8961029 6.4690552 27.9868164-4.5264282-2.0266724-9.5437012-2.8013916-14.708252-2.2010498-.7382965.0859566-1.0398502 1.2687683-.2475567 1.5766602.9291973.3618164 1.772459 1.3642578 1.9194317 2.2827148.1073265.6687851-.0261765 1.1670189-1.0112305 1.7841797-.6680984.4181404-.3142395 1.4272461.4677734 1.4272461.1674805 0 .3364258-.0561523.4760742-.1708984.0063477-.005249.012207-.010498.0185547-.0157471.1966743.0084496.2874794.0742683.4198608.1916504-.1001854.0849953-4.7370834 3.7662086-6.1386089 4.6497803.0019531-.0073242.003418-.0146484.0048828-.0219727.4555092-2.1145706.6217422-4.6644592-.56073-6.4733276-.277771-1.2988892-.4827881-2.585144-.6036987-3.7716064.0401344-.6395493-.6109276-.9634056-1.0914307-.7047729-.1321411.071228-.2714844.1261597-.4078979.1878662-3.3591919-3.4714966-4.6553955-8.8419189-3.2175903-13.4554443.0059814-.019104.0015259-.0380859.0059204-.057251.3263531-.1932155 8.919756-3.559621 18.2054425-13.2148439zm-22.4227886 15.6929942c.7119141-.6716309 1.5580444-1.1743164 2.4638062-1.6352539-.980957 4.5792847.3028564 9.6238403 3.3737793 13.1616211-1.427124.2530518-2.9308472.065918-4.232605-.5874023-4.1702347-2.0924798-4.999878-7.7334348-1.6049805-10.9389649zm1.0698242 30.5615234c.1796265-.0481567.4882202.1960449.850769.9579468-.0013428.1853638-.0056152.3742676-.0021362.553772.0279713 1.3788719 2.1277866.6225014 1.5206299-.821228.0432129-2.2277832.4215698-4.8400879 1.0999756-7.3384399.7906094-2.9103127 1.0819035-2.723896 1.3208008-6.5302734.0576172-.9174805 1.1762695-2.2304688 1.6494141-2.4013672.1933594.3012695.3652344.5581055.5170898.7851563 2.0385361 3.0456047.0607891 7.3101234.0410156 7.4101563-.1165543.581707.4490318 1.0660744 1.0048828.8549805 3.2031498-1.2618484 8.6367588-6.568634 10.229002-7.1860352.6003609-.1366997 1.2850952.2612572.9741211 1.1474609-.3139191.8986092-2.4514351 2.5624046-3.2070313 3.1391602-.3291016.2514648-.3925781.722168-.1411133 1.0512695s.7231445.3916016 1.0512695.1411133c.2921257-.2232666 1.0420036-.5192947 2.8602905-2.5488281.5953636.0851974.9438057.5503197.9946899.8710938.180645 1.1287308-.4479294 1.1819153-3.5874023 3.8989258-.5279732.4556046-.198288 1.3173828.4907227 1.3173828.380497 0 3.5991936-2.7872391 3.729126-2.9121094 1.6474648.2812157-.1987534 3.3540993-.5255127 3.6357422-.5526543.4759331-1.0406761 1.065052-1.6635742 1.5131836-.3364258.2421875-.4125977.7104492-.1708984 1.046875.242115.3365364.7113075.4123573 1.046875.1708984.3323975-.2389526.6144409-.4969482.8786621-.7498169.5770607-.1176529 1.5356293-.0483284 1.5402832.3845825.0364571 2.7848854-4.9572906 6.2150497-7.5195313 7.2929688-3.8164043 1.6064453-7.0610332 2.0981445-9.9145489 1.5048828-.9291019-.1924973-1.3414803 1.2103844-.2392578 1.5224609.4241905.1188812.2351189.9564285-.6069336 1.0522423-1.3174515.1405106-3.1645184-1.3958321-4.0200195-3.5209923-.8238125-2.0439301-.9217701-5.0241508-.7001953-5.6748047.0981446-.2885744.2988282-.5170901.4985352-.5683596z"></path><path d="m54.3319168 15.6763182 7.6948242-6.1352539c.3237305-.2583008.3769531-.7299805.1186523-1.0541992-.2573242-.3227539-.7299805-.3769531-1.0541992-.1186523l-7.6948242 6.1352539c-.3237305.2583008-.3769531.7299805-.1186523 1.0541992.2590485.3248777.7321281.3758563 1.0541992.1186523z"></path><path d="m55.7557449 21.1758308c.1140976.4050159.5331268.629076.925293.519043l7.1806641-2.0224609c.3984375-.1123047.6303711-.5263672.5180664-.925293-.1113281-.3989258-.5234375-.6303711-.925293-.5180664l-7.1796875 2.0214844c-.3989258.1123047-.6308594.5268554-.519043.9252929z"></path><path d="m57.9339676 27.3359871c-.4125977.0395508-.7148438.4057617-.675293.8178711.0390625.4121094.3979492.7138672.8178711.675293 2.2089844-.2119141 4.4316406-.0805664 6.6025391.3881836.3964844.0872974.8026352-.1637096.8911133-.574707.0874023-.4047852-.1699219-.8037109-.574707-.8911133-2.322754-.5019532-4.7006837-.6416016-7.0615235-.4155274z"></path></g></g></svg>