<svg xmlns="http://www.w3.org/2000/svg" id="Layer_1" height="512" viewBox="0 0 66 66" width="512"><g><g id="XMLID_1_"><path d="m54.27 37.52.61.6.57-.57-.61-.6zm-.26-1.41-.57.57.5.51.57-.57zm-1.37 2.38.97-.97-.51-.5-.97.97zm-.33.33-1.61-1.6c-.09-.09-.09-.24 0-.33.09-.1.24-.1.33 0l.77.77.97-.98-.06-.06c-.1-.09-.1-.24 0-.33.09-.1.23-.1.33 0l.06.06.59-.58c-.06-.09-.06-.21.02-.29s.19-.07.28-.02l.07-.06c.09-.09.24-.09.33 0s.09.24 0 .33l-.05.05.5.51.48-.48c.09-.09.24-.09.33 0s.09.24 0 .33l-.48.48.61.6.02-.02c.09-.09.24-.09.33 0s.09.24 0 .33l-.02.02.37.37c.09.09.09.24 0 .34-.09.09-.24.09-.33 0l-.37-.38-.57.58.14.14c.1.09.1.24 0 .33-.09.1-.24.1-.33 0l-.14-.13-.57.56c-.09.09-.24.09-.33 0-.1-.1-.1-.24 0-.34l.56-.56-.6-.61-.97.97 1.12 1.12c.09.09.09.24 0 .33-.09.1-.24.1-.33 0l-1.12-1.12-.61.61c-.09.09-.24.09-.33 0s-.09-.24 0-.33z"></path><path d="m47.8 15.29.52.53.86-.86-.53-.52zm.05-1.65-.85.85.47.47.85-.85zm-1.05 2.65.53.52.66-.66-.52-.52zm-.33-.33.67-.66-.47-.48-.69.7c.04.01.07.02.11.05zm-.72-.06c-.09-.09-.09-.24 0-.33-.04-.01-.07-.02-.11-.05-.09-.1-.09-.24 0-.34l.69-.69-.47-.47c-.09-.09-.09-.24 0-.33s.24-.09.33 0l.47.47.94-.94c.06-.05.13-.06.21-.05.08-.05.19-.05.26.03l.58.58.63-.63c.09-.1.24-.1.33 0 .1.09.1.24 0 .33l-.63.63.58.57c.06 0 .12.01.17.06s.07.11.07.18l.04.04c.09.09.09.24 0 .33-.09.1-.24.1-.33 0l-.86.86.3.3c.1.09.1.24 0 .33-.09.09-.23.09-.33 0l-.3-.3-.66.66.18.18c.09.09.09.24 0 .33s-.24.09-.33 0l-.18-.17-.14.13c-.09.1-.24.1-.33 0-.09-.09-.09-.24 0-.33l.14-.14-.53-.52-.71.72c-.1.09-.25.09-.34 0s-.09-.24 0-.33l.72-.72z"></path><path d="m37.33 52.67.43.43.35-.35-.43-.43zm-.65.65.43.43.32-.32-.43-.43zm-.8.47c-.09-.09-.09-.24 0-.33l.14-.14-.03-.02c-.09-.09-.09-.24 0-.33.09-.1.24-.1.33 0l.03.02.35-.36c-.01-.07-.01-.15.05-.21s.14-.06.22-.05l.43-.43c-.01-.06.01-.12.06-.17s.11-.07.17-.07l.41-.4c.09-.09.24-.09.33 0s.09.24 0 .33l-.36.36.43.43.22-.22c.09-.09.24-.09.33 0s.09.24 0 .33l-.22.22.31.31c.09.09.09.23 0 .33-.09.09-.24.09-.33 0l-.31-.31-.35.35.51.51c.09.09.09.24 0 .33s-.24.09-.33 0l-.51-.51-.32.32.49.5c.1.09.1.24 0 .33-.09.09-.24.09-.33 0l-.49-.49-.68.67c-.09.1-.24.1-.33 0-.09-.09-.09-.24 0-.33l.68-.68-.43-.43-.14.14c-.09.09-.24.09-.33 0z"></path><path d="m21.03 10.07.88.88 1.33-1.33-.88-.88zm-2.55.87.51.51 1.38-1.38-.52-.51zm-1.29-.63c-.09-.09-.09-.24 0-.33.09-.1.24-.1.33 0l.63.63 1.37-1.38-.14-.15c-.1-.09-.1-.24 0-.33.09-.09.24-.09.33 0l.14.15.74-.74c.09-.09.24-.09.33 0s.09.24 0 .33l-.74.74.52.51 1.33-1.33-.9-.9c-.1-.1-.1-.24 0-.34.09-.09.23-.09.33 0l.9.91.19-.2c.09-.09.24-.09.33 0 .1.1.1.24 0 .34l-.19.19.93.93c.06 0 .12.02.16.07.04.04.06.09.06.15l.97.97c.09.09.09.24 0 .33s-.24.09-.33 0l-.91-.91-1.34 1.33.5.5c.1.09.1.24 0 .33-.09.09-.24.09-.33 0l-.5-.5-.94.94c-.09.09-.24.09-.33 0s-.09-.24 0-.33l.94-.94-.87-.88-1.38 1.38 1.54 1.54c.09.09.09.24 0 .33-.09.1-.24.1-.33 0l-1.54-1.54-.78.78c-.09.09-.24.09-.33 0s-.09-.24 0-.33l.78-.78-.51-.51-.95.94c-.09.1-.24.1-.33 0-.09-.09-.09-.24 0-.33l.95-.94z"></path><path d="m14.18 45.74.83.84.61-.61-.84-.83zm-.33.33-.58.57.84.84.57-.57zm-.8-1.27c.08-.03.16-.02.23.04l.57.57.6-.61-.71-.7zm-.78.84.67.67.57-.57-.57-.57c-.06-.06-.06-.15-.04-.23l-.68.68c.02.01.04.01.05.02zm-1.26.87c-.1-.1-.1-.24 0-.34l2.43-2.43c-.03-.08-.03-.17.04-.24.06-.06.16-.07.24-.04l.82-.82c.09-.09.24-.09.33 0 .1.09.1.24 0 .33l-.79.8.7.7.65-.64c.09-.09.23-.09.33 0 .09.09.09.24 0 .33l-.65.64.84.84.74-.74c.09-.09.24-.09.33 0 .09.1.09.24 0 .34l-.74.73.05.06c.09.09.09.23 0 .33-.09.09-.24.09-.33 0l-.05-.06-.6.61.3.3c.09.09.09.24 0 .33s-.24.09-.33 0l-.31-.3-.57.57.28.28c.1.09.1.24 0 .33-.09.09-.24.09-.33 0l-.28-.28-.17.17c-.09.09-.24.09-.33 0s-.09-.24 0-.33l.17-.17-.84-.84-1.4 1.41c-.09.09-.24.09-.33 0-.1-.09-.1-.24 0-.33l1.4-1.41-.67-.67c-.01-.01-.01-.03-.02-.05l-.58.59c-.09.09-.24.09-.33 0z"></path><path d="m64.03 40.75c-.01-.23-.02-.46-.04-.68l-.32.32zm-2.5 4.24 1.52-1.52-.66-.66-1.52 1.52zm0 .66-1.23 1.23.83.84c1.24-1.1 2.13-2.56 2.58-4.16.21-.72.32-1.46.34-2.21-.05-.01-.1-.02-.13-.06l-.58-.58-1.07 1.07c-.05.05-.11.07-.17.07l.33.33c.07-.01.15-.01.21.05s.07.14.05.22l.94.94c.05.05.07.11.07.17s-.02.12-.07.16c-.09.09-.14.07-.22.05l-1.55 1.55.41.41c.09.09.09.24 0 .33s-.24.09-.33 0zm-1.57.9 1.24-1.23-.66-.65-1.23 1.23zm-.82-3.28-1.23 1.23 1.07 1.07 1.23-1.24zm-.16 2.96-1.27 1.27.65.65c.09-.09.24-.09.33 0 .1.09.1.24 0 .34l-.98.98c1.04-.25 2.05-.66 2.91-1.3.06-.04.1-.1.16-.14l-.81-.81-.33.32c-.09.09-.24.09-.33 0-.1-.09-.1-.24 0-.33l.32-.33zm-2.67-.13 1.06 1.07 1.28-1.27-1.07-1.07zm-.55 2.85-.73.73c.62.05 1.24.04 1.85-.04l1.15-1.15-.67-.68c-.09.05-.18.08-.28-.02-.07-.08-.07-.18-.02-.27l-1.09-1.09-1.06 1.07.82.82.56-.56c.09-.09.24-.09.33 0s.09.24 0 .33l-.59.59c.02.08.01.16-.05.23-.09.08-.14.06-.22.04zm-.22-30.59-.79.79.93.93c.01.01.01.03.02.05.13-.62.17-1.26.14-1.89-.01.03-.01.07-.04.09-.1.1-.17.07-.26.03zm-.56-1.31c-.04.04-.09.05-.14.05.04.01.08.02.11.05l.57.57.12-.12c.03-.03.08-.04.13-.05-.06-.35-.14-.7-.24-1.05zm-1.45 3.33.73.73.51-.51c.09-.09.24-.09.33 0 .09.1.09.24 0 .34l-.51.5.46.46c.06-.12.13-.23.19-.34.16-.36.29-.74.38-1.13-.09.05-.18.07-.27-.02l-.93-.93zm.27 26.01.78.78 1.06-1.07-.78-.78zm-.65-23.5.67.66c.37-.37.71-.78 1-1.23-.01 0-.01 0-.02 0l-.54-.55zm-.59 24.73.78.78.9-.9-.77-.78zm-.33.34-.65.65c.86.51 1.83.86 2.84 1.02l.98-.98-.83-.82-.94.95c0 .06-.01.13-.06.18-.09.09-.24.09-.33 0zm.08-2.39-.9.9.82.82.9-.9zm-1.23 1.23-.82.82c.22.22.46.44.72.63.06.04.13.07.18.11l.74-.74zm.15-22-.63.63c1.06-.29 2.05-.82 2.88-1.55l-.66-.66-1.26 1.25.16.16c.09.09.09.24 0 .33s-.24.09-.33 0zm.27-2.9-1.25 1.25.98.99 1.26-1.25zm-1.58 1.59-.74.73.99.98.73-.73zm-2.01 14.92c-.47 2.71-.16 6.45 2.02 8.88l.82-.82-.25-.25c-.09-.09-.09-.24 0-.33.1-.09.24-.09.34 0l.24.25.9-.9c-.09-.1-.09-.24.01-.34.09-.09.23-.09.33 0l.93-.93c.09-.09.23-.09.33 0 .09.09.09.24 0 .34l-.93.93.82.82 1.06-1.07-.57-.58c-.09-.09-.09-.24 0-.33s.24-.09.33 0l.57.58.96-.95c.09-.1.24-.1.33 0 .09.09.09.23 0 .33l-.95.95.77.78 1.28-1.28-.91-.9c-.09-.09-.09-.24 0-.33s.24-.09.33 0l.91.9 1.23-1.23c-.09-.09-.09-.24 0-.33s.24-.09.33 0l1.4 1.4 1.52-1.52-.78-.78c-.09-.09-.09-.24 0-.33s.24-.09.33 0l.27.26c-.01-.06.01-.13.06-.18l1.07-1.07-.83-.82c-.09-.09-.09-.24 0-.33.1-.09.24-.09.34 0l.82.82.41-.42c.04-.03.09-.05.15-.05-.04-.21-.07-.43-.12-.63-1.13-4.23-5.85-7.76-10.9-5.87-.94.54-4.35 1.72-4.97 5.33zm.8-16.13-.74.73.88.88.73-.73zm.14 2.27-.9.9c.02.06.02.12 0 .18.29.04.59.06.88.06h.08c.29 0 .59-.03.89-.08.01-.02.01-.04.02-.06l.02-.02zm-1.21-1.21-.87.88.87.88.88-.88zm-.29 2.13-.92-.92-.48.49c.44.2.91.35 1.39.46 0-.01.01-.02.01-.03zm-3.84 29.11 1.2 1.2c.03.02.03.06.04.09 0-.04 0-.07 0-.11-.06-.66-.26-1.3-.55-1.91-.01.02-.01.05-.03.06zm-1.03-38.98c-1.55 3.24-.52 7.27 3.04 9.2l.59-.59-.86-.86c-.1-.09-.1-.24 0-.33.09-.09.23-.09.33 0l.86.86.88-.87-.34-.34c-.1-.09-.09-.24 0-.33s.24-.09.33 0l.34.34.76-.77c-.02-.08-.02-.16.04-.22.07-.06.15-.07.23-.05l.14-.14c.09-.09.24-.09.33 0s.09.24 0 .33l-.11.11.88.88 1.25-1.25-.66-.67c-.09-.09-.09-.24 0-.33s.24-.09.33 0l.66.66.22-.22c.09-.09.24-.09.34 0 .09.09.09.24 0 .33l-.23.23.99.98 1.11-1.11-.73-.73-.16.16c-.09.09-.24.09-.33 0s-.09-.24 0-.33l.16-.16-.13-.13c-.09-.09-.09-.23 0-.33.09-.09.24-.09.33 0l.13.13.89-.9-.08-.09c-.1-.09-.1-.23 0-.33.09-.09.23-.09.33 0l.08.09.77-.77-.57-.57c-.09-.09-.09-.24 0-.33.04-.04.09-.06.14-.06-.04-.01-.08-.02-.11-.04-.09-.1-.09-.24 0-.33l.71-.71c-.01-.01-.01-.02-.02-.03-.96-2.38-3.33-4.14-5.88-4.39-2.8-.28-5.45 1.11-6.84 3.72-.01.11-.06.22-.14.29zm-1.2 42.41-1.1 1.11.84.83 1.1-1.1zm-1.76-20.31-.23.22.48.48c-.03-.29-.09-.59-.18-.87 0 .06-.03.12-.07.17zm-.62 3.17-.57.57.45.45c.17-.21.33-.44.46-.68zm-.88-6.63c.81.44 1.46 1.03 1.91 1.76.49.78.75 1.7.8 2.63l6.09 1.05c.24-3.64 2.24-5.97 5.33-7.3-.16-2.06-.59-4.09-1.28-6.05-.63.18-1.29.29-1.95.3-.03 0-.06 0-.09 0-1.88 0-3.71-.71-5.14-1.9-.01.07-.03.13-.06.19zm.54 23.92-.93.93.96.96.93-.93zm-.74-18.37-.57.57.75.75.57-.57zm-.52 19.63-.66.67.95.96c.01 0 .01 0 .01-.01l.66-.66zm-.6-14.92c.86 1.6 1.52 3.31 1.94 5.08 1.77-.09 3.47.49 4.87 1.79 1.66-1.52 3.25-3.16 4.7-4.89-1.02-1.79-1.42-3.9-1.42-5.86l-6.09-1.04c-.08.69-.27 1.37-.59 2-.7 1.35-1.95 2.4-3.41 2.92zm.22-3.81-.68.68.75.75.68-.68zm-.61 19.73-.66.66c1.64 1.06 3.81 1.31 5.6.53.17-.07.33-.17.5-.26l-.73-.74-.71.71c-.09.1-.24.1-.33 0-.09-.09-.09-.24 0-.33l.71-.71-.84-.83-.93.93.76.76c.09.09.09.24 0 .33s-.24.09-.33 0l-.76-.76-.66.66c-.09.09-.22.1-.32.01-.01 0-.01 0-.01.01-.09.09-.24.09-.33 0zm-2.44-19.07.86.86.85-.84-.87-.87zm-.57-28.32c-.01-.03-.01-.07-.02-.11l-.05.05zm.55 40.55c-1 1.75-1.34 4.4.71 6.61.21.23.44.44.69.63l.73-.73-1-1c-.1-.09-.1-.24 0-.33.09-.09.23-.09.33 0l1 1 .66-.67-.83-.83c-.09-.09-.09-.24 0-.33s.24-.09.33 0l.83.83.93-.93-.63-.64c-.09-.09-.09-.23 0-.33.09-.09.24-.09.33 0l.63.64.42-.42c.09-.09.24-.09.33 0 .1.09.1.24 0 .33l-.41.42.95.96 1.1-1.11-.73-.73c-.09-.09-.09-.24 0-.33s.24-.09.33 0l.73.73.3-.29c.09-.09.24-.09.33 0s.09.24 0 .33l-.29.29.83.84.54-.54c.09-.09.24-.09.33 0s.09.24 0 .33l-.54.54.45.45c.09.09.09.24 0 .33s-.24.09-.33 0l-.45-.45-1.1 1.1.81.82c1.64-1.13 2.67-3.09 2.59-5.08-.01.03-.01.06-.04.09-.09.09-.23.09-.33 0l-.3-.31-.62.62.84.83c.09.09.09.24 0 .33-.09.1-.24.1-.33 0l-.84-.83-.54.54c-.09.09-.24.09-.33 0s-.09-.24 0-.33l.54-.54-.68-.68c-.1-.1-.1-.24 0-.34.09-.09.24-.09.33 0l.68.69.62-.62-.57-.56c-.05.05-.11.07-.17.07s-.12-.02-.16-.07c-.05-.05-.07-.11-.07-.17s.02-.12.07-.16l-.3-.3c-.09-.09-.09-.24 0-.33s.24-.09.33 0l.3.29.66-.66c.05-.05.11-.07.18-.06-.81-1.42-2.18-2.53-3.75-2.87-2.55-.56-5.08.58-6.42 2.93zm-.48-37.47-1.08 1.08.62.63c.03.03.04.08.05.12.19-.6.33-1.21.41-1.83zm-4.07 5.31 1.85-1.86-.87-.87-1.86 1.86zm5.43 21.46-.66.66c-.04.04-.1.07-.16.07s-.12-.03-.17-.07c-.09-.09-.09-.24 0-.33l.66-.67-.87-.86-.77.77.66.66c.1.09.1.24 0 .33-.04.05-.1.07-.16.07s-.12-.02-.17-.07l-.66-.66-.42.42c1.02.58 2.23.85 3.4.67 1.18-.18 2.27-.77 3.07-1.62l-.48-.48-.67.68.01.01c.09.09.09.24 0 .33-.05.05-.11.07-.17.07s-.12-.02-.16-.07l-.01-.01-.09.09c-.05.04-.11.07-.17.07s-.12-.03-.17-.07c-.09-.09-.09-.24 0-.33l.09-.09-.75-.75-.84.84.42.43c.09.09.09.24 0 .33-.04.05-.1.07-.16.07s-.12-.02-.17-.07zm.76-8.49c-5.12-.67-7.09 3.95-5.39 6.96.36.64.88 1.18 1.49 1.6l.51-.5-.76-.76c-.09-.09-.09-.24 0-.33s.24-.09.33 0l.76.76.77-.77-.36-.37c-.1-.09-.1-.24 0-.33.09-.09.24-.09.33 0l.36.36.85-.84-.01-.01c-.09-.1-.09-.24 0-.34.09-.09.24-.09.33 0l.17.18h.01s0 0 0 .01l1.03 1.03.68-.68-1.21-1.2c-.09-.1-.09-.24 0-.34.1-.09.24-.09.34 0l1.2 1.21.57-.57-.96-.96c-.09-.09-.09-.24 0-.33s.24-.09.33 0l2.04 2.04.37-.37c.09-.09.24-.09.33 0s.09.24 0 .33l-.37.37.22.22c.21-.54.33-1.1.35-1.67l-.84-.83-.76.75c-.05.05-.11.07-.17.07s-.12-.02-.16-.07c-.09-.09-.09-.23 0-.33l.76-.76-.33-.32c-.09-.09-.09-.24 0-.33s.24-.09.33 0l.33.32.23-.22c.09-.1.24-.1.33 0 .02.02.04.05.05.08-.11-.33-.25-.66-.44-.96-.69-1.12-2.02-1.89-3.64-2.1zm-7.35-9.16c1.62 2.84 3.37 5.61 5.08 8.31 1.31-.26 2.66-.17 3.95.3l5.66-9.41c.07-.12.19-.19.32-.21-.61-.62-1.14-1.32-1.52-2.11-.98-2.04-1.04-4.31-.24-6.35l-7.05.17c-.41 3.84-2.83 7.43-6.2 9.3zm.01-1.08c.65-.4 1.25-.88 1.8-1.41l-.65-.65-1.57 1.56.36.35c.04.04.06.1.06.15zm-.75-.84 1.56-1.56-.87-.87-1.56 1.56zm-.55-3.67-1.56 1.56.91.91 1.56-1.56zm2.65 22.5c-1.42 1.22-3.06 2.19-4.81 2.86 1.03 1.68 1.6 3.65 1.5 5.65-.02.53-.1 1.06-.21 1.57 2.21.7 4.5 1.17 6.82 1.39 1.04-2.18 2.94-3.51 4.9-3.91-.42-1.73-1.07-3.39-1.93-4.95-.07.01-.15.04-.22.05-.3.04-.6.06-.9.06-2.05 0-4.04-1.04-5.15-2.72zm-5.19-19.95.91.91.65-.66-.91-.9zm-1.54-.87-1.38 1.38.87.87 1.38-1.38zm-.51 2.91-1.29 1.3c2.15.35 4.24.11 6.2-.84.07-.07.12-.11.26-.13.13-.07.25-.14.37-.21-.01-.01-.03-.01-.04-.02l-.36-.35-.23.23c-.1.09-.24.09-.34 0-.09-.09-.09-.24 0-.33l.24-.24-.87-.87-.65.66.19.2c.1.09.1.23 0 .33-.09.09-.23.09-.33 0l-.2-.2-.6.6c-.09.09-.23.09-.33 0-.09-.09-.09-.24 0-.33l.6-.6-.9-.91-1.39 1.38.57.57c.09.09.09.23 0 .33-.09.09-.24.09-.33 0zm-.88 29.55-1.48 1.47 1.05 1.05 1.47-1.48zm-.32-30.75-.94.94.73.73c.07.07.07.16.04.24l1.04-1.04zm-2.37-.48 1.09 1.09.95-.94-1.11-1.11c-.01.02-.01.05-.03.06zm.39 2.46c-.02.02-.04.02-.06.03.46.16.92.29 1.39.39.01-.01.01-.01.01-.02l.34-.33c-.03 0-.05.03-.08.03-.15 0-.76-.67-.89-.8zm-1.81-.75-.06-.05v.02c.02.01.04.02.06.03zm.47-.18c.09.09.09.24 0 .33-.03.03-.07.03-.1.04.35.17.7.33 1.07.47-.03-.08-.03-.17.04-.24l.7-.71-1.09-1.09-.9.91zm.55 30.22-1.51 1.51.95.95 1.51-1.51zm-4.97-22.48c0-.03 0-.06 0-.09l-.04.04zm1.55 22.74-1.44 1.45 1.25 1.24 1.44-1.44zm-2.07-25.01c-.07-.15-.16-.29-.24-.43l-.09.1zm.32-1.3c.42.6.74 1.26.94 1.97.31 1.14.26 2.33-.04 3.46.14.03 14.97 2.83 15.11 2.88.65-1.39 1.69-2.26 3.14-2.76-1.67-2.64-3.38-5.36-4.97-8.15-3.53 1.6-7.54 1.13-10.79-.77-.47.33-2.95 2.92-3.39 3.37zm-.39-18.05c-1.95 4.55-1.09 10.44 3.8 13.61.02 0 .03-.02.06-.02.06-.03.12-.04.18-.04l-.71-.71c-.1-.09-.1-.24 0-.33.09-.09.23-.09.33 0l.74.75.91-.91-.31-.31c-.09-.09-.09-.24 0-.33s.24-.09.33 0l.31.31.9-.9c.07-.07.16-.07.24-.04.01-.03.01-.07.04-.1.09-.09.24-.09.33 0l1.19 1.18 1.38-1.38-.64-.63c-.09-.09-.09-.24 0-.33.09-.1.24-.1.33 0l.64.63.46-.46c.09-.09.24-.09.33 0s.09.24 0 .33l-.46.46.87.87.65-.65-1.51-1.51c-.09-.09-.09-.24 0-.33s.24-.09.33 0l1.51 1.51 1.57-1.56-.93-.93c-.09-.09-.09-.24 0-.33s.24-.09.33 0l.93.93.9-.91c.09-.09.24-.09.33 0 .09.1.09.24 0 .34l-.9.9.91.91 1.85-1.86-1.51-1.51c-.09-.09-.09-.24 0-.33s.24-.09.33 0l1.51 1.51.17-.17c.09-.09.24-.09.33 0 .09.1.09.24 0 .34l-.17.16.9.89c.08-.04.18-.04.25.03.09.09.09.22.01.31.02.08.01.16-.05.21-.07.08-.12.07-.2.06l-1.89 1.89.66.66c1.16-1.21 2.07-2.67 2.61-4.25-.11.09-.24.07-.32-.01l-.62-.62-.35.34c-.09.09-.24.09-.33 0s-.09-.24 0-.33l.35-.35-.66-.65-.67.68c-.09.09-.24.09-.33 0-.09-.1-.09-.24 0-.34l.67-.67-.31-.31c-.09-.09-.09-.24 0-.33.1-.09.24-.09.34 0l.3.31.98-.98-.3-.31c-.1-.09-.1-.24 0-.33.09-.09.23-.09.33 0l.3.31.06-.06c.09-.09.24-.09.33 0s.09.24 0 .33l-.05.06.35.35c.09.09.09.24 0 .33-.09.1-.24.1-.33 0l-.36-.35-.98.98.65.65 1.09-1.08c.09-.09.24-.09.33 0 .02.02.02.04.03.07.01-.05.02-.1.02-.16-.03-.06-.05-.12-.05-.2-.01-.1.03-.18.08-.26.01-.17.02-.34.02-.51-.01-.42-.05-.83-.11-1.24-.11.08-.21.06-.29-.02l-.17-.16-.34.34c-.09.1-.24.1-.33 0-.09-.09-.09-.24 0-.33l.34-.34-.71-.71c-.09-.09-.09-.24 0-.33s.24-.09.33 0l.71.71.25-.25c-1.71-6.86-9.2-10.29-14.54-7.43-3.17 1.71-5.09 3.42-5.88 5.24zm-1.25 47.76c.77.47 1.61.84 2.49 1.05 2.46.61 5.2.22 7.52-1.51l-.54-.54-.59.59c-.09.09-.24.09-.33 0-.1-.09-.1-.24 0-.33l.59-.59-1.05-1.05-1.51 1.51.79.79c.09.09.09.24 0 .33s-.24.09-.33 0l-.79-.79-.92.92c-.09.09-.24.09-.33 0s-.09-.24 0-.33l.92-.92-.95-.95-1.44 1.44.74.74c.09.09.09.24 0 .33-.1.09-.24.09-.34 0l-.73-.73-.36.35c-.1.09-.24.09-.34 0-.09-.09-.09-.24 0-.33l.36-.36-1.24-1.24-.49.49.93.93c.09.09.09.24 0 .33s-.24.09-.33 0l-.93-.93zm-.47-25.6 1.85 1.85c.26-.62.43-1.28.47-1.95-.03.02-.06.04-.09.04-.06 0-.12-.02-.17-.07l-.12-.12-.52.51c-.09.09-.24.09-.33 0s-.09-.24 0-.33l.52-.52-.52-.51zm-.54 5.66c.25 1.02.72 2.01 1.37 2.84.07.09.1.2.09.31 4.19-2.05 9.21-1.01 12.22 3.04 1.79-.66 3.48-1.65 4.9-2.91-.53-1.22-.6-2.6-.25-3.86l-15.09-2.86c-.63 1.49-1.72 2.73-3.24 3.44zm.2-3.51.48.48.47-.47c.09-.09.24-.09.33 0s.09.24 0 .33l-.47.47.43.43c.3-.35.55-.72.76-1.12-.03-.01-.06-.01-.09-.04l-1-1c0 .01 0 .01-.01.02zm-.4 2.02.33.34c.06-.03.12-.05.17-.09.3-.2.57-.43.83-.68l-.45-.45zm.07-1.69-.88.88.47.48.89-.88zm-2.28 2.29-.55.54c-.01.01-.03.01-.05.02.94.02 1.87-.17 2.71-.58l-.24-.25-.03.03c-.09.1-.24.1-.33 0-.09-.09-.09-.24 0-.33l.03-.03-.48-.47-.73.73.13.13c.09.09.09.24 0 .33-.1.09-.24.09-.34 0zm1.4 7.03c-3.83 4.2-3.04 10.41 1.6 13.55l.89-.88-1.05-1.05c-.09-.09-.09-.24 0-.33s.24-.09.33 0l1.05 1.05.49-.49-.89-.89c-.09-.09-.09-.24 0-.33s.24-.09.33 0l.89.89 1.44-1.45-.42-.42c-.1-.09-.09-.24 0-.33s.24-.09.33 0l.42.42.93-.92c.09-.1.24-.1.33 0 .09.09.09.23 0 .33l-.93.92 1.25 1.25 1.51-1.51-1.74-1.74c-.09-.09-.09-.24 0-.33s.24-.09.33 0l1.74 1.74 1.15-1.15c.09-.1.24-.09.33 0s.09.24 0 .33l-1.15 1.15.95.95 1.48-1.48-.36-.36-.13.13c-.09.1-.24.1-.33 0-.09-.09-.09-.23 0-.33l.13-.13-.72-.72c-.1-.09-.09-.24 0-.33s.24-.09.33 0l.72.72.85-.85c.09-.09.24-.09.33 0s.09.24 0 .33l-.85.85.36.36 1.44-1.44c.03-.03.06-.03.09-.04l-.74-.74-.23.22c-.09.1-.24.1-.33 0-.1-.09-.1-.24 0-.33l.22-.23-.22-.22c-.1-.09-.09-.24 0-.33.09-.1.24-.1.33 0l.23.22 1.01-1.01-.85-.85c-.09-.1-.09-.24 0-.34.09-.09.24-.09.33 0l.85.86.24-.24c.09-.09.24-.09.33 0s.09.24 0 .33l-.24.24.86.85c.09.09.09.24 0 .33-.1.09-.24.09-.34 0l-.85-.85-1.01 1.01 1.77 1.78c.1.09.1.24 0 .33-.04.05-.1.07-.16.07s-.12-.02-.17-.07l-.75-.75c-.01.03-.01.07-.04.09l-1.44 1.44 1.05 1.05 1.22-1.22c.09-.1.24-.1.33 0 .09.09.09.24 0 .33l-1.25 1.25c.03.08.03.17-.04.24-.04.05-.11.07-.17.07-.02 0-.04-.02-.07-.03l-1.5 1.5.58.58c1.47-1.22 2.58-2.89 3.09-4.74 0-.02 0-.05.01-.08 0-.01.01-.02.02-.04.15-.57.25-1.15.28-1.75.07-1.53-.29-3.04-.96-4.39-.01.02-.01.05-.04.08l-.59.59.86.85c.09.09.09.24 0 .33s-.24.09-.33 0l-.86-.85-.29.29c-.09.09-.24.09-.33 0s-.09-.24 0-.33l.31-.31c-.06-.09-.06-.2.02-.28.07-.08.19-.08.28-.02l.6-.6c.06-.06.13-.07.2-.06-.16-.3-.34-.6-.54-.88-.02-.03-.05-.05-.06-.09v-.01c-1.15-1.61-2.8-2.87-4.72-3.46-3.31-1.01-6.9.01-9.35 2.7zm-2.72-9.02 1.32 1.32.73-.74-1.32-1.32zm-.82 2.12-.65-.65-.41.41c.72.38 1.51.59 2.32.65-.09-.09-.09-.24 0-.33l.54-.55-1.32-1.32-.8.81.65.65c.1.09.1.24 0 .33-.09.09-.24.09-.33 0zm-2.47-.04c-2.26-1.8-3.04-4.76-1.99-7.56 1.83-4.85 7.71-5.8 11.07-2.15.38-.38 2.74-2.82 3.13-3.16-4.97-3.48-5.87-9.67-3.79-14.52.87-2.02 2.93-3.89 6.29-5.69 6.99-3.75 16.16 2.26 16.24 10.57 0 .1-.01.19-.01.29l7.44-.19c1.64-3 4.66-4.45 7.72-4.16 2.81.28 5.41 2.18 6.56 4.76.04.01.09.02.13.05.07.08.07.2.01.29.77 1.97.71 4.27-.16 6.19-.85 1.88-2.45 3.33-4.34 4.09.69 1.94 1.13 3.96 1.31 6.01 5.32-1.7 10.39 2.03 11.62 6.66 1.01 3.75-.44 7.96-3.5 10.22-1.59 1.18-3.53 1.76-5.47 1.76-1.88 0-3.75-.56-5.28-1.68-.67-.48-1.22-1.06-1.69-1.69-1.42 1.67-2.96 3.26-4.58 4.74.84 1.03 1.41 2.29 1.52 3.63.25 2.81-1.46 5.67-4.06 6.79-2.58 1.12-5.84.42-7.75-1.64-1.65-1.79-2.14-4.11-1.43-6.32-2.28-.24-4.52-.7-6.7-1.38-1.57 4.82-6.61 8.12-11.99 6.79-7.09-1.73-10.38-10.48-4.98-16.39.73-.81 1.57-1.47 2.46-1.99-.05-.03-.09-.06-.13-.1-.71-.91-1.22-1.98-1.51-3.1-2.2.66-4.53.16-6.14-1.12zm-1.11-7.23c-.91 2.41-.24 4.96 1.69 6.49.14.11.28.19.42.28l.49-.49-.68-.67c-.09-.09-.09-.24 0-.33.09-.1.24-.1.33 0l.68.67.8-.8-.32-.32c-.09-.09-.09-.24 0-.33s.24-.09.33 0l.32.32.78-.78c0-.07.01-.14.06-.19s.12-.06.19-.06l.53-.52c.09-.1.24-.1.33 0 .09.09.09.23 0 .33l-.49.48 1.32 1.32.89-.88-1.33-1.33c-.09-.09-.09-.24 0-.33s.24-.09.33 0l1.33 1.33.9-.9.01-.01-.57-.58c-.1.09-.24.08-.33-.01s-.09-.23 0-.32l-.39-.39c-.09-.09-.09-.24 0-.33s.24-.09.33 0l.39.39 1.09-1.1-.12-.12c-.1-.1-.1-.24 0-.34.09-.09.24-.09.33 0l.12.13.37-.37c.22-.22.55.12.33.33l-.36.37.51.51.21-.21c.03-.03.08-.04.12-.05-.03-.24-.06-.48-.13-.71-.04-.15-.1-.28-.15-.42 0 .01 0 .01-.01.01-.09.1-.24.1-.33 0l-.52-.52-.16.16c-.09.09-.24.09-.33 0s-.09-.24 0-.33l.17-.17c-.05-.09-.05-.2.02-.28.08-.08.19-.08.28-.02l.18-.18c-.5-.71-1.17-1.31-1.92-1.74-.76-.43-1.6-.7-2.48-.74-2.55-.12-4.68 1.42-5.56 3.75z"></path></g></g></svg>