<svg xmlns="http://www.w3.org/2000/svg" id="Layer_1" height="512" viewBox="0 0 73 73" width="512"><g id="_x38_0"><path d="m45.8302803 21.345993c.3657227.1953125.8198242.0537109 1.0131836-.3134766.1928711-.3662109.0527344-.8203125-.3139648-1.0126953-1.4501953-.7666016-3.3505859-.4833984-4.5214844.6689453-1.1660156 1.1474609-1.4912109 3.0507813-.7734375 4.5253906.1298828.2666016.3969727.421875.6748047.421875.5520058 0 .9163322-.5800438.6738281-1.078125-.4370117-.8984375-.2319336-2.1025391.4770508-2.8007813.7070312-.6943358 1.8979492-.8691405 2.7700195-.4111327z"></path><path d="m49.0817451 37.0364227c-.2875977-.296875-.762207-.3046875-1.0605469-.0195313-.7972107.7704239-3.1208878.6355057-3.2758789-.1318359-.4783134-2.3634224 1.3570099-4.5902977 3.7910156-4.5097656.4101563.0439453.7626953-.3056641.7792969-.71875.0166016-.4140625-.3056641-.7636719-.7197266-.7792969-3.3827095-.1268272-5.9952049 2.9673042-5.3212891 6.3046875.4473305 2.2062721 4.2954865 2.3539772 5.7875977.9150391.2983399-.2880859.3066407-.7626953.0195313-1.0605469z"></path><path d="m47.0226631 53.6565399c-.0917969.4042969.1616211.8056641.5654297.8974609.4018974.0908623.8051758-.159832.8974609-.5654297.2666016-1.1757813 1.5683594-2.0429688 2.7504883-1.8339844.4033203.0751953.7978516-.1943359.8735352-.6015625.309391-1.6864928-4.3430977-1.1728934-5.0869141 2.1035157z"></path><path d="m26.1847725 22.3176727c.9516602-.2578125 2.0761719.1787109 2.6152344 1.0126953.5415039.8378906.4819336 2.0585938-.1391602 2.8388672-.2578125.3232422-.2041016.7958984.1196289 1.0537109.3253994.2575588.7958908.2044678 1.0541992-.1201172 1.0200195-1.28125 1.1147461-3.2099609.2250977-4.5869141-.8920898-1.3808594-2.6879883-2.0712891-4.265625-1.6474609-.3999023.1083984-.6367188.5195313-.5288086.9199219.1074219.3994141.5180664.6357422.9194336.5292969z"></path><path d="m25.2526436 38.3313446c1.3875523-3.1259079-.5190468-6.7166862-3.8251953-7.3232422-.4067383-.078125-.7983398.1943359-.8735352.6015625-.074707.4072266.1948242.7988281.6020508.8730469 1.0976563.2021484 2.1025391.9472656 2.6230469 1.9453125.5214844 1 .5605469 2.2617188.1025391 3.2939453-.3175316.7147675-2.6129379.3291359-3.2236328-.5966797-.2290039-.3476563-.6958008-.4414063-1.0390625-.2128906-.3457031.2285156-.440918.6933594-.2128906 1.0390625 1.1496104 1.7419777 4.9317645 2.4370575 5.8466796.3798828z"></path><path d="m25.2628975 47.1213837c-.3867188.1484375-.5810547.5820313-.4331055.96875.1479492.3876953.5800781.5810547.9682617.4335938 2.1692829-.8306046 4.4303684 1.1286812 3.925293 3.4394531-.1027699.4675484.2546234.9101563.7329102.9101563.3447266 0 .6552734-.2392578.7319336-.5898438.347168-1.5839844-.215332-3.2939453-1.4321289-4.3554688-1.2197266-1.0664063-2.9833985-1.3798828-4.4931641-.8066406z"></path><path d="m57.1371651 14.1665487c-1.5995827-1.939105-4.1903763-2.6732063-6.4763794-2.2683105-.0548096-1.626709-.7221069-3.2637329-1.9852905-4.2861328-.8726196-.7062378-2.6011353-1.1809692-4.0580444-.9958496-3.6736145-.2786908-6.6603851 2.0052299-8.3873291 5.3046875-2.8970871-5.9812527-12.3583126-7.079978-13.4213257.3520508-2.3380737-.7745972-5.0598755-.2387695-6.8920898 1.4411621-1.9431152 1.7815552-2.4047241 4.9718027-1.8121338 7.3897104-2.6690435-.6783638-5.4169331.8836098-6.4940186 3.3007202-1.0996161 2.4690685-.4782763 5.9143391 2.3175659 7.8265381-3.6790214 3.6181145-3.1465983 10.1915207 2.0872192 12.6843872-.0440674.0578613-.0891113.1155396-.1157227.1873169-2.0436678 5.5240746.397934 10.1407852 4.1211548 11.180603 1.2234497 1.826355 1.2496948 4.3563843 2.8075562 6.2332764 1.2501831 1.5062256 3.1777954 2.5397949 5.104187 2.4703979.3237305.8994751.9314575 1.6802979 1.7178955 2.2597656 2.7477512 2.9467621 9.8694534.7394562 9.571106-4.1018066.0407715-.123291.0785522-.2481079.1166992-.3739624.7504883 1.5667725 1.6659546 3.0665894 2.9561157 4.2197876 1.4903564 1.3320923 3.5373535 2.1564941 5.5046387 1.8022461s3.7166138-2.0842896 3.7210693-4.0831909c3.5043335-.4786377 6.5032959-3.7665405 6.5679932-7.3027954 2.6538696-.1219482 5.0558472-1.9885864 6.1735229-4.3986816 1.1176758-2.4101563 1.0531006-5.2608643.194397-7.7749023 4.6928139-2.0225906 6.1173515-8.0415306 2.8314819-11.953186 2.6517448-1.7492809 3.7683983-5.9759026 1.0335121-9.222229-1.0713921-1.8646793-3.1146698-3.0087719-5.1284218-2.9393311.3814698-1.5739137-.7950401-6.1552058-2.0553588-6.9522716zm-24.1657715 50.2907725c-1.0629883 1.4775391-2.6958008 2.3720703-4.2641602 2.3398438-1.6032104-.0349121-3.0761108-1.1524048-3.4435425-2.569458 2.1396484-.1722412 4.0471191-1.7109375 4.5387573-3.664917.1010742-.4013672-.1430664-.8085938-.5444336-.9101563-.4013672-.1025391-.809082.1425781-.9106445.5449219-.3398438 1.3515625-1.690918 2.4179688-3.2133789 2.5361328-2.4262562.1950912-5.2584953-1.6968575-6.2050781-6.1523438-.0219116-.1033325-.0651855-.1965942-.1230469-.277771 1.3773804-.3518066 2.5958252-1.2189941 3.2353516-2.4390259.1923828-.3671875.0512695-.8203125-.315918-1.0126953-.3642578-.1923828-.8198242-.0498047-1.012207.3154297-.7436523 1.4208984-2.637207 2.1523438-4.3154297 1.6660156-2.8409433-.8225174-4.8340549-4.501503-3.0908203-9.2109375.0245972-.0664063.0261841-.1339722.0314331-.2012939 1.2917738.357933 2.5811625.3805428 3.7888794.0909424.402832-.0966797.6508789-.5019531.5546875-.9042969-.0966797-.4023438-.5019531-.6494141-.9042969-.5546875-2.7080078.6513672-5.8134766-.8066406-7.0708008-3.3125-1.2602539-2.5117188-.5820313-5.9052734 1.5439453-7.7265625.0194702-.0166626.0280151-.039978.0453491-.0581055 1.035758.4080696 2.1354303.5787163 3.2671509.4643555.4121094-.0419922.7124023-.4091797.6708984-.8212891-.0419922-.4121094-.4174805-.7197266-.8212891-.6708984-1.7900391.1796875-3.6464844-.5771484-4.7333984-1.9306641-1.1225586-1.3974609-1.4033203-3.4003906-.6987305-4.9833984.7128906-1.5986328 2.440918-2.6855469 4.1206055-2.5605469 1.6958008.1171875 3.2456055 1.4970703 3.5283203 3.1396484.0708008.4082031.4648438.6787109.8662109.6123047.4082031-.0703125.6826172-.4580078.6123047-.8662109-.2478027-1.4397583-1.1484375-2.7055054-2.362854-3.5047607.0428467-.1489258.0526733-.3086548-.0057983-.4649658-.7324219-1.9638672-.4287109-5.0644531 1.190918-6.5498056 1.5089111-1.3834229 3.8838501-1.765564 5.7687988-.9804688-.0073853.8395386.0459595 1.6942749.1218262 2.54004.0368519.4084396.3964443.715992.8139648.6796875.4125977-.0371094.7172852-.4013672.6801758-.8144531-.2089844-2.3251963-.3032227-4.72754 1.0068359-6.2919931 2.4650497-2.944613 8.2263527-.9594021 9.7939453 3.1542969.0737305.1949463.2197876.3404541.395752.4187622-.9874878 2.5795298-1.3487549 5.4058847-1.5217285 7.7394419-1.1126099 15.0089455-.6880684 25.2006111.8033447 36.9070435.0000001-.0000002-.8033561 4.8699606-1.8218993 6.2853392zm26.2998047-41.8427735c1.6665039-.0332031 3.3676758 1.1005859 4.0151367 2.7285156.6401367 1.6103516.2788086 3.5986328-.8989258 4.9492188-1.1401367 1.3076172-3.0268555 1.9892578-4.8061523 1.7353516-.4135742-.0664063-.7900391.2265625-.8486328.6367188-.0581055.4101563.2270508.7890625.6367188.8476563 1.1149521.1602325 2.2308846.0400124 3.2861938-.3267822.0157471.0176392.0228271.039917.0404663.0562744 2.0512695 1.9082031 2.5922852 5.3271484 1.2319336 7.7841797-1.3569336 2.453125-4.5166016 3.7792969-7.1977539 3.0195313-.3974609-.1142578-.8134766.1181641-.9262695.5166016-.112793.3994141.1186523.8134766.5170898.9267578.6577148.1865234 1.3325195.2753906 2.0053711.2753906.6013184 0 1.1984863-.0842896 1.7834473-.2209473.0081024.3639526 1.0992851 2.9676666.1730957 5.7160645-.5986328 1.7792969-2.0146484 3.1826172-3.6069336 3.5742188-1.6967773.4199219-3.5585938-.3935547-4.2451172-1.8427734-.1772461-.3730469-.6230469-.53125-.9990234-.3564453-.3740234.1777344-.5336914.625-.3564453.9990234.5906372 1.2459717 1.7767334 2.1587524 3.140564 2.5662842-.2353668.2965279-.5518456 2.7234535-2.4169312 4.569458-1.1835938 1.1738281-2.7412109 1.7763672-4.1704102 1.5996094-1.5166016-.1806641-2.8242188-1.3017578-3.109375-2.6660156-.0844727-.40625-.4863281-.6630859-.887207-.5810547-.4057617.0849609-.6655273.4824219-.5810547.8876953.4122925 1.9718018 2.2562866 3.5865479 4.3873291 3.847168-.4244995 1.4025879-1.951416 2.4960327-3.5430908 2.4262695-1.5673828-.0292969-3.1645508-.9921875-4.1674805-2.5136719-.9674988-1.4668198-1.1390419-3.3679695-1.3759766-5.2275391-.2567558-1.953125-.5315323-4.3625145-.8324585-7.5596313.0620117-.1087646.1070557-.2279663.1073608-.3622437.003418-1.1015625 1.0009766-3.2646484 1.8925781-3.7490234.9257813-.5019531 2.137207-.4482422 3.0151367.1347656.3452148.2304688.8105469.1347656 1.0395508-.2099609.2290039-.3457031.1347656-.8105469-.2104492-1.0400391-1.3476563-.8945313-3.1367188-.9746094-4.559082-.203125-.5817261.3154907-1.1317749.9661865-1.585022 1.7266235-.5444946-7.9356079-.4592896-16.1118164.2666626-25.9024048.4848633-6.54004 2.190918-10.484376 5.3691406-12.4101572 2.0336914-1.2304688 5.1772461-1.3320313 6.7089844.6572266 1.246582 1.6181641 1.0556641 4.0136719.753418 6.3291016-.0877266.6699076.6933517 1.1159582 1.2262573.6634531-.0005493.0042114-.0005493.0081177-.0010986.0123291.0062866-.0102539.0110474-.0205078.0172729-.0307617.1174927-.1065674.2012939-.2474976.2321777-.4141846.4680786-.8892832.7113037-1.7857065.8139038-2.751771 1.7925415-.4254761 3.8375854.0975342 5.1470337 1.3998413 1.559082 1.5488291 1.7373047 4.6591806.9262695 6.5927744-.0645752.1535034-.0612793.3130493-.0248413.4632568-1.2449951.7489624-2.1954956 1.9765015-2.5010376 3.4049072-.0864258.4052734.1713867.8037109.5766602.890625.4042969.0917969.8041992-.171875.8901367-.5761719.3486329-1.6308595 1.9521485-2.9453127 3.650879-2.9921877z"></path><path d="m7.3405342 13.4319296c-.1269531.3945313.0898438.8164063.484375.9433594 1.362793.4384766 2.6381836 1.09375 3.7905273 1.94629.1342773.0996094.2905273.1474609.4458008.1474609.7252922 0 1.0228252-.9268389.4467773-1.35254-1.2836914-.9501953-2.7050781-1.6806641-4.2241211-2.1689453-.3935546-.1259766-.8168944.0898437-.9433593.484375z"></path><path d="m14.20821 13.3391562c.3374023-.2402344.4155273-.7089844.1748047-1.0458984-1.4086914-1.9746094-3.137207-3.6728516-5.1381836-5.0478516-.3417969-.2333985-.8085938-.1494141-1.0429688.1933593-.234375.3417969-.1479492.8085938.1933594 1.0429688 1.855957 1.2753906 3.4599609 2.8505859 4.7670898 4.6826172.2415553.3393087.7127238.4141969 1.0458985.1748047z"></path><path d="m15.1813545 4.1360312c-.4086914.0693359-.6831055.4570313-.6132813.8652344l.9038086 5.2939453c.0625.3662109.3793945.6240234.7382813.6240234.4702702 0 .8178959-.4219551.7402344-.8759766l-.9038086-5.2939453c-.0698242-.4082031-.4589844-.6855469-.8652344-.6132812z"></path></g></svg>