<svg xmlns="http://www.w3.org/2000/svg" height="512" viewBox="0 0 64 64" width="512"><path d="m50.89825 38.49316a1.00718 1.00718 0 0 0 -.40753-.94165c6.46277-.48913 11.3274-8.99163 6.35376-14.04113a8.116 8.116 0 0 0 -2.02112-1.40717 3.55285 3.55285 0 0 0 -2.73925-.582.77545.77545 0 0 0 -.33612 1.27313c.8125.89935 2.15326.9336 3.07263 1.72888 3.4013 2.363 2.0451 7.64392-1.04151 9.6648a8.868 8.868 0 0 1 -8.342.934c-4.38562-2.1369-3.712-8.9032-.26489-11.63318 1.44684-1.30469 3.31378-.4917 4.9538-.14392a.82443.82443 0 0 0 .63208-1.49945c-1.62073-1.085-3.43561-.27905-5.03174.42315a7.8237 7.8237 0 0 0 -3.03375 2.17457 4.22722 4.22722 0 0 0 -2.36066-.13031 1.00711 1.00711 0 0 0 -.40765-.94166c6.46283-.48895 11.32745-8.99151 6.35388-14.04107a8.11676 8.11676 0 0 0 -2.02118-1.40724 3.55233 3.55233 0 0 0 -2.73926-.582.77547.77547 0 0 0 -.3361 1.27309 3.04146 3.04146 0 0 0 1.50171.87555 5.29276 5.29276 0 0 1 3.37451 3.37775c1.53516 6.09949-5.99017 10.49152-11.18713 8.07422-4.38556-2.13678-3.712-8.90314-.26477-11.63306 1.44641-1.3045 3.314-.49182 4.95373-.14392a.82442.82442 0 0 0 .63208-1.49945c-1.62066-1.085-3.43561-.279-5.03167.42316-6.21436 2.234-6.8946 12.81579-.14679 14.8161a3.94539 3.94539 0 0 0 1.02227 3.81317 2.422 2.422 0 0 0 4.10419-1.38611 5.84021 5.84021 0 0 0 1.61279.59314 9.7061 9.7061 0 0 0 -.94433 3.37891 11.45017 11.45017 0 0 1 -2.69879 2.413 10.49852 10.49852 0 0 1 -3.1767-2.91168 6.9812 6.9812 0 0 0 -4.04236-6.70154 3.55253 3.55253 0 0 0 -2.7392-.58209.77546.77546 0 0 0 -.33612 1.27313 3.04176 3.04176 0 0 0 1.50165.87561 5.29236 5.29236 0 0 1 3.37451 3.37775c1.5354 6.09894-5.99035 10.4917-11.18707 8.07416-4.38556-2.13672-3.71191-8.90314-.26483-11.63306a3.19251 3.19251 0 0 1 2.6134-.69074c.78522.16517 1.55347.39313 2.3404.5467a.82436.82436 0 0 0 .63208-1.49933c-1.62073-1.085-3.43567-.27905-5.03174.42315a7.82373 7.82373 0 0 0 -3.03376 2.17457 4.2272 4.2272 0 0 0 -2.36065-.13031 1.0071 1.0071 0 0 0 -.40766-.94166c6.46277-.48895 11.32746-8.99157 6.35389-14.04107a8.118 8.118 0 0 0 -2.02118-1.40714 3.55238 3.55238 0 0 0 -2.73926-.582.77544.77544 0 0 0 -.33612 1.27309 3.04142 3.04142 0 0 0 1.50171.87555 5.29276 5.29276 0 0 1 3.37451 3.37775c1.53506 6.0995-5.99017 10.49153-11.18713 8.07423-4.38556-2.13678-3.712-8.90314-.26478-11.63306 1.44642-1.3045 3.314-.49182 4.95374-.14392a.82442.82442 0 0 0 .63208-1.49945c-1.62067-1.085-3.43561-.279-5.03168.42316-6.21441 2.23394-6.89465 12.81579-.14685 14.8161a4.46885 4.46885 0 0 0 -.11444 1.3659c-6.02569 1.7472-9.83612 8.64545-9.00354 14.72766a1.034 1.034 0 0 0 1.59485.79932 19.191 19.191 0 0 0 12.03357 2.80576 13.959 13.959 0 0 0 -3.06207 10.57537 1.034 1.034 0 0 0 1.59478.7992c6.23975 4.07007 16.14075 3.91272 21.89277-.94806.52966-.60315.03283-1.83575-.86664-1.48877-1.62683.62756-3.02454 1.71-4.69916 2.29047-5.25592 1.90838-10.975 1.14184-15.95087-1.1413a11.0888 11.0888 0 0 1 4.99933-11.47574 9.8899 9.8899 0 0 0 4.46942 5.8949.753.753 0 0 0 1.04853.38684 11.11375 11.11375 0 0 0 5.28588-6.619 10.38475 10.38475 0 0 1 5.88617 8.33972 29.94579 29.94579 0 0 0 .27283 3.96173 1.03386 1.03386 0 0 0 1.59467.7992c6.23974 4.07007 16.14074 3.91272 21.89276-.94806.52966-.60315.03283-1.83575-.86664-1.48877-1.62683.62756-3.02454 1.71-4.69916 2.29047-5.25586 1.90832-10.975 1.142-15.9508-1.14136a11.08879 11.08879 0 0 1 4.99926-11.47565 9.88992 9.88992 0 0 0 4.46943 5.8949.753.753 0 0 0 1.04852.38684 11.11377 11.11377 0 0 0 5.28589-6.619 10.66009 10.66009 0 0 1 5.943 10.59143.913.913 0 0 0 1.78375.24134c1.18159-6.26717-4.44113-13.79783-11.06416-13.21654zm-11.77063-14.83606c-.29852.54761.02417 1.21814-.13409 1.79645a1.11593 1.11593 0 0 1 -1.28943.77576c-1.33227-.25116-1.5741-1.84607-1.52691-2.98694a10.79663 10.79663 0 0 0 3.15148.18482 1.16312 1.16312 0 0 0 -.20105.22991zm7.61585 13.76563a10.79827 10.79827 0 0 0 3.15149.18481c-.608.49372-.157 1.37751-.33508 2.02631a1.11592 1.11592 0 0 1 -1.28943.77576c-1.33216-.25104-1.57404-1.84595-1.52698-2.98688zm-23.93292 0a10.79827 10.79827 0 0 0 3.15149.18481c-.608.4936-.15711 1.37757-.33509 2.02631a1.11591 1.11591 0 0 1 -1.28943.77576c-1.33209-.25098-1.57409-1.84589-1.52697-2.98688zm-10.56635-14.18036a10.797 10.797 0 0 0 3.15155.18482c-.60809.49365-.1571 1.37756-.33514 2.02636a1.11593 1.11593 0 0 1 -1.28943.77576c-1.33218-.25116-1.57404-1.84607-1.52698-2.98694zm-.87976 2.45763c1.084 2.3714 4.23908 2.31336 4.84241-.36847a5.8427 5.8427 0 0 0 1.61279.59308 9.7061 9.7061 0 0 0 -.94433 3.37891 11.44772 11.44772 0 0 1 -2.6988 2.413 12.99575 12.99575 0 0 1 -4.56793-5.05621c.58972-.3129 1.18298-.61759 1.75586-.96031zm6.76166 14.45253c-4.79751 1.29427-9.758.34529-14.19287-1.64307a11.08881 11.08881 0 0 1 4.99939-11.47565 9.88989 9.88989 0 0 0 4.46936 5.895.75294.75294 0 0 0 1.04852.38678 8.6371 8.6371 0 0 0 2.4875-1.83677 6.80171 6.80171 0 0 0 4.70868 5.60584 4.46838 4.46838 0 0 0 -.11444 1.3659 8.14646 8.14646 0 0 0 -3.40614 1.70197zm10.60193.4953a8.43284 8.43284 0 0 1 -3.98517 5.249 12.99645 12.99645 0 0 1 -4.56793-5.05615c.58972-.31281 1.18292-.61762 1.7558-.96039 1.084 2.3714 4.239 2.31341 4.8424-.36841a9.39717 9.39717 0 0 0 2.0279.72022c-.02277.14021-.0434.2809-.07303.41573zm8.70611 5.45288a12.38743 12.38743 0 0 0 -2.02044-3.56616 18.86823 18.86823 0 0 0 4.11407.06378 13.312 13.312 0 0 0 -2.09363 3.50238zm4.62336-5.947a19.67324 19.67324 0 0 1 -9.11268.09613c-1.7203-1.10284-3.90387-2.15871-5.97949-1.75666a1.0072 1.0072 0 0 0 -.40753-.94165 9.54941 9.54941 0 0 0 8.11548-6.98565 11.39621 11.39621 0 0 0 2.66172 2.36283.75283.75283 0 0 0 1.04846.38684 8.91633 8.91633 0 0 0 2.48914-1.82733 6.80052 6.80052 0 0 0 4.707 5.59644 4.46838 4.46838 0 0 0 -.11444 1.3659 8.14918 8.14918 0 0 0 -3.40766 1.70313zm10.60345.49414a8.43263 8.43263 0 0 1 -3.98517 5.249 12.99645 12.99645 0 0 1 -4.56793-5.05615c.58972-.31287 1.18286-.61762 1.7558-.96039 1.0841 2.3714 4.239 2.31341 4.8424-.36841a9.39717 9.39717 0 0 0 2.0279.72022c-.02277.14019-.0434.28088-.07295.41571z" fill="rgb(0,0,0)"></path></svg>