<svg xmlns="http://www.w3.org/2000/svg" id="Layer_1" height="512" viewBox="0 0 68 68" width="512"><g id="_x39_8"><path d="m29.3564034 34.1863594c1.1023922 1.7481461 3.4304237 2.6181908 5.4316406 1.9936523 1.9814453-.6259766 3.4101563-2.6606445 3.3232422-4.7324238-.0830078-2.1254883-1.5898438-4.0053711-3.5820313-4.4702148-1.499424-.349865-3.2967892.0619698-4.6103516 1.4462891-1.4355468 1.5092773-1.6777343 3.9858417-.5624999 5.7626972zm1.9580078-4.4365253c1.1904678-1.2554474 2.611805-.8707733 2.8369141-.8828125 1.1171875.2924805 1.9882813 1.4228516 2.0361328 2.65625v.003418c.0517578 1.2128925-.8173828 2.4506855-1.9765625 2.8164082-1.1591797.3652344-2.578125-.15625-3.2246094-1.1816406-.6503907-1.0356447-.506836-2.5341817.328125-3.4116231z"></path><path d="m13.5458565 26.7054005c.2663584.2529507.684968.2943001 1.0075073.0111694-.0028687.0166016-.0062256.034729-.0090942.0512695.3084106-.0768433.49646-.1871338.760376-.322937.1188965-.4990845.3579712-1.2481689.5148926-1.826416.4153442.1011963.8277588.2165527 1.2393188.3358154-1.1973038 1.3009148-2.8966618 7.2900753-1.4140625 14.3323994 1.4470615 6.7897911 3.8746891 10.2108421 4.4439087 12.9952393l-.0101929-.0101929c.4902878 2.663166-.422411 3.8866386-1.1619873 5.993042 0 .0101929-.0101929.0203857-.0101929.0305786-.1083355.2708397-.3335896 1.0692787-.3969116 1.7696533-.4571724 1.4794846.1576328 2.8791046 1.0969238 3.4399414.1797485.1073608.3612671.2018433.5431519.2949829 2.1972656 1.4004784 15.0060387 4.5070076 28.802124.860714.2382202-.0629272.5613403-.1439819.921875-.2433472 1.3897705-.3829956 1.2042847-1.8975792-.2354736-2.0861168-2.0756836-.2717896-4.7788086-.1390381-6.526001.3671875.4851685-.6900635.7106934-1.557373.5480957-2.4231567-.0577164-.409668-.1312943-.6933746-.1035156-1.3662109.0449219-1.0200195.5234375-1.9433594 1.2041016-2.3422852 1.720623-.9489021 5.6222801.4391441 8.3642578-.9560547 1.3876953-.7055664 2.5839844-2.3520508 2.1894531-4.1171875-.1257553-.6335526-.5739365-1.1128883-.6474609-1.4248047-.1201096-.4963951.6717148-1.2406425.8242188-2.1518555.1897736-1.0756187-.2577438-1.919239-.3613281-2.7124023-.1783638-1.374897-.6367416-1.6381912 1.28125-2.2753906.4228516-.1403427 1.6540375-.5926933 2.0712891-.8056641 1.3856125-.6661301 1.8841515-2.1553841.0537109-4.0786133-1.2217979-1.2772522-1.5431442-1.9037132-2.2158203-2.7729492-.629921-.8220978-1.2326126-2.0016098-1.5087891-2.5976563-.4483757-.9752197.3749771-2.3870792.5722656-3.7417011.114563-.8291626.1485596-1.6919556.1286621-2.6036987 1.3814697-1.0041504 2.8428955-2.12323 4.4377441-3.40802.3354378-.2703838.3753624-.768961.0839844-1.0888672-1.2441406-1.3676758-2.71875-2.7685547-4.1455307-4.1235352-.6962662-.6616211-1.3866959-1.3164063-2.0390396-1.9575186-.2391357-.2359619-.59198-.267395-.8737183-.1173706 0-.0009766 0-.0020142 0-.0029907-.537899.3784571-.5546188.4744463-.8069458.6582022-.0393066.4938965-.0404663 1.109436-.0655518 1.6489868-4.4597778-.2588501-8.4252319.6035767-11.8184814 2.5783691-.0010376-.1741333.0005493-.3481445-.0088501-.5224609.1044922-.3885498-.0429688-.7831421-.3607178-1.0136719l-.1012573-6.5056143c.8352051-.0627441 1.6622925-.1484375 2.4727173-.2450562.6902466-.0822754.8358154-.9732056.9051514-1.3215942.055603-.1098633.0942993-.2290039.0892944-.3609009-.0075302-.2141752-.0166092-.3730526-.1445313-.5473633-1.8986702-2.5957656-3.6309433-4.7856364-5.6337891-8.0146484-.1269531-.2036133-.34375-.3349609-.5830078-.3525391-.2255859-.0214844-.4726563.0805664-.6269531.2636719-2.5279961 2.9840407-4.8357449 5.5213685-6.96875 8.3613281-.1629639.2164917-.190979.5020752-.0836182.7488403l-.0043335.0060425c.0886841.2976685.7645874 1.008728 1.0549316 1.0406494.6764526.0742798 1.3585205.041626 2.0384521.0592651.0010872.1043262.0929718 8.9267435.0919189 8.8256826-.5050049-.0144653-.9616089.0158691-1.4032593.0698242l-1.3444824-2.1946411c-.2773438-.453125-.8681641-.5961914-1.3242188-.3178711-.0408936.0250854-.0652466.0640259-.1009521.0938721l-2.6647949 1.5860596c-2.5996094-1.5897217-5.6600952-2.5813599-9.1275024-2.9459839.0350952-.6026611.0429077-1.4160147.0880127-1.9401846-.3907146-.398366-.5203419-.4622049-.6203613-.5455933-.0001831.0014038-.0004883.0028687-.0006714.0042725-.2383423-.119812-.5299683-.1178589-.7651367.0458984-2.2514086 1.5794992-4.9324226 3.271203-7.1015625 4.9794912-.3335757.2616692-.3880162.7590981-.0966797 1.0878906 2.0498048 2.3041995 3.8769532 4.2158206 5.5859376 5.8447269zm39.9042969 6.5981464c1.0297203 2.2235374 1.6507874 2.7985802 2.0800781 3.4199219.5517578.8081055 1.1982422 1.6015625 1.9208984 2.3569336.6279297.659668.8066406 1.1352539.7685547 1.3417969-.1026955.5556526-2.8879623 1.0674629-3.875 1.8320313-1.1083984.8300781-.9169922 1.9023438-.7773438 2.6850586.1219788.6621742.0566902.5623894.2822266 1.4194336.318119 1.2145195.2088547 1.369976-.1621094 2.0185547-.6570473 1.1435165-.7539177 1.7946281-.0761719 2.9316406.1103516.184082.2050781.3427734.2353516.4946289.2294922 1.0249023-.5507813 2.0375977-1.4013672 2.4702148-2.3717461 1.2050476-6.0940704-.3018188-8.4267578.9897461-1.5421104.9036331-2.1905251 2.9524078-1.9316406 4.6567383l.0957031.612793c.1552734.8295898-.3212891 1.6616211-1.1113281 1.9370117-1.5751953.5527344-3.2988281.9594727-5.1318359 1.2094727-5.111454.7600517-10.8971901.6618309-15.4118042-1.894104-.0074463-.1588135.0241699-.3536377.1618042-.5521851 5.6227875-8.3097343-1.0841923-12.3254433-3.2636719-23.262207-.9331665-4.6740112-.4449463-9.0719624 1.3482666-12.4547138.4832726.180315.7721424.2883492 1.489563.6035767-.4839725 1.3408432-.7391376 2.4116058-1.1600952 3.440979-.1519852.371788-.0502338.7211227.2094116 1.0443726.3070869.3376083.33675.2021713 3.291626 1.3578491l.286377 1.9528828c-.6291504.6385498-1.3607788 1.1849365-2.1529541 1.6021118-.0626831.0134888-.1260986.0139771-.1871948.0408325-.4863281.2133789-.7080078.7807617-.4951172 1.2675781l1.5673828 3.5756836c.1582031.3608398.5117188.5761719.8828125.5761719.0005493 0 .0010986-.0003662.0016479-.0003662.0400391.005127.0787354.0174561.1194458.0174561.1259766 0 .2539063-.0249023.3769531-.0771484l2.4934082-1.0613403c.3036499.2088623 1.4370117.9765625 1.6958618 1.1528931l-.6116333 2.7330929c-.0180664.0324707-.0465088.0556641-.0610352.0908813-.1704712.4122314-.0213013.8620605.3180542 1.1202393.3941784.3407288 2.9820652 1.0970459 4.5120239 1.0970459.2661133 0 .5050049-.112793.6801758-.2904053.1419678-.1013184.2609863-.2385864.3325195-.4117432.3774414-.9136963.72229-1.8502808 1.0459595-2.789917.8822708-.0138474 1.1490211-.0410004 1.8514404-.0510864l1.5752563 2.3366089c.2354698.3501053.6929893.5391541 1.1656494.3408813 1.387146-.4067993 2.661438-1.0671997 3.5911865-1.8618774.3077393-.2637939.4049683-.678772.2818604-1.0405884-.0013428-.0042114-.0001831-.0084229-.0015869-.0126343l-.9007568-2.6699829c.4595337-.5810547.954834-1.1322021 1.4869385-1.6434326.1585693.0362816 2.4608459.5630836 2.3161011.5299683.1002121.018013.1250191.0300293.2383194.0300293.3244438 0 .7123833-.2082596.8753891-.5996704.7678146-1.4523468 1.2772942-3.1587372 1.3190308-3.7089844.0523071-.4486084-.2119141-.8616333-.637146-1.0075073-.8304443-.5230103-1.7012939-.9837036-2.5932617-1.3966084.1311646-.6898193.1853027-1.3179932.1544189-1.8865356.895874-.4840088 1.7565308-1.0323486 2.5407715-1.6809692.4101563-.3388672.4667969-.9453125.1289063-1.3549805-.0338745-.0410767-.0800171-.0625-.1188354-.0964355-.1056519-.1819458-.2233276-.3574219-.3328247-.5375366.6750488-.1920776 1.3549194-.3643188 2.0426025-.4963379 1.0438843-.2107544 2.107605-.3314819 3.1716309-.4130249.0414429.5250244.0647583 1.116394.1199341 1.5916138.203125.1370239.2550659.2250977.5908203.4637451.0490723.0732422.1074219.1350098.1784668.1868286.241581.3348846.6910934.4113121 1.0249634.1849365.1755371-.1190796.3598022-.251709.5379639-.375-.1172258 2.8123226-1.4009935 4.1004619-.5662843 5.9130878zm-.5195313-13.8076191c.3916016.0410156.7617188-.2504883.8134766-.6513672l.1274414-.9937134c1.8983383 1.8174839 3.2647095 3.0954094 4.5092773 4.4053345-1.7155762 1.3665161-3.2773438 2.5397949-4.7441406 3.5722656.0027466-.3057251.0083389-1.3571758.0107422-1.8095703 0-.3774414-.2802734-.6958008-.6542969-.7441406-2.8463135-.3626099-5.4248657.0093384-7.8575439 1.1273193-.2005615-.2828369-.3935547-.5724487-.602417-.8470459-.2458496-.3242188-.6572876-.4436035-1.0279541-.3383179-.0113525.0023804-.0222168-.0014038-.0335693.0014038-.8337402.2024536-1.6409302.4961548-2.4240112.84021l-1.0410767-1.0454712c.0474243-.204895.0913086-.4100342.1266479-.6166992 3.5476074-2.3719482 7.8405762-3.3598022 12.7974243-2.9002075zm-16.1552734-15.8525383c1.4660835 2.2884295 2.7770805 4.0369816 4.4052124 6.2322388l-2.1727905.0822144c-.4072266.015625-.7275391.3535156-.7216797.7612305l.1199951 7.6959219c-.8284149-.2433357-2.2834702-.5753326-2.9716187-.5787964-.3847046-.0436401-.7711792.1434937-.9608765.5059204-.1213989.2329102-.2145386.4799805-.324646.7188721l-.0903931-8.3614492c-.0039063-.4111328-.3388672-.7421875-.75-.7421875h-1.859375c1.6156236-2.0467524 3.3055612-3.9537558 5.326172-6.313965zm-2.1187134 19.1309807c.5470886-.4013767.1732521-.6180706 1.2558594-2.947876.8302612.1289673 1.6488037.3254395 2.4470215.5900269.042614 2.3036461-.6393661 2.5934296-.1935425 3.3000488.1338501.4456177.2665901.3789043 1.9550781 2.1397095.262146.2635059.6702042.3747139 1.0744019.1932983.0577393-.015625.1168823-.0128784.1726685-.039978.6439819-.3134766 1.3219604-.5558472 2.0122681-.757019.4754028.6555176.9244385 1.3319702 1.3457031 2.0265503-.5531616.3995972-1.1298218.7631226-1.7365723 1.0758667-.0369873.0036621-.0725098-.0064087-.1096802.00177-.5195313.1137695-.8476563.6269531-.734375 1.1464844.1455078.6640625.0732422 1.5566406-.2148438 2.6523457-.1393738.5279121.1882744 1.115036.8138428 1.1925659.8275757.3604736 1.6286621.7838745 2.4039307 1.2486572-.175293.6325684-.4017334 1.2494507-.6775513 1.8458862l-2.2267456-.5102539c-.4822388-.1112061-.9523315.1719971-1.1113281.6312866-.6543579.6275635-1.2640991 1.3060913-1.8196411 2.0269165-.2922363.2142334-.4345093.5706177-.3687744.9353027.0007935.0059204.0013428.0115356.0022583.017395.0080566.0403442.00177.0805054.0152588.1205444l.8692017 2.5762939c-.5222778.3546753-1.1471558.6642456-1.8174667.9077759-.1478195-.2184639.5352554.7916145-1.4460831-2.1364136-.4751396-.6967812-1.0938606-.3603172-3.5114746-.3768311-.0049438-.001709-.0081177-.0057983-.0131226-.0074463-.5019531-.1645508-1.0488281.1113281-1.2138672.6157227-.3108521.9506226-.6616821 1.8966675-1.0328369 2.8276367-.7526245-.0802612-1.4927368-.2315063-2.2112427-.4644775l.6483765-2.8973389c.1162109-.5185547-.2109375-1.0332031-.7294922-1.1494141-.0074463-.0016479-.0144653.0010376-.0219116-.0004272-1.0674419-.740757-1.3539371-.8990555-2.1376343-1.4525757-.215847-.2355042-.537508-.3568726-.9370728-.2720337-.3514938.0887718-.5876446.2364998-2.3774414.9804688l-.8356934-1.9060059c.9160767-.5562744 1.7572021-1.2507935 2.4620972-2.0481567.4134045-.467968.1751423-.6389122-.2226563-3.6889668-.0461979-.3187485-.3651123-.7153816-.6630859-.8271484l-2.5536499-.9586182c.3184566-.934021.4467773-1.4297676.7388916-2.2911377l2.4271851.8706055c.0278931.0212402.0453491.0510864.0760498.0695801.453373.2723103 1.0456944.1292381 1.3212891-.3295898 1.76511-3.0270615 1.8661232-2.9130535 1.8933716-3.3823853.2438335-.6145687-.17379-.9179459-.8404541-2.6515503l1.710144-1.0178833 1.1685791 1.9053345c.2203236.3595066.6577339.547245 1.0921631.4187012 2.3478354-.4725246 3.1106185.5207139 3.8526-.203247zm-19.8630982-5.907898-.0406494.9956665c-.0166016.4047852.2910156.7495117.6943359.7788086 3.5921021.2611084 6.6158447 1.1633301 9.2262573 2.7348022.0319824.3626213.0506935.1997528 1.0779419 2.6403198l-1.1838378 1.9697877-1.8898315-.6778564c-2.6548462-1.3465576-5.170105-2.2946167-7.7637329-2.925354-.1943359-.0473633-.4082031-.0131836-.5820313.0981445-.3329468.213501-.324996.3544598-.625 2.2858276-1.2747803-1.2577515-2.621521-2.6716919-4.0888672-4.3029175 1.5912647-1.1986942 3.3948526-2.3846836 5.175415-3.597229z"></path></g></svg>