<svg xmlns="http://www.w3.org/2000/svg" id="Layer_1" height="512" viewBox="0 0 512 512" width="512"><path d="m446.222 161.418-125.691-133.212c-8.625-9.141-18.4-19.501-31.522-24.468-11.691-4.426-24.394-3.88-35.601-3.398l-167.056 7.179c-7.942.341-14.726 5.132-17.704 12.502s-1.426 15.528 4.049 21.291l25.347 26.677-26.752 54.453c-4.611 9.387-9.839 20.027-10.171 31.745-.651 22.943 17.34 41.14 30.929 52.832 47.871 41.189 106.05 68.745 168.246 79.691 8.038 1.414 17.603 2.731 27.556 2.731 13.937 0 28.635-2.581 40.962-11.086 10.731-7.404 18.067-18.259 23.435-28.963l-.626 102.695c-.057 9.309-.114 18.778.558 28.23-15.228 25.239-24.98 43.518-29.797 55.851-7.501 19.207-10.098 37.333-7.717 53.876.676 4.694 1.957 10.699 5.906 15.516 3.366 4.106 8.241 6.418 12.951 6.418 1.673 0 3.326-.292 4.882-.899 6.934-2.704 9.133-9.406 11.073-15.32.843-2.568 1.639-4.995 2.741-6.957 2.598-4.623 8.308-7.548 13.578-6.954 5.56.627 8.408 4.799 12.439 11.596 3.775 6.367 8.054 13.583 17.018 14.605 7.051.804 10.564-2.089 12.269-4.657 4.675-7.039.263-18.948-2.723-24.262-4.663-8.298-9.575-16.619-14.324-24.665-2.421-4.101-4.841-8.202-7.238-12.313-6.763-11.601-13.757-23.597-17.711-36.436-2.432-7.898-3.72-16.085-4.392-24.368-.001-.219-.018-.436-.051-.651-.733-9.495-.674-19.111-.617-28.557l.756-124.054c.233-.616.471-1.242.7-1.851 4.671-12.404 9.083-24.119 16.343-34.327l-.336-.239c5.385.147 10.763.232 16.132.232 13.751 0 27.452-.514 41.108-1.698 6.634-.575 12.226-4.79 14.591-11 2.349-6.166.993-12.981-3.54-17.785zm-96.274 71.349c-5.159 12.994-12.795 29.09-26.157 38.309-18.455 12.733-44.202 10.05-61.962 6.925-60.631-10.67-117.345-37.533-164.012-77.685-12.218-10.514-28.4-26.707-27.856-45.878.278-9.795 5.055-19.518 9.269-28.096l25.309-51.516 59.719 62.852c2.738 2.882 5.435 5.956 8.29 9.21 7.762 8.85 15.79 18 25.552 24.21 8.904 5.664 18.338 6.155 27.461 6.63 1.237.064 2.484.129 3.74.207 10.999.683 22.214 2.107 33.059 3.484 4.176.53 8.35 1.06 12.522 1.552 26.169 3.082 52.054 5.918 77.726 7.534l-.219 35.939c-.802 2.115-1.613 4.239-2.441 6.323zm25.65 213.84c2.405 4.125 4.834 8.24 7.262 12.355 4.726 8.007 9.613 16.287 14.23 24.503 3.075 5.472 4.564 12.78 3.066 15.037-.648.976-2.721.896-3.9.762-4.378-.499-6.809-4.25-10.413-10.329-3.886-6.553-8.722-14.709-19.056-15.874-8.786-.99-17.947 3.702-22.279 11.41-1.526 2.716-2.496 5.673-3.434 8.532-1.766 5.382-3.042 8.729-5.882 9.837-2.665 1.039-5.998-.712-7.781-2.887-2.563-3.126-3.479-7.611-3.991-11.168-2.161-15.013.262-31.633 7.201-49.4 3.932-10.066 11.739-25.049 23.254-44.636.779 4.555 1.818 9.086 3.199 13.571 4.254 13.812 11.508 26.254 18.524 38.287zm-14.228-242.641.079-12.955c2.203.113 4.405.216 6.605.309-2.522 4.074-4.707 8.319-6.684 12.646zm80.127-27.911c-1.165 3.058-3.815 5.053-7.09 5.337-24.085 2.088-48.377 2.049-72.904.771l.014-2.285c.072-11.948.172-28.311-8.718-40.54-6.989-9.613-18.242-14.857-27.284-19.07l-78.275-36.474c-2.214-1.032-4.845-.073-5.876 2.14-1.032 2.214-.073 4.844 2.14 5.876l78.275 36.474c8.542 3.98 18.222 8.491 23.866 16.254 6.642 9.136 7.112 21.385 7.028 35.286l-.011 1.826c-25.318-1.609-50.889-4.417-76.745-7.462-4.146-.488-8.293-1.015-12.443-1.542-10.984-1.395-22.342-2.838-33.626-3.538-1.285-.08-2.562-.146-3.828-.212-8.71-.453-16.233-.845-23.174-5.26-8.695-5.531-16.298-14.198-23.65-22.58-2.786-3.176-5.667-6.461-8.527-9.47l-91.56-96.365c-3.103-3.266-3.948-7.71-2.26-11.887s5.383-6.786 9.884-6.98l167.056-7.18c10.357-.445 22.096-.95 32.09 2.834 11.217 4.246 20.25 13.82 28.22 22.267l125.691 133.212c2.217 2.351 2.856 5.554 1.707 8.568z"></path></svg>