<svg xmlns="http://www.w3.org/2000/svg" id="Capa_1" height="512" viewBox="0 0 283.557 283.557" width="512"><g><g><path d="m240.881 17.374-184.298.293c-37.562 0-56.339 9.71-56.561 63.944-.111 15.812-.266 37.465 11.482 53.015 16.202 21.44 45.61 18.741 71.664 16.326 16.109-1.493 12.825-1.307 55.856-1.87l.439-.004c6.408 28.721 15.143 68.114 21.6 97.23.465 2.087 3.315 2.344 4.183.43 3.926-8.721 7.986-17.735 12.045-26.701 5.81 9.869 12.533 19.446 19.06 28.739 3.847 5.482 7.676 10.933 11.301 16.415.425.643 1.13.993 1.848.993.372 0 .745-.093 1.086-.284 6.408-3.603 12.803-7.228 19.189-10.844l12.834-7.259c.514-.292.891-.776 1.046-1.347.155-.567.08-1.179-.217-1.688-9.453-16.406-18.941-32.767-28.469-49.169 10.857-2.53 21.715-5.07 32.577-7.64 1.906-.452 2.335-2.996.66-4.037-33.246-20.665-57.274-35.55-57.274-35.55l46.479-.647c34.54-.47 41.799-11.642 43.275-38.63l2.717-51.083s0-.004 0-.009c1.365-27.496-5.775-40.623-42.522-40.623zm-30.68 243.655c-1.072-1.604-2.225-3.208-3.324-4.808l3.395-3.395 4.241 4.241c-.279.43-.292.988.084 1.365.031.031.084.022.12.049-1.507.846-3.009 1.697-4.516 2.548zm12.985-22.685c-.434-.434-1.135-.434-1.569 0l-4.325 4.325-4.498-4.498 5.774-5.774 7.055 7.055-1.768 1.773c-.434.434-.434 1.135 0 1.569.425.425 1.13.439 1.569 0l1.768-1.773 1.693 1.693c-.071.044-.164.031-.226.093l-5.619 5.615-4.179-4.183 4.325-4.325c.434-.44.434-1.14 0-1.57zm-1.711 11.637-5.455 5.455-4.183-4.183 5.46-5.455zm-3.545 6.679 5.114-5.11 1.418 1.418c-2.176 1.232-4.352 2.46-6.532 3.692zm9.656-5.46c-.372.213-.749.421-1.121.634l-1.857-1.857 5.619-5.615c.062-.062.049-.155.093-.226l3.523 3.523zm-2.765-29.745-1.808-1.808.483-.483c.443.766.882 1.529 1.325 2.291zm16.517-36.588c-10.095 2.384-20.199 4.737-30.295 7.091-1.458.337-2.154 1.99-1.414 3.271 4.254 7.325 8.478 14.642 12.719 21.954l-.9.9-.811-.811c-.434-.434-1.134-.434-1.569 0s-.434 1.134 0 1.569l.811.811-1.134 1.134c-.434.434-.434 1.135 0 1.569.43.43 1.13.434 1.569 0l1.135-1.135 5.779 5.779-4.325 4.325c-.434.434-.434 1.134 0 1.569.439.439 1.139.43 1.569 0l4.325-4.325.346.346c3.111 5.376 6.244 10.751 9.346 16.131l-2.73 1.547c-.049-.084-.035-.186-.106-.257l-6.882-6.882.23-.23c.434-.434.434-1.135 0-1.569s-1.134-.43-1.569 0l-.23.23-7.055-7.055 1.954-1.954c.434-.434.434-1.134 0-1.569-1.095-1.095-2.553.988-3.714 2.145-.328-.04-.66.022-.908.27-.253.253-.315.581-.27.908l-5.969 5.969-.173-.173c-.434-.434-1.135-.434-1.569 0s-.434 1.134 0 1.569l.173.173-4.33 4.325c-.434.434-.434 1.135 0 1.569.43.43 1.13.434 1.564 0l4.33-4.325 4.498 4.498-5.455 5.455-6.24-6.24c-.434-.434-1.134-.434-1.569 0s-.434 1.135 0 1.569l6.24 6.24-3.111 3.111c-1.875-2.708-3.714-5.42-5.624-8.136-7.29-10.383-14.824-21.121-20.979-32.129-.891-1.591-3.2-1.48-3.953.164-4.144 9.107-11.101 24.564-11.101 24.564-15.369-69.275-20.922-94.23-20.922-94.23-.647-2.934-6.772-20.62-5.526-23.355.709-.324 3.293.071 12.453 6.678 2.876 2.078-.363-.04 30.272 18.994.115.124 0-.022.098.062-.002.005 29.393 18.228 61.022 37.886zm-49.112-41.218c.168.168.39.217.612.253l-8.11.115 3.63-3.629 2.282 2.282c.456.456.86.359 1.303.111-.031.309.04.629.283.868zm10.756-2.575-3.306-3.306 2.335-2.335 4.733 4.733-3.417 3.417c-.049.049-.035.12-.071.173l-10.055.142c.213-.04.434-.084.598-.248l4.316-4.316 3.306 3.306c.43.43 1.13.434 1.569 0 .422-.431.422-1.132-.008-1.566zm63.771-4.622-4.534-4.534 5.034-5.03 3.576 3.581c.217.217.496.324.784.324.009 0 .013-.009.018-.009-1.244 2.149-2.707 3.94-4.878 5.668zm-6.098-6.098-6.08-6.085 5.03-5.03 6.08 6.08zm18.32-72.586-1.493 28.061c-.049-.08-.035-.182-.102-.248l-3.009-3.009 3.115-3.115c.434-.434.434-1.134 0-1.569-.434-.434-1.135-.434-1.569 0l-6.302 6.297c-.434.434-.434 1.134 0 1.569.43.43 1.13.434 1.569 0l1.618-1.618 3.009 3.009c.439.439 1.139.425 1.569 0 .027-.027.013-.066.04-.093l-.638 12.023-4.21-4.21 3.457-3.457c.434-.434.434-1.134 0-1.569-.434-.434-1.134-.434-1.564 0l-3.457 3.457-.417-.417c-.434-.434-1.134-.434-1.564 0-.434.434-.434 1.134 0 1.569l.417.417-5.216 5.216c-.434.434-.434 1.134 0 1.569.43.43 1.13.434 1.569 0l5.216-5.216 5.517 5.517c.031.031.075.018.106.044l-.173 3.275c-.191.044-.39.075-.536.222l-4.308 4.312-6.718-6.718c-.434-.434-1.135-.434-1.564 0-.434.434-.434 1.134 0 1.569l6.718 6.718-3.714 3.714c-.434.434-.434 1.134 0 1.569.43.43 1.13.434 1.569 0l3.714-3.714 1.954 1.954c.43.43 1.13.434 1.569 0 .434-.434.434-1.134 0-1.569l-1.954-1.954 3.12-3.12-.031.589c-.35 6.408-.811 14.031-3.776 20.257-.04-.062-.027-.142-.084-.199l-3.576-3.581 4.401-4.401c.434-.434.434-1.134 0-1.564-.434-.434-1.134-.434-1.569 0l-4.401 4.401-6.08-6.085 5.668-5.672c.434-.434.434-1.134 0-1.569-.434-.434-1.134-.434-1.564 0l-5.672 5.672-.718-.718c-.434-.434-1.135-.434-1.569 0s-.434 1.134 0 1.569l.718.718-5.03 5.034-4.432-4.432 8.402-8.433c.434-.434.434-1.134 0-1.564-.434-.434-1.135-.434-1.569 0l-8.429 8.429-1.015-1.015c-.434-.434-1.135-.434-1.569 0s-.434 1.134 0 1.569l1.015 1.015-5.934 5.934-3.718-3.714c-.434-.434-1.135-.434-1.569 0s-.434 1.134 0 1.569l3.718 3.714-5.482 5.482-5.965-5.965c-.434-.434-1.134-.434-1.569 0-.434.434-.434 1.134 0 1.569l5.965 5.965-5.065 5.065c-.434.434-.434 1.135 0 1.569.43.43 1.13.434 1.569 0l5.065-5.065 4.449 4.449c-.394.434-.399 1.099.018 1.52.43.43 1.13.434 1.569 0l.062-.062c.412.195.758.337 1.232-.142.341-.341.332-.82.137-1.232l5.584-5.584 4.941 4.941c.43.43 1.13.434 1.569 0 .434-.434.434-1.135 0-1.569l-4.941-4.941 5.934-5.934 6.08 6.085-3.864 3.864c-.434.434-.434 1.134 0 1.569.43.43 1.13.434 1.569 0l3.864-3.864 4.21 4.21c-7.472 4.773-17.921 5.455-27.516 5.588l-31.021.434 1.981-1.981 1.179 1.179c.43.43 1.13.434 1.569 0 .434-.434.434-1.135 0-1.569l-1.179-1.179 6.532-6.532 6.794 6.794c.43.43 1.13.434 1.569 0 .434-.434.434-1.134 0-1.569l-6.794-6.794 14.084-14.084c.434-.434.434-1.134 0-1.569s-1.135-.434-1.569 0l-14.084 14.084-1.015-1.015c-.434-.434-1.135-.434-1.569 0s-.434 1.134 0 1.564l1.015 1.019-6.532 6.532-4.733-4.733 5.752-5.752c.434-.434.434-1.134 0-1.569-.434-.434-1.134-.434-1.569 0l-9.652 9.652-1.919-1.914c-.434-.434-1.134-.434-1.564 0-.434.434-.434 1.134 0 1.564l1.919 1.919-4.042 4.042c-.018-.257-.098-.514-.297-.709l-2.282-2.282 6.466-6.466c.434-.434.434-1.134 0-1.569s-1.134-.434-1.569 0l-6.466 6.466-.567-.567c-.434-.434-1.135-.434-1.569 0s-.434 1.134 0 1.569l.567.567-2.934 2.934-2.366-2.366c-.43-.43-1.13-.439-1.569 0-.434.434-.434 1.135 0 1.569l1.52 1.52c-29.679-18.44-26.209-16.189-28.912-18.134-6.08-4.387-11.881-8.265-15.856-7.445-1.267.257-2.287.957-2.934 2.025-2.796 4.516 3 19.499 4.72 25.739-41.786.55-39.211.35-55.71 1.883-24.835 2.291-52.993 4.901-67.711-14.584-10.015-13.255-10.724-31.367-10.592-50.321.23-51.947 17.337-59.548 52.151-59.548l184.302-.292c34.28 0 39.314 11.15 38.086 35.962zm-40.518 79.486-4.432-4.436 5.482-5.482 4.432 4.432zm2.615-11.487 5.934-5.934 4.432 4.432-5.934 5.934z"></path><path d="m100.315 67.465c-6.647-3.785-16.206-1.697-20.461 4.449-2.845 4.099-3.195 9.151-3.474 13.211l-1.808 26.124c-.084 1.223.842 2.282 2.061 2.366.053 0 .102.004.155.004 1.152 0 2.123-.895 2.207-2.061l1.161-16.76c5.158 1.041 9.63 1.117 13.632.239 16.888-3.726 17.238-21.479 6.527-27.572zm-7.485 23.244c-3.505.776-7.516.656-12.289-.359-.031-.004-.058-.013-.089-.018l.341-4.897c.257-3.7.545-7.893 2.694-10.99 2.969-4.299 9.936-5.788 14.629-3.124 7.22 4.103 7.618 16.543-5.286 19.388z"></path><path d="m115.076 76.43c-1.374 5.318-1.937 12.05-1.414 17.142 1.587 15.595 16.175 21.183 26.572 13.135 9.2-7.135 10.521-22.052 3.483-31.265-8.534-11.19-25.986-9.276-28.641.988zm22.442 26.771c-7.6 5.872-18.21 2.101-19.455-10.082-.461-4.538.062-10.8 1.303-15.577 1.64-6.324 14.376-7.879 20.824.585 5.708 7.476 4.41 19.579-2.672 25.074z"></path><path d="m172.058 72.273c3.426.873 6.63 2.867 9.457 4.631 1.041.647 2.411.332 3.053-.709.647-1.037.328-2.406-.709-3.053-2.951-1.835-6.621-4.121-10.711-5.163-12.98-3.279-19.929 7.884-15.621 14.881 4.542 7.396 15.289 3.833 20.142 7.175 2.748 1.897 3.576 6.382 1.733 9.417-3.842 6.333-14.642 5.154-17.797-3.988-.399-1.157-1.662-1.768-2.819-1.369s-1.768 1.662-1.374 2.819c4.436 12.878 20.035 14.296 25.774 4.844 3.084-5.083 1.706-12.12-3.014-15.369-6.164-4.241-15.772-.798-18.879-5.841-2.583-4.216 2.398-10.393 10.765-8.275z"></path><path d="m223.283 67.58c-.035 0-.075 0-.115 0l-29.413 1.529c-1.219.066-2.158 1.108-2.096 2.327.062 1.183 1.037 2.101 2.211 2.101h.115l11.819-.616c-.053.177-.129.346-.133.536l-.851 33.126c-.031 1.223.935 2.238 2.158 2.273h.058c1.201 0 2.185-.953 2.216-2.158l.851-33.126c.009-.306-.049-.598-.151-.864l13.446-.7c1.219-.066 2.158-1.108 2.096-2.327-.061-1.184-1.041-2.101-2.211-2.101z"></path><path d="m65.469 48.794-7.113 7.113-5.216-5.216 10.547-10.547c.434-.434.434-1.134 0-1.569-.434-.434-1.134-.434-1.569 0l-10.547 10.547-4.507-4.507c-.434-.434-1.134-.434-1.569 0-.434.434-.434 1.134 0 1.569l4.507 4.507-4.946 4.946-5.624-5.624 10.928-10.928c.434-.434.434-1.134 0-1.569-.434-.434-1.134-.434-1.569 0l-10.927 10.928-1.117-1.117c-.434-.434-1.134-.434-1.569 0s-.434 1.134 0 1.569l1.117 1.117-4.538 4.538-3.692-3.692c-.434-.434-1.134-.434-1.569 0-.434.434-.434 1.134 0 1.569l3.692 3.692-8.035 8.035c-.434.434-.434 1.134 0 1.569.43.43 1.13.434 1.564 0l8.035-8.035 5.624 5.624-8.442 8.442c-.434.434-.434 1.134 0 1.569.43.43 1.13.434 1.569 0l8.442-8.442 4.547 4.547c.43.43 1.13.434 1.569 0 .434-.434.434-1.134 0-1.569l-4.547-4.547 4.538-4.538 5.216 5.216-1.524 1.524c-.434.434-.434 1.134 0 1.569s1.134.434 1.564 0l1.524-1.524.612.612c.43.43 1.13.434 1.569 0 .434-.434.434-1.134 0-1.569l-.612-.612 4.946-4.946 5.234 5.234c.43.43 1.13.434 1.569 0 .434-.434.434-1.134 0-1.569l-5.234-5.234 7.113-7.113c.434-.434.434-1.134 0-1.569-.426-.434-1.126-.434-1.56 0zm-26.51 12.945-5.619-5.624 4.538-4.538 5.624 5.624zm12.887.678-5.216-5.216 4.946-4.946 5.216 5.216z"></path><path d="m165.451 170.983c.532.284 1.21.089 1.498-.456.301-.567.328-1.228.075-1.861-.297-.731-.944-1.334-1.693-1.578-1.108-.363-2.198-.062-3 .16l-3.47.953-1.626-10.698c-.089-.598-.634-1.019-1.259-.926-.607.093-1.019.656-.931 1.263l1.666 10.955-3.39.931c-.589.164-.935.771-.776 1.365.133.492.581.815 1.068.815.093 0 .195-.013.292-.04l3.138-.864 2.056 13.543-3.603 1.782c-.55.27-.776.935-.505 1.485.195.39.589.616.997.616.164 0 .332-.035.487-.115l2.974-1.467 1.728 11.372-1.219.288c-.594.137-.966.736-.82 1.329.12.51.576.855 1.077.855.084 0 .168-.009.257-.031l1.041-.244 1.892 12.453c.084.545.554.94 1.095.94.053 0 .106-.004.164-.013.607-.089 1.019-.656.931-1.263l-1.919-12.63 2.672-.629c.594-.137.966-.736.824-1.329-.142-.594-.718-.979-1.334-.824l-2.495.585-1.808-11.894 3.536-1.746c.55-.27.776-.935.505-1.485-.275-.545-.94-.771-1.485-.501l-2.907 1.436-1.99-13.104 3.723-1.024c.682-.186 1.281-.337 1.728-.191.177.058.328.261.346.288-.285.542-.081 1.211.46 1.499z"></path></g></g></svg>