<svg xmlns="http://www.w3.org/2000/svg" id="Layer_1" height="512" viewBox="0 0 53 53" width="512"><g><path d="m32.7 8c.3-.2.5-.4.8-.7l1.8-1.7c-.9-.8-2.3-.6-3.1.2-.8.7-1.2 2.1-.5 3.1z"></path><path d="m11.5 29.2c.3-.2.5-.4.8-.7l1.8-1.7c-.9-.8-2.3-.6-3.1.2-.8.7-1.2 2.1-.5 3.1z"></path><path d="m33.1 48.6c1.5 1.6 3.7 2.5 5.8 2.5 2.2 0 4.3-.9 5.8-2.5 1.5-1.5 2.3-3.7 2.2-5.8s-1-4.1-2.6-5.5c-1.5-1.3-3.6-2-5.5-1.8 1.9.2 3.6 1.1 4.8 2.5 1.2 1.3 1.8 3.1 1.7 4.8s-.8 3.3-2 4.5-2.8 1.8-4.5 1.8-3.3-.6-4.5-1.8c-1.2-1.1-1.9-2.8-2-4.5s.5-3.5 1.7-4.8c1.2-1.4 2.9-2.3 4.8-2.5-1.9-.2-4 .4-5.5 1.8-1 .9-1.7 2-2.2 3.3-2.5-2.4-7-4.8-10.4-5.5.9-1.4 1.3-3 1.3-4.6-.1-2.1-1-4.1-2.6-5.5 0 0-.1-.1-.1-.1 1-.6 2-1.2 2.9-1.9 2-1.6 3.8-3.3 5.5-5.5.6-.8 1.2-1.6 1.7-2.4 1.5 1.6 3.7 2.5 5.8 2.5 2.2 0 4.3-.9 5.8-2.5 1.5-1.5 2.3-3.7 2.2-5.8s-1-4.1-2.6-5.5c-1.5-1.3-3.6-2-5.5-1.8 1.9.2 3.6 1.1 4.8 2.5 1.2 1.3 1.8 3.1 1.7 4.8s-.8 3.3-2 4.5-2.8 1.8-4.5 1.8-3.3-.6-4.5-1.8c-1.2-1.1-1.9-2.8-2-4.5s.5-3.5 1.7-4.8c1.2-1.4 2.9-2.3 4.8-2.5-1.9-.2-4 .4-5.5 1.8-1.5 1.3-2.5 3.4-2.6 5.5-.1 2 .6 3.9 1.9 5.4-.9.5-1.7 1.1-2.5 1.7-2.1 1.7-3.9 3.5-5.5 5.5-.7.9-1.4 1.9-1.9 2.9-1.5-1.2-3.4-1.8-5.2-1.5 1.9.2 3.6 1.1 4.8 2.5 1.2 1.3 1.8 3.1 1.7 4.8s-.8 3.3-2 4.5-2.8 1.8-4.5 1.8-3.3-.6-4.5-1.8c-1.2-1.1-1.9-2.8-2-4.5s.5-3.5 1.7-4.8c1.2-1.4 2.9-2.3 4.8-2.5-1.9-.2-4 .4-5.5 1.8-1.3 1.3-2.3 3.3-2.3 5.4-.1 2.1.8 4.3 2.2 5.8 1.5 1.6 3.7 2.5 5.8 2.5 2.2 0 4.3-.9 5.8-2.5.3-.3.5-.6.7-.9 2.5 2.5 7.1 4.9 10.6 5.5-.2.6-.3 1.2-.3 1.8 0 2.2.8 4.3 2.3 5.9z"></path><path d="m36.4 41.4c.3-.2.5-.4.8-.7l1.8-1.7c-.9-.8-2.3-.6-3.1.2-.8.7-1.2 2.1-.5 3.1z"></path></g></svg>