<svg xmlns="http://www.w3.org/2000/svg" id="Layer_1" height="512" viewBox="0 0 73 73" width="512"><g id="_x31_08"><path d="m68.7671204 33.0317154c-.0556641-1.4628925-.1494141-2.7216816-.7353516-3.3134785-1.0749359-1.0864944-3.1415787.2234402-4.3769531 1.0615234-1.3709564.9275227-.6439323.4049759-5.7507935 3.3037128-.0936127-.284729-.1762886-.60952-.6002808-1.0990601-.8854141-1.6612072-2.6877441-1.1897964-3.0844116-1.2661762.1111794-5.3884602.1483536-6.8749218-1.0166626-8.0380859-1.574501-1.5769577-4.4899788-1.0048828-6.5996094-1.0048828-32.4298096.0087738-31.0898705-.3660431-32.5090332.1970215.0159912-.0479126.0302734-.1002197.0464478-.1477661-1.0430298.315918-2.6373291 1.3186646-3.5751953 2.4742432-.3452148.425354-.6005859.9144897-.6005859 1.4622803v18.4077778c-.0145874.4829102-.0224609.9660645-.0332031 1.4490356-.5791016.3536377-1.0881348.7171021-1.2488403.8423462-1.1870313.9248047-2.2008667 2.0744019-2.9692993 3.3681641-.8567505 1.4424438-1.4092407 3.0692749-1.5462646 4.7445679-.3891604 4.756897 2.6033936 9.6140747 7.0499878 11.3482666 6.2905407 2.4533691 14.5787888-1.5883331 14.749939-9.7377319h24.164732c.9117432 0 1.9046631-.2077026 2.6035767-.7995605 1.0921326-.9248009 1.1593552-2.3260231 1.2718506-3.6735229.1365814-.6650352.1009521-3.6474228.1011963-4.96521 1.1657104.0592651 3.0107422-.3892212 3.5178833-1.0930786.348938-.4841919.4699097-1.0728149.5181885-1.6760254.1002007.0679855 7.6178207 4.6800537 8.3414307 4.6800537.8312225 0 1.557663-.54105 1.7177734-1.8115234 1.0006425-7.9457018.5752351-12.8494913.5634782-14.7128908zm-44.3632794 22.6357422c0 4.8642578-3.9580078 8.8222656-8.8222656 8.8222656-4.8652344 0-8.8232422-3.9580078-8.8232422-8.8222656 0-4.8652344 3.9580078-8.8232422 8.8232422-8.8232422 4.8642578 0 8.8222656 3.9580078 8.8222656 8.8232422zm31.6865215-21.5771485v10.4140625c0 .4814453-.3916016.8730469-.8730469.8730469h-1.0991821c.0628853-11.4674072.0170174-9.1591415.0777588-12.1591797h1.0214233c.4814454 0 .8730469.3916016.8730469.8720703zm-40.5009746-10.0205097c18.3716946.0624828 12.6790085.0431232 31.0107403.1054688 2.9571304 0 5.9497147-.81987 6.0966797 2.1113281.1277924 2.5496178.0060387-.6462803-.1064453 25.5468769-.0087891 1.3535156-1.1181641 2.4541016-2.4736328 2.4541016h-24.3161603c-.7954865-5.9143028-6.5608997-10.1377411-12.677002-8.6353149v-10.5531617h23.7851543c.4140625 0 .75-.3359375.75-.75s-.3359375-.75-.75-.75h-23.7851542v-7.0683613c0-.1582699.1636801-.846035.1881714-.946167.1230468-.2950439 1.2359066-1.5147705 2.2776489-1.5147705zm42.5932598 19.0859394c.0070572-7.1646614.0142288-6.8761597-.0148926-7.5014648 3.1429176-1.7702675 4.5819664-2.5408096 5.4680176-3.0859985l-.4107666 13.5725098c-1.7729073-1.049553-5.2659607-3.1174203-5.0423584-2.9850465zm8.5327148 4.4013672c-.0458984.3671875-.1425781.4824219-.1591797.4892578-.3132935.140564-1.2758179-.4690552-1.954895-.9414673.1503906-.2633705.0677185.9410019.5633545-15.5197163.3600464-.2279053.7203369-.437439 1.0975952-.5837402.1494141-.0585938.6035156-.234375.6933594-.2402344.3721161.5046769.8153382 8.4184895-.2402344 16.7959004z"></path><path d="m19.6352863 30.4321041c.9453125-.5888672 1.3007813-1.9150391.7753906-2.8974609-.5273438-.9833984-1.8300781-1.4199219-2.8427734-.9599609-.0888672.0410156-.1660156.0966797-.2294922.1630859-.8153572.2536678-1.4829369 1.9330349-.6455078 3.1064453.6467743.9054832 1.9934216 1.1779327 2.9423828.5878906zm-1.5966797-2.3984375c.0244141-.0195313.046875-.0400391.0673828-.0615234.0283203-.0087891.0566406-.0195313.0849609-.0322266.2949219-.1376953.7431641.0146484.8974609.3027344.1542969.2890625.0322056.7421875-.2460938.9160156-.2783203.1728516-.7382813.0800781-.9287109-.1855469-.1904295-.2675781-.1279295-.7324218.1250001-.9394531z"></path><path d="m26.5708332 30.4321041c.9462891-.5888672 1.3007813-1.9160156.7744141-2.8964844-.5253906-.9824219-1.828125-1.4208984-2.8417969-.9609375-.0888672.0410156-.1660156.0966797-.2304688.1630859-.0878906.0273438-.171875.0722656-.2480469.1337891-.8632813.7050781-1.0449219 2.0673828-.3964844 2.9726563.6488801.9105759 1.99852 1.1747627 2.9423829.5878906zm-1.5966797-2.3984375c.0234375-.0195313.0458984-.0400391.0664063-.0615234.0283203-.0087891.0566406-.0195313.0839844-.0322266.2978516-.1376953.7431641.0146484.8984375.3037109.1552734.2880859.0332031.7412109-.2441406.9150391-.2783203.1728516-.7402344.0810547-.9296875-.1865234-.1914063-.2666016-.1289063-.7314453.1249999-.9384766z"></path><path d="m33.6020813 30.4321041c.9472656-.5878906 1.3027344-1.9140625.7763672-2.8964844-.5253906-.984375-1.8261719-1.4208984-2.8427715-.9609375-.0888672.0410156-.1660156.0966797-.2294922.1630859-.0878906.0273438-.171875.0722656-.2470703.1337891-.8632813.7041016-1.0458984 2.0654297-.3984375 2.9736328.6509399.90765 1.9983615 1.174963 2.9414043.5869141zm-1.5957031-2.3984375c.0244141-.0195313.046875-.0400391.0673828-.0615234.0283203-.0087891.0566406-.0195313.0849609-.0322266.2958984-.1396484.7421875.0146484.8974609.3027344.1542969.2890625.0332031.7431641-.2460938.9160156-.2753906.1708984-.7373047.0800781-.928709-.1855469-.1904296-.2675781-.1279296-.7324218.1249982-.9394531z"></path><path d="m20.4552937 55.2197037-7.3214111-4.1137695c-.3737183-.210022-.8352661.0601196-.8352661.4887695v8.2155151c0 .4284058.4609375.6984863.8346558.4891357l7.3214111-4.1017456c.3818969-.2139282.3822021-.7634887.0006103-.9779052z"></path><path d="m35.02005 40.385231c-.4140625 0-.75.3359375-.75.75v5.9716797c0 .4140625.3359375.75.75.75s.75-.3359375.75-.75v-5.9716797c0-.4140625-.3359375-.75-.75-.75z"></path><path d="m41.2710266 47.8217545c.4140625 0 .75-.3359375.75-.75v-5.9013672c0-.4140625-.3359375-.75-.75-.75s-.75.3359375-.75.75v5.9013672c0 .4140625.3359375.75.75.75z"></path><path d="m28.8657551 40.1342545c-.4140625 0-.75.3359375-.75.75v6.4736328c0 .4140625.3359375.75.75.75s.75-.3359375.75-.75v-6.4736328c0-.4140625-.3359375-.75-.75-.75z"></path><path d="m52.0913391 18.4428463c-.7348785.2242012-1.3002052 1.4141102-.8027344 2.3515625.2998047.5664063.9228516.9033203 1.5488281.9033203 1.231926 0 1.9763069-1.3053627 1.5644531-2.3417969-.3952483-.9970302-1.6881408-1.3200397-2.3105468-.9130859zm.8056641 1.7441406c-.0810547.0380859-.2412109-.0146484-.2832031-.0947266-.0429688-.0800781.0029297-.2421875.0800781-.2880859.0068359-.0039063.0126953-.0087891.0195313-.0126953.0078125-.0019531.0146484-.0048828.0224609-.0068359.0878906-.03125.2392578.0410156.2714844.125.0341796.0839843-.0283204.2392578-.1103516.2773437z"></path><path d="m56.3716125 17.9760494c.1455078.2148438.3818359.3310547.6230469.3310547.5935707 0 .9584236-.6693554.6210938-1.1689453-1.7587891-2.6083975-5.2958984-3.6279287-7.71875-2.225585-.359375.2070313-.4814453.6660156-.2744141 1.0244141.2060547.359374.6650391.4824209 1.0244141.2744131 1.7382812-1.0078116 4.4140625-.1796875 5.7246093 1.7646484z"></path><path d="m60.0493469 15.6684332c.1455078.2128906.3808594.328125.6210938.328125.5952721 0 .9601669-.6724653.6191406-1.171875-1.4726563-2.1630859-4.0673828-3.859375-6.7714844-4.4277344-2.5068359-.5234375-5.2382813.0429688-7.4882813 1.5605469-.3427734.2324219-.4335938.6982422-.2021484 1.0419922.2333984.3408203.6972656.4335938 1.0419922.2021484 1.9150391-1.2919922 4.2285156-1.7783203 6.3408203-1.3359375 2.3388672.4902344 4.5761719 1.9482422 5.8388672 3.8027344z"></path><path d="m44.964386 9.767066c6.3955345-5.2157497 14.8426704-2.680922 18.4082031 3.84375.1367188.25.3935547.390625.6591797.390625.5617905 0 .9316406-.6065102.6572266-1.109375-3.9842262-7.2922616-13.4975662-10.1382523-20.671875-4.2871094-.3212891.2617188-.3691406.734375-.1074219 1.0546875.2626953.3232422.7363281.3671875 1.0546875.1074219z"></path></g></svg>