<svg xmlns="http://www.w3.org/2000/svg" id="Layer_1" height="512" viewBox="0 0 53 53" width="512"><g><path d="m44.6 34.9c-1-.6-2.1-1.1-3.2-1.4 1.5-.9 2.8-2.3 3.6-4 .5-1 .7-2.1.8-3.2 0-1.1-.1-2.2-.5-3.3-.7-2.1-2.2-4-4.2-5-1.7-.9-3.6-1.2-5.4-.9-.2-3.2-1.7-6.3-4-8.4-2.5-2.2-5.8-3.5-9-3.2 3.3.2 6.3 1.6 8.4 3.9s3.2 5.3 3.2 8.3c-.1 3-1.3 5.9-3.5 8-2.1 2.1-5 3.3-8 3.3s-5.9-1.2-8-3.2c-2.1-2.1-3.4-5-3.5-8s1-6 3.1-8.3 5.1-3.7 8.3-3.9c-3.2-.2-6.5 1-9 3.2-2.4 2.3-4 5.6-4 9-.1 4.1 1.9 8.4 5.7 11-3.5 1.2-6.6 3.3-9 6.2-2.7 3.1-4.4 7.2-4.7 11.5v.1c0 .5.4.9.8.9 6.8.1 13.5.1 20.3.1s13.5 0 20.3-.1h.1c.4 0 .7-.3.8-.7 2.2.4 4.4.6 6.6.7h.1c.4 0 .8-.4.8-.8v-.1c0-1.5-.3-3.1-.9-4.6-1.2-2.9-3.2-5.5-6-7.1zm2 4.2c.8 1.1 1.5 2.3 2 3.5.4 1 .7 2.1.9 3.1-1.9.1-3.8.3-5.7.6-.4-4.2-2.1-8.3-4.8-11.5-.1-.1-.2-.3-.4-.4.2 0 .4-.1.6-.1.3-.1.6-.2.9-.3 1.3.6 2.5 1.3 3.5 2.1 1.2 1 2.2 1.9 3 3zm-10.8-21.4c0-.1 0-.2 0-.3 1.7.2 3.3.8 4.6 1.8 1.5 1.1 2.5 2.7 3.1 4.4.2.9.4 1.7.4 2.6s-.2 1.8-.5 2.6c-.6 1.7-1.7 3.3-3.3 4.4l-.9.6c-.2.1-.4.2-.6.3-2.3-2.5-5.2-4.4-8.4-5.5 3.7-2.5 5.7-6.8 5.6-10.9zm-32.3 28c.1-1.7.5-3.3 1.1-4.9.7-1.9 1.7-3.6 2.8-5.2 2.2-2.9 5.2-5.2 8.7-6.6 2 1.2 4.3 1.9 6.7 1.9 2.3 0 4.7-.7 6.7-1.9 3.4 1.4 6.5 3.7 8.7 6.6 1.2 1.6 2.2 3.3 2.9 5.2.6 1.6.9 3.2 1.1 4.8-6.4-.1-12.9-.1-19.3-.1-6.6.1-13 .1-19.4.2z"></path></g></svg>