<svg xmlns="http://www.w3.org/2000/svg" id="Layer_1" height="512" viewBox="0 0 73 73" width="512"><g id="_x32_84"><path d="m14.1574974 31.2829323c-.0643311.0075073-.1193237.0354614-.177124.0578003-.0211182-.0036621-.0384521-.0158691-.0601807-.0177612-.357605-.0362549-.6638184.1960449-.7676392.5244141-.4694824.2346802-.9001465.548584-1.2285767.9580688-.0803833 4.8469849 2.0253906 9.6322632 5.5352173 12.9760742 2.7476311 2.6176682 6.0137157 4.0211296 9.7522583 4.7600098-.0043945.0229492-.0175781.0419312-.0197754.0656128-.3248291 3.6401367-.4074707 7.3248291-.2741699 10.9796143-2.9017239.3657379-7.2242107 1.5423546-5.3969727 3.7872353.6585045 1.3899918 2.1842003 1.8063965 3.635498 2.0793457 5.5686035 1.0473022 11.3276367 1.3361206 16.8337402-.0616455.925415-.2349243 2.0537109-.8291016 1.9726563-1.8812256-.0603027-.7837524-.7849121-1.2620239-1.4326172-1.5773354-.9624023-.4683228-1.9521484-.8640137-2.9577637-1.2011719-1.1629639-.6065674-2.8679199-.9432983-4.3181152-1.1287842v-11.1192017c2.5005264-.7939148 4.3259621-1.36092 6.6506348-2.9998779 5.4726563-3.859375 8.7666016-10.7822266 8.390625-17.6367188-.0234375-.4130859-.3984375-.7480469-.7900391-.7080078-.4140625.0224609-.7304688.3769531-.7080078.7900391.0002441.0048828 0 .0097656.0002441.0146484h-5.4483643c.6273003-5.3808956.6677132-15.7591867-1.413208-20.7060547-1.4023435-3.3388662-4.0693357-4.2421865-7.4091795-5.0751944-4.5585938-1.1386719-9.0322266-.0429688-11.6699219 2.8603516-2.3740234 2.6113281-3.6425781 6.7226563-3.8789063 12.5703115-.1608353 3.9942455-.2019482 8.0211945.0393677 11.9891968-1.5935668-.3834228-3.2277831-.4918823-4.8596801-.2997436zm20.5396729 31.7634277c3.0609131.3505249 4.5941162 1.05933 4.739624 1.3547401-.2304688.5712891-3.3154297 1.6386719-8.3935547 1.6386719s-8.1630859-1.0673828-8.3935547-1.5712891c.1140137-.2855225 1.3800049-.9813881 4.3237305-1.3709145.0688133 1.2176323 1.5531654.9678688 1.5024414.0349731-.2268066-4.1014404-.1569824-8.2570801.2072754-12.3540039 1.5212822.1764984 2.7458935.1554832 4.0720215.0292358-.0015411.2812767-.0123367 2.4305229-.0625 12.3491821-.0028267.5991859.682373.9951973 1.2055664.5848999v.1034546zm-14.2213135-43.392334c.2216797-5.4804678 1.3632813-9.2822256 3.4902344-11.6220694 2.2324219-2.4550781 6.234375-3.4052734 10.1972656-2.4140625 3.1210938.7792969 5.2519531 1.4921875 6.3896484 4.2011719 1.6828728 4.0032206 1.7741928 11.6027403 1.6077881 15.9589834h-21.8114014c-.0023193-1.8947143.038086-3.9144286.1264649-6.1240234zm21.6113281 7.6240235c-.285202 4.4530258-1.4538689 12.2062531-5.140625 14.7490234-3.3913574 2.3377495-8.6939945 1.9303589-12.0488281-.3388672-3.1611328-2.1386719-4.0039063-5.1152344-4.296875-8.9267578-.1330566-1.7281494-.2109375-3.5412598-.2397461-5.4833984zm-22.9628296 5.8255005c.2981567 3.6002808 1.1382446 7.2596436 4.9335327 9.8268433 3.8948421 2.6367073 9.8658562 3.0039406 13.7402344.3310547 2.1494141-1.4824219 3.2021484-3.8857422 3.8066406-5.5644531.7419434-2.0603027 1.2327881-4.1608276 1.5546875-6.2683105.2444344.0260296 3.6252213.0108547 5.6496582.0153809-.1679688 5.8371582-3.1108398 11.5289307-7.7697754 14.8134766-5.1796875 3.6552734-12.3476563 4.1865234-17.8349609 1.3242188-5.4244385-2.8297729-8.8995361-8.8577881-8.6330566-14.8255005 2.7221355-.2679675 4.1273059.3743207 4.5530395.3472898z"></path><path d="m24.1233177 14.6237535c-.1318359-.3925781-.5517578-.6035156-.9492188-.4746094-.3925781.1318359-.6054688.5556641-.4746094.9492188.1004581.1802349.1465816 1.0126944.8789063 1.0126944.509304 0 .874054-.4996748.7119141-.9873037z"></path><path d="m28.7444115 7.2780504h-.8330078c-.4140625 0-.75.3359375-.75.75s.3359375.75.75.75h.8330078c.4140625 0 .75-.3359375.75-.75s-.3359375-.75-.75-.75z"></path><path d="m37.9416771 19.8307838c-.2929688-.2929688-.7675781-.2929688-1.0605469 0s-.2929688.7675781 0 1.0605469l.1669922.1669922c.2930756.2930756.7675667.2929802 1.0605469 0 .2929688-.2929688.2929688-.7675781 0-1.0605469z"></path><path d="m27.5481224 20.3073463-.3398438.3261719c-.4878578.4671326-.1539021 1.2919922.5185547 1.2919922.4396801 0 .6153355-.340929.8583984-.5341797.2988281-.2861328.3095703-.7617188.0234375-1.0605469-.2871093-.3007812-.7617187-.3095703-1.0605468-.0234375z"></path><path d="m32.0783958 12.444066c-1.0037918 0-1.0053005 1.6669922 0 1.6669922 1.0037919 0 1.0053025-1.6669922 0-1.6669922z"></path><path d="m35.8713646 7.3171129c-.3007813-.0507813-.6523438.1025391-.8144531.3613281-.1630859.2597656-.1474609.6914063.0332031.9394531.4597473.6325388 1.5010109.2770672 1.3984375-.5205078.0214844-.3730468-.2392578-.7128906-.6171875-.7802734z"></path><path d="m38.9114037 13.2780504c-.4140625 0-.75.3359375-.75.75v.1660156c0 .4140625.3359375.75.75.75s.75-.3359375.75-.75v-.1660156c0-.4140625-.3359375-.75-.75-.75z"></path><path d="m46.3782005 50.0495338c-.3631058-.2166405-.895771-.1177406-1.0725098.4171753l-.989502.989563c.0786133 5.500061.0351563 11.3223267.1138916 16.8223915.3052979.1455078.5866699.305481.8682861.4651489.1561356.5030823.632679.6257629.9831543.4766235 6.8017578-2.8203125 9.3759766-4.5039063 14.4902344-8.2548866.4079475-.297245.4113083-.9135056-.0058594-1.2138672-5.6158789-4.0533103-8.5342978-6.2209739-14.3876952-9.7021484zm.366211 17.3505898v-15.3818398c4.9107437 2.9704514 7.6121902 4.957386 12.3076172 8.3466797-4.3017579 3.1308594-6.75 4.6748085-12.3076172 7.0351601z"></path></g></svg>