<svg xmlns="http://www.w3.org/2000/svg" id="Capa_1" height="512" viewBox="0 0 490.082 490.082" width="512"><g><path d="m122.985 226.829c27.111-1.237 47.43-40.494 25.887-60.189-4.335-4.431-16.646-6.929-17.084 1.645-10.808-9.161-26.849-8.449-36.802 1.635-12.871 13.512-12.352 34.9 1.16 47.771 7.173 6.833 16.985 10.174 26.839 9.138zm-22.418-46.059c6.839-7.734 17.571-10.752 27.439-7.717 1.865.406 3.707-.777 4.113-2.642.002-.011.005-.023.007-.034 2.728 5.627 9.946 5.743 12.187 12.855 4.336 13.402-3.013 27.783-16.416 32.119-1.028.333-2.077.6-3.139.799-12.53 2.644-24.83-5.37-27.474-17.899-1.273-6.032-.092-12.322 3.283-17.481z"></path><path d="m229.557 222.181c19.451-6.443 37.227-28.819 22.983-48.358-4.85-7.222-13.645-10.713-22.127-8.784-5.135 1.137-4.29 8.049 0 9.582 22.07 7.667 19.475 28.74-.866 36.663-8.35 4.831-18.753 4.338-26.609-1.26-16.398-15.508.843-37.806 20.795-32.682 1.77.428 3.552-.661 3.98-2.431.333-1.378-.252-2.814-1.452-3.567-11.851-7.521-27.524-4.363-35.538 7.16-18.312 26.721 10.436 56.383 38.834 43.677z"></path><path d="m299.049 222.546c24.443 10.539 62.22-7.116 60.297-36.362-.698-14.705-18.27-29.115-32.029-20.076-3.587 2.524-2.792 9.475 2.461 9.085 7.863-1.384 15.645 2.819 18.8 10.153 2.224 9.436-2.073 19.203-10.531 23.94-16.049 10.458-46.589 9.942-41.965-16.289 2.02-11.256 11.974-19.338 23.405-19.002 2.835.207 2.899-3.711.623-4.604-32.619-12.212-49.385 38.343-21.061 53.155z"></path><path d="m122.985 298.829c18.215-2.122 32.509-16.614 34.382-34.856 4.57-5.159 8.833-10.582 12.767-16.241.964-1.667.541-3.79-.99-4.959-5.1-2.884-8.977 4.671-12.667 7.284-2.737-8.883-12.218-18.682-22.108-14.392-1.754.836-2.788 2.688-2.581 4.62-10.808-9.161-26.849-8.449-36.802 1.635-12.871 13.512-12.351 34.9 1.161 47.771 7.173 6.833 16.984 10.174 26.838 9.138zm-22.418-46.059c6.839-7.734 17.571-10.752 27.439-7.717 1.865.406 3.707-.777 4.113-2.642.002-.011.005-.023.007-.034 1.214 3.459 5.117 4.63 7.624 6.633 3.633 3.157 5.803 7.671 6.001 12.48-2.675 2.888-5.138 6.137-7.99 8.804-4.486-3.295-5.416-9.263-10.114-12.405-1.922-1.04-4.323-.325-5.363 1.597-.81 1.497-.572 3.345.592 4.587 1.227 1.831 2.071 3.891 2.482 6.057 1.372 6.144 6.897 10.46 13.19 10.306-19.192 21.118-54.214-2.766-37.981-27.666z"></path><path d="m229.557 294.181c19.451-6.443 37.227-28.819 22.983-48.358-4.85-7.222-13.645-10.713-22.127-8.784-5.135 1.137-4.29 8.049 0 9.582 22.07 7.667 19.475 28.74-.866 36.663-8.35 4.831-18.753 4.338-26.609-1.26-16.398-15.508.843-37.806 20.795-32.682 1.77.428 3.552-.661 3.98-2.431.333-1.378-.252-2.814-1.452-3.567-11.851-7.521-27.524-4.363-35.538 7.16-18.312 26.721 10.436 56.383 38.834 43.677z"></path><path d="m299.049 294.546c24.443 10.539 62.22-7.116 60.297-36.362-.698-14.705-18.27-29.115-32.029-20.076-3.587 2.524-2.792 9.475 2.461 9.085 7.863-1.384 15.645 2.819 18.8 10.153 2.224 9.436-2.073 19.203-10.531 23.94-16.049 10.458-46.589 9.942-41.965-16.289 2.02-11.256 11.974-19.338 23.405-19.002 2.835.207 2.899-3.711.623-4.604-32.619-12.212-49.385 38.343-21.061 53.155z"></path><path d="m154.558 354.71c4.935-11.69 4.99-27.523-5.688-36.069-4.333-4.428-16.644-6.934-17.083 1.644-10.808-9.161-26.849-8.449-36.802 1.635-10.145 10.334-12.494 26.02-5.819 38.872 14.302 27.372 55.202 21.979 65.392-6.082zm-54.146 3.652c-12.487-19.813 6.559-39.599 27.594-33.308 1.866.406 3.707-.778 4.113-2.644.002-.011.005-.022.007-.033 1.214 3.46 5.117 4.629 7.624 6.633 14.035 12.463 1.884 36.735-14.992 39.14-9.318 1.647-18.762-2.149-24.346-9.788z"></path><path d="m229.557 374.181c19.451-6.443 37.227-28.819 22.983-48.358-4.85-7.222-13.645-10.714-22.127-8.784-5.135 1.137-4.29 8.049 0 9.582 22.07 7.667 19.475 28.74-.866 36.663-8.35 4.831-18.753 4.338-26.609-1.26-16.398-15.508.843-37.806 20.795-32.682 1.77.428 3.552-.661 3.98-2.431.333-1.378-.252-2.814-1.452-3.567-11.851-7.521-27.524-4.363-35.538 7.16-18.312 26.721 10.436 56.383 38.834 43.677z"></path><path d="m319.379 414.707c-8.656-2.379-17.704-2.981-26.599-1.77-31.93.017-63.856.535-95.786.698-21.719-.873-43.473-.28-65.113 1.773-11.758-.899-13.874 17.858-7.863 25.527 10.734 13.697 33.486 10.671 48.726 11.156 23.027.732 46.073 1.407 69.112.952 22.509-1.359 46.385-.101 68.192-6.188 2.535-.788 3.951-3.482 3.163-6.017-.608-1.955-2.388-3.311-4.434-3.377-8.863.269-17.699 1.123-26.449 2.556 4.44-2.058 8.26-5.246 11.08-9.245 1.002-1.844.32-4.152-1.525-5.155-.828-.45-1.794-.576-2.71-.354-8.219 2.47-13.482 10.368-19.824 15.759-7.747.734-15.514 1.063-23.292 1.244 9.433-4.782 18.183-10.806 26.016-17.911 12.416.437 24.879-.001 37.285.478 9.764.463 6.155 7.663 4.539 14.679-1.438 6.244 7.653 10.785 10.795 4.551 4.758-9.438 5.879-24.096-5.313-29.356zm-189.105 15.877c-.857-5.203 3.442-6.247 5.875-9.527 12.123 1.116 24.294 1.62 36.467 1.51-9.582 5.495-18.861 11.502-27.796 17.996-5.895-.816-13.154-3.547-14.546-9.979zm30.072 10.803c-2.521-.1-5.208-.118-7.916-.181 11.645-5.033 22.75-11.232 33.146-18.502 10.579.185 21.157.384 31.734.596-10.547 5.968-20.852 12.099-30.745 19.008-8.741-.255-17.481-.562-26.219-.921zm88.525-11.749c-5.95 3.955-11.622 8.315-16.974 13.047-10.286.151-20.575.202-30.858-.085 11.433-4.904 22.169-11.294 31.93-19.005 7.931.158 15.862.295 23.794.462-2.675 1.789-5.273 3.732-7.892 5.581z"></path><path d="m221.057 44.393.147.207c-.112-.208-.16-.275-.147-.207z"></path><path d="m151.796 76.843c-2.965-.016-6.165.545-9.235.658-2.946.736-1.752 3.862 1.59 3.511-5.11 6.122-5.387 14.94-.671 21.37 8.479 12.732 25.46 12.525 38.982 12.328 38.348-.561 76.689-1.971 115.025-3.066 3.394-.107 6.058-2.945 5.951-6.338-.014-.458-.08-.913-.196-1.356 1.103.227 2.25-.024 3.157-.691 9.406-6.286 4.935-19.993-3.593-24.98-14.83-6.967-32.265-2.753-48.151-3.786-34.379.043-68.614-.361-102.859 2.35zm.981 4.906c11.966 1.022 23.919 1.72 35.86 2.093-11.501 3.875-22.152 9.923-31.372 17.815-6.232-2.019-9.648-8.707-7.629-14.939.614-1.894 1.694-3.603 3.141-4.969zm18.286 22.55c-2.095-.046-4.186-.215-6.261-.508 7.026-3.936 14.27-7.469 21.697-10.581 2.843-2.011 12.185-4.659 8.07-9.207 10.099.27 20.228.453 30.386.549-10.586 4.496-20.262 10.886-28.553 18.856-8.46.539-16.934 1.047-25.339.891zm96.405-19.325c7.74.076 39.288-3.392 32.648 11.998-.345.849-.454 1.775-.316 2.681-.738-.279-1.524-.41-2.312-.385l-31.923 1.216c4.395-2.619 8.29-5.997 11.505-9.977.745-1.285.631-2.893-.286-4.061-.915-1.151-2.416-1.663-3.843-1.311-9.688 3.594-18.578 9.052-26.168 16.064l-31.584 1.203c10.659-7.451 24.778-9.156 34.487-17.603 5.93.058 11.861.117 17.792.175z"></path><path d="m235.28.23c-5.332-1.686-5.138 6.362-5.861 9.674-18.107-.654-36.212-1.241-54.285-2.602-.799-2.138-3.18-3.222-5.318-2.423-.924.345-1.693 1.01-2.17 1.873-11.287-.903-22.586-1.81-33.869-2.274-1.129-5.463-6.874-5.546-8.555-.298-37.571-2.555-57.134 26.064-60.365 60.462-5.702 41.012-7.514 83.085-10.144 124.393-4.889 64.631-4.951 129.536-.184 194.176 4.643 31.146-1.187 76.917 32.837 92.38 15.611 6.424 34.415 6.423 50.968 8.198 48.457 5.117 97.193 7.117 145.907 5.989 23.056-.495 46.3-1.296 69.21-4.086 17.199-2.094 34.769-5.873 43.423-22.237.803-1.674.585-3.659-.562-5.119.566-1.819.962-3.687 1.185-5.58 7.051 3.771 15.823 1.112 19.594-5.938.738-1.379 1.247-2.868 1.508-4.41 2.577.537 5.21-.626 6.548-2.893 22.632-28.732 10.925-65.488 10.785-98.697-.082-38.085-.819-76.162-.824-114.253-.004-38.067.751-76.168 1.881-114.218.342-11.522 10.049-73.905-18.104-63.583-3.124-12.941-10.327-22.672-26.438-20.961-8.041-18.511-29.773-18.243-47.145-17.254-1.323-7.363-9.982-5.998-12.04.213-14.234.35-28.474.38-42.712.308.749-3.292-1.312-6.569-4.605-7.318s-6.569 1.312-7.318 4.605c-.197.864-.203 1.761-.019 2.628-13.935-.117-27.868-.346-41.794-.854.347-3.297 1.619-7.61-1.534-9.901zm-4.992 45.272c-2.681 2.2-6.639 1.811-8.839-.871-1.652-2.014-1.891-4.838-.598-7.1-.125 3.058 2.252 5.639 5.311 5.765 1.656.068 3.255-.609 4.359-1.844 2.002 1.295 1.435 2.803-.233 4.05zm-7.954.206-.026-.023c.218.187.417.377.026.023zm8.968-3.625c.022.114-.141-.062-.321-.26zm.223.195c.08.08.115.127.114.148zm-60.854-.151c2.097 1.539 2.549 4.487 1.01 6.584-.814 1.109-2.072 1.806-3.443 1.909-3.724.761-6.347-3.834-6.323-7.156.428-2.1 1.594-3.976 3.286-5.29.373.739 1.153 1.182 1.978 1.124 1.113 1.004 2.278 1.948 3.492 2.829zm.993 1.019c.177.191.122.135 0 0zm-6.694 6.754c-.169-.109-.301-.203-.299-.235zm-2.998-6.861-.059.413c-.013-.14.008-.282.059-.413zm-31.243 7.589c-4.058 2.053-9.013.428-11.066-3.63s-.428-9.013 3.63-11.066c.019-.01.038-.019.057-.028.474 2.469 2.859 4.087 5.328 3.613 1.944-.373 3.425-1.96 3.662-3.925 3.883 2.964 4.627 8.515 1.663 12.398-.864 1.129-1.986 2.035-3.274 2.638zm-6.681.166c-.132-.023-.257-.077-.364-.158zm169.923 424.186c-56.42 2.538-112.946 1.324-169.206-3.634-16.639-1.642-38.341-1.424-47.89-17.794-8.461-14.503-8.829-34.584-10.671-50.796-2.142-18.847-3.491-37.795-4.362-56.741-2.259-69.669-.179-139.411 6.226-208.821 52.484 7.647 105.978 6.485 158.896 9.506 27.492.796 55.017.826 82.514.3 27.259.32 54.512-1.08 81.595-4.191.976-.118 1.853-.654 2.403-1.468-2.098 105.363 5.491 211.337-3.734 316.365-27.025 18.259-64.569 15.734-95.771 17.274zm137.31-374.436c-7.441 79.223-8.442 158.919-2.991 238.304 1.344 15.472 1.936 30.753 2.054 46.288.104 13.638-.152 32.299-10.551 42.679-.037-125.407 4.88-249.293-.043-374.753 21.211-3.361 12.47 36.793 11.531 47.482zm-15.344-23.781c-4.291 120.325-5.545 242.453-12.052 362.393-1.266-.721-2.734-1.006-4.178-.81 6.283-101.395 4.317-203.701 6.73-305.379 1.083-15.135.931-30.334-.457-45.444-.6-2.756-3.228-4.581-6.02-4.18 1.694-16.557.042-33.285-4.859-49.191 19.326 1.075 21.464 27.646 20.836 42.611zm-72.739-38.37c.122.198.572 1.092.419.679.067.181.118.369.167.555.022.084.148.854.104.446-.033-.305-.132 1.417-.019.835-2.329 9.861-17.282 10.776-18.819 1.117.165.864.053-.651.031-.889.263-2.041 1.551-3.806 3.415-4.679-.61.309.061.004.584-.232.348 3.348 3.344 5.78 6.692 5.432 2.434-.253 4.48-1.937 5.197-4.276-.664 1.59.044-.104.177-.381.584.233 1.128.555 1.613.954.186.212.838 1.088.439.439zm-52.311-1.876c8.583 7.195-1.37 18.31-10.534 14.628-6.809-1.515-10.101-11.726-2.325-14.082 2.238 6.099 9.108 3.568 9.987-2.059.993.437 1.952.942 2.872 1.513zm-13.155-16.419c-.376 4.087-.522 8.192-.436 12.296-12.542.587-11.769 17.5-1.704 21.639 8.67 4.17 19.079.522 23.249-8.148.942-1.958 1.509-4.076 1.672-6.243.119-6.423-4.802-11.819-11.209-12.291.241-2.397.473-4.794.716-7.19 13.313.038 26.626-.042 39.938-.238-.659 2.982-1.11 6.007-1.348 9.052-14.054.812-15.54 20.868-3.077 26.002 15.817 8.316 38.044-16.843 17.594-25.956.679-3.183 1.16-6.406 1.442-9.648 16.966-.949 35.515-1.391 42.705 16.513 13.173 31.815 3.857 67.304 6.222 100.715-.67-1.366-2.05-2.24-3.571-2.263-27.418-.106-54.995 3.148-82.413 4.133-53.674 2.196-107.427 1.587-161.038-1.826-25.899-2.109-51.825-6.239-77.815-6.926 5.92-40.71-5.331-118.241 55.099-116.333-.705 6.174-1.019 12.387-.942 18.601-12.01.766-13.819 17.779-4.706 23.778 6.064 4.176 14.365 2.645 18.541-3.418s2.645-14.365-3.418-18.541c-.098-.068-.198-.134-.298-.199.906-6.553 1.382-13.159 1.425-19.774 10.589.983 20.785 1.565 31.32 2.127-1.039 5.567-1.353 11.245-.936 16.892-7.031 1.455-11.551 8.334-10.095 15.365 1.455 7.031 8.334 11.551 15.365 10.096s11.551-8.334 10.096-15.365c-.677-3.27-2.585-6.154-5.331-8.054-.053-.378-.403-.641-.781-.588-.088.012-.173.042-.25.087-1.019-.424-2.114-.635-3.218-.621 2.13-5.56 3.542-11.369 4.201-17.286 17.366 1.14 34.741 2.076 52.14 2.541-.92 2.463-1.958 4.916-2.953 7.388-20.781.912-16.764 29.968 2.319 30.942 7.543.718 14.651-3.638 17.435-10.685 2.419-6.093-.559-12.993-6.652-15.412-.778-.309-1.587-.535-2.412-.674.63-3.718 1.061-7.467 1.294-11.23 13.939.401 27.883.619 41.83.742z"></path><path d="m372.15 303.055c-7.904 5.133-14.962 11.464-20.922 18.765-6.041-6.824-16.084-8.383-23.91-3.712-3.587 2.524-2.792 9.475 2.46 9.084 4.627-.429 9.27.625 13.258 3.009-5.486 5.592-10.809 11.127-16.36 16.682-1.244-1.73-1.774-4.332-2.897-6.329-.708-2.347-3.185-3.675-5.531-2.966-1.423.43-2.537 1.543-2.966 2.966-1.076 3.859-.773 7.972.857 11.632 1.586 3.383 4.509 5.954 8.067 7.094 11.188 2.75 17.693-10.217 25.078-16.307-.493 27.61-59.458 37.182-53.202 2.024 2.02-11.256 11.975-19.338 23.406-19.003 2.835.207 2.899-3.711.623-4.604-13.195-5.038-27.976 1.576-33.013 14.771-.14.367-.272.737-.395 1.11-5.716 13.767-.458 29.642 12.346 37.275 25.534 11.36 66.807-9.779 59.437-40.726 4.837-6.159 28.238-22.595 19.6-30.346-1.733-1.272-4.042-1.435-5.936-.419z"></path></g></svg>