<svg xmlns="http://www.w3.org/2000/svg" id="Layer_1" height="512" viewBox="0 0 68 68" width="512"><g id="_x37_4"><path d="m15.7231941 28.7435226 2.8930664-2.8930664v10.7363281h-2.6469727c-.4140625 0-.75.3359375-.75.75s.3359375.75.75.75h6.5029297c.4140625 0 .75-.3359375.75-.75s-.3359375-.75-.75-.75h-2.355957v-12.546875c0-.3032227-.1826172-.5766602-.4628906-.6928711-.2797852-.1166992-.6025391-.0522461-.8173828.1625977l-4.1733398 4.1733398c-.2929688.2929688-.2929688.7675781 0 1.0605469s.7675781.2929688 1.0605468 0z"></path><path d="m26.7876472 28.6463547 2.8930664-2.8930664v10.7358398h-2.6469726c-.4140625 0-.75.3359375-.75.75s.3359375.75.75.75h6.5029297c.4140625 0 .75-.3359375.75-.75s-.3359375-.75-.75-.75h-2.355957v-12.5463867c0-.3032227-.1826172-.5766602-.4628906-.6928711-.2792969-.1166992-.6030273-.0517578-.8173828.1625977l-4.1733398 4.1733398c-.2929688.2929688-.2929688.7675781 0 1.0605469s.767578.2929687 1.0605467 0z"></path><path d="m38.4502449 45.8133469c0 6.4033203 5.2094727 11.6123047 11.6123047 11.6123047s11.6123047-5.2089844 11.6123047-11.6123047-5.2094727-11.6123047-11.6123047-11.6123047-11.6123047 5.2089844-11.6123047 11.6123047zm11.6123047-10.1123047c5.5761719 0 10.1123047 4.5361328 10.1123047 10.1123047s-4.5361328 10.1123047-10.1123047 10.1123047-10.1123047-4.5361328-10.1123047-10.1123047 4.5361328-10.1123047 10.1123047-10.1123047z"></path><path d="m48.0454597 51.3338547 1.3261719.5410156c.5258293.2148552.8400307-.2074242 1.75-.6357422.3642578-.1972656.5-.6523438.3027344-1.0166016-.1930542-.3564453-.6320801-.4874878-.9921875-.3110352-.000164-.102684-.0055618-3.2660522-.005249-3.0674438.811554-.2653503 1.1940842-1.1108856 1.0219727-1.871582l3.652771-3.725769.0023804.0422363c.0229492.3994141.3535156.7080078.7485352.7080078.4345627 0 .773243-.3648529.7495117-.7919922l-.1020508-1.8164063c-.0239258-.4130859-.3603516-.7392578-.7890625-.7070313l-1.4736328.0771484c-.8223457.0427208-.9711456 1.185791-.2263184 1.4570313l-3.5848389 3.6564941c-.0821533-.0256958-.1655884-.0489502-.2528076-.0617676-.1230469-.0605469-.2661133-.0908203-.4091797-.0722656-1.3275566.1403465-2.0419807 1.9640083-.7790527 2.8694458-.0995979.2640953-.0313835.1401367-.0529785 3.4677734l-.3183594-.130188c-.3867188-.1582031-.8212891.0273438-.9785156.4101563-.1567384.3837892.0268554.8212892.4101561.9785158zm1.7827149-5.9824219c.0151367-.015625.0297852-.03125.0439453-.0478516.0165405-.0092773.0467529-.0109863.0741577-.0105591.0153809.0198975.0240479.0429077.041687.0614624-.0054321.0318604-.0147095.0629272-.0245361.0721436-.0415039.0117188-.1220703-.0332031-.1362305-.0605469-.0004883-.0048828 0-.0097656.0009766-.0146484z"></path><path d="m60.16399 34.8662643c-.7069092-.4907837-2.6708984-1.9891968-4.0177612-2.3911743-1.3580933-.6143799-2.821106-1.0321655-4.3586426-1.2116089v-18.1266479c0-1.965662-1.4804649-2.8163738-2.005188-3.4907227-.2495728-.6217651-.8482666-1.0617676-1.5474854-1.0617676h-4.8810425c-.3425903-1.4966431-1.3504639-2.6505127-2.5535278-2.8427734-1.4067383-.2182617-2.8051758.9135742-3.2651367 2.6455078-.0175781.0664063-.0123291.1317139-.0117798.1972656h-8.5818481c-.3743286-1.458252-1.43396-2.6104126-2.6553955-2.7949219-1.4555664-.2163086-2.9111328.9140625-3.3930664 2.6367188-.0148926.0531006-.008606.1052856-.0117188.1582031h-9.2147827c-.3867798-1.484436-1.5274048-2.6609497-2.8418579-2.8447266-1.53125-.2202148-3.0693359.9135742-3.5869141 2.6225586-.022522.0742798-.0216675.1484375-.0211182.222168h-3.614624c-.9228516 0-1.6733397.7685547-1.6733397 1.7133789v33.890625c0 .4779663.1956786.9091797.5078124 1.2189941.4520264.6712646 1.0067749 1.3382568 1.4386597 1.8859253.6814928.8642883 1.6491923.6423187 1.8502197.6754761h29.5488281c.2321777 3.6360474 1.8873291 7.282959 4.4329834 9.8901978 8.4380341 8.6423111 23.8368568 4.0071487 26.1203651-8.453186 1.0009919-5.4622803-1.12088-11.3857384-5.663639-14.5394898zm3.2261963 11.117981c0 7.3447266-5.9794922 13.3193359-13.3295898 13.3193359-7.3436432 0-13.6336899-6.0361633-13.2994385-14.0350342.3578491-6.795105 5.7528687-12.210144 12.5509033-12.5948486.0178223-.0009766.0324707-.010498.0499268-.0126953l.0013428.0107422c8.0688514-.3051262 14.0268554 6.0213699 14.0268554 13.3125zm-14.8740234-14.7509766c-6.9912109.7285156-12.4995117 6.2578125-13.1992188 13.2480469-33.5387268-.19207-31.8881836.1126747-31.8881836-.2929688v-26.7045898l45.0154419-.1577759zm-7.9526367-24.0102539c.4470825.0713501.9592285.6004639 1.2280884 1.3613281h-2.7435913c.2905273-.852478.9381103-1.4541625 1.5155029-1.3613281zm-14.5014649.0498047c.5286255.0797119 1.0291138.6139526 1.3048096 1.3115234h-2.9419556c.3223267-.8302612 1.0131836-1.404541 1.637146-1.3115234zm-15.4453125-.0478515c.6011963.0839844 1.1703491.6396484 1.4703979 1.359375h-3.3318481c.3516235-.873108 1.1347656-1.456543 1.8614502-1.359375zm-7.0146484 2.859375h8.6732788c-.0634766.4782715-.2312012.9376221-.475647 1.3079834-1.1977835-.5440054-2.5345459.3415365-2.5345459 1.6329346 0 .9907227.8056641 1.7963867 1.7963867 1.7963867 1.1391792 0 2.0492725-1.0761461 1.7263794-2.2637939.5494995-.6642456.9086304-1.5470581.9918823-2.4735107h13.7828979c-.0505371.4812012-.194397.947937-.4124146 1.3253174-1.2135811-.4496012-2.4154053.4704227-2.4154053 1.6790771 0 .9902344.8056641 1.7958984 1.7958984 1.7958984 1.1968269 0 2.1121807-1.1772957 1.6883545-2.3856201.4810791-.6604004.7875366-1.5126343.8497314-2.4146729h12.883728c-.0511475.4726563-.1876831.9039307-.375061 1.2531738-1.2129517-.4269781-2.3880615.4941101-2.3880615 1.6877441 0 .9907227.8056641 1.7963867 1.7963867 1.7963867 1.1969604 0 2.1223869-1.1847582 1.6836548-2.4012451.4394531-.644043.7208862-1.4659424.7868652-2.3360596h4.7785034c.09375 0 .1728516.0932617.1728516.2075195l.0286255 5.5341187-45.0076292.1577759v-5.6860352c0-.1220702.0913086-.2133788.1733399-.2133788z"></path></g></svg>