<svg xmlns="http://www.w3.org/2000/svg" id="Layer_1" height="512" viewBox="0 0 73 73" width="512"><g id="_x32_51"><path d="m57.8510094 31.3102646c1.0668945-5.8105469.8408203-10.5654297-.6914063-14.5380859-2.5319443-6.5684528-9.4268723-11.9506207-18.0536499-12.1245108-6.9408569-.9838867-16.7250366 3.2475586-20.5237427 8.8503418-4.0229492 5.9335928-4.8348999 13.6210928-3.4966431 20.6638184 1.3382568 7.0426025 4.6418457 13.5559082 8.322998 19.7072754 2.0968018 3.5039063 4.3323975 6.9318848 6.8613281 10.1376953 1.1107178 1.4080811 3.1346436 3.1424561 4.8024292 3.8018799.3482666.1376953.732666.2034912 1.1259766.2279053 4.3744888.8613968 14.1317749.4327393 14.1317749-.6540527 0-.6162109-3.4973145-1.1158447-7.8114624-1.1158447-.7128296 0-1.3999634.0147705-2.0560913.0404053 4.2871094-4.1303711 7.4436646-10.0930176 10.2297974-15.3894043.2947465-.6585667 5.2553292-9.2430164 7.1586915-19.607423zm-18.828125 34.3193359c-1.4746933 1.350029-2.6191101.4498825-3.8881836-.9755859-6.648344-7.4640999-11.9290504-17.9876022-14.9648438-27.3720703-1.2763672-3.9462891-2.6313477-9.1152344-1.7739258-14.1005859.7817383-4.5439453 2.2397461-8.0390615 4.3325195-10.3857412 4.303196-4.8274522 11.4944038-7.2213287 18.112793-6.5507813 6.6318359.6748047 12.6274414 5.1220703 14.9189453 11.0664053 3.6249199 9.4015217-1.371109 23.3655357-6.1162109 32.3769531-2.8420791 5.4031677-6.1436806 11.8355102-10.6210937 15.9414062z"></path><path d="m28.2660484 19.8727646c-2.4609375 3.8095703-1.9106445 9.3378906 1.2519531 12.5869141 1.9018555 1.953125 4.6513672 2.984375 7.3837891 2.984375 7.4639893 0 11.4341927-7.5156021 9.5161133-13.2724609-2.6040955-7.8154584-13.6882896-9.2072287-18.1518555-2.2988282zm11.9077759 10.9216308c-1.6886597 1.7689209-4.1889038 2.6782227-6.6237183 2.541748-5.4016533-2.0853596-6.6245403-8.6232033-4.024292-12.6489258 1.7008266-2.6332951 4.8405151-4.1524582 8.3927612-3.6850586 1.6014404 1.5998535 3.3068848 3.2131348 4.0198975 5.0858154 1.1113892 2.9190675.3921509 6.4471437-1.7646484 8.706421z"></path></g></svg>