<svg xmlns="http://www.w3.org/2000/svg" id="Layer_1" height="512" viewBox="0 0 66 66" width="512"><g><path d="m14.45 12.4c.15.15 1.89-1.89 4.88-3.02 2.97-1.18 5.63-.84 5.64-1.05.01-.08-.63-.28-1.72-.32-1.08-.04-2.61.14-4.17.74-1.56.61-2.8 1.5-3.58 2.26-.77.76-1.12 1.34-1.05 1.39z"></path><path d="m13.01 9.55c1.7-1.76 3.62-2.49 3.54-2.68-.02-.08-.55-.01-1.32.32-.78.33-1.79.96-2.7 1.88-.91.93-1.52 1.95-1.83 2.74-.32.78-.38 1.31-.3 1.33.18.08.88-1.85 2.61-3.59z"></path><path d="m58.76 43c-.2-.03-.6 2.23-1.9 4.68-1.27 2.47-2.91 4.08-2.76 4.23.1.14 2.02-1.32 3.36-3.91 1.37-2.59 1.47-5 1.3-5z"></path><path d="m57.91 50.13c-1.23 2.34-2.72 3.93-2.57 4.07.11.14 1.88-1.3 3.17-3.75 1.31-2.44 1.52-4.71 1.35-4.73-.2-.04-.7 2.08-1.95 4.41z"></path><path d="m63.26 11.83c-.75-1.1-1.56-1.52-2.06-1.91-.53-.36-.84-.53-.9-.46s.13.37.55.85c.39.48 1.14 1.13 1.57 1.97.21.42.19.84-.03 1.34-.23.5-.64 1.02-1.12 1.55-.98 1.09-2.1 2.25-3.36 3.37-.63.56-1.27 1.08-1.9 1.55-.64.5-1.21.85-1.86 1.12-1.27.53-2.58.69-3.68.84-1.6.17-2.77.4-3.29.59 1.6-1.55 3.11-3.02 4.47-4.4 3.28-3.36 5.77-6.27 7.59-8.1 1.89-1.84 2.67-3.12 2.58-3.17-.07-.04-.96 1.08-2.94 2.79-1.99 1.77-4.55 4.54-7.9 7.8-3.37 3.25-7.5 6.99-12.03 11.22-2.27 2.12-4.62 4.37-7 6.78-.59.6-1.18 1.25-1.77 1.78-.6.55-1.26 1.04-1.97 1.45-.71.43-1.51.76-1.82.55-.09-.04-.16-.12-.19-.16-.02-.05-.02-.02 0-.08.02-.12.4-.53.67-.85 2.31-2.6 5.08-4.83 7.33-7.4 2.27-2.5 4.46-4.9 6.54-7.2 4.15-4.6 7.93-8.69 11.23-11.99 1.64-1.66 3.19-3.1 4.54-4.38.69-.66 1.27-1.28 1.87-1.77.59-.49 1.19-.87 1.76-.96s1.1.09 1.41.41c.32.31.45.71.47 1.02.01.65-.25.96-.19.99.02.01.08-.05.2-.2.09-.16.24-.41.26-.78s-.07-.87-.45-1.3c-.36-.44-1.03-.73-1.77-.66-1.13.16-2.08.92-3.06 1.79 0-.12-.16-.4-.46-.85-.39-.51-.82-1.32-1.91-2.06-.55-.39-1.49-.46-2.21-.17-.73.27-1.35.74-1.95 1.22-1.17.96-2.4 2.1-3.57 3.42-.58.66-1.12 1.33-1.61 2.01-.48.65-.95 1.44-1.21 2.18-.55 1.52-.6 2.94-.63 4.08.01 1.12 0 2.01.02 2.64-1.85-1.72-3.97-3.12-6.23-4.06-2.48-1.07-5.08-1.71-7.67-1.96-5.18-.51-10.32.55-14.52 2.87-2.1 1.15-3.97 2.6-5.51 4.28-1.52 1.68-2.83 3.46-3.8 5.34-2.04 3.72-2.98 7.63-3.25 11.2-.27 3.58.16 6.84.94 9.57.1.33.19.68.29 1 .11.32.24.64.35.95.24.61.43 1.22.72 1.75.27.55.51 1.07.76 1.57.29.47.56.91.83 1.34 1.08 1.68 2.1 2.85 2.85 3.57.74.74 1.13 1.11 1.17 1.08.03-.03-.3-.47-.96-1.26-.69-.78-1.63-1.98-2.61-3.67-.26-.41-.51-.86-.78-1.32-.22-.5-.46-1.01-.7-1.55-.27-.53-.44-1.13-.65-1.73-.1-.3-.21-.61-.32-.93-.07-.33-.16-.66-.24-1-.69-2.67-1.04-5.84-.71-9.3.31-3.44 1.28-7.19 3.28-10.75 1.94-3.53 4.89-6.94 8.93-9.06 3.98-2.15 8.86-3.14 13.78-2.64 4.81.5 9.75 2.37 13.42 5.96-.99 1.05-2 2.14-3.03 3.26-.58.63-1.19 1.28-1.78 1.93-1.24-1.15-2.67-2.08-4.18-2.72-1.67-.71-3.41-1.14-5.14-1.31-3.48-.34-6.91.38-9.73 1.93-2.85 1.54-4.91 3.98-6.22 6.46-1.36 2.5-1.97 5.12-2.14 7.5-.33 4.81 1.21 8.59 2.67 10.77.72 1.11 1.41 1.88 1.92 2.34.5.49.77.72.81.69.03-.03-.18-.33-.61-.87-.44-.52-1.05-1.32-1.68-2.44-1.27-2.2-2.6-5.86-2.15-10.42.21-2.26.86-4.72 2.17-7.03 1.28-2.31 3.2-4.53 5.83-5.9 2.6-1.41 5.78-2.05 8.99-1.71 3.05.33 6.18 1.48 8.54 3.69-1.27 1.38-2.56 2.77-3.89 4.21-.44.5-.91.99-1.39 1.47-1.18-.95-2.65-1.45-4.04-1.58-1.63-.15-3.24.19-4.55.93-1.33.73-2.3 1.89-2.89 3.04-.62 1.17-.9 2.38-.95 3.49-.12 2.22.63 3.94 1.33 4.92.34.5.68.83.92 1.02.25.2.39.3.42.26.1-.09-.37-.56-.9-1.55-.51-.99-1.05-2.59-.82-4.56.1-.98.4-2.03.97-3.02s1.39-1.91 2.51-2.49c1.11-.58 2.46-.85 3.82-.7 1.13.13 2.25.54 3.18 1.24-1.63 1.57-3.37 3.13-4.99 4.95-.28.38-.61.58-.93 1.28-.14.35-.11.87.09 1.2.19.34.47.57.77.72.65.32 1.32.2 1.81.03.51-.18.89-.4 1.29-.63.8-.46 1.53-1.02 2.19-1.62.68-.63 1.22-1.24 1.81-1.85.1-.11.21-.21.31-.31.03.13.06.26.09.4.26 1.39.26 2.78-.13 3.96-.75 2.43-3 3.79-4.9 4.16-1.92.42-3.58.07-4.6-.39-.5-.25-.9-.45-1.14-.63-.26-.15-.41-.23-.45-.19-.03.03.07.17.28.4.2.26.56.54 1.08.89 1.02.65 2.82 1.21 5.02.87 1.1-.16 2.28-.57 3.36-1.34 1.08-.76 2.06-1.91 2.54-3.36.5-1.45.52-3.04.25-4.6-.07-.41-.18-.83-.31-1.24 1.87-1.88 3.73-3.7 5.52-5.41.07-.07.14-.13.21-.2.93 1.67 1.56 3.49 1.88 5.32.59 3.21.58 6.45-.36 9.25-.9 2.83-2.74 5.12-4.85 6.7-2.11 1.6-4.5 2.52-6.72 2.95-.55.15-1.11.18-1.65.25-.53.07-1.06.12-1.57.1-.51-.01-1.01 0-1.5-.02-.48-.06-.94-.11-1.39-.17-.46-.04-.88-.15-1.29-.26-.41-.1-.8-.2-1.18-.3-.71-.29-1.39-.53-1.97-.79-.56-.31-1.07-.59-1.5-.83-.43-.25-.73-.53-1.02-.72-.55-.4-.87-.6-.9-.56-.03.03.21.3.71.77.27.23.55.56.97.85.43.28.92.6 1.48.96.59.3 1.27.6 2.01.93.39.11.79.24 1.21.36.43.13.87.28 1.33.32.47.08.95.15 1.46.24.5.05 1.03.05 1.56.07.54.05 1.1 0 1.66-.06.57-.05 1.15-.07 1.73-.21 2.36-.4 4.91-1.31 7.21-2.99 2.3-1.66 4.35-4.13 5.37-7.2 1.06-3.07 1.09-6.52.48-9.89-.35-2.06-1.08-4.14-2.18-6.04 1.79-1.71 3.52-3.35 5.14-4.9 1.89 2.93 3.11 6.24 3.69 9.57.9 4.89.87 9.84-.57 14.15-1.41 4.32-4.24 7.83-7.48 10.23-3.26 2.43-6.89 3.82-10.28 4.49-3.4.69-6.59.64-9.31.19-2.73-.42-4.99-1.25-6.74-2.11-3.5-1.76-4.98-3.45-5.09-3.32 0 .06.37.46 1.1 1.16.79.67 1.97 1.7 3.74 2.64 1.74.95 4.05 1.88 6.85 2.39 1.4.28 2.92.42 4.53.44 1.61.03 3.32-.11 5.09-.44 3.52-.63 7.33-2.01 10.77-4.53 3.43-2.48 6.47-6.16 7.99-10.74 1.56-4.57 1.61-9.73.7-14.8-.58-3.43-1.84-6.88-3.8-9.97.59.04 1.68.04 3.17.05 1.13-.03 2.55-.08 4.08-.63.75-.26 1.54-.73 2.18-1.21.68-.49 1.35-1.02 2.01-1.61 1.32-1.17 2.46-2.4 3.42-3.57.48-.6.95-1.22 1.22-1.95.32-.72.25-1.65-.14-2.21zm-18.87 3.88c.14-1.11.3-2.41.84-3.68.27-.65.62-1.21 1.12-1.86.48-.63.99-1.27 1.55-1.9 1.12-1.26 2.27-2.38 3.37-3.36.54-.48 1.05-.9 1.55-1.12s.92-.24 1.34-.03c.84.43 1.49 1.18 1.97 1.57.41.35.68.54.79.55-.31.28-.62.56-.94.85-1.4 1.23-3.01 2.63-4.7 4.25-2.24 2.13-4.69 4.61-7.3 7.35.15-.62.3-1.52.41-2.62z"></path></g></svg>