<svg xmlns="http://www.w3.org/2000/svg" id="Layer_1" height="512" viewBox="0 0 73 73" width="512"><g id="_x31_97"><path d="m63.885704 59.241787c.0343781-3.020256-2.9489555-7.1306953-4.7934494-9.65625-2.6087189-3.5740967-6.3011055-4.0729446-8.8349609-2.46875-2.3203125 1.4677734-3.4296875 3.7333984-4.2832031 5.9619141-.1310883.3410263-.5326195.5076065-.8833008.3193359-12.4141884-6.6862259-17.2771244-20.5771332-15.4763794-22.8557129 1.2947998-1.6384277 4.6832275-1.1025391 6.2664795-2.4643555 1.0024414-.8620605 1.5922852-2.1333008 1.7258301-3.4460449.1189575-.4711914.1719971-1.0095215.1572266-1.6203613.0355835.0505371.0641479.1057129.1004639.1557617l-.1011963-.1845703c-.0566559-2.0387039-.7863045-4.1520176-1.694397-5.9782715-1.6997986-3.4238863-3.211689-6.5737572-6.6396484-8.2929697-2.4799805-1.2379289-6.0478611 1.7189226-8.2294922 3.4248047-1.4619751 1.1162109-3.2926025 2.9335938-4.1704712 5.4296885-2.5199022 5.2100201-1.4023829 10.9489899.2717285 16.503418 4.5879879 15.2219276 17.1634064 33.0510445 33.163269 33.7817345 6.1786079 1.3770064 13.3658371-3.7161943 13.4215011-8.6093713zm-35.1284103-49.1884776c3.0470791 1.5276299 4.4225922 4.505105 5.96875 7.6191416.6469727 1.3017578 1.0810547 2.5009766 1.3266602 3.6679688.7617188 3.6186523-.4856567 4.4667969-2.7859497 5.5214844-2.9303589-5.6975098-6.2813721-11.0727549-9.3082886-14.9492197 1.149889-.8407736 3.5417595-2.4941941 4.7988281-1.8593751zm24.1943359 56.5214816c-1.3110352.0878906-2.6967773-.2050781-4.1098633-.84375-11.1860352-5.0468712-20.4267578-14.4062462-25.3525391-25.6806602-1.890625-4.3271484-3.1860352-8.9755859-4.4389648-13.4707031-.6860352-2.4628906-1.4638672-5.2548828-.8217773-7.8359375.621582-2.5019531 2.4536133-4.3251963 3.8813477-5.4140635.8731251-.6796856.5851765-.4553614.6546631-.5097656 2.9429932 3.7658701 6.2062378 8.9941416 9.0778198 14.5549326-.9998779.2697754-2.0215454.3825684-2.9390259.4440918-1.2559338.0842762-2.1578674 1.2287464-1.9536133 2.4726563 1.6708985 10.1777342 8.3496094 19.5371092 17.4296875 24.4267577 1.1435471.6175766 2.541954.0821915 2.9951172-1.1025391.4486084-1.171875.9769897-2.3464355 1.7293701-3.3696289 5.3992081 5.788826 9.1136208 13.3989563 9.6726685 14.3154259-1.7877808 1.1940918-3.7905884 1.8925781-5.8248902 2.0131836zm-2.8406372-17.4506798c.2908325-.2658691.598999-.5187988.9480591-.7397461 1.8662872-1.1828461 4.6951141-.8278313 6.8217773 2.0859375 1.5346985 2.1014633 4.5340691 6.200737 4.5048752 8.7539063-.0176926 1.5742188-1.1563644 3.2446289-2.4193039 4.4082031-3.3064575-6.2207032-6.5344848-10.9702149-9.8554077-14.5083008z"></path><path d="m9.1420593 14.9644423c-.1118164.3994141.1206055.8134766.519043.9248047 1.2827148.3603525 2.4716797 1.0341806 3.4379883 1.9482431.1445313.1367188.3300781.2050781.5151367.2050781.6761637 0 1.006794-.8311558.5151367-1.2949219-1.1416016-1.0800791-2.5463867-1.8759775-4.0620117-2.3017588-.3969727-.1123046-.8129883.1201173-.925293.5185548z"></path><path d="m16.079071 13.7564344c.3261719-.2548828.3842773-.7255859.1289063-1.0527344l-3.1254883-4c-.2553711-.3261719-.7265625-.3847656-1.0527344-.1289063-.3261719.2548828-.3842773.7265625-.1289063 1.0527344l3.1254883 4c.2526789.3246337.7252589.3852931 1.0527344.1289063z"></path><path d="m18.4125671 10.1831923c.0800591.4002972.4685001.6691284.8828125.5878906.40625-.0810547.6694336-.4765625.5878906-.8828125-.3125-1.5585938-.8071289-3.0820308-1.4697266-4.530273-.1723633-.3769531-.6162109-.5419922-.9946289-.3691406-.3764648.171875-.5419922.6171875-.3696289.9941406.6152345 1.3427735 1.0737306 2.7558589 1.3632813 4.2001949z"></path></g></svg>