<svg xmlns="http://www.w3.org/2000/svg" id="Layer_1" height="512" viewBox="0 0 65 65" width="512"><g><g><g><path d="m21.283 64.014c-6.204-.591-8.095-2.401-8.092-7.747l.029-47.616c.006-10.168 4.291-7.936 30.875-8.068 5.222 0 7.43 1.474 7.578 6.878.46 16.571-.247 33.344-2.1 49.851-.419 3.733-1.331 6.417-9.304 6.959-6.162.417-12.545.357-18.986-.257zm-7.063-55.362-.028 47.616c-.003 4.818 1.475 6.206 7.188 6.751 6.214.592 12.59.678 18.822.254 7.382-.501 7.993-2.634 8.378-6.072 1.849-16.461 2.553-33.187 2.094-49.712-.132-4.793-1.86-5.905-6.578-5.905-26.823.133-29.871-1.944-29.876 7.068z"></path></g><g><path d="m16.578 54.867c-.133 0-.26-.053-.354-.146-.094-.094-.146-.221-.146-.354.024-47.823-.255-45.799.522-45.799 33.498 0 32.21-.272 32.226.49.31 15.033-.194 30.292-1.499 45.352-.061.71 1.275.457-30.749.457zm.5-1h29.293c1.259-14.713 1.751-29.611 1.466-44.298h-30.737z"></path></g><g><path d="m35.23 7.13-5.444-.202c-.276-.01-.491-.242-.481-.518.012-.276.264-.513.518-.481l5.444.202c.684.026.597 1.052-.037.999z"></path></g><g><path d="m26.283 6.49c-.1-.537.38-.579.875-.67.639-.121.837.862.182.983l-.475.088c-.261.05-.531-.122-.582-.401z"></path></g><g><path d="m31.784 3.682c.478-.76 1.608-.038 1.111.725-.577.871-1.844-.061-1.111-.725z"></path></g><g><path d="m27.018 59.086c-.141-.718.054-1.424.563-2.041 1.533-1.861 5.733-2.589 7.125-.802.3.385.602 1.066.335 2.127-1.024 4.072-7.371 4.046-8.023.716zm5.035-2.867c-1.936 0-4.351 1.163-4.053 2.676.13.666.847 1.292 1.743 1.521 3.137.805 5.107-2.359 4.174-3.558-.317-.406-.996-.639-1.864-.639z"></path></g></g><g><path d="m29.734 31.768-7.599-7.599c-.098-.098-.098-.256 0-.354s.256-.098.354 0l7.599 7.599c.098.098.098.256 0 .354-.097.097-.256.099-.354 0z"></path></g><g><path d="m33.87 29.933-7.754-7.754c-.098-.098-.098-.256 0-.354s.256-.098.354 0l7.754 7.754c.098.098.098.256 0 .354s-.256.099-.354 0z"></path></g><g><path d="m23.811 29.826c-.098-.098-.098-.256 0-.354l10.579-10.58c.098-.098.256-.098.353 0 .098.098.098.256 0 .354l-10.579 10.58c-.096.097-.254.098-.353 0z"></path></g><g><path d="m29.468 29.722c-.098-.098-.098-.256 0-.354l5.912-5.912c.098-.098.256-.098.353 0 .098.098.098.256 0 .354l-5.912 5.912c-.097.097-.255.098-.353 0z"></path></g><g><path d="m34.078 23.647-3.667-3.667c-.098-.098-.098-.256 0-.354s.256-.098.354 0l3.667 3.667c.098.098.098.256 0 .354-.098.097-.256.099-.354 0z"></path></g><g><path d="m28.943 34.539-3.246-3.247c-.098-.098-.098-.256 0-.354s.256-.098.354 0l3.246 3.247c.098.098.098.256 0 .354-.097.097-.256.098-.354 0z"></path></g><g><path d="m28.834 59.056-1.193-1.194c-.232-.232.119-.588.354-.353l1.193 1.194c.234.234-.122.585-.354.353z"></path></g><g><path d="m30.236 58.346-1.356-1.356c-.098-.098-.098-.256 0-.354s.256-.098.354 0l1.356 1.356c.098.098.098.256 0 .354-.097.097-.256.098-.354 0z"></path></g><g><path d="m31.933 57.839-1.446-1.446c-.098-.098-.098-.256 0-.353.098-.098.256-.098.353 0l1.446 1.446c.098.098.098.256 0 .354-.096.096-.254.097-.353-.001z"></path></g><g><path d="m29.89 59.345 1.31-1.31c.232-.232.588.119.353.354l-1.31 1.31c-.233.234-.585-.121-.353-.354z"></path></g><g><path d="m28.834 57.83.892-.891c.099-.098.257-.097.353 0 .098.098.098.256 0 .354l-.892.891c-.234.234-.586-.122-.353-.354z"></path></g><g><path d="m43.193 63.05-4.116-4.116c-.098-.098-.098-.256 0-.353.098-.098.256-.098.354 0l4.116 4.116c.234.234-.121.586-.354.353z"></path></g><g><path d="m44.833 62.466-3.688-3.688c-.098-.098-.098-.256 0-.354s.256-.098.354 0l3.688 3.688c.234.235-.122.587-.354.354z"></path></g><g><path d="m46.402 60.993-3.112-3.111c-.098-.098-.098-.256 0-.354s.256-.098.354 0l3.112 3.111c.236.236-.124.583-.354.354z"></path></g><g><path d="m47.763 59.311-2.444-2.445c-.232-.232.119-.588.354-.354l2.444 2.445c.234.235-.121.587-.354.354z"></path></g><g><path d="m39.921 63.055-2.95-2.95c-.098-.098-.098-.256 0-.354s.256-.098.354 0l2.95 2.95c.098.098.098.256 0 .354-.098.097-.256.098-.354 0z"></path></g><g><path d="m36.459 63.573-2.103-2.103c-.098-.098-.098-.256 0-.354s.256-.098.354 0l2.103 2.103c.234.234-.122.586-.354.354z"></path></g><g><path d="m33.538 63.145 3.719-3.719c.098-.098.256-.098.354 0s.098.256 0 .353l-3.719 3.719c-.235.235-.587-.121-.354-.353z"></path></g><g><path d="m36.658 63.535 5.541-5.541c.098-.098.256-.098.354 0s.098.256 0 .354l-5.541 5.541c-.235.234-.586-.122-.354-.354z"></path></g><g><path d="m42.393 63.028 5.049-5.049c.232-.232.588.119.353.354l-5.049 5.049c-.233.234-.585-.121-.353-.354z"></path></g><g><path d="m44.148 58.854 2.245-2.245c.232-.232.588.119.354.354l-2.245 2.245c-.235.234-.586-.122-.354-.354z"></path></g><g><path d="m48.504 56.892-1.469-1.469c-.232-.232.119-.588.354-.353l1.469 1.469c.098.098.098.256 0 .353-.097.097-.255.099-.354 0z"></path></g><g><path d="m49.085 54.235-1.309-1.308c-.098-.098-.098-.256 0-.354s.256-.098.354 0l1.308 1.308c.098.098.098.256 0 .354-.097.097-.255.098-.353 0z"></path></g><g><path d="m36.633 45.78-4.35-4.35c-.098-.098-.098-.256 0-.354s.256-.098.354 0l4.35 4.35c.098.098.098.256 0 .354-.098.097-.256.098-.354 0z"></path></g><g><path d="m39.632 44.007-4.204-4.204c-.098-.098-.098-.256 0-.354s.256-.098.354 0l4.204 4.204c.098.098.098.256 0 .354-.098.097-.256.098-.354 0z"></path></g><g><path d="m32.391 44.684c-.098-.098-.098-.256 0-.354l5.537-5.537c.098-.098.256-.098.354 0s.098.256 0 .354l-5.537 5.537c-.097.097-.255.098-.354 0z"></path></g><g><path d="m36.838 43.708c-.098-.098-.098-.256 0-.354l2.007-2.007c.098-.098.256-.098.354 0s.098.256 0 .354l-2.007 2.007c-.098.097-.256.098-.354 0z"></path></g><g><path d="m17.539 5.392-2.275-2.275c-.232-.232.119-.588.354-.353l2.275 2.275c.098.098.098.256 0 .354-.098.096-.256.097-.354-.001z"></path></g><g><path d="m19.734 4.754-2.498-2.497c-.232-.233.119-.588.354-.354l2.498 2.497c.098.098.098.256 0 .353-.097.098-.256.1-.354.001z"></path></g><g><path d="m24.454 4.058c-.168 0-2.544-2.44-2.664-2.561-.232-.232.119-.588.353-.354l2.487 2.487c.158.159.045.428-.176.428z"></path></g><g><path d="m27.794 3.404-1.805-1.805c-.232-.232.119-.588.354-.354l1.805 1.805c.234.235-.122.587-.354.354z"></path></g><g><path d="m16.225 7.519-2.025-2.024c-.232-.232.119-.588.354-.353l2.024 2.024c.235.234-.12.585-.353.353z"></path></g><g><path d="m15.368 10.557-1.724-1.723c-.232-.232.119-.588.353-.354l1.724 1.723c.098.098.098.256 0 .354-.097.097-.255.098-.353 0z"></path></g><g><path d="m14.54 13.119c-1.324-1.325-1.507-.434 2.406-4.349.232-.232.588.119.354.353l-3.024 3.024c.284.284.88.709.617.971-.096.097-.254.1-.353.001z"></path></g><g><path d="m13.797 8.126 2.833-2.834c.232-.232.588.119.354.353l-2.834 2.835c-.233.233-.587-.12-.353-.354z"></path></g><g><path d="m16.377 4.129 2.083-2.084c.233-.232.588.119.354.354l-2.084 2.084c-.233.233-.587-.12-.353-.354z"></path></g><g><path d="m19.665 4.382 2.891-2.89c.233-.232.588.119.354.353l-2.891 2.89c-.235.235-.587-.12-.354-.353z"></path></g><g><path d="m25.23 2.764 1.396-1.397c.232-.232.588.119.354.354l-1.396 1.397c-.235.233-.586-.122-.354-.354z"></path></g></g></svg>