<svg xmlns="http://www.w3.org/2000/svg" xmlns:xlink="http://www.w3.org/1999/xlink" id="Layer_1" x="0px" y="0px" viewBox="0 0 291.48 291.48" style="enable-background:new 0 0 291.48 291.48;" xml:space="preserve"><g>	<g>		<g>			<path d="M234.134,8.524h-6.756V6.036c0-3.332-2.708-6.036-6.036-6.036H201.97c-3.328,0-6.036,2.704-6.036,6.036v2.488H57.342    c-15.244,0-27.648,12.408-27.648,27.652v227.652c0,15.244,12.404,27.652,27.648,27.652h176.792    c15.248,0,27.652-12.408,27.652-27.652V36.172C261.782,20.928,249.382,8.524,234.134,8.524z M200.738,6.032    c0-0.668,0.564-1.232,1.232-1.232h19.372c0.668,0,1.228,0.564,1.228,1.232V8.52h-21.832V6.032z M254.922,263.824    c0,11.46-9.324,20.784-20.788,20.784H57.342c-11.46,0-20.784-9.324-20.784-20.784V36.172c0-11.46,9.324-20.784,20.784-20.784    h176.792c11.464,0,20.788,9.324,20.788,20.784V263.824z"></path>			<path d="M59.706,166.932c1.328,0,2.404-1.072,2.404-2.404V48.264h152.592c1.328,0,2.404-1.076,2.404-2.404    c0-1.332-1.076-2.404-2.404-2.404H59.706l-2.404,2.404v118.668C57.306,165.86,58.378,166.932,59.706,166.932z"></path>			<path d="M234.078,79.784c-1.328,0-2.404,1.072-2.404,2.404v155.016H62.11V205.7c0-1.332-1.076-2.404-2.404-2.404    c-1.324,0-2.404,1.072-2.404,2.404v33.904l2.404,2.404h174.372l2.404-2.404V82.188C236.478,80.856,235.406,79.784,234.078,79.784    z"></path>			<path d="M145.738,249.552c-6.532,0-11.848,5.32-11.848,11.848c0,6.532,5.316,11.848,11.848,11.848    c6.536,0,11.852-5.316,11.852-11.848C157.59,254.868,152.274,249.552,145.738,249.552z M145.738,268.444    c-3.884,0-7.044-3.16-7.044-7.044c0-3.88,3.16-7.044,7.044-7.044c3.888,0,7.044,3.16,7.044,7.044    C152.782,265.284,149.626,268.444,145.738,268.444z"></path>			<path d="M140.826,35.468h9.824c2.196,0,3.984-1.788,3.984-3.984c0-2.2-1.788-3.988-3.984-3.988h-9.824    c-2.196,0-3.984,1.788-3.984,3.988C136.842,33.68,138.63,35.468,140.826,35.468z M140.826,30.932h9.824    c0.3,0,0.552,0.252,0.552,0.552s-0.252,0.548-0.552,0.548h-9.824c-0.3,0-0.548-0.252-0.548-0.548    C140.278,31.184,140.526,30.932,140.826,30.932z"></path>			<path d="M176.422,192.384c-1.212,0.54-1.752,1.964-1.208,3.172c0.4,0.888,1.276,1.42,2.196,1.42c0.328,0,0.66-0.064,0.98-0.212    l40.484-18.172c1.212-0.536,1.752-1.964,1.208-3.172c-0.544-1.204-1.96-1.76-3.176-1.204L176.422,192.384z"></path>			<path d="M162.086,198.824l-17.164,7.7c-1.212,0.54-1.752,1.964-1.208,3.172c0.4,0.888,1.276,1.42,2.196,1.42    c0.328,0,0.66-0.068,0.98-0.216l17.164-7.7c1.212-0.54,1.752-1.964,1.208-3.176C164.722,198.824,163.294,198.268,162.086,198.824    z"></path>			<path d="M215.786,188.38l-47.612,20.972c-1.212,0.536-1.764,1.952-1.228,3.172c0.396,0.9,1.276,1.432,2.2,1.432    c0.32,0,0.652-0.064,0.968-0.204l47.612-20.972c1.212-0.536,1.764-1.952,1.228-3.168    C218.422,188.396,217.018,187.848,215.786,188.38z"></path>		</g>	</g></g><g></g><g></g><g></g><g></g><g></g><g></g><g></g><g></g><g></g><g></g><g></g><g></g><g></g><g></g><g></g></svg>