<svg xmlns="http://www.w3.org/2000/svg" xmlns:xlink="http://www.w3.org/1999/xlink" id="Layer_1" x="0px" y="0px" viewBox="0 0 511.998 511.998" style="enable-background:new 0 0 511.998 511.998;" xml:space="preserve"><g>	<g>		<path d="M503.985,423.059c-7.582-7.598-15.598-14.643-23.445-21.935c-7.423-6.897-14.525-14.048-22.127-20.761   c-7.229-6.384-12.758-14.155-20.209-20.305c-7.455-6.153-14.319-13.269-21.214-20.028c-3.251-3.186-7.423-5.405-10.522-8.728   c-1.419-1.524-2.254-3.196-4.094-4.347c-0.271-0.171-0.547-0.303-0.824-0.422c0.72-1.215,1.096-2.64,1.112-4.067   c1.974-1.057,3.443-3.027,3.487-5.924c0.113-7.511,1.988-14.594,3.295-21.942c1.471-8.266,2.298-16.646,3.397-24.967   c2.13-16.134,4.305-32.262,6.067-48.441c1.704-15.666,2.511-31.38,3.892-47.072c0.65-7.379,1.443-14.751,1.746-22.156   c0.326-7.96-0.393-15.948,0.351-23.885c0.728-7.777,0.869-15.519,1.402-23.314c0.559-8.172,0.015-16.367,0.519-24.511   c0.614-9.874,4.083-23.662-7.893-28.521c-6.398-2.595-13.942-2.941-20.758-3.681c-7.896-0.856-15.527-1.67-23.448-1.888   c-6.507-0.178-12.887-1.419-19.456-1.485c-7.533-0.076-15.437-0.464-22.897-1.407c-14.704-1.861-29.793-2.298-44.592-3.249   c-15.56-0.999-31.189-0.539-46.791-0.482c-15.57,0.057-31.139,0.015-46.707,0.077c-7.279,0.03-14.439,1.209-21.702,1.308   c-8.084,0.11-16.184-0.044-24.27-0.025c-6.69,0.017-13.447-0.552-20.073,0.495c-8.106,1.282-16.155,2.554-24.367,2.945   c-5.399,0.258-11.887-1.266-16.899,1.277c-4.178,2.12-7.643,5.424-8.636,10.09c-1.007,4.735,0.421,9.473,1.238,14.107   c1.278,7.245-0.166,14.88,0.015,22.206c0.075,3.014,0.7,5.578,1.195,8.491c0.569,3.344-0.16,6.748,0.171,10.115   c0.647,6.586,1.754,13.194,2.659,19.767c1.111,8.079,1.664,16.437,2.127,24.594c0.233,4.105-0.417,8.213-0.206,12.316   c0.187,3.658,1.181,7.171,1.305,10.835c0.265,7.796-0.021,15.232,0.914,22.988c0.548,4.554-0.018,9.158,0.166,13.727   c0.173,4.3,0.923,8.617,1.343,12.896c0.792,8.086,2.279,16.292,4.131,24.204c1.92,8.204,5.9,15.789,8.552,23.774   c2.556,7.7,3.626,15.737,6.289,23.394c0.059,0.173,0.122,0.342,0.182,0.514c-0.863,1.035-0.913,2.827,0.505,3.465   c0.357,0.161-0.499,8.058-0.213,9.253c0.346,1.443,0.909,2.78,1.639,4.014c-0.736,0.801-1.43,1.658-2.114,2.524   c-3.448,4.353-7.511,7.851-11.589,11.584c-3.634,3.33-6.595,7.013-9.67,10.838c-3.254,4.048-7.065,7.485-10.189,11.662   c-6.202,8.292-13.935,15.141-20.811,22.875c-6.979,7.851-14.011,15.901-21.349,23.385c-8.143,8.305-17.059,15.872-25.42,23.962   c-3.219,3.114-7.213,6.432-8.662,10.835c-1.402,4.263,0.2,7.97,1.56,11.956c2.544,7.459,2.913,18.59,12.199,20.645   c4.253,0.942,8.711-0.221,13.007-0.153c5.575,0.088,10.833,1.701,16.571,1.5c10.927-0.384,21.507,1.721,32.449,1.412   c11.638-0.328,22.945,0.348,34.558,0.848c5.46,0.234,10.875,1.119,16.341,1.274c6.565,0.185,12.906-1.058,19.42-1.38   c5.534-0.274,10.999,0.847,16.503,1.186c6.091,0.374,12.244,0.174,18.34,0.083c24.291-0.367,48.428,1.555,72.729,1.15   c24.03-0.403,48.072-1.224,72.092-2.015c13.465-0.444,26.932,0.03,40.396-0.217c13.016-0.238,26.007-1.771,39.005-2.344   c23.671-1.044,47.441-2.924,71.179-3.392c2.382,0.637,4.785,0.997,7.752,0.546c2.438-0.371,4.834-1.369,7.268-1.633   c2.173-0.233,4.085,0.079,6.215-0.721c7.348-2.762,8.763-11.225,12.13-17.362C514.704,437.311,509.912,428.998,503.985,423.059z    M108.654,261.439c-3.046-6.813-4.735-13.301-6.128-20.619c-1.33-6.981-1.921-13.935-2.967-20.941   c-1.077-7.205,0.021-14.488-1.098-21.703c-1.04-6.703-0.361-13.281-0.518-20.036c-0.148-6.44-1.246-12.522-1.109-19.027   c0.282-13.253-2.325-26.39-3.613-39.509c-0.289-2.936-0.522-5.629-0.994-8.567c-0.553-3.448,0.089-6.859-0.238-10.325   c-0.245-2.587-1.111-5.039-1.284-7.624c-0.25-3.704,0.002-7.532,0.146-11.245c0.23-5.989,0.092-11.475-1.096-17.354   c-0.912-4.508-1.487-8.359,3.75-9.151c2.81-0.425,6.401,0.28,9.258,0.171c3.679-0.142,7.347-0.457,11.007-0.854   c6.83-0.743,13.73-2.525,20.578-2.779c14.14-0.522,28.407,0.997,42.545,0.072c14.788-0.967,29.386-1.008,44.219-0.955   c14.738,0.052,29.476,0.1,44.216,0.155c7.544,0.027,14.932,0.195,22.45,0.732c6.873,0.49,13.744,1.518,20.631,1.727   c13.402,0.406,27.001,1.822,40.337,3.126c13.474,1.318,27.064,1.12,40.492,2.901c7.564,1.003,15.406,1.265,22.789,3.314   c2.483,0.688,2.719,0.794,3.135,3.487c0.439,2.847-0.149,5.613-0.618,8.397c-1.029,6.099-0.544,12.309-0.661,18.472   c-0.153,8.025-1.007,16.025-1.247,24.052c-0.238,7.922-1.385,15.661-1.306,23.62c0.081,8.132-0.405,16.189-1.171,24.285   c-1.619,17.093-2.625,34.243-4.467,51.313c-1.845,17.111-4.192,34.16-6.515,51.209c-1.099,8.065-1.919,16.188-3.433,24.189   c-1.469,7.769-3.313,15.379-3.684,23.291c-8.44,0.773-16.49,3.472-25.103,3.447c-10.806-0.03-21.685,0.541-32.479,0.171   c-4.829-0.167-9.605-1.078-14.441-1.111c-5.313-0.038-10.557,1.054-15.861,1.245c-10.362,0.373-20.665,0.095-30.977-0.801   c-10.222-0.886-20.761-0.104-31.02-0.092c-10.242,0.013-20.805,1.187-31.003,0.448c-4.516-0.327-8.686-1.592-13.275-1.55   c-5.061,0.045-9.659-0.809-14.652-1.12c-4.501-0.281-8.899-0.371-13.406-0.852c-5.126-0.546-10.289-1.485-15.451-1.376   c-10.045,0.213-19.912-0.405-29.928,0c-1.89,0.076-3.26-0.174-4.301-0.672c0.352-1.375,0.715-2.751,0.757-4.233   c0.079-2.869-0.578-5.92-1.353-8.662c-1.838-6.509-3.299-12.799-4.67-19.425C113.556,274.209,111.352,267.471,108.654,261.439z    M21.761,429.717c3.918-3.825,7.926-7.53,11.983-11.206c8.521-7.721,16.065-16.15,23.657-24.737   c3.752-4.245,7.408-8.571,11.011-12.94c3.666-4.445,8.12-8.063,11.916-12.376c3.229-3.668,5.621-7.963,8.776-11.672   c3.444-4.053,6.647-8.033,9.803-12.328c3.217-4.377,7.254-8.063,10.784-12.174c1.721-2.002,3.354-4.107,4.826-6.298   c0.515-0.768,1.206-2.423,1.996-3.758c6.562,3.494,15.019,2.3,22.14,3.26c4.533,0.611,9.013,0.744,13.58,0.724   c5.584-0.025,11.047,0.988,16.587,1.632c9.638,1.122,19.373,2.314,29.078,2.303c4.499-0.005,8.776,1.357,13.275,1.655   c5.492,0.365,10.991-0.162,16.482-0.259c10.841-0.193,21.703,0.131,32.548,0.128c10.468-0.002,20.779,1.227,31.241,1.271   c5.302,0.023,10.64,0.253,15.931-0.135c5.67-0.417,11.142-1.201,16.843-0.718c11.937,1.012,23.739,0.977,35.723,1.071   c6.22,0.049,12.457,0.466,18.626-0.493c5.556-0.862,10.905-2.644,16.55-2.78c0.847,2.828,1.62,5.63,3.139,8.281   c1.508,2.635,4.467,4.972,6.571,7.099c6.228,6.291,12.418,12.726,18.454,19.221c5.674,6.104,11.994,11.139,17.394,17.567   c5.3,6.311,12.112,11.038,17.751,17.006c5.978,6.324,12.382,12.029,18.926,17.775c3.867,3.393,7.367,7.215,11.013,10.84   c2.214,2.198,4.888,4.259,6.921,6.703c-1.873,0.225-3.691,0.561-5.708,0.93c-3.014,0.553-6.076,0.04-9.127,0.493   c-3.902,0.578-7.521,0.419-11.419,0.724c-3.904,0.306-7.467,1.365-11.436,1.356c-16.222-0.043-32.971,1.367-49.129-0.04   c-7.993-0.696-15.282-1.207-23.339-1.093c-8.888,0.124-17.787,0.015-26.675,0.024c-17.126,0.014-34.693-1.505-51.751,0.182   c-3.62,0.358-7.22,1.026-10.869,1.058c-4.211,0.037-8.375-0.859-12.578-1.073c-8.33-0.426-16.745-0.073-25.087-0.076   c-8.397-0.002-16.665,0.421-25.013-0.567c-7.854-0.931-16.231-1.703-24.133-1.794c-15.752-0.176-31.573-0.233-47.325-0.046   c-7.366,0.088-14.507,1.453-21.902,1.373c-7.736-0.083-15.308,1.208-23.054,1.166c-18.313-0.097-36.565,0.725-54.775-1.22   c-9.261-0.99-18.072-0.85-27.393-0.503c-4.484,0.168-8.765,0.105-13.201-0.589c-1.593-0.249-3.145-0.346-4.688-0.358   C18.519,432.575,20.689,430.764,21.761,429.717z M492.882,449.28c0.65-1.016-3.912,0.104-4.816,0.271   c-1.479,0.271-2.941,0.641-4.41,0.972c-0.162-0.008-0.321-0.021-0.488-0.019c-10.884,0.105-21.761,1-32.647,1.26   c-10.856,0.261-21.839,0.58-32.676,1.192c-21.326,1.202-42.469,3.513-63.881,3.533c-22.502,0.021-44.987,0.849-67.482,1.362   c-22.389,0.512-45.102,2.455-67.471,0.764c-11.393-0.862-22.639-1.053-34.063-0.852c-11.06,0.197-21.772-0.316-32.781-1.061   c-5.721-0.387-11.184,0.711-16.864,1.111c-5.671,0.402-11.222,0.058-16.869-0.463c-10.686-0.988-21.838-2.088-32.565-1.763   c-4.962,0.15-9.922,0.486-14.89,0.45c-5.291-0.039-10.292-1.086-15.524-1.565c-5.276-0.482-10.514,0.327-15.789,0.173   c-4.882-0.141-9.298-1.703-14.269-1.527c-1.94,0.07-3.995,0.497-5.916,0.379c-2.066-0.127-1.312,0.666-1.631-1.833   c-0.469-3.69-2.991-7.421-3.925-11.082c5.432,0.779,10.825,1.792,16.33,1.9c8.901,0.173,18.139-1.215,26.958,0.256   c15.152,2.526,30.266,2.076,45.585,2.089c8.175,0.007,16.606,0.593,24.737-0.321c7.551-0.848,15.135-0.133,22.646-1.033   c15.854-1.899,32.025-0.937,47.998-0.935c7.594,0.001,14.896,0.282,22.45,0.995c7.819,0.738,15.901,1.654,23.76,1.559   c8.48-0.101,16.953-0.114,25.434-0.108c8.699,0.007,17.372,1.211,26.01,1.194c7.424-0.017,14.799-1.503,22.257-1.567   c9.227-0.081,18.451,0.404,27.68,0.422c16.643,0.034,33.398-0.643,50.022-0.234c4.982,0.122,9.861,1.267,14.841,1.546   c4.384,0.244,8.777,0.114,13.163,0.033c9.108-0.165,18.222-0.073,27.33-0.068c8.452,0.005,16.603-0.855,24.971-1.233   c6.465-0.293,12.972-1.908,19.423-2.158C494.765,444.743,494.237,447.762,492.882,449.28z"></path>	</g></g><g>	<g>		<path d="M409.765,374.405c-7.251-6.403-13.638-13.685-21.246-19.705c-6.892-5.453-11.557-10.596-20.81-9.354   c-12.039,1.613-24.338,0.897-36.466,0.958c-5.595,0.028-11.32,0.871-16.864-0.075c-4.84-0.824-9.42-1.065-14.333-1.059   c-11.662,0.015-23.304,0.082-34.958-0.435c-11.52-0.512-23.342,0.179-34.693-1.529c-5.388-0.811-10.879,0.068-16.297-0.438   c-6.117-0.57-11.955-0.978-18.116-0.849c-11.775,0.249-23.856-0.49-35.598-1.778c-6.086-0.667-12.085-1.932-18.174-2.626   c-3.338-0.38-6.815-0.792-10.267-0.989c-0.687-0.557-1.585-0.802-2.554-0.424c-0.246,0.096-0.489,0.214-0.733,0.317   c-1.073-0.011-2.141-0.001-3.192,0.056c-1.173,0.063-1.677,1.301-1.12,2.151c-8.535,5.125-16.128,14.001-22.341,20.926   c-4.09,4.558-8.18,9.28-11.515,14.434c-2.731,4.221-6.706,9.485-7.43,14.505c-0.289,1.986,0.152,4.431,2.203,5.415   c7.363,3.536,16.409,1.963,24.38,1.909c9.942-0.065,19.886-0.008,29.828,0.001c9.191,0.007,18.308,1.151,27.529,1.173   c8.998,0.021,17.995,0.021,26.994,0.025c-4.156,3.829-7.491,9.193-10.212,13.502c-2.319,3.674-8.136,9.46-6.825,14.186   c1.765,6.361,13.005,4.201,17.73,4.245c9.842,0.09,19.359,0.348,29.127,1.624c18.723,2.447,38.262,0.332,57.115,0.603   c8.97,0.128,18.185,1.256,27.026-0.764c3.831-0.874,7.334-1.221,11.169-1.654c2.749-0.309,5.25-1.88,6.04-4.647   c0.813-2.846-0.502-5.812-1.536-8.417c-1.542-3.883-2.883-8.007-5.218-11.505c-1.703-2.548-3.818-4.571-5.566-6.95   c0.653-0.011,1.305-0.013,1.956-0.032c10.856-0.321,21.638-1.298,32.507-1.296c5.081,0.001,10.184,0.205,15.258,0.166   c6.307,0.847,12.053,0.674,18.362-0.135c7.147-0.917,14.408-0.366,21.595-0.473c5.415-0.081,10.717,0.798,15.805-1.357   c1.706-0.722,2.552-2.879,2.625-4.576C421.228,382.908,414.14,378.268,409.765,374.405z M370.431,354.321   c4.269-0.039,8.207,4.396,11.418,7.049c0.345,0.284,0.672,0.588,1.012,0.878c-0.837-0.134-1.746,0.032-2.563,0.666   c0.377-0.291-2.723-1.214-3.096-1.282c-2.138-0.381-4.403-0.037-6.556,0c-4.188,0.073-8.387,0.01-12.584-0.059   c-1.166-2.076-2.365-4.135-3.671-6.074C359.78,355.412,365.097,354.372,370.431,354.321z M328.771,374.684   c-1.573-0.023-3.144-0.026-4.702,0.038c-4.651,0.198-9.178,1.325-13.882,1.481c-0.032,0.001-0.065,0-0.097,0   c0.021-3.049,0.028-6.164-0.451-9.142c6.317-0.006,12.613,0.128,18.861,0.507C328.625,370.157,328.643,372.666,328.771,374.684z    M308,354.316c4.387,0.417,8.414,1.561,12.882,1.477c1.603-0.03,3.202-0.071,4.802-0.111c0.963,1.242,1.594,2.941,2.016,4.861   c-3.697-0.147-7.399-0.256-11.12-0.251c-2.718,0.002-5.438-0.001-8.156,0c-0.197-1.211-0.38-2.428-0.541-3.678   c-0.105-0.815-0.249-1.595-0.451-2.342C307.62,354.288,307.81,354.297,308,354.316z M301.026,353.922   c0.727,1.704-0.115,4.358-0.387,6.371c-5.79,0.001-11.578,0.005-17.368,0.001c-0.11-2.044-0.275-4.085-0.548-6.165   C288.813,354.036,294.954,353.77,301.026,353.922z M301.033,371.343c-0.038,1.344-0.159,2.827-0.276,4.366   c-0.776-0.012-1.553,0-2.33,0.07c-4.964,0.45-9.771,0.378-14.717,0.315c-0.013-1.919-0.115-3.789-0.154-5.443   c-0.025-1.081-0.045-2.141-0.065-3.193c5.781-0.101,11.583-0.237,17.387-0.325C300.984,368.525,301.072,369.922,301.033,371.343z    M283.144,382.643c1.721,0.027,3.442,0.051,5.163,0.104c4.101,0.126,8.173-0.454,12.219-0.39c0.066,1.805,0.275,3.566,0.794,5.159   c-6.599-0.185-13.202-0.512-19.801-0.785C282.304,385.521,282.812,384.127,283.144,382.643z M255.122,359.261   c0.567-2.145,1.443-3.937,1.766-5.963c6.069,0.27,12.136,0.638,18.205,0.809c1.092,0.03,2.19,0.037,3.287,0.043   c-0.421,2.043-0.859,4.09-1.285,6.139c-7.404-0.006-14.808-0.017-22.211-0.027C254.96,359.928,255.032,359.598,255.122,359.261z    M253.553,367.586c6.198-0.005,12.399-0.011,18.598-0.011c1.19,0,2.389-0.017,3.583-0.025c-0.167,1.034-0.334,2.067-0.464,3.1   c-0.21,1.677-0.593,3.511-0.916,5.379c-7.848,0.015-15.628,0.271-23.457,1.285c-0.218,0.027-0.435,0.046-0.651,0.072   c0.843-2.083,1.68-4.047,2.255-5.722C252.973,370.286,253.291,368.933,253.553,367.586z M274.95,386.484   c-2.095-0.069-4.189-0.124-6.282-0.162c-7.186-0.124-14.305,0.695-21.459,1.158c0.133-1.174,0.407-2.395,0.749-3.627   c2.573-0.122,5.106-0.387,7.775-0.791c5.738-0.867,11.66-0.507,17.452-0.506c0.226,0.001,0.454,0.004,0.68,0.004   C273.982,383.95,274.303,385.278,274.95,386.484z M229.418,357.822c0.675-2.012,1.758-3.677,1.513-5.76   c3.595,0.455,7.085,1.017,10.884,0.95c3.324-0.06,6.645-0.007,9.966,0.095c-0.51,1.576-1.432,2.988-2.105,4.56   c-0.362,0.846-0.649,1.714-0.919,2.589c-1.428-0.002-2.857-0.004-4.285-0.006c-5.293-0.008-10.649,0.186-15.952,0.019   C228.831,359.458,229.141,358.649,229.418,357.822z M216.027,383.478c0.184-0.328,0.378-0.651,0.564-0.977   c4.533,0.034,8.648,0.559,13.168,1.171c3.285,0.445,6.683,0.227,10.039,0.184c-0.445,1.296-0.823,2.631-1.015,3.929   c-8.375,0.107-16.758-0.065-25.135-0.102C214.483,386.305,215.248,384.878,216.027,383.478z M211.256,375.824   c-6.499,0.102-13.018,0.412-19.473,0.265c-0.175-0.005-0.348-0.017-0.522-0.023c1.144-2.079,2.322-4.137,3.828-6.017   c0.831-1.039,1.574-2.121,2.276-3.224c6.209-0.013,12.538-0.675,18.598-0.331c0.412,0.025,0.818,0.047,1.229,0.071   c-0.292,0.469-0.589,0.932-0.893,1.379C214.542,370.533,212.883,373.167,211.256,375.824z M223.803,376.069   c-1.102-0.077-2.209-0.126-3.315-0.168c1.194-1.987,2.381-3.979,3.493-6.012c0.519-0.949,1.023-1.902,1.511-2.863   c5.916,0.314,11.814,0.565,17.825,0.565c0.998,0.001,1.997-0.001,2.994-0.001c-1.276,3.38-2.673,6.738-4.056,10.075   C236.072,377.463,229.897,376.495,223.803,376.069z M206.746,350.636c1.691,0.076,3.38,0.194,5.061,0.393   c5.003,0.59,9.945,0.248,14.948,0.601c0.391,0.027,0.773,0.066,1.16,0.102c-2.818,1.99-4.893,4.943-6.772,8.077   c-3.986-0.354-7.939-0.765-12.003-0.765c-2.355-0.001-4.793,0.11-7.252,0.198C203.605,356.503,205.462,353.663,206.746,350.636z    M176.788,353.987c1.068-1.545,2.313-2.834,3.033-4.283c6.981,1.181,14.134,0.824,21.265,0.821   c-2.176,2.266-4.565,4.391-6.39,6.921c-0.431,0.597-0.872,1.198-1.316,1.8c-1.287-0.075-2.563-0.181-3.806-0.374   c-4.814-0.747-9.599-1.771-14.386-2.715C175.728,355.44,176.274,354.729,176.788,353.987z M174.246,348.914   c-0.493,0.336-0.952,0.66-1.293,0.974c-1.89,1.747-3.494,3.807-5.299,5.645c-2.834,0.026-5.67,0.18-8.517-0.098   c-3.608-0.353-7.171-0.869-10.756-1.28c2.134-2.25,4.18-4.589,5.734-7.224C160.813,347.995,167.563,348.155,174.246,348.914z    M130.8,342.691c1.081,0.443,2.25,0.771,3.635,0.918c4.988,0.529,10.159,1.457,15.131,2.473c-3.221,2.052-6.272,4.603-9.145,7.373   c-4.426-0.372-8.764-1.048-13.183-1.399c-1.77-0.14-3.457-0.071-5.113,0.103C125.07,349.163,127.807,345.677,130.8,342.691z    M110.042,364.562c2.012-2.26,4.115-4.419,6.242-6.555c5.829,1.021,11.715,1.843,17.639,2.343   c-1.685,1.937-3.29,3.876-4.804,5.743c-1.961,2.419-4.116,4.715-6.113,7.127c-6.318-0.989-12.492-2.342-18.762-1.906   C106.115,369.004,108.08,366.766,110.042,364.562z M115.75,386.519c-3.119-0.009-6.239-0.013-9.357-0.032   c-3.529-0.023-8.427,0.698-12.488,0.181c1.44-2.779,3.497-5.581,4.895-7.823c0.788-1.264,1.627-2.498,2.502-3.707   c5.889,1.338,11.896,2.472,17.888,3.46C117.848,381.146,117.059,384.018,115.75,386.519z M144.597,386.984   c-7.327-0.321-14.629-0.424-22.021-0.438c0.205-0.314,0.403-0.637,0.592-0.971c1.155-2.038,2.354-3.936,3.609-5.781   c6.819,1.019,13.262,1.412,19.968,1.511C145.712,383.081,144.907,384.991,144.597,386.984z M143.628,375.318   c-4.335,0.173-8.481-0.672-12.728-1.158c0.518-0.666,1.042-1.333,1.584-2.008c3.041-3.793,6.141-7.463,9.375-11.069   c6.338,0.717,12.719,1.733,19.018,1.894c-1.329,1.578-2.634,3.184-3.91,4.874c-1.849,2.451-3.809,4.826-5.719,7.23   C148.71,375.145,146.173,375.216,143.628,375.318z M176.55,382.858c-1.173,1.617-1.771,3.468-1.777,5.318   c-6.967,0.007-13.914-0.147-20.788-0.657c-0.537-0.04-1.068-0.062-1.605-0.098c0.253-0.661,0.52-1.323,0.85-1.982   c0.776-1.544,1.834-2.831,2.928-4.104c7.132,0.009,14.243,0.171,21.347,0.384C177.169,382.084,176.842,382.456,176.55,382.858z    M161.809,374.935c-0.23,0-0.457,0.007-0.687,0.007c2.005-2.857,3.921-5.8,5.986-8.586c0.757-1.021,1.541-2.016,2.333-3.004   c6.09,0.5,12.072,1.508,18.157,2.689c0.248,0.049,0.497,0.084,0.747,0.127c-1.06,1.527-2.075,3.069-2.988,4.629   c-0.864,1.476-1.646,3.019-2.509,4.508c-1.652-0.193-3.306-0.38-4.972-0.505C172.583,374.406,167.117,374.933,161.809,374.935z    M182.844,388.111c0.152-0.458,0.332-0.898,0.571-1.299c0.903-1.516,2.825-2.679,3.904-4.163c0.147-0.201,0.277-0.41,0.418-0.615   c6.491,0.201,12.986,0.38,19.499,0.439c-1.035,1.709-2.023,3.398-2.538,5.239C197.447,387.801,190.145,388.002,182.844,388.111z    M315.423,419.151c0.077,0.198,0.135,0.42,0.185,0.648c-0.682,0.073-1.427,0.232-1.772,0.269   c-3.173,0.321-6.125,1.513-9.241,2.078c-3.993,0.725-8.176,0.599-12.215,0.5c-7.418-0.184-14.812-0.417-22.233-0.43   c-14.887-0.027-30.325,1.231-45.111-0.646c-7.274-0.923-14.417-1.702-21.763-1.818c-3.572-0.056-7.152-0.088-10.724-0.037   c-0.985,0.014-2.913,0.357-4.784,0.57c0.079-0.116,0.166-0.235,0.243-0.348c1.7-2.551,3.091-5.336,4.743-7.928   c3.061-4.804,8.478-9.412,10.171-14.956c17.998,0.163,36.121,0.843,54.016-0.922c14.587-1.44,29.202,0.239,43.793,0.897   c0.503,0.83,1.246,1.521,2.23,1.935c0.04,0.111,0.32,0.523,0.75,1.588c0.425,1.053,1.096,1.937,1.789,2.833   c1.933,2.503,4.392,4.282,6.042,7.052C313.149,413.139,314.276,416.226,315.423,419.151z M323.7,387.293   c-4.664,0.289-9.335,0.377-14.01,0.36c0.291-0.519,0.173-2.446,0.24-3.154c0.056-0.593,0.072-1.187,0.096-1.78   c6.467-0.244,12.835-1.51,19.343-1.347c0.208,0.005,0.417,0.003,0.625,0.008c0.454,1.802,1.03,3.732,1.818,5.493   C329.113,386.99,326.409,387.125,323.7,387.293z M332.895,355.523c1.414-0.024,2.829-0.037,4.245-0.036   c3.902,0.007,7.802,0.013,11.704,0.019c0.669,1.894,1.021,3.955,1.478,5.945c-5.02-0.092-10.015-0.327-15.006-0.567   C334.695,359.07,333.913,357.196,332.895,355.523z M337.066,368.069c5.187,0.275,10.346,0.456,15.54,0.534   c0.694,2.091,1.399,4.178,2.29,6.183c-5.573,0.024-11.146,0.079-16.713,0.083C337.701,372.611,337.427,370.344,337.066,368.069z    M358.59,384.752c-3.067-0.345-6.229-0.526-9.297-0.069c-2.582,0.385-4.899,1.338-7.469,1.72c-0.117-0.245-0.236-0.5-0.361-0.785   c-0.577-1.323-0.991-2.718-1.392-4.121c6.274,0.014,12.549-0.047,18.822-0.077c0.084,0.127,0.174,0.261,0.245,0.37   c0.747,1.155,1.388,2.284,2.145,3.274C360.391,384.959,359.495,384.854,358.59,384.752z M363.528,371.005   c-0.505-0.77-0.993-1.569-1.475-2.38c4.756-0.102,9.948-0.721,14.608-0.089c3.5,0.474,5.201,1.263,8.02-1.24   c0.914-0.814,1.154-1.743,0.97-2.587c2.902,2.67,5.669,5.478,8.424,8.308c0.031,0.032,0.062,0.064,0.091,0.095   c-1.861,0.219-3.714,0.723-5.79,1.162c-6.005,1.272-11.922,0.749-18.005,0.612c-1.216-0.026-2.434-0.03-3.652-0.046   C365.736,373.597,364.539,372.547,363.528,371.005z M398.556,384.426c-7.044-0.07-13.974-0.033-20.951,1.01   c-3.022,0.452-5.95,0.483-8.868,0.325c0.724-1.418,0.715-2.821,0.441-4.324c10.23,0.131,20.069,0.481,29.893-3.263   c1.399,1.42,2.818,2.821,4.297,4.157c0.673,0.61,1.926,1.627,3.186,2.729C403.715,384.861,400.829,384.448,398.556,384.426z"></path>	</g></g><g>	<g>		<path d="M393.509,82.959c-2.465-4.613-8.565-3.242-12.76-2.449c-15.726,2.972-32.214,2.512-48.068,0.406   c-18.857-2.505-37.875-3.743-56.839-4.843c-9.167-0.531-18.126-1.001-27.314-0.89c-9.504,0.115-18.918-1.314-28.431-1.347   c-19.353-0.065-38.729,1.209-58.101,1.306c-9.698,0.049-19.401,0.177-29.1,0.169c-7.248-0.006-14.129-0.492-19.261,5.542   c-0.181,0.213-0.316,0.433-0.457,0.654c-1.259,0.66-2.139,2.002-1.68,3.79c1.53,5.964,1.824,12.735,2.184,18.966   c0.489,8.445,0.672,16.884,1.092,25.326c0.808,16.203,1.576,32.08,3.87,48.146c2.303,16.139,2.176,32.579,4.689,48.69   c1.22,7.825,1.434,15.655,2.3,23.515c0.868,7.878,2.468,15.443,1.993,23.406c-0.27,4.516-0.469,10.221,2.974,13.74   c1.676,1.71,3.736,2.338,6.045,2.587c3.436,0.371,6.888,0.295,10.365,0.683c15.355,1.715,30.882,2.548,46.346,2.767   c8.354,0.118,16.96,0.332,25.236,1.466c8.166,1.119,16.299,0.878,24.538,0.875c8.227-0.001,16.456-0.044,24.682,0.073   c3.893,0.055,7.803,0.175,11.697,0.028c4.732-0.178,9.319-1.265,14.05-1.349c17.756-0.314,35.546,0.103,53.305-0.039   c10.749-0.086,26.515,4.362,33.093-7.302c3.28-5.816,3.499-10.938,3.812-17.39c0.423-8.766,2.699-17.406,3.082-26.23   c0.329-7.617,2.416-14.886,2.28-22.539c-0.163-9.193-0.041-18.34,0.043-27.529c0.075-7.957,2.222-15.385,2.898-23.263   c0.723-8.429,0.308-16.792,1.208-25.242c0.843-7.916,0.163-15.788,0.084-23.714c-0.082-8.392,1.096-16.777,1.157-25.216   C394.551,91.935,395.399,86.497,393.509,82.959z M384.812,95.101c-0.515,5.316-0.004,10.587-0.766,15.913   c-1.51,10.545,0.145,21.13-0.578,31.714c-0.336,4.929-1.188,9.754-1.106,14.711c0.101,6.086,0.374,11.886-0.572,17.936   c-1.668,10.635-0.956,20.681-0.952,31.408c0.001,5.749,0.128,11.646-0.24,17.38c-0.323,5.028-1.976,9.858-2.452,14.879   c-0.546,5.752-0.721,11.417-1.707,17.137c-0.903,5.237-1.989,10.255-2.26,15.558c-0.186,3.655-0.964,9.415-4.125,11.887   c-2.905,2.273-10.628,1.818-14.016,1.279c-10.439-1.661-21.6-0.565-32.152-0.567c-11.353-0.002-23.173-0.97-34.472,0.109   c-11.079,1.06-21.864,1.064-33.018,1.061c-10.625-0.002-21.646,0.836-32.228-0.102c-11.042-0.978-21.934-2.213-33.063-2.282   c-5.123-0.031-10.247,0.221-15.33-0.489c-5.098-0.713-10.198-0.378-15.271-1.051c-5.081-0.673-10.152-0.631-15.236-1.259   c-1.69-0.208-3.253-0.398-4.963-0.366c-2.464,0.047-2.38,0.885-3.138-0.813c-1.196-2.68,0.161-7.527,0.109-10.448   c-0.096-5.348-1.206-10.587-2.023-15.852c-1.586-10.217-2.187-20.562-3.703-30.803c-1.792-12.102-2.517-24.431-3.87-36.594   c-1.366-12.277-3.983-24.22-4.25-36.623c-0.251-11.687-0.894-23.528-1.848-35.177c-0.668-8.16-0.829-16.65-2.278-24.716   c0.474-0.244,0.948-0.558,1.4-1.01c3.434-3.437,10-1.607,14.439-1.535c5.985,0.098,11.974,0.064,17.96,0.094   c11.849,0.059,23.725,0.345,35.573,0.124c11.223-0.207,22.406-1.269,33.639-1.12c11.784,0.155,23.42,1.152,35.229,1.116   c11.381-0.034,22.989,0.842,34.369,1.37c11.305,0.525,22.641,1.265,33.915,2.24c11.737,1.014,22.943,1.828,34.741,1.432   c5.151-0.173,10.449,0.153,15.547-0.667c2.435-0.391,6.704-2.275,9.871-2.463C385.96,90.624,384.961,93.561,384.812,95.101z"></path>	</g></g><g>	<g>		<path d="M297.023,194.545c-3.973-5.128-12.973-13.024-7.618-19.506c2.781-3.366,7.828-6.975,6.965-11.958   c-0.963-5.555-8.009-7.347-12.694-7.986c-2.067-0.282-4.201-0.217-6.252-0.548c-2.144-0.346-3.057-1.093-4.88-1.913   c-1.365-0.614-5.539-0.18-8.54-0.208c-0.473-0.315-1.071-0.481-1.763-0.385c-0.271,0.038-0.542,0.076-0.815,0.114   c-0.314-0.103-0.538-0.24-0.64-0.426c-0.178-0.325-0.617-0.145-0.647,0.175c-0.014,0.152-0.028,0.302-0.043,0.455   c-0.744,0.187-1.378,0.975-1.561,1.669c-1.346,5.06-1.79,9.824-3.639,14.795c-1.125,3.025-2.549,5.921-3.68,8.945   c-1.996,5.337-3.634,13.279,3.343,15.736c4.992,1.757,13.598-6.407,16.396-2.585c2.124,2.901,1.83,7.542,3.55,10.769   c0.893,1.674,2.17,3.465,3.616,5.106c-0.23,0.438-0.413,0.912-0.488,1.464c-0.174,1.276,0.475,2.253,1.806,2.372   c0.777,0.069,1.569-0.071,2.361-0.336c0.345,0.269,0.69,0.528,1.034,0.76c1.723,1.16,3.976-0.388,4.003-2.297   c0.007-0.487-0.036-0.938-0.114-1.366c0.894-0.668,1.736-1.323,2.495-1.835c3.191-2.147,6.164-4.467,8.223-7.764   C298.136,196.681,297.75,195.482,297.023,194.545z M283.734,202.373c-0.776-0.859-1.586-1.735-2.284-2.756   c-2.221-3.25-2.198-7.472-3.81-11.01c-2.505-5.501-7.37-7.417-12.983-5.244c-1.369,0.531-6.519,4.387-7.846,3.653   c-2.333-1.292,0.921-7.983,1.49-9.525c1.144-3.104,2.149-6.188,3.128-9.344c1.216-3.926,1.298-7.599,1.691-11.548   c0.118-0.032,0.237-0.065,0.355-0.097c0.51-0.14,0.885-0.38,1.155-0.674c0.291,0.056,0.58,0.111,0.884,0.172   c2.498,0.497,4.387,1.523,6.525,2.393c2.287,0.929,4.448,1.42,6.91,1.739c2.806,0.361,10.999,0.424,11.366,4.033   c0.242,2.385-3.521,5.017-5.02,6.762c-8.155,9.488,0.448,17.634,6.492,25.493C289.603,198.913,286.559,200.638,283.734,202.373z"></path>	</g></g><g>	<g>		<path d="M70.312,409.809c-0.143-0.233-0.416-0.34-0.68-0.276c-2.521,0.61-5.106,2.185-6.564,4.392   c-0.911,1.376-1.414,2.42-2.714,3.514c-1.409,1.188-2.545,2.37-2.457,4.34c0.063,1.37,1.228,2.952,2.778,2.775   c0.275-0.03,0.516-0.07,0.743-0.117c-0.001,0.006-0.004,0.013-0.005,0.019c0.028-0.009,0.052-0.025,0.079-0.033   c0.603-0.133,1.068-0.345,1.52-0.731c2.428-1.51,3.898-4.345,5.029-6.862C69.032,414.629,71.902,412.41,70.312,409.809z"></path>	</g></g><g>	<g>		<path d="M77.251,413.671c-0.574,1.122-1.958,2.002-2.936,2.73c-1.161,0.863-2.075,1.771-3.057,2.817   c-2.197,2.342-3.922,4.316-3.454,7.708c0.441,3.191,5.503,2.906,6.172,0c1.065-4.624,6.222-6.971,7.546-11.454   C82.26,412.973,78.474,411.283,77.251,413.671z"></path>	</g></g><g>	<g>		<path d="M83.848,419.662c-1.584,1.135-2.82,2.516-3.998,4.063c-1.291,1.695-2.842,3.57-2.189,5.851   c0.521,1.822,2.736,2.82,4.404,1.792c1.637-1.01,1.947-2.746,2.744-4.263c0.617-1.174,1.309-2.335,2.262-3.266   C89.172,421.788,86.358,417.861,83.848,419.662z"></path>	</g></g><g>	<g>		<path d="M145.39,152.764c-1.982,4.397-13.802,11.958-7.044,17.171c0.905,0.698,2.215,0.258,2.978-0.385   c1.202-1.012,1.301-2.406,1.931-3.723c0.606-1.267,1.592-2.303,2.525-3.332c2.08-2.293,4.086-4.427,5.065-7.432   C151.873,151.904,146.793,149.651,145.39,152.764z"></path>	</g></g><g>	<g>		<path d="M152.369,163.41c-1.115,1.252-1.83,2.753-3.357,3.532c-1.199,0.611-2.307,1.134-3.408,1.935   c-2.271,1.654-4.897,3.655-5.405,6.594c-0.699,4.04,4.689,5.549,6.137,1.693c0.674-1.797,2.741-3.632,4.266-4.705   c1.201-0.843,2.41-1.323,3.288-2.566c0.843-1.195,1.06-2.674,1.857-3.877C157.088,163.995,153.996,161.578,152.369,163.41z"></path>	</g></g><g>	<g>		<path d="M153.519,178.775c-1.779,1.539-3.802,2.86-5.286,4.707c-0.525,0.655-0.917,1.374-1.383,2.067   c-0.134,0.2-0.282,0.428-0.442,0.635c-0.122,0.034-0.827,0.563-0.987,0.689c-1.617,1.277-0.441,3.573,1.097,4.156   c2.742,1.04,4.572-1.609,5.509-3.695c0.976-2.174,3.025-3.718,4.602-5.451C158.547,179.773,155.652,176.931,153.519,178.775z"></path>	</g></g><g>	<g>		<path d="M151.363,192.016c-0.63,0.546-1.237,1.276-1.488,2.092c-0.146,0.469-0.065,1.253-0.252,1.548   c-0.218,0.341-0.918,0.605-1.282,0.897c-0.982,0.79-1.237,1.722-1.063,2.951c0.187,1.317,1.984,1.834,2.994,1.218   c0.561-0.342,0.894-0.757,1.224-1.026c0.636-0.519,1.215-0.918,1.632-1.651c0.384-0.674,0.586-1.427,0.634-2.198   c0.015-0.245,0-0.489,0.007-0.733c0.001-0.047,0.006-0.094,0.008-0.14c0.049-0.014,0.133-0.095,0.268-0.272   C155.847,193.017,153.191,190.431,151.363,192.016z"></path>	</g></g><g></g><g></g><g></g><g></g><g></g><g></g><g></g><g></g><g></g><g></g><g></g><g></g><g></g><g></g><g></g></svg>