<svg xmlns="http://www.w3.org/2000/svg" id="Layer_1" height="512" viewBox="0 0 512 512" width="512"><g id="_x38_2"><path d="m38.322 429.395c1.154 2.129 3.4 3.495 5.821 3.5l418.28.797c3.428.006 6.687-1.522 8.822-4.204 2.899-3.64 6.641-8.556 8.617-13.092 6.921-6.129-5.833-9.831-40.851-73.61-1.387-68.977-4.104-150.657-5.562-219.777-.14-6.699-5.497-11.928-12.209-11.928-171.93 0-236.942-1.027-333.466.918-5.267.11-9.418 4.291-9.449 9.521-.404 66.678-1.137 150.957-1.555 219.846-27.183 42.82-26.62 43.961-45.408 69.264-1.188 1.599-1.37 3.729-.473 5.507zm160.135-21.361 5.824-10.018c3.055-5.247 8.507-8.408 14.582-8.459 27.45-.216 56.537-.847 84.216-1.065 11.536.148 14.591 7.997 21.084 19.178zm-109.618-285.531c82.933-1.662 331.185-.909 332.397-.901.949 0 1.675.699 1.692 1.627 1.415 66.829 3.966 144.334 5.404 212.529l-341.014 1.247c.408-65.85 1.117-148.182 1.521-214.502zm-3.519 225.029 343.729-1.256c.061.139.043.302.116.436 15.995 29.203 22.561 38.794 37.342 60.548l-131.137.379c.03-1.91.009-2.053-8.5-16.126-5-8.435-14.11-13.829-23.877-13.541-27.466.216-56.543.847-84.216 1.065-9.682.079-18.719 5.325-23.589 13.688-4.887 8.546-8.079 13.609-8.718 15.344l-140.48.406c13.332-18.446 16.852-25.512 39.33-60.943z"></path><path d="m113.223 319.859c1.378.35-18.654.112 286.575.017 2.798 0 5.106-2.195 5.25-4.99 2.38-46.524.432-114.014-4.856-167.938-.469-4.818-4.493-8.555-9.363-8.688-93.325-2.586-181.873-2.753-270.712-.541-5.096.13-9.154 4.027-9.442 9.065-2.86 50.041-3.627 122.106-3.13 167.89.031 2.957 2.525 5.41 5.678 5.185zm7.911-171.641c88.164-2.192 176.068-2.014 268.664.534 4.997 51.428 6.949 115.038 4.979 160.606l-276.76.14c-.387-45.458.411-113.331 3.117-161.28z"></path><path d="m132.004 358.64h-17.726c-2.904 0-5.26 2.356-5.26 5.26s2.356 5.26 5.26 5.26h17.726c2.904 0 5.26-2.356 5.26-5.26s-2.356-5.26-5.26-5.26z"></path><path d="m211.949 366.133h11.267c2.904 0 5.26-2.356 5.26-5.26s-2.356-5.26-5.26-5.26h-11.267c-2.904 0-5.26 2.356-5.26 5.26s2.356 5.26 5.26 5.26z"></path><path d="m298.38 365.27h12.599c2.904 0 5.26-2.356 5.26-5.26s-2.356-5.26-5.26-5.26h-12.599c-2.904 0-5.26 2.356-5.26 5.26s2.356 5.26 5.26 5.26z"></path><path d="m370.552 369.16h18.589c2.904 0 5.26-2.356 5.26-5.26s-2.356-5.26-5.26-5.26h-18.589c-2.904 0-5.26 2.356-5.26 5.26-.001 2.904 2.356 5.26 5.26 5.26z"></path><path d="m424.024 82.537-3.455 17.288c-.569 2.849 1.277 5.62 4.127 6.188 2.77.57 5.607-1.222 6.188-4.127l3.455-17.288c.568-2.849-1.277-5.62-4.127-6.188-2.856-.565-5.616 1.277-6.188 4.127z"></path><path d="m463.48 100.965c2.168-1.935 2.36-5.26.428-7.428-1.935-2.164-5.26-2.366-7.428-.428l-15.863 14.134c-3.609 3.216-1.308 9.188 3.503 9.188 3.507 0 3.578-1.994 19.36-15.466z"></path><path d="m445.11 140.523 17.288 4.61c2.846.749 5.698-.947 6.438-3.726.75-2.808-.918-5.688-3.726-6.438l-17.288-4.61c-2.818-.733-5.692.921-6.438 3.726-.75 2.808.918 5.688 3.726 6.438z"></path><path d="m207.206 254.479c12.78 10.473 27.807 17.969 39.911 27.966 1.933 1.592 4.735 1.612 6.688.003 40.951-33.669 47.239-37.996 53.551-47.065 8.291-11.911 10.555-27.435 5.904-40.503-7.414-20.874-31.68-33.465-53.055-22.082-3.204 1.703-8.098 7.064-9.88 7.973-.729-.455-1.616-1.223-2.479-1.969-9.216-8.008-24.118-11.069-36.842-7.075v.003c-15.86 4.976-27.798 20.647-28.387 37.253-.764 21.427 15.075 37.701 24.589 45.496zm6.948-72.716v.003c9.344-2.925 20.386-.576 26.801 4.983 6.833 5.924 11.209 7.196 20.545-1.616 13.152-12.374 35.364-4.981 41.849 13.271 3.531 9.928 1.757 21.795-4.63 30.969-5.173 7.436-9.872 10.646-48.312 42.253-11.873-9.098-25.366-16.135-36.534-25.284-13.623-11.161-21.182-24.644-20.743-36.986.435-12.299 9.278-23.905 21.024-27.593z"></path><path d="m168.5 247.455c1.921-2.182 1.712-5.503-.466-7.425-5.312-4.682-8.291-12.911-7.969-22.021.315-8.911 3.366-17.825 6.315-26.449.942-2.747-.524-5.74-3.274-6.678-2.736-.945-5.74.524-6.678 3.274-3.051 8.911-6.507 19.01-6.877 29.483-.438 12.404 3.764 23.442 11.524 30.281 2.181 1.927 5.511 1.708 7.425-.465z"></path><path d="m334.309 235.862c-1.062 2.705.271 5.757 2.973 6.822 2.727 1.061 5.764-.284 6.822-2.973 7.428-18.914 3.414-41.884-9.986-57.161-1.918-2.178-5.233-2.397-7.425-.486-2.185 1.918-2.401 5.24-.486 7.425 10.876 12.394 14.129 31.031 8.102 46.373z"></path><path d="m219.726 223.088h.863c2.904 0 5.26-2.356 5.26-5.26s-2.356-5.26-5.26-5.26h-.863c-2.904 0-5.26 2.356-5.26 5.26s2.356 5.26 5.26 5.26z"></path><path d="m246.521 223.088h.863c2.904 0 5.26-2.356 5.26-5.26s-2.356-5.26-5.26-5.26h-.863c-2.904 0-5.26 2.356-5.26 5.26s2.356 5.26 5.26 5.26z"></path><path d="m276.771 223.684c2.904 0 5.26-2.623 5.26-5.527s-2.356-5.26-5.26-5.26-5.26 2.356-5.26 5.26v.534c0 2.904 2.356 4.993 5.26 4.993z"></path></g></svg>