<svg xmlns="http://www.w3.org/2000/svg" id="Layer_1" height="512" viewBox="0 0 73 73" width="512"><g id="_x35_9"><path d="m6.8940301 16.2330723-.000061-.0073242c-.7064266.3443298-1.5953541.7776165-1.4901123.7263184-.5261841.5068359-.8270264 1.1992188-.8363037 1.925293l-.4422608 34.623537c-.0153809 1.2055664.9613647 2.1953125 2.1816406 2.2109375l22.4835815.2873535-.0767212 5.9587402c0 .0002441.0001831.0004883.0001831.0009766l-17.2921753-.2207031c-.0039063 0-.0068359 0-.0097656 0-.4101563 0-.7451172.3291016-.75.7402344-.0047607.4033203.3109741.7316895.7099609.7531738l1.1442871 1.1442833h41.2232666l.4237671-.6481895c.7788162-.2935638.5670013-1.4378395-.2532349-1.4475098l-17.6661972-.2253419.052002-5.9599609 19.5454102.2497559c.7566528.0097656 1.4656372-.3637695 1.8789063-.9899902l.6190186-1.6760254c.038269-.0253906.081543-.0424805.1148071-.0751953.1425781-.1386719.2236328-.3291016.2265625-.5273438.4011841-38.0287209.6601906-36.0039139.2431641-36.4296875-.140625-.1425781-.3320313-.2236328-.5322266-.2246094-55.1376382-.2169399-51.1465222-.2731686-51.4974991-.1887226zm27.849916 45.8024921-4.5302753-.0576172c0-.0002441.0001221-.0002441.0001221-.0004883l.0767822-5.9592285 4.505373.0576172zm22.8848877-44.1167011-.4384766 34.3876953-50.1100478-.6401348-.0576172-10.9638672.7692261-23.0004902z"></path><path d="m27.4823475 43.095623c.2648582.3188744.7341938.3595619 1.0488281.1025391l16.0947285-13.0664082c.3212891-.2607422.3710938-.7333984.109375-1.0546875-.2617188-.3232422-.734375-.3710938-1.0546875-.109375l-15.5166035 12.5966816c-2.1068325-2.5861549-2.6772671-3.6546707-5.0087891-6.4550781-.2666016-.3203125-.7392578-.3623047-1.0556641-.0966797-.3183594.2646484-.3623047.7373047-.0966797 1.0556641 2.4094792 2.8948822 3.0273839 4.0820923 5.4794923 7.0273437z"></path><path d="m59.3915291 8.6288252c-.4052734-.0458984-.7832031.2480469-.8300781.6601563l-.5771484 5.0371094c-.046875.4111328.2480469.7832031.6601563.8300781.4310303.044589.7844696-.2628832.8300781-.6601563l.5771484-5.0371094c.0468749-.4111328-.2480469-.7832031-.6601563-.8300781z"></path><path d="m62.3788338 15.2548018 2.5595665-3.6337891c.2382813-.3378906.1572266-.8056641-.1816406-1.0449219-.3378906-.2392578-.8056602-.1591797-1.0449181.1816406l-2.5595703 3.6337891c-.3521996.4994278.0135117 1.1816406.6123047 1.1816406.2363281 0 .4677734-.1103515.6142578-.3183593z"></path><path d="m68.1786346 17.8378086-5.6162071-.4042969c-.4082031-.0273438-.7714844.2802734-.8017578.6943359-.0292969.4130859.28125.7724609.6943359.8017578 6.4239922.4617119 5.5526161.40625 5.6708946.40625.3896484 0 .71875-.3017578.7470703-.6962891.029297-.4130858-.2812499-.7724608-.6943359-.8017577z"></path></g></svg>