<svg xmlns="http://www.w3.org/2000/svg" id="Layer_1" height="512" viewBox="0 0 52 52" width="512"><g id="_x32_7_1_"><path d="m3.6 39.8c.5.2 1.1.3 1.6.3 1.4 0 3.9 0 3.8 0h10.4c.3.8.5 1.6.8 2.4.3.7.5 1.4.8 2-.6 0-2.3 0-2.7.1-1 0-2 .4-2.8 1.1-1 .9-1.6 2.3-1.6 3.6v.1c0 .4.3.7.7.7 2.2-.1 3.1-.1 5.7-.3 1.9-.1 3.8-.3 5.7-.5-3.6-.4-7.7-.6-8.5-.6-.6 0-1.3-.1-1.9-.1.2-.6.6-1.2 1.1-1.6.3-.3.7-.5 1.2-.6.2-.1.4-.1.6-.1h.8c2.2 0 4.5 0 6.7.1 2.2 0 4.5 0 6.7-.1h.8c.2 0 .4 0 .6.1.4.1.8.3 1.2.6.5.4.9 1 1.1 1.6-.7 0-1.3.1-2 .1-.9.1-1.9.1-2.8.2-1.9.1-3.8.3-5.7.5 1.9.2 3.8.3 5.7.5.9.1 1.9.1 2.8.2 1.5.1 2.4.1 2.8.1s.7-.3.7-.7c0-1.3-.6-2.7-1.6-3.6-.8-.7-1.9-1.1-2.8-1.1-.4 0-.6 0-.9 0-.6 0-1.2 0-1.9 0 .3-.7.6-1.3.8-2 .3-.8.6-1.6.8-2.4 1.7 0 10.1 0 13.7-.1h.6c.3 0 .5 0 .8-.1 1.6-.3 2.9-1.7 3.1-3.4.1-.6 0-1 0-1.4 0-7.7.1-.4-.3-29.5 0-.5-.1-1-.3-1.4-.4-.9-1.1-1.7-2-2-.5-.2-1-.3-1.4-.2-1.1-.3-3.6-.3-3.5-.3-6.8.2-9 .2-15.4.4 3.4.1 6.8.2 10.3.3.3 0 8.2.2 7.7.2h1.3c.4 0 .7.1 1.1.2.7.3 1.2.9 1.4 1.5.1.3.2.7.2 1.1 0 .2-.1 6.8-.1 6.4-.2 12.3-.2 14.3-.2 18.7l-11.3-.2h-12-12l-11.1.2v-1.3c0-4.6-.1-6.9-.2-20.5v-2.6c0-.4 0-.9 0-1.2.1-1.1.9-2 2-2.2.2 0 .4-.1.5-.1s2 0 1.9 0c6.8-.2 13.7-.3 20.5-.5-6.9-.2-13.7-.3-20.5-.5h-1.3-.6c-.2 0-.5 0-.7.1-1.6.3-2.8 1.5-3 3-.1.6-.1 1-.1 1.4v2.6c-.2 13.5-.3 15.8-.3 20.5 0 .1 0 6.7 0 6.4 0 .5.1 1.1.3 1.6.4 1 1.2 1.9 2.2 2.3zm27.1 2.5c-.1.8-.2 1.5-.2 2.3-1.5 0-3 0-4.5 0s-3 0-4.5 0c-.1-.8-.1-1.5-.2-2.3-.1-.7-.2-1.4-.3-2.2h.9c1.4.1 2.8.1 4.1.1h3c.6 0 1.2-.1 1.7-.1h.3c-.1.8-.2 1.5-.3 2.2zm-16.7-9.7h12 12l11.1-.1v2.7c0 1 0 1.5-.3 2s-.9.9-1.5 1c-.1 0-.3 0-.5 0-18.8-.1 22.8.1-22.4-.1-.1 0-18.1.1-18 .1h-1.3c-.3 0-.6 0-.9-.2-.6-.2-1-.7-1.2-1.3-.1-.3-.2-.6-.2-.9v-1.3-2.2z"></path><path d="m38.3 36.2c.5.3 1 .3 1.6 0 .3-.2.5-.4.8-.8-.3-.4-.5-.6-.8-.8-.5-.3-1.1-.3-1.6 0-.3.2-.5.4-.8.8.2.4.5.6.8.8z"></path><path d="m43.2 36.2c.5.3 1 .3 1.6 0 .3-.2.5-.4.8-.8-.3-.4-.5-.6-.8-.8-.5-.3-1.1-.3-1.6 0-.3.2-.5.4-.8.8.3.4.6.6.8.8z"></path></g></svg>