<svg xmlns="http://www.w3.org/2000/svg" id="Capa_1" height="512" viewBox="0 0 475.86 475.86" width="512"><g><path d="m319.735 119.497c-20.264-19.845-43.251-43.522-70.309-55.384 8.587-15.605-8.423-35.264-24.511-36.475 6.874-15.024-9.936-30.611-25.056-27.151-20.357 3.106-28.126 23.215-37.118 38.936-8.704 15.218-27.493 29.136-46.09 24.613-7.066-1.625-11.477-8.671-9.851-15.737.348-1.512.96-2.95 1.81-4.247 4.499-9.311 14.919-12.251 20.62-20.277 2.337-3.29-1.516-6.533-4.659-6.06-9.305 2.559-17.406 8.327-22.867 16.284-19.906 30.167 8.743 49.903 37.877 39.507 19.152-5.684 31.557-21.936 39.704-39.266 4.571-8.429 10.314-18.37 20.372-20.814 8.899-2.153 17.862 4.626 14.231 14.155-16.232 1.352-32.372 18.092-22.782 34.325-20.276 8.074-37.902 24.125-54.25 38.481-25.492 22.386-50.672 48.407-60.012 81.99-9.716 39.505-1.445 80.778 2.334 120.605 5.474 40.971 15.718 83.33 41.862 116.378 21.85 27.621 52.69 48.347 88.343 49.588 1.748 4.769 6.649 7.613 11.657 6.762 34.4-5.647 70.56-14.985 95.031-41.6 23.525-25.586 31.813-60.732 39.53-93.602 20.221-78.085 28.771-160.845-35.866-221.011zm-115.677-64.433c-1.492-4.052 2.409-10.577 8.212-12.854 6.564-2.525 13.954-1.621 19.716 2.411 4.488 3.886 6.995 9.582 6.828 15.516-10.923-3.566-22.562-4.358-33.868-2.306-.237-.939-.534-1.864-.888-2.767zm141.106 256.303c-19.694 92.077-30.548 133.101-132.414 145.923-67.17-8.184-103.515-74.053-114.707-134.421 26.167-14.212 50.631-32.36 79.268-41.927 9.04-3.308 20.149-5.005 27.195-11.904 1.601-1.651 1.559-4.288-.092-5.888-.486-.471-1.079-.816-1.728-1.006-9.86-2.801-20.731 2.156-29.926 5.599-9.948 3.697-19.669 7.98-29.111 12.825-17.782 8.342-33.722 20.146-46.888 34.721-6.02-32.58-8.928-65.659-8.686-98.79.63-34.778 16.217-62.118 40.085-86.48 24.578-21.996 48.277-52.052 82.031-58.804.042 10.432.533 20.858 1.413 31.249-.351 4.705 1.056 9.372 3.947 13.1 13.505 7.87 6.261-37.847 6.549-44.626 28.683 2.444 53.604 27.443 73.539 46.184 62.984 54.921 68.248 116.748 49.525 194.245z"></path><path d="m239.782 188.65c4.85-23.748 7.976-65.366-23.031-71.309-6.222-.739-12.411 1.622-16.561 6.317-8.149 5.986-8.024 18.941-9.19 28.279-1.879 18.729 1.101 37.625 8.651 54.867 1.955 6.314 6.027 11.761 11.53 15.423-2.435 13.41-4.872 29.824 2.911 41.825 2.144 2.073 5.563 2.014 7.636-.13.606-.627 1.051-1.392 1.297-2.228 1.814-10.442-.333-25.728 1.456-39.719 9.678-5.862 13.461-24.188 15.301-33.325zm-25.6 24.974c-1.568-1.386-2.816-3.096-3.659-5.012 5.516-3.798 11.3-7.218 16.562-11.372-2.599 10.033-6.994 21.138-12.903 16.384zm-7.429-16.761c-.958-3.838-1.723-7.721-2.292-11.635 7.273-6.811 20.325-11.488 23.588-21.162.575-2.169-.717-4.394-2.886-4.969-.327-.087-.664-.132-1.002-.135-8.92.35-14.256 9.554-21.07 14.361-.352-4.055-.501-8.118-.446-12.188 8.857-3.889 17.242-8.775 24.992-14.564 2.353 11.838 3.112 23.938 2.257 35.978-7.471 1.443-16.208 11.47-22.684 16.138-.15-.605-.312-1.26-.457-1.824zm10.394-65.803c2.462.759 4.591 2.334 6.038 4.465-6.82 4.009-13.265 8.706-19.711 13.279.768-4.855 2.076-9.764 2.585-14.635 2.812-3.049 7.102-4.252 11.088-3.109z"></path><path d="m320.662 331.794c-7.908 24.989-20.886 48.078-38.121 67.824-3.848 3.298-5.83 8.276-5.302 13.317.926 3.26 3.891 5.518 7.28 5.543 8.575.396 14.697-11.551 18.786-17.802 13.168-20.132 21.918-42.827 25.673-66.589.551-2.319-.883-4.646-3.202-5.196-2.202-.524-4.434.743-5.114 2.903z"></path><path d="m265.982 421.096c-1.428-4.704-6.4-7.36-11.104-5.931-4.633 1.407-7.292 6.259-5.984 10.922 1.328 4.733 6.242 7.494 10.975 6.166s7.494-6.242 6.166-10.975c-.017-.061-.035-.122-.053-.182z"></path><path d="m354.507 71.082c-5.792.076-11.372 2.193-15.756 5.979-6.497 4.08-11.132 10.55-12.905 18.014.818 11.503 14.257 11.373 19.126 2.376l-1.497 1.937c4.905-6.746 12.249-11.503 16.619-18.573 1.774-3.136.67-7.115-2.466-8.889-.954-.538-2.027-.829-3.121-.844z"></path><path d="m350.676 121.635c3.871 6.163 11.117 1.838 16.132-.323 7.829-4.032 23.225-7.904 21.234-19.146-4.849-7.932-15.74-1.382-21.801 1.868-5.791 4.328-19.864 8.261-15.565 17.601z"></path><path d="m400.16 134.81c-8.894-4.919-19.301.756-28.546 2.054-4.375 1.317-6.853 5.931-5.536 10.305.375 1.246 1.039 2.386 1.937 3.327 4.812 4.647 11.993 1.005 17.853 1.014 5.767.181 11.387-1.842 15.715-5.658 2.733-2.85 2.638-7.376-.212-10.109-.37-.353-.775-.666-1.211-.933z"></path><path d="m324.991 285.616c-24.935-21.204-59.167-37.705-92.572-33.398-4.873.797-4.414 8.289 0 9.403 29.75 5.292 59.341 14.859 82.185 35.537 8.108 5.857 13.365 16.901 22.846 20.387 3.117.785 6.28-1.105 7.065-4.222.107-.423.165-.857.175-1.294-.868-11.002-12.314-19.145-19.699-26.413z"></path></g></svg>