<svg xmlns="http://www.w3.org/2000/svg" id="Layer_1_4_" height="512" viewBox="0 0 48 48" width="512"><path d="m13.882 39.395c.492.589.929.96 1.231 1.113 4.146 5.612 13.988 5.327 18.499.098 4.557-4.773 4.449-13.002-.27-17.645-11.402-10.989-28.845 3.385-19.46 16.434zm2.972 1.691c-.211-.139-.882-.605-1.335-.785-.051-.284-.301-.776-.83-1.495-3.325-4.716-2.409-11.706 2.134-15.244 7.008-5.801 18.091-.967 18.215 8.229.244 9.499-10.562 14.521-18.184 9.295zm-4.654-20.396c6.034-7.546 17.586-7.577 23.703-.097.6.721-.079 1.263-.706.708-6.678-5.745-15.657-5.743-22.29.096-.686.59-1.282-.056-.707-.707zm29.027-5.873c.908 1.073.173 1.53-.709.705-9.435-8.755-23.612-8.535-33.171-.109-1.039.893-1.542.187-.695-.719 9-10.124 25.69-10.352 34.575.123zm2.073-2.384c-11.022-9.919-27.573-9.958-38.594-.004-1.199 1.063-1.665.314-.698-.716 10.131-11.605 29.893-11.569 40.012.026 1.038 1.264.263 1.67-.72.694zm-4.673 5.222c.742.912.038 1.395-.715.699-7.721-7.01-20.07-7.006-27.765.054-.851.755-1.408.103-.715-.699 7.089-8.764 22.068-8.778 29.195-.054z"></path></svg>