<svg xmlns="http://www.w3.org/2000/svg" id="Layer_1" height="512" viewBox="0 0 70 70" width="512"><g id="_x37_3"><path d="m29.9388065 48.3002434-17.4091797 3.6772461c-.4052734.0854492-.6640625.4833984-.578125.8886719.0831919.3957062.4699745.6643906.8886719.5791016l17.4091797-3.6772461c.4052734-.0854492.6640625-.4833984.578125-.8886719-.0849609-.4057618-.4853516-.6625977-.8886719-.5791016z"></path><path d="m26.2825565 53.6366692c-4.3583984.6699219-8.7509766 1.4960938-13.0537119 2.4555664-.4042969.0898438-.6591797.4907227-.5693359.8950195.0912552.4083672.4950562.6582336.8955078.5688477 4.2705088-.9516602 8.6298838-1.7719727 12.9560556-2.4370117.4091797-.0629883.6904297-.4458008.6269531-.8549805-.0624999-.409668-.439453-.6860352-.8554687-.6274414z"></path><path d="m17.9632206 47.4970207c1.1767578-.2412109 1.9628906-1.3583984 1.7910156-2.543457-.1806641-1.2431641-.4033203-2.5014648-.6621094-3.7392578-.2392578-1.1474609-1.3466797-1.9306641-2.5351563-1.7827148-1.4267588.1787109-2.9521494.4741211-4.5341806.8779297-1.1757813.300293-1.9208984 1.4594727-1.6962891 2.6386719.2304688 1.2060547.4863281 2.4082031.7587891 3.5717773.2421875 1.0341797 1.1826172 1.7573242 2.2207031 1.7573242.638156 0 3.9658843-.6384011 4.6572276-.7802735zm-5.9042978-1.2050781c-.2695313-1.1503906-.5214844-2.3388672-.75-3.53125-.1259766-.6611328.2958984-1.3125.9619141-1.4824219 1.5410156-.3930664 3.0253906-.6806641 4.4111338-.8544922.6630859-.0791016 1.2978516.3535156 1.4316406.9946289.2539063 1.2182617.4726563 2.4560547.6503906 3.6787109.0966797.6616211-.34375 1.2856445-1.0019531 1.4204102-1.4414063.2958984-2.8417978.5400391-4.2802744.7470703-.6376954.0986329-1.272461-.3330078-1.4228516-.9726562z"></path><path d="m4.0213251 26.7692375c-.0029297.0042114-.0048828.0090942-.0078125.0133667.0061035-.0010376.0100098-.0043945.0078125-.0133667z"></path><path d="m4.0213251 26.7692375c.0084229-.0119629.013916-.0256958.0223389-.0375977-.0487061-.0269775-.0280762.0123902-.0223389.0375977z"></path><path d="m3.9942255 26.7794914c.0036621.0048828.0080566.0107422.0118408.015625.0028076-.0039673.0046387-.0085449.0074463-.0125122-.0046387.0007324-.0065918.0039063-.0192871-.0031128z"></path><path d="m9.8844843 62.072094c.0811768.12854.1668701.2546997.2711182.3652954.5321045.5650024 1.4272461.7459106 2.1750488.7504272 1.8231153.0110092 34.7417526-6.5924911 39.9122314-8.2194824l-.0936279.0668945c3.4904289-.87994-3.7065735.8406219 14.5324707-3.5259399.1494141-.2189331.2250977-.4628906.253418-.7098999.2871475-.6436996-6.00243-33.3704529-6.3918457-34.5386963-.1367188-.4257822-.3964844-.6293955-.8876953-.6191416-.420433.0082436-.4996719-.0999584-1.5332031.1796875-.4841395.1287604-53.1396018 10.2726088-53.3720704 10.4077158-.3696289.2147217-.5782471.4173584-.6860352.6428833-.0192871-.0251465-.0397949-.0525513-.0582275-.0767212-.4614258.6657715-.8269043 1.4023438-1.0471191 2.1817017 7.2068968 35.0367775 6.6211214 32.8444633 6.9255371 33.0952759zm55.6314688-12.0423584c-.0491867.0112991-34.1278687 6.8253593-41.03125 8.3051758-.6264877.1342583-11.825098 2.5063744-12.4472666 2.3652344-.0893173-.138443-2.8751431-14.8271713-4.4776611-22.9519653 17.8270264-3.7437744 35.743042-7.0639038 53.7281494-9.9550781.0190172.1000498 4.1403284 21.7835158 4.2280283 22.2366332zm-6.2373047-32.8994141c.148819.2870064.7916069 4.2229195.8045654 4.3254395-18.0037842 2.894104-35.9383545 6.2177734-53.7835693 9.9664307-.2436523-1.2112427-.5922303-2.9246044-.7905273-3.899292.1177754-.0652638 53.7419471-10.3956433 53.7695312-10.3925782z"></path><path d="m58.7796249 11.360301c.3999977.1460657.8237495-.0622864.9648438-.4414063l1.1503906-3.0952148c.1445313-.3886719-.0537109-.8203125-.4414063-.9648438-.3925781-.1430664-.8203125.0537109-.9648438.4414063l-1.1503906 3.0952148c-.1445312.3886719.053711.8203126.4414063.9648438z"></path><path d="m62.4866562 14.1005354 2.75-1.6069336c.3583984-.2089844.4785156-.6679688.2695313-1.0258789s-.6708984-.4794922-1.0253906-.269043l-2.75 1.605957c-.3574219.2089844-.4785156.668457-.2695313 1.0258789.2067337.3559609.6660995.4791155 1.0253906.2700196z"></path><path d="m62.9114609 16.3578606c-.0273438.4135742.2871094.7700195.7001953.7963867l2.6318359.1694336c.4146042.0259113.7695389-.2880993.7958984-.7001953.0273438-.4135742-.2861328-.7700205-.6992188-.796876l-2.6328125-.1694336c-.4228514-.0249023-.7695311.2866211-.7958983.7006846z"></path><path d="m14.5179071 45.0902824c.5908203-.4145508 1.3242188-.6220703 2.0332041-.5849609.4042969.0244141.7675781-.2958984.7880859-.7099609.0214844-.4140625-.296875-.7666016-.7099609-.7880859-1.0498056-.0610352-2.109376.2485352-2.9726572.8554688-.817152.5729445.0607996 1.7920912.8613281 1.2275389z"></path><path d="m53.0481796 47.7831535c-.4042969.0883789-.6611328.4882813-.5722656.8925781.0883217.4070625.4902763.6610184.8925781.5732422 2.7675781-.6040039 5.5957031-1.0864258 8.4042969-1.4335938.4111328-.0507813.703125-.4248047.6523438-.8359375-.0507813-.4106445-.4150391-.7041016-.8359375-.6523438-2.8544922.3525392-5.7285157.8427736-8.5410157 1.4560548z"></path><path d="m54.7639999 45.9242668c1.3878098.0594749 2.8309364-.2888145 4.0566406-1 .3574219-.2080078.4794922-.6665039.2714844-1.0249023-.2070313-.3579102-.6650391-.4794922-1.0253906-.2719727-.96875.5615234-2.1220703.8486328-3.2382813.7978516-.3681641-.0166016-.7646484.3022461-.78125.7172852-.0175781.4140624.3027344.7636718.7167969.7817382z"></path></g></svg>