<svg xmlns="http://www.w3.org/2000/svg" id="Layer_1" height="512" viewBox="0 0 72 72" width="512"><g id="Card_Payment"><g><path d="m19.4194031 27.351284h-8.5424805c-.9648438 0-1.75.7851563-1.75 1.75v8.5429688c0 .9648438.7851563 1.75 1.75 1.75h8.5424805c.9648438 0 1.75-.7851563 1.75-1.75v-8.5429688c0-.9648437-.7851563-1.75-1.75-1.75zm-8.5424805 1.5h6.2156372l.1134644 1.3876953-6.5791016.1288452v-1.2665405c0-.1376953.1123047-.25.25-.25zm-.25 8.7929688v-5.7758179l7.0200195-.1372681c.7463837-.0142174 1.1445332-.4794731 1.0908203-1.1728516l-.1398926-1.7070313h.8215332c.1376953 0 .25.1123047.25.25v5.6583862l-6.5771484.0418091c-.809042.0049782-1.1491451.5360413-1.0649414 1.0986328l.2871094 1.9941406h-1.4375c-.1376953.0000002-.25-.1123045-.25-.2499998zm8.7924805.25h-5.5896606l-.2296753-1.5957031 6.0693359-.0387573v1.3844604c0 .1376953-.1123047.25-.25.25z"></path><path d="m53.9350281 30.5834618v-19.6501475c0-.4140625-.3359375-.75-.75-.75h-47.6601563c-.4140625 0-.75.3359375-.75.75v.0440674c-.40802.3856201-.7506714.746521-1.1498413 1.2562256.1497193 9.7534189.0661621 20.3879404.0424195 30.0547495.3295898.1577759.7439575.3973999 1.1509399.6299438.0939941.3070068.3688354.5345459.7064819.5345459h28.5641479c-.5068359 2.6013184-.284668 5.34729.6529541 8.1553955 1.5589981 4.6690331 7.8319855 12.5653648 20.5269165 9.5335693 7.40448-1.112793 13.1060791-7.498291 13.1060791-15.2084961.0000001-8.1676635-6.3962402-14.8509521-14.4399413-15.3498534zm-1.5-18.9001475v6.1279306h-46.1601563v-6.1279306zm-46.1601563 30.2695322v-17.3105468h46.1601563v5.9199829c-.4501343.0157471-.8961182.045166-1.3357544.098938-6.9970741-.2793903-14.4119148 4.1815224-16.6307983 11.291626h-28.1936036zm46.7016602 17.8789063c-7.6640625 0-13.8989258-6.234375-13.8989258-13.8984375s6.2348633-13.8984375 13.8989258-13.8984375c7.6635742 0 13.8984375 6.234375 13.8984375 13.8984375s-6.2348633 13.8984375-13.8984375 13.8984375z"></path><path d="m58.4159851 39.5964012c-2.6928711 2.8291016-5.1162109 5.9287109-7.2119141 9.2255859-1.5585938-1.3974609-3.0444336-2.8974609-4.4257813-4.4677734-.2729492-.3115234-.7475586-.3408203-1.0581055-.0683594-.3110352.2734375-.3417969.7480469-.0678711 1.0585938 1.6186523 1.8408203 3.3774414 3.5878906 5.2275391 5.1914063.3495293.3035049.8877373.2201729 1.1298828-.1738281 2.1464844-3.4892578 4.6674805-6.7636719 7.4926758-9.7304688.2851563-.3007813.2734375-.7753906-.0263672-1.0605469-.2998046-.2861328-.7753905-.2734375-1.0600585.0253906z"></path></g></g></svg>