<svg xmlns="http://www.w3.org/2000/svg" id="Layer_1" height="512" viewBox="0 0 52 52" width="512"><g id="_x36_8"><path d="m1.5 18.7c-.1.5-.1 1-.1 1.4 0 7.5-.1 1.2.3 25.8 0 .4 0 .9.1 1.3.4 1.8 2.1 3.3 4 3.4 3.4 0 6.6-.1 9.9-.2s6.5-.2 9.8-.3c-6.5-.2-13.1-.3-19.6-.5-1.4-.1-2.7-1.3-3-2.7-.1-.6 0-1.5-.1-2.3v-2.5c.2-12.4.3-15.6.3-19.6v-2.5c0-.8.1-1.3.4-1.9.3-.5.8-1 1.4-1.2.3-.1.6-.2.9-.2h1.1.1c.1 0 .2.1.3.1h4.1l15.1.1 19.5-.1c1.3.1 2.4 1.1 2.7 2.3.1.3.1.6.1 1 0 .8 0 3.9 0 3.7v3.4c-3.4-.2-6.9-.4-10.5-.6l-3-.1h-1.5c-.6 0-1.3.1-1.8.5-.6.3-1 .9-1.3 1.5-.1.3-.2.6-.2 1v.8 2.9c0 .3 0 3.4 0 3.2v.2.3c0 .3.1.7.2 1 .3.6.7 1.2 1.3 1.6s1.3.5 1.9.5h1.4c.5 0 5.5 0 13.7-.3 0 .1.1 6.7.1 6.4 0 .8 0 1.4-.4 2.1-.3.6-.9 1.1-1.5 1.4-.3.1-.7.2-1 .3-.3 0-.8 0-1.2 0-6.5.2-13.1.3-19.6.5 6.5.2 13.1.3 19.6.5h1.3c.5 0 .9-.2 1.3-.3.9-.4 1.6-1 2.1-1.8.5-.9.7-1.6.7-2.6.3-24 .2-15.6.3-24.5v-1.2c0-.4 0-1-.1-1.4-.4-2-2.2-3.6-4.2-3.7h-2.1l-4.7-10.6c-.2-.5-.4-.9-.7-1.5-1-1.5-3-2.2-4.7-1.7-.3.1-.6.2-.8.3-.1.1-2.2 1-2 1l-2.7 1.3c-3.7 1.7-7.3 3.5-10.9 5.3-3.6 1.7-7.2 3.5-10.8 5.4h-.1c-.4 0-.8 0-1.3 0-.5.1-1 .2-1.5.4-.9.4-1.7 1.1-2.2 2-.1.4-.3.9-.4 1.4zm33.9 19h-1.4c-.4 0-.6-.1-.8-.2s-.4-.4-.5-.6c-.1-.1-.1-.3-.1-.4v-.1c0-.1 0-3.7 0-3.4v-2.9c0-.4 0-.5 0-.7 0-.1 0-.3.1-.4.1-.3.3-.5.5-.7.3-.2.5-.3.9-.3h1.4l2.8-.1 10.8-.6c0 2.1 0 4.2.1 6.3l.1 4.5c-8.5-.4-13.3-.4-13.9-.4zm-6-32c.2-.1 4.2-2.3 4-2.1.6-.4.9-.6 1.2-.7 1.2-.4 2.6.1 3.4 1.1.2.3.5.8.7 1.2 1.7 3.1 3.6 6.3 5.4 9.7l-17.5-.1-15.2.1c11.4-5.7 11.5-5.9 18-9.2z"></path><path d="m38.2 32.1c-.4-.3-.9-.3-1.3 0-.2.2-.4.4-.7.8.2.4.4.6.7.8.4.3.9.3 1.3 0 .2-.2.4-.4.7-.8-.3-.4-.5-.6-.7-.8z"></path></g></svg>