<svg xmlns="http://www.w3.org/2000/svg" id="ab21b495-1552-4fa1-91a2-b5fcb323f451" height="512" viewBox="0 0 64 64" width="512" data-name="Layer 1"><path d="m21.6335 47.1864c-1.8927-2.1264-3.4216-4.2064-4.8985-6.2208a35.467 35.467 0 0 1 -3.4943-5.8448c-.61-1.2474-.88-2.5105.4413-3.3226 3.7867-2.3271 4.5627-.1051 6.6209 2.4731 1.22 1.5277 3.019 4.0469 4.1462 5.6386 1.0767 1.52 2.3893-1.2234 2.9133-1.9975 1.8624-2.7511 6.7029-9.4863 8.7032-11.9759 1.899-2.3634 8.0285-8.9844 9.1711-10.0375.9726-.8967 3.0261-2.8635 4.407-1.7785 1.4511 1.14 2.16 3.307 1.14 4.716-1.7764 2.453-4.5667 4.7865-6.4974 7.1222-3.9082 4.728-7.6083 9.8244-11.16 14.8988-1.2069 1.7244-2.9014 4.6125-3.9534 6.4826-1.9679 3.4985-3.6964 4.1643-7.5394-.1537z"></path></svg>